M48
; DRILL file {KiCad 8.0.3} date 2024-06-18T15:39:15+0100
; FORMAT={-:-/ absolute / inch / decimal}
; #@! TF.CreationDate,2024-06-18T15:39:15+01:00
; #@! TF.GenerationSoftware,Kicad,Pcbnew,8.0.3
; #@! TF.FileFunction,Plated,1,4,PTH
FMAT,2
INCH
; #@! TA.AperFunction,Plated,PTH,ViaDrill
T1C0.0157
; #@! TA.AperFunction,Plated,PTH,ComponentDrill
T2C0.0197
; #@! TA.AperFunction,Plated,PTH,ComponentDrill
T3C0.0217
; #@! TA.AperFunction,Plated,PTH,ViaDrill
T4C0.0236
; #@! TA.AperFunction,Plated,PTH,ComponentDrill
T5C0.0394
%
G90
G05
T1
X4.0945Y-2.5079
X4.1102Y-4.0787
X4.311Y-2.3189
X4.3504Y-2.2323
X4.3543Y-4.9685
X4.3583Y-3.1024
X4.3701Y-4.6575
X4.4724Y-5.0315
X4.5669Y-3.5354
X4.5748Y-3.8071
X4.5866Y-4.7441
X4.5945Y-2.7362
X4.6102Y-4.9134
X4.622Y-4.4134
X4.6299Y-3.3156
X4.6575Y-5.7677
X4.6693Y-3.378
X4.6969Y-3.937
X4.7047Y-5.4724
X4.7717Y-4.7402
X4.7756Y-2.5669
X4.8425Y-2.4843
X4.8465Y-4.1496
X4.8465Y-4.2913
X4.8543Y-3.5157
X4.8583Y-4.3583
X4.9016Y-4.5472
X4.9094Y-2.5669
X4.9291Y-3.3268
X4.9567Y-4.3976
X4.9646Y-3.9409
X4.9882Y-4.2756
X5.0118Y-3.1063
X5.0433Y-3.9409
X5.0472Y-2.5906
X5.0472Y-2.685
X5.0512Y-4.0039
X5.0551Y-2.4724
X5.0551Y-2.5276
X5.0551Y-2.748
X5.0551Y-2.8031
X5.1102Y-2.9252
X5.1102Y-3.0551
X5.1102Y-3.2047
X5.1142Y-5.5433
X5.1181Y-2.4724
X5.1181Y-2.5276
X5.1181Y-2.748
X5.1181Y-2.8031
X5.1614Y-4.8976
X5.1811Y-2.4724
X5.1811Y-2.5276
X5.1811Y-2.5906
X5.1811Y-2.685
X5.1811Y-2.748
X5.1811Y-2.8031
X5.1969Y-5.4488
X5.2244Y-3.1063
X5.2283Y-3.9331
X5.2441Y-2.4724
X5.2441Y-2.5276
X5.2441Y-2.5906
X5.2441Y-2.685
X5.2441Y-2.748
X5.2441Y-2.8031
X5.2992Y-4.2677
X5.315Y-3.563
X5.3622Y-2.7953
X5.4055Y-3.6457
X5.4291Y-3.3425
X5.4331Y-2.7244
X5.5079Y-5.5354
X5.5118Y-2.5276
X5.5669Y-4.7598
X5.5827Y-2.5827
X5.6024Y-4.0079
X5.6211Y-3.8386
X5.6575Y-3.3228
X5.6693Y-5.5315
X5.6811Y-4.1732
X5.7087Y-3.1614
X5.7244Y-4.4528
X5.8661Y-3.0906
X5.878Y-2.0945
X5.9055Y-3.8622
X5.9449Y-2.0118
X6.0079Y-3.315
X6.0118Y-2.0945
X6.0354Y-4.3307
X6.0827Y-5.6378
X6.1161Y-2.2027
X6.1378Y-2.748
T4
X4.5197Y-3.1102
X4.5433Y-4.2047
X4.6555Y-4.5217
X4.6614Y-5.626
X4.6732Y-4.2008
X4.685Y-2.8465
X4.748Y-4.4764
X4.7756Y-2.7835
X4.7835Y-3.8228
X4.8543Y-3.1496
X4.8864Y-3.9443
X4.9809Y-3.7409
X5.0453Y-3.6575
X5.1378Y-3.9252
X5.1732Y-3.6555
X5.2165Y-4.689
X5.2364Y-3.7482
X5.2618Y-4.3701
X5.315Y-4.689
X5.3235Y-3.9696
X5.3622Y-4.5787
X5.3622Y-5.3228
X5.3819Y-3.1417
X5.4449Y-3.8602
X5.5239Y-4.3976
X5.5325Y-3.8898
X5.5689Y-2.6988
X5.6043Y-4.3583
X5.7126Y-3.1102
T5
X4.0157Y-2.0866
X4.0157Y-2.1866
X4.0157Y-2.2866
X4.0157Y-2.3866
X4.0157Y-2.4866
X4.0157Y-2.5866
X4.0157Y-2.6866
X4.0157Y-2.7866
X4.0157Y-2.8866
X4.0157Y-2.9866
X4.0157Y-3.0866
X4.0157Y-3.1866
X4.0157Y-4.2913
X4.0157Y-4.3913
X4.0157Y-4.4913
X4.0157Y-4.5913
X4.0157Y-4.6913
X4.0157Y-4.7913
X4.0157Y-4.8913
X4.0157Y-4.9913
X4.0157Y-5.0913
X4.0157Y-5.1913
X4.0157Y-5.2913
X4.0157Y-5.3913
X4.0157Y-5.4913
X4.0157Y-5.5913
X4.0157Y-5.6913
X4.0157Y-5.7913
X4.1772Y-3.6929
X4.378Y-2.4488
X4.7687Y-2.1547
X4.7687Y-2.2547
X4.8687Y-2.1547
X4.8687Y-2.2547
X4.9681Y-5.7874
X4.9687Y-2.1547
X4.9687Y-2.2547
X5.0681Y-5.7874
X5.0687Y-2.1547
X5.0687Y-2.2547
X5.1681Y-5.7874
X5.1687Y-2.1547
X5.1687Y-2.2547
X5.2681Y-5.7874
X5.2687Y-2.1547
X5.2687Y-2.2547
X5.3687Y-2.1547
X5.3687Y-2.2547
X5.4687Y-2.1547
X5.4687Y-2.2547
X5.6299Y-5.7677
X5.7717Y-2.4449
X5.9213Y-2.4449
X6.1811Y-3.5039
X6.1811Y-3.6039
X6.1811Y-3.9213
X6.2205Y-2.0866
X6.2205Y-2.1866
X6.2205Y-2.2866
X6.2205Y-2.3866
X6.2205Y-2.4866
X6.2205Y-2.5866
X6.2205Y-2.6866
X6.2205Y-2.7866
X6.2205Y-2.8866
X6.2205Y-2.9866
X6.2205Y-3.0866
X6.2205Y-3.1866
X6.2205Y-4.2913
X6.2205Y-4.3913
X6.2205Y-4.4913
X6.2205Y-4.5913
X6.2205Y-4.6913
X6.2205Y-4.7913
X6.2205Y-4.8913
X6.2205Y-4.9913
X6.2205Y-5.0913
X6.2205Y-5.1913
X6.2205Y-5.2913
X6.2205Y-5.3913
X6.2205Y-5.4913
X6.2205Y-5.5913
X6.2205Y-5.6913
X6.2205Y-5.7913
T2
G00X4.4685Y-5.814
M15
G01X4.4685Y-5.7884
M16
G05
G00X4.7441Y-5.814
M15
G01X4.7441Y-5.7884
M16
G05
T3
G00X4.502Y-5.6949
M15
G01X4.5138Y-5.6949
M16
G05
G00X4.6988Y-5.6949
M15
G01X4.7106Y-5.6949
M16
G05
M30
