%TF.GenerationSoftware,KiCad,Pcbnew,8.0.3*%
%TF.CreationDate,2024-06-18T16:11:43+01:00*%
%TF.ProjectId,Sinosaur_Components,53696e6f-7361-4757-925f-436f6d706f6e,rev?*%
%TF.SameCoordinates,Original*%
%TF.FileFunction,Paste,Top*%
%TF.FilePolarity,Positive*%
%FSLAX46Y46*%
G04 Gerber Fmt 4.6, Leading zero omitted, Abs format (unit mm)*
G04 Created by KiCad (PCBNEW 8.0.3) date 2024-06-18 16:11:43*
%MOMM*%
%LPD*%
G01*
G04 APERTURE LIST*
G04 Aperture macros list*
%AMRoundRect*
0 Rectangle with rounded corners*
0 $1 Rounding radius*
0 $2 $3 $4 $5 $6 $7 $8 $9 X,Y pos of 4 corners*
0 Add a 4 corners polygon primitive as box body*
4,1,4,$2,$3,$4,$5,$6,$7,$8,$9,$2,$3,0*
0 Add four circle primitives for the rounded corners*
1,1,$1+$1,$2,$3*
1,1,$1+$1,$4,$5*
1,1,$1+$1,$6,$7*
1,1,$1+$1,$8,$9*
0 Add four rect primitives between the rounded corners*
20,1,$1+$1,$2,$3,$4,$5,0*
20,1,$1+$1,$4,$5,$6,$7,0*
20,1,$1+$1,$6,$7,$8,$9,0*
20,1,$1+$1,$8,$9,$2,$3,0*%
G04 Aperture macros list end*
%ADD10RoundRect,0.200000X-0.200000X-0.275000X0.200000X-0.275000X0.200000X0.275000X-0.200000X0.275000X0*%
%ADD11R,2.500000X1.900000*%
%ADD12RoundRect,0.225000X0.225000X0.250000X-0.225000X0.250000X-0.225000X-0.250000X0.225000X-0.250000X0*%
%ADD13RoundRect,0.200000X0.200000X0.275000X-0.200000X0.275000X-0.200000X-0.275000X0.200000X-0.275000X0*%
%ADD14RoundRect,0.150000X-0.150000X0.587500X-0.150000X-0.587500X0.150000X-0.587500X0.150000X0.587500X0*%
%ADD15RoundRect,0.225000X-0.250000X0.225000X-0.250000X-0.225000X0.250000X-0.225000X0.250000X0.225000X0*%
%ADD16RoundRect,0.200000X-0.275000X0.200000X-0.275000X-0.200000X0.275000X-0.200000X0.275000X0.200000X0*%
%ADD17RoundRect,0.375000X0.625000X0.375000X-0.625000X0.375000X-0.625000X-0.375000X0.625000X-0.375000X0*%
%ADD18RoundRect,0.500000X0.500000X1.400000X-0.500000X1.400000X-0.500000X-1.400000X0.500000X-1.400000X0*%
%ADD19RoundRect,0.150000X0.825000X0.150000X-0.825000X0.150000X-0.825000X-0.150000X0.825000X-0.150000X0*%
%ADD20RoundRect,0.225000X0.250000X-0.225000X0.250000X0.225000X-0.250000X0.225000X-0.250000X-0.225000X0*%
%ADD21RoundRect,0.250000X-0.350000X0.275000X-0.350000X-0.275000X0.350000X-0.275000X0.350000X0.275000X0*%
%ADD22RoundRect,0.250000X0.650000X-0.325000X0.650000X0.325000X-0.650000X0.325000X-0.650000X-0.325000X0*%
%ADD23RoundRect,0.225000X-0.375000X0.225000X-0.375000X-0.225000X0.375000X-0.225000X0.375000X0.225000X0*%
%ADD24RoundRect,0.075000X0.725000X0.075000X-0.725000X0.075000X-0.725000X-0.075000X0.725000X-0.075000X0*%
%ADD25RoundRect,0.075000X0.075000X0.725000X-0.075000X0.725000X-0.075000X-0.725000X0.075000X-0.725000X0*%
%ADD26RoundRect,0.225000X-0.225000X-0.250000X0.225000X-0.250000X0.225000X0.250000X-0.225000X0.250000X0*%
%ADD27RoundRect,0.250000X0.550000X-1.050000X0.550000X1.050000X-0.550000X1.050000X-0.550000X-1.050000X0*%
%ADD28RoundRect,0.200000X0.275000X-0.200000X0.275000X0.200000X-0.275000X0.200000X-0.275000X-0.200000X0*%
%ADD29RoundRect,0.225000X0.375000X-0.225000X0.375000X0.225000X-0.375000X0.225000X-0.375000X-0.225000X0*%
%ADD30R,0.950000X0.600000*%
%ADD31RoundRect,0.100000X0.100000X-0.575000X0.100000X0.575000X-0.100000X0.575000X-0.100000X-0.575000X0*%
%ADD32RoundRect,0.150000X-0.825000X-0.150000X0.825000X-0.150000X0.825000X0.150000X-0.825000X0.150000X0*%
G04 APERTURE END LIST*
D10*
%TO.C,R30*%
X110175000Y-114800000D03*
X111825000Y-114800000D03*
%TD*%
%TO.C,R34*%
X110175000Y-103400000D03*
X111825000Y-103400000D03*
%TD*%
D11*
%TO.C,Y1*%
X141300000Y-103800000D03*
X141300000Y-108200000D03*
%TD*%
D12*
%TO.C,C19*%
X135375000Y-79000000D03*
X133825000Y-79000000D03*
%TD*%
D10*
%TO.C,R26*%
X110175000Y-108200000D03*
X111825000Y-108200000D03*
%TD*%
D13*
%TO.C,R22*%
X148825000Y-116200000D03*
X147175000Y-116200000D03*
%TD*%
%TO.C,R16*%
X135425000Y-82200000D03*
X133775000Y-82200000D03*
%TD*%
D14*
%TO.C,Q1*%
X145950000Y-139062500D03*
X144050000Y-139062500D03*
X145000000Y-140937500D03*
%TD*%
D15*
%TO.C,C4*%
X130500000Y-94225000D03*
X130500000Y-95775000D03*
%TD*%
%TO.C,C2*%
X132000000Y-94225000D03*
X132000000Y-95775000D03*
%TD*%
D13*
%TO.C,R32*%
X148825000Y-121000000D03*
X147175000Y-121000000D03*
%TD*%
D16*
%TO.C,R18*%
X146000000Y-135175000D03*
X146000000Y-136825000D03*
%TD*%
D13*
%TO.C,R14*%
X148025000Y-82200000D03*
X146375000Y-82200000D03*
%TD*%
D17*
%TO.C,U5*%
X136150000Y-69300000D03*
X136150000Y-67000000D03*
D18*
X129850000Y-67000000D03*
D17*
X136150000Y-64700000D03*
%TD*%
D10*
%TO.C,R13*%
X133775000Y-77400000D03*
X135425000Y-77400000D03*
%TD*%
%TO.C,R3*%
X111975000Y-80000000D03*
X113625000Y-80000000D03*
%TD*%
D13*
%TO.C,R17*%
X135425000Y-75800000D03*
X133775000Y-75800000D03*
%TD*%
D19*
%TO.C,U3*%
X121475000Y-82810000D03*
X121475000Y-81540000D03*
X121475000Y-80270000D03*
X121475000Y-79000000D03*
X121475000Y-77730000D03*
X121475000Y-76460000D03*
X121475000Y-75190000D03*
X116525000Y-75190000D03*
X116525000Y-76460000D03*
X116525000Y-77730000D03*
X116525000Y-79000000D03*
X116525000Y-80270000D03*
X116525000Y-81540000D03*
X116525000Y-82810000D03*
%TD*%
D20*
%TO.C,C13*%
X135000000Y-117875000D03*
X135000000Y-116325000D03*
%TD*%
D21*
%TO.C,L1*%
X119000000Y-65850000D03*
X119000000Y-68150000D03*
%TD*%
D10*
%TO.C,R9*%
X124575000Y-82200000D03*
X126225000Y-82200000D03*
%TD*%
D13*
%TO.C,R5*%
X126225000Y-80600000D03*
X124575000Y-80600000D03*
%TD*%
D22*
%TO.C,C14*%
X139925000Y-68550000D03*
X139925000Y-65600000D03*
%TD*%
D10*
%TO.C,R15*%
X146375000Y-75800000D03*
X148025000Y-75800000D03*
%TD*%
D23*
%TO.C,D2*%
X113000000Y-53350000D03*
X113000000Y-56650000D03*
%TD*%
D10*
%TO.C,R35*%
X110175000Y-101800000D03*
X111825000Y-101800000D03*
%TD*%
%TO.C,R31*%
X110175000Y-116400000D03*
X111825000Y-116400000D03*
%TD*%
D24*
%TO.C,U1*%
X136675000Y-112000000D03*
X136675000Y-111500000D03*
X136675000Y-111000000D03*
X136675000Y-110500000D03*
X136675000Y-110000000D03*
X136675000Y-109500000D03*
X136675000Y-109000000D03*
X136675000Y-108500000D03*
X136675000Y-108000000D03*
X136675000Y-107500000D03*
X136675000Y-107000000D03*
X136675000Y-106500000D03*
X136675000Y-106000000D03*
X136675000Y-105500000D03*
X136675000Y-105000000D03*
X136675000Y-104500000D03*
X136675000Y-104000000D03*
X136675000Y-103500000D03*
X136675000Y-103000000D03*
X136675000Y-102500000D03*
X136675000Y-102000000D03*
X136675000Y-101500000D03*
X136675000Y-101000000D03*
X136675000Y-100500000D03*
X136675000Y-100000000D03*
D25*
X135000000Y-98325000D03*
X134500000Y-98325000D03*
X134000000Y-98325000D03*
X133500000Y-98325000D03*
X133000000Y-98325000D03*
X132500000Y-98325000D03*
X132000000Y-98325000D03*
X131500000Y-98325000D03*
X131000000Y-98325000D03*
X130500000Y-98325000D03*
X130000000Y-98325000D03*
X129500000Y-98325000D03*
X129000000Y-98325000D03*
X128500000Y-98325000D03*
X128000000Y-98325000D03*
X127500000Y-98325000D03*
X127000000Y-98325000D03*
X126500000Y-98325000D03*
X126000000Y-98325000D03*
X125500000Y-98325000D03*
X125000000Y-98325000D03*
X124500000Y-98325000D03*
X124000000Y-98325000D03*
X123500000Y-98325000D03*
X123000000Y-98325000D03*
D24*
X121325000Y-100000000D03*
X121325000Y-100500000D03*
X121325000Y-101000000D03*
X121325000Y-101500000D03*
X121325000Y-102000000D03*
X121325000Y-102500000D03*
X121325000Y-103000000D03*
X121325000Y-103500000D03*
X121325000Y-104000000D03*
X121325000Y-104500000D03*
X121325000Y-105000000D03*
X121325000Y-105500000D03*
X121325000Y-106000000D03*
X121325000Y-106500000D03*
X121325000Y-107000000D03*
X121325000Y-107500000D03*
X121325000Y-108000000D03*
X121325000Y-108500000D03*
X121325000Y-109000000D03*
X121325000Y-109500000D03*
X121325000Y-110000000D03*
X121325000Y-110500000D03*
X121325000Y-111000000D03*
X121325000Y-111500000D03*
X121325000Y-112000000D03*
D25*
X123000000Y-113675000D03*
X123500000Y-113675000D03*
X124000000Y-113675000D03*
X124500000Y-113675000D03*
X125000000Y-113675000D03*
X125500000Y-113675000D03*
X126000000Y-113675000D03*
X126500000Y-113675000D03*
X127000000Y-113675000D03*
X127500000Y-113675000D03*
X128000000Y-113675000D03*
X128500000Y-113675000D03*
X129000000Y-113675000D03*
X129500000Y-113675000D03*
X130000000Y-113675000D03*
X130500000Y-113675000D03*
X131000000Y-113675000D03*
X131500000Y-113675000D03*
X132000000Y-113675000D03*
X132500000Y-113675000D03*
X133000000Y-113675000D03*
X133500000Y-113675000D03*
X134000000Y-113675000D03*
X134500000Y-113675000D03*
X135000000Y-113675000D03*
%TD*%
D13*
%TO.C,R21*%
X148825000Y-117800000D03*
X147175000Y-117800000D03*
%TD*%
D15*
%TO.C,C15*%
X129000000Y-94225000D03*
X129000000Y-95775000D03*
%TD*%
D26*
%TO.C,C18*%
X124625000Y-79000000D03*
X126175000Y-79000000D03*
%TD*%
D13*
%TO.C,R36*%
X148825000Y-113000000D03*
X147175000Y-113000000D03*
%TD*%
%TO.C,R23*%
X148825000Y-114600000D03*
X147175000Y-114600000D03*
%TD*%
D27*
%TO.C,C11*%
X109000000Y-56800000D03*
X109000000Y-53200000D03*
%TD*%
D28*
%TO.C,R38*%
X140000000Y-136825000D03*
X140000000Y-135175000D03*
%TD*%
%TO.C,R37*%
X144000000Y-136825000D03*
X144000000Y-135175000D03*
%TD*%
D27*
%TO.C,C10*%
X151000000Y-56800000D03*
X151000000Y-53200000D03*
%TD*%
D10*
%TO.C,R29*%
X110175000Y-113200000D03*
X111825000Y-113200000D03*
%TD*%
D16*
%TO.C,R19*%
X142000000Y-135175000D03*
X142000000Y-136825000D03*
%TD*%
D13*
%TO.C,R4*%
X126225000Y-77400000D03*
X124575000Y-77400000D03*
%TD*%
D28*
%TO.C,R1*%
X132500000Y-117925000D03*
X132500000Y-116275000D03*
%TD*%
D13*
%TO.C,R11*%
X148025000Y-77400000D03*
X146375000Y-77400000D03*
%TD*%
D29*
%TO.C,D1*%
X147000000Y-56650000D03*
X147000000Y-53350000D03*
%TD*%
D30*
%TO.C,U2*%
X115875000Y-139050000D03*
X115875000Y-140000000D03*
X115875000Y-140950000D03*
X118125000Y-140950000D03*
X118125000Y-140000000D03*
X118125000Y-139050000D03*
%TD*%
D20*
%TO.C,C12*%
X119500000Y-114975000D03*
X119500000Y-113425000D03*
%TD*%
D12*
%TO.C,C3*%
X141075000Y-110700000D03*
X139525000Y-110700000D03*
%TD*%
D13*
%TO.C,R24*%
X148825000Y-122600000D03*
X147175000Y-122600000D03*
%TD*%
D10*
%TO.C,R27*%
X110175000Y-109800000D03*
X111825000Y-109800000D03*
%TD*%
D27*
%TO.C,C17*%
X123000000Y-68800000D03*
X123000000Y-65200000D03*
%TD*%
D31*
%TO.C,J8*%
X115700000Y-144650000D03*
X116350000Y-144650000D03*
X117000000Y-144650000D03*
X117650000Y-144650000D03*
X118300000Y-144650000D03*
%TD*%
D13*
%TO.C,R20*%
X148825000Y-119400000D03*
X147175000Y-119400000D03*
%TD*%
D32*
%TO.C,U4*%
X138525000Y-75190000D03*
X138525000Y-76460000D03*
X138525000Y-77730000D03*
X138525000Y-79000000D03*
X138525000Y-80270000D03*
X138525000Y-81540000D03*
X138525000Y-82810000D03*
X143475000Y-82810000D03*
X143475000Y-81540000D03*
X143475000Y-80270000D03*
X143475000Y-79000000D03*
X143475000Y-77730000D03*
X143475000Y-76460000D03*
X143475000Y-75190000D03*
%TD*%
D13*
%TO.C,R7*%
X113625000Y-81600000D03*
X111975000Y-81600000D03*
%TD*%
D10*
%TO.C,R33*%
X110175000Y-105000000D03*
X111825000Y-105000000D03*
%TD*%
D14*
%TO.C,Q2*%
X141950000Y-139062500D03*
X140050000Y-139062500D03*
X141000000Y-140937500D03*
%TD*%
D10*
%TO.C,R25*%
X110175000Y-106600000D03*
X111825000Y-106600000D03*
%TD*%
D20*
%TO.C,C7*%
X144300000Y-104875000D03*
X144300000Y-103325000D03*
%TD*%
D15*
%TO.C,C16*%
X127500000Y-94225000D03*
X127500000Y-95775000D03*
%TD*%
D10*
%TO.C,R12*%
X133775000Y-80600000D03*
X135425000Y-80600000D03*
%TD*%
%TO.C,R8*%
X124575000Y-75800000D03*
X126225000Y-75800000D03*
%TD*%
D26*
%TO.C,C8*%
X120625000Y-96100000D03*
X122175000Y-96100000D03*
%TD*%
%TO.C,C1*%
X116225000Y-107600000D03*
X117775000Y-107600000D03*
%TD*%
D13*
%TO.C,R6*%
X113625000Y-75800000D03*
X111975000Y-75800000D03*
%TD*%
D10*
%TO.C,R2*%
X111975000Y-77400000D03*
X113625000Y-77400000D03*
%TD*%
%TO.C,R10*%
X146375000Y-80600000D03*
X148025000Y-80600000D03*
%TD*%
D15*
%TO.C,C5*%
X139500000Y-98025000D03*
X139500000Y-99575000D03*
%TD*%
D10*
%TO.C,R28*%
X110175000Y-111600000D03*
X111825000Y-111600000D03*
%TD*%
D26*
%TO.C,C9*%
X116225000Y-106000000D03*
X117775000Y-106000000D03*
%TD*%
D15*
%TO.C,C6*%
X144300000Y-107125000D03*
X144300000Y-108675000D03*
%TD*%
M02*
