%TF.GenerationSoftware,KiCad,Pcbnew,8.0.3*%
%TF.CreationDate,2024-06-18T16:11:43+01:00*%
%TF.ProjectId,Sinosaur_Components,53696e6f-7361-4757-925f-436f6d706f6e,rev?*%
%TF.SameCoordinates,Original*%
%TF.FileFunction,Legend,Bot*%
%TF.FilePolarity,Positive*%
%FSLAX46Y46*%
G04 Gerber Fmt 4.6, Leading zero omitted, Abs format (unit mm)*
G04 Created by KiCad (PCBNEW 8.0.3) date 2024-06-18 16:11:43*
%MOMM*%
%LPD*%
G01*
G04 APERTURE LIST*
%ADD10C,0.150000*%
%ADD11C,0.120000*%
G04 APERTURE END LIST*
D10*
X102233333Y-83154819D02*
X102233333Y-83869104D01*
X102233333Y-83869104D02*
X102280952Y-84011961D01*
X102280952Y-84011961D02*
X102376190Y-84107200D01*
X102376190Y-84107200D02*
X102519047Y-84154819D01*
X102519047Y-84154819D02*
X102614285Y-84154819D01*
X101233333Y-84154819D02*
X101804761Y-84154819D01*
X101519047Y-84154819D02*
X101519047Y-83154819D01*
X101519047Y-83154819D02*
X101614285Y-83297676D01*
X101614285Y-83297676D02*
X101709523Y-83392914D01*
X101709523Y-83392914D02*
X101804761Y-83440533D01*
X158333333Y-106124819D02*
X158333333Y-106839104D01*
X158333333Y-106839104D02*
X158380952Y-106981961D01*
X158380952Y-106981961D02*
X158476190Y-107077200D01*
X158476190Y-107077200D02*
X158619047Y-107124819D01*
X158619047Y-107124819D02*
X158714285Y-107124819D01*
X157428571Y-106458152D02*
X157428571Y-107124819D01*
X157666666Y-106077200D02*
X157904761Y-106791485D01*
X157904761Y-106791485D02*
X157285714Y-106791485D01*
X158433333Y-83054819D02*
X158433333Y-83769104D01*
X158433333Y-83769104D02*
X158480952Y-83911961D01*
X158480952Y-83911961D02*
X158576190Y-84007200D01*
X158576190Y-84007200D02*
X158719047Y-84054819D01*
X158719047Y-84054819D02*
X158814285Y-84054819D01*
X158004761Y-83150057D02*
X157957142Y-83102438D01*
X157957142Y-83102438D02*
X157861904Y-83054819D01*
X157861904Y-83054819D02*
X157623809Y-83054819D01*
X157623809Y-83054819D02*
X157528571Y-83102438D01*
X157528571Y-83102438D02*
X157480952Y-83150057D01*
X157480952Y-83150057D02*
X157433333Y-83245295D01*
X157433333Y-83245295D02*
X157433333Y-83340533D01*
X157433333Y-83340533D02*
X157480952Y-83483390D01*
X157480952Y-83483390D02*
X158052380Y-84054819D01*
X158052380Y-84054819D02*
X157433333Y-84054819D01*
X102333333Y-106124819D02*
X102333333Y-106839104D01*
X102333333Y-106839104D02*
X102380952Y-106981961D01*
X102380952Y-106981961D02*
X102476190Y-107077200D01*
X102476190Y-107077200D02*
X102619047Y-107124819D01*
X102619047Y-107124819D02*
X102714285Y-107124819D01*
X101952380Y-106124819D02*
X101333333Y-106124819D01*
X101333333Y-106124819D02*
X101666666Y-106505771D01*
X101666666Y-106505771D02*
X101523809Y-106505771D01*
X101523809Y-106505771D02*
X101428571Y-106553390D01*
X101428571Y-106553390D02*
X101380952Y-106601009D01*
X101380952Y-106601009D02*
X101333333Y-106696247D01*
X101333333Y-106696247D02*
X101333333Y-106934342D01*
X101333333Y-106934342D02*
X101380952Y-107029580D01*
X101380952Y-107029580D02*
X101428571Y-107077200D01*
X101428571Y-107077200D02*
X101523809Y-107124819D01*
X101523809Y-107124819D02*
X101809523Y-107124819D01*
X101809523Y-107124819D02*
X101904761Y-107077200D01*
X101904761Y-107077200D02*
X101952380Y-107029580D01*
D11*
%TO.C,J1*%
X100670000Y-54270000D02*
X103330000Y-54270000D01*
X100670000Y-82270000D02*
X100670000Y-54270000D01*
X100670000Y-82270000D02*
X103330000Y-82270000D01*
X102000000Y-51670000D02*
X103330000Y-51670000D01*
X103330000Y-51670000D02*
X103330000Y-53000000D01*
X103330000Y-82270000D02*
X103330000Y-54270000D01*
%TO.C,J4*%
X156670000Y-110270000D02*
X159330000Y-110270000D01*
X156670000Y-148430000D02*
X156670000Y-110270000D01*
X156670000Y-148430000D02*
X159330000Y-148430000D01*
X158000000Y-107670000D02*
X159330000Y-107670000D01*
X159330000Y-107670000D02*
X159330000Y-109000000D01*
X159330000Y-148430000D02*
X159330000Y-110270000D01*
%TO.C,J2*%
X156670000Y-54270000D02*
X159330000Y-54270000D01*
X156670000Y-82270000D02*
X156670000Y-54270000D01*
X156670000Y-82270000D02*
X159330000Y-82270000D01*
X158000000Y-51670000D02*
X159330000Y-51670000D01*
X159330000Y-51670000D02*
X159330000Y-53000000D01*
X159330000Y-82270000D02*
X159330000Y-54270000D01*
%TO.C,J3*%
X100670000Y-110270000D02*
X103330000Y-110270000D01*
X100670000Y-148430000D02*
X100670000Y-110270000D01*
X100670000Y-148430000D02*
X103330000Y-148430000D01*
X102000000Y-107670000D02*
X103330000Y-107670000D01*
X103330000Y-107670000D02*
X103330000Y-109000000D01*
X103330000Y-148430000D02*
X103330000Y-110270000D01*
%TD*%
M02*
