%TF.GenerationSoftware,KiCad,Pcbnew,8.0.3*%
%TF.CreationDate,2024-06-18T15:39:12+01:00*%
%TF.ProjectId,Sinosaur_Components,53696e6f-7361-4757-925f-436f6d706f6e,rev?*%
%TF.SameCoordinates,Original*%
%TF.FileFunction,Soldermask,Bot*%
%TF.FilePolarity,Negative*%
%FSLAX46Y46*%
G04 Gerber Fmt 4.6, Leading zero omitted, Abs format (unit mm)*
G04 Created by KiCad (PCBNEW 8.0.3) date 2024-06-18 15:39:12*
%MOMM*%
%LPD*%
G01*
G04 APERTURE LIST*
%ADD10C,0.150000*%
%ADD11C,1.700000*%
%ADD12R,1.700000X1.700000*%
%ADD13O,1.700000X1.700000*%
%ADD14O,1.250000X0.950000*%
%ADD15O,1.000000X1.550000*%
G04 APERTURE END LIST*
D10*
X127600000Y-62000000D02*
X134000000Y-62000000D01*
X134000000Y-72000000D01*
X127600000Y-72000000D01*
X127600000Y-62000000D01*
G36*
X127600000Y-62000000D02*
G01*
X134000000Y-62000000D01*
X134000000Y-72000000D01*
X127600000Y-72000000D01*
X127600000Y-62000000D01*
G37*
D11*
%TO.C,TP4*%
X157000000Y-99600000D03*
%TD*%
%TO.C,TP5*%
X143000000Y-146500000D03*
%TD*%
%TO.C,TP2*%
X111200000Y-62200000D03*
%TD*%
%TO.C,TP3*%
X150400000Y-62100000D03*
%TD*%
D12*
%TO.C,J7*%
X157000000Y-89000000D03*
D13*
X157000000Y-91540000D03*
%TD*%
D12*
%TO.C,J6*%
X121125000Y-57270000D03*
D11*
X121125000Y-54730000D03*
X123665000Y-57270000D03*
X123665000Y-54730000D03*
X126205000Y-57270000D03*
X126205000Y-54730000D03*
X128745000Y-57270000D03*
X128745000Y-54730000D03*
X131285000Y-57270000D03*
X131285000Y-54730000D03*
X133825000Y-57270000D03*
X133825000Y-54730000D03*
X136365000Y-57270000D03*
X136365000Y-54730000D03*
X138905000Y-57270000D03*
X138905000Y-54730000D03*
%TD*%
%TO.C,TP1*%
X146600000Y-62100000D03*
%TD*%
D14*
%TO.C,J8*%
X114500000Y-144650000D03*
X119500000Y-144650000D03*
D15*
X120500000Y-147350000D03*
X113500000Y-147350000D03*
%TD*%
D12*
%TO.C,J5*%
X126190000Y-147000000D03*
D11*
X128730000Y-147000000D03*
X131270000Y-147000000D03*
X133810000Y-147000000D03*
%TD*%
%TO.C,TP6*%
X106100000Y-93800000D03*
%TD*%
D12*
%TO.C,J1*%
X102000000Y-53000000D03*
D13*
X102000000Y-55540000D03*
X102000000Y-58080000D03*
X102000000Y-60620000D03*
X102000000Y-63160000D03*
X102000000Y-65700000D03*
X102000000Y-68240000D03*
X102000000Y-70780000D03*
X102000000Y-73320000D03*
X102000000Y-75860000D03*
X102000000Y-78400000D03*
X102000000Y-80940000D03*
%TD*%
D12*
%TO.C,J4*%
X158000000Y-109000000D03*
D13*
X158000000Y-111540000D03*
X158000000Y-114080000D03*
X158000000Y-116620000D03*
X158000000Y-119160000D03*
X158000000Y-121700000D03*
X158000000Y-124240000D03*
X158000000Y-126780000D03*
X158000000Y-129320000D03*
X158000000Y-131860000D03*
X158000000Y-134400000D03*
X158000000Y-136940000D03*
X158000000Y-139480000D03*
X158000000Y-142020000D03*
X158000000Y-144560000D03*
X158000000Y-147100000D03*
%TD*%
D12*
%TO.C,J2*%
X158000000Y-53000000D03*
D13*
X158000000Y-55540000D03*
X158000000Y-58080000D03*
X158000000Y-60620000D03*
X158000000Y-63160000D03*
X158000000Y-65700000D03*
X158000000Y-68240000D03*
X158000000Y-70780000D03*
X158000000Y-73320000D03*
X158000000Y-75860000D03*
X158000000Y-78400000D03*
X158000000Y-80940000D03*
%TD*%
D12*
%TO.C,J3*%
X102000000Y-109000000D03*
D13*
X102000000Y-111540000D03*
X102000000Y-114080000D03*
X102000000Y-116620000D03*
X102000000Y-119160000D03*
X102000000Y-121700000D03*
X102000000Y-124240000D03*
X102000000Y-126780000D03*
X102000000Y-129320000D03*
X102000000Y-131860000D03*
X102000000Y-134400000D03*
X102000000Y-136940000D03*
X102000000Y-139480000D03*
X102000000Y-142020000D03*
X102000000Y-144560000D03*
X102000000Y-147100000D03*
%TD*%
M02*
