%TF.GenerationSoftware,KiCad,Pcbnew,8.0.3*%
%TF.CreationDate,2024-06-18T15:39:12+01:00*%
%TF.ProjectId,Sinosaur_Components,53696e6f-7361-4757-925f-436f6d706f6e,rev?*%
%TF.SameCoordinates,Original*%
%TF.FileFunction,Legend,Top*%
%TF.FilePolarity,Positive*%
%FSLAX46Y46*%
G04 Gerber Fmt 4.6, Leading zero omitted, Abs format (unit mm)*
G04 Created by KiCad (PCBNEW 8.0.3) date 2024-06-18 15:39:12*
%MOMM*%
%LPD*%
G01*
G04 APERTURE LIST*
%ADD10C,0.150000*%
%ADD11C,0.200000*%
%ADD12C,0.120000*%
%ADD13C,0.127000*%
G04 APERTURE END LIST*
D10*
X114050000Y-124100000D02*
X145950000Y-124100000D01*
X145950000Y-130100000D01*
X114050000Y-130100000D01*
X114050000Y-124100000D01*
X157666666Y-106154819D02*
X157666666Y-106869104D01*
X157666666Y-106869104D02*
X157619047Y-107011961D01*
X157619047Y-107011961D02*
X157523809Y-107107200D01*
X157523809Y-107107200D02*
X157380952Y-107154819D01*
X157380952Y-107154819D02*
X157285714Y-107154819D01*
X158571428Y-106488152D02*
X158571428Y-107154819D01*
X158333333Y-106107200D02*
X158095238Y-106821485D01*
X158095238Y-106821485D02*
X158714285Y-106821485D01*
X101766666Y-106154819D02*
X101766666Y-106869104D01*
X101766666Y-106869104D02*
X101719047Y-107011961D01*
X101719047Y-107011961D02*
X101623809Y-107107200D01*
X101623809Y-107107200D02*
X101480952Y-107154819D01*
X101480952Y-107154819D02*
X101385714Y-107154819D01*
X102147619Y-106154819D02*
X102766666Y-106154819D01*
X102766666Y-106154819D02*
X102433333Y-106535771D01*
X102433333Y-106535771D02*
X102576190Y-106535771D01*
X102576190Y-106535771D02*
X102671428Y-106583390D01*
X102671428Y-106583390D02*
X102719047Y-106631009D01*
X102719047Y-106631009D02*
X102766666Y-106726247D01*
X102766666Y-106726247D02*
X102766666Y-106964342D01*
X102766666Y-106964342D02*
X102719047Y-107059580D01*
X102719047Y-107059580D02*
X102671428Y-107107200D01*
X102671428Y-107107200D02*
X102576190Y-107154819D01*
X102576190Y-107154819D02*
X102290476Y-107154819D01*
X102290476Y-107154819D02*
X102195238Y-107107200D01*
X102195238Y-107107200D02*
X102147619Y-107059580D01*
X146761904Y-100554819D02*
X146428571Y-100078628D01*
X146190476Y-100554819D02*
X146190476Y-99554819D01*
X146190476Y-99554819D02*
X146571428Y-99554819D01*
X146571428Y-99554819D02*
X146666666Y-99602438D01*
X146666666Y-99602438D02*
X146714285Y-99650057D01*
X146714285Y-99650057D02*
X146761904Y-99745295D01*
X146761904Y-99745295D02*
X146761904Y-99888152D01*
X146761904Y-99888152D02*
X146714285Y-99983390D01*
X146714285Y-99983390D02*
X146666666Y-100031009D01*
X146666666Y-100031009D02*
X146571428Y-100078628D01*
X146571428Y-100078628D02*
X146190476Y-100078628D01*
X147571428Y-100507200D02*
X147476190Y-100554819D01*
X147476190Y-100554819D02*
X147285714Y-100554819D01*
X147285714Y-100554819D02*
X147190476Y-100507200D01*
X147190476Y-100507200D02*
X147142857Y-100411961D01*
X147142857Y-100411961D02*
X147142857Y-100031009D01*
X147142857Y-100031009D02*
X147190476Y-99935771D01*
X147190476Y-99935771D02*
X147285714Y-99888152D01*
X147285714Y-99888152D02*
X147476190Y-99888152D01*
X147476190Y-99888152D02*
X147571428Y-99935771D01*
X147571428Y-99935771D02*
X147619047Y-100031009D01*
X147619047Y-100031009D02*
X147619047Y-100126247D01*
X147619047Y-100126247D02*
X147142857Y-100221485D01*
X148000000Y-100507200D02*
X148095238Y-100554819D01*
X148095238Y-100554819D02*
X148285714Y-100554819D01*
X148285714Y-100554819D02*
X148380952Y-100507200D01*
X148380952Y-100507200D02*
X148428571Y-100411961D01*
X148428571Y-100411961D02*
X148428571Y-100364342D01*
X148428571Y-100364342D02*
X148380952Y-100269104D01*
X148380952Y-100269104D02*
X148285714Y-100221485D01*
X148285714Y-100221485D02*
X148142857Y-100221485D01*
X148142857Y-100221485D02*
X148047619Y-100173866D01*
X148047619Y-100173866D02*
X148000000Y-100078628D01*
X148000000Y-100078628D02*
X148000000Y-100031009D01*
X148000000Y-100031009D02*
X148047619Y-99935771D01*
X148047619Y-99935771D02*
X148142857Y-99888152D01*
X148142857Y-99888152D02*
X148285714Y-99888152D01*
X148285714Y-99888152D02*
X148380952Y-99935771D01*
X149238095Y-100507200D02*
X149142857Y-100554819D01*
X149142857Y-100554819D02*
X148952381Y-100554819D01*
X148952381Y-100554819D02*
X148857143Y-100507200D01*
X148857143Y-100507200D02*
X148809524Y-100411961D01*
X148809524Y-100411961D02*
X148809524Y-100031009D01*
X148809524Y-100031009D02*
X148857143Y-99935771D01*
X148857143Y-99935771D02*
X148952381Y-99888152D01*
X148952381Y-99888152D02*
X149142857Y-99888152D01*
X149142857Y-99888152D02*
X149238095Y-99935771D01*
X149238095Y-99935771D02*
X149285714Y-100031009D01*
X149285714Y-100031009D02*
X149285714Y-100126247D01*
X149285714Y-100126247D02*
X148809524Y-100221485D01*
X149571429Y-99888152D02*
X149952381Y-99888152D01*
X149714286Y-99554819D02*
X149714286Y-100411961D01*
X149714286Y-100411961D02*
X149761905Y-100507200D01*
X149761905Y-100507200D02*
X149857143Y-100554819D01*
X149857143Y-100554819D02*
X149952381Y-100554819D01*
X157766666Y-83054819D02*
X157766666Y-83769104D01*
X157766666Y-83769104D02*
X157719047Y-83911961D01*
X157719047Y-83911961D02*
X157623809Y-84007200D01*
X157623809Y-84007200D02*
X157480952Y-84054819D01*
X157480952Y-84054819D02*
X157385714Y-84054819D01*
X158195238Y-83150057D02*
X158242857Y-83102438D01*
X158242857Y-83102438D02*
X158338095Y-83054819D01*
X158338095Y-83054819D02*
X158576190Y-83054819D01*
X158576190Y-83054819D02*
X158671428Y-83102438D01*
X158671428Y-83102438D02*
X158719047Y-83150057D01*
X158719047Y-83150057D02*
X158766666Y-83245295D01*
X158766666Y-83245295D02*
X158766666Y-83340533D01*
X158766666Y-83340533D02*
X158719047Y-83483390D01*
X158719047Y-83483390D02*
X158147619Y-84054819D01*
X158147619Y-84054819D02*
X158766666Y-84054819D01*
D11*
X117000000Y-126476070D02*
X117000000Y-124976070D01*
X117000000Y-124976070D02*
X117500000Y-126047499D01*
X117500000Y-126047499D02*
X118000000Y-124976070D01*
X118000000Y-124976070D02*
X118000000Y-126476070D01*
X118928572Y-126476070D02*
X118785715Y-126404642D01*
X118785715Y-126404642D02*
X118714286Y-126333213D01*
X118714286Y-126333213D02*
X118642858Y-126190356D01*
X118642858Y-126190356D02*
X118642858Y-125761784D01*
X118642858Y-125761784D02*
X118714286Y-125618927D01*
X118714286Y-125618927D02*
X118785715Y-125547499D01*
X118785715Y-125547499D02*
X118928572Y-125476070D01*
X118928572Y-125476070D02*
X119142858Y-125476070D01*
X119142858Y-125476070D02*
X119285715Y-125547499D01*
X119285715Y-125547499D02*
X119357144Y-125618927D01*
X119357144Y-125618927D02*
X119428572Y-125761784D01*
X119428572Y-125761784D02*
X119428572Y-126190356D01*
X119428572Y-126190356D02*
X119357144Y-126333213D01*
X119357144Y-126333213D02*
X119285715Y-126404642D01*
X119285715Y-126404642D02*
X119142858Y-126476070D01*
X119142858Y-126476070D02*
X118928572Y-126476070D01*
X120714287Y-125476070D02*
X120714287Y-126476070D01*
X120071429Y-125476070D02*
X120071429Y-126261784D01*
X120071429Y-126261784D02*
X120142858Y-126404642D01*
X120142858Y-126404642D02*
X120285715Y-126476070D01*
X120285715Y-126476070D02*
X120500001Y-126476070D01*
X120500001Y-126476070D02*
X120642858Y-126404642D01*
X120642858Y-126404642D02*
X120714287Y-126333213D01*
X121428572Y-125476070D02*
X121428572Y-126476070D01*
X121428572Y-125618927D02*
X121500001Y-125547499D01*
X121500001Y-125547499D02*
X121642858Y-125476070D01*
X121642858Y-125476070D02*
X121857144Y-125476070D01*
X121857144Y-125476070D02*
X122000001Y-125547499D01*
X122000001Y-125547499D02*
X122071430Y-125690356D01*
X122071430Y-125690356D02*
X122071430Y-126476070D01*
X122571430Y-125476070D02*
X123142858Y-125476070D01*
X122785715Y-124976070D02*
X122785715Y-126261784D01*
X122785715Y-126261784D02*
X122857144Y-126404642D01*
X122857144Y-126404642D02*
X123000001Y-126476070D01*
X123000001Y-126476070D02*
X123142858Y-126476070D01*
X123642858Y-125476070D02*
X123642858Y-126761784D01*
X123642858Y-126761784D02*
X123571430Y-126904642D01*
X123571430Y-126904642D02*
X123428573Y-126976070D01*
X123428573Y-126976070D02*
X123357144Y-126976070D01*
X123642858Y-124976070D02*
X123571430Y-125047499D01*
X123571430Y-125047499D02*
X123642858Y-125118927D01*
X123642858Y-125118927D02*
X123714287Y-125047499D01*
X123714287Y-125047499D02*
X123642858Y-124976070D01*
X123642858Y-124976070D02*
X123642858Y-125118927D01*
X124571430Y-126476070D02*
X124428573Y-126404642D01*
X124428573Y-126404642D02*
X124357144Y-126333213D01*
X124357144Y-126333213D02*
X124285716Y-126190356D01*
X124285716Y-126190356D02*
X124285716Y-125761784D01*
X124285716Y-125761784D02*
X124357144Y-125618927D01*
X124357144Y-125618927D02*
X124428573Y-125547499D01*
X124428573Y-125547499D02*
X124571430Y-125476070D01*
X124571430Y-125476070D02*
X124785716Y-125476070D01*
X124785716Y-125476070D02*
X124928573Y-125547499D01*
X124928573Y-125547499D02*
X125000002Y-125618927D01*
X125000002Y-125618927D02*
X125071430Y-125761784D01*
X125071430Y-125761784D02*
X125071430Y-126190356D01*
X125071430Y-126190356D02*
X125000002Y-126333213D01*
X125000002Y-126333213D02*
X124928573Y-126404642D01*
X124928573Y-126404642D02*
X124785716Y-126476070D01*
X124785716Y-126476070D02*
X124571430Y-126476070D01*
X125571430Y-125476070D02*
X125928573Y-126476070D01*
X126285716Y-125476070D02*
X125928573Y-126476070D01*
X125928573Y-126476070D02*
X125785716Y-126833213D01*
X125785716Y-126833213D02*
X125714287Y-126904642D01*
X125714287Y-126904642D02*
X125571430Y-126976070D01*
X128000001Y-126476070D02*
X128000001Y-124976070D01*
X128000001Y-124976070D02*
X128500001Y-126047499D01*
X128500001Y-126047499D02*
X129000001Y-124976070D01*
X129000001Y-124976070D02*
X129000001Y-126476070D01*
X129928573Y-126476070D02*
X129785716Y-126404642D01*
X129785716Y-126404642D02*
X129714287Y-126333213D01*
X129714287Y-126333213D02*
X129642859Y-126190356D01*
X129642859Y-126190356D02*
X129642859Y-125761784D01*
X129642859Y-125761784D02*
X129714287Y-125618927D01*
X129714287Y-125618927D02*
X129785716Y-125547499D01*
X129785716Y-125547499D02*
X129928573Y-125476070D01*
X129928573Y-125476070D02*
X130142859Y-125476070D01*
X130142859Y-125476070D02*
X130285716Y-125547499D01*
X130285716Y-125547499D02*
X130357145Y-125618927D01*
X130357145Y-125618927D02*
X130428573Y-125761784D01*
X130428573Y-125761784D02*
X130428573Y-126190356D01*
X130428573Y-126190356D02*
X130357145Y-126333213D01*
X130357145Y-126333213D02*
X130285716Y-126404642D01*
X130285716Y-126404642D02*
X130142859Y-126476070D01*
X130142859Y-126476070D02*
X129928573Y-126476070D01*
X131714288Y-126476070D02*
X131714288Y-124976070D01*
X131714288Y-126404642D02*
X131571430Y-126476070D01*
X131571430Y-126476070D02*
X131285716Y-126476070D01*
X131285716Y-126476070D02*
X131142859Y-126404642D01*
X131142859Y-126404642D02*
X131071430Y-126333213D01*
X131071430Y-126333213D02*
X131000002Y-126190356D01*
X131000002Y-126190356D02*
X131000002Y-125761784D01*
X131000002Y-125761784D02*
X131071430Y-125618927D01*
X131071430Y-125618927D02*
X131142859Y-125547499D01*
X131142859Y-125547499D02*
X131285716Y-125476070D01*
X131285716Y-125476070D02*
X131571430Y-125476070D01*
X131571430Y-125476070D02*
X131714288Y-125547499D01*
X133071431Y-125476070D02*
X133071431Y-126476070D01*
X132428573Y-125476070D02*
X132428573Y-126261784D01*
X132428573Y-126261784D02*
X132500002Y-126404642D01*
X132500002Y-126404642D02*
X132642859Y-126476070D01*
X132642859Y-126476070D02*
X132857145Y-126476070D01*
X132857145Y-126476070D02*
X133000002Y-126404642D01*
X133000002Y-126404642D02*
X133071431Y-126333213D01*
X134000002Y-126476070D02*
X133857145Y-126404642D01*
X133857145Y-126404642D02*
X133785716Y-126261784D01*
X133785716Y-126261784D02*
X133785716Y-124976070D01*
X135214288Y-126476070D02*
X135214288Y-125690356D01*
X135214288Y-125690356D02*
X135142859Y-125547499D01*
X135142859Y-125547499D02*
X135000002Y-125476070D01*
X135000002Y-125476070D02*
X134714288Y-125476070D01*
X134714288Y-125476070D02*
X134571430Y-125547499D01*
X135214288Y-126404642D02*
X135071430Y-126476070D01*
X135071430Y-126476070D02*
X134714288Y-126476070D01*
X134714288Y-126476070D02*
X134571430Y-126404642D01*
X134571430Y-126404642D02*
X134500002Y-126261784D01*
X134500002Y-126261784D02*
X134500002Y-126118927D01*
X134500002Y-126118927D02*
X134571430Y-125976070D01*
X134571430Y-125976070D02*
X134714288Y-125904642D01*
X134714288Y-125904642D02*
X135071430Y-125904642D01*
X135071430Y-125904642D02*
X135214288Y-125833213D01*
X135928573Y-126476070D02*
X135928573Y-125476070D01*
X135928573Y-125761784D02*
X136000002Y-125618927D01*
X136000002Y-125618927D02*
X136071431Y-125547499D01*
X136071431Y-125547499D02*
X136214288Y-125476070D01*
X136214288Y-125476070D02*
X136357145Y-125476070D01*
X137928573Y-125118927D02*
X138000001Y-125047499D01*
X138000001Y-125047499D02*
X138142859Y-124976070D01*
X138142859Y-124976070D02*
X138500001Y-124976070D01*
X138500001Y-124976070D02*
X138642859Y-125047499D01*
X138642859Y-125047499D02*
X138714287Y-125118927D01*
X138714287Y-125118927D02*
X138785716Y-125261784D01*
X138785716Y-125261784D02*
X138785716Y-125404642D01*
X138785716Y-125404642D02*
X138714287Y-125618927D01*
X138714287Y-125618927D02*
X137857144Y-126476070D01*
X137857144Y-126476070D02*
X138785716Y-126476070D01*
X139714287Y-124976070D02*
X139857144Y-124976070D01*
X139857144Y-124976070D02*
X140000001Y-125047499D01*
X140000001Y-125047499D02*
X140071430Y-125118927D01*
X140071430Y-125118927D02*
X140142858Y-125261784D01*
X140142858Y-125261784D02*
X140214287Y-125547499D01*
X140214287Y-125547499D02*
X140214287Y-125904642D01*
X140214287Y-125904642D02*
X140142858Y-126190356D01*
X140142858Y-126190356D02*
X140071430Y-126333213D01*
X140071430Y-126333213D02*
X140000001Y-126404642D01*
X140000001Y-126404642D02*
X139857144Y-126476070D01*
X139857144Y-126476070D02*
X139714287Y-126476070D01*
X139714287Y-126476070D02*
X139571430Y-126404642D01*
X139571430Y-126404642D02*
X139500001Y-126333213D01*
X139500001Y-126333213D02*
X139428572Y-126190356D01*
X139428572Y-126190356D02*
X139357144Y-125904642D01*
X139357144Y-125904642D02*
X139357144Y-125547499D01*
X139357144Y-125547499D02*
X139428572Y-125261784D01*
X139428572Y-125261784D02*
X139500001Y-125118927D01*
X139500001Y-125118927D02*
X139571430Y-125047499D01*
X139571430Y-125047499D02*
X139714287Y-124976070D01*
X140785715Y-125118927D02*
X140857143Y-125047499D01*
X140857143Y-125047499D02*
X141000001Y-124976070D01*
X141000001Y-124976070D02*
X141357143Y-124976070D01*
X141357143Y-124976070D02*
X141500001Y-125047499D01*
X141500001Y-125047499D02*
X141571429Y-125118927D01*
X141571429Y-125118927D02*
X141642858Y-125261784D01*
X141642858Y-125261784D02*
X141642858Y-125404642D01*
X141642858Y-125404642D02*
X141571429Y-125618927D01*
X141571429Y-125618927D02*
X140714286Y-126476070D01*
X140714286Y-126476070D02*
X141642858Y-126476070D01*
X142928572Y-125476070D02*
X142928572Y-126476070D01*
X142571429Y-124904642D02*
X142214286Y-125976070D01*
X142214286Y-125976070D02*
X143142857Y-125976070D01*
X115107143Y-128819558D02*
X115321429Y-128890986D01*
X115321429Y-128890986D02*
X115678571Y-128890986D01*
X115678571Y-128890986D02*
X115821429Y-128819558D01*
X115821429Y-128819558D02*
X115892857Y-128748129D01*
X115892857Y-128748129D02*
X115964286Y-128605272D01*
X115964286Y-128605272D02*
X115964286Y-128462415D01*
X115964286Y-128462415D02*
X115892857Y-128319558D01*
X115892857Y-128319558D02*
X115821429Y-128248129D01*
X115821429Y-128248129D02*
X115678571Y-128176700D01*
X115678571Y-128176700D02*
X115392857Y-128105272D01*
X115392857Y-128105272D02*
X115250000Y-128033843D01*
X115250000Y-128033843D02*
X115178571Y-127962415D01*
X115178571Y-127962415D02*
X115107143Y-127819558D01*
X115107143Y-127819558D02*
X115107143Y-127676700D01*
X115107143Y-127676700D02*
X115178571Y-127533843D01*
X115178571Y-127533843D02*
X115250000Y-127462415D01*
X115250000Y-127462415D02*
X115392857Y-127390986D01*
X115392857Y-127390986D02*
X115750000Y-127390986D01*
X115750000Y-127390986D02*
X115964286Y-127462415D01*
X116607142Y-128890986D02*
X116607142Y-127890986D01*
X116607142Y-127390986D02*
X116535714Y-127462415D01*
X116535714Y-127462415D02*
X116607142Y-127533843D01*
X116607142Y-127533843D02*
X116678571Y-127462415D01*
X116678571Y-127462415D02*
X116607142Y-127390986D01*
X116607142Y-127390986D02*
X116607142Y-127533843D01*
X117321428Y-127890986D02*
X117321428Y-128890986D01*
X117321428Y-128033843D02*
X117392857Y-127962415D01*
X117392857Y-127962415D02*
X117535714Y-127890986D01*
X117535714Y-127890986D02*
X117750000Y-127890986D01*
X117750000Y-127890986D02*
X117892857Y-127962415D01*
X117892857Y-127962415D02*
X117964286Y-128105272D01*
X117964286Y-128105272D02*
X117964286Y-128890986D01*
X118892857Y-128890986D02*
X118750000Y-128819558D01*
X118750000Y-128819558D02*
X118678571Y-128748129D01*
X118678571Y-128748129D02*
X118607143Y-128605272D01*
X118607143Y-128605272D02*
X118607143Y-128176700D01*
X118607143Y-128176700D02*
X118678571Y-128033843D01*
X118678571Y-128033843D02*
X118750000Y-127962415D01*
X118750000Y-127962415D02*
X118892857Y-127890986D01*
X118892857Y-127890986D02*
X119107143Y-127890986D01*
X119107143Y-127890986D02*
X119250000Y-127962415D01*
X119250000Y-127962415D02*
X119321429Y-128033843D01*
X119321429Y-128033843D02*
X119392857Y-128176700D01*
X119392857Y-128176700D02*
X119392857Y-128605272D01*
X119392857Y-128605272D02*
X119321429Y-128748129D01*
X119321429Y-128748129D02*
X119250000Y-128819558D01*
X119250000Y-128819558D02*
X119107143Y-128890986D01*
X119107143Y-128890986D02*
X118892857Y-128890986D01*
X119964286Y-128819558D02*
X120107143Y-128890986D01*
X120107143Y-128890986D02*
X120392857Y-128890986D01*
X120392857Y-128890986D02*
X120535714Y-128819558D01*
X120535714Y-128819558D02*
X120607143Y-128676700D01*
X120607143Y-128676700D02*
X120607143Y-128605272D01*
X120607143Y-128605272D02*
X120535714Y-128462415D01*
X120535714Y-128462415D02*
X120392857Y-128390986D01*
X120392857Y-128390986D02*
X120178572Y-128390986D01*
X120178572Y-128390986D02*
X120035714Y-128319558D01*
X120035714Y-128319558D02*
X119964286Y-128176700D01*
X119964286Y-128176700D02*
X119964286Y-128105272D01*
X119964286Y-128105272D02*
X120035714Y-127962415D01*
X120035714Y-127962415D02*
X120178572Y-127890986D01*
X120178572Y-127890986D02*
X120392857Y-127890986D01*
X120392857Y-127890986D02*
X120535714Y-127962415D01*
X121892858Y-128890986D02*
X121892858Y-128105272D01*
X121892858Y-128105272D02*
X121821429Y-127962415D01*
X121821429Y-127962415D02*
X121678572Y-127890986D01*
X121678572Y-127890986D02*
X121392858Y-127890986D01*
X121392858Y-127890986D02*
X121250000Y-127962415D01*
X121892858Y-128819558D02*
X121750000Y-128890986D01*
X121750000Y-128890986D02*
X121392858Y-128890986D01*
X121392858Y-128890986D02*
X121250000Y-128819558D01*
X121250000Y-128819558D02*
X121178572Y-128676700D01*
X121178572Y-128676700D02*
X121178572Y-128533843D01*
X121178572Y-128533843D02*
X121250000Y-128390986D01*
X121250000Y-128390986D02*
X121392858Y-128319558D01*
X121392858Y-128319558D02*
X121750000Y-128319558D01*
X121750000Y-128319558D02*
X121892858Y-128248129D01*
X123250001Y-127890986D02*
X123250001Y-128890986D01*
X122607143Y-127890986D02*
X122607143Y-128676700D01*
X122607143Y-128676700D02*
X122678572Y-128819558D01*
X122678572Y-128819558D02*
X122821429Y-128890986D01*
X122821429Y-128890986D02*
X123035715Y-128890986D01*
X123035715Y-128890986D02*
X123178572Y-128819558D01*
X123178572Y-128819558D02*
X123250001Y-128748129D01*
X123964286Y-128890986D02*
X123964286Y-127890986D01*
X123964286Y-128176700D02*
X124035715Y-128033843D01*
X124035715Y-128033843D02*
X124107144Y-127962415D01*
X124107144Y-127962415D02*
X124250001Y-127890986D01*
X124250001Y-127890986D02*
X124392858Y-127890986D01*
X126892857Y-128748129D02*
X126821429Y-128819558D01*
X126821429Y-128819558D02*
X126607143Y-128890986D01*
X126607143Y-128890986D02*
X126464286Y-128890986D01*
X126464286Y-128890986D02*
X126250000Y-128819558D01*
X126250000Y-128819558D02*
X126107143Y-128676700D01*
X126107143Y-128676700D02*
X126035714Y-128533843D01*
X126035714Y-128533843D02*
X125964286Y-128248129D01*
X125964286Y-128248129D02*
X125964286Y-128033843D01*
X125964286Y-128033843D02*
X126035714Y-127748129D01*
X126035714Y-127748129D02*
X126107143Y-127605272D01*
X126107143Y-127605272D02*
X126250000Y-127462415D01*
X126250000Y-127462415D02*
X126464286Y-127390986D01*
X126464286Y-127390986D02*
X126607143Y-127390986D01*
X126607143Y-127390986D02*
X126821429Y-127462415D01*
X126821429Y-127462415D02*
X126892857Y-127533843D01*
X127750000Y-128890986D02*
X127607143Y-128819558D01*
X127607143Y-128819558D02*
X127535714Y-128748129D01*
X127535714Y-128748129D02*
X127464286Y-128605272D01*
X127464286Y-128605272D02*
X127464286Y-128176700D01*
X127464286Y-128176700D02*
X127535714Y-128033843D01*
X127535714Y-128033843D02*
X127607143Y-127962415D01*
X127607143Y-127962415D02*
X127750000Y-127890986D01*
X127750000Y-127890986D02*
X127964286Y-127890986D01*
X127964286Y-127890986D02*
X128107143Y-127962415D01*
X128107143Y-127962415D02*
X128178572Y-128033843D01*
X128178572Y-128033843D02*
X128250000Y-128176700D01*
X128250000Y-128176700D02*
X128250000Y-128605272D01*
X128250000Y-128605272D02*
X128178572Y-128748129D01*
X128178572Y-128748129D02*
X128107143Y-128819558D01*
X128107143Y-128819558D02*
X127964286Y-128890986D01*
X127964286Y-128890986D02*
X127750000Y-128890986D01*
X128892857Y-128890986D02*
X128892857Y-127890986D01*
X128892857Y-128033843D02*
X128964286Y-127962415D01*
X128964286Y-127962415D02*
X129107143Y-127890986D01*
X129107143Y-127890986D02*
X129321429Y-127890986D01*
X129321429Y-127890986D02*
X129464286Y-127962415D01*
X129464286Y-127962415D02*
X129535715Y-128105272D01*
X129535715Y-128105272D02*
X129535715Y-128890986D01*
X129535715Y-128105272D02*
X129607143Y-127962415D01*
X129607143Y-127962415D02*
X129750000Y-127890986D01*
X129750000Y-127890986D02*
X129964286Y-127890986D01*
X129964286Y-127890986D02*
X130107143Y-127962415D01*
X130107143Y-127962415D02*
X130178572Y-128105272D01*
X130178572Y-128105272D02*
X130178572Y-128890986D01*
X130892857Y-127890986D02*
X130892857Y-129390986D01*
X130892857Y-127962415D02*
X131035715Y-127890986D01*
X131035715Y-127890986D02*
X131321429Y-127890986D01*
X131321429Y-127890986D02*
X131464286Y-127962415D01*
X131464286Y-127962415D02*
X131535715Y-128033843D01*
X131535715Y-128033843D02*
X131607143Y-128176700D01*
X131607143Y-128176700D02*
X131607143Y-128605272D01*
X131607143Y-128605272D02*
X131535715Y-128748129D01*
X131535715Y-128748129D02*
X131464286Y-128819558D01*
X131464286Y-128819558D02*
X131321429Y-128890986D01*
X131321429Y-128890986D02*
X131035715Y-128890986D01*
X131035715Y-128890986D02*
X130892857Y-128819558D01*
X132464286Y-128890986D02*
X132321429Y-128819558D01*
X132321429Y-128819558D02*
X132250000Y-128748129D01*
X132250000Y-128748129D02*
X132178572Y-128605272D01*
X132178572Y-128605272D02*
X132178572Y-128176700D01*
X132178572Y-128176700D02*
X132250000Y-128033843D01*
X132250000Y-128033843D02*
X132321429Y-127962415D01*
X132321429Y-127962415D02*
X132464286Y-127890986D01*
X132464286Y-127890986D02*
X132678572Y-127890986D01*
X132678572Y-127890986D02*
X132821429Y-127962415D01*
X132821429Y-127962415D02*
X132892858Y-128033843D01*
X132892858Y-128033843D02*
X132964286Y-128176700D01*
X132964286Y-128176700D02*
X132964286Y-128605272D01*
X132964286Y-128605272D02*
X132892858Y-128748129D01*
X132892858Y-128748129D02*
X132821429Y-128819558D01*
X132821429Y-128819558D02*
X132678572Y-128890986D01*
X132678572Y-128890986D02*
X132464286Y-128890986D01*
X133607143Y-127890986D02*
X133607143Y-128890986D01*
X133607143Y-128033843D02*
X133678572Y-127962415D01*
X133678572Y-127962415D02*
X133821429Y-127890986D01*
X133821429Y-127890986D02*
X134035715Y-127890986D01*
X134035715Y-127890986D02*
X134178572Y-127962415D01*
X134178572Y-127962415D02*
X134250001Y-128105272D01*
X134250001Y-128105272D02*
X134250001Y-128890986D01*
X135535715Y-128819558D02*
X135392858Y-128890986D01*
X135392858Y-128890986D02*
X135107144Y-128890986D01*
X135107144Y-128890986D02*
X134964286Y-128819558D01*
X134964286Y-128819558D02*
X134892858Y-128676700D01*
X134892858Y-128676700D02*
X134892858Y-128105272D01*
X134892858Y-128105272D02*
X134964286Y-127962415D01*
X134964286Y-127962415D02*
X135107144Y-127890986D01*
X135107144Y-127890986D02*
X135392858Y-127890986D01*
X135392858Y-127890986D02*
X135535715Y-127962415D01*
X135535715Y-127962415D02*
X135607144Y-128105272D01*
X135607144Y-128105272D02*
X135607144Y-128248129D01*
X135607144Y-128248129D02*
X134892858Y-128390986D01*
X136250000Y-127890986D02*
X136250000Y-128890986D01*
X136250000Y-128033843D02*
X136321429Y-127962415D01*
X136321429Y-127962415D02*
X136464286Y-127890986D01*
X136464286Y-127890986D02*
X136678572Y-127890986D01*
X136678572Y-127890986D02*
X136821429Y-127962415D01*
X136821429Y-127962415D02*
X136892858Y-128105272D01*
X136892858Y-128105272D02*
X136892858Y-128890986D01*
X137392858Y-127890986D02*
X137964286Y-127890986D01*
X137607143Y-127390986D02*
X137607143Y-128676700D01*
X137607143Y-128676700D02*
X137678572Y-128819558D01*
X137678572Y-128819558D02*
X137821429Y-128890986D01*
X137821429Y-128890986D02*
X137964286Y-128890986D01*
X138392858Y-128819558D02*
X138535715Y-128890986D01*
X138535715Y-128890986D02*
X138821429Y-128890986D01*
X138821429Y-128890986D02*
X138964286Y-128819558D01*
X138964286Y-128819558D02*
X139035715Y-128676700D01*
X139035715Y-128676700D02*
X139035715Y-128605272D01*
X139035715Y-128605272D02*
X138964286Y-128462415D01*
X138964286Y-128462415D02*
X138821429Y-128390986D01*
X138821429Y-128390986D02*
X138607144Y-128390986D01*
X138607144Y-128390986D02*
X138464286Y-128319558D01*
X138464286Y-128319558D02*
X138392858Y-128176700D01*
X138392858Y-128176700D02*
X138392858Y-128105272D01*
X138392858Y-128105272D02*
X138464286Y-127962415D01*
X138464286Y-127962415D02*
X138607144Y-127890986D01*
X138607144Y-127890986D02*
X138821429Y-127890986D01*
X138821429Y-127890986D02*
X138964286Y-127962415D01*
X140678572Y-127890986D02*
X141035715Y-128890986D01*
X141035715Y-128890986D02*
X141392858Y-127890986D01*
X142750001Y-128890986D02*
X141892858Y-128890986D01*
X142321429Y-128890986D02*
X142321429Y-127390986D01*
X142321429Y-127390986D02*
X142178572Y-127605272D01*
X142178572Y-127605272D02*
X142035715Y-127748129D01*
X142035715Y-127748129D02*
X141892858Y-127819558D01*
X143392857Y-128748129D02*
X143464286Y-128819558D01*
X143464286Y-128819558D02*
X143392857Y-128890986D01*
X143392857Y-128890986D02*
X143321429Y-128819558D01*
X143321429Y-128819558D02*
X143392857Y-128748129D01*
X143392857Y-128748129D02*
X143392857Y-128890986D01*
X144392858Y-127390986D02*
X144535715Y-127390986D01*
X144535715Y-127390986D02*
X144678572Y-127462415D01*
X144678572Y-127462415D02*
X144750001Y-127533843D01*
X144750001Y-127533843D02*
X144821429Y-127676700D01*
X144821429Y-127676700D02*
X144892858Y-127962415D01*
X144892858Y-127962415D02*
X144892858Y-128319558D01*
X144892858Y-128319558D02*
X144821429Y-128605272D01*
X144821429Y-128605272D02*
X144750001Y-128748129D01*
X144750001Y-128748129D02*
X144678572Y-128819558D01*
X144678572Y-128819558D02*
X144535715Y-128890986D01*
X144535715Y-128890986D02*
X144392858Y-128890986D01*
X144392858Y-128890986D02*
X144250001Y-128819558D01*
X144250001Y-128819558D02*
X144178572Y-128748129D01*
X144178572Y-128748129D02*
X144107143Y-128605272D01*
X144107143Y-128605272D02*
X144035715Y-128319558D01*
X144035715Y-128319558D02*
X144035715Y-127962415D01*
X144035715Y-127962415D02*
X144107143Y-127676700D01*
X144107143Y-127676700D02*
X144178572Y-127533843D01*
X144178572Y-127533843D02*
X144250001Y-127462415D01*
X144250001Y-127462415D02*
X144392858Y-127390986D01*
D10*
X153038095Y-88454819D02*
X153609523Y-88454819D01*
X153323809Y-89454819D02*
X153323809Y-88454819D01*
X153847619Y-88454819D02*
X154514285Y-89454819D01*
X154514285Y-88454819D02*
X153847619Y-89454819D01*
X153633333Y-91954819D02*
X153300000Y-91478628D01*
X153061905Y-91954819D02*
X153061905Y-90954819D01*
X153061905Y-90954819D02*
X153442857Y-90954819D01*
X153442857Y-90954819D02*
X153538095Y-91002438D01*
X153538095Y-91002438D02*
X153585714Y-91050057D01*
X153585714Y-91050057D02*
X153633333Y-91145295D01*
X153633333Y-91145295D02*
X153633333Y-91288152D01*
X153633333Y-91288152D02*
X153585714Y-91383390D01*
X153585714Y-91383390D02*
X153538095Y-91431009D01*
X153538095Y-91431009D02*
X153442857Y-91478628D01*
X153442857Y-91478628D02*
X153061905Y-91478628D01*
X153966667Y-90954819D02*
X154633333Y-91954819D01*
X154633333Y-90954819D02*
X153966667Y-91954819D01*
X101466666Y-83154819D02*
X101466666Y-83869104D01*
X101466666Y-83869104D02*
X101419047Y-84011961D01*
X101419047Y-84011961D02*
X101323809Y-84107200D01*
X101323809Y-84107200D02*
X101180952Y-84154819D01*
X101180952Y-84154819D02*
X101085714Y-84154819D01*
X102466666Y-84154819D02*
X101895238Y-84154819D01*
X102180952Y-84154819D02*
X102180952Y-83154819D01*
X102180952Y-83154819D02*
X102085714Y-83297676D01*
X102085714Y-83297676D02*
X101990476Y-83392914D01*
X101990476Y-83392914D02*
X101895238Y-83440533D01*
X107357142Y-115254819D02*
X107023809Y-114778628D01*
X106785714Y-115254819D02*
X106785714Y-114254819D01*
X106785714Y-114254819D02*
X107166666Y-114254819D01*
X107166666Y-114254819D02*
X107261904Y-114302438D01*
X107261904Y-114302438D02*
X107309523Y-114350057D01*
X107309523Y-114350057D02*
X107357142Y-114445295D01*
X107357142Y-114445295D02*
X107357142Y-114588152D01*
X107357142Y-114588152D02*
X107309523Y-114683390D01*
X107309523Y-114683390D02*
X107261904Y-114731009D01*
X107261904Y-114731009D02*
X107166666Y-114778628D01*
X107166666Y-114778628D02*
X106785714Y-114778628D01*
X107690476Y-114254819D02*
X108309523Y-114254819D01*
X108309523Y-114254819D02*
X107976190Y-114635771D01*
X107976190Y-114635771D02*
X108119047Y-114635771D01*
X108119047Y-114635771D02*
X108214285Y-114683390D01*
X108214285Y-114683390D02*
X108261904Y-114731009D01*
X108261904Y-114731009D02*
X108309523Y-114826247D01*
X108309523Y-114826247D02*
X108309523Y-115064342D01*
X108309523Y-115064342D02*
X108261904Y-115159580D01*
X108261904Y-115159580D02*
X108214285Y-115207200D01*
X108214285Y-115207200D02*
X108119047Y-115254819D01*
X108119047Y-115254819D02*
X107833333Y-115254819D01*
X107833333Y-115254819D02*
X107738095Y-115207200D01*
X107738095Y-115207200D02*
X107690476Y-115159580D01*
X108928571Y-114254819D02*
X109023809Y-114254819D01*
X109023809Y-114254819D02*
X109119047Y-114302438D01*
X109119047Y-114302438D02*
X109166666Y-114350057D01*
X109166666Y-114350057D02*
X109214285Y-114445295D01*
X109214285Y-114445295D02*
X109261904Y-114635771D01*
X109261904Y-114635771D02*
X109261904Y-114873866D01*
X109261904Y-114873866D02*
X109214285Y-115064342D01*
X109214285Y-115064342D02*
X109166666Y-115159580D01*
X109166666Y-115159580D02*
X109119047Y-115207200D01*
X109119047Y-115207200D02*
X109023809Y-115254819D01*
X109023809Y-115254819D02*
X108928571Y-115254819D01*
X108928571Y-115254819D02*
X108833333Y-115207200D01*
X108833333Y-115207200D02*
X108785714Y-115159580D01*
X108785714Y-115159580D02*
X108738095Y-115064342D01*
X108738095Y-115064342D02*
X108690476Y-114873866D01*
X108690476Y-114873866D02*
X108690476Y-114635771D01*
X108690476Y-114635771D02*
X108738095Y-114445295D01*
X108738095Y-114445295D02*
X108785714Y-114350057D01*
X108785714Y-114350057D02*
X108833333Y-114302438D01*
X108833333Y-114302438D02*
X108928571Y-114254819D01*
X107357142Y-103854819D02*
X107023809Y-103378628D01*
X106785714Y-103854819D02*
X106785714Y-102854819D01*
X106785714Y-102854819D02*
X107166666Y-102854819D01*
X107166666Y-102854819D02*
X107261904Y-102902438D01*
X107261904Y-102902438D02*
X107309523Y-102950057D01*
X107309523Y-102950057D02*
X107357142Y-103045295D01*
X107357142Y-103045295D02*
X107357142Y-103188152D01*
X107357142Y-103188152D02*
X107309523Y-103283390D01*
X107309523Y-103283390D02*
X107261904Y-103331009D01*
X107261904Y-103331009D02*
X107166666Y-103378628D01*
X107166666Y-103378628D02*
X106785714Y-103378628D01*
X107690476Y-102854819D02*
X108309523Y-102854819D01*
X108309523Y-102854819D02*
X107976190Y-103235771D01*
X107976190Y-103235771D02*
X108119047Y-103235771D01*
X108119047Y-103235771D02*
X108214285Y-103283390D01*
X108214285Y-103283390D02*
X108261904Y-103331009D01*
X108261904Y-103331009D02*
X108309523Y-103426247D01*
X108309523Y-103426247D02*
X108309523Y-103664342D01*
X108309523Y-103664342D02*
X108261904Y-103759580D01*
X108261904Y-103759580D02*
X108214285Y-103807200D01*
X108214285Y-103807200D02*
X108119047Y-103854819D01*
X108119047Y-103854819D02*
X107833333Y-103854819D01*
X107833333Y-103854819D02*
X107738095Y-103807200D01*
X107738095Y-103807200D02*
X107690476Y-103759580D01*
X109166666Y-103188152D02*
X109166666Y-103854819D01*
X108928571Y-102807200D02*
X108690476Y-103521485D01*
X108690476Y-103521485D02*
X109309523Y-103521485D01*
X141278628Y-106476190D02*
X141754819Y-106476190D01*
X140754819Y-106809523D02*
X141278628Y-106476190D01*
X141278628Y-106476190D02*
X140754819Y-106142857D01*
X141754819Y-105285714D02*
X141754819Y-105857142D01*
X141754819Y-105571428D02*
X140754819Y-105571428D01*
X140754819Y-105571428D02*
X140897676Y-105666666D01*
X140897676Y-105666666D02*
X140992914Y-105761904D01*
X140992914Y-105761904D02*
X141040533Y-105857142D01*
X130957142Y-79359580D02*
X130909523Y-79407200D01*
X130909523Y-79407200D02*
X130766666Y-79454819D01*
X130766666Y-79454819D02*
X130671428Y-79454819D01*
X130671428Y-79454819D02*
X130528571Y-79407200D01*
X130528571Y-79407200D02*
X130433333Y-79311961D01*
X130433333Y-79311961D02*
X130385714Y-79216723D01*
X130385714Y-79216723D02*
X130338095Y-79026247D01*
X130338095Y-79026247D02*
X130338095Y-78883390D01*
X130338095Y-78883390D02*
X130385714Y-78692914D01*
X130385714Y-78692914D02*
X130433333Y-78597676D01*
X130433333Y-78597676D02*
X130528571Y-78502438D01*
X130528571Y-78502438D02*
X130671428Y-78454819D01*
X130671428Y-78454819D02*
X130766666Y-78454819D01*
X130766666Y-78454819D02*
X130909523Y-78502438D01*
X130909523Y-78502438D02*
X130957142Y-78550057D01*
X131909523Y-79454819D02*
X131338095Y-79454819D01*
X131623809Y-79454819D02*
X131623809Y-78454819D01*
X131623809Y-78454819D02*
X131528571Y-78597676D01*
X131528571Y-78597676D02*
X131433333Y-78692914D01*
X131433333Y-78692914D02*
X131338095Y-78740533D01*
X132385714Y-79454819D02*
X132576190Y-79454819D01*
X132576190Y-79454819D02*
X132671428Y-79407200D01*
X132671428Y-79407200D02*
X132719047Y-79359580D01*
X132719047Y-79359580D02*
X132814285Y-79216723D01*
X132814285Y-79216723D02*
X132861904Y-79026247D01*
X132861904Y-79026247D02*
X132861904Y-78645295D01*
X132861904Y-78645295D02*
X132814285Y-78550057D01*
X132814285Y-78550057D02*
X132766666Y-78502438D01*
X132766666Y-78502438D02*
X132671428Y-78454819D01*
X132671428Y-78454819D02*
X132480952Y-78454819D01*
X132480952Y-78454819D02*
X132385714Y-78502438D01*
X132385714Y-78502438D02*
X132338095Y-78550057D01*
X132338095Y-78550057D02*
X132290476Y-78645295D01*
X132290476Y-78645295D02*
X132290476Y-78883390D01*
X132290476Y-78883390D02*
X132338095Y-78978628D01*
X132338095Y-78978628D02*
X132385714Y-79026247D01*
X132385714Y-79026247D02*
X132480952Y-79073866D01*
X132480952Y-79073866D02*
X132671428Y-79073866D01*
X132671428Y-79073866D02*
X132766666Y-79026247D01*
X132766666Y-79026247D02*
X132814285Y-78978628D01*
X132814285Y-78978628D02*
X132861904Y-78883390D01*
X107357142Y-108654819D02*
X107023809Y-108178628D01*
X106785714Y-108654819D02*
X106785714Y-107654819D01*
X106785714Y-107654819D02*
X107166666Y-107654819D01*
X107166666Y-107654819D02*
X107261904Y-107702438D01*
X107261904Y-107702438D02*
X107309523Y-107750057D01*
X107309523Y-107750057D02*
X107357142Y-107845295D01*
X107357142Y-107845295D02*
X107357142Y-107988152D01*
X107357142Y-107988152D02*
X107309523Y-108083390D01*
X107309523Y-108083390D02*
X107261904Y-108131009D01*
X107261904Y-108131009D02*
X107166666Y-108178628D01*
X107166666Y-108178628D02*
X106785714Y-108178628D01*
X107738095Y-107750057D02*
X107785714Y-107702438D01*
X107785714Y-107702438D02*
X107880952Y-107654819D01*
X107880952Y-107654819D02*
X108119047Y-107654819D01*
X108119047Y-107654819D02*
X108214285Y-107702438D01*
X108214285Y-107702438D02*
X108261904Y-107750057D01*
X108261904Y-107750057D02*
X108309523Y-107845295D01*
X108309523Y-107845295D02*
X108309523Y-107940533D01*
X108309523Y-107940533D02*
X108261904Y-108083390D01*
X108261904Y-108083390D02*
X107690476Y-108654819D01*
X107690476Y-108654819D02*
X108309523Y-108654819D01*
X109166666Y-107654819D02*
X108976190Y-107654819D01*
X108976190Y-107654819D02*
X108880952Y-107702438D01*
X108880952Y-107702438D02*
X108833333Y-107750057D01*
X108833333Y-107750057D02*
X108738095Y-107892914D01*
X108738095Y-107892914D02*
X108690476Y-108083390D01*
X108690476Y-108083390D02*
X108690476Y-108464342D01*
X108690476Y-108464342D02*
X108738095Y-108559580D01*
X108738095Y-108559580D02*
X108785714Y-108607200D01*
X108785714Y-108607200D02*
X108880952Y-108654819D01*
X108880952Y-108654819D02*
X109071428Y-108654819D01*
X109071428Y-108654819D02*
X109166666Y-108607200D01*
X109166666Y-108607200D02*
X109214285Y-108559580D01*
X109214285Y-108559580D02*
X109261904Y-108464342D01*
X109261904Y-108464342D02*
X109261904Y-108226247D01*
X109261904Y-108226247D02*
X109214285Y-108131009D01*
X109214285Y-108131009D02*
X109166666Y-108083390D01*
X109166666Y-108083390D02*
X109071428Y-108035771D01*
X109071428Y-108035771D02*
X108880952Y-108035771D01*
X108880952Y-108035771D02*
X108785714Y-108083390D01*
X108785714Y-108083390D02*
X108738095Y-108131009D01*
X108738095Y-108131009D02*
X108690476Y-108226247D01*
X156238095Y-101102438D02*
X156142857Y-101054819D01*
X156142857Y-101054819D02*
X156000000Y-101054819D01*
X156000000Y-101054819D02*
X155857143Y-101102438D01*
X155857143Y-101102438D02*
X155761905Y-101197676D01*
X155761905Y-101197676D02*
X155714286Y-101292914D01*
X155714286Y-101292914D02*
X155666667Y-101483390D01*
X155666667Y-101483390D02*
X155666667Y-101626247D01*
X155666667Y-101626247D02*
X155714286Y-101816723D01*
X155714286Y-101816723D02*
X155761905Y-101911961D01*
X155761905Y-101911961D02*
X155857143Y-102007200D01*
X155857143Y-102007200D02*
X156000000Y-102054819D01*
X156000000Y-102054819D02*
X156095238Y-102054819D01*
X156095238Y-102054819D02*
X156238095Y-102007200D01*
X156238095Y-102007200D02*
X156285714Y-101959580D01*
X156285714Y-101959580D02*
X156285714Y-101626247D01*
X156285714Y-101626247D02*
X156095238Y-101626247D01*
X156714286Y-102054819D02*
X156714286Y-101054819D01*
X156714286Y-101054819D02*
X157285714Y-102054819D01*
X157285714Y-102054819D02*
X157285714Y-101054819D01*
X157761905Y-102054819D02*
X157761905Y-101054819D01*
X157761905Y-101054819D02*
X158000000Y-101054819D01*
X158000000Y-101054819D02*
X158142857Y-101102438D01*
X158142857Y-101102438D02*
X158238095Y-101197676D01*
X158238095Y-101197676D02*
X158285714Y-101292914D01*
X158285714Y-101292914D02*
X158333333Y-101483390D01*
X158333333Y-101483390D02*
X158333333Y-101626247D01*
X158333333Y-101626247D02*
X158285714Y-101816723D01*
X158285714Y-101816723D02*
X158238095Y-101911961D01*
X158238095Y-101911961D02*
X158142857Y-102007200D01*
X158142857Y-102007200D02*
X158000000Y-102054819D01*
X158000000Y-102054819D02*
X157761905Y-102054819D01*
X142238095Y-148002438D02*
X142142857Y-147954819D01*
X142142857Y-147954819D02*
X142000000Y-147954819D01*
X142000000Y-147954819D02*
X141857143Y-148002438D01*
X141857143Y-148002438D02*
X141761905Y-148097676D01*
X141761905Y-148097676D02*
X141714286Y-148192914D01*
X141714286Y-148192914D02*
X141666667Y-148383390D01*
X141666667Y-148383390D02*
X141666667Y-148526247D01*
X141666667Y-148526247D02*
X141714286Y-148716723D01*
X141714286Y-148716723D02*
X141761905Y-148811961D01*
X141761905Y-148811961D02*
X141857143Y-148907200D01*
X141857143Y-148907200D02*
X142000000Y-148954819D01*
X142000000Y-148954819D02*
X142095238Y-148954819D01*
X142095238Y-148954819D02*
X142238095Y-148907200D01*
X142238095Y-148907200D02*
X142285714Y-148859580D01*
X142285714Y-148859580D02*
X142285714Y-148526247D01*
X142285714Y-148526247D02*
X142095238Y-148526247D01*
X142714286Y-148954819D02*
X142714286Y-147954819D01*
X142714286Y-147954819D02*
X143285714Y-148954819D01*
X143285714Y-148954819D02*
X143285714Y-147954819D01*
X143761905Y-148954819D02*
X143761905Y-147954819D01*
X143761905Y-147954819D02*
X144000000Y-147954819D01*
X144000000Y-147954819D02*
X144142857Y-148002438D01*
X144142857Y-148002438D02*
X144238095Y-148097676D01*
X144238095Y-148097676D02*
X144285714Y-148192914D01*
X144285714Y-148192914D02*
X144333333Y-148383390D01*
X144333333Y-148383390D02*
X144333333Y-148526247D01*
X144333333Y-148526247D02*
X144285714Y-148716723D01*
X144285714Y-148716723D02*
X144238095Y-148811961D01*
X144238095Y-148811961D02*
X144142857Y-148907200D01*
X144142857Y-148907200D02*
X144000000Y-148954819D01*
X144000000Y-148954819D02*
X143761905Y-148954819D01*
X150357142Y-116664819D02*
X150023809Y-116188628D01*
X149785714Y-116664819D02*
X149785714Y-115664819D01*
X149785714Y-115664819D02*
X150166666Y-115664819D01*
X150166666Y-115664819D02*
X150261904Y-115712438D01*
X150261904Y-115712438D02*
X150309523Y-115760057D01*
X150309523Y-115760057D02*
X150357142Y-115855295D01*
X150357142Y-115855295D02*
X150357142Y-115998152D01*
X150357142Y-115998152D02*
X150309523Y-116093390D01*
X150309523Y-116093390D02*
X150261904Y-116141009D01*
X150261904Y-116141009D02*
X150166666Y-116188628D01*
X150166666Y-116188628D02*
X149785714Y-116188628D01*
X150738095Y-115760057D02*
X150785714Y-115712438D01*
X150785714Y-115712438D02*
X150880952Y-115664819D01*
X150880952Y-115664819D02*
X151119047Y-115664819D01*
X151119047Y-115664819D02*
X151214285Y-115712438D01*
X151214285Y-115712438D02*
X151261904Y-115760057D01*
X151261904Y-115760057D02*
X151309523Y-115855295D01*
X151309523Y-115855295D02*
X151309523Y-115950533D01*
X151309523Y-115950533D02*
X151261904Y-116093390D01*
X151261904Y-116093390D02*
X150690476Y-116664819D01*
X150690476Y-116664819D02*
X151309523Y-116664819D01*
X151690476Y-115760057D02*
X151738095Y-115712438D01*
X151738095Y-115712438D02*
X151833333Y-115664819D01*
X151833333Y-115664819D02*
X152071428Y-115664819D01*
X152071428Y-115664819D02*
X152166666Y-115712438D01*
X152166666Y-115712438D02*
X152214285Y-115760057D01*
X152214285Y-115760057D02*
X152261904Y-115855295D01*
X152261904Y-115855295D02*
X152261904Y-115950533D01*
X152261904Y-115950533D02*
X152214285Y-116093390D01*
X152214285Y-116093390D02*
X151642857Y-116664819D01*
X151642857Y-116664819D02*
X152261904Y-116664819D01*
X130957142Y-82654819D02*
X130623809Y-82178628D01*
X130385714Y-82654819D02*
X130385714Y-81654819D01*
X130385714Y-81654819D02*
X130766666Y-81654819D01*
X130766666Y-81654819D02*
X130861904Y-81702438D01*
X130861904Y-81702438D02*
X130909523Y-81750057D01*
X130909523Y-81750057D02*
X130957142Y-81845295D01*
X130957142Y-81845295D02*
X130957142Y-81988152D01*
X130957142Y-81988152D02*
X130909523Y-82083390D01*
X130909523Y-82083390D02*
X130861904Y-82131009D01*
X130861904Y-82131009D02*
X130766666Y-82178628D01*
X130766666Y-82178628D02*
X130385714Y-82178628D01*
X131909523Y-82654819D02*
X131338095Y-82654819D01*
X131623809Y-82654819D02*
X131623809Y-81654819D01*
X131623809Y-81654819D02*
X131528571Y-81797676D01*
X131528571Y-81797676D02*
X131433333Y-81892914D01*
X131433333Y-81892914D02*
X131338095Y-81940533D01*
X132766666Y-81654819D02*
X132576190Y-81654819D01*
X132576190Y-81654819D02*
X132480952Y-81702438D01*
X132480952Y-81702438D02*
X132433333Y-81750057D01*
X132433333Y-81750057D02*
X132338095Y-81892914D01*
X132338095Y-81892914D02*
X132290476Y-82083390D01*
X132290476Y-82083390D02*
X132290476Y-82464342D01*
X132290476Y-82464342D02*
X132338095Y-82559580D01*
X132338095Y-82559580D02*
X132385714Y-82607200D01*
X132385714Y-82607200D02*
X132480952Y-82654819D01*
X132480952Y-82654819D02*
X132671428Y-82654819D01*
X132671428Y-82654819D02*
X132766666Y-82607200D01*
X132766666Y-82607200D02*
X132814285Y-82559580D01*
X132814285Y-82559580D02*
X132861904Y-82464342D01*
X132861904Y-82464342D02*
X132861904Y-82226247D01*
X132861904Y-82226247D02*
X132814285Y-82131009D01*
X132814285Y-82131009D02*
X132766666Y-82083390D01*
X132766666Y-82083390D02*
X132671428Y-82035771D01*
X132671428Y-82035771D02*
X132480952Y-82035771D01*
X132480952Y-82035771D02*
X132385714Y-82083390D01*
X132385714Y-82083390D02*
X132338095Y-82131009D01*
X132338095Y-82131009D02*
X132290476Y-82226247D01*
X144904761Y-143250057D02*
X144809523Y-143202438D01*
X144809523Y-143202438D02*
X144714285Y-143107200D01*
X144714285Y-143107200D02*
X144571428Y-142964342D01*
X144571428Y-142964342D02*
X144476190Y-142916723D01*
X144476190Y-142916723D02*
X144380952Y-142916723D01*
X144428571Y-143154819D02*
X144333333Y-143107200D01*
X144333333Y-143107200D02*
X144238095Y-143011961D01*
X144238095Y-143011961D02*
X144190476Y-142821485D01*
X144190476Y-142821485D02*
X144190476Y-142488152D01*
X144190476Y-142488152D02*
X144238095Y-142297676D01*
X144238095Y-142297676D02*
X144333333Y-142202438D01*
X144333333Y-142202438D02*
X144428571Y-142154819D01*
X144428571Y-142154819D02*
X144619047Y-142154819D01*
X144619047Y-142154819D02*
X144714285Y-142202438D01*
X144714285Y-142202438D02*
X144809523Y-142297676D01*
X144809523Y-142297676D02*
X144857142Y-142488152D01*
X144857142Y-142488152D02*
X144857142Y-142821485D01*
X144857142Y-142821485D02*
X144809523Y-143011961D01*
X144809523Y-143011961D02*
X144714285Y-143107200D01*
X144714285Y-143107200D02*
X144619047Y-143154819D01*
X144619047Y-143154819D02*
X144428571Y-143154819D01*
X145809523Y-143154819D02*
X145238095Y-143154819D01*
X145523809Y-143154819D02*
X145523809Y-142154819D01*
X145523809Y-142154819D02*
X145428571Y-142297676D01*
X145428571Y-142297676D02*
X145333333Y-142392914D01*
X145333333Y-142392914D02*
X145238095Y-142440533D01*
X130859580Y-92766666D02*
X130907200Y-92814285D01*
X130907200Y-92814285D02*
X130954819Y-92957142D01*
X130954819Y-92957142D02*
X130954819Y-93052380D01*
X130954819Y-93052380D02*
X130907200Y-93195237D01*
X130907200Y-93195237D02*
X130811961Y-93290475D01*
X130811961Y-93290475D02*
X130716723Y-93338094D01*
X130716723Y-93338094D02*
X130526247Y-93385713D01*
X130526247Y-93385713D02*
X130383390Y-93385713D01*
X130383390Y-93385713D02*
X130192914Y-93338094D01*
X130192914Y-93338094D02*
X130097676Y-93290475D01*
X130097676Y-93290475D02*
X130002438Y-93195237D01*
X130002438Y-93195237D02*
X129954819Y-93052380D01*
X129954819Y-93052380D02*
X129954819Y-92957142D01*
X129954819Y-92957142D02*
X130002438Y-92814285D01*
X130002438Y-92814285D02*
X130050057Y-92766666D01*
X130288152Y-91909523D02*
X130954819Y-91909523D01*
X129907200Y-92147618D02*
X130621485Y-92385713D01*
X130621485Y-92385713D02*
X130621485Y-91766666D01*
X132359580Y-92766666D02*
X132407200Y-92814285D01*
X132407200Y-92814285D02*
X132454819Y-92957142D01*
X132454819Y-92957142D02*
X132454819Y-93052380D01*
X132454819Y-93052380D02*
X132407200Y-93195237D01*
X132407200Y-93195237D02*
X132311961Y-93290475D01*
X132311961Y-93290475D02*
X132216723Y-93338094D01*
X132216723Y-93338094D02*
X132026247Y-93385713D01*
X132026247Y-93385713D02*
X131883390Y-93385713D01*
X131883390Y-93385713D02*
X131692914Y-93338094D01*
X131692914Y-93338094D02*
X131597676Y-93290475D01*
X131597676Y-93290475D02*
X131502438Y-93195237D01*
X131502438Y-93195237D02*
X131454819Y-93052380D01*
X131454819Y-93052380D02*
X131454819Y-92957142D01*
X131454819Y-92957142D02*
X131502438Y-92814285D01*
X131502438Y-92814285D02*
X131550057Y-92766666D01*
X131550057Y-92385713D02*
X131502438Y-92338094D01*
X131502438Y-92338094D02*
X131454819Y-92242856D01*
X131454819Y-92242856D02*
X131454819Y-92004761D01*
X131454819Y-92004761D02*
X131502438Y-91909523D01*
X131502438Y-91909523D02*
X131550057Y-91861904D01*
X131550057Y-91861904D02*
X131645295Y-91814285D01*
X131645295Y-91814285D02*
X131740533Y-91814285D01*
X131740533Y-91814285D02*
X131883390Y-91861904D01*
X131883390Y-91861904D02*
X132454819Y-92433332D01*
X132454819Y-92433332D02*
X132454819Y-91814285D01*
X150357142Y-121454819D02*
X150023809Y-120978628D01*
X149785714Y-121454819D02*
X149785714Y-120454819D01*
X149785714Y-120454819D02*
X150166666Y-120454819D01*
X150166666Y-120454819D02*
X150261904Y-120502438D01*
X150261904Y-120502438D02*
X150309523Y-120550057D01*
X150309523Y-120550057D02*
X150357142Y-120645295D01*
X150357142Y-120645295D02*
X150357142Y-120788152D01*
X150357142Y-120788152D02*
X150309523Y-120883390D01*
X150309523Y-120883390D02*
X150261904Y-120931009D01*
X150261904Y-120931009D02*
X150166666Y-120978628D01*
X150166666Y-120978628D02*
X149785714Y-120978628D01*
X150690476Y-120454819D02*
X151309523Y-120454819D01*
X151309523Y-120454819D02*
X150976190Y-120835771D01*
X150976190Y-120835771D02*
X151119047Y-120835771D01*
X151119047Y-120835771D02*
X151214285Y-120883390D01*
X151214285Y-120883390D02*
X151261904Y-120931009D01*
X151261904Y-120931009D02*
X151309523Y-121026247D01*
X151309523Y-121026247D02*
X151309523Y-121264342D01*
X151309523Y-121264342D02*
X151261904Y-121359580D01*
X151261904Y-121359580D02*
X151214285Y-121407200D01*
X151214285Y-121407200D02*
X151119047Y-121454819D01*
X151119047Y-121454819D02*
X150833333Y-121454819D01*
X150833333Y-121454819D02*
X150738095Y-121407200D01*
X150738095Y-121407200D02*
X150690476Y-121359580D01*
X151690476Y-120550057D02*
X151738095Y-120502438D01*
X151738095Y-120502438D02*
X151833333Y-120454819D01*
X151833333Y-120454819D02*
X152071428Y-120454819D01*
X152071428Y-120454819D02*
X152166666Y-120502438D01*
X152166666Y-120502438D02*
X152214285Y-120550057D01*
X152214285Y-120550057D02*
X152261904Y-120645295D01*
X152261904Y-120645295D02*
X152261904Y-120740533D01*
X152261904Y-120740533D02*
X152214285Y-120883390D01*
X152214285Y-120883390D02*
X151642857Y-121454819D01*
X151642857Y-121454819D02*
X152261904Y-121454819D01*
X146454819Y-133742857D02*
X145978628Y-134076190D01*
X146454819Y-134314285D02*
X145454819Y-134314285D01*
X145454819Y-134314285D02*
X145454819Y-133933333D01*
X145454819Y-133933333D02*
X145502438Y-133838095D01*
X145502438Y-133838095D02*
X145550057Y-133790476D01*
X145550057Y-133790476D02*
X145645295Y-133742857D01*
X145645295Y-133742857D02*
X145788152Y-133742857D01*
X145788152Y-133742857D02*
X145883390Y-133790476D01*
X145883390Y-133790476D02*
X145931009Y-133838095D01*
X145931009Y-133838095D02*
X145978628Y-133933333D01*
X145978628Y-133933333D02*
X145978628Y-134314285D01*
X146454819Y-132790476D02*
X146454819Y-133361904D01*
X146454819Y-133076190D02*
X145454819Y-133076190D01*
X145454819Y-133076190D02*
X145597676Y-133171428D01*
X145597676Y-133171428D02*
X145692914Y-133266666D01*
X145692914Y-133266666D02*
X145740533Y-133361904D01*
X145883390Y-132219047D02*
X145835771Y-132314285D01*
X145835771Y-132314285D02*
X145788152Y-132361904D01*
X145788152Y-132361904D02*
X145692914Y-132409523D01*
X145692914Y-132409523D02*
X145645295Y-132409523D01*
X145645295Y-132409523D02*
X145550057Y-132361904D01*
X145550057Y-132361904D02*
X145502438Y-132314285D01*
X145502438Y-132314285D02*
X145454819Y-132219047D01*
X145454819Y-132219047D02*
X145454819Y-132028571D01*
X145454819Y-132028571D02*
X145502438Y-131933333D01*
X145502438Y-131933333D02*
X145550057Y-131885714D01*
X145550057Y-131885714D02*
X145645295Y-131838095D01*
X145645295Y-131838095D02*
X145692914Y-131838095D01*
X145692914Y-131838095D02*
X145788152Y-131885714D01*
X145788152Y-131885714D02*
X145835771Y-131933333D01*
X145835771Y-131933333D02*
X145883390Y-132028571D01*
X145883390Y-132028571D02*
X145883390Y-132219047D01*
X145883390Y-132219047D02*
X145931009Y-132314285D01*
X145931009Y-132314285D02*
X145978628Y-132361904D01*
X145978628Y-132361904D02*
X146073866Y-132409523D01*
X146073866Y-132409523D02*
X146264342Y-132409523D01*
X146264342Y-132409523D02*
X146359580Y-132361904D01*
X146359580Y-132361904D02*
X146407200Y-132314285D01*
X146407200Y-132314285D02*
X146454819Y-132219047D01*
X146454819Y-132219047D02*
X146454819Y-132028571D01*
X146454819Y-132028571D02*
X146407200Y-131933333D01*
X146407200Y-131933333D02*
X146359580Y-131885714D01*
X146359580Y-131885714D02*
X146264342Y-131838095D01*
X146264342Y-131838095D02*
X146073866Y-131838095D01*
X146073866Y-131838095D02*
X145978628Y-131885714D01*
X145978628Y-131885714D02*
X145931009Y-131933333D01*
X145931009Y-131933333D02*
X145883390Y-132028571D01*
X149557142Y-82654819D02*
X149223809Y-82178628D01*
X148985714Y-82654819D02*
X148985714Y-81654819D01*
X148985714Y-81654819D02*
X149366666Y-81654819D01*
X149366666Y-81654819D02*
X149461904Y-81702438D01*
X149461904Y-81702438D02*
X149509523Y-81750057D01*
X149509523Y-81750057D02*
X149557142Y-81845295D01*
X149557142Y-81845295D02*
X149557142Y-81988152D01*
X149557142Y-81988152D02*
X149509523Y-82083390D01*
X149509523Y-82083390D02*
X149461904Y-82131009D01*
X149461904Y-82131009D02*
X149366666Y-82178628D01*
X149366666Y-82178628D02*
X148985714Y-82178628D01*
X150509523Y-82654819D02*
X149938095Y-82654819D01*
X150223809Y-82654819D02*
X150223809Y-81654819D01*
X150223809Y-81654819D02*
X150128571Y-81797676D01*
X150128571Y-81797676D02*
X150033333Y-81892914D01*
X150033333Y-81892914D02*
X149938095Y-81940533D01*
X151366666Y-81988152D02*
X151366666Y-82654819D01*
X151128571Y-81607200D02*
X150890476Y-82321485D01*
X150890476Y-82321485D02*
X151509523Y-82321485D01*
X130957142Y-77854819D02*
X130623809Y-77378628D01*
X130385714Y-77854819D02*
X130385714Y-76854819D01*
X130385714Y-76854819D02*
X130766666Y-76854819D01*
X130766666Y-76854819D02*
X130861904Y-76902438D01*
X130861904Y-76902438D02*
X130909523Y-76950057D01*
X130909523Y-76950057D02*
X130957142Y-77045295D01*
X130957142Y-77045295D02*
X130957142Y-77188152D01*
X130957142Y-77188152D02*
X130909523Y-77283390D01*
X130909523Y-77283390D02*
X130861904Y-77331009D01*
X130861904Y-77331009D02*
X130766666Y-77378628D01*
X130766666Y-77378628D02*
X130385714Y-77378628D01*
X131909523Y-77854819D02*
X131338095Y-77854819D01*
X131623809Y-77854819D02*
X131623809Y-76854819D01*
X131623809Y-76854819D02*
X131528571Y-76997676D01*
X131528571Y-76997676D02*
X131433333Y-77092914D01*
X131433333Y-77092914D02*
X131338095Y-77140533D01*
X132242857Y-76854819D02*
X132861904Y-76854819D01*
X132861904Y-76854819D02*
X132528571Y-77235771D01*
X132528571Y-77235771D02*
X132671428Y-77235771D01*
X132671428Y-77235771D02*
X132766666Y-77283390D01*
X132766666Y-77283390D02*
X132814285Y-77331009D01*
X132814285Y-77331009D02*
X132861904Y-77426247D01*
X132861904Y-77426247D02*
X132861904Y-77664342D01*
X132861904Y-77664342D02*
X132814285Y-77759580D01*
X132814285Y-77759580D02*
X132766666Y-77807200D01*
X132766666Y-77807200D02*
X132671428Y-77854819D01*
X132671428Y-77854819D02*
X132385714Y-77854819D01*
X132385714Y-77854819D02*
X132290476Y-77807200D01*
X132290476Y-77807200D02*
X132242857Y-77759580D01*
X110033333Y-80454819D02*
X109700000Y-79978628D01*
X109461905Y-80454819D02*
X109461905Y-79454819D01*
X109461905Y-79454819D02*
X109842857Y-79454819D01*
X109842857Y-79454819D02*
X109938095Y-79502438D01*
X109938095Y-79502438D02*
X109985714Y-79550057D01*
X109985714Y-79550057D02*
X110033333Y-79645295D01*
X110033333Y-79645295D02*
X110033333Y-79788152D01*
X110033333Y-79788152D02*
X109985714Y-79883390D01*
X109985714Y-79883390D02*
X109938095Y-79931009D01*
X109938095Y-79931009D02*
X109842857Y-79978628D01*
X109842857Y-79978628D02*
X109461905Y-79978628D01*
X110366667Y-79454819D02*
X110985714Y-79454819D01*
X110985714Y-79454819D02*
X110652381Y-79835771D01*
X110652381Y-79835771D02*
X110795238Y-79835771D01*
X110795238Y-79835771D02*
X110890476Y-79883390D01*
X110890476Y-79883390D02*
X110938095Y-79931009D01*
X110938095Y-79931009D02*
X110985714Y-80026247D01*
X110985714Y-80026247D02*
X110985714Y-80264342D01*
X110985714Y-80264342D02*
X110938095Y-80359580D01*
X110938095Y-80359580D02*
X110890476Y-80407200D01*
X110890476Y-80407200D02*
X110795238Y-80454819D01*
X110795238Y-80454819D02*
X110509524Y-80454819D01*
X110509524Y-80454819D02*
X110414286Y-80407200D01*
X110414286Y-80407200D02*
X110366667Y-80359580D01*
X130957142Y-76254819D02*
X130623809Y-75778628D01*
X130385714Y-76254819D02*
X130385714Y-75254819D01*
X130385714Y-75254819D02*
X130766666Y-75254819D01*
X130766666Y-75254819D02*
X130861904Y-75302438D01*
X130861904Y-75302438D02*
X130909523Y-75350057D01*
X130909523Y-75350057D02*
X130957142Y-75445295D01*
X130957142Y-75445295D02*
X130957142Y-75588152D01*
X130957142Y-75588152D02*
X130909523Y-75683390D01*
X130909523Y-75683390D02*
X130861904Y-75731009D01*
X130861904Y-75731009D02*
X130766666Y-75778628D01*
X130766666Y-75778628D02*
X130385714Y-75778628D01*
X131909523Y-76254819D02*
X131338095Y-76254819D01*
X131623809Y-76254819D02*
X131623809Y-75254819D01*
X131623809Y-75254819D02*
X131528571Y-75397676D01*
X131528571Y-75397676D02*
X131433333Y-75492914D01*
X131433333Y-75492914D02*
X131338095Y-75540533D01*
X132242857Y-75254819D02*
X132909523Y-75254819D01*
X132909523Y-75254819D02*
X132480952Y-76254819D01*
X109038095Y-64273866D02*
X109800000Y-64273866D01*
X110799999Y-64654819D02*
X110228571Y-64654819D01*
X110514285Y-64654819D02*
X110514285Y-63654819D01*
X110514285Y-63654819D02*
X110419047Y-63797676D01*
X110419047Y-63797676D02*
X110323809Y-63892914D01*
X110323809Y-63892914D02*
X110228571Y-63940533D01*
X111180952Y-63750057D02*
X111228571Y-63702438D01*
X111228571Y-63702438D02*
X111323809Y-63654819D01*
X111323809Y-63654819D02*
X111561904Y-63654819D01*
X111561904Y-63654819D02*
X111657142Y-63702438D01*
X111657142Y-63702438D02*
X111704761Y-63750057D01*
X111704761Y-63750057D02*
X111752380Y-63845295D01*
X111752380Y-63845295D02*
X111752380Y-63940533D01*
X111752380Y-63940533D02*
X111704761Y-64083390D01*
X111704761Y-64083390D02*
X111133333Y-64654819D01*
X111133333Y-64654819D02*
X111752380Y-64654819D01*
X112038095Y-63654819D02*
X112371428Y-64654819D01*
X112371428Y-64654819D02*
X112704761Y-63654819D01*
X149161905Y-63554819D02*
X149780952Y-63554819D01*
X149780952Y-63554819D02*
X149447619Y-63935771D01*
X149447619Y-63935771D02*
X149590476Y-63935771D01*
X149590476Y-63935771D02*
X149685714Y-63983390D01*
X149685714Y-63983390D02*
X149733333Y-64031009D01*
X149733333Y-64031009D02*
X149780952Y-64126247D01*
X149780952Y-64126247D02*
X149780952Y-64364342D01*
X149780952Y-64364342D02*
X149733333Y-64459580D01*
X149733333Y-64459580D02*
X149685714Y-64507200D01*
X149685714Y-64507200D02*
X149590476Y-64554819D01*
X149590476Y-64554819D02*
X149304762Y-64554819D01*
X149304762Y-64554819D02*
X149209524Y-64507200D01*
X149209524Y-64507200D02*
X149161905Y-64459580D01*
X150066667Y-63554819D02*
X150400000Y-64554819D01*
X150400000Y-64554819D02*
X150733333Y-63554819D01*
X150971429Y-63554819D02*
X151590476Y-63554819D01*
X151590476Y-63554819D02*
X151257143Y-63935771D01*
X151257143Y-63935771D02*
X151400000Y-63935771D01*
X151400000Y-63935771D02*
X151495238Y-63983390D01*
X151495238Y-63983390D02*
X151542857Y-64031009D01*
X151542857Y-64031009D02*
X151590476Y-64126247D01*
X151590476Y-64126247D02*
X151590476Y-64364342D01*
X151590476Y-64364342D02*
X151542857Y-64459580D01*
X151542857Y-64459580D02*
X151495238Y-64507200D01*
X151495238Y-64507200D02*
X151400000Y-64554819D01*
X151400000Y-64554819D02*
X151114286Y-64554819D01*
X151114286Y-64554819D02*
X151019048Y-64507200D01*
X151019048Y-64507200D02*
X150971429Y-64459580D01*
X118238095Y-83734819D02*
X118238095Y-84544342D01*
X118238095Y-84544342D02*
X118285714Y-84639580D01*
X118285714Y-84639580D02*
X118333333Y-84687200D01*
X118333333Y-84687200D02*
X118428571Y-84734819D01*
X118428571Y-84734819D02*
X118619047Y-84734819D01*
X118619047Y-84734819D02*
X118714285Y-84687200D01*
X118714285Y-84687200D02*
X118761904Y-84639580D01*
X118761904Y-84639580D02*
X118809523Y-84544342D01*
X118809523Y-84544342D02*
X118809523Y-83734819D01*
X119190476Y-83734819D02*
X119809523Y-83734819D01*
X119809523Y-83734819D02*
X119476190Y-84115771D01*
X119476190Y-84115771D02*
X119619047Y-84115771D01*
X119619047Y-84115771D02*
X119714285Y-84163390D01*
X119714285Y-84163390D02*
X119761904Y-84211009D01*
X119761904Y-84211009D02*
X119809523Y-84306247D01*
X119809523Y-84306247D02*
X119809523Y-84544342D01*
X119809523Y-84544342D02*
X119761904Y-84639580D01*
X119761904Y-84639580D02*
X119714285Y-84687200D01*
X119714285Y-84687200D02*
X119619047Y-84734819D01*
X119619047Y-84734819D02*
X119333333Y-84734819D01*
X119333333Y-84734819D02*
X119238095Y-84687200D01*
X119238095Y-84687200D02*
X119190476Y-84639580D01*
X135359580Y-120742857D02*
X135407200Y-120790476D01*
X135407200Y-120790476D02*
X135454819Y-120933333D01*
X135454819Y-120933333D02*
X135454819Y-121028571D01*
X135454819Y-121028571D02*
X135407200Y-121171428D01*
X135407200Y-121171428D02*
X135311961Y-121266666D01*
X135311961Y-121266666D02*
X135216723Y-121314285D01*
X135216723Y-121314285D02*
X135026247Y-121361904D01*
X135026247Y-121361904D02*
X134883390Y-121361904D01*
X134883390Y-121361904D02*
X134692914Y-121314285D01*
X134692914Y-121314285D02*
X134597676Y-121266666D01*
X134597676Y-121266666D02*
X134502438Y-121171428D01*
X134502438Y-121171428D02*
X134454819Y-121028571D01*
X134454819Y-121028571D02*
X134454819Y-120933333D01*
X134454819Y-120933333D02*
X134502438Y-120790476D01*
X134502438Y-120790476D02*
X134550057Y-120742857D01*
X135454819Y-119790476D02*
X135454819Y-120361904D01*
X135454819Y-120076190D02*
X134454819Y-120076190D01*
X134454819Y-120076190D02*
X134597676Y-120171428D01*
X134597676Y-120171428D02*
X134692914Y-120266666D01*
X134692914Y-120266666D02*
X134740533Y-120361904D01*
X134454819Y-119457142D02*
X134454819Y-118838095D01*
X134454819Y-118838095D02*
X134835771Y-119171428D01*
X134835771Y-119171428D02*
X134835771Y-119028571D01*
X134835771Y-119028571D02*
X134883390Y-118933333D01*
X134883390Y-118933333D02*
X134931009Y-118885714D01*
X134931009Y-118885714D02*
X135026247Y-118838095D01*
X135026247Y-118838095D02*
X135264342Y-118838095D01*
X135264342Y-118838095D02*
X135359580Y-118885714D01*
X135359580Y-118885714D02*
X135407200Y-118933333D01*
X135407200Y-118933333D02*
X135454819Y-119028571D01*
X135454819Y-119028571D02*
X135454819Y-119314285D01*
X135454819Y-119314285D02*
X135407200Y-119409523D01*
X135407200Y-119409523D02*
X135359580Y-119457142D01*
X118833333Y-70454819D02*
X118357143Y-70454819D01*
X118357143Y-70454819D02*
X118357143Y-69454819D01*
X119690476Y-70454819D02*
X119119048Y-70454819D01*
X119404762Y-70454819D02*
X119404762Y-69454819D01*
X119404762Y-69454819D02*
X119309524Y-69597676D01*
X119309524Y-69597676D02*
X119214286Y-69692914D01*
X119214286Y-69692914D02*
X119119048Y-69740533D01*
X127833333Y-82654819D02*
X127500000Y-82178628D01*
X127261905Y-82654819D02*
X127261905Y-81654819D01*
X127261905Y-81654819D02*
X127642857Y-81654819D01*
X127642857Y-81654819D02*
X127738095Y-81702438D01*
X127738095Y-81702438D02*
X127785714Y-81750057D01*
X127785714Y-81750057D02*
X127833333Y-81845295D01*
X127833333Y-81845295D02*
X127833333Y-81988152D01*
X127833333Y-81988152D02*
X127785714Y-82083390D01*
X127785714Y-82083390D02*
X127738095Y-82131009D01*
X127738095Y-82131009D02*
X127642857Y-82178628D01*
X127642857Y-82178628D02*
X127261905Y-82178628D01*
X128309524Y-82654819D02*
X128500000Y-82654819D01*
X128500000Y-82654819D02*
X128595238Y-82607200D01*
X128595238Y-82607200D02*
X128642857Y-82559580D01*
X128642857Y-82559580D02*
X128738095Y-82416723D01*
X128738095Y-82416723D02*
X128785714Y-82226247D01*
X128785714Y-82226247D02*
X128785714Y-81845295D01*
X128785714Y-81845295D02*
X128738095Y-81750057D01*
X128738095Y-81750057D02*
X128690476Y-81702438D01*
X128690476Y-81702438D02*
X128595238Y-81654819D01*
X128595238Y-81654819D02*
X128404762Y-81654819D01*
X128404762Y-81654819D02*
X128309524Y-81702438D01*
X128309524Y-81702438D02*
X128261905Y-81750057D01*
X128261905Y-81750057D02*
X128214286Y-81845295D01*
X128214286Y-81845295D02*
X128214286Y-82083390D01*
X128214286Y-82083390D02*
X128261905Y-82178628D01*
X128261905Y-82178628D02*
X128309524Y-82226247D01*
X128309524Y-82226247D02*
X128404762Y-82273866D01*
X128404762Y-82273866D02*
X128595238Y-82273866D01*
X128595238Y-82273866D02*
X128690476Y-82226247D01*
X128690476Y-82226247D02*
X128738095Y-82178628D01*
X128738095Y-82178628D02*
X128785714Y-82083390D01*
X127833333Y-81054819D02*
X127500000Y-80578628D01*
X127261905Y-81054819D02*
X127261905Y-80054819D01*
X127261905Y-80054819D02*
X127642857Y-80054819D01*
X127642857Y-80054819D02*
X127738095Y-80102438D01*
X127738095Y-80102438D02*
X127785714Y-80150057D01*
X127785714Y-80150057D02*
X127833333Y-80245295D01*
X127833333Y-80245295D02*
X127833333Y-80388152D01*
X127833333Y-80388152D02*
X127785714Y-80483390D01*
X127785714Y-80483390D02*
X127738095Y-80531009D01*
X127738095Y-80531009D02*
X127642857Y-80578628D01*
X127642857Y-80578628D02*
X127261905Y-80578628D01*
X128738095Y-80054819D02*
X128261905Y-80054819D01*
X128261905Y-80054819D02*
X128214286Y-80531009D01*
X128214286Y-80531009D02*
X128261905Y-80483390D01*
X128261905Y-80483390D02*
X128357143Y-80435771D01*
X128357143Y-80435771D02*
X128595238Y-80435771D01*
X128595238Y-80435771D02*
X128690476Y-80483390D01*
X128690476Y-80483390D02*
X128738095Y-80531009D01*
X128738095Y-80531009D02*
X128785714Y-80626247D01*
X128785714Y-80626247D02*
X128785714Y-80864342D01*
X128785714Y-80864342D02*
X128738095Y-80959580D01*
X128738095Y-80959580D02*
X128690476Y-81007200D01*
X128690476Y-81007200D02*
X128595238Y-81054819D01*
X128595238Y-81054819D02*
X128357143Y-81054819D01*
X128357143Y-81054819D02*
X128261905Y-81007200D01*
X128261905Y-81007200D02*
X128214286Y-80959580D01*
X139282142Y-70434580D02*
X139234523Y-70482200D01*
X139234523Y-70482200D02*
X139091666Y-70529819D01*
X139091666Y-70529819D02*
X138996428Y-70529819D01*
X138996428Y-70529819D02*
X138853571Y-70482200D01*
X138853571Y-70482200D02*
X138758333Y-70386961D01*
X138758333Y-70386961D02*
X138710714Y-70291723D01*
X138710714Y-70291723D02*
X138663095Y-70101247D01*
X138663095Y-70101247D02*
X138663095Y-69958390D01*
X138663095Y-69958390D02*
X138710714Y-69767914D01*
X138710714Y-69767914D02*
X138758333Y-69672676D01*
X138758333Y-69672676D02*
X138853571Y-69577438D01*
X138853571Y-69577438D02*
X138996428Y-69529819D01*
X138996428Y-69529819D02*
X139091666Y-69529819D01*
X139091666Y-69529819D02*
X139234523Y-69577438D01*
X139234523Y-69577438D02*
X139282142Y-69625057D01*
X140234523Y-70529819D02*
X139663095Y-70529819D01*
X139948809Y-70529819D02*
X139948809Y-69529819D01*
X139948809Y-69529819D02*
X139853571Y-69672676D01*
X139853571Y-69672676D02*
X139758333Y-69767914D01*
X139758333Y-69767914D02*
X139663095Y-69815533D01*
X141091666Y-69863152D02*
X141091666Y-70529819D01*
X140853571Y-69482200D02*
X140615476Y-70196485D01*
X140615476Y-70196485D02*
X141234523Y-70196485D01*
X149557142Y-76254819D02*
X149223809Y-75778628D01*
X148985714Y-76254819D02*
X148985714Y-75254819D01*
X148985714Y-75254819D02*
X149366666Y-75254819D01*
X149366666Y-75254819D02*
X149461904Y-75302438D01*
X149461904Y-75302438D02*
X149509523Y-75350057D01*
X149509523Y-75350057D02*
X149557142Y-75445295D01*
X149557142Y-75445295D02*
X149557142Y-75588152D01*
X149557142Y-75588152D02*
X149509523Y-75683390D01*
X149509523Y-75683390D02*
X149461904Y-75731009D01*
X149461904Y-75731009D02*
X149366666Y-75778628D01*
X149366666Y-75778628D02*
X148985714Y-75778628D01*
X150509523Y-76254819D02*
X149938095Y-76254819D01*
X150223809Y-76254819D02*
X150223809Y-75254819D01*
X150223809Y-75254819D02*
X150128571Y-75397676D01*
X150128571Y-75397676D02*
X150033333Y-75492914D01*
X150033333Y-75492914D02*
X149938095Y-75540533D01*
X151414285Y-75254819D02*
X150938095Y-75254819D01*
X150938095Y-75254819D02*
X150890476Y-75731009D01*
X150890476Y-75731009D02*
X150938095Y-75683390D01*
X150938095Y-75683390D02*
X151033333Y-75635771D01*
X151033333Y-75635771D02*
X151271428Y-75635771D01*
X151271428Y-75635771D02*
X151366666Y-75683390D01*
X151366666Y-75683390D02*
X151414285Y-75731009D01*
X151414285Y-75731009D02*
X151461904Y-75826247D01*
X151461904Y-75826247D02*
X151461904Y-76064342D01*
X151461904Y-76064342D02*
X151414285Y-76159580D01*
X151414285Y-76159580D02*
X151366666Y-76207200D01*
X151366666Y-76207200D02*
X151271428Y-76254819D01*
X151271428Y-76254819D02*
X151033333Y-76254819D01*
X151033333Y-76254819D02*
X150938095Y-76207200D01*
X150938095Y-76207200D02*
X150890476Y-76159580D01*
X118093095Y-62423866D02*
X118855000Y-62423866D01*
X119854999Y-62804819D02*
X119283571Y-62804819D01*
X119569285Y-62804819D02*
X119569285Y-61804819D01*
X119569285Y-61804819D02*
X119474047Y-61947676D01*
X119474047Y-61947676D02*
X119378809Y-62042914D01*
X119378809Y-62042914D02*
X119283571Y-62090533D01*
X120235952Y-61900057D02*
X120283571Y-61852438D01*
X120283571Y-61852438D02*
X120378809Y-61804819D01*
X120378809Y-61804819D02*
X120616904Y-61804819D01*
X120616904Y-61804819D02*
X120712142Y-61852438D01*
X120712142Y-61852438D02*
X120759761Y-61900057D01*
X120759761Y-61900057D02*
X120807380Y-61995295D01*
X120807380Y-61995295D02*
X120807380Y-62090533D01*
X120807380Y-62090533D02*
X120759761Y-62233390D01*
X120759761Y-62233390D02*
X120188333Y-62804819D01*
X120188333Y-62804819D02*
X120807380Y-62804819D01*
X121093095Y-61804819D02*
X121426428Y-62804819D01*
X121426428Y-62804819D02*
X121759761Y-61804819D01*
X112261905Y-58554819D02*
X112261905Y-57554819D01*
X112261905Y-57554819D02*
X112500000Y-57554819D01*
X112500000Y-57554819D02*
X112642857Y-57602438D01*
X112642857Y-57602438D02*
X112738095Y-57697676D01*
X112738095Y-57697676D02*
X112785714Y-57792914D01*
X112785714Y-57792914D02*
X112833333Y-57983390D01*
X112833333Y-57983390D02*
X112833333Y-58126247D01*
X112833333Y-58126247D02*
X112785714Y-58316723D01*
X112785714Y-58316723D02*
X112738095Y-58411961D01*
X112738095Y-58411961D02*
X112642857Y-58507200D01*
X112642857Y-58507200D02*
X112500000Y-58554819D01*
X112500000Y-58554819D02*
X112261905Y-58554819D01*
X113214286Y-57650057D02*
X113261905Y-57602438D01*
X113261905Y-57602438D02*
X113357143Y-57554819D01*
X113357143Y-57554819D02*
X113595238Y-57554819D01*
X113595238Y-57554819D02*
X113690476Y-57602438D01*
X113690476Y-57602438D02*
X113738095Y-57650057D01*
X113738095Y-57650057D02*
X113785714Y-57745295D01*
X113785714Y-57745295D02*
X113785714Y-57840533D01*
X113785714Y-57840533D02*
X113738095Y-57983390D01*
X113738095Y-57983390D02*
X113166667Y-58554819D01*
X113166667Y-58554819D02*
X113785714Y-58554819D01*
X107357142Y-102254819D02*
X107023809Y-101778628D01*
X106785714Y-102254819D02*
X106785714Y-101254819D01*
X106785714Y-101254819D02*
X107166666Y-101254819D01*
X107166666Y-101254819D02*
X107261904Y-101302438D01*
X107261904Y-101302438D02*
X107309523Y-101350057D01*
X107309523Y-101350057D02*
X107357142Y-101445295D01*
X107357142Y-101445295D02*
X107357142Y-101588152D01*
X107357142Y-101588152D02*
X107309523Y-101683390D01*
X107309523Y-101683390D02*
X107261904Y-101731009D01*
X107261904Y-101731009D02*
X107166666Y-101778628D01*
X107166666Y-101778628D02*
X106785714Y-101778628D01*
X107690476Y-101254819D02*
X108309523Y-101254819D01*
X108309523Y-101254819D02*
X107976190Y-101635771D01*
X107976190Y-101635771D02*
X108119047Y-101635771D01*
X108119047Y-101635771D02*
X108214285Y-101683390D01*
X108214285Y-101683390D02*
X108261904Y-101731009D01*
X108261904Y-101731009D02*
X108309523Y-101826247D01*
X108309523Y-101826247D02*
X108309523Y-102064342D01*
X108309523Y-102064342D02*
X108261904Y-102159580D01*
X108261904Y-102159580D02*
X108214285Y-102207200D01*
X108214285Y-102207200D02*
X108119047Y-102254819D01*
X108119047Y-102254819D02*
X107833333Y-102254819D01*
X107833333Y-102254819D02*
X107738095Y-102207200D01*
X107738095Y-102207200D02*
X107690476Y-102159580D01*
X109214285Y-101254819D02*
X108738095Y-101254819D01*
X108738095Y-101254819D02*
X108690476Y-101731009D01*
X108690476Y-101731009D02*
X108738095Y-101683390D01*
X108738095Y-101683390D02*
X108833333Y-101635771D01*
X108833333Y-101635771D02*
X109071428Y-101635771D01*
X109071428Y-101635771D02*
X109166666Y-101683390D01*
X109166666Y-101683390D02*
X109214285Y-101731009D01*
X109214285Y-101731009D02*
X109261904Y-101826247D01*
X109261904Y-101826247D02*
X109261904Y-102064342D01*
X109261904Y-102064342D02*
X109214285Y-102159580D01*
X109214285Y-102159580D02*
X109166666Y-102207200D01*
X109166666Y-102207200D02*
X109071428Y-102254819D01*
X109071428Y-102254819D02*
X108833333Y-102254819D01*
X108833333Y-102254819D02*
X108738095Y-102207200D01*
X108738095Y-102207200D02*
X108690476Y-102159580D01*
X107357142Y-116834819D02*
X107023809Y-116358628D01*
X106785714Y-116834819D02*
X106785714Y-115834819D01*
X106785714Y-115834819D02*
X107166666Y-115834819D01*
X107166666Y-115834819D02*
X107261904Y-115882438D01*
X107261904Y-115882438D02*
X107309523Y-115930057D01*
X107309523Y-115930057D02*
X107357142Y-116025295D01*
X107357142Y-116025295D02*
X107357142Y-116168152D01*
X107357142Y-116168152D02*
X107309523Y-116263390D01*
X107309523Y-116263390D02*
X107261904Y-116311009D01*
X107261904Y-116311009D02*
X107166666Y-116358628D01*
X107166666Y-116358628D02*
X106785714Y-116358628D01*
X107690476Y-115834819D02*
X108309523Y-115834819D01*
X108309523Y-115834819D02*
X107976190Y-116215771D01*
X107976190Y-116215771D02*
X108119047Y-116215771D01*
X108119047Y-116215771D02*
X108214285Y-116263390D01*
X108214285Y-116263390D02*
X108261904Y-116311009D01*
X108261904Y-116311009D02*
X108309523Y-116406247D01*
X108309523Y-116406247D02*
X108309523Y-116644342D01*
X108309523Y-116644342D02*
X108261904Y-116739580D01*
X108261904Y-116739580D02*
X108214285Y-116787200D01*
X108214285Y-116787200D02*
X108119047Y-116834819D01*
X108119047Y-116834819D02*
X107833333Y-116834819D01*
X107833333Y-116834819D02*
X107738095Y-116787200D01*
X107738095Y-116787200D02*
X107690476Y-116739580D01*
X109261904Y-116834819D02*
X108690476Y-116834819D01*
X108976190Y-116834819D02*
X108976190Y-115834819D01*
X108976190Y-115834819D02*
X108880952Y-115977676D01*
X108880952Y-115977676D02*
X108785714Y-116072914D01*
X108785714Y-116072914D02*
X108690476Y-116120533D01*
X150397142Y-118214819D02*
X150063809Y-117738628D01*
X149825714Y-118214819D02*
X149825714Y-117214819D01*
X149825714Y-117214819D02*
X150206666Y-117214819D01*
X150206666Y-117214819D02*
X150301904Y-117262438D01*
X150301904Y-117262438D02*
X150349523Y-117310057D01*
X150349523Y-117310057D02*
X150397142Y-117405295D01*
X150397142Y-117405295D02*
X150397142Y-117548152D01*
X150397142Y-117548152D02*
X150349523Y-117643390D01*
X150349523Y-117643390D02*
X150301904Y-117691009D01*
X150301904Y-117691009D02*
X150206666Y-117738628D01*
X150206666Y-117738628D02*
X149825714Y-117738628D01*
X150778095Y-117310057D02*
X150825714Y-117262438D01*
X150825714Y-117262438D02*
X150920952Y-117214819D01*
X150920952Y-117214819D02*
X151159047Y-117214819D01*
X151159047Y-117214819D02*
X151254285Y-117262438D01*
X151254285Y-117262438D02*
X151301904Y-117310057D01*
X151301904Y-117310057D02*
X151349523Y-117405295D01*
X151349523Y-117405295D02*
X151349523Y-117500533D01*
X151349523Y-117500533D02*
X151301904Y-117643390D01*
X151301904Y-117643390D02*
X150730476Y-118214819D01*
X150730476Y-118214819D02*
X151349523Y-118214819D01*
X152301904Y-118214819D02*
X151730476Y-118214819D01*
X152016190Y-118214819D02*
X152016190Y-117214819D01*
X152016190Y-117214819D02*
X151920952Y-117357676D01*
X151920952Y-117357676D02*
X151825714Y-117452914D01*
X151825714Y-117452914D02*
X151730476Y-117500533D01*
X129359580Y-92742857D02*
X129407200Y-92790476D01*
X129407200Y-92790476D02*
X129454819Y-92933333D01*
X129454819Y-92933333D02*
X129454819Y-93028571D01*
X129454819Y-93028571D02*
X129407200Y-93171428D01*
X129407200Y-93171428D02*
X129311961Y-93266666D01*
X129311961Y-93266666D02*
X129216723Y-93314285D01*
X129216723Y-93314285D02*
X129026247Y-93361904D01*
X129026247Y-93361904D02*
X128883390Y-93361904D01*
X128883390Y-93361904D02*
X128692914Y-93314285D01*
X128692914Y-93314285D02*
X128597676Y-93266666D01*
X128597676Y-93266666D02*
X128502438Y-93171428D01*
X128502438Y-93171428D02*
X128454819Y-93028571D01*
X128454819Y-93028571D02*
X128454819Y-92933333D01*
X128454819Y-92933333D02*
X128502438Y-92790476D01*
X128502438Y-92790476D02*
X128550057Y-92742857D01*
X129454819Y-91790476D02*
X129454819Y-92361904D01*
X129454819Y-92076190D02*
X128454819Y-92076190D01*
X128454819Y-92076190D02*
X128597676Y-92171428D01*
X128597676Y-92171428D02*
X128692914Y-92266666D01*
X128692914Y-92266666D02*
X128740533Y-92361904D01*
X128454819Y-90885714D02*
X128454819Y-91361904D01*
X128454819Y-91361904D02*
X128931009Y-91409523D01*
X128931009Y-91409523D02*
X128883390Y-91361904D01*
X128883390Y-91361904D02*
X128835771Y-91266666D01*
X128835771Y-91266666D02*
X128835771Y-91028571D01*
X128835771Y-91028571D02*
X128883390Y-90933333D01*
X128883390Y-90933333D02*
X128931009Y-90885714D01*
X128931009Y-90885714D02*
X129026247Y-90838095D01*
X129026247Y-90838095D02*
X129264342Y-90838095D01*
X129264342Y-90838095D02*
X129359580Y-90885714D01*
X129359580Y-90885714D02*
X129407200Y-90933333D01*
X129407200Y-90933333D02*
X129454819Y-91028571D01*
X129454819Y-91028571D02*
X129454819Y-91266666D01*
X129454819Y-91266666D02*
X129407200Y-91361904D01*
X129407200Y-91361904D02*
X129359580Y-91409523D01*
X127757142Y-79359580D02*
X127709523Y-79407200D01*
X127709523Y-79407200D02*
X127566666Y-79454819D01*
X127566666Y-79454819D02*
X127471428Y-79454819D01*
X127471428Y-79454819D02*
X127328571Y-79407200D01*
X127328571Y-79407200D02*
X127233333Y-79311961D01*
X127233333Y-79311961D02*
X127185714Y-79216723D01*
X127185714Y-79216723D02*
X127138095Y-79026247D01*
X127138095Y-79026247D02*
X127138095Y-78883390D01*
X127138095Y-78883390D02*
X127185714Y-78692914D01*
X127185714Y-78692914D02*
X127233333Y-78597676D01*
X127233333Y-78597676D02*
X127328571Y-78502438D01*
X127328571Y-78502438D02*
X127471428Y-78454819D01*
X127471428Y-78454819D02*
X127566666Y-78454819D01*
X127566666Y-78454819D02*
X127709523Y-78502438D01*
X127709523Y-78502438D02*
X127757142Y-78550057D01*
X128709523Y-79454819D02*
X128138095Y-79454819D01*
X128423809Y-79454819D02*
X128423809Y-78454819D01*
X128423809Y-78454819D02*
X128328571Y-78597676D01*
X128328571Y-78597676D02*
X128233333Y-78692914D01*
X128233333Y-78692914D02*
X128138095Y-78740533D01*
X129280952Y-78883390D02*
X129185714Y-78835771D01*
X129185714Y-78835771D02*
X129138095Y-78788152D01*
X129138095Y-78788152D02*
X129090476Y-78692914D01*
X129090476Y-78692914D02*
X129090476Y-78645295D01*
X129090476Y-78645295D02*
X129138095Y-78550057D01*
X129138095Y-78550057D02*
X129185714Y-78502438D01*
X129185714Y-78502438D02*
X129280952Y-78454819D01*
X129280952Y-78454819D02*
X129471428Y-78454819D01*
X129471428Y-78454819D02*
X129566666Y-78502438D01*
X129566666Y-78502438D02*
X129614285Y-78550057D01*
X129614285Y-78550057D02*
X129661904Y-78645295D01*
X129661904Y-78645295D02*
X129661904Y-78692914D01*
X129661904Y-78692914D02*
X129614285Y-78788152D01*
X129614285Y-78788152D02*
X129566666Y-78835771D01*
X129566666Y-78835771D02*
X129471428Y-78883390D01*
X129471428Y-78883390D02*
X129280952Y-78883390D01*
X129280952Y-78883390D02*
X129185714Y-78931009D01*
X129185714Y-78931009D02*
X129138095Y-78978628D01*
X129138095Y-78978628D02*
X129090476Y-79073866D01*
X129090476Y-79073866D02*
X129090476Y-79264342D01*
X129090476Y-79264342D02*
X129138095Y-79359580D01*
X129138095Y-79359580D02*
X129185714Y-79407200D01*
X129185714Y-79407200D02*
X129280952Y-79454819D01*
X129280952Y-79454819D02*
X129471428Y-79454819D01*
X129471428Y-79454819D02*
X129566666Y-79407200D01*
X129566666Y-79407200D02*
X129614285Y-79359580D01*
X129614285Y-79359580D02*
X129661904Y-79264342D01*
X129661904Y-79264342D02*
X129661904Y-79073866D01*
X129661904Y-79073866D02*
X129614285Y-78978628D01*
X129614285Y-78978628D02*
X129566666Y-78931009D01*
X129566666Y-78931009D02*
X129471428Y-78883390D01*
X150357142Y-113454819D02*
X150023809Y-112978628D01*
X149785714Y-113454819D02*
X149785714Y-112454819D01*
X149785714Y-112454819D02*
X150166666Y-112454819D01*
X150166666Y-112454819D02*
X150261904Y-112502438D01*
X150261904Y-112502438D02*
X150309523Y-112550057D01*
X150309523Y-112550057D02*
X150357142Y-112645295D01*
X150357142Y-112645295D02*
X150357142Y-112788152D01*
X150357142Y-112788152D02*
X150309523Y-112883390D01*
X150309523Y-112883390D02*
X150261904Y-112931009D01*
X150261904Y-112931009D02*
X150166666Y-112978628D01*
X150166666Y-112978628D02*
X149785714Y-112978628D01*
X150690476Y-112454819D02*
X151309523Y-112454819D01*
X151309523Y-112454819D02*
X150976190Y-112835771D01*
X150976190Y-112835771D02*
X151119047Y-112835771D01*
X151119047Y-112835771D02*
X151214285Y-112883390D01*
X151214285Y-112883390D02*
X151261904Y-112931009D01*
X151261904Y-112931009D02*
X151309523Y-113026247D01*
X151309523Y-113026247D02*
X151309523Y-113264342D01*
X151309523Y-113264342D02*
X151261904Y-113359580D01*
X151261904Y-113359580D02*
X151214285Y-113407200D01*
X151214285Y-113407200D02*
X151119047Y-113454819D01*
X151119047Y-113454819D02*
X150833333Y-113454819D01*
X150833333Y-113454819D02*
X150738095Y-113407200D01*
X150738095Y-113407200D02*
X150690476Y-113359580D01*
X152166666Y-112454819D02*
X151976190Y-112454819D01*
X151976190Y-112454819D02*
X151880952Y-112502438D01*
X151880952Y-112502438D02*
X151833333Y-112550057D01*
X151833333Y-112550057D02*
X151738095Y-112692914D01*
X151738095Y-112692914D02*
X151690476Y-112883390D01*
X151690476Y-112883390D02*
X151690476Y-113264342D01*
X151690476Y-113264342D02*
X151738095Y-113359580D01*
X151738095Y-113359580D02*
X151785714Y-113407200D01*
X151785714Y-113407200D02*
X151880952Y-113454819D01*
X151880952Y-113454819D02*
X152071428Y-113454819D01*
X152071428Y-113454819D02*
X152166666Y-113407200D01*
X152166666Y-113407200D02*
X152214285Y-113359580D01*
X152214285Y-113359580D02*
X152261904Y-113264342D01*
X152261904Y-113264342D02*
X152261904Y-113026247D01*
X152261904Y-113026247D02*
X152214285Y-112931009D01*
X152214285Y-112931009D02*
X152166666Y-112883390D01*
X152166666Y-112883390D02*
X152071428Y-112835771D01*
X152071428Y-112835771D02*
X151880952Y-112835771D01*
X151880952Y-112835771D02*
X151785714Y-112883390D01*
X151785714Y-112883390D02*
X151738095Y-112931009D01*
X151738095Y-112931009D02*
X151690476Y-113026247D01*
X150357142Y-115054819D02*
X150023809Y-114578628D01*
X149785714Y-115054819D02*
X149785714Y-114054819D01*
X149785714Y-114054819D02*
X150166666Y-114054819D01*
X150166666Y-114054819D02*
X150261904Y-114102438D01*
X150261904Y-114102438D02*
X150309523Y-114150057D01*
X150309523Y-114150057D02*
X150357142Y-114245295D01*
X150357142Y-114245295D02*
X150357142Y-114388152D01*
X150357142Y-114388152D02*
X150309523Y-114483390D01*
X150309523Y-114483390D02*
X150261904Y-114531009D01*
X150261904Y-114531009D02*
X150166666Y-114578628D01*
X150166666Y-114578628D02*
X149785714Y-114578628D01*
X150738095Y-114150057D02*
X150785714Y-114102438D01*
X150785714Y-114102438D02*
X150880952Y-114054819D01*
X150880952Y-114054819D02*
X151119047Y-114054819D01*
X151119047Y-114054819D02*
X151214285Y-114102438D01*
X151214285Y-114102438D02*
X151261904Y-114150057D01*
X151261904Y-114150057D02*
X151309523Y-114245295D01*
X151309523Y-114245295D02*
X151309523Y-114340533D01*
X151309523Y-114340533D02*
X151261904Y-114483390D01*
X151261904Y-114483390D02*
X150690476Y-115054819D01*
X150690476Y-115054819D02*
X151309523Y-115054819D01*
X151642857Y-114054819D02*
X152261904Y-114054819D01*
X152261904Y-114054819D02*
X151928571Y-114435771D01*
X151928571Y-114435771D02*
X152071428Y-114435771D01*
X152071428Y-114435771D02*
X152166666Y-114483390D01*
X152166666Y-114483390D02*
X152214285Y-114531009D01*
X152214285Y-114531009D02*
X152261904Y-114626247D01*
X152261904Y-114626247D02*
X152261904Y-114864342D01*
X152261904Y-114864342D02*
X152214285Y-114959580D01*
X152214285Y-114959580D02*
X152166666Y-115007200D01*
X152166666Y-115007200D02*
X152071428Y-115054819D01*
X152071428Y-115054819D02*
X151785714Y-115054819D01*
X151785714Y-115054819D02*
X151690476Y-115007200D01*
X151690476Y-115007200D02*
X151642857Y-114959580D01*
X108357142Y-59659580D02*
X108309523Y-59707200D01*
X108309523Y-59707200D02*
X108166666Y-59754819D01*
X108166666Y-59754819D02*
X108071428Y-59754819D01*
X108071428Y-59754819D02*
X107928571Y-59707200D01*
X107928571Y-59707200D02*
X107833333Y-59611961D01*
X107833333Y-59611961D02*
X107785714Y-59516723D01*
X107785714Y-59516723D02*
X107738095Y-59326247D01*
X107738095Y-59326247D02*
X107738095Y-59183390D01*
X107738095Y-59183390D02*
X107785714Y-58992914D01*
X107785714Y-58992914D02*
X107833333Y-58897676D01*
X107833333Y-58897676D02*
X107928571Y-58802438D01*
X107928571Y-58802438D02*
X108071428Y-58754819D01*
X108071428Y-58754819D02*
X108166666Y-58754819D01*
X108166666Y-58754819D02*
X108309523Y-58802438D01*
X108309523Y-58802438D02*
X108357142Y-58850057D01*
X109309523Y-59754819D02*
X108738095Y-59754819D01*
X109023809Y-59754819D02*
X109023809Y-58754819D01*
X109023809Y-58754819D02*
X108928571Y-58897676D01*
X108928571Y-58897676D02*
X108833333Y-58992914D01*
X108833333Y-58992914D02*
X108738095Y-59040533D01*
X110261904Y-59754819D02*
X109690476Y-59754819D01*
X109976190Y-59754819D02*
X109976190Y-58754819D01*
X109976190Y-58754819D02*
X109880952Y-58897676D01*
X109880952Y-58897676D02*
X109785714Y-58992914D01*
X109785714Y-58992914D02*
X109690476Y-59040533D01*
X140454819Y-133742857D02*
X139978628Y-134076190D01*
X140454819Y-134314285D02*
X139454819Y-134314285D01*
X139454819Y-134314285D02*
X139454819Y-133933333D01*
X139454819Y-133933333D02*
X139502438Y-133838095D01*
X139502438Y-133838095D02*
X139550057Y-133790476D01*
X139550057Y-133790476D02*
X139645295Y-133742857D01*
X139645295Y-133742857D02*
X139788152Y-133742857D01*
X139788152Y-133742857D02*
X139883390Y-133790476D01*
X139883390Y-133790476D02*
X139931009Y-133838095D01*
X139931009Y-133838095D02*
X139978628Y-133933333D01*
X139978628Y-133933333D02*
X139978628Y-134314285D01*
X139454819Y-133409523D02*
X139454819Y-132790476D01*
X139454819Y-132790476D02*
X139835771Y-133123809D01*
X139835771Y-133123809D02*
X139835771Y-132980952D01*
X139835771Y-132980952D02*
X139883390Y-132885714D01*
X139883390Y-132885714D02*
X139931009Y-132838095D01*
X139931009Y-132838095D02*
X140026247Y-132790476D01*
X140026247Y-132790476D02*
X140264342Y-132790476D01*
X140264342Y-132790476D02*
X140359580Y-132838095D01*
X140359580Y-132838095D02*
X140407200Y-132885714D01*
X140407200Y-132885714D02*
X140454819Y-132980952D01*
X140454819Y-132980952D02*
X140454819Y-133266666D01*
X140454819Y-133266666D02*
X140407200Y-133361904D01*
X140407200Y-133361904D02*
X140359580Y-133409523D01*
X139883390Y-132219047D02*
X139835771Y-132314285D01*
X139835771Y-132314285D02*
X139788152Y-132361904D01*
X139788152Y-132361904D02*
X139692914Y-132409523D01*
X139692914Y-132409523D02*
X139645295Y-132409523D01*
X139645295Y-132409523D02*
X139550057Y-132361904D01*
X139550057Y-132361904D02*
X139502438Y-132314285D01*
X139502438Y-132314285D02*
X139454819Y-132219047D01*
X139454819Y-132219047D02*
X139454819Y-132028571D01*
X139454819Y-132028571D02*
X139502438Y-131933333D01*
X139502438Y-131933333D02*
X139550057Y-131885714D01*
X139550057Y-131885714D02*
X139645295Y-131838095D01*
X139645295Y-131838095D02*
X139692914Y-131838095D01*
X139692914Y-131838095D02*
X139788152Y-131885714D01*
X139788152Y-131885714D02*
X139835771Y-131933333D01*
X139835771Y-131933333D02*
X139883390Y-132028571D01*
X139883390Y-132028571D02*
X139883390Y-132219047D01*
X139883390Y-132219047D02*
X139931009Y-132314285D01*
X139931009Y-132314285D02*
X139978628Y-132361904D01*
X139978628Y-132361904D02*
X140073866Y-132409523D01*
X140073866Y-132409523D02*
X140264342Y-132409523D01*
X140264342Y-132409523D02*
X140359580Y-132361904D01*
X140359580Y-132361904D02*
X140407200Y-132314285D01*
X140407200Y-132314285D02*
X140454819Y-132219047D01*
X140454819Y-132219047D02*
X140454819Y-132028571D01*
X140454819Y-132028571D02*
X140407200Y-131933333D01*
X140407200Y-131933333D02*
X140359580Y-131885714D01*
X140359580Y-131885714D02*
X140264342Y-131838095D01*
X140264342Y-131838095D02*
X140073866Y-131838095D01*
X140073866Y-131838095D02*
X139978628Y-131885714D01*
X139978628Y-131885714D02*
X139931009Y-131933333D01*
X139931009Y-131933333D02*
X139883390Y-132028571D01*
X144454819Y-133742857D02*
X143978628Y-134076190D01*
X144454819Y-134314285D02*
X143454819Y-134314285D01*
X143454819Y-134314285D02*
X143454819Y-133933333D01*
X143454819Y-133933333D02*
X143502438Y-133838095D01*
X143502438Y-133838095D02*
X143550057Y-133790476D01*
X143550057Y-133790476D02*
X143645295Y-133742857D01*
X143645295Y-133742857D02*
X143788152Y-133742857D01*
X143788152Y-133742857D02*
X143883390Y-133790476D01*
X143883390Y-133790476D02*
X143931009Y-133838095D01*
X143931009Y-133838095D02*
X143978628Y-133933333D01*
X143978628Y-133933333D02*
X143978628Y-134314285D01*
X143454819Y-133409523D02*
X143454819Y-132790476D01*
X143454819Y-132790476D02*
X143835771Y-133123809D01*
X143835771Y-133123809D02*
X143835771Y-132980952D01*
X143835771Y-132980952D02*
X143883390Y-132885714D01*
X143883390Y-132885714D02*
X143931009Y-132838095D01*
X143931009Y-132838095D02*
X144026247Y-132790476D01*
X144026247Y-132790476D02*
X144264342Y-132790476D01*
X144264342Y-132790476D02*
X144359580Y-132838095D01*
X144359580Y-132838095D02*
X144407200Y-132885714D01*
X144407200Y-132885714D02*
X144454819Y-132980952D01*
X144454819Y-132980952D02*
X144454819Y-133266666D01*
X144454819Y-133266666D02*
X144407200Y-133361904D01*
X144407200Y-133361904D02*
X144359580Y-133409523D01*
X143454819Y-132457142D02*
X143454819Y-131790476D01*
X143454819Y-131790476D02*
X144454819Y-132219047D01*
X150357142Y-59559580D02*
X150309523Y-59607200D01*
X150309523Y-59607200D02*
X150166666Y-59654819D01*
X150166666Y-59654819D02*
X150071428Y-59654819D01*
X150071428Y-59654819D02*
X149928571Y-59607200D01*
X149928571Y-59607200D02*
X149833333Y-59511961D01*
X149833333Y-59511961D02*
X149785714Y-59416723D01*
X149785714Y-59416723D02*
X149738095Y-59226247D01*
X149738095Y-59226247D02*
X149738095Y-59083390D01*
X149738095Y-59083390D02*
X149785714Y-58892914D01*
X149785714Y-58892914D02*
X149833333Y-58797676D01*
X149833333Y-58797676D02*
X149928571Y-58702438D01*
X149928571Y-58702438D02*
X150071428Y-58654819D01*
X150071428Y-58654819D02*
X150166666Y-58654819D01*
X150166666Y-58654819D02*
X150309523Y-58702438D01*
X150309523Y-58702438D02*
X150357142Y-58750057D01*
X151309523Y-59654819D02*
X150738095Y-59654819D01*
X151023809Y-59654819D02*
X151023809Y-58654819D01*
X151023809Y-58654819D02*
X150928571Y-58797676D01*
X150928571Y-58797676D02*
X150833333Y-58892914D01*
X150833333Y-58892914D02*
X150738095Y-58940533D01*
X151928571Y-58654819D02*
X152023809Y-58654819D01*
X152023809Y-58654819D02*
X152119047Y-58702438D01*
X152119047Y-58702438D02*
X152166666Y-58750057D01*
X152166666Y-58750057D02*
X152214285Y-58845295D01*
X152214285Y-58845295D02*
X152261904Y-59035771D01*
X152261904Y-59035771D02*
X152261904Y-59273866D01*
X152261904Y-59273866D02*
X152214285Y-59464342D01*
X152214285Y-59464342D02*
X152166666Y-59559580D01*
X152166666Y-59559580D02*
X152119047Y-59607200D01*
X152119047Y-59607200D02*
X152023809Y-59654819D01*
X152023809Y-59654819D02*
X151928571Y-59654819D01*
X151928571Y-59654819D02*
X151833333Y-59607200D01*
X151833333Y-59607200D02*
X151785714Y-59559580D01*
X151785714Y-59559580D02*
X151738095Y-59464342D01*
X151738095Y-59464342D02*
X151690476Y-59273866D01*
X151690476Y-59273866D02*
X151690476Y-59035771D01*
X151690476Y-59035771D02*
X151738095Y-58845295D01*
X151738095Y-58845295D02*
X151785714Y-58750057D01*
X151785714Y-58750057D02*
X151833333Y-58702438D01*
X151833333Y-58702438D02*
X151928571Y-58654819D01*
X107357142Y-113654819D02*
X107023809Y-113178628D01*
X106785714Y-113654819D02*
X106785714Y-112654819D01*
X106785714Y-112654819D02*
X107166666Y-112654819D01*
X107166666Y-112654819D02*
X107261904Y-112702438D01*
X107261904Y-112702438D02*
X107309523Y-112750057D01*
X107309523Y-112750057D02*
X107357142Y-112845295D01*
X107357142Y-112845295D02*
X107357142Y-112988152D01*
X107357142Y-112988152D02*
X107309523Y-113083390D01*
X107309523Y-113083390D02*
X107261904Y-113131009D01*
X107261904Y-113131009D02*
X107166666Y-113178628D01*
X107166666Y-113178628D02*
X106785714Y-113178628D01*
X107738095Y-112750057D02*
X107785714Y-112702438D01*
X107785714Y-112702438D02*
X107880952Y-112654819D01*
X107880952Y-112654819D02*
X108119047Y-112654819D01*
X108119047Y-112654819D02*
X108214285Y-112702438D01*
X108214285Y-112702438D02*
X108261904Y-112750057D01*
X108261904Y-112750057D02*
X108309523Y-112845295D01*
X108309523Y-112845295D02*
X108309523Y-112940533D01*
X108309523Y-112940533D02*
X108261904Y-113083390D01*
X108261904Y-113083390D02*
X107690476Y-113654819D01*
X107690476Y-113654819D02*
X108309523Y-113654819D01*
X108785714Y-113654819D02*
X108976190Y-113654819D01*
X108976190Y-113654819D02*
X109071428Y-113607200D01*
X109071428Y-113607200D02*
X109119047Y-113559580D01*
X109119047Y-113559580D02*
X109214285Y-113416723D01*
X109214285Y-113416723D02*
X109261904Y-113226247D01*
X109261904Y-113226247D02*
X109261904Y-112845295D01*
X109261904Y-112845295D02*
X109214285Y-112750057D01*
X109214285Y-112750057D02*
X109166666Y-112702438D01*
X109166666Y-112702438D02*
X109071428Y-112654819D01*
X109071428Y-112654819D02*
X108880952Y-112654819D01*
X108880952Y-112654819D02*
X108785714Y-112702438D01*
X108785714Y-112702438D02*
X108738095Y-112750057D01*
X108738095Y-112750057D02*
X108690476Y-112845295D01*
X108690476Y-112845295D02*
X108690476Y-113083390D01*
X108690476Y-113083390D02*
X108738095Y-113178628D01*
X108738095Y-113178628D02*
X108785714Y-113226247D01*
X108785714Y-113226247D02*
X108880952Y-113273866D01*
X108880952Y-113273866D02*
X109071428Y-113273866D01*
X109071428Y-113273866D02*
X109166666Y-113226247D01*
X109166666Y-113226247D02*
X109214285Y-113178628D01*
X109214285Y-113178628D02*
X109261904Y-113083390D01*
X142454819Y-133742857D02*
X141978628Y-134076190D01*
X142454819Y-134314285D02*
X141454819Y-134314285D01*
X141454819Y-134314285D02*
X141454819Y-133933333D01*
X141454819Y-133933333D02*
X141502438Y-133838095D01*
X141502438Y-133838095D02*
X141550057Y-133790476D01*
X141550057Y-133790476D02*
X141645295Y-133742857D01*
X141645295Y-133742857D02*
X141788152Y-133742857D01*
X141788152Y-133742857D02*
X141883390Y-133790476D01*
X141883390Y-133790476D02*
X141931009Y-133838095D01*
X141931009Y-133838095D02*
X141978628Y-133933333D01*
X141978628Y-133933333D02*
X141978628Y-134314285D01*
X142454819Y-132790476D02*
X142454819Y-133361904D01*
X142454819Y-133076190D02*
X141454819Y-133076190D01*
X141454819Y-133076190D02*
X141597676Y-133171428D01*
X141597676Y-133171428D02*
X141692914Y-133266666D01*
X141692914Y-133266666D02*
X141740533Y-133361904D01*
X142454819Y-132314285D02*
X142454819Y-132123809D01*
X142454819Y-132123809D02*
X142407200Y-132028571D01*
X142407200Y-132028571D02*
X142359580Y-131980952D01*
X142359580Y-131980952D02*
X142216723Y-131885714D01*
X142216723Y-131885714D02*
X142026247Y-131838095D01*
X142026247Y-131838095D02*
X141645295Y-131838095D01*
X141645295Y-131838095D02*
X141550057Y-131885714D01*
X141550057Y-131885714D02*
X141502438Y-131933333D01*
X141502438Y-131933333D02*
X141454819Y-132028571D01*
X141454819Y-132028571D02*
X141454819Y-132219047D01*
X141454819Y-132219047D02*
X141502438Y-132314285D01*
X141502438Y-132314285D02*
X141550057Y-132361904D01*
X141550057Y-132361904D02*
X141645295Y-132409523D01*
X141645295Y-132409523D02*
X141883390Y-132409523D01*
X141883390Y-132409523D02*
X141978628Y-132361904D01*
X141978628Y-132361904D02*
X142026247Y-132314285D01*
X142026247Y-132314285D02*
X142073866Y-132219047D01*
X142073866Y-132219047D02*
X142073866Y-132028571D01*
X142073866Y-132028571D02*
X142026247Y-131933333D01*
X142026247Y-131933333D02*
X141978628Y-131885714D01*
X141978628Y-131885714D02*
X141883390Y-131838095D01*
X127833333Y-77854819D02*
X127500000Y-77378628D01*
X127261905Y-77854819D02*
X127261905Y-76854819D01*
X127261905Y-76854819D02*
X127642857Y-76854819D01*
X127642857Y-76854819D02*
X127738095Y-76902438D01*
X127738095Y-76902438D02*
X127785714Y-76950057D01*
X127785714Y-76950057D02*
X127833333Y-77045295D01*
X127833333Y-77045295D02*
X127833333Y-77188152D01*
X127833333Y-77188152D02*
X127785714Y-77283390D01*
X127785714Y-77283390D02*
X127738095Y-77331009D01*
X127738095Y-77331009D02*
X127642857Y-77378628D01*
X127642857Y-77378628D02*
X127261905Y-77378628D01*
X128690476Y-77188152D02*
X128690476Y-77854819D01*
X128452381Y-76807200D02*
X128214286Y-77521485D01*
X128214286Y-77521485D02*
X128833333Y-77521485D01*
X132954819Y-119766666D02*
X132478628Y-120099999D01*
X132954819Y-120338094D02*
X131954819Y-120338094D01*
X131954819Y-120338094D02*
X131954819Y-119957142D01*
X131954819Y-119957142D02*
X132002438Y-119861904D01*
X132002438Y-119861904D02*
X132050057Y-119814285D01*
X132050057Y-119814285D02*
X132145295Y-119766666D01*
X132145295Y-119766666D02*
X132288152Y-119766666D01*
X132288152Y-119766666D02*
X132383390Y-119814285D01*
X132383390Y-119814285D02*
X132431009Y-119861904D01*
X132431009Y-119861904D02*
X132478628Y-119957142D01*
X132478628Y-119957142D02*
X132478628Y-120338094D01*
X132954819Y-118814285D02*
X132954819Y-119385713D01*
X132954819Y-119099999D02*
X131954819Y-119099999D01*
X131954819Y-119099999D02*
X132097676Y-119195237D01*
X132097676Y-119195237D02*
X132192914Y-119290475D01*
X132192914Y-119290475D02*
X132240533Y-119385713D01*
X149557142Y-77854819D02*
X149223809Y-77378628D01*
X148985714Y-77854819D02*
X148985714Y-76854819D01*
X148985714Y-76854819D02*
X149366666Y-76854819D01*
X149366666Y-76854819D02*
X149461904Y-76902438D01*
X149461904Y-76902438D02*
X149509523Y-76950057D01*
X149509523Y-76950057D02*
X149557142Y-77045295D01*
X149557142Y-77045295D02*
X149557142Y-77188152D01*
X149557142Y-77188152D02*
X149509523Y-77283390D01*
X149509523Y-77283390D02*
X149461904Y-77331009D01*
X149461904Y-77331009D02*
X149366666Y-77378628D01*
X149366666Y-77378628D02*
X148985714Y-77378628D01*
X150509523Y-77854819D02*
X149938095Y-77854819D01*
X150223809Y-77854819D02*
X150223809Y-76854819D01*
X150223809Y-76854819D02*
X150128571Y-76997676D01*
X150128571Y-76997676D02*
X150033333Y-77092914D01*
X150033333Y-77092914D02*
X149938095Y-77140533D01*
X151461904Y-77854819D02*
X150890476Y-77854819D01*
X151176190Y-77854819D02*
X151176190Y-76854819D01*
X151176190Y-76854819D02*
X151080952Y-76997676D01*
X151080952Y-76997676D02*
X150985714Y-77092914D01*
X150985714Y-77092914D02*
X150890476Y-77140533D01*
X146261905Y-58754819D02*
X146261905Y-57754819D01*
X146261905Y-57754819D02*
X146500000Y-57754819D01*
X146500000Y-57754819D02*
X146642857Y-57802438D01*
X146642857Y-57802438D02*
X146738095Y-57897676D01*
X146738095Y-57897676D02*
X146785714Y-57992914D01*
X146785714Y-57992914D02*
X146833333Y-58183390D01*
X146833333Y-58183390D02*
X146833333Y-58326247D01*
X146833333Y-58326247D02*
X146785714Y-58516723D01*
X146785714Y-58516723D02*
X146738095Y-58611961D01*
X146738095Y-58611961D02*
X146642857Y-58707200D01*
X146642857Y-58707200D02*
X146500000Y-58754819D01*
X146500000Y-58754819D02*
X146261905Y-58754819D01*
X147785714Y-58754819D02*
X147214286Y-58754819D01*
X147500000Y-58754819D02*
X147500000Y-57754819D01*
X147500000Y-57754819D02*
X147404762Y-57897676D01*
X147404762Y-57897676D02*
X147309524Y-57992914D01*
X147309524Y-57992914D02*
X147214286Y-58040533D01*
X116236697Y-137053833D02*
X116236697Y-137864842D01*
X116236697Y-137864842D02*
X116284403Y-137960255D01*
X116284403Y-137960255D02*
X116332110Y-138007962D01*
X116332110Y-138007962D02*
X116427522Y-138055668D01*
X116427522Y-138055668D02*
X116618348Y-138055668D01*
X116618348Y-138055668D02*
X116713761Y-138007962D01*
X116713761Y-138007962D02*
X116761467Y-137960255D01*
X116761467Y-137960255D02*
X116809174Y-137864842D01*
X116809174Y-137864842D02*
X116809174Y-137053833D01*
X117238531Y-137149246D02*
X117286238Y-137101539D01*
X117286238Y-137101539D02*
X117381651Y-137053833D01*
X117381651Y-137053833D02*
X117620183Y-137053833D01*
X117620183Y-137053833D02*
X117715596Y-137101539D01*
X117715596Y-137101539D02*
X117763302Y-137149246D01*
X117763302Y-137149246D02*
X117811008Y-137244659D01*
X117811008Y-137244659D02*
X117811008Y-137340072D01*
X117811008Y-137340072D02*
X117763302Y-137483191D01*
X117763302Y-137483191D02*
X117190825Y-138055668D01*
X117190825Y-138055668D02*
X117811008Y-138055668D01*
X119859580Y-117842857D02*
X119907200Y-117890476D01*
X119907200Y-117890476D02*
X119954819Y-118033333D01*
X119954819Y-118033333D02*
X119954819Y-118128571D01*
X119954819Y-118128571D02*
X119907200Y-118271428D01*
X119907200Y-118271428D02*
X119811961Y-118366666D01*
X119811961Y-118366666D02*
X119716723Y-118414285D01*
X119716723Y-118414285D02*
X119526247Y-118461904D01*
X119526247Y-118461904D02*
X119383390Y-118461904D01*
X119383390Y-118461904D02*
X119192914Y-118414285D01*
X119192914Y-118414285D02*
X119097676Y-118366666D01*
X119097676Y-118366666D02*
X119002438Y-118271428D01*
X119002438Y-118271428D02*
X118954819Y-118128571D01*
X118954819Y-118128571D02*
X118954819Y-118033333D01*
X118954819Y-118033333D02*
X119002438Y-117890476D01*
X119002438Y-117890476D02*
X119050057Y-117842857D01*
X119954819Y-116890476D02*
X119954819Y-117461904D01*
X119954819Y-117176190D02*
X118954819Y-117176190D01*
X118954819Y-117176190D02*
X119097676Y-117271428D01*
X119097676Y-117271428D02*
X119192914Y-117366666D01*
X119192914Y-117366666D02*
X119240533Y-117461904D01*
X119050057Y-116509523D02*
X119002438Y-116461904D01*
X119002438Y-116461904D02*
X118954819Y-116366666D01*
X118954819Y-116366666D02*
X118954819Y-116128571D01*
X118954819Y-116128571D02*
X119002438Y-116033333D01*
X119002438Y-116033333D02*
X119050057Y-115985714D01*
X119050057Y-115985714D02*
X119145295Y-115938095D01*
X119145295Y-115938095D02*
X119240533Y-115938095D01*
X119240533Y-115938095D02*
X119383390Y-115985714D01*
X119383390Y-115985714D02*
X119954819Y-116557142D01*
X119954819Y-116557142D02*
X119954819Y-115938095D01*
X144885714Y-64173866D02*
X145647619Y-64173866D01*
X145266666Y-64554819D02*
X145266666Y-63792914D01*
X146647618Y-64554819D02*
X146076190Y-64554819D01*
X146361904Y-64554819D02*
X146361904Y-63554819D01*
X146361904Y-63554819D02*
X146266666Y-63697676D01*
X146266666Y-63697676D02*
X146171428Y-63792914D01*
X146171428Y-63792914D02*
X146076190Y-63840533D01*
X147028571Y-63650057D02*
X147076190Y-63602438D01*
X147076190Y-63602438D02*
X147171428Y-63554819D01*
X147171428Y-63554819D02*
X147409523Y-63554819D01*
X147409523Y-63554819D02*
X147504761Y-63602438D01*
X147504761Y-63602438D02*
X147552380Y-63650057D01*
X147552380Y-63650057D02*
X147599999Y-63745295D01*
X147599999Y-63745295D02*
X147599999Y-63840533D01*
X147599999Y-63840533D02*
X147552380Y-63983390D01*
X147552380Y-63983390D02*
X146980952Y-64554819D01*
X146980952Y-64554819D02*
X147599999Y-64554819D01*
X147933333Y-63888152D02*
X148171428Y-64554819D01*
X148171428Y-64554819D02*
X148409523Y-63888152D01*
X140133333Y-112559580D02*
X140085714Y-112607200D01*
X140085714Y-112607200D02*
X139942857Y-112654819D01*
X139942857Y-112654819D02*
X139847619Y-112654819D01*
X139847619Y-112654819D02*
X139704762Y-112607200D01*
X139704762Y-112607200D02*
X139609524Y-112511961D01*
X139609524Y-112511961D02*
X139561905Y-112416723D01*
X139561905Y-112416723D02*
X139514286Y-112226247D01*
X139514286Y-112226247D02*
X139514286Y-112083390D01*
X139514286Y-112083390D02*
X139561905Y-111892914D01*
X139561905Y-111892914D02*
X139609524Y-111797676D01*
X139609524Y-111797676D02*
X139704762Y-111702438D01*
X139704762Y-111702438D02*
X139847619Y-111654819D01*
X139847619Y-111654819D02*
X139942857Y-111654819D01*
X139942857Y-111654819D02*
X140085714Y-111702438D01*
X140085714Y-111702438D02*
X140133333Y-111750057D01*
X140466667Y-111654819D02*
X141085714Y-111654819D01*
X141085714Y-111654819D02*
X140752381Y-112035771D01*
X140752381Y-112035771D02*
X140895238Y-112035771D01*
X140895238Y-112035771D02*
X140990476Y-112083390D01*
X140990476Y-112083390D02*
X141038095Y-112131009D01*
X141038095Y-112131009D02*
X141085714Y-112226247D01*
X141085714Y-112226247D02*
X141085714Y-112464342D01*
X141085714Y-112464342D02*
X141038095Y-112559580D01*
X141038095Y-112559580D02*
X140990476Y-112607200D01*
X140990476Y-112607200D02*
X140895238Y-112654819D01*
X140895238Y-112654819D02*
X140609524Y-112654819D01*
X140609524Y-112654819D02*
X140514286Y-112607200D01*
X140514286Y-112607200D02*
X140466667Y-112559580D01*
X150357142Y-123064819D02*
X150023809Y-122588628D01*
X149785714Y-123064819D02*
X149785714Y-122064819D01*
X149785714Y-122064819D02*
X150166666Y-122064819D01*
X150166666Y-122064819D02*
X150261904Y-122112438D01*
X150261904Y-122112438D02*
X150309523Y-122160057D01*
X150309523Y-122160057D02*
X150357142Y-122255295D01*
X150357142Y-122255295D02*
X150357142Y-122398152D01*
X150357142Y-122398152D02*
X150309523Y-122493390D01*
X150309523Y-122493390D02*
X150261904Y-122541009D01*
X150261904Y-122541009D02*
X150166666Y-122588628D01*
X150166666Y-122588628D02*
X149785714Y-122588628D01*
X150738095Y-122160057D02*
X150785714Y-122112438D01*
X150785714Y-122112438D02*
X150880952Y-122064819D01*
X150880952Y-122064819D02*
X151119047Y-122064819D01*
X151119047Y-122064819D02*
X151214285Y-122112438D01*
X151214285Y-122112438D02*
X151261904Y-122160057D01*
X151261904Y-122160057D02*
X151309523Y-122255295D01*
X151309523Y-122255295D02*
X151309523Y-122350533D01*
X151309523Y-122350533D02*
X151261904Y-122493390D01*
X151261904Y-122493390D02*
X150690476Y-123064819D01*
X150690476Y-123064819D02*
X151309523Y-123064819D01*
X152166666Y-122398152D02*
X152166666Y-123064819D01*
X151928571Y-122017200D02*
X151690476Y-122731485D01*
X151690476Y-122731485D02*
X152309523Y-122731485D01*
X107357142Y-110254819D02*
X107023809Y-109778628D01*
X106785714Y-110254819D02*
X106785714Y-109254819D01*
X106785714Y-109254819D02*
X107166666Y-109254819D01*
X107166666Y-109254819D02*
X107261904Y-109302438D01*
X107261904Y-109302438D02*
X107309523Y-109350057D01*
X107309523Y-109350057D02*
X107357142Y-109445295D01*
X107357142Y-109445295D02*
X107357142Y-109588152D01*
X107357142Y-109588152D02*
X107309523Y-109683390D01*
X107309523Y-109683390D02*
X107261904Y-109731009D01*
X107261904Y-109731009D02*
X107166666Y-109778628D01*
X107166666Y-109778628D02*
X106785714Y-109778628D01*
X107738095Y-109350057D02*
X107785714Y-109302438D01*
X107785714Y-109302438D02*
X107880952Y-109254819D01*
X107880952Y-109254819D02*
X108119047Y-109254819D01*
X108119047Y-109254819D02*
X108214285Y-109302438D01*
X108214285Y-109302438D02*
X108261904Y-109350057D01*
X108261904Y-109350057D02*
X108309523Y-109445295D01*
X108309523Y-109445295D02*
X108309523Y-109540533D01*
X108309523Y-109540533D02*
X108261904Y-109683390D01*
X108261904Y-109683390D02*
X107690476Y-110254819D01*
X107690476Y-110254819D02*
X108309523Y-110254819D01*
X108642857Y-109254819D02*
X109309523Y-109254819D01*
X109309523Y-109254819D02*
X108880952Y-110254819D01*
X122357142Y-71559580D02*
X122309523Y-71607200D01*
X122309523Y-71607200D02*
X122166666Y-71654819D01*
X122166666Y-71654819D02*
X122071428Y-71654819D01*
X122071428Y-71654819D02*
X121928571Y-71607200D01*
X121928571Y-71607200D02*
X121833333Y-71511961D01*
X121833333Y-71511961D02*
X121785714Y-71416723D01*
X121785714Y-71416723D02*
X121738095Y-71226247D01*
X121738095Y-71226247D02*
X121738095Y-71083390D01*
X121738095Y-71083390D02*
X121785714Y-70892914D01*
X121785714Y-70892914D02*
X121833333Y-70797676D01*
X121833333Y-70797676D02*
X121928571Y-70702438D01*
X121928571Y-70702438D02*
X122071428Y-70654819D01*
X122071428Y-70654819D02*
X122166666Y-70654819D01*
X122166666Y-70654819D02*
X122309523Y-70702438D01*
X122309523Y-70702438D02*
X122357142Y-70750057D01*
X123309523Y-71654819D02*
X122738095Y-71654819D01*
X123023809Y-71654819D02*
X123023809Y-70654819D01*
X123023809Y-70654819D02*
X122928571Y-70797676D01*
X122928571Y-70797676D02*
X122833333Y-70892914D01*
X122833333Y-70892914D02*
X122738095Y-70940533D01*
X123642857Y-70654819D02*
X124309523Y-70654819D01*
X124309523Y-70654819D02*
X123880952Y-71654819D01*
X116666666Y-142214819D02*
X116666666Y-142929104D01*
X116666666Y-142929104D02*
X116619047Y-143071961D01*
X116619047Y-143071961D02*
X116523809Y-143167200D01*
X116523809Y-143167200D02*
X116380952Y-143214819D01*
X116380952Y-143214819D02*
X116285714Y-143214819D01*
X117285714Y-142643390D02*
X117190476Y-142595771D01*
X117190476Y-142595771D02*
X117142857Y-142548152D01*
X117142857Y-142548152D02*
X117095238Y-142452914D01*
X117095238Y-142452914D02*
X117095238Y-142405295D01*
X117095238Y-142405295D02*
X117142857Y-142310057D01*
X117142857Y-142310057D02*
X117190476Y-142262438D01*
X117190476Y-142262438D02*
X117285714Y-142214819D01*
X117285714Y-142214819D02*
X117476190Y-142214819D01*
X117476190Y-142214819D02*
X117571428Y-142262438D01*
X117571428Y-142262438D02*
X117619047Y-142310057D01*
X117619047Y-142310057D02*
X117666666Y-142405295D01*
X117666666Y-142405295D02*
X117666666Y-142452914D01*
X117666666Y-142452914D02*
X117619047Y-142548152D01*
X117619047Y-142548152D02*
X117571428Y-142595771D01*
X117571428Y-142595771D02*
X117476190Y-142643390D01*
X117476190Y-142643390D02*
X117285714Y-142643390D01*
X117285714Y-142643390D02*
X117190476Y-142691009D01*
X117190476Y-142691009D02*
X117142857Y-142738628D01*
X117142857Y-142738628D02*
X117095238Y-142833866D01*
X117095238Y-142833866D02*
X117095238Y-143024342D01*
X117095238Y-143024342D02*
X117142857Y-143119580D01*
X117142857Y-143119580D02*
X117190476Y-143167200D01*
X117190476Y-143167200D02*
X117285714Y-143214819D01*
X117285714Y-143214819D02*
X117476190Y-143214819D01*
X117476190Y-143214819D02*
X117571428Y-143167200D01*
X117571428Y-143167200D02*
X117619047Y-143119580D01*
X117619047Y-143119580D02*
X117666666Y-143024342D01*
X117666666Y-143024342D02*
X117666666Y-142833866D01*
X117666666Y-142833866D02*
X117619047Y-142738628D01*
X117619047Y-142738628D02*
X117571428Y-142691009D01*
X117571428Y-142691009D02*
X117476190Y-142643390D01*
X150357142Y-119844819D02*
X150023809Y-119368628D01*
X149785714Y-119844819D02*
X149785714Y-118844819D01*
X149785714Y-118844819D02*
X150166666Y-118844819D01*
X150166666Y-118844819D02*
X150261904Y-118892438D01*
X150261904Y-118892438D02*
X150309523Y-118940057D01*
X150309523Y-118940057D02*
X150357142Y-119035295D01*
X150357142Y-119035295D02*
X150357142Y-119178152D01*
X150357142Y-119178152D02*
X150309523Y-119273390D01*
X150309523Y-119273390D02*
X150261904Y-119321009D01*
X150261904Y-119321009D02*
X150166666Y-119368628D01*
X150166666Y-119368628D02*
X149785714Y-119368628D01*
X150738095Y-118940057D02*
X150785714Y-118892438D01*
X150785714Y-118892438D02*
X150880952Y-118844819D01*
X150880952Y-118844819D02*
X151119047Y-118844819D01*
X151119047Y-118844819D02*
X151214285Y-118892438D01*
X151214285Y-118892438D02*
X151261904Y-118940057D01*
X151261904Y-118940057D02*
X151309523Y-119035295D01*
X151309523Y-119035295D02*
X151309523Y-119130533D01*
X151309523Y-119130533D02*
X151261904Y-119273390D01*
X151261904Y-119273390D02*
X150690476Y-119844819D01*
X150690476Y-119844819D02*
X151309523Y-119844819D01*
X151928571Y-118844819D02*
X152023809Y-118844819D01*
X152023809Y-118844819D02*
X152119047Y-118892438D01*
X152119047Y-118892438D02*
X152166666Y-118940057D01*
X152166666Y-118940057D02*
X152214285Y-119035295D01*
X152214285Y-119035295D02*
X152261904Y-119225771D01*
X152261904Y-119225771D02*
X152261904Y-119463866D01*
X152261904Y-119463866D02*
X152214285Y-119654342D01*
X152214285Y-119654342D02*
X152166666Y-119749580D01*
X152166666Y-119749580D02*
X152119047Y-119797200D01*
X152119047Y-119797200D02*
X152023809Y-119844819D01*
X152023809Y-119844819D02*
X151928571Y-119844819D01*
X151928571Y-119844819D02*
X151833333Y-119797200D01*
X151833333Y-119797200D02*
X151785714Y-119749580D01*
X151785714Y-119749580D02*
X151738095Y-119654342D01*
X151738095Y-119654342D02*
X151690476Y-119463866D01*
X151690476Y-119463866D02*
X151690476Y-119225771D01*
X151690476Y-119225771D02*
X151738095Y-119035295D01*
X151738095Y-119035295D02*
X151785714Y-118940057D01*
X151785714Y-118940057D02*
X151833333Y-118892438D01*
X151833333Y-118892438D02*
X151928571Y-118844819D01*
X140238095Y-73174819D02*
X140238095Y-73984342D01*
X140238095Y-73984342D02*
X140285714Y-74079580D01*
X140285714Y-74079580D02*
X140333333Y-74127200D01*
X140333333Y-74127200D02*
X140428571Y-74174819D01*
X140428571Y-74174819D02*
X140619047Y-74174819D01*
X140619047Y-74174819D02*
X140714285Y-74127200D01*
X140714285Y-74127200D02*
X140761904Y-74079580D01*
X140761904Y-74079580D02*
X140809523Y-73984342D01*
X140809523Y-73984342D02*
X140809523Y-73174819D01*
X141714285Y-73508152D02*
X141714285Y-74174819D01*
X141476190Y-73127200D02*
X141238095Y-73841485D01*
X141238095Y-73841485D02*
X141857142Y-73841485D01*
X110033333Y-82054819D02*
X109700000Y-81578628D01*
X109461905Y-82054819D02*
X109461905Y-81054819D01*
X109461905Y-81054819D02*
X109842857Y-81054819D01*
X109842857Y-81054819D02*
X109938095Y-81102438D01*
X109938095Y-81102438D02*
X109985714Y-81150057D01*
X109985714Y-81150057D02*
X110033333Y-81245295D01*
X110033333Y-81245295D02*
X110033333Y-81388152D01*
X110033333Y-81388152D02*
X109985714Y-81483390D01*
X109985714Y-81483390D02*
X109938095Y-81531009D01*
X109938095Y-81531009D02*
X109842857Y-81578628D01*
X109842857Y-81578628D02*
X109461905Y-81578628D01*
X110366667Y-81054819D02*
X111033333Y-81054819D01*
X111033333Y-81054819D02*
X110604762Y-82054819D01*
X107357142Y-105454819D02*
X107023809Y-104978628D01*
X106785714Y-105454819D02*
X106785714Y-104454819D01*
X106785714Y-104454819D02*
X107166666Y-104454819D01*
X107166666Y-104454819D02*
X107261904Y-104502438D01*
X107261904Y-104502438D02*
X107309523Y-104550057D01*
X107309523Y-104550057D02*
X107357142Y-104645295D01*
X107357142Y-104645295D02*
X107357142Y-104788152D01*
X107357142Y-104788152D02*
X107309523Y-104883390D01*
X107309523Y-104883390D02*
X107261904Y-104931009D01*
X107261904Y-104931009D02*
X107166666Y-104978628D01*
X107166666Y-104978628D02*
X106785714Y-104978628D01*
X107690476Y-104454819D02*
X108309523Y-104454819D01*
X108309523Y-104454819D02*
X107976190Y-104835771D01*
X107976190Y-104835771D02*
X108119047Y-104835771D01*
X108119047Y-104835771D02*
X108214285Y-104883390D01*
X108214285Y-104883390D02*
X108261904Y-104931009D01*
X108261904Y-104931009D02*
X108309523Y-105026247D01*
X108309523Y-105026247D02*
X108309523Y-105264342D01*
X108309523Y-105264342D02*
X108261904Y-105359580D01*
X108261904Y-105359580D02*
X108214285Y-105407200D01*
X108214285Y-105407200D02*
X108119047Y-105454819D01*
X108119047Y-105454819D02*
X107833333Y-105454819D01*
X107833333Y-105454819D02*
X107738095Y-105407200D01*
X107738095Y-105407200D02*
X107690476Y-105359580D01*
X108642857Y-104454819D02*
X109261904Y-104454819D01*
X109261904Y-104454819D02*
X108928571Y-104835771D01*
X108928571Y-104835771D02*
X109071428Y-104835771D01*
X109071428Y-104835771D02*
X109166666Y-104883390D01*
X109166666Y-104883390D02*
X109214285Y-104931009D01*
X109214285Y-104931009D02*
X109261904Y-105026247D01*
X109261904Y-105026247D02*
X109261904Y-105264342D01*
X109261904Y-105264342D02*
X109214285Y-105359580D01*
X109214285Y-105359580D02*
X109166666Y-105407200D01*
X109166666Y-105407200D02*
X109071428Y-105454819D01*
X109071428Y-105454819D02*
X108785714Y-105454819D01*
X108785714Y-105454819D02*
X108690476Y-105407200D01*
X108690476Y-105407200D02*
X108642857Y-105359580D01*
X125634819Y-144758458D02*
X125634819Y-144139411D01*
X125634819Y-144139411D02*
X126015771Y-144472744D01*
X126015771Y-144472744D02*
X126015771Y-144329887D01*
X126015771Y-144329887D02*
X126063390Y-144234649D01*
X126063390Y-144234649D02*
X126111009Y-144187030D01*
X126111009Y-144187030D02*
X126206247Y-144139411D01*
X126206247Y-144139411D02*
X126444342Y-144139411D01*
X126444342Y-144139411D02*
X126539580Y-144187030D01*
X126539580Y-144187030D02*
X126587200Y-144234649D01*
X126587200Y-144234649D02*
X126634819Y-144329887D01*
X126634819Y-144329887D02*
X126634819Y-144615601D01*
X126634819Y-144615601D02*
X126587200Y-144710839D01*
X126587200Y-144710839D02*
X126539580Y-144758458D01*
X126539580Y-143710839D02*
X126587200Y-143663220D01*
X126587200Y-143663220D02*
X126634819Y-143710839D01*
X126634819Y-143710839D02*
X126587200Y-143758458D01*
X126587200Y-143758458D02*
X126539580Y-143710839D01*
X126539580Y-143710839D02*
X126634819Y-143710839D01*
X125634819Y-143329887D02*
X125634819Y-142710840D01*
X125634819Y-142710840D02*
X126015771Y-143044173D01*
X126015771Y-143044173D02*
X126015771Y-142901316D01*
X126015771Y-142901316D02*
X126063390Y-142806078D01*
X126063390Y-142806078D02*
X126111009Y-142758459D01*
X126111009Y-142758459D02*
X126206247Y-142710840D01*
X126206247Y-142710840D02*
X126444342Y-142710840D01*
X126444342Y-142710840D02*
X126539580Y-142758459D01*
X126539580Y-142758459D02*
X126587200Y-142806078D01*
X126587200Y-142806078D02*
X126634819Y-142901316D01*
X126634819Y-142901316D02*
X126634819Y-143187030D01*
X126634819Y-143187030D02*
X126587200Y-143282268D01*
X126587200Y-143282268D02*
X126539580Y-143329887D01*
X125634819Y-142425125D02*
X126634819Y-142091792D01*
X126634819Y-142091792D02*
X125634819Y-141758459D01*
X134159580Y-143991792D02*
X134207200Y-144039411D01*
X134207200Y-144039411D02*
X134254819Y-144182268D01*
X134254819Y-144182268D02*
X134254819Y-144277506D01*
X134254819Y-144277506D02*
X134207200Y-144420363D01*
X134207200Y-144420363D02*
X134111961Y-144515601D01*
X134111961Y-144515601D02*
X134016723Y-144563220D01*
X134016723Y-144563220D02*
X133826247Y-144610839D01*
X133826247Y-144610839D02*
X133683390Y-144610839D01*
X133683390Y-144610839D02*
X133492914Y-144563220D01*
X133492914Y-144563220D02*
X133397676Y-144515601D01*
X133397676Y-144515601D02*
X133302438Y-144420363D01*
X133302438Y-144420363D02*
X133254819Y-144277506D01*
X133254819Y-144277506D02*
X133254819Y-144182268D01*
X133254819Y-144182268D02*
X133302438Y-144039411D01*
X133302438Y-144039411D02*
X133350057Y-143991792D01*
X134254819Y-143087030D02*
X134254819Y-143563220D01*
X134254819Y-143563220D02*
X133254819Y-143563220D01*
X134254819Y-142753696D02*
X133254819Y-142753696D01*
X134254819Y-142182268D02*
X133683390Y-142610839D01*
X133254819Y-142182268D02*
X133826247Y-142753696D01*
X128222438Y-144039411D02*
X128174819Y-144134649D01*
X128174819Y-144134649D02*
X128174819Y-144277506D01*
X128174819Y-144277506D02*
X128222438Y-144420363D01*
X128222438Y-144420363D02*
X128317676Y-144515601D01*
X128317676Y-144515601D02*
X128412914Y-144563220D01*
X128412914Y-144563220D02*
X128603390Y-144610839D01*
X128603390Y-144610839D02*
X128746247Y-144610839D01*
X128746247Y-144610839D02*
X128936723Y-144563220D01*
X128936723Y-144563220D02*
X129031961Y-144515601D01*
X129031961Y-144515601D02*
X129127200Y-144420363D01*
X129127200Y-144420363D02*
X129174819Y-144277506D01*
X129174819Y-144277506D02*
X129174819Y-144182268D01*
X129174819Y-144182268D02*
X129127200Y-144039411D01*
X129127200Y-144039411D02*
X129079580Y-143991792D01*
X129079580Y-143991792D02*
X128746247Y-143991792D01*
X128746247Y-143991792D02*
X128746247Y-144182268D01*
X129174819Y-143563220D02*
X128174819Y-143563220D01*
X128174819Y-143563220D02*
X129174819Y-142991792D01*
X129174819Y-142991792D02*
X128174819Y-142991792D01*
X129174819Y-142515601D02*
X128174819Y-142515601D01*
X128174819Y-142515601D02*
X128174819Y-142277506D01*
X128174819Y-142277506D02*
X128222438Y-142134649D01*
X128222438Y-142134649D02*
X128317676Y-142039411D01*
X128317676Y-142039411D02*
X128412914Y-141991792D01*
X128412914Y-141991792D02*
X128603390Y-141944173D01*
X128603390Y-141944173D02*
X128746247Y-141944173D01*
X128746247Y-141944173D02*
X128936723Y-141991792D01*
X128936723Y-141991792D02*
X129031961Y-142039411D01*
X129031961Y-142039411D02*
X129127200Y-142134649D01*
X129127200Y-142134649D02*
X129174819Y-142277506D01*
X129174819Y-142277506D02*
X129174819Y-142515601D01*
X131714819Y-144563220D02*
X130714819Y-144563220D01*
X130714819Y-143896554D02*
X130714819Y-143706078D01*
X130714819Y-143706078D02*
X130762438Y-143610840D01*
X130762438Y-143610840D02*
X130857676Y-143515602D01*
X130857676Y-143515602D02*
X131048152Y-143467983D01*
X131048152Y-143467983D02*
X131381485Y-143467983D01*
X131381485Y-143467983D02*
X131571961Y-143515602D01*
X131571961Y-143515602D02*
X131667200Y-143610840D01*
X131667200Y-143610840D02*
X131714819Y-143706078D01*
X131714819Y-143706078D02*
X131714819Y-143896554D01*
X131714819Y-143896554D02*
X131667200Y-143991792D01*
X131667200Y-143991792D02*
X131571961Y-144087030D01*
X131571961Y-144087030D02*
X131381485Y-144134649D01*
X131381485Y-144134649D02*
X131048152Y-144134649D01*
X131048152Y-144134649D02*
X130857676Y-144087030D01*
X130857676Y-144087030D02*
X130762438Y-143991792D01*
X130762438Y-143991792D02*
X130714819Y-143896554D01*
X140804761Y-143250057D02*
X140709523Y-143202438D01*
X140709523Y-143202438D02*
X140614285Y-143107200D01*
X140614285Y-143107200D02*
X140471428Y-142964342D01*
X140471428Y-142964342D02*
X140376190Y-142916723D01*
X140376190Y-142916723D02*
X140280952Y-142916723D01*
X140328571Y-143154819D02*
X140233333Y-143107200D01*
X140233333Y-143107200D02*
X140138095Y-143011961D01*
X140138095Y-143011961D02*
X140090476Y-142821485D01*
X140090476Y-142821485D02*
X140090476Y-142488152D01*
X140090476Y-142488152D02*
X140138095Y-142297676D01*
X140138095Y-142297676D02*
X140233333Y-142202438D01*
X140233333Y-142202438D02*
X140328571Y-142154819D01*
X140328571Y-142154819D02*
X140519047Y-142154819D01*
X140519047Y-142154819D02*
X140614285Y-142202438D01*
X140614285Y-142202438D02*
X140709523Y-142297676D01*
X140709523Y-142297676D02*
X140757142Y-142488152D01*
X140757142Y-142488152D02*
X140757142Y-142821485D01*
X140757142Y-142821485D02*
X140709523Y-143011961D01*
X140709523Y-143011961D02*
X140614285Y-143107200D01*
X140614285Y-143107200D02*
X140519047Y-143154819D01*
X140519047Y-143154819D02*
X140328571Y-143154819D01*
X141138095Y-142250057D02*
X141185714Y-142202438D01*
X141185714Y-142202438D02*
X141280952Y-142154819D01*
X141280952Y-142154819D02*
X141519047Y-142154819D01*
X141519047Y-142154819D02*
X141614285Y-142202438D01*
X141614285Y-142202438D02*
X141661904Y-142250057D01*
X141661904Y-142250057D02*
X141709523Y-142345295D01*
X141709523Y-142345295D02*
X141709523Y-142440533D01*
X141709523Y-142440533D02*
X141661904Y-142583390D01*
X141661904Y-142583390D02*
X141090476Y-143154819D01*
X141090476Y-143154819D02*
X141709523Y-143154819D01*
X107357142Y-107054819D02*
X107023809Y-106578628D01*
X106785714Y-107054819D02*
X106785714Y-106054819D01*
X106785714Y-106054819D02*
X107166666Y-106054819D01*
X107166666Y-106054819D02*
X107261904Y-106102438D01*
X107261904Y-106102438D02*
X107309523Y-106150057D01*
X107309523Y-106150057D02*
X107357142Y-106245295D01*
X107357142Y-106245295D02*
X107357142Y-106388152D01*
X107357142Y-106388152D02*
X107309523Y-106483390D01*
X107309523Y-106483390D02*
X107261904Y-106531009D01*
X107261904Y-106531009D02*
X107166666Y-106578628D01*
X107166666Y-106578628D02*
X106785714Y-106578628D01*
X107738095Y-106150057D02*
X107785714Y-106102438D01*
X107785714Y-106102438D02*
X107880952Y-106054819D01*
X107880952Y-106054819D02*
X108119047Y-106054819D01*
X108119047Y-106054819D02*
X108214285Y-106102438D01*
X108214285Y-106102438D02*
X108261904Y-106150057D01*
X108261904Y-106150057D02*
X108309523Y-106245295D01*
X108309523Y-106245295D02*
X108309523Y-106340533D01*
X108309523Y-106340533D02*
X108261904Y-106483390D01*
X108261904Y-106483390D02*
X107690476Y-107054819D01*
X107690476Y-107054819D02*
X108309523Y-107054819D01*
X109214285Y-106054819D02*
X108738095Y-106054819D01*
X108738095Y-106054819D02*
X108690476Y-106531009D01*
X108690476Y-106531009D02*
X108738095Y-106483390D01*
X108738095Y-106483390D02*
X108833333Y-106435771D01*
X108833333Y-106435771D02*
X109071428Y-106435771D01*
X109071428Y-106435771D02*
X109166666Y-106483390D01*
X109166666Y-106483390D02*
X109214285Y-106531009D01*
X109214285Y-106531009D02*
X109261904Y-106626247D01*
X109261904Y-106626247D02*
X109261904Y-106864342D01*
X109261904Y-106864342D02*
X109214285Y-106959580D01*
X109214285Y-106959580D02*
X109166666Y-107007200D01*
X109166666Y-107007200D02*
X109071428Y-107054819D01*
X109071428Y-107054819D02*
X108833333Y-107054819D01*
X108833333Y-107054819D02*
X108738095Y-107007200D01*
X108738095Y-107007200D02*
X108690476Y-106959580D01*
X146059580Y-104266666D02*
X146107200Y-104314285D01*
X146107200Y-104314285D02*
X146154819Y-104457142D01*
X146154819Y-104457142D02*
X146154819Y-104552380D01*
X146154819Y-104552380D02*
X146107200Y-104695237D01*
X146107200Y-104695237D02*
X146011961Y-104790475D01*
X146011961Y-104790475D02*
X145916723Y-104838094D01*
X145916723Y-104838094D02*
X145726247Y-104885713D01*
X145726247Y-104885713D02*
X145583390Y-104885713D01*
X145583390Y-104885713D02*
X145392914Y-104838094D01*
X145392914Y-104838094D02*
X145297676Y-104790475D01*
X145297676Y-104790475D02*
X145202438Y-104695237D01*
X145202438Y-104695237D02*
X145154819Y-104552380D01*
X145154819Y-104552380D02*
X145154819Y-104457142D01*
X145154819Y-104457142D02*
X145202438Y-104314285D01*
X145202438Y-104314285D02*
X145250057Y-104266666D01*
X145154819Y-103933332D02*
X145154819Y-103266666D01*
X145154819Y-103266666D02*
X146154819Y-103695237D01*
X127859580Y-92742857D02*
X127907200Y-92790476D01*
X127907200Y-92790476D02*
X127954819Y-92933333D01*
X127954819Y-92933333D02*
X127954819Y-93028571D01*
X127954819Y-93028571D02*
X127907200Y-93171428D01*
X127907200Y-93171428D02*
X127811961Y-93266666D01*
X127811961Y-93266666D02*
X127716723Y-93314285D01*
X127716723Y-93314285D02*
X127526247Y-93361904D01*
X127526247Y-93361904D02*
X127383390Y-93361904D01*
X127383390Y-93361904D02*
X127192914Y-93314285D01*
X127192914Y-93314285D02*
X127097676Y-93266666D01*
X127097676Y-93266666D02*
X127002438Y-93171428D01*
X127002438Y-93171428D02*
X126954819Y-93028571D01*
X126954819Y-93028571D02*
X126954819Y-92933333D01*
X126954819Y-92933333D02*
X127002438Y-92790476D01*
X127002438Y-92790476D02*
X127050057Y-92742857D01*
X127954819Y-91790476D02*
X127954819Y-92361904D01*
X127954819Y-92076190D02*
X126954819Y-92076190D01*
X126954819Y-92076190D02*
X127097676Y-92171428D01*
X127097676Y-92171428D02*
X127192914Y-92266666D01*
X127192914Y-92266666D02*
X127240533Y-92361904D01*
X126954819Y-90933333D02*
X126954819Y-91123809D01*
X126954819Y-91123809D02*
X127002438Y-91219047D01*
X127002438Y-91219047D02*
X127050057Y-91266666D01*
X127050057Y-91266666D02*
X127192914Y-91361904D01*
X127192914Y-91361904D02*
X127383390Y-91409523D01*
X127383390Y-91409523D02*
X127764342Y-91409523D01*
X127764342Y-91409523D02*
X127859580Y-91361904D01*
X127859580Y-91361904D02*
X127907200Y-91314285D01*
X127907200Y-91314285D02*
X127954819Y-91219047D01*
X127954819Y-91219047D02*
X127954819Y-91028571D01*
X127954819Y-91028571D02*
X127907200Y-90933333D01*
X127907200Y-90933333D02*
X127859580Y-90885714D01*
X127859580Y-90885714D02*
X127764342Y-90838095D01*
X127764342Y-90838095D02*
X127526247Y-90838095D01*
X127526247Y-90838095D02*
X127431009Y-90885714D01*
X127431009Y-90885714D02*
X127383390Y-90933333D01*
X127383390Y-90933333D02*
X127335771Y-91028571D01*
X127335771Y-91028571D02*
X127335771Y-91219047D01*
X127335771Y-91219047D02*
X127383390Y-91314285D01*
X127383390Y-91314285D02*
X127431009Y-91361904D01*
X127431009Y-91361904D02*
X127526247Y-91409523D01*
X130957142Y-81054819D02*
X130623809Y-80578628D01*
X130385714Y-81054819D02*
X130385714Y-80054819D01*
X130385714Y-80054819D02*
X130766666Y-80054819D01*
X130766666Y-80054819D02*
X130861904Y-80102438D01*
X130861904Y-80102438D02*
X130909523Y-80150057D01*
X130909523Y-80150057D02*
X130957142Y-80245295D01*
X130957142Y-80245295D02*
X130957142Y-80388152D01*
X130957142Y-80388152D02*
X130909523Y-80483390D01*
X130909523Y-80483390D02*
X130861904Y-80531009D01*
X130861904Y-80531009D02*
X130766666Y-80578628D01*
X130766666Y-80578628D02*
X130385714Y-80578628D01*
X131909523Y-81054819D02*
X131338095Y-81054819D01*
X131623809Y-81054819D02*
X131623809Y-80054819D01*
X131623809Y-80054819D02*
X131528571Y-80197676D01*
X131528571Y-80197676D02*
X131433333Y-80292914D01*
X131433333Y-80292914D02*
X131338095Y-80340533D01*
X132290476Y-80150057D02*
X132338095Y-80102438D01*
X132338095Y-80102438D02*
X132433333Y-80054819D01*
X132433333Y-80054819D02*
X132671428Y-80054819D01*
X132671428Y-80054819D02*
X132766666Y-80102438D01*
X132766666Y-80102438D02*
X132814285Y-80150057D01*
X132814285Y-80150057D02*
X132861904Y-80245295D01*
X132861904Y-80245295D02*
X132861904Y-80340533D01*
X132861904Y-80340533D02*
X132814285Y-80483390D01*
X132814285Y-80483390D02*
X132242857Y-81054819D01*
X132242857Y-81054819D02*
X132861904Y-81054819D01*
X127833333Y-76254819D02*
X127500000Y-75778628D01*
X127261905Y-76254819D02*
X127261905Y-75254819D01*
X127261905Y-75254819D02*
X127642857Y-75254819D01*
X127642857Y-75254819D02*
X127738095Y-75302438D01*
X127738095Y-75302438D02*
X127785714Y-75350057D01*
X127785714Y-75350057D02*
X127833333Y-75445295D01*
X127833333Y-75445295D02*
X127833333Y-75588152D01*
X127833333Y-75588152D02*
X127785714Y-75683390D01*
X127785714Y-75683390D02*
X127738095Y-75731009D01*
X127738095Y-75731009D02*
X127642857Y-75778628D01*
X127642857Y-75778628D02*
X127261905Y-75778628D01*
X128404762Y-75683390D02*
X128309524Y-75635771D01*
X128309524Y-75635771D02*
X128261905Y-75588152D01*
X128261905Y-75588152D02*
X128214286Y-75492914D01*
X128214286Y-75492914D02*
X128214286Y-75445295D01*
X128214286Y-75445295D02*
X128261905Y-75350057D01*
X128261905Y-75350057D02*
X128309524Y-75302438D01*
X128309524Y-75302438D02*
X128404762Y-75254819D01*
X128404762Y-75254819D02*
X128595238Y-75254819D01*
X128595238Y-75254819D02*
X128690476Y-75302438D01*
X128690476Y-75302438D02*
X128738095Y-75350057D01*
X128738095Y-75350057D02*
X128785714Y-75445295D01*
X128785714Y-75445295D02*
X128785714Y-75492914D01*
X128785714Y-75492914D02*
X128738095Y-75588152D01*
X128738095Y-75588152D02*
X128690476Y-75635771D01*
X128690476Y-75635771D02*
X128595238Y-75683390D01*
X128595238Y-75683390D02*
X128404762Y-75683390D01*
X128404762Y-75683390D02*
X128309524Y-75731009D01*
X128309524Y-75731009D02*
X128261905Y-75778628D01*
X128261905Y-75778628D02*
X128214286Y-75873866D01*
X128214286Y-75873866D02*
X128214286Y-76064342D01*
X128214286Y-76064342D02*
X128261905Y-76159580D01*
X128261905Y-76159580D02*
X128309524Y-76207200D01*
X128309524Y-76207200D02*
X128404762Y-76254819D01*
X128404762Y-76254819D02*
X128595238Y-76254819D01*
X128595238Y-76254819D02*
X128690476Y-76207200D01*
X128690476Y-76207200D02*
X128738095Y-76159580D01*
X128738095Y-76159580D02*
X128785714Y-76064342D01*
X128785714Y-76064342D02*
X128785714Y-75873866D01*
X128785714Y-75873866D02*
X128738095Y-75778628D01*
X128738095Y-75778628D02*
X128690476Y-75731009D01*
X128690476Y-75731009D02*
X128595238Y-75683390D01*
X118333333Y-96459580D02*
X118285714Y-96507200D01*
X118285714Y-96507200D02*
X118142857Y-96554819D01*
X118142857Y-96554819D02*
X118047619Y-96554819D01*
X118047619Y-96554819D02*
X117904762Y-96507200D01*
X117904762Y-96507200D02*
X117809524Y-96411961D01*
X117809524Y-96411961D02*
X117761905Y-96316723D01*
X117761905Y-96316723D02*
X117714286Y-96126247D01*
X117714286Y-96126247D02*
X117714286Y-95983390D01*
X117714286Y-95983390D02*
X117761905Y-95792914D01*
X117761905Y-95792914D02*
X117809524Y-95697676D01*
X117809524Y-95697676D02*
X117904762Y-95602438D01*
X117904762Y-95602438D02*
X118047619Y-95554819D01*
X118047619Y-95554819D02*
X118142857Y-95554819D01*
X118142857Y-95554819D02*
X118285714Y-95602438D01*
X118285714Y-95602438D02*
X118333333Y-95650057D01*
X118904762Y-95983390D02*
X118809524Y-95935771D01*
X118809524Y-95935771D02*
X118761905Y-95888152D01*
X118761905Y-95888152D02*
X118714286Y-95792914D01*
X118714286Y-95792914D02*
X118714286Y-95745295D01*
X118714286Y-95745295D02*
X118761905Y-95650057D01*
X118761905Y-95650057D02*
X118809524Y-95602438D01*
X118809524Y-95602438D02*
X118904762Y-95554819D01*
X118904762Y-95554819D02*
X119095238Y-95554819D01*
X119095238Y-95554819D02*
X119190476Y-95602438D01*
X119190476Y-95602438D02*
X119238095Y-95650057D01*
X119238095Y-95650057D02*
X119285714Y-95745295D01*
X119285714Y-95745295D02*
X119285714Y-95792914D01*
X119285714Y-95792914D02*
X119238095Y-95888152D01*
X119238095Y-95888152D02*
X119190476Y-95935771D01*
X119190476Y-95935771D02*
X119095238Y-95983390D01*
X119095238Y-95983390D02*
X118904762Y-95983390D01*
X118904762Y-95983390D02*
X118809524Y-96031009D01*
X118809524Y-96031009D02*
X118761905Y-96078628D01*
X118761905Y-96078628D02*
X118714286Y-96173866D01*
X118714286Y-96173866D02*
X118714286Y-96364342D01*
X118714286Y-96364342D02*
X118761905Y-96459580D01*
X118761905Y-96459580D02*
X118809524Y-96507200D01*
X118809524Y-96507200D02*
X118904762Y-96554819D01*
X118904762Y-96554819D02*
X119095238Y-96554819D01*
X119095238Y-96554819D02*
X119190476Y-96507200D01*
X119190476Y-96507200D02*
X119238095Y-96459580D01*
X119238095Y-96459580D02*
X119285714Y-96364342D01*
X119285714Y-96364342D02*
X119285714Y-96173866D01*
X119285714Y-96173866D02*
X119238095Y-96078628D01*
X119238095Y-96078628D02*
X119190476Y-96031009D01*
X119190476Y-96031009D02*
X119095238Y-95983390D01*
X116833333Y-109559580D02*
X116785714Y-109607200D01*
X116785714Y-109607200D02*
X116642857Y-109654819D01*
X116642857Y-109654819D02*
X116547619Y-109654819D01*
X116547619Y-109654819D02*
X116404762Y-109607200D01*
X116404762Y-109607200D02*
X116309524Y-109511961D01*
X116309524Y-109511961D02*
X116261905Y-109416723D01*
X116261905Y-109416723D02*
X116214286Y-109226247D01*
X116214286Y-109226247D02*
X116214286Y-109083390D01*
X116214286Y-109083390D02*
X116261905Y-108892914D01*
X116261905Y-108892914D02*
X116309524Y-108797676D01*
X116309524Y-108797676D02*
X116404762Y-108702438D01*
X116404762Y-108702438D02*
X116547619Y-108654819D01*
X116547619Y-108654819D02*
X116642857Y-108654819D01*
X116642857Y-108654819D02*
X116785714Y-108702438D01*
X116785714Y-108702438D02*
X116833333Y-108750057D01*
X117785714Y-109654819D02*
X117214286Y-109654819D01*
X117500000Y-109654819D02*
X117500000Y-108654819D01*
X117500000Y-108654819D02*
X117404762Y-108797676D01*
X117404762Y-108797676D02*
X117309524Y-108892914D01*
X117309524Y-108892914D02*
X117214286Y-108940533D01*
X110033333Y-76254819D02*
X109700000Y-75778628D01*
X109461905Y-76254819D02*
X109461905Y-75254819D01*
X109461905Y-75254819D02*
X109842857Y-75254819D01*
X109842857Y-75254819D02*
X109938095Y-75302438D01*
X109938095Y-75302438D02*
X109985714Y-75350057D01*
X109985714Y-75350057D02*
X110033333Y-75445295D01*
X110033333Y-75445295D02*
X110033333Y-75588152D01*
X110033333Y-75588152D02*
X109985714Y-75683390D01*
X109985714Y-75683390D02*
X109938095Y-75731009D01*
X109938095Y-75731009D02*
X109842857Y-75778628D01*
X109842857Y-75778628D02*
X109461905Y-75778628D01*
X110890476Y-75254819D02*
X110700000Y-75254819D01*
X110700000Y-75254819D02*
X110604762Y-75302438D01*
X110604762Y-75302438D02*
X110557143Y-75350057D01*
X110557143Y-75350057D02*
X110461905Y-75492914D01*
X110461905Y-75492914D02*
X110414286Y-75683390D01*
X110414286Y-75683390D02*
X110414286Y-76064342D01*
X110414286Y-76064342D02*
X110461905Y-76159580D01*
X110461905Y-76159580D02*
X110509524Y-76207200D01*
X110509524Y-76207200D02*
X110604762Y-76254819D01*
X110604762Y-76254819D02*
X110795238Y-76254819D01*
X110795238Y-76254819D02*
X110890476Y-76207200D01*
X110890476Y-76207200D02*
X110938095Y-76159580D01*
X110938095Y-76159580D02*
X110985714Y-76064342D01*
X110985714Y-76064342D02*
X110985714Y-75826247D01*
X110985714Y-75826247D02*
X110938095Y-75731009D01*
X110938095Y-75731009D02*
X110890476Y-75683390D01*
X110890476Y-75683390D02*
X110795238Y-75635771D01*
X110795238Y-75635771D02*
X110604762Y-75635771D01*
X110604762Y-75635771D02*
X110509524Y-75683390D01*
X110509524Y-75683390D02*
X110461905Y-75731009D01*
X110461905Y-75731009D02*
X110414286Y-75826247D01*
X110033333Y-77854819D02*
X109700000Y-77378628D01*
X109461905Y-77854819D02*
X109461905Y-76854819D01*
X109461905Y-76854819D02*
X109842857Y-76854819D01*
X109842857Y-76854819D02*
X109938095Y-76902438D01*
X109938095Y-76902438D02*
X109985714Y-76950057D01*
X109985714Y-76950057D02*
X110033333Y-77045295D01*
X110033333Y-77045295D02*
X110033333Y-77188152D01*
X110033333Y-77188152D02*
X109985714Y-77283390D01*
X109985714Y-77283390D02*
X109938095Y-77331009D01*
X109938095Y-77331009D02*
X109842857Y-77378628D01*
X109842857Y-77378628D02*
X109461905Y-77378628D01*
X110414286Y-76950057D02*
X110461905Y-76902438D01*
X110461905Y-76902438D02*
X110557143Y-76854819D01*
X110557143Y-76854819D02*
X110795238Y-76854819D01*
X110795238Y-76854819D02*
X110890476Y-76902438D01*
X110890476Y-76902438D02*
X110938095Y-76950057D01*
X110938095Y-76950057D02*
X110985714Y-77045295D01*
X110985714Y-77045295D02*
X110985714Y-77140533D01*
X110985714Y-77140533D02*
X110938095Y-77283390D01*
X110938095Y-77283390D02*
X110366667Y-77854819D01*
X110366667Y-77854819D02*
X110985714Y-77854819D01*
X149557142Y-81054819D02*
X149223809Y-80578628D01*
X148985714Y-81054819D02*
X148985714Y-80054819D01*
X148985714Y-80054819D02*
X149366666Y-80054819D01*
X149366666Y-80054819D02*
X149461904Y-80102438D01*
X149461904Y-80102438D02*
X149509523Y-80150057D01*
X149509523Y-80150057D02*
X149557142Y-80245295D01*
X149557142Y-80245295D02*
X149557142Y-80388152D01*
X149557142Y-80388152D02*
X149509523Y-80483390D01*
X149509523Y-80483390D02*
X149461904Y-80531009D01*
X149461904Y-80531009D02*
X149366666Y-80578628D01*
X149366666Y-80578628D02*
X148985714Y-80578628D01*
X150509523Y-81054819D02*
X149938095Y-81054819D01*
X150223809Y-81054819D02*
X150223809Y-80054819D01*
X150223809Y-80054819D02*
X150128571Y-80197676D01*
X150128571Y-80197676D02*
X150033333Y-80292914D01*
X150033333Y-80292914D02*
X149938095Y-80340533D01*
X151128571Y-80054819D02*
X151223809Y-80054819D01*
X151223809Y-80054819D02*
X151319047Y-80102438D01*
X151319047Y-80102438D02*
X151366666Y-80150057D01*
X151366666Y-80150057D02*
X151414285Y-80245295D01*
X151414285Y-80245295D02*
X151461904Y-80435771D01*
X151461904Y-80435771D02*
X151461904Y-80673866D01*
X151461904Y-80673866D02*
X151414285Y-80864342D01*
X151414285Y-80864342D02*
X151366666Y-80959580D01*
X151366666Y-80959580D02*
X151319047Y-81007200D01*
X151319047Y-81007200D02*
X151223809Y-81054819D01*
X151223809Y-81054819D02*
X151128571Y-81054819D01*
X151128571Y-81054819D02*
X151033333Y-81007200D01*
X151033333Y-81007200D02*
X150985714Y-80959580D01*
X150985714Y-80959580D02*
X150938095Y-80864342D01*
X150938095Y-80864342D02*
X150890476Y-80673866D01*
X150890476Y-80673866D02*
X150890476Y-80435771D01*
X150890476Y-80435771D02*
X150938095Y-80245295D01*
X150938095Y-80245295D02*
X150985714Y-80150057D01*
X150985714Y-80150057D02*
X151033333Y-80102438D01*
X151033333Y-80102438D02*
X151128571Y-80054819D01*
X139859580Y-96466666D02*
X139907200Y-96514285D01*
X139907200Y-96514285D02*
X139954819Y-96657142D01*
X139954819Y-96657142D02*
X139954819Y-96752380D01*
X139954819Y-96752380D02*
X139907200Y-96895237D01*
X139907200Y-96895237D02*
X139811961Y-96990475D01*
X139811961Y-96990475D02*
X139716723Y-97038094D01*
X139716723Y-97038094D02*
X139526247Y-97085713D01*
X139526247Y-97085713D02*
X139383390Y-97085713D01*
X139383390Y-97085713D02*
X139192914Y-97038094D01*
X139192914Y-97038094D02*
X139097676Y-96990475D01*
X139097676Y-96990475D02*
X139002438Y-96895237D01*
X139002438Y-96895237D02*
X138954819Y-96752380D01*
X138954819Y-96752380D02*
X138954819Y-96657142D01*
X138954819Y-96657142D02*
X139002438Y-96514285D01*
X139002438Y-96514285D02*
X139050057Y-96466666D01*
X138954819Y-95561904D02*
X138954819Y-96038094D01*
X138954819Y-96038094D02*
X139431009Y-96085713D01*
X139431009Y-96085713D02*
X139383390Y-96038094D01*
X139383390Y-96038094D02*
X139335771Y-95942856D01*
X139335771Y-95942856D02*
X139335771Y-95704761D01*
X139335771Y-95704761D02*
X139383390Y-95609523D01*
X139383390Y-95609523D02*
X139431009Y-95561904D01*
X139431009Y-95561904D02*
X139526247Y-95514285D01*
X139526247Y-95514285D02*
X139764342Y-95514285D01*
X139764342Y-95514285D02*
X139859580Y-95561904D01*
X139859580Y-95561904D02*
X139907200Y-95609523D01*
X139907200Y-95609523D02*
X139954819Y-95704761D01*
X139954819Y-95704761D02*
X139954819Y-95942856D01*
X139954819Y-95942856D02*
X139907200Y-96038094D01*
X139907200Y-96038094D02*
X139859580Y-96085713D01*
X105338095Y-95602438D02*
X105242857Y-95554819D01*
X105242857Y-95554819D02*
X105100000Y-95554819D01*
X105100000Y-95554819D02*
X104957143Y-95602438D01*
X104957143Y-95602438D02*
X104861905Y-95697676D01*
X104861905Y-95697676D02*
X104814286Y-95792914D01*
X104814286Y-95792914D02*
X104766667Y-95983390D01*
X104766667Y-95983390D02*
X104766667Y-96126247D01*
X104766667Y-96126247D02*
X104814286Y-96316723D01*
X104814286Y-96316723D02*
X104861905Y-96411961D01*
X104861905Y-96411961D02*
X104957143Y-96507200D01*
X104957143Y-96507200D02*
X105100000Y-96554819D01*
X105100000Y-96554819D02*
X105195238Y-96554819D01*
X105195238Y-96554819D02*
X105338095Y-96507200D01*
X105338095Y-96507200D02*
X105385714Y-96459580D01*
X105385714Y-96459580D02*
X105385714Y-96126247D01*
X105385714Y-96126247D02*
X105195238Y-96126247D01*
X105814286Y-96554819D02*
X105814286Y-95554819D01*
X105814286Y-95554819D02*
X106385714Y-96554819D01*
X106385714Y-96554819D02*
X106385714Y-95554819D01*
X106861905Y-96554819D02*
X106861905Y-95554819D01*
X106861905Y-95554819D02*
X107100000Y-95554819D01*
X107100000Y-95554819D02*
X107242857Y-95602438D01*
X107242857Y-95602438D02*
X107338095Y-95697676D01*
X107338095Y-95697676D02*
X107385714Y-95792914D01*
X107385714Y-95792914D02*
X107433333Y-95983390D01*
X107433333Y-95983390D02*
X107433333Y-96126247D01*
X107433333Y-96126247D02*
X107385714Y-96316723D01*
X107385714Y-96316723D02*
X107338095Y-96411961D01*
X107338095Y-96411961D02*
X107242857Y-96507200D01*
X107242857Y-96507200D02*
X107100000Y-96554819D01*
X107100000Y-96554819D02*
X106861905Y-96554819D01*
X107357142Y-112054819D02*
X107023809Y-111578628D01*
X106785714Y-112054819D02*
X106785714Y-111054819D01*
X106785714Y-111054819D02*
X107166666Y-111054819D01*
X107166666Y-111054819D02*
X107261904Y-111102438D01*
X107261904Y-111102438D02*
X107309523Y-111150057D01*
X107309523Y-111150057D02*
X107357142Y-111245295D01*
X107357142Y-111245295D02*
X107357142Y-111388152D01*
X107357142Y-111388152D02*
X107309523Y-111483390D01*
X107309523Y-111483390D02*
X107261904Y-111531009D01*
X107261904Y-111531009D02*
X107166666Y-111578628D01*
X107166666Y-111578628D02*
X106785714Y-111578628D01*
X107738095Y-111150057D02*
X107785714Y-111102438D01*
X107785714Y-111102438D02*
X107880952Y-111054819D01*
X107880952Y-111054819D02*
X108119047Y-111054819D01*
X108119047Y-111054819D02*
X108214285Y-111102438D01*
X108214285Y-111102438D02*
X108261904Y-111150057D01*
X108261904Y-111150057D02*
X108309523Y-111245295D01*
X108309523Y-111245295D02*
X108309523Y-111340533D01*
X108309523Y-111340533D02*
X108261904Y-111483390D01*
X108261904Y-111483390D02*
X107690476Y-112054819D01*
X107690476Y-112054819D02*
X108309523Y-112054819D01*
X108880952Y-111483390D02*
X108785714Y-111435771D01*
X108785714Y-111435771D02*
X108738095Y-111388152D01*
X108738095Y-111388152D02*
X108690476Y-111292914D01*
X108690476Y-111292914D02*
X108690476Y-111245295D01*
X108690476Y-111245295D02*
X108738095Y-111150057D01*
X108738095Y-111150057D02*
X108785714Y-111102438D01*
X108785714Y-111102438D02*
X108880952Y-111054819D01*
X108880952Y-111054819D02*
X109071428Y-111054819D01*
X109071428Y-111054819D02*
X109166666Y-111102438D01*
X109166666Y-111102438D02*
X109214285Y-111150057D01*
X109214285Y-111150057D02*
X109261904Y-111245295D01*
X109261904Y-111245295D02*
X109261904Y-111292914D01*
X109261904Y-111292914D02*
X109214285Y-111388152D01*
X109214285Y-111388152D02*
X109166666Y-111435771D01*
X109166666Y-111435771D02*
X109071428Y-111483390D01*
X109071428Y-111483390D02*
X108880952Y-111483390D01*
X108880952Y-111483390D02*
X108785714Y-111531009D01*
X108785714Y-111531009D02*
X108738095Y-111578628D01*
X108738095Y-111578628D02*
X108690476Y-111673866D01*
X108690476Y-111673866D02*
X108690476Y-111864342D01*
X108690476Y-111864342D02*
X108738095Y-111959580D01*
X108738095Y-111959580D02*
X108785714Y-112007200D01*
X108785714Y-112007200D02*
X108880952Y-112054819D01*
X108880952Y-112054819D02*
X109071428Y-112054819D01*
X109071428Y-112054819D02*
X109166666Y-112007200D01*
X109166666Y-112007200D02*
X109214285Y-111959580D01*
X109214285Y-111959580D02*
X109261904Y-111864342D01*
X109261904Y-111864342D02*
X109261904Y-111673866D01*
X109261904Y-111673866D02*
X109214285Y-111578628D01*
X109214285Y-111578628D02*
X109166666Y-111531009D01*
X109166666Y-111531009D02*
X109071428Y-111483390D01*
X116833333Y-104859580D02*
X116785714Y-104907200D01*
X116785714Y-104907200D02*
X116642857Y-104954819D01*
X116642857Y-104954819D02*
X116547619Y-104954819D01*
X116547619Y-104954819D02*
X116404762Y-104907200D01*
X116404762Y-104907200D02*
X116309524Y-104811961D01*
X116309524Y-104811961D02*
X116261905Y-104716723D01*
X116261905Y-104716723D02*
X116214286Y-104526247D01*
X116214286Y-104526247D02*
X116214286Y-104383390D01*
X116214286Y-104383390D02*
X116261905Y-104192914D01*
X116261905Y-104192914D02*
X116309524Y-104097676D01*
X116309524Y-104097676D02*
X116404762Y-104002438D01*
X116404762Y-104002438D02*
X116547619Y-103954819D01*
X116547619Y-103954819D02*
X116642857Y-103954819D01*
X116642857Y-103954819D02*
X116785714Y-104002438D01*
X116785714Y-104002438D02*
X116833333Y-104050057D01*
X117309524Y-104954819D02*
X117500000Y-104954819D01*
X117500000Y-104954819D02*
X117595238Y-104907200D01*
X117595238Y-104907200D02*
X117642857Y-104859580D01*
X117642857Y-104859580D02*
X117738095Y-104716723D01*
X117738095Y-104716723D02*
X117785714Y-104526247D01*
X117785714Y-104526247D02*
X117785714Y-104145295D01*
X117785714Y-104145295D02*
X117738095Y-104050057D01*
X117738095Y-104050057D02*
X117690476Y-104002438D01*
X117690476Y-104002438D02*
X117595238Y-103954819D01*
X117595238Y-103954819D02*
X117404762Y-103954819D01*
X117404762Y-103954819D02*
X117309524Y-104002438D01*
X117309524Y-104002438D02*
X117261905Y-104050057D01*
X117261905Y-104050057D02*
X117214286Y-104145295D01*
X117214286Y-104145295D02*
X117214286Y-104383390D01*
X117214286Y-104383390D02*
X117261905Y-104478628D01*
X117261905Y-104478628D02*
X117309524Y-104526247D01*
X117309524Y-104526247D02*
X117404762Y-104573866D01*
X117404762Y-104573866D02*
X117595238Y-104573866D01*
X117595238Y-104573866D02*
X117690476Y-104526247D01*
X117690476Y-104526247D02*
X117738095Y-104478628D01*
X117738095Y-104478628D02*
X117785714Y-104383390D01*
X146089580Y-108066666D02*
X146137200Y-108114285D01*
X146137200Y-108114285D02*
X146184819Y-108257142D01*
X146184819Y-108257142D02*
X146184819Y-108352380D01*
X146184819Y-108352380D02*
X146137200Y-108495237D01*
X146137200Y-108495237D02*
X146041961Y-108590475D01*
X146041961Y-108590475D02*
X145946723Y-108638094D01*
X145946723Y-108638094D02*
X145756247Y-108685713D01*
X145756247Y-108685713D02*
X145613390Y-108685713D01*
X145613390Y-108685713D02*
X145422914Y-108638094D01*
X145422914Y-108638094D02*
X145327676Y-108590475D01*
X145327676Y-108590475D02*
X145232438Y-108495237D01*
X145232438Y-108495237D02*
X145184819Y-108352380D01*
X145184819Y-108352380D02*
X145184819Y-108257142D01*
X145184819Y-108257142D02*
X145232438Y-108114285D01*
X145232438Y-108114285D02*
X145280057Y-108066666D01*
X145184819Y-107209523D02*
X145184819Y-107399999D01*
X145184819Y-107399999D02*
X145232438Y-107495237D01*
X145232438Y-107495237D02*
X145280057Y-107542856D01*
X145280057Y-107542856D02*
X145422914Y-107638094D01*
X145422914Y-107638094D02*
X145613390Y-107685713D01*
X145613390Y-107685713D02*
X145994342Y-107685713D01*
X145994342Y-107685713D02*
X146089580Y-107638094D01*
X146089580Y-107638094D02*
X146137200Y-107590475D01*
X146137200Y-107590475D02*
X146184819Y-107495237D01*
X146184819Y-107495237D02*
X146184819Y-107304761D01*
X146184819Y-107304761D02*
X146137200Y-107209523D01*
X146137200Y-107209523D02*
X146089580Y-107161904D01*
X146089580Y-107161904D02*
X145994342Y-107114285D01*
X145994342Y-107114285D02*
X145756247Y-107114285D01*
X145756247Y-107114285D02*
X145661009Y-107161904D01*
X145661009Y-107161904D02*
X145613390Y-107209523D01*
X145613390Y-107209523D02*
X145565771Y-107304761D01*
X145565771Y-107304761D02*
X145565771Y-107495237D01*
X145565771Y-107495237D02*
X145613390Y-107590475D01*
X145613390Y-107590475D02*
X145661009Y-107638094D01*
X145661009Y-107638094D02*
X145756247Y-107685713D01*
D12*
%TO.C,R30*%
X110762742Y-114277500D02*
X111237258Y-114277500D01*
X110762742Y-115322500D02*
X111237258Y-115322500D01*
%TO.C,R34*%
X110762742Y-102877500D02*
X111237258Y-102877500D01*
X110762742Y-103922500D02*
X111237258Y-103922500D01*
%TO.C,Y1*%
X139350000Y-102650000D02*
X139350000Y-109200000D01*
X143250000Y-102650000D02*
X139350000Y-102650000D01*
X143250000Y-109200000D02*
X143250000Y-102650000D01*
%TO.C,C19*%
X134740580Y-78490000D02*
X134459420Y-78490000D01*
X134740580Y-79510000D02*
X134459420Y-79510000D01*
%TO.C,R26*%
X110762742Y-107677500D02*
X111237258Y-107677500D01*
X110762742Y-108722500D02*
X111237258Y-108722500D01*
%TO.C,R22*%
X148237258Y-115677500D02*
X147762742Y-115677500D01*
X148237258Y-116722500D02*
X147762742Y-116722500D01*
%TO.C,R16*%
X134837258Y-81677500D02*
X134362742Y-81677500D01*
X134837258Y-82722500D02*
X134362742Y-82722500D01*
%TO.C,Q1*%
X143440000Y-140000000D02*
X143440000Y-139350000D01*
X143440000Y-140000000D02*
X143440000Y-140650000D01*
X146560000Y-140000000D02*
X146560000Y-139350000D01*
X146560000Y-140000000D02*
X146560000Y-140650000D01*
X146840000Y-139077500D02*
X146510000Y-138837500D01*
X146840000Y-138597500D01*
X146840000Y-139077500D01*
G36*
X146840000Y-139077500D02*
G01*
X146510000Y-138837500D01*
X146840000Y-138597500D01*
X146840000Y-139077500D01*
G37*
%TO.C,C4*%
X129990000Y-94859420D02*
X129990000Y-95140580D01*
X131010000Y-94859420D02*
X131010000Y-95140580D01*
%TO.C,JP1*%
X146600000Y-98300000D02*
X146600000Y-97700000D01*
X147300000Y-97000000D02*
X148700000Y-97000000D01*
X148700000Y-99000000D02*
X147300000Y-99000000D01*
X149400000Y-97700000D02*
X149400000Y-98300000D01*
X146600000Y-97700000D02*
G75*
G02*
X147300000Y-97000000I700000J0D01*
G01*
X147300000Y-99000000D02*
G75*
G02*
X146600000Y-98300000I0J700000D01*
G01*
X148700000Y-97000000D02*
G75*
G02*
X149400000Y-97700000I1J-699999D01*
G01*
X149400000Y-98300000D02*
G75*
G02*
X148700000Y-99000000I-699999J-1D01*
G01*
%TO.C,C2*%
X131490000Y-94859420D02*
X131490000Y-95140580D01*
X132510000Y-94859420D02*
X132510000Y-95140580D01*
%TO.C,R32*%
X148237258Y-120477500D02*
X147762742Y-120477500D01*
X148237258Y-121522500D02*
X147762742Y-121522500D01*
%TO.C,R18*%
X145477500Y-135762742D02*
X145477500Y-136237258D01*
X146522500Y-135762742D02*
X146522500Y-136237258D01*
%TO.C,R14*%
X147437258Y-81677500D02*
X146962742Y-81677500D01*
X147437258Y-82722500D02*
X146962742Y-82722500D01*
%TO.C,U5*%
X131090000Y-63590000D02*
X131090000Y-64850000D01*
X131090000Y-70410000D02*
X131090000Y-69150000D01*
X134850000Y-63590000D02*
X131090000Y-63590000D01*
X134850000Y-70410000D02*
X131090000Y-70410000D01*
X136370000Y-70640000D02*
X135890000Y-70640000D01*
X136130000Y-70310000D01*
X136370000Y-70640000D01*
G36*
X136370000Y-70640000D02*
G01*
X135890000Y-70640000D01*
X136130000Y-70310000D01*
X136370000Y-70640000D01*
G37*
%TO.C,R13*%
X134362742Y-76877500D02*
X134837258Y-76877500D01*
X134362742Y-77922500D02*
X134837258Y-77922500D01*
%TO.C,R3*%
X112562742Y-79477500D02*
X113037258Y-79477500D01*
X112562742Y-80522500D02*
X113037258Y-80522500D01*
%TO.C,R17*%
X134837258Y-75277500D02*
X134362742Y-75277500D01*
X134837258Y-76322500D02*
X134362742Y-76322500D01*
%TO.C,U3*%
X119000000Y-74565000D02*
X117050000Y-74565000D01*
X119000000Y-74565000D02*
X120950000Y-74565000D01*
X119000000Y-83435000D02*
X117050000Y-83435000D01*
X119000000Y-83435000D02*
X120950000Y-83435000D01*
X121940000Y-83700000D02*
X121460000Y-83700000D01*
X121700000Y-83370000D01*
X121940000Y-83700000D01*
G36*
X121940000Y-83700000D02*
G01*
X121460000Y-83700000D01*
X121700000Y-83370000D01*
X121940000Y-83700000D01*
G37*
%TO.C,C13*%
X134490000Y-117240580D02*
X134490000Y-116959420D01*
X135510000Y-117240580D02*
X135510000Y-116959420D01*
%TO.C,J7*%
X155670000Y-87670000D02*
X157000000Y-87670000D01*
X155670000Y-89000000D02*
X155670000Y-87670000D01*
X155670000Y-90270000D02*
X155670000Y-92870000D01*
X155670000Y-90270000D02*
X158330000Y-90270000D01*
X155670000Y-92870000D02*
X158330000Y-92870000D01*
X158330000Y-90270000D02*
X158330000Y-92870000D01*
%TO.C,L1*%
X118440000Y-66589758D02*
X118440000Y-67410242D01*
X119560000Y-66589758D02*
X119560000Y-67410242D01*
%TO.C,R9*%
X125162742Y-81677500D02*
X125637258Y-81677500D01*
X125162742Y-82722500D02*
X125637258Y-82722500D01*
%TO.C,R5*%
X125637258Y-80077500D02*
X125162742Y-80077500D01*
X125637258Y-81122500D02*
X125162742Y-81122500D01*
%TO.C,C14*%
X139015000Y-67786252D02*
X139015000Y-66363748D01*
X140835000Y-67786252D02*
X140835000Y-66363748D01*
%TO.C,R15*%
X146962742Y-75277500D02*
X147437258Y-75277500D01*
X146962742Y-76322500D02*
X147437258Y-76322500D01*
D10*
%TO.C,J6*%
X116055000Y-51530000D02*
X143975000Y-51530000D01*
X116055000Y-60470000D02*
X116055000Y-51530000D01*
X117255000Y-52830000D02*
X142775000Y-52830000D01*
X117255000Y-59170000D02*
X117255000Y-52830000D01*
X127825000Y-59170000D02*
X117255000Y-59170000D01*
X127880000Y-60470000D02*
X127880000Y-59170000D01*
X132330000Y-59170000D02*
X132330000Y-60470000D01*
X142775000Y-52830000D02*
X142775000Y-59170000D01*
X142775000Y-59170000D02*
X132325000Y-59170000D01*
X143975000Y-51530000D02*
X143975000Y-60470000D01*
X143975000Y-60470000D02*
X116055000Y-60470000D01*
X119855000Y-61080000D02*
X116680000Y-61080000D01*
X116680000Y-50920000D01*
X119855000Y-50920000D01*
X119855000Y-61080000D01*
G36*
X119855000Y-61080000D02*
G01*
X116680000Y-61080000D01*
X116680000Y-50920000D01*
X119855000Y-50920000D01*
X119855000Y-61080000D01*
G37*
D12*
%TO.C,D2*%
X112000000Y-52640000D02*
X112000000Y-56650000D01*
X114000000Y-52640000D02*
X112000000Y-52640000D01*
X114000000Y-52640000D02*
X114000000Y-56650000D01*
%TO.C,R35*%
X110762742Y-101277500D02*
X111237258Y-101277500D01*
X110762742Y-102322500D02*
X111237258Y-102322500D01*
%TO.C,R31*%
X110762742Y-115877500D02*
X111237258Y-115877500D01*
X110762742Y-116922500D02*
X111237258Y-116922500D01*
%TO.C,U1*%
X121890000Y-98890000D02*
X121890000Y-99590000D01*
X121890000Y-113110000D02*
X121890000Y-112410000D01*
X122590000Y-98890000D02*
X121890000Y-98890000D01*
X122590000Y-113110000D02*
X121890000Y-113110000D01*
X135410000Y-98890000D02*
X136110000Y-98890000D01*
X135410000Y-113110000D02*
X136110000Y-113110000D01*
X136110000Y-98890000D02*
X136110000Y-99590000D01*
X136110000Y-113110000D02*
X136110000Y-112410000D01*
X137077500Y-112880000D02*
X136397500Y-112880000D01*
X136737500Y-112410000D01*
X137077500Y-112880000D01*
G36*
X137077500Y-112880000D02*
G01*
X136397500Y-112880000D01*
X136737500Y-112410000D01*
X137077500Y-112880000D01*
G37*
%TO.C,R21*%
X148237258Y-117277500D02*
X147762742Y-117277500D01*
X148237258Y-118322500D02*
X147762742Y-118322500D01*
%TO.C,C15*%
X128490000Y-94859420D02*
X128490000Y-95140580D01*
X129510000Y-94859420D02*
X129510000Y-95140580D01*
%TO.C,C18*%
X125259420Y-78490000D02*
X125540580Y-78490000D01*
X125259420Y-79510000D02*
X125540580Y-79510000D01*
%TO.C,R36*%
X148237258Y-112477500D02*
X147762742Y-112477500D01*
X148237258Y-113522500D02*
X147762742Y-113522500D01*
%TO.C,R23*%
X148237258Y-114077500D02*
X147762742Y-114077500D01*
X148237258Y-115122500D02*
X147762742Y-115122500D01*
%TO.C,C11*%
X106740000Y-52740000D02*
X107940000Y-52740000D01*
X106740000Y-56195563D02*
X106740000Y-52740000D01*
X107190000Y-57750000D02*
X107690000Y-57750000D01*
X107440000Y-58000000D02*
X107440000Y-57500000D01*
X107804437Y-57260000D02*
X106740000Y-56195563D01*
X107804437Y-57260000D02*
X107940000Y-57260000D01*
X110195563Y-57260000D02*
X110060000Y-57260000D01*
X110195563Y-57260000D02*
X111260000Y-56195563D01*
X111260000Y-52740000D02*
X110060000Y-52740000D01*
X111260000Y-56195563D02*
X111260000Y-52740000D01*
%TO.C,R38*%
X139477500Y-136237258D02*
X139477500Y-135762742D01*
X140522500Y-136237258D02*
X140522500Y-135762742D01*
%TO.C,R37*%
X143477500Y-136237258D02*
X143477500Y-135762742D01*
X144522500Y-136237258D02*
X144522500Y-135762742D01*
%TO.C,C10*%
X148740000Y-52740000D02*
X149940000Y-52740000D01*
X148740000Y-56195563D02*
X148740000Y-52740000D01*
X149190000Y-57750000D02*
X149690000Y-57750000D01*
X149440000Y-58000000D02*
X149440000Y-57500000D01*
X149804437Y-57260000D02*
X148740000Y-56195563D01*
X149804437Y-57260000D02*
X149940000Y-57260000D01*
X152195563Y-57260000D02*
X152060000Y-57260000D01*
X152195563Y-57260000D02*
X153260000Y-56195563D01*
X153260000Y-52740000D02*
X152060000Y-52740000D01*
X153260000Y-56195563D02*
X153260000Y-52740000D01*
%TO.C,R29*%
X110762742Y-112677500D02*
X111237258Y-112677500D01*
X110762742Y-113722500D02*
X111237258Y-113722500D01*
%TO.C,R19*%
X141477500Y-135762742D02*
X141477500Y-136237258D01*
X142522500Y-135762742D02*
X142522500Y-136237258D01*
%TO.C,R4*%
X125637258Y-76877500D02*
X125162742Y-76877500D01*
X125637258Y-77922500D02*
X125162742Y-77922500D01*
%TO.C,R1*%
X131977500Y-117337258D02*
X131977500Y-116862742D01*
X133022500Y-117337258D02*
X133022500Y-116862742D01*
%TO.C,R11*%
X147437258Y-76877500D02*
X146962742Y-76877500D01*
X147437258Y-77922500D02*
X146962742Y-77922500D01*
%TO.C,D1*%
X146000000Y-57360000D02*
X146000000Y-53350000D01*
X146000000Y-57360000D02*
X148000000Y-57360000D01*
X148000000Y-57360000D02*
X148000000Y-53350000D01*
D13*
%TO.C,U2*%
X116300000Y-138500000D02*
X117700000Y-138500000D01*
X117700000Y-141500000D02*
X116300000Y-141500000D01*
D11*
X115900000Y-138300000D02*
G75*
G02*
X115700000Y-138300000I-100000J0D01*
G01*
X115700000Y-138300000D02*
G75*
G02*
X115900000Y-138300000I100000J0D01*
G01*
D12*
%TO.C,C12*%
X118990000Y-114340580D02*
X118990000Y-114059420D01*
X120010000Y-114340580D02*
X120010000Y-114059420D01*
%TO.C,C3*%
X140440580Y-110190000D02*
X140159420Y-110190000D01*
X140440580Y-111210000D02*
X140159420Y-111210000D01*
%TO.C,R24*%
X148237258Y-122077500D02*
X147762742Y-122077500D01*
X148237258Y-123122500D02*
X147762742Y-123122500D01*
%TO.C,R27*%
X110762742Y-109277500D02*
X111237258Y-109277500D01*
X110762742Y-110322500D02*
X111237258Y-110322500D01*
%TO.C,C17*%
X120740000Y-64740000D02*
X121940000Y-64740000D01*
X120740000Y-68195563D02*
X120740000Y-64740000D01*
X121190000Y-69750000D02*
X121690000Y-69750000D01*
X121440000Y-70000000D02*
X121440000Y-69500000D01*
X121804437Y-69260000D02*
X120740000Y-68195563D01*
X121804437Y-69260000D02*
X121940000Y-69260000D01*
X124195563Y-69260000D02*
X124060000Y-69260000D01*
X124195563Y-69260000D02*
X125260000Y-68195563D01*
X125260000Y-64740000D02*
X124060000Y-64740000D01*
X125260000Y-68195563D02*
X125260000Y-64740000D01*
%TO.C,J8*%
X112650000Y-143620000D02*
X121350000Y-143620000D01*
X112650000Y-150030000D02*
X112650000Y-143620000D01*
X112650000Y-150030000D02*
X121350000Y-150030000D01*
X121350000Y-143620000D02*
X121350000Y-150030000D01*
X121350000Y-148800000D02*
X112650000Y-148800000D01*
%TO.C,R20*%
X148237258Y-118877500D02*
X147762742Y-118877500D01*
X148237258Y-119922500D02*
X147762742Y-119922500D01*
%TO.C,U4*%
X141000000Y-74565000D02*
X139050000Y-74565000D01*
X141000000Y-74565000D02*
X142950000Y-74565000D01*
X141000000Y-83435000D02*
X139050000Y-83435000D01*
X141000000Y-83435000D02*
X142950000Y-83435000D01*
X138300000Y-74630000D02*
X138060000Y-74300000D01*
X138540000Y-74300000D01*
X138300000Y-74630000D01*
G36*
X138300000Y-74630000D02*
G01*
X138060000Y-74300000D01*
X138540000Y-74300000D01*
X138300000Y-74630000D01*
G37*
%TO.C,R7*%
X113037258Y-81077500D02*
X112562742Y-81077500D01*
X113037258Y-82122500D02*
X112562742Y-82122500D01*
%TO.C,R33*%
X110762742Y-104477500D02*
X111237258Y-104477500D01*
X110762742Y-105522500D02*
X111237258Y-105522500D01*
D10*
%TO.C,J5*%
X124920000Y-145730000D02*
X124920000Y-148270000D01*
X124920000Y-148270000D02*
X135080000Y-148270000D01*
X135080000Y-145730000D02*
X124920000Y-145730000D01*
X135080000Y-148270000D02*
X135080000Y-145730000D01*
D12*
%TO.C,Q2*%
X139440000Y-140000000D02*
X139440000Y-139350000D01*
X139440000Y-140000000D02*
X139440000Y-140650000D01*
X142560000Y-140000000D02*
X142560000Y-139350000D01*
X142560000Y-140000000D02*
X142560000Y-140650000D01*
X142840000Y-139077500D02*
X142510000Y-138837500D01*
X142840000Y-138597500D01*
X142840000Y-139077500D01*
G36*
X142840000Y-139077500D02*
G01*
X142510000Y-138837500D01*
X142840000Y-138597500D01*
X142840000Y-139077500D01*
G37*
%TO.C,R25*%
X110762742Y-106077500D02*
X111237258Y-106077500D01*
X110762742Y-107122500D02*
X111237258Y-107122500D01*
%TO.C,C7*%
X143790000Y-104240580D02*
X143790000Y-103959420D01*
X144810000Y-104240580D02*
X144810000Y-103959420D01*
%TO.C,C16*%
X126990000Y-94859420D02*
X126990000Y-95140580D01*
X128010000Y-94859420D02*
X128010000Y-95140580D01*
%TO.C,R12*%
X134362742Y-80077500D02*
X134837258Y-80077500D01*
X134362742Y-81122500D02*
X134837258Y-81122500D01*
%TO.C,R8*%
X125162742Y-75277500D02*
X125637258Y-75277500D01*
X125162742Y-76322500D02*
X125637258Y-76322500D01*
%TO.C,C8*%
X121259420Y-95590000D02*
X121540580Y-95590000D01*
X121259420Y-96610000D02*
X121540580Y-96610000D01*
%TO.C,C1*%
X116859420Y-107090000D02*
X117140580Y-107090000D01*
X116859420Y-108110000D02*
X117140580Y-108110000D01*
%TO.C,R6*%
X113037258Y-75277500D02*
X112562742Y-75277500D01*
X113037258Y-76322500D02*
X112562742Y-76322500D01*
%TO.C,R2*%
X112562742Y-76877500D02*
X113037258Y-76877500D01*
X112562742Y-77922500D02*
X113037258Y-77922500D01*
%TO.C,R10*%
X146962742Y-80077500D02*
X147437258Y-80077500D01*
X146962742Y-81122500D02*
X147437258Y-81122500D01*
%TO.C,C5*%
X138990000Y-98659420D02*
X138990000Y-98940580D01*
X140010000Y-98659420D02*
X140010000Y-98940580D01*
%TO.C,R28*%
X110762742Y-111077500D02*
X111237258Y-111077500D01*
X110762742Y-112122500D02*
X111237258Y-112122500D01*
%TO.C,C9*%
X116859420Y-105490000D02*
X117140580Y-105490000D01*
X116859420Y-106510000D02*
X117140580Y-106510000D01*
%TO.C,C6*%
X143790000Y-107759420D02*
X143790000Y-108040580D01*
X144810000Y-107759420D02*
X144810000Y-108040580D01*
%TD*%
M02*
