%TF.GenerationSoftware,KiCad,Pcbnew,8.0.3*%
%TF.CreationDate,2024-06-18T16:11:43+01:00*%
%TF.ProjectId,Sinosaur_Components,53696e6f-7361-4757-925f-436f6d706f6e,rev?*%
%TF.SameCoordinates,Original*%
%TF.FileFunction,Copper,L3,Inr*%
%TF.FilePolarity,Positive*%
%FSLAX46Y46*%
G04 Gerber Fmt 4.6, Leading zero omitted, Abs format (unit mm)*
G04 Created by KiCad (PCBNEW 8.0.3) date 2024-06-18 16:11:43*
%MOMM*%
%LPD*%
G01*
G04 APERTURE LIST*
%TA.AperFunction,ComponentPad*%
%ADD10C,1.700000*%
%TD*%
%TA.AperFunction,ComponentPad*%
%ADD11R,1.700000X1.700000*%
%TD*%
%TA.AperFunction,ComponentPad*%
%ADD12O,1.700000X1.700000*%
%TD*%
%TA.AperFunction,ComponentPad*%
%ADD13O,1.250000X0.950000*%
%TD*%
%TA.AperFunction,ComponentPad*%
%ADD14O,1.000000X1.550000*%
%TD*%
%TA.AperFunction,ViaPad*%
%ADD15C,1.000000*%
%TD*%
%TA.AperFunction,ViaPad*%
%ADD16C,0.800000*%
%TD*%
%TA.AperFunction,Conductor*%
%ADD17C,0.500000*%
%TD*%
%TA.AperFunction,Conductor*%
%ADD18C,0.400000*%
%TD*%
G04 APERTURE END LIST*
D10*
%TO.N,GND*%
%TO.C,TP4*%
X157000000Y-99600000D03*
%TD*%
%TO.N,GND*%
%TO.C,TP5*%
X143000000Y-146500000D03*
%TD*%
%TO.N,-12V*%
%TO.C,TP2*%
X111200000Y-62200000D03*
%TD*%
%TO.N,+3.3V*%
%TO.C,TP3*%
X150400000Y-62100000D03*
%TD*%
D11*
%TO.N,/USART1_TX*%
%TO.C,J7*%
X157000000Y-89000000D03*
D12*
%TO.N,/USART1_RX*%
X157000000Y-91540000D03*
%TD*%
D11*
%TO.N,/-12V_IN*%
%TO.C,J6*%
X121125000Y-57270000D03*
D10*
X121125000Y-54730000D03*
%TO.N,GND*%
X123665000Y-57270000D03*
X123665000Y-54730000D03*
X126205000Y-57270000D03*
X126205000Y-54730000D03*
X128745000Y-57270000D03*
X128745000Y-54730000D03*
%TO.N,/+12V_IN*%
X131285000Y-57270000D03*
X131285000Y-54730000D03*
%TO.N,unconnected-(J6-Pad11)*%
X133825000Y-57270000D03*
%TO.N,unconnected-(J6-Pin_12-Pad12)*%
X133825000Y-54730000D03*
%TO.N,unconnected-(J6-Pin_13-Pad13)*%
X136365000Y-57270000D03*
%TO.N,unconnected-(J6-Pin_14-Pad14)*%
X136365000Y-54730000D03*
%TO.N,/Gate_Normal*%
X138905000Y-57270000D03*
X138905000Y-54730000D03*
%TD*%
%TO.N,+12V*%
%TO.C,TP1*%
X146600000Y-62100000D03*
%TD*%
D13*
%TO.N,*%
%TO.C,J8*%
X114500000Y-144650000D03*
X119500000Y-144650000D03*
D14*
X120500000Y-147350000D03*
%TO.N,unconnected-(J8-Shield-Pad6)*%
X113500000Y-147350000D03*
%TD*%
D11*
%TO.N,+3.3V*%
%TO.C,J5*%
X126190000Y-147000000D03*
D10*
%TO.N,GND*%
X128730000Y-147000000D03*
%TO.N,/SWIO*%
X131270000Y-147000000D03*
%TO.N,/SWCLK*%
X133810000Y-147000000D03*
%TD*%
%TO.N,GND*%
%TO.C,TP6*%
X106100000Y-93800000D03*
%TD*%
D11*
%TO.N,GND*%
%TO.C,J1*%
X102000000Y-53000000D03*
D12*
%TO.N,/FM3_Out*%
X102000000Y-55540000D03*
%TO.N,/FM2_Out*%
X102000000Y-58080000D03*
%TO.N,/Ramp_Out*%
X102000000Y-60620000D03*
%TO.N,/Swell_Out*%
X102000000Y-63160000D03*
%TO.N,/Sine1_Level*%
X102000000Y-65700000D03*
%TO.N,/Sine2_Level*%
X102000000Y-68240000D03*
%TO.N,/Swell_Level*%
X102000000Y-70780000D03*
%TO.N,/Ramp_Rate*%
X102000000Y-73320000D03*
%TO.N,GND*%
X102000000Y-75860000D03*
%TO.N,/Ramp_Level*%
X102000000Y-78400000D03*
%TO.N,/Sine2_Swell_Rate_LED*%
X102000000Y-80940000D03*
%TD*%
D11*
%TO.N,/Sine3_Swell_Rate_LED*%
%TO.C,J4*%
X158000000Y-109000000D03*
D12*
%TO.N,/Sine2_LED*%
X158000000Y-111540000D03*
%TO.N,/Sine1_LED*%
X158000000Y-114080000D03*
%TO.N,/Swell_LED*%
X158000000Y-116620000D03*
%TO.N,/Ramp_LED*%
X158000000Y-119160000D03*
%TO.N,/Sine2_Ramp_Rate_LED*%
X158000000Y-121700000D03*
%TO.N,/Sine3_LED*%
X158000000Y-124240000D03*
%TO.N,GND*%
X158000000Y-126780000D03*
%TO.N,/Sine3_Rate_Btn*%
X158000000Y-129320000D03*
%TO.N,/Sine2_Rate_Btn*%
X158000000Y-131860000D03*
%TO.N,/Sine1_Rate_Btn*%
X158000000Y-134400000D03*
%TO.N,/Sine3_Lvl_Btn*%
X158000000Y-136940000D03*
%TO.N,/Sine2_Lvl_Btn*%
X158000000Y-139480000D03*
%TO.N,/Sine1_Lvl_Btn*%
X158000000Y-142020000D03*
%TO.N,/Gate_In*%
X158000000Y-144560000D03*
%TO.N,/Clock_In*%
X158000000Y-147100000D03*
%TD*%
D11*
%TO.N,/Gate_Normal*%
%TO.C,J2*%
X158000000Y-53000000D03*
D12*
%TO.N,+3.3V*%
X158000000Y-55540000D03*
%TO.N,GND*%
X158000000Y-58080000D03*
%TO.N,/Sine2_Out*%
X158000000Y-60620000D03*
%TO.N,/Sine3_Out*%
X158000000Y-63160000D03*
%TO.N,/Sine3_Level*%
X158000000Y-65700000D03*
%TO.N,/Sine1_Out*%
X158000000Y-68240000D03*
%TO.N,/Sine1_Inv_Out*%
X158000000Y-70780000D03*
%TO.N,+3.3VA*%
X158000000Y-73320000D03*
%TO.N,GND*%
X158000000Y-75860000D03*
%TO.N,/Sine1_Rate*%
X158000000Y-78400000D03*
%TO.N,/Sine3_Rate*%
X158000000Y-80940000D03*
%TD*%
D11*
%TO.N,/Sine1_Swell_Rate_LED*%
%TO.C,J3*%
X102000000Y-109000000D03*
D12*
%TO.N,/Swell_Rate*%
X102000000Y-111540000D03*
%TO.N,/Sine3_Ramp_Rate_LED*%
X102000000Y-114080000D03*
%TO.N,/Sine1_Ramp_Lvl_LED*%
X102000000Y-116620000D03*
%TO.N,/Sine2_Ramp_Lvl_LED*%
X102000000Y-119160000D03*
%TO.N,GND*%
X102000000Y-121700000D03*
%TO.N,/Sine3_Ramp_Lvl_LED*%
X102000000Y-124240000D03*
%TO.N,/Sine1_Swell_Lvl_LED*%
X102000000Y-126780000D03*
%TO.N,/Sine2_Swell_Lvl_LED*%
X102000000Y-129320000D03*
%TO.N,/Sine3_Swell_Lvl_LED*%
X102000000Y-131860000D03*
%TO.N,/Sine1_Ramp_Rate_LED*%
X102000000Y-134400000D03*
%TO.N,/Sine2_Rate*%
X102000000Y-136940000D03*
%TO.N,GND*%
X102000000Y-139480000D03*
X102000000Y-142020000D03*
X102000000Y-144560000D03*
X102000000Y-147100000D03*
%TD*%
D15*
%TO.N,GND*%
X118400000Y-142900000D03*
D16*
X151000000Y-51100000D03*
D15*
X128150000Y-92900000D03*
X131400000Y-92850000D03*
D16*
X110500000Y-56700000D03*
X129900000Y-140800000D03*
X123100000Y-109000000D03*
X136200000Y-71000000D03*
X131100000Y-124400000D03*
X129800000Y-74300000D03*
X129800000Y-81400000D03*
X110700000Y-78800000D03*
D15*
X142350000Y-110700000D03*
D16*
X124700000Y-65200000D03*
X154500000Y-143200000D03*
X126700000Y-108600000D03*
X134600000Y-108400000D03*
X118300000Y-146500000D03*
X144300000Y-106000000D03*
D15*
X135218108Y-100828347D03*
D16*
X121300000Y-65200000D03*
X145400000Y-113100000D03*
X117100000Y-124800000D03*
X125200000Y-84500000D03*
X129800000Y-77600000D03*
X111000000Y-118300000D03*
X132000000Y-138400000D03*
D15*
X130500000Y-99700000D03*
D16*
X123300000Y-89300000D03*
X119500000Y-139000000D03*
X140000000Y-64200000D03*
D15*
X124115101Y-100184899D03*
D16*
X150000000Y-98100000D03*
X142300000Y-101800000D03*
X113600000Y-127800000D03*
X126100000Y-100100000D03*
X104400000Y-103600000D03*
X139900000Y-140600000D03*
X123100000Y-105400000D03*
X127300000Y-78900000D03*
X142775000Y-97500000D03*
X128300000Y-101700000D03*
X123000000Y-63100000D03*
X144000000Y-140500000D03*
X153300000Y-110000000D03*
X125900000Y-111700000D03*
X149300000Y-53200000D03*
X109500000Y-58900000D03*
X141400000Y-120900000D03*
X152600000Y-84200000D03*
D15*
X138300000Y-98050000D03*
D16*
X152700000Y-53200000D03*
X110600000Y-126200000D03*
X137900000Y-84900000D03*
D15*
X135000000Y-119100000D03*
D16*
X145000000Y-80300000D03*
X132700000Y-78900000D03*
X149000000Y-78500000D03*
X104000000Y-63700000D03*
D15*
X118250000Y-114850000D03*
X133650000Y-111000000D03*
D16*
X138000000Y-69200000D03*
X141800000Y-65600000D03*
X137300000Y-92600000D03*
X124500000Y-115500000D03*
X143700000Y-84400000D03*
X116700000Y-69500000D03*
X155900000Y-69800000D03*
X116000000Y-89800000D03*
D15*
X115400000Y-106800000D03*
D16*
X116500000Y-120500000D03*
D15*
X132500000Y-119100000D03*
D16*
X155348959Y-55948959D03*
X116200000Y-96700000D03*
X121200000Y-120400000D03*
%TO.N,+3.3V*%
X133200000Y-69800000D03*
X130000000Y-71200000D03*
X128400000Y-69800000D03*
X131600000Y-64200000D03*
D15*
X121300000Y-70700000D03*
D16*
X130000000Y-62800000D03*
X131600000Y-71200000D03*
X131600000Y-69800000D03*
D15*
X136200000Y-135200000D03*
D16*
X130000000Y-69800000D03*
X131600000Y-68200000D03*
D15*
X140525000Y-98800000D03*
D16*
X128400000Y-62800000D03*
D15*
X120600000Y-113700000D03*
D16*
X133200000Y-62800000D03*
X133200000Y-64200000D03*
X133200000Y-65800000D03*
D15*
X118700000Y-106700000D03*
D16*
X128400000Y-71200000D03*
X130000000Y-64200000D03*
D15*
X121500000Y-97100000D03*
D16*
X133200000Y-68200000D03*
X131600000Y-62800000D03*
X128200000Y-68200000D03*
X128200000Y-65800000D03*
D15*
X140305830Y-111698886D03*
D16*
X133200000Y-71200000D03*
D15*
X136200000Y-116300000D03*
D16*
X131600000Y-65800000D03*
X128400000Y-64200000D03*
D15*
%TO.N,+3.3VA*%
X119000000Y-72300000D03*
X133004074Y-95204074D03*
X126515527Y-95018452D03*
%TO.N,+12V*%
X141450000Y-68550000D03*
X136700000Y-79800000D03*
X123300000Y-80000000D03*
%TO.N,-12V*%
X145100000Y-79000000D03*
X114800000Y-79000000D03*
D16*
%TO.N,/Sine2_Rate*%
X123400000Y-110700000D03*
%TO.N,/USART1_TX*%
X135000000Y-90500000D03*
%TO.N,/USART1_RX*%
X132800000Y-99900000D03*
%TO.N,/Swell_DAC*%
X117400000Y-112100000D03*
X117598736Y-84216189D03*
%TO.N,/Sine1_Rate*%
X128100000Y-100100000D03*
%TO.N,/Ramp_DAC*%
X119300000Y-100000000D03*
X118600000Y-85800004D03*
%TD*%
D17*
%TO.N,+3.3VA*%
X126397075Y-95100000D02*
X132700000Y-95100000D01*
D18*
X132700000Y-95100000D02*
X132703721Y-95103721D01*
%TD*%
%TA.AperFunction,Conductor*%
%TO.N,GND*%
G36*
X102254000Y-146669297D02*
G01*
X102192993Y-146634075D01*
X102065826Y-146600000D01*
X101934174Y-146600000D01*
X101807007Y-146634075D01*
X101746000Y-146669297D01*
X101746000Y-144990702D01*
X101807007Y-145025925D01*
X101934174Y-145060000D01*
X102065826Y-145060000D01*
X102192993Y-145025925D01*
X102254000Y-144990702D01*
X102254000Y-146669297D01*
G37*
%TD.AperFunction*%
%TA.AperFunction,Conductor*%
G36*
X102254000Y-144129297D02*
G01*
X102192993Y-144094075D01*
X102065826Y-144060000D01*
X101934174Y-144060000D01*
X101807007Y-144094075D01*
X101746000Y-144129297D01*
X101746000Y-142450702D01*
X101807007Y-142485925D01*
X101934174Y-142520000D01*
X102065826Y-142520000D01*
X102192993Y-142485925D01*
X102254000Y-142450702D01*
X102254000Y-144129297D01*
G37*
%TD.AperFunction*%
%TA.AperFunction,Conductor*%
G36*
X102254000Y-141589297D02*
G01*
X102192993Y-141554075D01*
X102065826Y-141520000D01*
X101934174Y-141520000D01*
X101807007Y-141554075D01*
X101746000Y-141589297D01*
X101746000Y-139910702D01*
X101807007Y-139945925D01*
X101934174Y-139980000D01*
X102065826Y-139980000D01*
X102192993Y-139945925D01*
X102254000Y-139910702D01*
X102254000Y-141589297D01*
G37*
%TD.AperFunction*%
%TA.AperFunction,Conductor*%
G36*
X123199075Y-54922993D02*
G01*
X123264901Y-55037007D01*
X123357993Y-55130099D01*
X123472007Y-55195925D01*
X123540051Y-55214157D01*
X122899310Y-55854898D01*
X122919697Y-55870766D01*
X122919705Y-55870771D01*
X122953731Y-55889185D01*
X123004122Y-55939197D01*
X123019475Y-56008514D01*
X122994915Y-56075127D01*
X122953735Y-56110811D01*
X122919705Y-56129227D01*
X122919693Y-56129235D01*
X122899311Y-56145099D01*
X122899310Y-56145100D01*
X123540052Y-56785842D01*
X123472007Y-56804075D01*
X123357993Y-56869901D01*
X123264901Y-56962993D01*
X123199075Y-57077007D01*
X123180842Y-57145052D01*
X122520405Y-56484615D01*
X122486379Y-56422303D01*
X122483500Y-56395520D01*
X122483500Y-56371367D01*
X122483499Y-56371350D01*
X122476990Y-56310803D01*
X122476988Y-56310795D01*
X122447924Y-56232875D01*
X122425889Y-56173796D01*
X122425888Y-56173794D01*
X122425887Y-56173792D01*
X122338261Y-56056738D01*
X122221207Y-55969112D01*
X122221203Y-55969110D01*
X122106192Y-55926213D01*
X122049356Y-55883667D01*
X122024546Y-55817146D01*
X122039638Y-55747772D01*
X122057525Y-55722820D01*
X122200714Y-55567277D01*
X122200724Y-55567265D01*
X122248678Y-55493866D01*
X122289816Y-55430898D01*
X122343819Y-55384810D01*
X122414167Y-55375235D01*
X122478524Y-55405212D01*
X122500782Y-55430899D01*
X122541920Y-55493866D01*
X122541921Y-55493866D01*
X123180841Y-54854946D01*
X123199075Y-54922993D01*
G37*
%TD.AperFunction*%
%TA.AperFunction,Conductor*%
G36*
X125739075Y-54922993D02*
G01*
X125804901Y-55037007D01*
X125897993Y-55130099D01*
X126012007Y-55195925D01*
X126080051Y-55214157D01*
X125439310Y-55854898D01*
X125459697Y-55870766D01*
X125459705Y-55870771D01*
X125493731Y-55889185D01*
X125544122Y-55939197D01*
X125559475Y-56008514D01*
X125534915Y-56075127D01*
X125493735Y-56110811D01*
X125459705Y-56129227D01*
X125459693Y-56129235D01*
X125439311Y-56145099D01*
X125439310Y-56145100D01*
X126080052Y-56785842D01*
X126012007Y-56804075D01*
X125897993Y-56869901D01*
X125804901Y-56962993D01*
X125739075Y-57077007D01*
X125720842Y-57145052D01*
X125081921Y-56506131D01*
X125081920Y-56506132D01*
X125040482Y-56569558D01*
X124986479Y-56615647D01*
X124916131Y-56625222D01*
X124851773Y-56595245D01*
X124829516Y-56569558D01*
X124788078Y-56506132D01*
X124149157Y-57145051D01*
X124130925Y-57077007D01*
X124065099Y-56962993D01*
X123972007Y-56869901D01*
X123857993Y-56804075D01*
X123789947Y-56785841D01*
X124430688Y-56145100D01*
X124430687Y-56145099D01*
X124410308Y-56129237D01*
X124410298Y-56129231D01*
X124376267Y-56110814D01*
X124325876Y-56060801D01*
X124310524Y-55991484D01*
X124335085Y-55924871D01*
X124376268Y-55889186D01*
X124410294Y-55870772D01*
X124410298Y-55870769D01*
X124430688Y-55854898D01*
X123789947Y-55214157D01*
X123857993Y-55195925D01*
X123972007Y-55130099D01*
X124065099Y-55037007D01*
X124130925Y-54922993D01*
X124149158Y-54854947D01*
X124788077Y-55493866D01*
X124788078Y-55493866D01*
X124829516Y-55430441D01*
X124883519Y-55384352D01*
X124953867Y-55374777D01*
X125018225Y-55404754D01*
X125040482Y-55430440D01*
X125081921Y-55493866D01*
X125720841Y-54854946D01*
X125739075Y-54922993D01*
G37*
%TD.AperFunction*%
%TA.AperFunction,Conductor*%
G36*
X128279075Y-54922993D02*
G01*
X128344901Y-55037007D01*
X128437993Y-55130099D01*
X128552007Y-55195925D01*
X128620051Y-55214157D01*
X127979310Y-55854898D01*
X127999697Y-55870766D01*
X127999705Y-55870771D01*
X128033731Y-55889185D01*
X128084122Y-55939197D01*
X128099475Y-56008514D01*
X128074915Y-56075127D01*
X128033735Y-56110811D01*
X127999705Y-56129227D01*
X127999693Y-56129235D01*
X127979311Y-56145099D01*
X127979310Y-56145100D01*
X128620052Y-56785842D01*
X128552007Y-56804075D01*
X128437993Y-56869901D01*
X128344901Y-56962993D01*
X128279075Y-57077007D01*
X128260842Y-57145052D01*
X127621921Y-56506131D01*
X127621920Y-56506132D01*
X127580482Y-56569558D01*
X127526479Y-56615647D01*
X127456131Y-56625222D01*
X127391773Y-56595245D01*
X127369516Y-56569558D01*
X127328078Y-56506132D01*
X126689157Y-57145051D01*
X126670925Y-57077007D01*
X126605099Y-56962993D01*
X126512007Y-56869901D01*
X126397993Y-56804075D01*
X126329947Y-56785841D01*
X126970688Y-56145100D01*
X126970687Y-56145099D01*
X126950308Y-56129237D01*
X126950298Y-56129231D01*
X126916267Y-56110814D01*
X126865876Y-56060801D01*
X126850524Y-55991484D01*
X126875085Y-55924871D01*
X126916268Y-55889186D01*
X126950294Y-55870772D01*
X126950298Y-55870769D01*
X126970688Y-55854898D01*
X126329947Y-55214157D01*
X126397993Y-55195925D01*
X126512007Y-55130099D01*
X126605099Y-55037007D01*
X126670925Y-54922993D01*
X126689158Y-54854947D01*
X127328077Y-55493866D01*
X127328078Y-55493866D01*
X127369516Y-55430441D01*
X127423519Y-55384352D01*
X127493867Y-55374777D01*
X127558225Y-55404754D01*
X127580482Y-55430440D01*
X127621921Y-55493866D01*
X128260841Y-54854946D01*
X128279075Y-54922993D01*
G37*
%TD.AperFunction*%
%TA.AperFunction,Conductor*%
G36*
X129868077Y-55493866D02*
G01*
X129868078Y-55493866D01*
X129909217Y-55430899D01*
X129963221Y-55384810D01*
X130033568Y-55375235D01*
X130097926Y-55405212D01*
X130120183Y-55430898D01*
X130209279Y-55567270D01*
X130361762Y-55732908D01*
X130402182Y-55764368D01*
X130539424Y-55871189D01*
X130572678Y-55889185D01*
X130572680Y-55889186D01*
X130623071Y-55939200D01*
X130638423Y-56008516D01*
X130613862Y-56075129D01*
X130572680Y-56110813D01*
X130539426Y-56128810D01*
X130539424Y-56128811D01*
X130361762Y-56267091D01*
X130209279Y-56432729D01*
X130120183Y-56569101D01*
X130066179Y-56615189D01*
X129995831Y-56624764D01*
X129931474Y-56594786D01*
X129909217Y-56569100D01*
X129868078Y-56506132D01*
X129229157Y-57145051D01*
X129210925Y-57077007D01*
X129145099Y-56962993D01*
X129052007Y-56869901D01*
X128937993Y-56804075D01*
X128869947Y-56785841D01*
X129510688Y-56145100D01*
X129510687Y-56145099D01*
X129490308Y-56129237D01*
X129490298Y-56129231D01*
X129456267Y-56110814D01*
X129405876Y-56060801D01*
X129390524Y-55991484D01*
X129415085Y-55924871D01*
X129456268Y-55889186D01*
X129490294Y-55870772D01*
X129490298Y-55870769D01*
X129510688Y-55854898D01*
X128869947Y-55214157D01*
X128937993Y-55195925D01*
X129052007Y-55130099D01*
X129145099Y-55037007D01*
X129210925Y-54922993D01*
X129229158Y-54854947D01*
X129868077Y-55493866D01*
G37*
%TD.AperFunction*%
%TA.AperFunction,Conductor*%
G36*
X159942121Y-50020002D02*
G01*
X159988614Y-50073658D01*
X160000000Y-50126000D01*
X160000000Y-149874000D01*
X159979998Y-149942121D01*
X159926342Y-149988614D01*
X159874000Y-150000000D01*
X100126000Y-150000000D01*
X100057879Y-149979998D01*
X100011386Y-149926342D01*
X100000000Y-149874000D01*
X100000000Y-111540000D01*
X100636844Y-111540000D01*
X100652459Y-111728445D01*
X100655437Y-111764375D01*
X100710702Y-111982612D01*
X100710703Y-111982613D01*
X100801141Y-112188793D01*
X100924275Y-112377265D01*
X100924279Y-112377270D01*
X101076762Y-112542908D01*
X101131331Y-112585381D01*
X101254424Y-112681189D01*
X101287680Y-112699186D01*
X101338071Y-112749200D01*
X101353423Y-112818516D01*
X101328862Y-112885129D01*
X101287680Y-112920813D01*
X101254426Y-112938810D01*
X101254424Y-112938811D01*
X101076762Y-113077091D01*
X100924279Y-113242729D01*
X100924275Y-113242734D01*
X100801141Y-113431206D01*
X100710703Y-113637386D01*
X100710702Y-113637387D01*
X100655437Y-113855624D01*
X100655436Y-113855630D01*
X100655436Y-113855632D01*
X100636844Y-114080000D01*
X100652008Y-114263004D01*
X100655437Y-114304375D01*
X100710702Y-114522612D01*
X100710703Y-114522613D01*
X100710704Y-114522616D01*
X100794380Y-114713380D01*
X100801141Y-114728793D01*
X100924275Y-114917265D01*
X100924279Y-114917270D01*
X101076762Y-115082908D01*
X101131331Y-115125381D01*
X101254424Y-115221189D01*
X101287680Y-115239186D01*
X101338071Y-115289200D01*
X101353423Y-115358516D01*
X101328862Y-115425129D01*
X101287680Y-115460813D01*
X101254426Y-115478810D01*
X101254424Y-115478811D01*
X101076762Y-115617091D01*
X100924279Y-115782729D01*
X100924275Y-115782734D01*
X100801141Y-115971206D01*
X100710703Y-116177386D01*
X100710702Y-116177387D01*
X100655437Y-116395624D01*
X100636844Y-116620000D01*
X100655437Y-116844375D01*
X100710702Y-117062612D01*
X100710703Y-117062613D01*
X100710704Y-117062616D01*
X100801140Y-117268791D01*
X100801141Y-117268793D01*
X100924275Y-117457265D01*
X100924279Y-117457270D01*
X101076762Y-117622908D01*
X101131331Y-117665381D01*
X101254424Y-117761189D01*
X101287680Y-117779186D01*
X101338071Y-117829200D01*
X101353423Y-117898516D01*
X101328862Y-117965129D01*
X101287680Y-118000813D01*
X101254426Y-118018810D01*
X101254424Y-118018811D01*
X101076762Y-118157091D01*
X100924279Y-118322729D01*
X100924275Y-118322734D01*
X100801141Y-118511206D01*
X100710703Y-118717386D01*
X100710702Y-118717387D01*
X100655437Y-118935624D01*
X100636844Y-119160000D01*
X100655437Y-119384375D01*
X100710702Y-119602612D01*
X100710703Y-119602613D01*
X100801141Y-119808793D01*
X100924275Y-119997265D01*
X100924279Y-119997270D01*
X101076762Y-120162908D01*
X101131331Y-120205381D01*
X101254424Y-120301189D01*
X101288205Y-120319470D01*
X101338596Y-120369482D01*
X101353949Y-120438799D01*
X101329389Y-120505412D01*
X101288209Y-120541096D01*
X101254704Y-120559228D01*
X101254698Y-120559232D01*
X101077097Y-120697465D01*
X100924674Y-120863041D01*
X100801580Y-121051451D01*
X100711179Y-121257543D01*
X100711176Y-121257550D01*
X100663455Y-121445999D01*
X100663456Y-121446000D01*
X101569297Y-121446000D01*
X101534075Y-121507007D01*
X101500000Y-121634174D01*
X101500000Y-121765826D01*
X101534075Y-121892993D01*
X101569297Y-121954000D01*
X100663455Y-121954000D01*
X100711176Y-122142449D01*
X100711179Y-122142456D01*
X100801580Y-122348548D01*
X100924674Y-122536958D01*
X101077097Y-122702534D01*
X101254698Y-122840767D01*
X101254704Y-122840771D01*
X101288207Y-122858902D01*
X101338597Y-122908915D01*
X101353949Y-122978232D01*
X101329388Y-123044845D01*
X101288207Y-123080528D01*
X101254430Y-123098807D01*
X101254424Y-123098811D01*
X101076762Y-123237091D01*
X100924279Y-123402729D01*
X100924275Y-123402734D01*
X100801141Y-123591206D01*
X100710703Y-123797386D01*
X100710702Y-123797387D01*
X100655437Y-124015624D01*
X100636844Y-124240000D01*
X100655437Y-124464375D01*
X100710702Y-124682612D01*
X100710703Y-124682613D01*
X100801141Y-124888793D01*
X100924275Y-125077265D01*
X100924279Y-125077270D01*
X101076762Y-125242908D01*
X101131331Y-125285381D01*
X101254424Y-125381189D01*
X101287680Y-125399186D01*
X101338071Y-125449200D01*
X101353423Y-125518516D01*
X101328862Y-125585129D01*
X101287680Y-125620813D01*
X101254426Y-125638810D01*
X101254424Y-125638811D01*
X101076762Y-125777091D01*
X100924279Y-125942729D01*
X100924275Y-125942734D01*
X100801141Y-126131206D01*
X100710703Y-126337386D01*
X100710702Y-126337387D01*
X100655437Y-126555624D01*
X100655436Y-126555630D01*
X100655436Y-126555632D01*
X100636844Y-126780000D01*
X100652836Y-126972993D01*
X100655437Y-127004375D01*
X100710702Y-127222612D01*
X100710703Y-127222613D01*
X100710704Y-127222616D01*
X100801140Y-127428791D01*
X100801141Y-127428793D01*
X100924275Y-127617265D01*
X100924279Y-127617270D01*
X101076762Y-127782908D01*
X101131331Y-127825381D01*
X101254424Y-127921189D01*
X101287153Y-127938901D01*
X101287680Y-127939186D01*
X101338071Y-127989200D01*
X101353423Y-128058516D01*
X101328862Y-128125129D01*
X101287680Y-128160813D01*
X101254426Y-128178810D01*
X101254424Y-128178811D01*
X101076762Y-128317091D01*
X100924279Y-128482729D01*
X100924275Y-128482734D01*
X100801141Y-128671206D01*
X100710703Y-128877386D01*
X100710702Y-128877387D01*
X100655437Y-129095624D01*
X100636844Y-129320000D01*
X100655437Y-129544375D01*
X100710702Y-129762612D01*
X100710703Y-129762613D01*
X100801141Y-129968793D01*
X100924275Y-130157265D01*
X100924279Y-130157270D01*
X101076762Y-130322908D01*
X101131331Y-130365381D01*
X101254424Y-130461189D01*
X101287680Y-130479186D01*
X101338071Y-130529200D01*
X101353423Y-130598516D01*
X101328862Y-130665129D01*
X101287680Y-130700813D01*
X101254426Y-130718810D01*
X101254424Y-130718811D01*
X101076762Y-130857091D01*
X100924279Y-131022729D01*
X100924275Y-131022734D01*
X100801141Y-131211206D01*
X100710703Y-131417386D01*
X100710702Y-131417387D01*
X100655437Y-131635624D01*
X100636844Y-131860000D01*
X100655437Y-132084375D01*
X100710702Y-132302612D01*
X100710703Y-132302613D01*
X100801141Y-132508793D01*
X100924275Y-132697265D01*
X100924279Y-132697270D01*
X101076762Y-132862908D01*
X101131331Y-132905381D01*
X101254424Y-133001189D01*
X101287680Y-133019186D01*
X101338071Y-133069200D01*
X101353423Y-133138516D01*
X101328862Y-133205129D01*
X101287680Y-133240813D01*
X101254426Y-133258810D01*
X101254424Y-133258811D01*
X101076762Y-133397091D01*
X100924279Y-133562729D01*
X100924275Y-133562734D01*
X100801141Y-133751206D01*
X100710703Y-133957386D01*
X100710702Y-133957387D01*
X100655437Y-134175624D01*
X100655436Y-134175630D01*
X100655436Y-134175632D01*
X100636844Y-134400000D01*
X100643757Y-134483432D01*
X100655437Y-134624375D01*
X100710702Y-134842612D01*
X100710703Y-134842613D01*
X100801141Y-135048793D01*
X100924275Y-135237265D01*
X100924279Y-135237270D01*
X101052539Y-135376596D01*
X101071968Y-135397701D01*
X101076762Y-135402908D01*
X101131331Y-135445381D01*
X101254424Y-135541189D01*
X101287680Y-135559186D01*
X101338071Y-135609200D01*
X101353423Y-135678516D01*
X101328862Y-135745129D01*
X101287680Y-135780813D01*
X101254426Y-135798810D01*
X101254424Y-135798811D01*
X101076762Y-135937091D01*
X100924279Y-136102729D01*
X100924275Y-136102734D01*
X100801141Y-136291206D01*
X100710703Y-136497386D01*
X100710702Y-136497387D01*
X100655437Y-136715624D01*
X100636844Y-136940000D01*
X100655437Y-137164375D01*
X100710702Y-137382612D01*
X100710703Y-137382613D01*
X100801141Y-137588793D01*
X100924275Y-137777265D01*
X100924279Y-137777270D01*
X101076762Y-137942908D01*
X101131331Y-137985381D01*
X101254424Y-138081189D01*
X101288205Y-138099470D01*
X101338596Y-138149482D01*
X101353949Y-138218799D01*
X101329389Y-138285412D01*
X101288209Y-138321096D01*
X101254704Y-138339228D01*
X101254698Y-138339232D01*
X101077097Y-138477465D01*
X100924674Y-138643041D01*
X100801580Y-138831451D01*
X100711179Y-139037543D01*
X100711176Y-139037550D01*
X100663455Y-139225999D01*
X100663456Y-139226000D01*
X101569297Y-139226000D01*
X101534075Y-139287007D01*
X101500000Y-139414174D01*
X101500000Y-139545826D01*
X101534075Y-139672993D01*
X101569297Y-139734000D01*
X100663455Y-139734000D01*
X100711176Y-139922449D01*
X100711179Y-139922456D01*
X100801580Y-140128548D01*
X100924674Y-140316958D01*
X101077097Y-140482534D01*
X101254698Y-140620767D01*
X101254699Y-140620768D01*
X101288734Y-140639187D01*
X101339123Y-140689201D01*
X101354475Y-140758518D01*
X101329913Y-140825130D01*
X101288734Y-140860813D01*
X101254699Y-140879231D01*
X101254698Y-140879232D01*
X101077097Y-141017465D01*
X100924674Y-141183041D01*
X100801580Y-141371451D01*
X100711179Y-141577543D01*
X100711176Y-141577550D01*
X100663455Y-141765999D01*
X100663456Y-141766000D01*
X101569297Y-141766000D01*
X101534075Y-141827007D01*
X101500000Y-141954174D01*
X101500000Y-142085826D01*
X101534075Y-142212993D01*
X101569297Y-142274000D01*
X100663455Y-142274000D01*
X100711176Y-142462449D01*
X100711179Y-142462456D01*
X100801580Y-142668548D01*
X100924674Y-142856958D01*
X101077097Y-143022534D01*
X101254698Y-143160767D01*
X101254699Y-143160768D01*
X101288734Y-143179187D01*
X101339123Y-143229201D01*
X101354475Y-143298518D01*
X101329913Y-143365130D01*
X101288734Y-143400813D01*
X101254699Y-143419231D01*
X101254698Y-143419232D01*
X101077097Y-143557465D01*
X100924674Y-143723041D01*
X100801580Y-143911451D01*
X100711179Y-144117543D01*
X100711176Y-144117550D01*
X100663455Y-144305999D01*
X100663456Y-144306000D01*
X101569297Y-144306000D01*
X101534075Y-144367007D01*
X101500000Y-144494174D01*
X101500000Y-144625826D01*
X101534075Y-144752993D01*
X101569297Y-144814000D01*
X100663455Y-144814000D01*
X100711176Y-145002449D01*
X100711179Y-145002456D01*
X100801580Y-145208548D01*
X100924674Y-145396958D01*
X101077097Y-145562534D01*
X101254698Y-145700767D01*
X101254699Y-145700768D01*
X101288734Y-145719187D01*
X101339123Y-145769201D01*
X101354475Y-145838518D01*
X101329913Y-145905130D01*
X101288734Y-145940813D01*
X101254699Y-145959231D01*
X101254698Y-145959232D01*
X101077097Y-146097465D01*
X100924674Y-146263041D01*
X100801580Y-146451451D01*
X100711179Y-146657543D01*
X100711176Y-146657550D01*
X100663455Y-146845999D01*
X100663456Y-146846000D01*
X101569297Y-146846000D01*
X101534075Y-146907007D01*
X101500000Y-147034174D01*
X101500000Y-147165826D01*
X101534075Y-147292993D01*
X101569297Y-147354000D01*
X100663455Y-147354000D01*
X100711176Y-147542449D01*
X100711179Y-147542456D01*
X100801580Y-147748548D01*
X100924674Y-147936958D01*
X101077097Y-148102534D01*
X101254698Y-148240767D01*
X101254699Y-148240768D01*
X101452628Y-148347882D01*
X101452630Y-148347883D01*
X101665483Y-148420955D01*
X101665492Y-148420957D01*
X101746000Y-148434391D01*
X101746000Y-147530702D01*
X101807007Y-147565925D01*
X101934174Y-147600000D01*
X102065826Y-147600000D01*
X102192993Y-147565925D01*
X102254000Y-147530702D01*
X102254000Y-148434390D01*
X102334507Y-148420957D01*
X102334516Y-148420955D01*
X102547369Y-148347883D01*
X102547371Y-148347882D01*
X102745300Y-148240768D01*
X102745301Y-148240767D01*
X102922902Y-148102534D01*
X103075325Y-147936958D01*
X103198419Y-147748548D01*
X103288820Y-147542456D01*
X103288823Y-147542449D01*
X103336544Y-147354000D01*
X102430703Y-147354000D01*
X102465925Y-147292993D01*
X102500000Y-147165826D01*
X102500000Y-147034174D01*
X102484323Y-146975668D01*
X112491500Y-146975668D01*
X112491500Y-147724331D01*
X112510720Y-147820955D01*
X112530256Y-147919169D01*
X112606279Y-148102704D01*
X112716647Y-148267881D01*
X112857119Y-148408353D01*
X113022296Y-148518721D01*
X113205831Y-148594744D01*
X113400671Y-148633500D01*
X113400672Y-148633500D01*
X113599328Y-148633500D01*
X113599329Y-148633500D01*
X113794169Y-148594744D01*
X113977704Y-148518721D01*
X114142881Y-148408353D01*
X114283353Y-148267881D01*
X114393721Y-148102704D01*
X114469744Y-147919169D01*
X114508500Y-147724329D01*
X114508500Y-146975671D01*
X114508499Y-146975668D01*
X119491500Y-146975668D01*
X119491500Y-147724331D01*
X119510720Y-147820955D01*
X119530256Y-147919169D01*
X119606279Y-148102704D01*
X119716647Y-148267881D01*
X119857119Y-148408353D01*
X120022296Y-148518721D01*
X120205831Y-148594744D01*
X120400671Y-148633500D01*
X120400672Y-148633500D01*
X120599328Y-148633500D01*
X120599329Y-148633500D01*
X120794169Y-148594744D01*
X120977704Y-148518721D01*
X121142881Y-148408353D01*
X121283353Y-148267881D01*
X121393721Y-148102704D01*
X121469744Y-147919169D01*
X121508500Y-147724329D01*
X121508500Y-146975671D01*
X121469744Y-146780831D01*
X121393721Y-146597296D01*
X121283353Y-146432119D01*
X121142881Y-146291647D01*
X120977704Y-146181279D01*
X120794169Y-146105256D01*
X120774618Y-146101367D01*
X120774533Y-146101350D01*
X124831500Y-146101350D01*
X124831500Y-147898649D01*
X124838009Y-147959196D01*
X124838011Y-147959204D01*
X124889110Y-148096202D01*
X124889112Y-148096207D01*
X124976738Y-148213261D01*
X125093792Y-148300887D01*
X125093794Y-148300888D01*
X125093796Y-148300889D01*
X125147600Y-148320957D01*
X125230795Y-148351988D01*
X125230803Y-148351990D01*
X125291350Y-148358499D01*
X125291355Y-148358499D01*
X125291362Y-148358500D01*
X125291368Y-148358500D01*
X127088632Y-148358500D01*
X127088638Y-148358500D01*
X127088645Y-148358499D01*
X127088649Y-148358499D01*
X127149196Y-148351990D01*
X127149199Y-148351989D01*
X127149201Y-148351989D01*
X127160210Y-148347883D01*
X127168045Y-148344960D01*
X127286204Y-148300889D01*
X127330298Y-148267881D01*
X127403261Y-148213261D01*
X127490887Y-148096207D01*
X127490887Y-148096206D01*
X127490889Y-148096204D01*
X127541989Y-147959201D01*
X127544348Y-147937265D01*
X127548499Y-147898649D01*
X127548500Y-147898632D01*
X127548500Y-147874479D01*
X127568502Y-147806358D01*
X127585405Y-147785383D01*
X128245841Y-147124946D01*
X128264075Y-147192993D01*
X128329901Y-147307007D01*
X128422993Y-147400099D01*
X128537007Y-147465925D01*
X128605051Y-147484157D01*
X127964310Y-148124898D01*
X127984697Y-148140766D01*
X127984701Y-148140768D01*
X128182628Y-148247882D01*
X128182630Y-148247883D01*
X128395483Y-148320955D01*
X128395490Y-148320957D01*
X128617477Y-148358000D01*
X128842523Y-148358000D01*
X129064509Y-148320957D01*
X129064516Y-148320955D01*
X129277369Y-148247883D01*
X129277371Y-148247881D01*
X129475298Y-148140769D01*
X129495688Y-148124898D01*
X128854947Y-147484157D01*
X128922993Y-147465925D01*
X129037007Y-147400099D01*
X129130099Y-147307007D01*
X129195925Y-147192993D01*
X129214158Y-147124947D01*
X129853077Y-147763866D01*
X129853078Y-147763866D01*
X129894217Y-147700899D01*
X129948221Y-147654810D01*
X130018568Y-147645235D01*
X130082926Y-147675212D01*
X130105183Y-147700898D01*
X130194279Y-147837270D01*
X130346762Y-148002908D01*
X130401331Y-148045381D01*
X130524424Y-148141189D01*
X130722426Y-148248342D01*
X130722427Y-148248342D01*
X130722428Y-148248343D01*
X130779341Y-148267881D01*
X130935365Y-148321444D01*
X131157431Y-148358500D01*
X131157435Y-148358500D01*
X131382565Y-148358500D01*
X131382569Y-148358500D01*
X131604635Y-148321444D01*
X131817574Y-148248342D01*
X132015576Y-148141189D01*
X132193240Y-148002906D01*
X132345722Y-147837268D01*
X132434518Y-147701354D01*
X132488520Y-147655268D01*
X132558868Y-147645692D01*
X132623225Y-147675669D01*
X132645480Y-147701353D01*
X132678607Y-147752058D01*
X132734275Y-147837265D01*
X132734279Y-147837270D01*
X132886762Y-148002908D01*
X132941331Y-148045381D01*
X133064424Y-148141189D01*
X133262426Y-148248342D01*
X133262427Y-148248342D01*
X133262428Y-148248343D01*
X133319341Y-148267881D01*
X133475365Y-148321444D01*
X133697431Y-148358500D01*
X133697435Y-148358500D01*
X133922565Y-148358500D01*
X133922569Y-148358500D01*
X134144635Y-148321444D01*
X134357574Y-148248342D01*
X134555576Y-148141189D01*
X134733240Y-148002906D01*
X134885722Y-147837268D01*
X135008860Y-147648791D01*
X135099296Y-147442616D01*
X135154564Y-147224368D01*
X135173156Y-147000000D01*
X135154564Y-146775632D01*
X135124620Y-146657386D01*
X135099297Y-146557387D01*
X135099296Y-146557386D01*
X135099296Y-146557384D01*
X135074125Y-146500000D01*
X141637346Y-146500000D01*
X141655932Y-146724292D01*
X141711176Y-146942449D01*
X141711179Y-146942456D01*
X141801580Y-147148548D01*
X141876921Y-147263866D01*
X142515841Y-146624946D01*
X142534075Y-146692993D01*
X142599901Y-146807007D01*
X142692993Y-146900099D01*
X142807007Y-146965925D01*
X142875051Y-146984157D01*
X142234310Y-147624898D01*
X142254697Y-147640766D01*
X142254701Y-147640768D01*
X142452628Y-147747882D01*
X142452630Y-147747883D01*
X142665483Y-147820955D01*
X142665490Y-147820957D01*
X142887477Y-147858000D01*
X143112523Y-147858000D01*
X143334509Y-147820957D01*
X143334516Y-147820955D01*
X143547369Y-147747883D01*
X143547371Y-147747881D01*
X143745298Y-147640769D01*
X143765688Y-147624898D01*
X143124947Y-146984157D01*
X143192993Y-146965925D01*
X143307007Y-146900099D01*
X143400099Y-146807007D01*
X143465925Y-146692993D01*
X143484158Y-146624947D01*
X144123077Y-147263866D01*
X144198419Y-147148548D01*
X144288820Y-146942456D01*
X144288823Y-146942449D01*
X144344067Y-146724292D01*
X144362653Y-146500000D01*
X144344067Y-146275707D01*
X144288823Y-146057550D01*
X144288820Y-146057543D01*
X144198419Y-145851451D01*
X144123077Y-145736132D01*
X143484157Y-146375051D01*
X143465925Y-146307007D01*
X143400099Y-146192993D01*
X143307007Y-146099901D01*
X143192993Y-146034075D01*
X143124947Y-146015841D01*
X143765688Y-145375100D01*
X143765687Y-145375099D01*
X143745308Y-145359237D01*
X143745298Y-145359231D01*
X143547371Y-145252117D01*
X143547369Y-145252116D01*
X143334516Y-145179044D01*
X143334509Y-145179042D01*
X143112523Y-145142000D01*
X142887477Y-145142000D01*
X142665490Y-145179042D01*
X142665483Y-145179044D01*
X142452630Y-145252116D01*
X142452628Y-145252118D01*
X142254700Y-145359230D01*
X142254693Y-145359235D01*
X142234311Y-145375099D01*
X142234310Y-145375100D01*
X142875052Y-146015842D01*
X142807007Y-146034075D01*
X142692993Y-146099901D01*
X142599901Y-146192993D01*
X142534075Y-146307007D01*
X142515842Y-146375052D01*
X141876921Y-145736131D01*
X141876920Y-145736132D01*
X141801586Y-145851439D01*
X141801579Y-145851453D01*
X141711179Y-146057543D01*
X141711176Y-146057550D01*
X141655932Y-146275707D01*
X141637346Y-146500000D01*
X135074125Y-146500000D01*
X135008860Y-146351209D01*
X134991597Y-146324786D01*
X134885724Y-146162734D01*
X134885720Y-146162729D01*
X134733237Y-145997091D01*
X134615086Y-145905130D01*
X134555576Y-145858811D01*
X134357574Y-145751658D01*
X134357572Y-145751657D01*
X134357571Y-145751656D01*
X134144639Y-145678557D01*
X134144630Y-145678555D01*
X134100476Y-145671187D01*
X133922569Y-145641500D01*
X133697431Y-145641500D01*
X133549211Y-145666233D01*
X133475369Y-145678555D01*
X133475360Y-145678557D01*
X133262428Y-145751656D01*
X133262426Y-145751658D01*
X133078021Y-145851453D01*
X133064426Y-145858810D01*
X133064424Y-145858811D01*
X132886762Y-145997091D01*
X132734279Y-146162729D01*
X132645483Y-146298643D01*
X132591479Y-146344731D01*
X132521131Y-146354306D01*
X132456774Y-146324329D01*
X132434517Y-146298643D01*
X132345720Y-146162729D01*
X132193237Y-145997091D01*
X132075086Y-145905130D01*
X132015576Y-145858811D01*
X131817574Y-145751658D01*
X131817572Y-145751657D01*
X131817571Y-145751656D01*
X131604639Y-145678557D01*
X131604630Y-145678555D01*
X131560476Y-145671187D01*
X131382569Y-145641500D01*
X131157431Y-145641500D01*
X131009211Y-145666233D01*
X130935369Y-145678555D01*
X130935360Y-145678557D01*
X130722428Y-145751656D01*
X130722426Y-145751658D01*
X130538021Y-145851453D01*
X130524426Y-145858810D01*
X130524424Y-145858811D01*
X130346762Y-145997091D01*
X130194279Y-146162729D01*
X130105183Y-146299101D01*
X130051179Y-146345189D01*
X129980831Y-146354764D01*
X129916474Y-146324786D01*
X129894217Y-146299100D01*
X129853078Y-146236132D01*
X129214157Y-146875051D01*
X129195925Y-146807007D01*
X129130099Y-146692993D01*
X129037007Y-146599901D01*
X128922993Y-146534075D01*
X128854947Y-146515841D01*
X129495688Y-145875100D01*
X129495687Y-145875099D01*
X129475308Y-145859237D01*
X129475298Y-145859231D01*
X129277371Y-145752117D01*
X129277369Y-145752116D01*
X129064516Y-145679044D01*
X129064509Y-145679042D01*
X128842523Y-145642000D01*
X128617477Y-145642000D01*
X128395490Y-145679042D01*
X128395483Y-145679044D01*
X128182630Y-145752116D01*
X128182628Y-145752118D01*
X127984700Y-145859230D01*
X127984693Y-145859235D01*
X127964311Y-145875099D01*
X127964310Y-145875100D01*
X128605052Y-146515842D01*
X128537007Y-146534075D01*
X128422993Y-146599901D01*
X128329901Y-146692993D01*
X128264075Y-146807007D01*
X128245842Y-146875052D01*
X127585405Y-146214615D01*
X127551379Y-146152303D01*
X127548500Y-146125520D01*
X127548500Y-146101367D01*
X127548499Y-146101350D01*
X127541990Y-146040803D01*
X127541988Y-146040795D01*
X127504696Y-145940813D01*
X127490889Y-145903796D01*
X127490888Y-145903794D01*
X127490887Y-145903792D01*
X127403261Y-145786738D01*
X127286207Y-145699112D01*
X127286202Y-145699110D01*
X127149204Y-145648011D01*
X127149196Y-145648009D01*
X127088649Y-145641500D01*
X127088638Y-145641500D01*
X125291362Y-145641500D01*
X125291350Y-145641500D01*
X125230803Y-145648009D01*
X125230795Y-145648011D01*
X125093797Y-145699110D01*
X125093792Y-145699112D01*
X124976738Y-145786738D01*
X124889112Y-145903792D01*
X124889110Y-145903797D01*
X124838011Y-146040795D01*
X124838009Y-146040803D01*
X124831500Y-146101350D01*
X120774533Y-146101350D01*
X120599331Y-146066500D01*
X120599329Y-146066500D01*
X120400671Y-146066500D01*
X120400668Y-146066500D01*
X120205830Y-146105256D01*
X120205825Y-146105258D01*
X120022296Y-146181279D01*
X119857123Y-146291644D01*
X119857116Y-146291649D01*
X119716649Y-146432116D01*
X119716644Y-146432123D01*
X119606279Y-146597296D01*
X119530258Y-146780825D01*
X119530256Y-146780830D01*
X119491500Y-146975668D01*
X114508499Y-146975668D01*
X114469744Y-146780831D01*
X114393721Y-146597296D01*
X114283353Y-146432119D01*
X114142881Y-146291647D01*
X113977704Y-146181279D01*
X113794169Y-146105256D01*
X113774618Y-146101367D01*
X113599331Y-146066500D01*
X113599329Y-146066500D01*
X113400671Y-146066500D01*
X113400668Y-146066500D01*
X113205830Y-146105256D01*
X113205825Y-146105258D01*
X113022296Y-146181279D01*
X112857123Y-146291644D01*
X112857116Y-146291649D01*
X112716649Y-146432116D01*
X112716644Y-146432123D01*
X112606279Y-146597296D01*
X112530258Y-146780825D01*
X112530256Y-146780830D01*
X112491500Y-146975668D01*
X102484323Y-146975668D01*
X102465925Y-146907007D01*
X102430703Y-146846000D01*
X103336544Y-146846000D01*
X103336544Y-146845999D01*
X103288823Y-146657550D01*
X103288820Y-146657543D01*
X103198419Y-146451451D01*
X103075325Y-146263041D01*
X102922902Y-146097465D01*
X102745301Y-145959232D01*
X102745300Y-145959231D01*
X102711267Y-145940814D01*
X102660876Y-145890801D01*
X102645524Y-145821484D01*
X102670085Y-145754871D01*
X102711267Y-145719186D01*
X102745300Y-145700768D01*
X102745301Y-145700767D01*
X102922902Y-145562534D01*
X103075325Y-145396958D01*
X103198419Y-145208548D01*
X103288820Y-145002456D01*
X103288823Y-145002449D01*
X103336544Y-144814000D01*
X102430703Y-144814000D01*
X102465925Y-144752993D01*
X102500000Y-144625826D01*
X102500000Y-144553131D01*
X113366500Y-144553131D01*
X113366500Y-144746868D01*
X113390397Y-144867007D01*
X113404295Y-144936876D01*
X113478433Y-145115862D01*
X113586065Y-145276945D01*
X113723055Y-145413935D01*
X113884138Y-145521567D01*
X114063124Y-145595705D01*
X114253134Y-145633500D01*
X114253135Y-145633500D01*
X114746865Y-145633500D01*
X114746866Y-145633500D01*
X114936876Y-145595705D01*
X115115862Y-145521567D01*
X115276945Y-145413935D01*
X115413935Y-145276945D01*
X115521567Y-145115862D01*
X115595705Y-144936876D01*
X115633500Y-144746866D01*
X115633500Y-144553134D01*
X115633499Y-144553131D01*
X118366500Y-144553131D01*
X118366500Y-144746868D01*
X118390397Y-144867007D01*
X118404295Y-144936876D01*
X118478433Y-145115862D01*
X118586065Y-145276945D01*
X118723055Y-145413935D01*
X118884138Y-145521567D01*
X119063124Y-145595705D01*
X119253134Y-145633500D01*
X119253135Y-145633500D01*
X119746865Y-145633500D01*
X119746866Y-145633500D01*
X119936876Y-145595705D01*
X120115862Y-145521567D01*
X120276945Y-145413935D01*
X120413935Y-145276945D01*
X120521567Y-145115862D01*
X120595705Y-144936876D01*
X120633500Y-144746866D01*
X120633500Y-144553134D01*
X120595705Y-144363124D01*
X120521567Y-144184138D01*
X120413935Y-144023055D01*
X120276945Y-143886065D01*
X120115862Y-143778433D01*
X119936876Y-143704295D01*
X119746868Y-143666500D01*
X119746866Y-143666500D01*
X119253134Y-143666500D01*
X119253131Y-143666500D01*
X119063123Y-143704295D01*
X119063118Y-143704297D01*
X118884137Y-143778433D01*
X118723059Y-143886062D01*
X118723052Y-143886067D01*
X118586067Y-144023052D01*
X118586062Y-144023059D01*
X118478433Y-144184137D01*
X118404297Y-144363118D01*
X118404295Y-144363123D01*
X118366500Y-144553131D01*
X115633499Y-144553131D01*
X115595705Y-144363124D01*
X115521567Y-144184138D01*
X115413935Y-144023055D01*
X115276945Y-143886065D01*
X115115862Y-143778433D01*
X114936876Y-143704295D01*
X114746868Y-143666500D01*
X114746866Y-143666500D01*
X114253134Y-143666500D01*
X114253131Y-143666500D01*
X114063123Y-143704295D01*
X114063118Y-143704297D01*
X113884137Y-143778433D01*
X113723059Y-143886062D01*
X113723052Y-143886067D01*
X113586067Y-144023052D01*
X113586062Y-144023059D01*
X113478433Y-144184137D01*
X113404297Y-144363118D01*
X113404295Y-144363123D01*
X113366500Y-144553131D01*
X102500000Y-144553131D01*
X102500000Y-144494174D01*
X102465925Y-144367007D01*
X102430703Y-144306000D01*
X103336544Y-144306000D01*
X103336544Y-144305999D01*
X103288823Y-144117550D01*
X103288820Y-144117543D01*
X103198419Y-143911451D01*
X103075325Y-143723041D01*
X102922902Y-143557465D01*
X102745301Y-143419232D01*
X102745300Y-143419231D01*
X102711267Y-143400814D01*
X102660876Y-143350801D01*
X102645524Y-143281484D01*
X102670085Y-143214871D01*
X102711267Y-143179186D01*
X102745300Y-143160768D01*
X102745301Y-143160767D01*
X102922902Y-143022534D01*
X103075325Y-142856958D01*
X103198419Y-142668548D01*
X103288820Y-142462456D01*
X103288823Y-142462449D01*
X103336544Y-142274000D01*
X102430703Y-142274000D01*
X102465925Y-142212993D01*
X102500000Y-142085826D01*
X102500000Y-141954174D01*
X102465925Y-141827007D01*
X102430703Y-141766000D01*
X103336544Y-141766000D01*
X103336544Y-141765999D01*
X103288823Y-141577550D01*
X103288820Y-141577543D01*
X103198419Y-141371451D01*
X103075325Y-141183041D01*
X102922902Y-141017465D01*
X102745301Y-140879232D01*
X102745300Y-140879231D01*
X102711267Y-140860814D01*
X102660876Y-140810801D01*
X102645524Y-140741484D01*
X102670085Y-140674871D01*
X102711267Y-140639186D01*
X102745300Y-140620768D01*
X102745301Y-140620767D01*
X102922902Y-140482534D01*
X103075325Y-140316958D01*
X103198419Y-140128548D01*
X103288820Y-139922456D01*
X103288823Y-139922449D01*
X103336544Y-139734000D01*
X102430703Y-139734000D01*
X102465925Y-139672993D01*
X102500000Y-139545826D01*
X102500000Y-139414174D01*
X102465925Y-139287007D01*
X102430703Y-139226000D01*
X103336544Y-139226000D01*
X103336544Y-139225999D01*
X103288823Y-139037550D01*
X103288820Y-139037543D01*
X103198419Y-138831451D01*
X103075325Y-138643041D01*
X102922902Y-138477465D01*
X102745301Y-138339232D01*
X102745300Y-138339231D01*
X102711791Y-138321097D01*
X102661401Y-138271083D01*
X102646050Y-138201766D01*
X102670612Y-138135153D01*
X102711790Y-138099472D01*
X102745576Y-138081189D01*
X102923240Y-137942906D01*
X103075722Y-137777268D01*
X103198860Y-137588791D01*
X103289296Y-137382616D01*
X103344564Y-137164368D01*
X103363156Y-136940000D01*
X103344564Y-136715632D01*
X103289296Y-136497384D01*
X103198860Y-136291209D01*
X103135291Y-136193909D01*
X103075724Y-136102734D01*
X103075720Y-136102729D01*
X102923237Y-135937091D01*
X102841382Y-135873381D01*
X102745576Y-135798811D01*
X102712319Y-135780813D01*
X102661929Y-135730802D01*
X102646576Y-135661485D01*
X102671136Y-135594872D01*
X102712320Y-135559186D01*
X102745576Y-135541189D01*
X102923240Y-135402906D01*
X103075722Y-135237268D01*
X103100073Y-135199996D01*
X135186620Y-135199996D01*
X135186620Y-135200003D01*
X135206090Y-135397694D01*
X135206091Y-135397700D01*
X135206092Y-135397701D01*
X135263759Y-135587804D01*
X135357405Y-135763004D01*
X135483432Y-135916568D01*
X135636996Y-136042595D01*
X135812196Y-136136241D01*
X136002299Y-136193908D01*
X136002303Y-136193908D01*
X136002305Y-136193909D01*
X136199997Y-136213380D01*
X136200000Y-136213380D01*
X136200003Y-136213380D01*
X136397694Y-136193909D01*
X136397695Y-136193908D01*
X136397701Y-136193908D01*
X136587804Y-136136241D01*
X136763004Y-136042595D01*
X136916568Y-135916568D01*
X137042595Y-135763004D01*
X137136241Y-135587804D01*
X137193908Y-135397701D01*
X137209710Y-135237268D01*
X137213380Y-135200003D01*
X137213380Y-135199996D01*
X137193909Y-135002305D01*
X137193908Y-135002303D01*
X137193908Y-135002299D01*
X137136241Y-134812196D01*
X137042595Y-134636996D01*
X136916568Y-134483432D01*
X136763004Y-134357405D01*
X136587804Y-134263759D01*
X136397701Y-134206092D01*
X136397700Y-134206091D01*
X136397694Y-134206090D01*
X136200003Y-134186620D01*
X136199997Y-134186620D01*
X136002305Y-134206090D01*
X135812195Y-134263759D01*
X135636995Y-134357405D01*
X135483432Y-134483432D01*
X135357405Y-134636995D01*
X135263759Y-134812195D01*
X135206090Y-135002305D01*
X135186620Y-135199996D01*
X103100073Y-135199996D01*
X103198860Y-135048791D01*
X103289296Y-134842616D01*
X103344564Y-134624368D01*
X103363156Y-134400000D01*
X103344564Y-134175632D01*
X103289296Y-133957384D01*
X103198860Y-133751209D01*
X103192140Y-133740924D01*
X103075724Y-133562734D01*
X103075720Y-133562729D01*
X102923237Y-133397091D01*
X102841382Y-133333381D01*
X102745576Y-133258811D01*
X102712319Y-133240813D01*
X102661929Y-133190802D01*
X102646576Y-133121485D01*
X102671136Y-133054872D01*
X102712320Y-133019186D01*
X102745576Y-133001189D01*
X102923240Y-132862906D01*
X103075722Y-132697268D01*
X103198860Y-132508791D01*
X103289296Y-132302616D01*
X103344564Y-132084368D01*
X103363156Y-131860000D01*
X103344564Y-131635632D01*
X103289296Y-131417384D01*
X103198860Y-131211209D01*
X103192140Y-131200924D01*
X103075724Y-131022734D01*
X103075720Y-131022729D01*
X102923237Y-130857091D01*
X102841382Y-130793381D01*
X102745576Y-130718811D01*
X102712319Y-130700813D01*
X102661929Y-130650802D01*
X102646576Y-130581485D01*
X102671136Y-130514872D01*
X102712320Y-130479186D01*
X102745576Y-130461189D01*
X102923240Y-130322906D01*
X103075722Y-130157268D01*
X103198860Y-129968791D01*
X103289296Y-129762616D01*
X103344564Y-129544368D01*
X103363156Y-129320000D01*
X103344564Y-129095632D01*
X103289296Y-128877384D01*
X103198860Y-128671209D01*
X103192140Y-128660924D01*
X103075724Y-128482734D01*
X103075720Y-128482729D01*
X102923237Y-128317091D01*
X102841382Y-128253381D01*
X102745576Y-128178811D01*
X102712319Y-128160813D01*
X102661929Y-128110802D01*
X102646576Y-128041485D01*
X102671136Y-127974872D01*
X102712320Y-127939186D01*
X102712847Y-127938901D01*
X102745576Y-127921189D01*
X102923240Y-127782906D01*
X103075722Y-127617268D01*
X103198860Y-127428791D01*
X103289296Y-127222616D01*
X103344564Y-127004368D01*
X103363156Y-126780000D01*
X103344564Y-126555632D01*
X103289338Y-126337550D01*
X103289297Y-126337387D01*
X103289296Y-126337386D01*
X103289296Y-126337384D01*
X103198860Y-126131209D01*
X103192140Y-126120924D01*
X103075724Y-125942734D01*
X103075720Y-125942729D01*
X102959570Y-125816559D01*
X102923240Y-125777094D01*
X102923239Y-125777093D01*
X102923237Y-125777091D01*
X102841382Y-125713381D01*
X102745576Y-125638811D01*
X102712319Y-125620813D01*
X102661929Y-125570802D01*
X102646576Y-125501485D01*
X102671136Y-125434872D01*
X102712320Y-125399186D01*
X102745576Y-125381189D01*
X102923240Y-125242906D01*
X103075722Y-125077268D01*
X103198860Y-124888791D01*
X103289296Y-124682616D01*
X103344564Y-124464368D01*
X103363156Y-124240000D01*
X103344564Y-124015632D01*
X103289296Y-123797384D01*
X103198860Y-123591209D01*
X103192140Y-123580924D01*
X103075724Y-123402734D01*
X103075720Y-123402729D01*
X102923237Y-123237091D01*
X102841382Y-123173381D01*
X102745576Y-123098811D01*
X102711792Y-123080528D01*
X102661402Y-123030516D01*
X102646050Y-122961199D01*
X102670610Y-122894586D01*
X102711793Y-122858901D01*
X102745300Y-122840767D01*
X102745301Y-122840767D01*
X102922902Y-122702534D01*
X103075325Y-122536958D01*
X103198419Y-122348548D01*
X103288820Y-122142456D01*
X103288823Y-122142449D01*
X103336544Y-121954000D01*
X102430703Y-121954000D01*
X102465925Y-121892993D01*
X102500000Y-121765826D01*
X102500000Y-121634174D01*
X102465925Y-121507007D01*
X102430703Y-121446000D01*
X103336544Y-121446000D01*
X103336544Y-121445999D01*
X103288823Y-121257550D01*
X103288820Y-121257543D01*
X103198419Y-121051451D01*
X103075325Y-120863041D01*
X102922902Y-120697465D01*
X102745301Y-120559232D01*
X102745300Y-120559231D01*
X102711791Y-120541097D01*
X102661401Y-120491083D01*
X102646050Y-120421766D01*
X102670612Y-120355153D01*
X102711790Y-120319472D01*
X102745576Y-120301189D01*
X102923240Y-120162906D01*
X103075722Y-119997268D01*
X103198860Y-119808791D01*
X103289296Y-119602616D01*
X103344564Y-119384368D01*
X103363156Y-119160000D01*
X103344564Y-118935632D01*
X103289296Y-118717384D01*
X103198860Y-118511209D01*
X103192140Y-118500924D01*
X103075724Y-118322734D01*
X103075720Y-118322729D01*
X102923237Y-118157091D01*
X102841382Y-118093381D01*
X102745576Y-118018811D01*
X102712319Y-118000813D01*
X102661929Y-117950802D01*
X102646576Y-117881485D01*
X102671136Y-117814872D01*
X102712320Y-117779186D01*
X102745576Y-117761189D01*
X102923240Y-117622906D01*
X103075722Y-117457268D01*
X103198860Y-117268791D01*
X103289296Y-117062616D01*
X103344564Y-116844368D01*
X103363156Y-116620000D01*
X103344564Y-116395632D01*
X103344562Y-116395624D01*
X103320346Y-116299996D01*
X135186620Y-116299996D01*
X135186620Y-116300003D01*
X135206090Y-116497694D01*
X135206091Y-116497700D01*
X135206092Y-116497701D01*
X135263759Y-116687804D01*
X135357405Y-116863004D01*
X135483432Y-117016568D01*
X135636996Y-117142595D01*
X135812196Y-117236241D01*
X136002299Y-117293908D01*
X136002303Y-117293908D01*
X136002305Y-117293909D01*
X136199997Y-117313380D01*
X136200000Y-117313380D01*
X136200003Y-117313380D01*
X136397694Y-117293909D01*
X136397695Y-117293908D01*
X136397701Y-117293908D01*
X136587804Y-117236241D01*
X136763004Y-117142595D01*
X136916568Y-117016568D01*
X137042595Y-116863004D01*
X137136241Y-116687804D01*
X137193908Y-116497701D01*
X137213380Y-116300000D01*
X137201304Y-116177387D01*
X137193909Y-116102305D01*
X137193908Y-116102303D01*
X137193908Y-116102299D01*
X137136241Y-115912196D01*
X137042595Y-115736996D01*
X136916568Y-115583432D01*
X136763004Y-115457405D01*
X136587804Y-115363759D01*
X136397701Y-115306092D01*
X136397700Y-115306091D01*
X136397694Y-115306090D01*
X136200003Y-115286620D01*
X136199997Y-115286620D01*
X136002305Y-115306090D01*
X135812195Y-115363759D01*
X135636995Y-115457405D01*
X135483432Y-115583432D01*
X135357405Y-115736995D01*
X135263759Y-115912195D01*
X135206090Y-116102305D01*
X135186620Y-116299996D01*
X103320346Y-116299996D01*
X103289297Y-116177387D01*
X103289296Y-116177386D01*
X103289296Y-116177384D01*
X103198860Y-115971209D01*
X103160304Y-115912195D01*
X103075724Y-115782734D01*
X103075720Y-115782729D01*
X102923237Y-115617091D01*
X102841382Y-115553381D01*
X102745576Y-115478811D01*
X102712319Y-115460813D01*
X102661929Y-115410802D01*
X102646576Y-115341485D01*
X102671136Y-115274872D01*
X102712320Y-115239186D01*
X102745576Y-115221189D01*
X102923240Y-115082906D01*
X103075722Y-114917268D01*
X103198860Y-114728791D01*
X103289296Y-114522616D01*
X103344564Y-114304368D01*
X103363156Y-114080000D01*
X103344564Y-113855632D01*
X103305152Y-113699996D01*
X119586620Y-113699996D01*
X119586620Y-113700003D01*
X119606090Y-113897694D01*
X119606091Y-113897700D01*
X119606092Y-113897701D01*
X119663759Y-114087804D01*
X119757405Y-114263004D01*
X119883432Y-114416568D01*
X120036996Y-114542595D01*
X120212196Y-114636241D01*
X120402299Y-114693908D01*
X120402303Y-114693908D01*
X120402305Y-114693909D01*
X120599997Y-114713380D01*
X120600000Y-114713380D01*
X120600003Y-114713380D01*
X120797694Y-114693909D01*
X120797695Y-114693908D01*
X120797701Y-114693908D01*
X120987804Y-114636241D01*
X121163004Y-114542595D01*
X121316568Y-114416568D01*
X121442595Y-114263004D01*
X121536241Y-114087804D01*
X121593908Y-113897701D01*
X121598052Y-113855632D01*
X121613380Y-113700003D01*
X121613380Y-113699996D01*
X121593909Y-113502305D01*
X121593908Y-113502303D01*
X121593908Y-113502299D01*
X121536241Y-113312196D01*
X121442595Y-113136996D01*
X121316568Y-112983432D01*
X121163004Y-112857405D01*
X120987804Y-112763759D01*
X120797701Y-112706092D01*
X120797700Y-112706091D01*
X120797694Y-112706090D01*
X120600003Y-112686620D01*
X120599997Y-112686620D01*
X120402305Y-112706090D01*
X120212195Y-112763759D01*
X120036995Y-112857405D01*
X119883432Y-112983432D01*
X119757405Y-113136995D01*
X119663759Y-113312195D01*
X119606090Y-113502305D01*
X119586620Y-113699996D01*
X103305152Y-113699996D01*
X103289296Y-113637384D01*
X103198860Y-113431209D01*
X103121105Y-113312196D01*
X103075724Y-113242734D01*
X103075720Y-113242729D01*
X102923237Y-113077091D01*
X102802904Y-112983432D01*
X102745576Y-112938811D01*
X102712319Y-112920813D01*
X102661929Y-112870802D01*
X102646576Y-112801485D01*
X102671136Y-112734872D01*
X102712320Y-112699186D01*
X102745576Y-112681189D01*
X102923240Y-112542906D01*
X103075722Y-112377268D01*
X103198860Y-112188791D01*
X103237807Y-112100000D01*
X116486496Y-112100000D01*
X116506457Y-112289927D01*
X116534836Y-112377265D01*
X116565473Y-112471556D01*
X116565476Y-112471561D01*
X116660958Y-112636941D01*
X116660965Y-112636951D01*
X116788744Y-112778864D01*
X116819879Y-112801485D01*
X116943248Y-112891118D01*
X117117712Y-112968794D01*
X117304513Y-113008500D01*
X117495487Y-113008500D01*
X117682288Y-112968794D01*
X117856752Y-112891118D01*
X118011253Y-112778866D01*
X118011255Y-112778864D01*
X118139034Y-112636951D01*
X118139035Y-112636949D01*
X118139040Y-112636944D01*
X118234527Y-112471556D01*
X118293542Y-112289928D01*
X118313504Y-112100000D01*
X118293542Y-111910072D01*
X118234527Y-111728444D01*
X118217459Y-111698882D01*
X139292450Y-111698882D01*
X139292450Y-111698889D01*
X139311920Y-111896580D01*
X139311921Y-111896586D01*
X139311922Y-111896587D01*
X139369589Y-112086690D01*
X139463235Y-112261890D01*
X139589262Y-112415454D01*
X139742826Y-112541481D01*
X139918026Y-112635127D01*
X140108129Y-112692794D01*
X140108133Y-112692794D01*
X140108135Y-112692795D01*
X140305827Y-112712266D01*
X140305830Y-112712266D01*
X140305833Y-112712266D01*
X140503524Y-112692795D01*
X140503525Y-112692794D01*
X140503531Y-112692794D01*
X140693634Y-112635127D01*
X140868834Y-112541481D01*
X141022398Y-112415454D01*
X141148425Y-112261890D01*
X141242071Y-112086690D01*
X141299738Y-111896587D01*
X141316300Y-111728438D01*
X141319210Y-111698889D01*
X141319210Y-111698882D01*
X141303561Y-111540000D01*
X156636844Y-111540000D01*
X156652459Y-111728445D01*
X156655437Y-111764375D01*
X156710702Y-111982612D01*
X156710703Y-111982613D01*
X156801141Y-112188793D01*
X156924275Y-112377265D01*
X156924279Y-112377270D01*
X157076762Y-112542908D01*
X157131331Y-112585381D01*
X157254424Y-112681189D01*
X157287680Y-112699186D01*
X157338071Y-112749200D01*
X157353423Y-112818516D01*
X157328862Y-112885129D01*
X157287680Y-112920813D01*
X157254426Y-112938810D01*
X157254424Y-112938811D01*
X157076762Y-113077091D01*
X156924279Y-113242729D01*
X156924275Y-113242734D01*
X156801141Y-113431206D01*
X156710703Y-113637386D01*
X156710702Y-113637387D01*
X156655437Y-113855624D01*
X156655436Y-113855630D01*
X156655436Y-113855632D01*
X156636844Y-114080000D01*
X156652008Y-114263004D01*
X156655437Y-114304375D01*
X156710702Y-114522612D01*
X156710703Y-114522613D01*
X156710704Y-114522616D01*
X156794380Y-114713380D01*
X156801141Y-114728793D01*
X156924275Y-114917265D01*
X156924279Y-114917270D01*
X157076762Y-115082908D01*
X157131331Y-115125381D01*
X157254424Y-115221189D01*
X157287680Y-115239186D01*
X157338071Y-115289200D01*
X157353423Y-115358516D01*
X157328862Y-115425129D01*
X157287680Y-115460813D01*
X157254426Y-115478810D01*
X157254424Y-115478811D01*
X157076762Y-115617091D01*
X156924279Y-115782729D01*
X156924275Y-115782734D01*
X156801141Y-115971206D01*
X156710703Y-116177386D01*
X156710702Y-116177387D01*
X156655437Y-116395624D01*
X156636844Y-116620000D01*
X156655437Y-116844375D01*
X156710702Y-117062612D01*
X156710703Y-117062613D01*
X156710704Y-117062616D01*
X156801140Y-117268791D01*
X156801141Y-117268793D01*
X156924275Y-117457265D01*
X156924279Y-117457270D01*
X157076762Y-117622908D01*
X157131331Y-117665381D01*
X157254424Y-117761189D01*
X157287680Y-117779186D01*
X157338071Y-117829200D01*
X157353423Y-117898516D01*
X157328862Y-117965129D01*
X157287680Y-118000813D01*
X157254426Y-118018810D01*
X157254424Y-118018811D01*
X157076762Y-118157091D01*
X156924279Y-118322729D01*
X156924275Y-118322734D01*
X156801141Y-118511206D01*
X156710703Y-118717386D01*
X156710702Y-118717387D01*
X156655437Y-118935624D01*
X156636844Y-119160000D01*
X156655437Y-119384375D01*
X156710702Y-119602612D01*
X156710703Y-119602613D01*
X156801141Y-119808793D01*
X156924275Y-119997265D01*
X156924279Y-119997270D01*
X157076762Y-120162908D01*
X157131331Y-120205381D01*
X157254424Y-120301189D01*
X157287680Y-120319186D01*
X157338071Y-120369200D01*
X157353423Y-120438516D01*
X157328862Y-120505129D01*
X157287680Y-120540813D01*
X157254426Y-120558810D01*
X157254424Y-120558811D01*
X157076762Y-120697091D01*
X156924279Y-120862729D01*
X156924275Y-120862734D01*
X156801141Y-121051206D01*
X156710703Y-121257386D01*
X156710702Y-121257387D01*
X156655437Y-121475624D01*
X156655436Y-121475630D01*
X156655436Y-121475632D01*
X156636844Y-121700000D01*
X156652836Y-121892993D01*
X156655437Y-121924375D01*
X156710702Y-122142612D01*
X156710703Y-122142613D01*
X156710704Y-122142616D01*
X156801140Y-122348791D01*
X156801141Y-122348793D01*
X156924275Y-122537265D01*
X156924279Y-122537270D01*
X157076762Y-122702908D01*
X157131331Y-122745381D01*
X157254424Y-122841189D01*
X157287153Y-122858901D01*
X157287680Y-122859186D01*
X157338071Y-122909200D01*
X157353423Y-122978516D01*
X157328862Y-123045129D01*
X157287680Y-123080813D01*
X157254426Y-123098810D01*
X157254424Y-123098811D01*
X157076762Y-123237091D01*
X156924279Y-123402729D01*
X156924275Y-123402734D01*
X156801141Y-123591206D01*
X156710703Y-123797386D01*
X156710702Y-123797387D01*
X156655437Y-124015624D01*
X156636844Y-124240000D01*
X156655437Y-124464375D01*
X156710702Y-124682612D01*
X156710703Y-124682613D01*
X156801141Y-124888793D01*
X156924275Y-125077265D01*
X156924279Y-125077270D01*
X157076762Y-125242908D01*
X157131331Y-125285381D01*
X157254424Y-125381189D01*
X157288205Y-125399470D01*
X157338596Y-125449482D01*
X157353949Y-125518799D01*
X157329389Y-125585412D01*
X157288209Y-125621096D01*
X157254704Y-125639228D01*
X157254698Y-125639232D01*
X157077097Y-125777465D01*
X156924674Y-125943041D01*
X156801580Y-126131451D01*
X156711179Y-126337543D01*
X156711176Y-126337550D01*
X156663455Y-126525999D01*
X156663456Y-126526000D01*
X157569297Y-126526000D01*
X157534075Y-126587007D01*
X157500000Y-126714174D01*
X157500000Y-126845826D01*
X157534075Y-126972993D01*
X157569297Y-127034000D01*
X156663455Y-127034000D01*
X156711176Y-127222449D01*
X156711179Y-127222456D01*
X156801580Y-127428548D01*
X156924674Y-127616958D01*
X157077097Y-127782534D01*
X157254698Y-127920767D01*
X157254704Y-127920771D01*
X157288207Y-127938902D01*
X157338597Y-127988915D01*
X157353949Y-128058232D01*
X157329388Y-128124845D01*
X157288207Y-128160528D01*
X157254430Y-128178807D01*
X157254424Y-128178811D01*
X157076762Y-128317091D01*
X156924279Y-128482729D01*
X156924275Y-128482734D01*
X156801141Y-128671206D01*
X156710703Y-128877386D01*
X156710702Y-128877387D01*
X156655437Y-129095624D01*
X156636844Y-129320000D01*
X156655437Y-129544375D01*
X156710702Y-129762612D01*
X156710703Y-129762613D01*
X156801141Y-129968793D01*
X156924275Y-130157265D01*
X156924279Y-130157270D01*
X157076762Y-130322908D01*
X157131331Y-130365381D01*
X157254424Y-130461189D01*
X157287680Y-130479186D01*
X157338071Y-130529200D01*
X157353423Y-130598516D01*
X157328862Y-130665129D01*
X157287680Y-130700813D01*
X157254426Y-130718810D01*
X157254424Y-130718811D01*
X157076762Y-130857091D01*
X156924279Y-131022729D01*
X156924275Y-131022734D01*
X156801141Y-131211206D01*
X156710703Y-131417386D01*
X156710702Y-131417387D01*
X156655437Y-131635624D01*
X156636844Y-131860000D01*
X156655437Y-132084375D01*
X156710702Y-132302612D01*
X156710703Y-132302613D01*
X156801141Y-132508793D01*
X156924275Y-132697265D01*
X156924279Y-132697270D01*
X157076762Y-132862908D01*
X157131331Y-132905381D01*
X157254424Y-133001189D01*
X157287680Y-133019186D01*
X157338071Y-133069200D01*
X157353423Y-133138516D01*
X157328862Y-133205129D01*
X157287680Y-133240813D01*
X157254426Y-133258810D01*
X157254424Y-133258811D01*
X157076762Y-133397091D01*
X156924279Y-133562729D01*
X156924275Y-133562734D01*
X156801141Y-133751206D01*
X156710703Y-133957386D01*
X156710702Y-133957387D01*
X156655437Y-134175624D01*
X156655436Y-134175630D01*
X156655436Y-134175632D01*
X156636844Y-134400000D01*
X156643757Y-134483432D01*
X156655437Y-134624375D01*
X156710702Y-134842612D01*
X156710703Y-134842613D01*
X156801141Y-135048793D01*
X156924275Y-135237265D01*
X156924279Y-135237270D01*
X157052539Y-135376596D01*
X157071968Y-135397701D01*
X157076762Y-135402908D01*
X157131331Y-135445381D01*
X157254424Y-135541189D01*
X157287680Y-135559186D01*
X157338071Y-135609200D01*
X157353423Y-135678516D01*
X157328862Y-135745129D01*
X157287680Y-135780813D01*
X157254426Y-135798810D01*
X157254424Y-135798811D01*
X157076762Y-135937091D01*
X156924279Y-136102729D01*
X156924275Y-136102734D01*
X156801141Y-136291206D01*
X156710703Y-136497386D01*
X156710702Y-136497387D01*
X156655437Y-136715624D01*
X156636844Y-136940000D01*
X156655437Y-137164375D01*
X156710702Y-137382612D01*
X156710703Y-137382613D01*
X156801141Y-137588793D01*
X156924275Y-137777265D01*
X156924279Y-137777270D01*
X157076762Y-137942908D01*
X157131331Y-137985381D01*
X157254424Y-138081189D01*
X157287680Y-138099186D01*
X157338071Y-138149200D01*
X157353423Y-138218516D01*
X157328862Y-138285129D01*
X157287680Y-138320813D01*
X157254426Y-138338810D01*
X157254424Y-138338811D01*
X157076762Y-138477091D01*
X156924279Y-138642729D01*
X156924275Y-138642734D01*
X156801141Y-138831206D01*
X156710703Y-139037386D01*
X156710702Y-139037387D01*
X156655437Y-139255624D01*
X156655436Y-139255630D01*
X156655436Y-139255632D01*
X156636844Y-139480000D01*
X156652836Y-139672993D01*
X156655437Y-139704375D01*
X156710702Y-139922612D01*
X156710703Y-139922613D01*
X156710704Y-139922616D01*
X156801140Y-140128791D01*
X156801141Y-140128793D01*
X156924275Y-140317265D01*
X156924279Y-140317270D01*
X157076762Y-140482908D01*
X157131331Y-140525381D01*
X157254424Y-140621189D01*
X157287680Y-140639186D01*
X157338071Y-140689200D01*
X157353423Y-140758516D01*
X157328862Y-140825129D01*
X157287680Y-140860813D01*
X157254426Y-140878810D01*
X157254424Y-140878811D01*
X157076762Y-141017091D01*
X156924279Y-141182729D01*
X156924275Y-141182734D01*
X156801141Y-141371206D01*
X156710703Y-141577386D01*
X156710702Y-141577387D01*
X156655437Y-141795624D01*
X156655436Y-141795630D01*
X156655436Y-141795632D01*
X156636844Y-142020000D01*
X156652836Y-142212993D01*
X156655437Y-142244375D01*
X156710702Y-142462612D01*
X156710703Y-142462613D01*
X156710704Y-142462616D01*
X156801140Y-142668791D01*
X156801141Y-142668793D01*
X156924275Y-142857265D01*
X156924279Y-142857270D01*
X157076762Y-143022908D01*
X157131331Y-143065381D01*
X157254424Y-143161189D01*
X157287680Y-143179186D01*
X157338071Y-143229200D01*
X157353423Y-143298516D01*
X157328862Y-143365129D01*
X157287680Y-143400813D01*
X157254426Y-143418810D01*
X157254424Y-143418811D01*
X157076762Y-143557091D01*
X156924279Y-143722729D01*
X156924275Y-143722734D01*
X156801141Y-143911206D01*
X156710703Y-144117386D01*
X156710702Y-144117387D01*
X156655437Y-144335624D01*
X156655436Y-144335630D01*
X156655436Y-144335632D01*
X156636844Y-144560000D01*
X156652836Y-144752993D01*
X156655437Y-144784375D01*
X156710702Y-145002612D01*
X156710703Y-145002613D01*
X156710704Y-145002616D01*
X156801140Y-145208791D01*
X156801141Y-145208793D01*
X156924275Y-145397265D01*
X156924279Y-145397270D01*
X157076762Y-145562908D01*
X157118896Y-145595702D01*
X157254424Y-145701189D01*
X157287680Y-145719186D01*
X157338071Y-145769200D01*
X157353423Y-145838516D01*
X157328862Y-145905129D01*
X157287680Y-145940813D01*
X157254426Y-145958810D01*
X157254424Y-145958811D01*
X157076762Y-146097091D01*
X156924279Y-146262729D01*
X156924275Y-146262734D01*
X156801141Y-146451206D01*
X156710703Y-146657386D01*
X156710702Y-146657387D01*
X156655437Y-146875624D01*
X156655436Y-146875630D01*
X156655436Y-146875632D01*
X156636844Y-147100000D01*
X156653997Y-147307007D01*
X156655437Y-147324375D01*
X156710702Y-147542612D01*
X156710703Y-147542613D01*
X156710704Y-147542616D01*
X156801140Y-147748791D01*
X156801141Y-147748793D01*
X156924275Y-147937265D01*
X156924279Y-147937270D01*
X156984704Y-148002908D01*
X157070588Y-148096202D01*
X157076762Y-148102908D01*
X157125406Y-148140769D01*
X157254424Y-148241189D01*
X157452426Y-148348342D01*
X157452427Y-148348342D01*
X157452428Y-148348343D01*
X157482012Y-148358499D01*
X157665365Y-148421444D01*
X157887431Y-148458500D01*
X157887435Y-148458500D01*
X158112565Y-148458500D01*
X158112569Y-148458500D01*
X158334635Y-148421444D01*
X158547574Y-148348342D01*
X158745576Y-148241189D01*
X158923240Y-148102906D01*
X159075722Y-147937268D01*
X159198860Y-147748791D01*
X159289296Y-147542616D01*
X159344564Y-147324368D01*
X159363156Y-147100000D01*
X159344564Y-146875632D01*
X159319241Y-146775632D01*
X159289297Y-146657387D01*
X159289296Y-146657386D01*
X159289296Y-146657384D01*
X159198860Y-146451209D01*
X159192140Y-146440924D01*
X159075724Y-146262734D01*
X159075720Y-146262729D01*
X158949408Y-146125520D01*
X158923240Y-146097094D01*
X158923239Y-146097093D01*
X158923237Y-146097091D01*
X158794761Y-145997094D01*
X158745576Y-145958811D01*
X158712319Y-145940813D01*
X158661929Y-145890802D01*
X158646576Y-145821485D01*
X158671136Y-145754872D01*
X158712320Y-145719186D01*
X158745576Y-145701189D01*
X158923240Y-145562906D01*
X159075722Y-145397268D01*
X159198860Y-145208791D01*
X159289296Y-145002616D01*
X159344564Y-144784368D01*
X159363156Y-144560000D01*
X159344564Y-144335632D01*
X159323637Y-144252993D01*
X159289297Y-144117387D01*
X159289296Y-144117386D01*
X159289296Y-144117384D01*
X159198860Y-143911209D01*
X159182431Y-143886062D01*
X159075724Y-143722734D01*
X159075720Y-143722729D01*
X158959570Y-143596559D01*
X158923240Y-143557094D01*
X158923239Y-143557093D01*
X158923237Y-143557091D01*
X158841382Y-143493381D01*
X158745576Y-143418811D01*
X158712319Y-143400813D01*
X158661929Y-143350802D01*
X158646576Y-143281485D01*
X158671136Y-143214872D01*
X158712320Y-143179186D01*
X158745576Y-143161189D01*
X158923240Y-143022906D01*
X159075722Y-142857268D01*
X159198860Y-142668791D01*
X159289296Y-142462616D01*
X159344564Y-142244368D01*
X159363156Y-142020000D01*
X159344564Y-141795632D01*
X159289338Y-141577550D01*
X159289297Y-141577387D01*
X159289296Y-141577386D01*
X159289296Y-141577384D01*
X159198860Y-141371209D01*
X159192140Y-141360924D01*
X159075724Y-141182734D01*
X159075720Y-141182729D01*
X158959570Y-141056559D01*
X158923240Y-141017094D01*
X158923239Y-141017093D01*
X158923237Y-141017091D01*
X158841382Y-140953381D01*
X158745576Y-140878811D01*
X158712319Y-140860813D01*
X158661929Y-140810802D01*
X158646576Y-140741485D01*
X158671136Y-140674872D01*
X158712320Y-140639186D01*
X158745576Y-140621189D01*
X158923240Y-140482906D01*
X159075722Y-140317268D01*
X159198860Y-140128791D01*
X159289296Y-139922616D01*
X159344564Y-139704368D01*
X159363156Y-139480000D01*
X159344564Y-139255632D01*
X159289338Y-139037550D01*
X159289297Y-139037387D01*
X159289296Y-139037386D01*
X159289296Y-139037384D01*
X159198860Y-138831209D01*
X159192140Y-138820924D01*
X159075724Y-138642734D01*
X159075720Y-138642729D01*
X158959570Y-138516559D01*
X158923240Y-138477094D01*
X158923239Y-138477093D01*
X158923237Y-138477091D01*
X158841382Y-138413381D01*
X158745576Y-138338811D01*
X158712319Y-138320813D01*
X158661929Y-138270802D01*
X158646576Y-138201485D01*
X158671136Y-138134872D01*
X158712320Y-138099186D01*
X158745576Y-138081189D01*
X158923240Y-137942906D01*
X159075722Y-137777268D01*
X159198860Y-137588791D01*
X159289296Y-137382616D01*
X159344564Y-137164368D01*
X159363156Y-136940000D01*
X159344564Y-136715632D01*
X159289296Y-136497384D01*
X159198860Y-136291209D01*
X159135291Y-136193909D01*
X159075724Y-136102734D01*
X159075720Y-136102729D01*
X158923237Y-135937091D01*
X158841382Y-135873381D01*
X158745576Y-135798811D01*
X158712319Y-135780813D01*
X158661929Y-135730802D01*
X158646576Y-135661485D01*
X158671136Y-135594872D01*
X158712320Y-135559186D01*
X158745576Y-135541189D01*
X158923240Y-135402906D01*
X159075722Y-135237268D01*
X159198860Y-135048791D01*
X159289296Y-134842616D01*
X159344564Y-134624368D01*
X159363156Y-134400000D01*
X159344564Y-134175632D01*
X159289296Y-133957384D01*
X159198860Y-133751209D01*
X159192140Y-133740924D01*
X159075724Y-133562734D01*
X159075720Y-133562729D01*
X158923237Y-133397091D01*
X158841382Y-133333381D01*
X158745576Y-133258811D01*
X158712319Y-133240813D01*
X158661929Y-133190802D01*
X158646576Y-133121485D01*
X158671136Y-133054872D01*
X158712320Y-133019186D01*
X158745576Y-133001189D01*
X158923240Y-132862906D01*
X159075722Y-132697268D01*
X159198860Y-132508791D01*
X159289296Y-132302616D01*
X159344564Y-132084368D01*
X159363156Y-131860000D01*
X159344564Y-131635632D01*
X159289296Y-131417384D01*
X159198860Y-131211209D01*
X159192140Y-131200924D01*
X159075724Y-131022734D01*
X159075720Y-131022729D01*
X158923237Y-130857091D01*
X158841382Y-130793381D01*
X158745576Y-130718811D01*
X158712319Y-130700813D01*
X158661929Y-130650802D01*
X158646576Y-130581485D01*
X158671136Y-130514872D01*
X158712320Y-130479186D01*
X158745576Y-130461189D01*
X158923240Y-130322906D01*
X159075722Y-130157268D01*
X159198860Y-129968791D01*
X159289296Y-129762616D01*
X159344564Y-129544368D01*
X159363156Y-129320000D01*
X159344564Y-129095632D01*
X159289296Y-128877384D01*
X159198860Y-128671209D01*
X159192140Y-128660924D01*
X159075724Y-128482734D01*
X159075720Y-128482729D01*
X158923237Y-128317091D01*
X158841382Y-128253381D01*
X158745576Y-128178811D01*
X158711792Y-128160528D01*
X158661402Y-128110516D01*
X158646050Y-128041199D01*
X158670610Y-127974586D01*
X158711793Y-127938901D01*
X158745300Y-127920767D01*
X158745301Y-127920767D01*
X158922902Y-127782534D01*
X159075325Y-127616958D01*
X159198419Y-127428548D01*
X159288820Y-127222456D01*
X159288823Y-127222449D01*
X159336544Y-127034000D01*
X158430703Y-127034000D01*
X158465925Y-126972993D01*
X158500000Y-126845826D01*
X158500000Y-126714174D01*
X158465925Y-126587007D01*
X158430703Y-126526000D01*
X159336544Y-126526000D01*
X159336544Y-126525999D01*
X159288823Y-126337550D01*
X159288820Y-126337543D01*
X159198419Y-126131451D01*
X159075325Y-125943041D01*
X158922902Y-125777465D01*
X158745301Y-125639232D01*
X158745300Y-125639231D01*
X158711791Y-125621097D01*
X158661401Y-125571083D01*
X158646050Y-125501766D01*
X158670612Y-125435153D01*
X158711790Y-125399472D01*
X158745576Y-125381189D01*
X158923240Y-125242906D01*
X159075722Y-125077268D01*
X159198860Y-124888791D01*
X159289296Y-124682616D01*
X159344564Y-124464368D01*
X159363156Y-124240000D01*
X159344564Y-124015632D01*
X159289296Y-123797384D01*
X159198860Y-123591209D01*
X159192140Y-123580924D01*
X159075724Y-123402734D01*
X159075720Y-123402729D01*
X158923237Y-123237091D01*
X158841382Y-123173381D01*
X158745576Y-123098811D01*
X158712319Y-123080813D01*
X158661929Y-123030802D01*
X158646576Y-122961485D01*
X158671136Y-122894872D01*
X158712320Y-122859186D01*
X158712847Y-122858901D01*
X158745576Y-122841189D01*
X158923240Y-122702906D01*
X159075722Y-122537268D01*
X159198860Y-122348791D01*
X159289296Y-122142616D01*
X159344564Y-121924368D01*
X159363156Y-121700000D01*
X159344564Y-121475632D01*
X159289338Y-121257550D01*
X159289297Y-121257387D01*
X159289296Y-121257386D01*
X159289296Y-121257384D01*
X159198860Y-121051209D01*
X159192140Y-121040924D01*
X159075724Y-120862734D01*
X159075720Y-120862729D01*
X158959570Y-120736559D01*
X158923240Y-120697094D01*
X158923239Y-120697093D01*
X158923237Y-120697091D01*
X158841382Y-120633381D01*
X158745576Y-120558811D01*
X158712319Y-120540813D01*
X158661929Y-120490802D01*
X158646576Y-120421485D01*
X158671136Y-120354872D01*
X158712320Y-120319186D01*
X158745576Y-120301189D01*
X158923240Y-120162906D01*
X159075722Y-119997268D01*
X159198860Y-119808791D01*
X159289296Y-119602616D01*
X159344564Y-119384368D01*
X159363156Y-119160000D01*
X159344564Y-118935632D01*
X159289296Y-118717384D01*
X159198860Y-118511209D01*
X159192140Y-118500924D01*
X159075724Y-118322734D01*
X159075720Y-118322729D01*
X158923237Y-118157091D01*
X158841382Y-118093381D01*
X158745576Y-118018811D01*
X158712319Y-118000813D01*
X158661929Y-117950802D01*
X158646576Y-117881485D01*
X158671136Y-117814872D01*
X158712320Y-117779186D01*
X158745576Y-117761189D01*
X158923240Y-117622906D01*
X159075722Y-117457268D01*
X159198860Y-117268791D01*
X159289296Y-117062616D01*
X159344564Y-116844368D01*
X159363156Y-116620000D01*
X159344564Y-116395632D01*
X159344562Y-116395624D01*
X159289297Y-116177387D01*
X159289296Y-116177386D01*
X159289296Y-116177384D01*
X159198860Y-115971209D01*
X159160304Y-115912195D01*
X159075724Y-115782734D01*
X159075720Y-115782729D01*
X158923237Y-115617091D01*
X158841382Y-115553381D01*
X158745576Y-115478811D01*
X158712319Y-115460813D01*
X158661929Y-115410802D01*
X158646576Y-115341485D01*
X158671136Y-115274872D01*
X158712320Y-115239186D01*
X158745576Y-115221189D01*
X158923240Y-115082906D01*
X159075722Y-114917268D01*
X159198860Y-114728791D01*
X159289296Y-114522616D01*
X159344564Y-114304368D01*
X159363156Y-114080000D01*
X159344564Y-113855632D01*
X159289296Y-113637384D01*
X159198860Y-113431209D01*
X159121105Y-113312196D01*
X159075724Y-113242734D01*
X159075720Y-113242729D01*
X158923237Y-113077091D01*
X158802904Y-112983432D01*
X158745576Y-112938811D01*
X158712319Y-112920813D01*
X158661929Y-112870802D01*
X158646576Y-112801485D01*
X158671136Y-112734872D01*
X158712320Y-112699186D01*
X158745576Y-112681189D01*
X158923240Y-112542906D01*
X159075722Y-112377268D01*
X159198860Y-112188791D01*
X159289296Y-111982616D01*
X159344564Y-111764368D01*
X159363156Y-111540000D01*
X159344564Y-111315632D01*
X159324639Y-111236951D01*
X159289297Y-111097387D01*
X159289296Y-111097386D01*
X159289296Y-111097384D01*
X159198860Y-110891209D01*
X159176047Y-110856291D01*
X159075724Y-110702734D01*
X159075719Y-110702729D01*
X158932524Y-110547179D01*
X158901103Y-110483514D01*
X158909090Y-110412968D01*
X158953948Y-110357939D01*
X158981183Y-110343789D01*
X159096204Y-110300889D01*
X159213261Y-110213261D01*
X159300889Y-110096204D01*
X159351989Y-109959201D01*
X159358500Y-109898638D01*
X159358500Y-108101362D01*
X159358499Y-108101350D01*
X159351990Y-108040803D01*
X159351988Y-108040795D01*
X159300889Y-107903797D01*
X159300887Y-107903792D01*
X159213261Y-107786738D01*
X159096207Y-107699112D01*
X159096202Y-107699110D01*
X158959204Y-107648011D01*
X158959196Y-107648009D01*
X158898649Y-107641500D01*
X158898638Y-107641500D01*
X157101362Y-107641500D01*
X157101350Y-107641500D01*
X157040803Y-107648009D01*
X157040795Y-107648011D01*
X156903797Y-107699110D01*
X156903792Y-107699112D01*
X156786738Y-107786738D01*
X156699112Y-107903792D01*
X156699110Y-107903797D01*
X156648011Y-108040795D01*
X156648009Y-108040803D01*
X156641500Y-108101350D01*
X156641500Y-109898649D01*
X156648009Y-109959196D01*
X156648011Y-109959204D01*
X156699110Y-110096202D01*
X156699112Y-110096207D01*
X156786738Y-110213261D01*
X156903791Y-110300886D01*
X156903792Y-110300886D01*
X156903796Y-110300889D01*
X157018810Y-110343787D01*
X157075642Y-110386332D01*
X157100453Y-110452852D01*
X157085362Y-110522226D01*
X157067475Y-110547179D01*
X156924280Y-110702729D01*
X156924275Y-110702734D01*
X156801141Y-110891206D01*
X156710703Y-111097386D01*
X156710702Y-111097387D01*
X156655437Y-111315624D01*
X156655436Y-111315630D01*
X156655436Y-111315632D01*
X156636844Y-111540000D01*
X141303561Y-111540000D01*
X141299739Y-111501191D01*
X141299738Y-111501189D01*
X141299738Y-111501185D01*
X141242071Y-111311082D01*
X141148425Y-111135882D01*
X141022398Y-110982318D01*
X140868834Y-110856291D01*
X140693634Y-110762645D01*
X140503531Y-110704978D01*
X140503530Y-110704977D01*
X140503524Y-110704976D01*
X140305833Y-110685506D01*
X140305827Y-110685506D01*
X140108135Y-110704976D01*
X139918025Y-110762645D01*
X139742825Y-110856291D01*
X139589262Y-110982318D01*
X139463235Y-111135881D01*
X139369589Y-111311081D01*
X139311920Y-111501191D01*
X139292450Y-111698882D01*
X118217459Y-111698882D01*
X118139040Y-111563056D01*
X118139038Y-111563054D01*
X118139034Y-111563048D01*
X118011255Y-111421135D01*
X117856752Y-111308882D01*
X117682288Y-111231206D01*
X117495487Y-111191500D01*
X117304513Y-111191500D01*
X117117711Y-111231206D01*
X116943247Y-111308882D01*
X116788744Y-111421135D01*
X116660965Y-111563048D01*
X116660958Y-111563058D01*
X116565476Y-111728438D01*
X116565473Y-111728444D01*
X116553798Y-111764375D01*
X116506457Y-111910072D01*
X116486496Y-112100000D01*
X103237807Y-112100000D01*
X103289296Y-111982616D01*
X103344564Y-111764368D01*
X103363156Y-111540000D01*
X103344564Y-111315632D01*
X103324639Y-111236951D01*
X103289297Y-111097387D01*
X103289296Y-111097386D01*
X103289296Y-111097384D01*
X103198860Y-110891209D01*
X103176047Y-110856291D01*
X103075724Y-110702734D01*
X103075719Y-110702729D01*
X103073207Y-110700000D01*
X122486496Y-110700000D01*
X122506457Y-110889927D01*
X122506873Y-110891206D01*
X122565473Y-111071556D01*
X122565476Y-111071561D01*
X122660958Y-111236941D01*
X122660965Y-111236951D01*
X122788744Y-111378864D01*
X122788747Y-111378866D01*
X122943248Y-111491118D01*
X123117712Y-111568794D01*
X123304513Y-111608500D01*
X123495487Y-111608500D01*
X123682288Y-111568794D01*
X123856752Y-111491118D01*
X124011253Y-111378866D01*
X124068189Y-111315632D01*
X124139034Y-111236951D01*
X124139035Y-111236949D01*
X124139040Y-111236944D01*
X124234527Y-111071556D01*
X124293542Y-110889928D01*
X124313504Y-110700000D01*
X124293542Y-110510072D01*
X124234527Y-110328444D01*
X124139040Y-110163056D01*
X124139038Y-110163054D01*
X124139034Y-110163048D01*
X124011255Y-110021135D01*
X123856752Y-109908882D01*
X123682288Y-109831206D01*
X123495487Y-109791500D01*
X123304513Y-109791500D01*
X123117711Y-109831206D01*
X122943247Y-109908882D01*
X122788744Y-110021135D01*
X122660965Y-110163048D01*
X122660958Y-110163058D01*
X122565476Y-110328438D01*
X122565473Y-110328444D01*
X122555707Y-110358500D01*
X122506457Y-110510072D01*
X122486496Y-110700000D01*
X103073207Y-110700000D01*
X102932524Y-110547179D01*
X102901103Y-110483514D01*
X102909090Y-110412968D01*
X102953948Y-110357939D01*
X102981183Y-110343789D01*
X103096204Y-110300889D01*
X103213261Y-110213261D01*
X103300889Y-110096204D01*
X103351989Y-109959201D01*
X103358500Y-109898638D01*
X103358500Y-108101362D01*
X103358499Y-108101350D01*
X103351990Y-108040803D01*
X103351988Y-108040795D01*
X103300889Y-107903797D01*
X103300887Y-107903792D01*
X103213261Y-107786738D01*
X103096207Y-107699112D01*
X103096202Y-107699110D01*
X102959204Y-107648011D01*
X102959196Y-107648009D01*
X102898649Y-107641500D01*
X102898638Y-107641500D01*
X101101362Y-107641500D01*
X101101350Y-107641500D01*
X101040803Y-107648009D01*
X101040795Y-107648011D01*
X100903797Y-107699110D01*
X100903792Y-107699112D01*
X100786738Y-107786738D01*
X100699112Y-107903792D01*
X100699110Y-107903797D01*
X100648011Y-108040795D01*
X100648009Y-108040803D01*
X100641500Y-108101350D01*
X100641500Y-109898649D01*
X100648009Y-109959196D01*
X100648011Y-109959204D01*
X100699110Y-110096202D01*
X100699112Y-110096207D01*
X100786738Y-110213261D01*
X100903791Y-110300886D01*
X100903792Y-110300886D01*
X100903796Y-110300889D01*
X101018810Y-110343787D01*
X101075642Y-110386332D01*
X101100453Y-110452852D01*
X101085362Y-110522226D01*
X101067475Y-110547179D01*
X100924280Y-110702729D01*
X100924275Y-110702734D01*
X100801141Y-110891206D01*
X100710703Y-111097386D01*
X100710702Y-111097387D01*
X100655437Y-111315624D01*
X100655436Y-111315630D01*
X100655436Y-111315632D01*
X100636844Y-111540000D01*
X100000000Y-111540000D01*
X100000000Y-106699996D01*
X117686620Y-106699996D01*
X117686620Y-106700003D01*
X117706090Y-106897694D01*
X117706091Y-106897700D01*
X117706092Y-106897701D01*
X117763759Y-107087804D01*
X117857405Y-107263004D01*
X117983432Y-107416568D01*
X118136996Y-107542595D01*
X118312196Y-107636241D01*
X118502299Y-107693908D01*
X118502303Y-107693908D01*
X118502305Y-107693909D01*
X118699997Y-107713380D01*
X118700000Y-107713380D01*
X118700003Y-107713380D01*
X118897694Y-107693909D01*
X118897695Y-107693908D01*
X118897701Y-107693908D01*
X119087804Y-107636241D01*
X119263004Y-107542595D01*
X119416568Y-107416568D01*
X119542595Y-107263004D01*
X119636241Y-107087804D01*
X119693908Y-106897701D01*
X119713380Y-106700000D01*
X119693908Y-106502299D01*
X119636241Y-106312196D01*
X119542595Y-106136996D01*
X119416568Y-105983432D01*
X119263004Y-105857405D01*
X119087804Y-105763759D01*
X118897701Y-105706092D01*
X118897700Y-105706091D01*
X118897694Y-105706090D01*
X118700003Y-105686620D01*
X118699997Y-105686620D01*
X118502305Y-105706090D01*
X118312195Y-105763759D01*
X118136995Y-105857405D01*
X117983432Y-105983432D01*
X117857405Y-106136995D01*
X117763759Y-106312195D01*
X117706090Y-106502305D01*
X117686620Y-106699996D01*
X100000000Y-106699996D01*
X100000000Y-100000000D01*
X118386496Y-100000000D01*
X118406457Y-100189927D01*
X118425505Y-100248548D01*
X118465473Y-100371556D01*
X118465476Y-100371561D01*
X118560958Y-100536941D01*
X118560965Y-100536951D01*
X118688744Y-100678864D01*
X118688747Y-100678866D01*
X118843248Y-100791118D01*
X119017712Y-100868794D01*
X119204513Y-100908500D01*
X119395487Y-100908500D01*
X119582288Y-100868794D01*
X119756752Y-100791118D01*
X119911253Y-100678866D01*
X119911255Y-100678864D01*
X120039034Y-100536951D01*
X120039035Y-100536949D01*
X120039040Y-100536944D01*
X120134527Y-100371556D01*
X120193542Y-100189928D01*
X120202994Y-100100000D01*
X127186496Y-100100000D01*
X127206457Y-100289927D01*
X127230482Y-100363866D01*
X127265473Y-100471556D01*
X127265476Y-100471561D01*
X127360958Y-100636941D01*
X127360965Y-100636951D01*
X127488744Y-100778864D01*
X127549999Y-100823368D01*
X127643248Y-100891118D01*
X127817712Y-100968794D01*
X128004513Y-101008500D01*
X128195487Y-101008500D01*
X128382288Y-100968794D01*
X128556752Y-100891118D01*
X128711253Y-100778866D01*
X128745557Y-100740768D01*
X128839034Y-100636951D01*
X128839035Y-100636949D01*
X128839040Y-100636944D01*
X128934527Y-100471556D01*
X128993542Y-100289928D01*
X129013504Y-100100000D01*
X128993542Y-99910072D01*
X128990269Y-99900000D01*
X131886496Y-99900000D01*
X131906457Y-100089927D01*
X131936526Y-100182470D01*
X131965473Y-100271556D01*
X131965476Y-100271561D01*
X132060958Y-100436941D01*
X132060965Y-100436951D01*
X132188744Y-100578864D01*
X132188747Y-100578866D01*
X132343248Y-100691118D01*
X132517712Y-100768794D01*
X132704513Y-100808500D01*
X132895487Y-100808500D01*
X133082288Y-100768794D01*
X133256752Y-100691118D01*
X133411253Y-100578866D01*
X133411255Y-100578864D01*
X133539034Y-100436951D01*
X133539035Y-100436949D01*
X133539040Y-100436944D01*
X133634527Y-100271556D01*
X133693542Y-100089928D01*
X133713504Y-99900000D01*
X133693542Y-99710072D01*
X133634527Y-99528444D01*
X133539040Y-99363056D01*
X133539038Y-99363054D01*
X133539034Y-99363048D01*
X133411255Y-99221135D01*
X133256752Y-99108882D01*
X133082288Y-99031206D01*
X132895487Y-98991500D01*
X132704513Y-98991500D01*
X132517711Y-99031206D01*
X132343247Y-99108882D01*
X132188744Y-99221135D01*
X132060965Y-99363048D01*
X132060958Y-99363058D01*
X131965476Y-99528438D01*
X131965473Y-99528445D01*
X131906457Y-99710072D01*
X131886496Y-99900000D01*
X128990269Y-99900000D01*
X128934527Y-99728444D01*
X128839040Y-99563056D01*
X128839038Y-99563054D01*
X128839034Y-99563048D01*
X128711255Y-99421135D01*
X128556752Y-99308882D01*
X128382288Y-99231206D01*
X128195487Y-99191500D01*
X128004513Y-99191500D01*
X127817711Y-99231206D01*
X127643247Y-99308882D01*
X127488744Y-99421135D01*
X127360965Y-99563048D01*
X127360958Y-99563058D01*
X127265476Y-99728438D01*
X127265473Y-99728445D01*
X127206457Y-99910072D01*
X127186496Y-100100000D01*
X120202994Y-100100000D01*
X120213504Y-100000000D01*
X120193542Y-99810072D01*
X120134527Y-99628444D01*
X120039040Y-99463056D01*
X120039038Y-99463054D01*
X120039034Y-99463048D01*
X119911255Y-99321135D01*
X119756752Y-99208882D01*
X119582288Y-99131206D01*
X119395487Y-99091500D01*
X119204513Y-99091500D01*
X119017711Y-99131206D01*
X118843247Y-99208882D01*
X118688744Y-99321135D01*
X118560965Y-99463048D01*
X118560958Y-99463058D01*
X118481895Y-99600000D01*
X118465473Y-99628444D01*
X118460875Y-99642595D01*
X118406457Y-99810072D01*
X118386496Y-100000000D01*
X100000000Y-100000000D01*
X100000000Y-98799996D01*
X139511620Y-98799996D01*
X139511620Y-98800003D01*
X139531090Y-98997694D01*
X139531091Y-98997700D01*
X139531092Y-98997701D01*
X139588759Y-99187804D01*
X139682405Y-99363004D01*
X139808432Y-99516568D01*
X139961996Y-99642595D01*
X140137196Y-99736241D01*
X140327299Y-99793908D01*
X140327303Y-99793908D01*
X140327305Y-99793909D01*
X140524997Y-99813380D01*
X140525000Y-99813380D01*
X140525003Y-99813380D01*
X140722694Y-99793909D01*
X140722695Y-99793908D01*
X140722701Y-99793908D01*
X140912804Y-99736241D01*
X141088004Y-99642595D01*
X141139906Y-99600000D01*
X155637346Y-99600000D01*
X155655932Y-99824292D01*
X155711176Y-100042449D01*
X155711179Y-100042456D01*
X155801580Y-100248548D01*
X155876921Y-100363866D01*
X156515841Y-99724946D01*
X156534075Y-99792993D01*
X156599901Y-99907007D01*
X156692993Y-100000099D01*
X156807007Y-100065925D01*
X156875051Y-100084157D01*
X156234310Y-100724898D01*
X156254697Y-100740766D01*
X156254701Y-100740768D01*
X156452628Y-100847882D01*
X156452630Y-100847883D01*
X156665483Y-100920955D01*
X156665490Y-100920957D01*
X156887477Y-100958000D01*
X157112523Y-100958000D01*
X157334509Y-100920957D01*
X157334516Y-100920955D01*
X157547369Y-100847883D01*
X157547371Y-100847881D01*
X157745298Y-100740769D01*
X157765688Y-100724898D01*
X157124947Y-100084157D01*
X157192993Y-100065925D01*
X157307007Y-100000099D01*
X157400099Y-99907007D01*
X157465925Y-99792993D01*
X157484158Y-99724947D01*
X158123077Y-100363866D01*
X158198419Y-100248548D01*
X158288820Y-100042456D01*
X158288823Y-100042449D01*
X158344067Y-99824292D01*
X158362653Y-99600000D01*
X158344067Y-99375707D01*
X158288823Y-99157550D01*
X158288820Y-99157543D01*
X158198419Y-98951451D01*
X158123077Y-98836132D01*
X157484157Y-99475051D01*
X157465925Y-99407007D01*
X157400099Y-99292993D01*
X157307007Y-99199901D01*
X157192993Y-99134075D01*
X157124947Y-99115841D01*
X157765688Y-98475100D01*
X157765687Y-98475099D01*
X157745308Y-98459237D01*
X157745298Y-98459231D01*
X157547371Y-98352117D01*
X157547369Y-98352116D01*
X157334516Y-98279044D01*
X157334509Y-98279042D01*
X157112523Y-98242000D01*
X156887477Y-98242000D01*
X156665490Y-98279042D01*
X156665483Y-98279044D01*
X156452630Y-98352116D01*
X156452628Y-98352118D01*
X156254700Y-98459230D01*
X156254693Y-98459235D01*
X156234311Y-98475099D01*
X156234310Y-98475100D01*
X156875052Y-99115842D01*
X156807007Y-99134075D01*
X156692993Y-99199901D01*
X156599901Y-99292993D01*
X156534075Y-99407007D01*
X156515842Y-99475052D01*
X155876921Y-98836131D01*
X155876920Y-98836132D01*
X155801586Y-98951439D01*
X155801579Y-98951453D01*
X155711179Y-99157543D01*
X155711176Y-99157550D01*
X155655932Y-99375707D01*
X155637346Y-99600000D01*
X141139906Y-99600000D01*
X141241568Y-99516568D01*
X141367595Y-99363004D01*
X141461241Y-99187804D01*
X141518908Y-98997701D01*
X141523464Y-98951451D01*
X141538380Y-98800003D01*
X141538380Y-98799996D01*
X141518909Y-98602305D01*
X141518908Y-98602303D01*
X141518908Y-98602299D01*
X141461241Y-98412196D01*
X141367595Y-98236996D01*
X141241568Y-98083432D01*
X141088004Y-97957405D01*
X140912804Y-97863759D01*
X140722701Y-97806092D01*
X140722700Y-97806091D01*
X140722694Y-97806090D01*
X140525003Y-97786620D01*
X140524997Y-97786620D01*
X140327305Y-97806090D01*
X140137195Y-97863759D01*
X139961995Y-97957405D01*
X139808432Y-98083432D01*
X139682405Y-98236995D01*
X139588759Y-98412195D01*
X139531090Y-98602305D01*
X139511620Y-98799996D01*
X100000000Y-98799996D01*
X100000000Y-97099996D01*
X120486620Y-97099996D01*
X120486620Y-97100003D01*
X120506090Y-97297694D01*
X120506091Y-97297700D01*
X120506092Y-97297701D01*
X120563759Y-97487804D01*
X120657405Y-97663004D01*
X120783432Y-97816568D01*
X120936996Y-97942595D01*
X121112196Y-98036241D01*
X121302299Y-98093908D01*
X121302303Y-98093908D01*
X121302305Y-98093909D01*
X121499997Y-98113380D01*
X121500000Y-98113380D01*
X121500003Y-98113380D01*
X121697694Y-98093909D01*
X121697695Y-98093908D01*
X121697701Y-98093908D01*
X121887804Y-98036241D01*
X122063004Y-97942595D01*
X122216568Y-97816568D01*
X122342595Y-97663004D01*
X122436241Y-97487804D01*
X122493908Y-97297701D01*
X122513380Y-97100000D01*
X122493908Y-96902299D01*
X122436241Y-96712196D01*
X122342595Y-96536996D01*
X122216568Y-96383432D01*
X122063004Y-96257405D01*
X121887804Y-96163759D01*
X121697701Y-96106092D01*
X121697700Y-96106091D01*
X121697694Y-96106090D01*
X121500003Y-96086620D01*
X121499997Y-96086620D01*
X121302305Y-96106090D01*
X121112195Y-96163759D01*
X120936995Y-96257405D01*
X120783432Y-96383432D01*
X120657405Y-96536995D01*
X120563759Y-96712195D01*
X120506090Y-96902305D01*
X120486620Y-97099996D01*
X100000000Y-97099996D01*
X100000000Y-93800000D01*
X104737346Y-93800000D01*
X104755932Y-94024292D01*
X104811176Y-94242449D01*
X104811179Y-94242456D01*
X104901580Y-94448548D01*
X104976921Y-94563866D01*
X105615841Y-93924946D01*
X105634075Y-93992993D01*
X105699901Y-94107007D01*
X105792993Y-94200099D01*
X105907007Y-94265925D01*
X105975051Y-94284157D01*
X105334310Y-94924898D01*
X105354697Y-94940766D01*
X105354701Y-94940768D01*
X105552628Y-95047882D01*
X105552630Y-95047883D01*
X105765483Y-95120955D01*
X105765490Y-95120957D01*
X105987477Y-95158000D01*
X106212523Y-95158000D01*
X106434509Y-95120957D01*
X106434516Y-95120955D01*
X106647369Y-95047883D01*
X106647371Y-95047881D01*
X106701759Y-95018448D01*
X125502147Y-95018448D01*
X125502147Y-95018455D01*
X125521617Y-95216146D01*
X125521618Y-95216152D01*
X125521619Y-95216153D01*
X125579286Y-95406256D01*
X125672932Y-95581456D01*
X125798959Y-95735020D01*
X125952523Y-95861047D01*
X126127723Y-95954693D01*
X126317826Y-96012360D01*
X126317830Y-96012360D01*
X126317832Y-96012361D01*
X126515524Y-96031832D01*
X126515527Y-96031832D01*
X126515530Y-96031832D01*
X126713221Y-96012361D01*
X126713222Y-96012360D01*
X126713228Y-96012360D01*
X126903331Y-95954693D01*
X127055461Y-95873377D01*
X127114857Y-95858500D01*
X132176914Y-95858500D01*
X132245035Y-95878502D01*
X132274312Y-95904565D01*
X132287506Y-95920642D01*
X132441070Y-96046669D01*
X132616270Y-96140315D01*
X132806373Y-96197982D01*
X132806377Y-96197982D01*
X132806379Y-96197983D01*
X133004071Y-96217454D01*
X133004074Y-96217454D01*
X133004077Y-96217454D01*
X133201768Y-96197983D01*
X133201769Y-96197982D01*
X133201775Y-96197982D01*
X133391878Y-96140315D01*
X133567078Y-96046669D01*
X133720642Y-95920642D01*
X133846669Y-95767078D01*
X133940315Y-95591878D01*
X133997982Y-95401775D01*
X134016265Y-95216153D01*
X134017454Y-95204077D01*
X134017454Y-95204070D01*
X133997983Y-95006379D01*
X133997982Y-95006377D01*
X133997982Y-95006373D01*
X133940315Y-94816270D01*
X133846669Y-94641070D01*
X133720642Y-94487506D01*
X133567078Y-94361479D01*
X133391878Y-94267833D01*
X133201775Y-94210166D01*
X133201774Y-94210165D01*
X133201768Y-94210164D01*
X133004077Y-94190694D01*
X133004071Y-94190694D01*
X132806379Y-94210164D01*
X132616269Y-94267833D01*
X132506283Y-94326622D01*
X132446887Y-94341500D01*
X127323901Y-94341500D01*
X127255780Y-94321498D01*
X127234799Y-94304589D01*
X127232099Y-94301889D01*
X127232095Y-94301884D01*
X127078531Y-94175857D01*
X126903331Y-94082211D01*
X126713228Y-94024544D01*
X126713227Y-94024543D01*
X126713221Y-94024542D01*
X126515530Y-94005072D01*
X126515524Y-94005072D01*
X126317832Y-94024542D01*
X126127722Y-94082211D01*
X125952522Y-94175857D01*
X125798959Y-94301884D01*
X125672932Y-94455447D01*
X125579286Y-94630647D01*
X125521617Y-94820757D01*
X125502147Y-95018448D01*
X106701759Y-95018448D01*
X106845298Y-94940769D01*
X106865688Y-94924898D01*
X106224947Y-94284157D01*
X106292993Y-94265925D01*
X106407007Y-94200099D01*
X106500099Y-94107007D01*
X106565925Y-93992993D01*
X106584158Y-93924947D01*
X107223077Y-94563866D01*
X107298419Y-94448548D01*
X107388820Y-94242456D01*
X107388823Y-94242449D01*
X107444067Y-94024292D01*
X107462653Y-93800000D01*
X107444067Y-93575707D01*
X107388823Y-93357550D01*
X107388820Y-93357543D01*
X107298419Y-93151451D01*
X107223077Y-93036132D01*
X106584157Y-93675051D01*
X106565925Y-93607007D01*
X106500099Y-93492993D01*
X106407007Y-93399901D01*
X106292993Y-93334075D01*
X106224947Y-93315841D01*
X106865688Y-92675100D01*
X106865687Y-92675099D01*
X106845308Y-92659237D01*
X106845298Y-92659231D01*
X106647371Y-92552117D01*
X106647369Y-92552116D01*
X106434516Y-92479044D01*
X106434509Y-92479042D01*
X106212523Y-92442000D01*
X105987477Y-92442000D01*
X105765490Y-92479042D01*
X105765483Y-92479044D01*
X105552630Y-92552116D01*
X105552628Y-92552118D01*
X105354700Y-92659230D01*
X105354693Y-92659235D01*
X105334311Y-92675099D01*
X105334310Y-92675100D01*
X105975052Y-93315842D01*
X105907007Y-93334075D01*
X105792993Y-93399901D01*
X105699901Y-93492993D01*
X105634075Y-93607007D01*
X105615842Y-93675052D01*
X104976921Y-93036131D01*
X104976920Y-93036132D01*
X104901586Y-93151439D01*
X104901579Y-93151453D01*
X104811179Y-93357543D01*
X104811176Y-93357550D01*
X104755932Y-93575707D01*
X104737346Y-93800000D01*
X100000000Y-93800000D01*
X100000000Y-91540000D01*
X155636844Y-91540000D01*
X155655437Y-91764375D01*
X155710702Y-91982612D01*
X155710703Y-91982613D01*
X155801141Y-92188793D01*
X155924275Y-92377265D01*
X155924279Y-92377270D01*
X156076762Y-92542908D01*
X156088594Y-92552117D01*
X156254424Y-92681189D01*
X156452426Y-92788342D01*
X156452427Y-92788342D01*
X156452428Y-92788343D01*
X156564227Y-92826723D01*
X156665365Y-92861444D01*
X156887431Y-92898500D01*
X156887435Y-92898500D01*
X157112565Y-92898500D01*
X157112569Y-92898500D01*
X157334635Y-92861444D01*
X157547574Y-92788342D01*
X157745576Y-92681189D01*
X157923240Y-92542906D01*
X158075722Y-92377268D01*
X158198860Y-92188791D01*
X158289296Y-91982616D01*
X158344564Y-91764368D01*
X158363156Y-91540000D01*
X158344564Y-91315632D01*
X158289296Y-91097384D01*
X158198860Y-90891209D01*
X158186019Y-90871554D01*
X158075724Y-90702734D01*
X158075719Y-90702729D01*
X157932524Y-90547179D01*
X157901103Y-90483514D01*
X157909090Y-90412968D01*
X157953948Y-90357939D01*
X157981183Y-90343789D01*
X158096204Y-90300889D01*
X158213261Y-90213261D01*
X158276754Y-90128445D01*
X158300887Y-90096207D01*
X158300887Y-90096206D01*
X158300889Y-90096204D01*
X158351989Y-89959201D01*
X158358500Y-89898638D01*
X158358500Y-88101362D01*
X158358499Y-88101350D01*
X158351990Y-88040803D01*
X158351988Y-88040795D01*
X158300889Y-87903797D01*
X158300887Y-87903792D01*
X158213261Y-87786738D01*
X158096207Y-87699112D01*
X158096202Y-87699110D01*
X157959204Y-87648011D01*
X157959196Y-87648009D01*
X157898649Y-87641500D01*
X157898638Y-87641500D01*
X156101362Y-87641500D01*
X156101350Y-87641500D01*
X156040803Y-87648009D01*
X156040795Y-87648011D01*
X155903797Y-87699110D01*
X155903792Y-87699112D01*
X155786738Y-87786738D01*
X155699112Y-87903792D01*
X155699110Y-87903797D01*
X155648011Y-88040795D01*
X155648009Y-88040803D01*
X155641500Y-88101350D01*
X155641500Y-89898649D01*
X155648009Y-89959196D01*
X155648011Y-89959204D01*
X155699110Y-90096202D01*
X155699112Y-90096207D01*
X155786738Y-90213261D01*
X155903791Y-90300886D01*
X155903792Y-90300886D01*
X155903796Y-90300889D01*
X156018810Y-90343787D01*
X156075642Y-90386332D01*
X156100453Y-90452852D01*
X156085362Y-90522226D01*
X156067475Y-90547179D01*
X155924280Y-90702729D01*
X155924275Y-90702734D01*
X155801141Y-90891206D01*
X155710703Y-91097386D01*
X155710702Y-91097387D01*
X155655437Y-91315624D01*
X155636844Y-91540000D01*
X100000000Y-91540000D01*
X100000000Y-90500000D01*
X134086496Y-90500000D01*
X134106457Y-90689927D01*
X134136526Y-90782470D01*
X134165473Y-90871556D01*
X134165476Y-90871561D01*
X134260958Y-91036941D01*
X134260965Y-91036951D01*
X134388744Y-91178864D01*
X134388747Y-91178866D01*
X134543248Y-91291118D01*
X134717712Y-91368794D01*
X134904513Y-91408500D01*
X135095487Y-91408500D01*
X135282288Y-91368794D01*
X135456752Y-91291118D01*
X135611253Y-91178866D01*
X135739040Y-91036944D01*
X135834527Y-90871556D01*
X135893542Y-90689928D01*
X135913504Y-90500000D01*
X135893542Y-90310072D01*
X135834527Y-90128444D01*
X135739040Y-89963056D01*
X135739038Y-89963054D01*
X135739034Y-89963048D01*
X135611255Y-89821135D01*
X135456752Y-89708882D01*
X135282288Y-89631206D01*
X135095487Y-89591500D01*
X134904513Y-89591500D01*
X134717711Y-89631206D01*
X134543247Y-89708882D01*
X134388744Y-89821135D01*
X134260965Y-89963048D01*
X134260958Y-89963058D01*
X134165476Y-90128438D01*
X134165473Y-90128445D01*
X134106457Y-90310072D01*
X134086496Y-90500000D01*
X100000000Y-90500000D01*
X100000000Y-84216189D01*
X116685232Y-84216189D01*
X116705193Y-84406116D01*
X116735262Y-84498659D01*
X116764209Y-84587745D01*
X116764212Y-84587750D01*
X116859694Y-84753130D01*
X116859701Y-84753140D01*
X116987480Y-84895053D01*
X116987483Y-84895055D01*
X117141984Y-85007307D01*
X117316448Y-85084983D01*
X117503249Y-85124689D01*
X117694223Y-85124689D01*
X117698527Y-85123774D01*
X117769318Y-85129174D01*
X117825952Y-85171988D01*
X117850448Y-85238625D01*
X117835029Y-85307927D01*
X117833847Y-85310020D01*
X117765476Y-85428442D01*
X117765473Y-85428449D01*
X117706457Y-85610076D01*
X117686496Y-85800004D01*
X117706457Y-85989931D01*
X117736526Y-86082474D01*
X117765473Y-86171560D01*
X117765476Y-86171565D01*
X117860958Y-86336945D01*
X117860965Y-86336955D01*
X117988744Y-86478868D01*
X117988747Y-86478870D01*
X118143248Y-86591122D01*
X118317712Y-86668798D01*
X118504513Y-86708504D01*
X118695487Y-86708504D01*
X118882288Y-86668798D01*
X119056752Y-86591122D01*
X119211253Y-86478870D01*
X119339040Y-86336948D01*
X119434527Y-86171560D01*
X119493542Y-85989932D01*
X119513504Y-85800004D01*
X119493542Y-85610076D01*
X119434527Y-85428448D01*
X119339040Y-85263060D01*
X119339038Y-85263058D01*
X119339034Y-85263052D01*
X119211255Y-85121139D01*
X119056752Y-85008886D01*
X118882288Y-84931210D01*
X118695487Y-84891504D01*
X118504513Y-84891504D01*
X118504504Y-84891504D01*
X118500195Y-84892420D01*
X118429405Y-84887014D01*
X118372775Y-84844193D01*
X118348286Y-84777553D01*
X118363713Y-84708253D01*
X118364819Y-84706292D01*
X118433263Y-84587745D01*
X118492278Y-84406117D01*
X118512240Y-84216189D01*
X118492278Y-84026261D01*
X118433263Y-83844633D01*
X118337776Y-83679245D01*
X118337774Y-83679243D01*
X118337770Y-83679237D01*
X118209991Y-83537324D01*
X118055488Y-83425071D01*
X117881024Y-83347395D01*
X117694223Y-83307689D01*
X117503249Y-83307689D01*
X117316447Y-83347395D01*
X117141983Y-83425071D01*
X116987480Y-83537324D01*
X116859701Y-83679237D01*
X116859694Y-83679247D01*
X116764212Y-83844627D01*
X116764209Y-83844634D01*
X116705193Y-84026261D01*
X116685232Y-84216189D01*
X100000000Y-84216189D01*
X100000000Y-55540000D01*
X100636844Y-55540000D01*
X100651993Y-55722820D01*
X100655437Y-55764375D01*
X100710702Y-55982612D01*
X100710703Y-55982613D01*
X100710704Y-55982616D01*
X100781975Y-56145099D01*
X100801141Y-56188793D01*
X100924275Y-56377265D01*
X100924279Y-56377270D01*
X101076762Y-56542908D01*
X101110415Y-56569101D01*
X101254424Y-56681189D01*
X101287680Y-56699186D01*
X101338071Y-56749200D01*
X101353423Y-56818516D01*
X101328862Y-56885129D01*
X101287680Y-56920813D01*
X101254426Y-56938810D01*
X101254424Y-56938811D01*
X101076762Y-57077091D01*
X100924279Y-57242729D01*
X100924275Y-57242734D01*
X100801141Y-57431206D01*
X100710703Y-57637386D01*
X100710702Y-57637387D01*
X100655437Y-57855624D01*
X100655436Y-57855630D01*
X100655436Y-57855632D01*
X100636844Y-58080000D01*
X100652836Y-58272993D01*
X100655437Y-58304375D01*
X100710702Y-58522612D01*
X100710703Y-58522613D01*
X100710704Y-58522616D01*
X100801140Y-58728791D01*
X100801141Y-58728793D01*
X100924275Y-58917265D01*
X100924279Y-58917270D01*
X101076762Y-59082908D01*
X101131331Y-59125381D01*
X101254424Y-59221189D01*
X101287153Y-59238901D01*
X101287680Y-59239186D01*
X101338071Y-59289200D01*
X101353423Y-59358516D01*
X101328862Y-59425129D01*
X101287680Y-59460813D01*
X101254426Y-59478810D01*
X101254424Y-59478811D01*
X101076762Y-59617091D01*
X100924279Y-59782729D01*
X100924275Y-59782734D01*
X100801141Y-59971206D01*
X100710703Y-60177386D01*
X100710702Y-60177387D01*
X100655437Y-60395624D01*
X100655436Y-60395630D01*
X100655436Y-60395632D01*
X100636844Y-60620000D01*
X100655198Y-60841500D01*
X100655437Y-60844375D01*
X100710702Y-61062612D01*
X100710703Y-61062613D01*
X100710704Y-61062616D01*
X100769690Y-61197091D01*
X100801141Y-61268793D01*
X100924275Y-61457265D01*
X100924279Y-61457270D01*
X101076762Y-61622908D01*
X101077049Y-61623131D01*
X101254424Y-61761189D01*
X101287680Y-61779186D01*
X101338071Y-61829200D01*
X101353423Y-61898516D01*
X101328862Y-61965129D01*
X101287680Y-62000813D01*
X101254426Y-62018810D01*
X101254424Y-62018811D01*
X101076762Y-62157091D01*
X100924279Y-62322729D01*
X100924275Y-62322734D01*
X100801141Y-62511206D01*
X100710703Y-62717386D01*
X100710702Y-62717387D01*
X100655437Y-62935624D01*
X100655436Y-62935630D01*
X100655436Y-62935632D01*
X100647014Y-63037265D01*
X100636844Y-63160000D01*
X100655437Y-63384375D01*
X100710702Y-63602612D01*
X100710703Y-63602613D01*
X100801141Y-63808793D01*
X100924275Y-63997265D01*
X100924279Y-63997270D01*
X101076762Y-64162908D01*
X101131331Y-64205381D01*
X101254424Y-64301189D01*
X101287680Y-64319186D01*
X101338071Y-64369200D01*
X101353423Y-64438516D01*
X101328862Y-64505129D01*
X101287680Y-64540813D01*
X101254426Y-64558810D01*
X101254424Y-64558811D01*
X101076762Y-64697091D01*
X100924279Y-64862729D01*
X100924275Y-64862734D01*
X100801141Y-65051206D01*
X100710703Y-65257386D01*
X100710702Y-65257387D01*
X100655437Y-65475624D01*
X100636844Y-65700000D01*
X100655437Y-65924375D01*
X100710702Y-66142612D01*
X100710703Y-66142613D01*
X100801141Y-66348793D01*
X100924275Y-66537265D01*
X100924279Y-66537270D01*
X101076762Y-66702908D01*
X101131331Y-66745381D01*
X101254424Y-66841189D01*
X101287680Y-66859186D01*
X101338071Y-66909200D01*
X101353423Y-66978516D01*
X101328862Y-67045129D01*
X101287680Y-67080813D01*
X101254426Y-67098810D01*
X101254424Y-67098811D01*
X101076762Y-67237091D01*
X100924279Y-67402729D01*
X100924275Y-67402734D01*
X100801141Y-67591206D01*
X100710703Y-67797386D01*
X100710702Y-67797387D01*
X100655437Y-68015624D01*
X100636844Y-68240000D01*
X100655437Y-68464375D01*
X100710702Y-68682612D01*
X100710703Y-68682613D01*
X100801141Y-68888793D01*
X100924275Y-69077265D01*
X100924279Y-69077270D01*
X101076762Y-69242908D01*
X101131331Y-69285381D01*
X101254424Y-69381189D01*
X101275501Y-69392595D01*
X101287680Y-69399186D01*
X101338071Y-69449200D01*
X101353423Y-69518516D01*
X101328862Y-69585129D01*
X101287680Y-69620813D01*
X101254426Y-69638810D01*
X101254424Y-69638811D01*
X101076762Y-69777091D01*
X100924279Y-69942729D01*
X100924275Y-69942734D01*
X100801141Y-70131206D01*
X100710703Y-70337386D01*
X100710702Y-70337387D01*
X100655437Y-70555624D01*
X100655436Y-70555630D01*
X100655436Y-70555632D01*
X100643473Y-70700000D01*
X100636844Y-70780000D01*
X100655437Y-71004375D01*
X100710702Y-71222612D01*
X100710703Y-71222613D01*
X100801141Y-71428793D01*
X100924275Y-71617265D01*
X100924279Y-71617270D01*
X101076762Y-71782908D01*
X101131331Y-71825381D01*
X101254424Y-71921189D01*
X101287680Y-71939186D01*
X101338071Y-71989200D01*
X101353423Y-72058516D01*
X101328862Y-72125129D01*
X101287680Y-72160813D01*
X101254426Y-72178810D01*
X101254424Y-72178811D01*
X101076762Y-72317091D01*
X100924279Y-72482729D01*
X100924275Y-72482734D01*
X100801141Y-72671206D01*
X100710703Y-72877386D01*
X100710702Y-72877387D01*
X100655437Y-73095624D01*
X100655436Y-73095630D01*
X100655436Y-73095632D01*
X100643785Y-73236240D01*
X100636844Y-73320000D01*
X100655437Y-73544375D01*
X100710702Y-73762612D01*
X100710703Y-73762613D01*
X100801141Y-73968793D01*
X100924275Y-74157265D01*
X100924279Y-74157270D01*
X101076762Y-74322908D01*
X101131331Y-74365381D01*
X101254424Y-74461189D01*
X101288205Y-74479470D01*
X101338596Y-74529482D01*
X101353949Y-74598799D01*
X101329389Y-74665412D01*
X101288209Y-74701096D01*
X101254704Y-74719228D01*
X101254698Y-74719232D01*
X101077097Y-74857465D01*
X100924674Y-75023041D01*
X100801580Y-75211451D01*
X100711179Y-75417543D01*
X100711176Y-75417550D01*
X100663455Y-75605999D01*
X100663456Y-75606000D01*
X101569297Y-75606000D01*
X101534075Y-75667007D01*
X101500000Y-75794174D01*
X101500000Y-75925826D01*
X101534075Y-76052993D01*
X101569297Y-76114000D01*
X100663455Y-76114000D01*
X100711176Y-76302449D01*
X100711179Y-76302456D01*
X100801580Y-76508548D01*
X100924674Y-76696958D01*
X101077097Y-76862534D01*
X101254698Y-77000767D01*
X101254704Y-77000771D01*
X101288207Y-77018902D01*
X101338597Y-77068915D01*
X101353949Y-77138232D01*
X101329388Y-77204845D01*
X101288207Y-77240528D01*
X101254430Y-77258807D01*
X101254424Y-77258811D01*
X101076762Y-77397091D01*
X100924279Y-77562729D01*
X100924275Y-77562734D01*
X100801141Y-77751206D01*
X100710703Y-77957386D01*
X100710702Y-77957387D01*
X100655437Y-78175624D01*
X100655436Y-78175630D01*
X100655436Y-78175632D01*
X100636844Y-78400000D01*
X100654427Y-78612196D01*
X100655437Y-78624375D01*
X100710702Y-78842612D01*
X100710703Y-78842613D01*
X100710704Y-78842616D01*
X100779740Y-79000003D01*
X100801141Y-79048793D01*
X100924275Y-79237265D01*
X100924279Y-79237270D01*
X100966775Y-79283432D01*
X101062857Y-79387804D01*
X101076762Y-79402908D01*
X101120557Y-79436995D01*
X101254424Y-79541189D01*
X101287680Y-79559186D01*
X101338071Y-79609200D01*
X101353423Y-79678516D01*
X101328862Y-79745129D01*
X101287680Y-79780813D01*
X101254426Y-79798810D01*
X101254424Y-79798811D01*
X101076762Y-79937091D01*
X100924279Y-80102729D01*
X100924275Y-80102734D01*
X100801141Y-80291206D01*
X100710703Y-80497386D01*
X100710702Y-80497387D01*
X100655437Y-80715624D01*
X100655436Y-80715630D01*
X100655436Y-80715632D01*
X100637156Y-80936240D01*
X100636844Y-80940000D01*
X100655437Y-81164375D01*
X100710702Y-81382612D01*
X100710703Y-81382613D01*
X100801141Y-81588793D01*
X100924275Y-81777265D01*
X100924279Y-81777270D01*
X101076762Y-81942908D01*
X101131331Y-81985381D01*
X101254424Y-82081189D01*
X101452426Y-82188342D01*
X101452427Y-82188342D01*
X101452428Y-82188343D01*
X101564227Y-82226723D01*
X101665365Y-82261444D01*
X101887431Y-82298500D01*
X101887435Y-82298500D01*
X102112565Y-82298500D01*
X102112569Y-82298500D01*
X102334635Y-82261444D01*
X102547574Y-82188342D01*
X102745576Y-82081189D01*
X102923240Y-81942906D01*
X103075722Y-81777268D01*
X103198860Y-81588791D01*
X103289296Y-81382616D01*
X103344564Y-81164368D01*
X103363156Y-80940000D01*
X103344564Y-80715632D01*
X103344562Y-80715624D01*
X103289297Y-80497387D01*
X103289296Y-80497386D01*
X103289296Y-80497384D01*
X103198860Y-80291209D01*
X103192140Y-80280924D01*
X103075724Y-80102734D01*
X103075720Y-80102729D01*
X102923237Y-79937091D01*
X102801829Y-79842595D01*
X102745576Y-79798811D01*
X102712319Y-79780813D01*
X102661929Y-79730802D01*
X102646576Y-79661485D01*
X102671136Y-79594872D01*
X102712320Y-79559186D01*
X102745576Y-79541189D01*
X102923240Y-79402906D01*
X103075722Y-79237268D01*
X103198860Y-79048791D01*
X103220263Y-78999996D01*
X113786620Y-78999996D01*
X113786620Y-79000003D01*
X113806090Y-79197694D01*
X113806091Y-79197700D01*
X113806092Y-79197701D01*
X113863759Y-79387804D01*
X113957405Y-79563004D01*
X114083432Y-79716568D01*
X114236996Y-79842595D01*
X114412196Y-79936241D01*
X114602299Y-79993908D01*
X114602303Y-79993908D01*
X114602305Y-79993909D01*
X114799997Y-80013380D01*
X114800000Y-80013380D01*
X114800003Y-80013380D01*
X114935892Y-79999996D01*
X122286620Y-79999996D01*
X122286620Y-80000003D01*
X122306090Y-80197694D01*
X122306091Y-80197700D01*
X122306092Y-80197701D01*
X122363759Y-80387804D01*
X122457405Y-80563004D01*
X122583432Y-80716568D01*
X122736996Y-80842595D01*
X122912196Y-80936241D01*
X123102299Y-80993908D01*
X123102303Y-80993908D01*
X123102305Y-80993909D01*
X123299997Y-81013380D01*
X123300000Y-81013380D01*
X123300003Y-81013380D01*
X123497694Y-80993909D01*
X123497695Y-80993908D01*
X123497701Y-80993908D01*
X123687804Y-80936241D01*
X123863004Y-80842595D01*
X124016568Y-80716568D01*
X124142595Y-80563004D01*
X124236241Y-80387804D01*
X124293908Y-80197701D01*
X124313380Y-80000000D01*
X124312780Y-79993908D01*
X124293909Y-79802305D01*
X124293908Y-79802303D01*
X124293908Y-79802299D01*
X124293209Y-79799996D01*
X135686620Y-79799996D01*
X135686620Y-79800003D01*
X135706090Y-79997694D01*
X135706091Y-79997700D01*
X135706092Y-79997701D01*
X135763759Y-80187804D01*
X135857405Y-80363004D01*
X135983432Y-80516568D01*
X136136996Y-80642595D01*
X136312196Y-80736241D01*
X136502299Y-80793908D01*
X136502303Y-80793908D01*
X136502305Y-80793909D01*
X136699997Y-80813380D01*
X136700000Y-80813380D01*
X136700003Y-80813380D01*
X136897694Y-80793909D01*
X136897695Y-80793908D01*
X136897701Y-80793908D01*
X137087804Y-80736241D01*
X137263004Y-80642595D01*
X137416568Y-80516568D01*
X137542595Y-80363004D01*
X137636241Y-80187804D01*
X137693908Y-79997701D01*
X137694282Y-79993909D01*
X137713380Y-79800003D01*
X137713380Y-79799996D01*
X137693909Y-79602305D01*
X137693908Y-79602303D01*
X137693908Y-79602299D01*
X137636241Y-79412196D01*
X137542595Y-79236996D01*
X137416568Y-79083432D01*
X137314901Y-78999996D01*
X144086620Y-78999996D01*
X144086620Y-79000003D01*
X144106090Y-79197694D01*
X144106091Y-79197700D01*
X144106092Y-79197701D01*
X144163759Y-79387804D01*
X144257405Y-79563004D01*
X144383432Y-79716568D01*
X144536996Y-79842595D01*
X144712196Y-79936241D01*
X144902299Y-79993908D01*
X144902303Y-79993908D01*
X144902305Y-79993909D01*
X145099997Y-80013380D01*
X145100000Y-80013380D01*
X145100003Y-80013380D01*
X145297694Y-79993909D01*
X145297695Y-79993908D01*
X145297701Y-79993908D01*
X145487804Y-79936241D01*
X145663004Y-79842595D01*
X145816568Y-79716568D01*
X145942595Y-79563004D01*
X146036241Y-79387804D01*
X146093908Y-79197701D01*
X146107101Y-79063759D01*
X146113380Y-79000003D01*
X146113380Y-78999996D01*
X146093909Y-78802305D01*
X146093908Y-78802303D01*
X146093908Y-78802299D01*
X146036241Y-78612196D01*
X145942595Y-78436996D01*
X145816568Y-78283432D01*
X145663004Y-78157405D01*
X145487804Y-78063759D01*
X145297701Y-78006092D01*
X145297700Y-78006091D01*
X145297694Y-78006090D01*
X145100003Y-77986620D01*
X145099997Y-77986620D01*
X144902305Y-78006090D01*
X144712195Y-78063759D01*
X144536995Y-78157405D01*
X144383432Y-78283432D01*
X144257405Y-78436995D01*
X144163759Y-78612195D01*
X144106090Y-78802305D01*
X144086620Y-78999996D01*
X137314901Y-78999996D01*
X137263004Y-78957405D01*
X137087804Y-78863759D01*
X136897701Y-78806092D01*
X136897700Y-78806091D01*
X136897694Y-78806090D01*
X136700003Y-78786620D01*
X136699997Y-78786620D01*
X136502305Y-78806090D01*
X136312195Y-78863759D01*
X136136995Y-78957405D01*
X135983432Y-79083432D01*
X135857405Y-79236995D01*
X135763759Y-79412195D01*
X135706090Y-79602305D01*
X135686620Y-79799996D01*
X124293209Y-79799996D01*
X124236241Y-79612196D01*
X124142595Y-79436996D01*
X124016568Y-79283432D01*
X123863004Y-79157405D01*
X123687804Y-79063759D01*
X123497701Y-79006092D01*
X123497700Y-79006091D01*
X123497694Y-79006090D01*
X123300003Y-78986620D01*
X123299997Y-78986620D01*
X123102305Y-79006090D01*
X122912195Y-79063759D01*
X122736995Y-79157405D01*
X122583432Y-79283432D01*
X122457405Y-79436995D01*
X122363759Y-79612195D01*
X122306090Y-79802305D01*
X122286620Y-79999996D01*
X114935892Y-79999996D01*
X114997694Y-79993909D01*
X114997695Y-79993908D01*
X114997701Y-79993908D01*
X115187804Y-79936241D01*
X115363004Y-79842595D01*
X115516568Y-79716568D01*
X115642595Y-79563004D01*
X115736241Y-79387804D01*
X115793908Y-79197701D01*
X115807101Y-79063759D01*
X115813380Y-79000003D01*
X115813380Y-78999996D01*
X115793909Y-78802305D01*
X115793908Y-78802303D01*
X115793908Y-78802299D01*
X115736241Y-78612196D01*
X115642595Y-78436996D01*
X115516568Y-78283432D01*
X115363004Y-78157405D01*
X115187804Y-78063759D01*
X114997701Y-78006092D01*
X114997700Y-78006091D01*
X114997694Y-78006090D01*
X114800003Y-77986620D01*
X114799997Y-77986620D01*
X114602305Y-78006090D01*
X114412195Y-78063759D01*
X114236995Y-78157405D01*
X114083432Y-78283432D01*
X113957405Y-78436995D01*
X113863759Y-78612195D01*
X113806090Y-78802305D01*
X113786620Y-78999996D01*
X103220263Y-78999996D01*
X103289296Y-78842616D01*
X103344564Y-78624368D01*
X103363156Y-78400000D01*
X103344564Y-78175632D01*
X103289296Y-77957384D01*
X103198860Y-77751209D01*
X103192140Y-77740924D01*
X103075724Y-77562734D01*
X103075720Y-77562729D01*
X102923237Y-77397091D01*
X102841382Y-77333381D01*
X102745576Y-77258811D01*
X102711792Y-77240528D01*
X102661402Y-77190516D01*
X102646050Y-77121199D01*
X102670610Y-77054586D01*
X102711793Y-77018901D01*
X102745300Y-77000767D01*
X102745301Y-77000767D01*
X102922902Y-76862534D01*
X103075325Y-76696958D01*
X103198419Y-76508548D01*
X103288820Y-76302456D01*
X103288823Y-76302449D01*
X103336544Y-76114000D01*
X102430703Y-76114000D01*
X102465925Y-76052993D01*
X102500000Y-75925826D01*
X102500000Y-75794174D01*
X102465925Y-75667007D01*
X102430703Y-75606000D01*
X103336544Y-75606000D01*
X103336544Y-75605999D01*
X103288823Y-75417550D01*
X103288820Y-75417543D01*
X103198419Y-75211451D01*
X103075325Y-75023041D01*
X102922902Y-74857465D01*
X102745301Y-74719232D01*
X102745300Y-74719231D01*
X102711791Y-74701097D01*
X102661401Y-74651083D01*
X102646050Y-74581766D01*
X102670612Y-74515153D01*
X102711790Y-74479472D01*
X102745576Y-74461189D01*
X102923240Y-74322906D01*
X103075722Y-74157268D01*
X103198860Y-73968791D01*
X103289296Y-73762616D01*
X103344564Y-73544368D01*
X103363156Y-73320000D01*
X103344564Y-73095632D01*
X103289296Y-72877384D01*
X103198860Y-72671209D01*
X103095824Y-72513500D01*
X103075724Y-72482734D01*
X103075720Y-72482729D01*
X102923237Y-72317091D01*
X102901273Y-72299996D01*
X117986620Y-72299996D01*
X117986620Y-72300003D01*
X118006090Y-72497694D01*
X118006091Y-72497700D01*
X118006092Y-72497701D01*
X118063759Y-72687804D01*
X118157405Y-72863004D01*
X118283432Y-73016568D01*
X118436996Y-73142595D01*
X118612196Y-73236241D01*
X118802299Y-73293908D01*
X118802303Y-73293908D01*
X118802305Y-73293909D01*
X118999997Y-73313380D01*
X119000000Y-73313380D01*
X119000003Y-73313380D01*
X119197694Y-73293909D01*
X119197695Y-73293908D01*
X119197701Y-73293908D01*
X119387804Y-73236241D01*
X119563004Y-73142595D01*
X119716568Y-73016568D01*
X119842595Y-72863004D01*
X119936241Y-72687804D01*
X119993908Y-72497701D01*
X119995383Y-72482732D01*
X120013380Y-72300003D01*
X120013380Y-72299996D01*
X119993909Y-72102305D01*
X119993908Y-72102303D01*
X119993908Y-72102299D01*
X119936241Y-71912196D01*
X119842595Y-71736996D01*
X119716568Y-71583432D01*
X119563004Y-71457405D01*
X119387804Y-71363759D01*
X119197701Y-71306092D01*
X119197700Y-71306091D01*
X119197694Y-71306090D01*
X119000003Y-71286620D01*
X118999997Y-71286620D01*
X118802305Y-71306090D01*
X118612195Y-71363759D01*
X118436995Y-71457405D01*
X118283432Y-71583432D01*
X118157405Y-71736995D01*
X118063759Y-71912195D01*
X118006090Y-72102305D01*
X117986620Y-72299996D01*
X102901273Y-72299996D01*
X102841382Y-72253381D01*
X102745576Y-72178811D01*
X102712319Y-72160813D01*
X102661929Y-72110802D01*
X102646576Y-72041485D01*
X102671136Y-71974872D01*
X102712320Y-71939186D01*
X102745576Y-71921189D01*
X102923240Y-71782906D01*
X103075722Y-71617268D01*
X103198860Y-71428791D01*
X103289296Y-71222616D01*
X103344564Y-71004368D01*
X103363156Y-70780000D01*
X103356527Y-70699996D01*
X120286620Y-70699996D01*
X120286620Y-70700003D01*
X120306090Y-70897694D01*
X120306091Y-70897700D01*
X120306092Y-70897701D01*
X120363759Y-71087804D01*
X120457405Y-71263004D01*
X120583432Y-71416568D01*
X120736996Y-71542595D01*
X120912196Y-71636241D01*
X121102299Y-71693908D01*
X121102303Y-71693908D01*
X121102305Y-71693909D01*
X121299997Y-71713380D01*
X121300000Y-71713380D01*
X121300003Y-71713380D01*
X121497694Y-71693909D01*
X121497695Y-71693908D01*
X121497701Y-71693908D01*
X121687804Y-71636241D01*
X121863004Y-71542595D01*
X122016568Y-71416568D01*
X122142595Y-71263004D01*
X122236241Y-71087804D01*
X122293908Y-70897701D01*
X122313380Y-70700000D01*
X122293908Y-70502299D01*
X122236241Y-70312196D01*
X122142595Y-70136996D01*
X122016568Y-69983432D01*
X121863004Y-69857405D01*
X121687804Y-69763759D01*
X121497701Y-69706092D01*
X121497700Y-69706091D01*
X121497694Y-69706090D01*
X121300003Y-69686620D01*
X121299997Y-69686620D01*
X121102305Y-69706090D01*
X120912195Y-69763759D01*
X120736995Y-69857405D01*
X120583432Y-69983432D01*
X120457405Y-70136995D01*
X120363759Y-70312195D01*
X120306090Y-70502305D01*
X120286620Y-70699996D01*
X103356527Y-70699996D01*
X103344564Y-70555632D01*
X103289296Y-70337384D01*
X103198860Y-70131209D01*
X103102313Y-69983432D01*
X103075724Y-69942734D01*
X103075720Y-69942729D01*
X102923237Y-69777091D01*
X102807000Y-69686620D01*
X102745576Y-69638811D01*
X102712319Y-69620813D01*
X102661929Y-69570802D01*
X102646576Y-69501485D01*
X102671136Y-69434872D01*
X102712320Y-69399186D01*
X102724501Y-69392594D01*
X102745576Y-69381189D01*
X102923240Y-69242906D01*
X103075722Y-69077268D01*
X103198860Y-68888791D01*
X103289296Y-68682616D01*
X103344564Y-68464368D01*
X103363156Y-68240000D01*
X103344564Y-68015632D01*
X103289296Y-67797384D01*
X103198860Y-67591209D01*
X103163195Y-67536620D01*
X103075724Y-67402734D01*
X103075720Y-67402729D01*
X102923237Y-67237091D01*
X102841382Y-67173381D01*
X102745576Y-67098811D01*
X102712319Y-67080813D01*
X102661929Y-67030802D01*
X102646576Y-66961485D01*
X102671136Y-66894872D01*
X102712320Y-66859186D01*
X102745576Y-66841189D01*
X102923240Y-66702906D01*
X103075722Y-66537268D01*
X103198860Y-66348791D01*
X103289296Y-66142616D01*
X103344564Y-65924368D01*
X103363156Y-65700000D01*
X103344564Y-65475632D01*
X103289296Y-65257384D01*
X103198860Y-65051209D01*
X103192140Y-65040924D01*
X103075724Y-64862734D01*
X103075720Y-64862729D01*
X102923237Y-64697091D01*
X102841382Y-64633381D01*
X102745576Y-64558811D01*
X102712319Y-64540813D01*
X102661929Y-64490802D01*
X102646576Y-64421485D01*
X102671136Y-64354872D01*
X102712320Y-64319186D01*
X102745576Y-64301189D01*
X102923240Y-64162906D01*
X103075722Y-63997268D01*
X103198860Y-63808791D01*
X103289296Y-63602616D01*
X103344564Y-63384368D01*
X103363156Y-63160000D01*
X103344564Y-62935632D01*
X103297250Y-62748793D01*
X103289297Y-62717387D01*
X103289296Y-62717386D01*
X103289296Y-62717384D01*
X103198860Y-62511209D01*
X103142124Y-62424368D01*
X103075724Y-62322734D01*
X103075720Y-62322729D01*
X102962738Y-62200000D01*
X109836844Y-62200000D01*
X109855437Y-62424375D01*
X109910702Y-62642612D01*
X109910703Y-62642613D01*
X109910704Y-62642616D01*
X109957277Y-62748793D01*
X110001141Y-62848793D01*
X110124275Y-63037265D01*
X110124279Y-63037270D01*
X110276762Y-63202908D01*
X110325944Y-63241188D01*
X110454424Y-63341189D01*
X110652426Y-63448342D01*
X110652427Y-63448342D01*
X110652428Y-63448343D01*
X110682015Y-63458500D01*
X110865365Y-63521444D01*
X111087431Y-63558500D01*
X111087435Y-63558500D01*
X111312565Y-63558500D01*
X111312569Y-63558500D01*
X111534635Y-63521444D01*
X111747574Y-63448342D01*
X111945576Y-63341189D01*
X112123240Y-63202906D01*
X112275722Y-63037268D01*
X112398860Y-62848791D01*
X112489296Y-62642616D01*
X112544564Y-62424368D01*
X112563156Y-62200000D01*
X112556859Y-62124003D01*
X127086500Y-62124003D01*
X127086500Y-71876007D01*
X127098237Y-71985164D01*
X127109441Y-72036667D01*
X127138885Y-72125129D01*
X127144110Y-72140827D01*
X127168520Y-72178810D01*
X127223130Y-72263784D01*
X127223131Y-72263786D01*
X127268880Y-72316582D01*
X127268882Y-72316583D01*
X127268884Y-72316586D01*
X127379339Y-72412297D01*
X127458416Y-72448411D01*
X127512284Y-72473013D01*
X127512286Y-72473013D01*
X127512287Y-72473014D01*
X127579326Y-72492699D01*
X127579330Y-72492700D01*
X127724000Y-72513500D01*
X127724004Y-72513500D01*
X133875995Y-72513500D01*
X133876000Y-72513500D01*
X133985157Y-72501764D01*
X134036668Y-72490558D01*
X134140827Y-72455890D01*
X134263782Y-72376871D01*
X134263784Y-72376868D01*
X134263786Y-72376868D01*
X134290184Y-72353993D01*
X134316586Y-72331116D01*
X134412297Y-72220661D01*
X134473014Y-72087713D01*
X134492699Y-72020674D01*
X134492700Y-72020670D01*
X134513500Y-71876000D01*
X134513500Y-68549996D01*
X140436620Y-68549996D01*
X140436620Y-68550003D01*
X140456090Y-68747694D01*
X140456091Y-68747700D01*
X140456092Y-68747701D01*
X140513759Y-68937804D01*
X140607405Y-69113004D01*
X140733432Y-69266568D01*
X140886996Y-69392595D01*
X141062196Y-69486241D01*
X141252299Y-69543908D01*
X141252303Y-69543908D01*
X141252305Y-69543909D01*
X141449997Y-69563380D01*
X141450000Y-69563380D01*
X141450003Y-69563380D01*
X141647694Y-69543909D01*
X141647695Y-69543908D01*
X141647701Y-69543908D01*
X141837804Y-69486241D01*
X142013004Y-69392595D01*
X142166568Y-69266568D01*
X142292595Y-69113004D01*
X142386241Y-68937804D01*
X142443908Y-68747701D01*
X142450319Y-68682616D01*
X142463380Y-68550003D01*
X142463380Y-68549996D01*
X142443909Y-68352305D01*
X142443908Y-68352303D01*
X142443908Y-68352299D01*
X142386241Y-68162196D01*
X142292595Y-67986996D01*
X142166568Y-67833432D01*
X142013004Y-67707405D01*
X141837804Y-67613759D01*
X141647701Y-67556092D01*
X141647700Y-67556091D01*
X141647694Y-67556090D01*
X141450003Y-67536620D01*
X141449997Y-67536620D01*
X141252305Y-67556090D01*
X141062195Y-67613759D01*
X140886995Y-67707405D01*
X140733432Y-67833432D01*
X140607405Y-67986995D01*
X140513759Y-68162195D01*
X140456090Y-68352305D01*
X140436620Y-68549996D01*
X134513500Y-68549996D01*
X134513500Y-62124000D01*
X134510920Y-62100000D01*
X145236844Y-62100000D01*
X145255300Y-62322732D01*
X145255437Y-62324375D01*
X145310702Y-62542612D01*
X145310703Y-62542613D01*
X145310704Y-62542616D01*
X145354568Y-62642616D01*
X145401141Y-62748793D01*
X145524275Y-62937265D01*
X145524279Y-62937270D01*
X145676762Y-63102908D01*
X145731331Y-63145381D01*
X145854424Y-63241189D01*
X146052426Y-63348342D01*
X146052427Y-63348342D01*
X146052428Y-63348343D01*
X146157366Y-63384368D01*
X146265365Y-63421444D01*
X146487431Y-63458500D01*
X146487435Y-63458500D01*
X146712565Y-63458500D01*
X146712569Y-63458500D01*
X146934635Y-63421444D01*
X147147574Y-63348342D01*
X147345576Y-63241189D01*
X147523240Y-63102906D01*
X147675722Y-62937268D01*
X147798860Y-62748791D01*
X147889296Y-62542616D01*
X147944564Y-62324368D01*
X147963156Y-62100000D01*
X149036844Y-62100000D01*
X149055300Y-62322732D01*
X149055437Y-62324375D01*
X149110702Y-62542612D01*
X149110703Y-62542613D01*
X149110704Y-62542616D01*
X149154568Y-62642616D01*
X149201141Y-62748793D01*
X149324275Y-62937265D01*
X149324279Y-62937270D01*
X149476762Y-63102908D01*
X149531331Y-63145381D01*
X149654424Y-63241189D01*
X149852426Y-63348342D01*
X149852427Y-63348342D01*
X149852428Y-63348343D01*
X149957366Y-63384368D01*
X150065365Y-63421444D01*
X150287431Y-63458500D01*
X150287435Y-63458500D01*
X150512565Y-63458500D01*
X150512569Y-63458500D01*
X150734635Y-63421444D01*
X150947574Y-63348342D01*
X151145576Y-63241189D01*
X151323240Y-63102906D01*
X151475722Y-62937268D01*
X151598860Y-62748791D01*
X151689296Y-62542616D01*
X151744564Y-62324368D01*
X151763156Y-62100000D01*
X151744564Y-61875632D01*
X151732806Y-61829200D01*
X151689297Y-61657387D01*
X151689296Y-61657386D01*
X151689296Y-61657384D01*
X151598860Y-61451209D01*
X151592140Y-61440924D01*
X151475724Y-61262734D01*
X151475720Y-61262729D01*
X151323237Y-61097091D01*
X151241382Y-61033381D01*
X151145576Y-60958811D01*
X150947574Y-60851658D01*
X150947572Y-60851657D01*
X150947571Y-60851656D01*
X150734639Y-60778557D01*
X150734630Y-60778555D01*
X150690476Y-60771187D01*
X150512569Y-60741500D01*
X150287431Y-60741500D01*
X150139211Y-60766233D01*
X150065369Y-60778555D01*
X150065360Y-60778557D01*
X149852428Y-60851656D01*
X149852426Y-60851658D01*
X149654426Y-60958810D01*
X149654424Y-60958811D01*
X149476762Y-61097091D01*
X149324279Y-61262729D01*
X149324275Y-61262734D01*
X149201141Y-61451206D01*
X149110703Y-61657386D01*
X149110702Y-61657387D01*
X149055437Y-61875624D01*
X149055436Y-61875630D01*
X149055436Y-61875632D01*
X149036844Y-62100000D01*
X147963156Y-62100000D01*
X147944564Y-61875632D01*
X147932806Y-61829200D01*
X147889297Y-61657387D01*
X147889296Y-61657386D01*
X147889296Y-61657384D01*
X147798860Y-61451209D01*
X147792140Y-61440924D01*
X147675724Y-61262734D01*
X147675720Y-61262729D01*
X147523237Y-61097091D01*
X147441382Y-61033381D01*
X147345576Y-60958811D01*
X147147574Y-60851658D01*
X147147572Y-60851657D01*
X147147571Y-60851656D01*
X146934639Y-60778557D01*
X146934630Y-60778555D01*
X146890476Y-60771187D01*
X146712569Y-60741500D01*
X146487431Y-60741500D01*
X146339211Y-60766233D01*
X146265369Y-60778555D01*
X146265360Y-60778557D01*
X146052428Y-60851656D01*
X146052426Y-60851658D01*
X145854426Y-60958810D01*
X145854424Y-60958811D01*
X145676762Y-61097091D01*
X145524279Y-61262729D01*
X145524275Y-61262734D01*
X145401141Y-61451206D01*
X145310703Y-61657386D01*
X145310702Y-61657387D01*
X145255437Y-61875624D01*
X145255436Y-61875630D01*
X145255436Y-61875632D01*
X145236844Y-62100000D01*
X134510920Y-62100000D01*
X134501764Y-62014843D01*
X134490558Y-61963332D01*
X134455890Y-61859173D01*
X134376871Y-61736218D01*
X134376870Y-61736217D01*
X134376869Y-61736215D01*
X134376868Y-61736213D01*
X134331119Y-61683417D01*
X134314347Y-61668884D01*
X134220661Y-61587703D01*
X134087715Y-61526986D01*
X134020679Y-61507302D01*
X134020675Y-61507301D01*
X134020672Y-61507300D01*
X134020670Y-61507300D01*
X133876000Y-61486500D01*
X127724000Y-61486500D01*
X127723992Y-61486500D01*
X127630104Y-61496595D01*
X127614843Y-61498236D01*
X127614841Y-61498236D01*
X127614835Y-61498237D01*
X127563332Y-61509441D01*
X127459174Y-61544109D01*
X127336215Y-61623130D01*
X127336213Y-61623131D01*
X127283417Y-61668880D01*
X127187704Y-61779337D01*
X127187703Y-61779338D01*
X127126986Y-61912284D01*
X127107302Y-61979320D01*
X127107301Y-61979324D01*
X127107301Y-61979326D01*
X127107300Y-61979330D01*
X127086502Y-62123992D01*
X127086500Y-62124003D01*
X112556859Y-62124003D01*
X112544564Y-61975632D01*
X112519241Y-61875632D01*
X112489297Y-61757387D01*
X112489296Y-61757386D01*
X112489296Y-61757384D01*
X112398860Y-61551209D01*
X112337487Y-61457270D01*
X112275724Y-61362734D01*
X112275720Y-61362729D01*
X112123237Y-61197091D01*
X111994761Y-61097094D01*
X111945576Y-61058811D01*
X111747574Y-60951658D01*
X111747572Y-60951657D01*
X111747571Y-60951656D01*
X111534639Y-60878557D01*
X111534630Y-60878555D01*
X111490476Y-60871187D01*
X111312569Y-60841500D01*
X111087431Y-60841500D01*
X110939211Y-60866233D01*
X110865369Y-60878555D01*
X110865360Y-60878557D01*
X110652428Y-60951656D01*
X110652426Y-60951658D01*
X110454426Y-61058810D01*
X110454424Y-61058811D01*
X110276762Y-61197091D01*
X110124279Y-61362729D01*
X110124275Y-61362734D01*
X110001141Y-61551206D01*
X109910703Y-61757386D01*
X109910702Y-61757387D01*
X109855437Y-61975624D01*
X109855436Y-61975630D01*
X109855436Y-61975632D01*
X109843141Y-62124004D01*
X109836844Y-62200000D01*
X102962738Y-62200000D01*
X102923237Y-62157091D01*
X102841382Y-62093381D01*
X102745576Y-62018811D01*
X102712319Y-62000813D01*
X102661929Y-61950802D01*
X102646576Y-61881485D01*
X102671136Y-61814872D01*
X102712320Y-61779186D01*
X102745576Y-61761189D01*
X102923240Y-61622906D01*
X103075722Y-61457268D01*
X103079683Y-61451206D01*
X103137487Y-61362729D01*
X103198860Y-61268791D01*
X103289296Y-61062616D01*
X103344564Y-60844368D01*
X103363156Y-60620000D01*
X103344564Y-60395632D01*
X103289296Y-60177384D01*
X103198860Y-59971209D01*
X103192140Y-59960924D01*
X103075724Y-59782734D01*
X103075720Y-59782729D01*
X102923237Y-59617091D01*
X102841382Y-59553381D01*
X102745576Y-59478811D01*
X102712319Y-59460813D01*
X102661929Y-59410802D01*
X102646576Y-59341485D01*
X102671136Y-59274872D01*
X102712320Y-59239186D01*
X102712847Y-59238901D01*
X102745576Y-59221189D01*
X102923240Y-59082906D01*
X103075722Y-58917268D01*
X103198860Y-58728791D01*
X103289296Y-58522616D01*
X103344564Y-58304368D01*
X103363156Y-58080000D01*
X103344564Y-57855632D01*
X103314250Y-57735925D01*
X103289297Y-57637387D01*
X103289296Y-57637386D01*
X103289296Y-57637384D01*
X103198860Y-57431209D01*
X103192140Y-57420924D01*
X103075724Y-57242734D01*
X103075720Y-57242729D01*
X102959570Y-57116559D01*
X102923240Y-57077094D01*
X102923239Y-57077093D01*
X102923237Y-57077091D01*
X102841382Y-57013381D01*
X102745576Y-56938811D01*
X102712319Y-56920813D01*
X102661929Y-56870802D01*
X102646576Y-56801485D01*
X102671136Y-56734872D01*
X102712320Y-56699186D01*
X102745576Y-56681189D01*
X102923240Y-56542906D01*
X103075722Y-56377268D01*
X103198860Y-56188791D01*
X103289296Y-55982616D01*
X103344564Y-55764368D01*
X103363156Y-55540000D01*
X103344564Y-55315632D01*
X103314250Y-55195925D01*
X103289297Y-55097387D01*
X103289296Y-55097386D01*
X103289296Y-55097384D01*
X103198860Y-54891209D01*
X103192140Y-54880924D01*
X103093538Y-54730000D01*
X119761844Y-54730000D01*
X119777836Y-54922993D01*
X119780437Y-54954375D01*
X119835702Y-55172612D01*
X119835703Y-55172613D01*
X119926141Y-55378793D01*
X120049275Y-55567265D01*
X120049280Y-55567270D01*
X120192475Y-55722820D01*
X120223896Y-55786485D01*
X120215909Y-55857031D01*
X120171051Y-55912060D01*
X120143807Y-55926213D01*
X120028797Y-55969110D01*
X120028792Y-55969112D01*
X119911738Y-56056738D01*
X119824112Y-56173792D01*
X119824110Y-56173797D01*
X119773011Y-56310795D01*
X119773009Y-56310803D01*
X119766500Y-56371350D01*
X119766500Y-58168649D01*
X119773009Y-58229196D01*
X119773011Y-58229204D01*
X119824110Y-58366202D01*
X119824112Y-58366207D01*
X119911738Y-58483261D01*
X120028792Y-58570887D01*
X120028794Y-58570888D01*
X120028796Y-58570889D01*
X120082600Y-58590957D01*
X120165795Y-58621988D01*
X120165803Y-58621990D01*
X120226350Y-58628499D01*
X120226355Y-58628499D01*
X120226362Y-58628500D01*
X120226368Y-58628500D01*
X122023632Y-58628500D01*
X122023638Y-58628500D01*
X122023645Y-58628499D01*
X122023649Y-58628499D01*
X122084196Y-58621990D01*
X122084199Y-58621989D01*
X122084201Y-58621989D01*
X122221204Y-58570889D01*
X122285695Y-58522612D01*
X122338261Y-58483261D01*
X122425887Y-58366207D01*
X122425887Y-58366206D01*
X122425889Y-58366204D01*
X122476989Y-58229201D01*
X122483500Y-58168638D01*
X122483500Y-58144479D01*
X122503502Y-58076358D01*
X122520405Y-58055383D01*
X123180841Y-57394946D01*
X123199075Y-57462993D01*
X123264901Y-57577007D01*
X123357993Y-57670099D01*
X123472007Y-57735925D01*
X123540051Y-57754157D01*
X122899310Y-58394898D01*
X122919697Y-58410766D01*
X122919701Y-58410768D01*
X123117628Y-58517882D01*
X123117630Y-58517883D01*
X123330483Y-58590955D01*
X123330490Y-58590957D01*
X123552477Y-58628000D01*
X123777523Y-58628000D01*
X123999509Y-58590957D01*
X123999516Y-58590955D01*
X124212369Y-58517883D01*
X124212371Y-58517881D01*
X124410298Y-58410769D01*
X124430688Y-58394898D01*
X123789947Y-57754157D01*
X123857993Y-57735925D01*
X123972007Y-57670099D01*
X124065099Y-57577007D01*
X124130925Y-57462993D01*
X124149158Y-57394947D01*
X124788077Y-58033866D01*
X124788078Y-58033866D01*
X124829516Y-57970441D01*
X124883519Y-57924352D01*
X124953867Y-57914777D01*
X125018225Y-57944754D01*
X125040482Y-57970440D01*
X125081921Y-58033866D01*
X125720841Y-57394946D01*
X125739075Y-57462993D01*
X125804901Y-57577007D01*
X125897993Y-57670099D01*
X126012007Y-57735925D01*
X126080051Y-57754157D01*
X125439310Y-58394898D01*
X125459697Y-58410766D01*
X125459701Y-58410768D01*
X125657628Y-58517882D01*
X125657630Y-58517883D01*
X125870483Y-58590955D01*
X125870490Y-58590957D01*
X126092477Y-58628000D01*
X126317523Y-58628000D01*
X126539509Y-58590957D01*
X126539516Y-58590955D01*
X126752369Y-58517883D01*
X126752371Y-58517881D01*
X126950298Y-58410769D01*
X126970688Y-58394898D01*
X126329947Y-57754157D01*
X126397993Y-57735925D01*
X126512007Y-57670099D01*
X126605099Y-57577007D01*
X126670925Y-57462993D01*
X126689158Y-57394947D01*
X127328077Y-58033866D01*
X127328078Y-58033866D01*
X127369516Y-57970441D01*
X127423519Y-57924352D01*
X127493867Y-57914777D01*
X127558225Y-57944754D01*
X127580482Y-57970440D01*
X127621921Y-58033866D01*
X128260841Y-57394946D01*
X128279075Y-57462993D01*
X128344901Y-57577007D01*
X128437993Y-57670099D01*
X128552007Y-57735925D01*
X128620051Y-57754157D01*
X127979310Y-58394898D01*
X127999697Y-58410766D01*
X127999701Y-58410768D01*
X128197628Y-58517882D01*
X128197630Y-58517883D01*
X128410483Y-58590955D01*
X128410490Y-58590957D01*
X128632477Y-58628000D01*
X128857523Y-58628000D01*
X129079509Y-58590957D01*
X129079516Y-58590955D01*
X129292369Y-58517883D01*
X129292371Y-58517881D01*
X129490298Y-58410769D01*
X129510688Y-58394898D01*
X128869947Y-57754157D01*
X128937993Y-57735925D01*
X129052007Y-57670099D01*
X129145099Y-57577007D01*
X129210925Y-57462993D01*
X129229158Y-57394947D01*
X129868077Y-58033866D01*
X129868078Y-58033866D01*
X129909217Y-57970899D01*
X129963221Y-57924810D01*
X130033568Y-57915235D01*
X130097926Y-57945212D01*
X130120183Y-57970898D01*
X130209279Y-58107270D01*
X130361762Y-58272908D01*
X130402182Y-58304368D01*
X130539424Y-58411189D01*
X130737426Y-58518342D01*
X130737427Y-58518342D01*
X130737428Y-58518343D01*
X130849227Y-58556723D01*
X130950365Y-58591444D01*
X131172431Y-58628500D01*
X131172435Y-58628500D01*
X131397565Y-58628500D01*
X131397569Y-58628500D01*
X131619635Y-58591444D01*
X131832574Y-58518342D01*
X132030576Y-58411189D01*
X132208240Y-58272906D01*
X132360722Y-58107268D01*
X132449518Y-57971354D01*
X132503520Y-57925268D01*
X132573868Y-57915692D01*
X132638225Y-57945669D01*
X132660480Y-57971353D01*
X132688457Y-58014174D01*
X132749275Y-58107265D01*
X132749279Y-58107270D01*
X132901762Y-58272908D01*
X132942182Y-58304368D01*
X133079424Y-58411189D01*
X133277426Y-58518342D01*
X133277427Y-58518342D01*
X133277428Y-58518343D01*
X133389227Y-58556723D01*
X133490365Y-58591444D01*
X133712431Y-58628500D01*
X133712435Y-58628500D01*
X133937565Y-58628500D01*
X133937569Y-58628500D01*
X134159635Y-58591444D01*
X134372574Y-58518342D01*
X134570576Y-58411189D01*
X134748240Y-58272906D01*
X134900722Y-58107268D01*
X134989518Y-57971354D01*
X135043520Y-57925268D01*
X135113868Y-57915692D01*
X135178225Y-57945669D01*
X135200480Y-57971353D01*
X135228457Y-58014174D01*
X135289275Y-58107265D01*
X135289279Y-58107270D01*
X135441762Y-58272908D01*
X135482182Y-58304368D01*
X135619424Y-58411189D01*
X135817426Y-58518342D01*
X135817427Y-58518342D01*
X135817428Y-58518343D01*
X135929227Y-58556723D01*
X136030365Y-58591444D01*
X136252431Y-58628500D01*
X136252435Y-58628500D01*
X136477565Y-58628500D01*
X136477569Y-58628500D01*
X136699635Y-58591444D01*
X136912574Y-58518342D01*
X137110576Y-58411189D01*
X137288240Y-58272906D01*
X137440722Y-58107268D01*
X137529518Y-57971354D01*
X137583520Y-57925268D01*
X137653868Y-57915692D01*
X137718225Y-57945669D01*
X137740480Y-57971353D01*
X137768457Y-58014174D01*
X137829275Y-58107265D01*
X137829279Y-58107270D01*
X137981762Y-58272908D01*
X138022182Y-58304368D01*
X138159424Y-58411189D01*
X138357426Y-58518342D01*
X138357427Y-58518342D01*
X138357428Y-58518343D01*
X138469227Y-58556723D01*
X138570365Y-58591444D01*
X138792431Y-58628500D01*
X138792435Y-58628500D01*
X139017565Y-58628500D01*
X139017569Y-58628500D01*
X139239635Y-58591444D01*
X139452574Y-58518342D01*
X139650576Y-58411189D01*
X139828240Y-58272906D01*
X139980722Y-58107268D01*
X140103860Y-57918791D01*
X140194296Y-57712616D01*
X140249564Y-57494368D01*
X140268156Y-57270000D01*
X140249564Y-57045632D01*
X140222512Y-56938807D01*
X140194297Y-56827387D01*
X140194296Y-56827386D01*
X140194296Y-56827384D01*
X140103860Y-56621209D01*
X140086597Y-56594786D01*
X139980724Y-56432734D01*
X139980720Y-56432729D01*
X139828237Y-56267091D01*
X139708367Y-56173792D01*
X139650576Y-56128811D01*
X139617319Y-56110813D01*
X139566929Y-56060802D01*
X139551576Y-55991485D01*
X139576136Y-55924872D01*
X139617320Y-55889186D01*
X139617322Y-55889185D01*
X139650576Y-55871189D01*
X139828240Y-55732906D01*
X139980722Y-55567268D01*
X139998537Y-55540000D01*
X156636844Y-55540000D01*
X156651993Y-55722820D01*
X156655437Y-55764375D01*
X156710702Y-55982612D01*
X156710703Y-55982613D01*
X156710704Y-55982616D01*
X156781975Y-56145099D01*
X156801141Y-56188793D01*
X156924275Y-56377265D01*
X156924279Y-56377270D01*
X157076762Y-56542908D01*
X157110415Y-56569101D01*
X157254424Y-56681189D01*
X157288205Y-56699470D01*
X157338596Y-56749482D01*
X157353949Y-56818799D01*
X157329389Y-56885412D01*
X157288209Y-56921096D01*
X157254704Y-56939228D01*
X157254698Y-56939232D01*
X157077097Y-57077465D01*
X156924674Y-57243041D01*
X156801580Y-57431451D01*
X156711179Y-57637543D01*
X156711176Y-57637550D01*
X156663455Y-57825999D01*
X156663456Y-57826000D01*
X157569297Y-57826000D01*
X157534075Y-57887007D01*
X157500000Y-58014174D01*
X157500000Y-58145826D01*
X157534075Y-58272993D01*
X157569297Y-58334000D01*
X156663455Y-58334000D01*
X156711176Y-58522449D01*
X156711179Y-58522456D01*
X156801580Y-58728548D01*
X156924674Y-58916958D01*
X157077097Y-59082534D01*
X157254698Y-59220767D01*
X157254704Y-59220771D01*
X157288207Y-59238902D01*
X157338597Y-59288915D01*
X157353949Y-59358232D01*
X157329388Y-59424845D01*
X157288207Y-59460528D01*
X157254430Y-59478807D01*
X157254424Y-59478811D01*
X157076762Y-59617091D01*
X156924279Y-59782729D01*
X156924275Y-59782734D01*
X156801141Y-59971206D01*
X156710703Y-60177386D01*
X156710702Y-60177387D01*
X156655437Y-60395624D01*
X156655436Y-60395630D01*
X156655436Y-60395632D01*
X156636844Y-60620000D01*
X156655198Y-60841500D01*
X156655437Y-60844375D01*
X156710702Y-61062612D01*
X156710703Y-61062613D01*
X156710704Y-61062616D01*
X156769690Y-61197091D01*
X156801141Y-61268793D01*
X156924275Y-61457265D01*
X156924279Y-61457270D01*
X157076762Y-61622908D01*
X157077049Y-61623131D01*
X157254424Y-61761189D01*
X157287680Y-61779186D01*
X157338071Y-61829200D01*
X157353423Y-61898516D01*
X157328862Y-61965129D01*
X157287680Y-62000813D01*
X157254426Y-62018810D01*
X157254424Y-62018811D01*
X157076762Y-62157091D01*
X156924279Y-62322729D01*
X156924275Y-62322734D01*
X156801141Y-62511206D01*
X156710703Y-62717386D01*
X156710702Y-62717387D01*
X156655437Y-62935624D01*
X156655436Y-62935630D01*
X156655436Y-62935632D01*
X156647014Y-63037265D01*
X156636844Y-63160000D01*
X156655437Y-63384375D01*
X156710702Y-63602612D01*
X156710703Y-63602613D01*
X156801141Y-63808793D01*
X156924275Y-63997265D01*
X156924279Y-63997270D01*
X157076762Y-64162908D01*
X157131331Y-64205381D01*
X157254424Y-64301189D01*
X157287680Y-64319186D01*
X157338071Y-64369200D01*
X157353423Y-64438516D01*
X157328862Y-64505129D01*
X157287680Y-64540813D01*
X157254426Y-64558810D01*
X157254424Y-64558811D01*
X157076762Y-64697091D01*
X156924279Y-64862729D01*
X156924275Y-64862734D01*
X156801141Y-65051206D01*
X156710703Y-65257386D01*
X156710702Y-65257387D01*
X156655437Y-65475624D01*
X156636844Y-65700000D01*
X156655437Y-65924375D01*
X156710702Y-66142612D01*
X156710703Y-66142613D01*
X156801141Y-66348793D01*
X156924275Y-66537265D01*
X156924279Y-66537270D01*
X157076762Y-66702908D01*
X157131331Y-66745381D01*
X157254424Y-66841189D01*
X157287680Y-66859186D01*
X157338071Y-66909200D01*
X157353423Y-66978516D01*
X157328862Y-67045129D01*
X157287680Y-67080813D01*
X157254426Y-67098810D01*
X157254424Y-67098811D01*
X157076762Y-67237091D01*
X156924279Y-67402729D01*
X156924275Y-67402734D01*
X156801141Y-67591206D01*
X156710703Y-67797386D01*
X156710702Y-67797387D01*
X156655437Y-68015624D01*
X156636844Y-68240000D01*
X156655437Y-68464375D01*
X156710702Y-68682612D01*
X156710703Y-68682613D01*
X156801141Y-68888793D01*
X156924275Y-69077265D01*
X156924279Y-69077270D01*
X157076762Y-69242908D01*
X157131331Y-69285381D01*
X157254424Y-69381189D01*
X157275501Y-69392595D01*
X157287680Y-69399186D01*
X157338071Y-69449200D01*
X157353423Y-69518516D01*
X157328862Y-69585129D01*
X157287680Y-69620813D01*
X157254426Y-69638810D01*
X157254424Y-69638811D01*
X157076762Y-69777091D01*
X156924279Y-69942729D01*
X156924275Y-69942734D01*
X156801141Y-70131206D01*
X156710703Y-70337386D01*
X156710702Y-70337387D01*
X156655437Y-70555624D01*
X156655436Y-70555630D01*
X156655436Y-70555632D01*
X156643473Y-70700000D01*
X156636844Y-70780000D01*
X156655437Y-71004375D01*
X156710702Y-71222612D01*
X156710703Y-71222613D01*
X156801141Y-71428793D01*
X156924275Y-71617265D01*
X156924279Y-71617270D01*
X157076762Y-71782908D01*
X157131331Y-71825381D01*
X157254424Y-71921189D01*
X157287680Y-71939186D01*
X157338071Y-71989200D01*
X157353423Y-72058516D01*
X157328862Y-72125129D01*
X157287680Y-72160813D01*
X157254426Y-72178810D01*
X157254424Y-72178811D01*
X157076762Y-72317091D01*
X156924279Y-72482729D01*
X156924275Y-72482734D01*
X156801141Y-72671206D01*
X156710703Y-72877386D01*
X156710702Y-72877387D01*
X156655437Y-73095624D01*
X156655436Y-73095630D01*
X156655436Y-73095632D01*
X156643785Y-73236240D01*
X156636844Y-73320000D01*
X156655437Y-73544375D01*
X156710702Y-73762612D01*
X156710703Y-73762613D01*
X156801141Y-73968793D01*
X156924275Y-74157265D01*
X156924279Y-74157270D01*
X157076762Y-74322908D01*
X157131331Y-74365381D01*
X157254424Y-74461189D01*
X157288205Y-74479470D01*
X157338596Y-74529482D01*
X157353949Y-74598799D01*
X157329389Y-74665412D01*
X157288209Y-74701096D01*
X157254704Y-74719228D01*
X157254698Y-74719232D01*
X157077097Y-74857465D01*
X156924674Y-75023041D01*
X156801580Y-75211451D01*
X156711179Y-75417543D01*
X156711176Y-75417550D01*
X156663455Y-75605999D01*
X156663456Y-75606000D01*
X157569297Y-75606000D01*
X157534075Y-75667007D01*
X157500000Y-75794174D01*
X157500000Y-75925826D01*
X157534075Y-76052993D01*
X157569297Y-76114000D01*
X156663455Y-76114000D01*
X156711176Y-76302449D01*
X156711179Y-76302456D01*
X156801580Y-76508548D01*
X156924674Y-76696958D01*
X157077097Y-76862534D01*
X157254698Y-77000767D01*
X157254704Y-77000771D01*
X157288207Y-77018902D01*
X157338597Y-77068915D01*
X157353949Y-77138232D01*
X157329388Y-77204845D01*
X157288207Y-77240528D01*
X157254430Y-77258807D01*
X157254424Y-77258811D01*
X157076762Y-77397091D01*
X156924279Y-77562729D01*
X156924275Y-77562734D01*
X156801141Y-77751206D01*
X156710703Y-77957386D01*
X156710702Y-77957387D01*
X156655437Y-78175624D01*
X156655436Y-78175630D01*
X156655436Y-78175632D01*
X156636844Y-78400000D01*
X156654427Y-78612196D01*
X156655437Y-78624375D01*
X156710702Y-78842612D01*
X156710703Y-78842613D01*
X156710704Y-78842616D01*
X156779740Y-79000003D01*
X156801141Y-79048793D01*
X156924275Y-79237265D01*
X156924279Y-79237270D01*
X156966775Y-79283432D01*
X157062857Y-79387804D01*
X157076762Y-79402908D01*
X157120557Y-79436995D01*
X157254424Y-79541189D01*
X157287680Y-79559186D01*
X157338071Y-79609200D01*
X157353423Y-79678516D01*
X157328862Y-79745129D01*
X157287680Y-79780813D01*
X157254426Y-79798810D01*
X157254424Y-79798811D01*
X157076762Y-79937091D01*
X156924279Y-80102729D01*
X156924275Y-80102734D01*
X156801141Y-80291206D01*
X156710703Y-80497386D01*
X156710702Y-80497387D01*
X156655437Y-80715624D01*
X156655436Y-80715630D01*
X156655436Y-80715632D01*
X156637156Y-80936240D01*
X156636844Y-80940000D01*
X156655437Y-81164375D01*
X156710702Y-81382612D01*
X156710703Y-81382613D01*
X156801141Y-81588793D01*
X156924275Y-81777265D01*
X156924279Y-81777270D01*
X157076762Y-81942908D01*
X157131331Y-81985381D01*
X157254424Y-82081189D01*
X157452426Y-82188342D01*
X157452427Y-82188342D01*
X157452428Y-82188343D01*
X157564227Y-82226723D01*
X157665365Y-82261444D01*
X157887431Y-82298500D01*
X157887435Y-82298500D01*
X158112565Y-82298500D01*
X158112569Y-82298500D01*
X158334635Y-82261444D01*
X158547574Y-82188342D01*
X158745576Y-82081189D01*
X158923240Y-81942906D01*
X159075722Y-81777268D01*
X159198860Y-81588791D01*
X159289296Y-81382616D01*
X159344564Y-81164368D01*
X159363156Y-80940000D01*
X159344564Y-80715632D01*
X159344562Y-80715624D01*
X159289297Y-80497387D01*
X159289296Y-80497386D01*
X159289296Y-80497384D01*
X159198860Y-80291209D01*
X159192140Y-80280924D01*
X159075724Y-80102734D01*
X159075720Y-80102729D01*
X158923237Y-79937091D01*
X158801829Y-79842595D01*
X158745576Y-79798811D01*
X158712319Y-79780813D01*
X158661929Y-79730802D01*
X158646576Y-79661485D01*
X158671136Y-79594872D01*
X158712320Y-79559186D01*
X158745576Y-79541189D01*
X158923240Y-79402906D01*
X159075722Y-79237268D01*
X159198860Y-79048791D01*
X159289296Y-78842616D01*
X159344564Y-78624368D01*
X159363156Y-78400000D01*
X159344564Y-78175632D01*
X159289296Y-77957384D01*
X159198860Y-77751209D01*
X159192140Y-77740924D01*
X159075724Y-77562734D01*
X159075720Y-77562729D01*
X158923237Y-77397091D01*
X158841382Y-77333381D01*
X158745576Y-77258811D01*
X158711792Y-77240528D01*
X158661402Y-77190516D01*
X158646050Y-77121199D01*
X158670610Y-77054586D01*
X158711793Y-77018901D01*
X158745300Y-77000767D01*
X158745301Y-77000767D01*
X158922902Y-76862534D01*
X159075325Y-76696958D01*
X159198419Y-76508548D01*
X159288820Y-76302456D01*
X159288823Y-76302449D01*
X159336544Y-76114000D01*
X158430703Y-76114000D01*
X158465925Y-76052993D01*
X158500000Y-75925826D01*
X158500000Y-75794174D01*
X158465925Y-75667007D01*
X158430703Y-75606000D01*
X159336544Y-75606000D01*
X159336544Y-75605999D01*
X159288823Y-75417550D01*
X159288820Y-75417543D01*
X159198419Y-75211451D01*
X159075325Y-75023041D01*
X158922902Y-74857465D01*
X158745301Y-74719232D01*
X158745300Y-74719231D01*
X158711791Y-74701097D01*
X158661401Y-74651083D01*
X158646050Y-74581766D01*
X158670612Y-74515153D01*
X158711790Y-74479472D01*
X158745576Y-74461189D01*
X158923240Y-74322906D01*
X159075722Y-74157268D01*
X159198860Y-73968791D01*
X159289296Y-73762616D01*
X159344564Y-73544368D01*
X159363156Y-73320000D01*
X159344564Y-73095632D01*
X159289296Y-72877384D01*
X159198860Y-72671209D01*
X159095824Y-72513500D01*
X159075724Y-72482734D01*
X159075720Y-72482729D01*
X158923237Y-72317091D01*
X158841382Y-72253381D01*
X158745576Y-72178811D01*
X158712319Y-72160813D01*
X158661929Y-72110802D01*
X158646576Y-72041485D01*
X158671136Y-71974872D01*
X158712320Y-71939186D01*
X158745576Y-71921189D01*
X158923240Y-71782906D01*
X159075722Y-71617268D01*
X159198860Y-71428791D01*
X159289296Y-71222616D01*
X159344564Y-71004368D01*
X159363156Y-70780000D01*
X159344564Y-70555632D01*
X159289296Y-70337384D01*
X159198860Y-70131209D01*
X159102313Y-69983432D01*
X159075724Y-69942734D01*
X159075720Y-69942729D01*
X158923237Y-69777091D01*
X158807000Y-69686620D01*
X158745576Y-69638811D01*
X158712319Y-69620813D01*
X158661929Y-69570802D01*
X158646576Y-69501485D01*
X158671136Y-69434872D01*
X158712320Y-69399186D01*
X158724501Y-69392594D01*
X158745576Y-69381189D01*
X158923240Y-69242906D01*
X159075722Y-69077268D01*
X159198860Y-68888791D01*
X159289296Y-68682616D01*
X159344564Y-68464368D01*
X159363156Y-68240000D01*
X159344564Y-68015632D01*
X159289296Y-67797384D01*
X159198860Y-67591209D01*
X159163195Y-67536620D01*
X159075724Y-67402734D01*
X159075720Y-67402729D01*
X158923237Y-67237091D01*
X158841382Y-67173381D01*
X158745576Y-67098811D01*
X158712319Y-67080813D01*
X158661929Y-67030802D01*
X158646576Y-66961485D01*
X158671136Y-66894872D01*
X158712320Y-66859186D01*
X158745576Y-66841189D01*
X158923240Y-66702906D01*
X159075722Y-66537268D01*
X159198860Y-66348791D01*
X159289296Y-66142616D01*
X159344564Y-65924368D01*
X159363156Y-65700000D01*
X159344564Y-65475632D01*
X159289296Y-65257384D01*
X159198860Y-65051209D01*
X159192140Y-65040924D01*
X159075724Y-64862734D01*
X159075720Y-64862729D01*
X158923237Y-64697091D01*
X158841382Y-64633381D01*
X158745576Y-64558811D01*
X158712319Y-64540813D01*
X158661929Y-64490802D01*
X158646576Y-64421485D01*
X158671136Y-64354872D01*
X158712320Y-64319186D01*
X158745576Y-64301189D01*
X158923240Y-64162906D01*
X159075722Y-63997268D01*
X159198860Y-63808791D01*
X159289296Y-63602616D01*
X159344564Y-63384368D01*
X159363156Y-63160000D01*
X159344564Y-62935632D01*
X159297250Y-62748793D01*
X159289297Y-62717387D01*
X159289296Y-62717386D01*
X159289296Y-62717384D01*
X159198860Y-62511209D01*
X159142124Y-62424368D01*
X159075724Y-62322734D01*
X159075720Y-62322729D01*
X158923237Y-62157091D01*
X158841382Y-62093381D01*
X158745576Y-62018811D01*
X158712319Y-62000813D01*
X158661929Y-61950802D01*
X158646576Y-61881485D01*
X158671136Y-61814872D01*
X158712320Y-61779186D01*
X158745576Y-61761189D01*
X158923240Y-61622906D01*
X159075722Y-61457268D01*
X159079683Y-61451206D01*
X159137487Y-61362729D01*
X159198860Y-61268791D01*
X159289296Y-61062616D01*
X159344564Y-60844368D01*
X159363156Y-60620000D01*
X159344564Y-60395632D01*
X159289296Y-60177384D01*
X159198860Y-59971209D01*
X159192140Y-59960924D01*
X159075724Y-59782734D01*
X159075720Y-59782729D01*
X158923237Y-59617091D01*
X158841382Y-59553381D01*
X158745576Y-59478811D01*
X158711792Y-59460528D01*
X158661402Y-59410516D01*
X158646050Y-59341199D01*
X158670610Y-59274586D01*
X158711793Y-59238901D01*
X158745300Y-59220767D01*
X158745301Y-59220767D01*
X158922902Y-59082534D01*
X159075325Y-58916958D01*
X159198419Y-58728548D01*
X159288820Y-58522456D01*
X159288823Y-58522449D01*
X159336544Y-58334000D01*
X158430703Y-58334000D01*
X158465925Y-58272993D01*
X158500000Y-58145826D01*
X158500000Y-58014174D01*
X158465925Y-57887007D01*
X158430703Y-57826000D01*
X159336544Y-57826000D01*
X159336544Y-57825999D01*
X159288823Y-57637550D01*
X159288820Y-57637543D01*
X159198419Y-57431451D01*
X159075325Y-57243041D01*
X158922902Y-57077465D01*
X158745301Y-56939232D01*
X158745300Y-56939231D01*
X158711791Y-56921097D01*
X158661401Y-56871083D01*
X158646050Y-56801766D01*
X158670612Y-56735153D01*
X158711790Y-56699472D01*
X158745576Y-56681189D01*
X158923240Y-56542906D01*
X159075722Y-56377268D01*
X159198860Y-56188791D01*
X159289296Y-55982616D01*
X159344564Y-55764368D01*
X159363156Y-55540000D01*
X159344564Y-55315632D01*
X159314250Y-55195925D01*
X159289297Y-55097387D01*
X159289296Y-55097386D01*
X159289296Y-55097384D01*
X159198860Y-54891209D01*
X159192140Y-54880924D01*
X159075724Y-54702734D01*
X159075719Y-54702729D01*
X159040226Y-54664174D01*
X158932524Y-54547179D01*
X158901103Y-54483514D01*
X158909090Y-54412968D01*
X158953948Y-54357939D01*
X158981183Y-54343789D01*
X159096204Y-54300889D01*
X159096799Y-54300444D01*
X159213261Y-54213261D01*
X159300887Y-54096207D01*
X159300887Y-54096206D01*
X159300889Y-54096204D01*
X159351989Y-53959201D01*
X159358500Y-53898638D01*
X159358500Y-52101362D01*
X159352001Y-52040906D01*
X159351990Y-52040803D01*
X159351988Y-52040795D01*
X159300978Y-51904035D01*
X159300889Y-51903796D01*
X159300888Y-51903794D01*
X159300887Y-51903792D01*
X159213261Y-51786738D01*
X159096207Y-51699112D01*
X159096202Y-51699110D01*
X158959204Y-51648011D01*
X158959196Y-51648009D01*
X158898649Y-51641500D01*
X158898638Y-51641500D01*
X157101362Y-51641500D01*
X157101350Y-51641500D01*
X157040803Y-51648009D01*
X157040795Y-51648011D01*
X156903797Y-51699110D01*
X156903792Y-51699112D01*
X156786738Y-51786738D01*
X156699112Y-51903792D01*
X156699110Y-51903797D01*
X156648011Y-52040795D01*
X156648009Y-52040803D01*
X156641500Y-52101350D01*
X156641500Y-53898649D01*
X156648009Y-53959196D01*
X156648011Y-53959204D01*
X156699110Y-54096202D01*
X156699112Y-54096207D01*
X156786738Y-54213261D01*
X156903791Y-54300886D01*
X156903792Y-54300886D01*
X156903796Y-54300889D01*
X157018810Y-54343787D01*
X157075642Y-54386332D01*
X157100453Y-54452852D01*
X157085362Y-54522226D01*
X157067475Y-54547179D01*
X156924280Y-54702729D01*
X156924275Y-54702734D01*
X156801141Y-54891206D01*
X156710703Y-55097386D01*
X156710702Y-55097387D01*
X156655437Y-55315624D01*
X156655436Y-55315630D01*
X156655436Y-55315632D01*
X156636844Y-55540000D01*
X139998537Y-55540000D01*
X140103860Y-55378791D01*
X140194296Y-55172616D01*
X140249564Y-54954368D01*
X140268156Y-54730000D01*
X140249564Y-54505632D01*
X140212163Y-54357939D01*
X140194297Y-54287387D01*
X140194296Y-54287386D01*
X140194296Y-54287384D01*
X140103860Y-54081209D01*
X140086597Y-54054786D01*
X139980724Y-53892734D01*
X139980720Y-53892729D01*
X139828237Y-53727091D01*
X139746382Y-53663381D01*
X139650576Y-53588811D01*
X139452574Y-53481658D01*
X139452572Y-53481657D01*
X139452571Y-53481656D01*
X139239639Y-53408557D01*
X139239630Y-53408555D01*
X139195476Y-53401187D01*
X139017569Y-53371500D01*
X138792431Y-53371500D01*
X138644211Y-53396233D01*
X138570369Y-53408555D01*
X138570360Y-53408557D01*
X138357428Y-53481656D01*
X138357426Y-53481658D01*
X138159426Y-53588810D01*
X138159424Y-53588811D01*
X137981762Y-53727091D01*
X137829279Y-53892729D01*
X137740483Y-54028643D01*
X137686479Y-54074731D01*
X137616131Y-54084306D01*
X137551774Y-54054329D01*
X137529517Y-54028643D01*
X137440720Y-53892729D01*
X137288237Y-53727091D01*
X137206382Y-53663381D01*
X137110576Y-53588811D01*
X136912574Y-53481658D01*
X136912572Y-53481657D01*
X136912571Y-53481656D01*
X136699639Y-53408557D01*
X136699630Y-53408555D01*
X136655476Y-53401187D01*
X136477569Y-53371500D01*
X136252431Y-53371500D01*
X136104211Y-53396233D01*
X136030369Y-53408555D01*
X136030360Y-53408557D01*
X135817428Y-53481656D01*
X135817426Y-53481658D01*
X135619426Y-53588810D01*
X135619424Y-53588811D01*
X135441762Y-53727091D01*
X135289279Y-53892729D01*
X135200483Y-54028643D01*
X135146479Y-54074731D01*
X135076131Y-54084306D01*
X135011774Y-54054329D01*
X134989517Y-54028643D01*
X134900720Y-53892729D01*
X134748237Y-53727091D01*
X134666382Y-53663381D01*
X134570576Y-53588811D01*
X134372574Y-53481658D01*
X134372572Y-53481657D01*
X134372571Y-53481656D01*
X134159639Y-53408557D01*
X134159630Y-53408555D01*
X134115476Y-53401187D01*
X133937569Y-53371500D01*
X133712431Y-53371500D01*
X133564211Y-53396233D01*
X133490369Y-53408555D01*
X133490360Y-53408557D01*
X133277428Y-53481656D01*
X133277426Y-53481658D01*
X133079426Y-53588810D01*
X133079424Y-53588811D01*
X132901762Y-53727091D01*
X132749279Y-53892729D01*
X132660483Y-54028643D01*
X132606479Y-54074731D01*
X132536131Y-54084306D01*
X132471774Y-54054329D01*
X132449517Y-54028643D01*
X132360720Y-53892729D01*
X132208237Y-53727091D01*
X132126382Y-53663381D01*
X132030576Y-53588811D01*
X131832574Y-53481658D01*
X131832572Y-53481657D01*
X131832571Y-53481656D01*
X131619639Y-53408557D01*
X131619630Y-53408555D01*
X131575476Y-53401187D01*
X131397569Y-53371500D01*
X131172431Y-53371500D01*
X131024211Y-53396233D01*
X130950369Y-53408555D01*
X130950360Y-53408557D01*
X130737428Y-53481656D01*
X130737426Y-53481658D01*
X130539426Y-53588810D01*
X130539424Y-53588811D01*
X130361762Y-53727091D01*
X130209279Y-53892729D01*
X130120183Y-54029101D01*
X130066179Y-54075189D01*
X129995831Y-54084764D01*
X129931474Y-54054786D01*
X129909217Y-54029100D01*
X129868078Y-53966132D01*
X129229157Y-54605051D01*
X129210925Y-54537007D01*
X129145099Y-54422993D01*
X129052007Y-54329901D01*
X128937993Y-54264075D01*
X128869947Y-54245841D01*
X129510688Y-53605100D01*
X129510687Y-53605099D01*
X129490308Y-53589237D01*
X129490298Y-53589231D01*
X129292371Y-53482117D01*
X129292369Y-53482116D01*
X129079516Y-53409044D01*
X129079509Y-53409042D01*
X128857523Y-53372000D01*
X128632477Y-53372000D01*
X128410490Y-53409042D01*
X128410483Y-53409044D01*
X128197630Y-53482116D01*
X128197628Y-53482118D01*
X127999700Y-53589230D01*
X127999693Y-53589235D01*
X127979311Y-53605099D01*
X127979310Y-53605100D01*
X128620052Y-54245842D01*
X128552007Y-54264075D01*
X128437993Y-54329901D01*
X128344901Y-54422993D01*
X128279075Y-54537007D01*
X128260842Y-54605052D01*
X127621921Y-53966131D01*
X127621920Y-53966132D01*
X127580482Y-54029558D01*
X127526479Y-54075647D01*
X127456131Y-54085222D01*
X127391773Y-54055245D01*
X127369516Y-54029558D01*
X127328078Y-53966132D01*
X126689157Y-54605051D01*
X126670925Y-54537007D01*
X126605099Y-54422993D01*
X126512007Y-54329901D01*
X126397993Y-54264075D01*
X126329947Y-54245841D01*
X126970688Y-53605100D01*
X126970687Y-53605099D01*
X126950308Y-53589237D01*
X126950298Y-53589231D01*
X126752371Y-53482117D01*
X126752369Y-53482116D01*
X126539516Y-53409044D01*
X126539509Y-53409042D01*
X126317523Y-53372000D01*
X126092477Y-53372000D01*
X125870490Y-53409042D01*
X125870483Y-53409044D01*
X125657630Y-53482116D01*
X125657628Y-53482118D01*
X125459700Y-53589230D01*
X125459693Y-53589235D01*
X125439311Y-53605099D01*
X125439310Y-53605100D01*
X126080052Y-54245842D01*
X126012007Y-54264075D01*
X125897993Y-54329901D01*
X125804901Y-54422993D01*
X125739075Y-54537007D01*
X125720842Y-54605052D01*
X125081921Y-53966131D01*
X125081920Y-53966132D01*
X125040482Y-54029558D01*
X124986479Y-54075647D01*
X124916131Y-54085222D01*
X124851773Y-54055245D01*
X124829516Y-54029558D01*
X124788078Y-53966132D01*
X124149157Y-54605051D01*
X124130925Y-54537007D01*
X124065099Y-54422993D01*
X123972007Y-54329901D01*
X123857993Y-54264075D01*
X123789947Y-54245841D01*
X124430688Y-53605100D01*
X124430687Y-53605099D01*
X124410308Y-53589237D01*
X124410298Y-53589231D01*
X124212371Y-53482117D01*
X124212369Y-53482116D01*
X123999516Y-53409044D01*
X123999509Y-53409042D01*
X123777523Y-53372000D01*
X123552477Y-53372000D01*
X123330490Y-53409042D01*
X123330483Y-53409044D01*
X123117630Y-53482116D01*
X123117628Y-53482118D01*
X122919700Y-53589230D01*
X122919693Y-53589235D01*
X122899311Y-53605099D01*
X122899310Y-53605100D01*
X123540052Y-54245842D01*
X123472007Y-54264075D01*
X123357993Y-54329901D01*
X123264901Y-54422993D01*
X123199075Y-54537007D01*
X123180842Y-54605052D01*
X122541921Y-53966131D01*
X122541919Y-53966132D01*
X122500781Y-54029100D01*
X122446777Y-54075189D01*
X122376430Y-54084764D01*
X122312072Y-54054787D01*
X122289816Y-54029101D01*
X122204554Y-53898597D01*
X122200724Y-53892734D01*
X122200720Y-53892729D01*
X122048237Y-53727091D01*
X121966382Y-53663381D01*
X121870576Y-53588811D01*
X121672574Y-53481658D01*
X121672572Y-53481657D01*
X121672571Y-53481656D01*
X121459639Y-53408557D01*
X121459630Y-53408555D01*
X121415476Y-53401187D01*
X121237569Y-53371500D01*
X121012431Y-53371500D01*
X120864211Y-53396233D01*
X120790369Y-53408555D01*
X120790360Y-53408557D01*
X120577428Y-53481656D01*
X120577426Y-53481658D01*
X120379426Y-53588810D01*
X120379424Y-53588811D01*
X120201762Y-53727091D01*
X120049279Y-53892729D01*
X120049275Y-53892734D01*
X119926141Y-54081206D01*
X119835703Y-54287386D01*
X119835702Y-54287387D01*
X119780437Y-54505624D01*
X119780436Y-54505630D01*
X119780436Y-54505632D01*
X119761844Y-54730000D01*
X103093538Y-54730000D01*
X103075724Y-54702734D01*
X103075714Y-54702722D01*
X102932159Y-54546782D01*
X102900737Y-54483117D01*
X102908723Y-54412571D01*
X102953582Y-54357542D01*
X102980827Y-54343388D01*
X103095965Y-54300444D01*
X103212904Y-54212904D01*
X103300444Y-54095965D01*
X103300444Y-54095964D01*
X103351494Y-53959093D01*
X103357999Y-53898597D01*
X103358000Y-53898585D01*
X103358000Y-53254000D01*
X102430703Y-53254000D01*
X102465925Y-53192993D01*
X102500000Y-53065826D01*
X102500000Y-52934174D01*
X102465925Y-52807007D01*
X102430703Y-52746000D01*
X103358000Y-52746000D01*
X103358000Y-52101414D01*
X103357999Y-52101402D01*
X103351494Y-52040906D01*
X103300444Y-51904035D01*
X103300444Y-51904034D01*
X103212904Y-51787095D01*
X103095965Y-51699555D01*
X102959093Y-51648505D01*
X102898597Y-51642000D01*
X102254000Y-51642000D01*
X102254000Y-52569297D01*
X102192993Y-52534075D01*
X102065826Y-52500000D01*
X101934174Y-52500000D01*
X101807007Y-52534075D01*
X101746000Y-52569297D01*
X101746000Y-51642000D01*
X101101402Y-51642000D01*
X101040906Y-51648505D01*
X100904035Y-51699555D01*
X100904034Y-51699555D01*
X100787095Y-51787095D01*
X100699555Y-51904034D01*
X100699555Y-51904035D01*
X100648505Y-52040906D01*
X100642000Y-52101402D01*
X100642000Y-52746000D01*
X101569297Y-52746000D01*
X101534075Y-52807007D01*
X101500000Y-52934174D01*
X101500000Y-53065826D01*
X101534075Y-53192993D01*
X101569297Y-53254000D01*
X100642000Y-53254000D01*
X100642000Y-53898597D01*
X100648505Y-53959093D01*
X100699555Y-54095964D01*
X100699555Y-54095965D01*
X100787095Y-54212904D01*
X100904034Y-54300444D01*
X101019172Y-54343388D01*
X101076008Y-54385935D01*
X101100819Y-54452455D01*
X101085728Y-54521829D01*
X101067841Y-54546782D01*
X100924280Y-54702729D01*
X100924275Y-54702734D01*
X100801141Y-54891206D01*
X100710703Y-55097386D01*
X100710702Y-55097387D01*
X100655437Y-55315624D01*
X100655436Y-55315630D01*
X100655436Y-55315632D01*
X100636844Y-55540000D01*
X100000000Y-55540000D01*
X100000000Y-50126000D01*
X100020002Y-50057879D01*
X100073658Y-50011386D01*
X100126000Y-50000000D01*
X159874000Y-50000000D01*
X159942121Y-50020002D01*
G37*
%TD.AperFunction*%
%TD*%
%TA.AperFunction,Conductor*%
%TO.N,+3.3V*%
G36*
X133943039Y-62019685D02*
G01*
X133988794Y-62072489D01*
X134000000Y-62124000D01*
X134000000Y-71876000D01*
X133980315Y-71943039D01*
X133927511Y-71988794D01*
X133876000Y-72000000D01*
X127724000Y-72000000D01*
X127656961Y-71980315D01*
X127611206Y-71927511D01*
X127600000Y-71876000D01*
X127600000Y-62124000D01*
X127619685Y-62056961D01*
X127672489Y-62011206D01*
X127724000Y-62000000D01*
X133876000Y-62000000D01*
X133943039Y-62019685D01*
G37*
%TD.AperFunction*%
%TD*%
M02*
