%TF.GenerationSoftware,KiCad,Pcbnew,8.0.3*%
%TF.CreationDate,2024-06-18T15:35:08+01:00*%
%TF.ProjectId,Sinosaur_Controls,53696e6f-7361-4757-925f-436f6e74726f,rev?*%
%TF.SameCoordinates,Original*%
%TF.FileFunction,Legend,Top*%
%TF.FilePolarity,Positive*%
%FSLAX46Y46*%
G04 Gerber Fmt 4.6, Leading zero omitted, Abs format (unit mm)*
G04 Created by KiCad (PCBNEW 8.0.3) date 2024-06-18 15:35:08*
%MOMM*%
%LPD*%
G01*
G04 APERTURE LIST*
%ADD10C,0.150000*%
%ADD11C,0.120000*%
G04 APERTURE END LIST*
D10*
X101466666Y-83454819D02*
X101466666Y-84169104D01*
X101466666Y-84169104D02*
X101419047Y-84311961D01*
X101419047Y-84311961D02*
X101323809Y-84407200D01*
X101323809Y-84407200D02*
X101180952Y-84454819D01*
X101180952Y-84454819D02*
X101085714Y-84454819D01*
X101895238Y-83550057D02*
X101942857Y-83502438D01*
X101942857Y-83502438D02*
X102038095Y-83454819D01*
X102038095Y-83454819D02*
X102276190Y-83454819D01*
X102276190Y-83454819D02*
X102371428Y-83502438D01*
X102371428Y-83502438D02*
X102419047Y-83550057D01*
X102419047Y-83550057D02*
X102466666Y-83645295D01*
X102466666Y-83645295D02*
X102466666Y-83740533D01*
X102466666Y-83740533D02*
X102419047Y-83883390D01*
X102419047Y-83883390D02*
X101847619Y-84454819D01*
X101847619Y-84454819D02*
X102466666Y-84454819D01*
X157666666Y-83354819D02*
X157666666Y-84069104D01*
X157666666Y-84069104D02*
X157619047Y-84211961D01*
X157619047Y-84211961D02*
X157523809Y-84307200D01*
X157523809Y-84307200D02*
X157380952Y-84354819D01*
X157380952Y-84354819D02*
X157285714Y-84354819D01*
X158666666Y-84354819D02*
X158095238Y-84354819D01*
X158380952Y-84354819D02*
X158380952Y-83354819D01*
X158380952Y-83354819D02*
X158285714Y-83497676D01*
X158285714Y-83497676D02*
X158190476Y-83592914D01*
X158190476Y-83592914D02*
X158095238Y-83640533D01*
X157666666Y-105654819D02*
X157666666Y-106369104D01*
X157666666Y-106369104D02*
X157619047Y-106511961D01*
X157619047Y-106511961D02*
X157523809Y-106607200D01*
X157523809Y-106607200D02*
X157380952Y-106654819D01*
X157380952Y-106654819D02*
X157285714Y-106654819D01*
X158047619Y-105654819D02*
X158666666Y-105654819D01*
X158666666Y-105654819D02*
X158333333Y-106035771D01*
X158333333Y-106035771D02*
X158476190Y-106035771D01*
X158476190Y-106035771D02*
X158571428Y-106083390D01*
X158571428Y-106083390D02*
X158619047Y-106131009D01*
X158619047Y-106131009D02*
X158666666Y-106226247D01*
X158666666Y-106226247D02*
X158666666Y-106464342D01*
X158666666Y-106464342D02*
X158619047Y-106559580D01*
X158619047Y-106559580D02*
X158571428Y-106607200D01*
X158571428Y-106607200D02*
X158476190Y-106654819D01*
X158476190Y-106654819D02*
X158190476Y-106654819D01*
X158190476Y-106654819D02*
X158095238Y-106607200D01*
X158095238Y-106607200D02*
X158047619Y-106559580D01*
X101666666Y-105754819D02*
X101666666Y-106469104D01*
X101666666Y-106469104D02*
X101619047Y-106611961D01*
X101619047Y-106611961D02*
X101523809Y-106707200D01*
X101523809Y-106707200D02*
X101380952Y-106754819D01*
X101380952Y-106754819D02*
X101285714Y-106754819D01*
X102571428Y-106088152D02*
X102571428Y-106754819D01*
X102333333Y-105707200D02*
X102095238Y-106421485D01*
X102095238Y-106421485D02*
X102714285Y-106421485D01*
X126393333Y-129247200D02*
X126536190Y-129294819D01*
X126536190Y-129294819D02*
X126774285Y-129294819D01*
X126774285Y-129294819D02*
X126869523Y-129247200D01*
X126869523Y-129247200D02*
X126917142Y-129199580D01*
X126917142Y-129199580D02*
X126964761Y-129104342D01*
X126964761Y-129104342D02*
X126964761Y-129009104D01*
X126964761Y-129009104D02*
X126917142Y-128913866D01*
X126917142Y-128913866D02*
X126869523Y-128866247D01*
X126869523Y-128866247D02*
X126774285Y-128818628D01*
X126774285Y-128818628D02*
X126583809Y-128771009D01*
X126583809Y-128771009D02*
X126488571Y-128723390D01*
X126488571Y-128723390D02*
X126440952Y-128675771D01*
X126440952Y-128675771D02*
X126393333Y-128580533D01*
X126393333Y-128580533D02*
X126393333Y-128485295D01*
X126393333Y-128485295D02*
X126440952Y-128390057D01*
X126440952Y-128390057D02*
X126488571Y-128342438D01*
X126488571Y-128342438D02*
X126583809Y-128294819D01*
X126583809Y-128294819D02*
X126821904Y-128294819D01*
X126821904Y-128294819D02*
X126964761Y-128342438D01*
X127393333Y-129294819D02*
X127393333Y-128628152D01*
X127393333Y-128294819D02*
X127345714Y-128342438D01*
X127345714Y-128342438D02*
X127393333Y-128390057D01*
X127393333Y-128390057D02*
X127440952Y-128342438D01*
X127440952Y-128342438D02*
X127393333Y-128294819D01*
X127393333Y-128294819D02*
X127393333Y-128390057D01*
X127869523Y-128628152D02*
X127869523Y-129294819D01*
X127869523Y-128723390D02*
X127917142Y-128675771D01*
X127917142Y-128675771D02*
X128012380Y-128628152D01*
X128012380Y-128628152D02*
X128155237Y-128628152D01*
X128155237Y-128628152D02*
X128250475Y-128675771D01*
X128250475Y-128675771D02*
X128298094Y-128771009D01*
X128298094Y-128771009D02*
X128298094Y-129294819D01*
X129155237Y-129247200D02*
X129059999Y-129294819D01*
X129059999Y-129294819D02*
X128869523Y-129294819D01*
X128869523Y-129294819D02*
X128774285Y-129247200D01*
X128774285Y-129247200D02*
X128726666Y-129151961D01*
X128726666Y-129151961D02*
X128726666Y-128771009D01*
X128726666Y-128771009D02*
X128774285Y-128675771D01*
X128774285Y-128675771D02*
X128869523Y-128628152D01*
X128869523Y-128628152D02*
X129059999Y-128628152D01*
X129059999Y-128628152D02*
X129155237Y-128675771D01*
X129155237Y-128675771D02*
X129202856Y-128771009D01*
X129202856Y-128771009D02*
X129202856Y-128866247D01*
X129202856Y-128866247D02*
X128726666Y-128961485D01*
X129393333Y-129390057D02*
X130155237Y-129390057D01*
X130869523Y-129294819D02*
X130393333Y-129294819D01*
X130393333Y-129294819D02*
X130393333Y-128294819D01*
X131583809Y-129247200D02*
X131488571Y-129294819D01*
X131488571Y-129294819D02*
X131298095Y-129294819D01*
X131298095Y-129294819D02*
X131202857Y-129247200D01*
X131202857Y-129247200D02*
X131155238Y-129151961D01*
X131155238Y-129151961D02*
X131155238Y-128771009D01*
X131155238Y-128771009D02*
X131202857Y-128675771D01*
X131202857Y-128675771D02*
X131298095Y-128628152D01*
X131298095Y-128628152D02*
X131488571Y-128628152D01*
X131488571Y-128628152D02*
X131583809Y-128675771D01*
X131583809Y-128675771D02*
X131631428Y-128771009D01*
X131631428Y-128771009D02*
X131631428Y-128866247D01*
X131631428Y-128866247D02*
X131155238Y-128961485D01*
X131964762Y-128628152D02*
X132202857Y-129294819D01*
X132202857Y-129294819D02*
X132440952Y-128628152D01*
X133202857Y-129247200D02*
X133107619Y-129294819D01*
X133107619Y-129294819D02*
X132917143Y-129294819D01*
X132917143Y-129294819D02*
X132821905Y-129247200D01*
X132821905Y-129247200D02*
X132774286Y-129151961D01*
X132774286Y-129151961D02*
X132774286Y-128771009D01*
X132774286Y-128771009D02*
X132821905Y-128675771D01*
X132821905Y-128675771D02*
X132917143Y-128628152D01*
X132917143Y-128628152D02*
X133107619Y-128628152D01*
X133107619Y-128628152D02*
X133202857Y-128675771D01*
X133202857Y-128675771D02*
X133250476Y-128771009D01*
X133250476Y-128771009D02*
X133250476Y-128866247D01*
X133250476Y-128866247D02*
X132774286Y-128961485D01*
X133821905Y-129294819D02*
X133726667Y-129247200D01*
X133726667Y-129247200D02*
X133679048Y-129151961D01*
X133679048Y-129151961D02*
X133679048Y-128294819D01*
X134107620Y-128294819D02*
X134726667Y-128294819D01*
X134726667Y-128294819D02*
X134393334Y-128675771D01*
X134393334Y-128675771D02*
X134536191Y-128675771D01*
X134536191Y-128675771D02*
X134631429Y-128723390D01*
X134631429Y-128723390D02*
X134679048Y-128771009D01*
X134679048Y-128771009D02*
X134726667Y-128866247D01*
X134726667Y-128866247D02*
X134726667Y-129104342D01*
X134726667Y-129104342D02*
X134679048Y-129199580D01*
X134679048Y-129199580D02*
X134631429Y-129247200D01*
X134631429Y-129247200D02*
X134536191Y-129294819D01*
X134536191Y-129294819D02*
X134250477Y-129294819D01*
X134250477Y-129294819D02*
X134155239Y-129247200D01*
X134155239Y-129247200D02*
X134107620Y-129199580D01*
X126393333Y-79247200D02*
X126536190Y-79294819D01*
X126536190Y-79294819D02*
X126774285Y-79294819D01*
X126774285Y-79294819D02*
X126869523Y-79247200D01*
X126869523Y-79247200D02*
X126917142Y-79199580D01*
X126917142Y-79199580D02*
X126964761Y-79104342D01*
X126964761Y-79104342D02*
X126964761Y-79009104D01*
X126964761Y-79009104D02*
X126917142Y-78913866D01*
X126917142Y-78913866D02*
X126869523Y-78866247D01*
X126869523Y-78866247D02*
X126774285Y-78818628D01*
X126774285Y-78818628D02*
X126583809Y-78771009D01*
X126583809Y-78771009D02*
X126488571Y-78723390D01*
X126488571Y-78723390D02*
X126440952Y-78675771D01*
X126440952Y-78675771D02*
X126393333Y-78580533D01*
X126393333Y-78580533D02*
X126393333Y-78485295D01*
X126393333Y-78485295D02*
X126440952Y-78390057D01*
X126440952Y-78390057D02*
X126488571Y-78342438D01*
X126488571Y-78342438D02*
X126583809Y-78294819D01*
X126583809Y-78294819D02*
X126821904Y-78294819D01*
X126821904Y-78294819D02*
X126964761Y-78342438D01*
X127393333Y-79294819D02*
X127393333Y-78628152D01*
X127393333Y-78294819D02*
X127345714Y-78342438D01*
X127345714Y-78342438D02*
X127393333Y-78390057D01*
X127393333Y-78390057D02*
X127440952Y-78342438D01*
X127440952Y-78342438D02*
X127393333Y-78294819D01*
X127393333Y-78294819D02*
X127393333Y-78390057D01*
X127869523Y-78628152D02*
X127869523Y-79294819D01*
X127869523Y-78723390D02*
X127917142Y-78675771D01*
X127917142Y-78675771D02*
X128012380Y-78628152D01*
X128012380Y-78628152D02*
X128155237Y-78628152D01*
X128155237Y-78628152D02*
X128250475Y-78675771D01*
X128250475Y-78675771D02*
X128298094Y-78771009D01*
X128298094Y-78771009D02*
X128298094Y-79294819D01*
X129155237Y-79247200D02*
X129059999Y-79294819D01*
X129059999Y-79294819D02*
X128869523Y-79294819D01*
X128869523Y-79294819D02*
X128774285Y-79247200D01*
X128774285Y-79247200D02*
X128726666Y-79151961D01*
X128726666Y-79151961D02*
X128726666Y-78771009D01*
X128726666Y-78771009D02*
X128774285Y-78675771D01*
X128774285Y-78675771D02*
X128869523Y-78628152D01*
X128869523Y-78628152D02*
X129059999Y-78628152D01*
X129059999Y-78628152D02*
X129155237Y-78675771D01*
X129155237Y-78675771D02*
X129202856Y-78771009D01*
X129202856Y-78771009D02*
X129202856Y-78866247D01*
X129202856Y-78866247D02*
X128726666Y-78961485D01*
X129393333Y-79390057D02*
X130155237Y-79390057D01*
X130869523Y-79294819D02*
X130393333Y-79294819D01*
X130393333Y-79294819D02*
X130393333Y-78294819D01*
X131583809Y-79247200D02*
X131488571Y-79294819D01*
X131488571Y-79294819D02*
X131298095Y-79294819D01*
X131298095Y-79294819D02*
X131202857Y-79247200D01*
X131202857Y-79247200D02*
X131155238Y-79151961D01*
X131155238Y-79151961D02*
X131155238Y-78771009D01*
X131155238Y-78771009D02*
X131202857Y-78675771D01*
X131202857Y-78675771D02*
X131298095Y-78628152D01*
X131298095Y-78628152D02*
X131488571Y-78628152D01*
X131488571Y-78628152D02*
X131583809Y-78675771D01*
X131583809Y-78675771D02*
X131631428Y-78771009D01*
X131631428Y-78771009D02*
X131631428Y-78866247D01*
X131631428Y-78866247D02*
X131155238Y-78961485D01*
X131964762Y-78628152D02*
X132202857Y-79294819D01*
X132202857Y-79294819D02*
X132440952Y-78628152D01*
X133202857Y-79247200D02*
X133107619Y-79294819D01*
X133107619Y-79294819D02*
X132917143Y-79294819D01*
X132917143Y-79294819D02*
X132821905Y-79247200D01*
X132821905Y-79247200D02*
X132774286Y-79151961D01*
X132774286Y-79151961D02*
X132774286Y-78771009D01*
X132774286Y-78771009D02*
X132821905Y-78675771D01*
X132821905Y-78675771D02*
X132917143Y-78628152D01*
X132917143Y-78628152D02*
X133107619Y-78628152D01*
X133107619Y-78628152D02*
X133202857Y-78675771D01*
X133202857Y-78675771D02*
X133250476Y-78771009D01*
X133250476Y-78771009D02*
X133250476Y-78866247D01*
X133250476Y-78866247D02*
X132774286Y-78961485D01*
X133821905Y-79294819D02*
X133726667Y-79247200D01*
X133726667Y-79247200D02*
X133679048Y-79151961D01*
X133679048Y-79151961D02*
X133679048Y-78294819D01*
X134726667Y-79294819D02*
X134155239Y-79294819D01*
X134440953Y-79294819D02*
X134440953Y-78294819D01*
X134440953Y-78294819D02*
X134345715Y-78437676D01*
X134345715Y-78437676D02*
X134250477Y-78532914D01*
X134250477Y-78532914D02*
X134155239Y-78580533D01*
X106531428Y-97647200D02*
X106674285Y-97694819D01*
X106674285Y-97694819D02*
X106912380Y-97694819D01*
X106912380Y-97694819D02*
X107007618Y-97647200D01*
X107007618Y-97647200D02*
X107055237Y-97599580D01*
X107055237Y-97599580D02*
X107102856Y-97504342D01*
X107102856Y-97504342D02*
X107102856Y-97409104D01*
X107102856Y-97409104D02*
X107055237Y-97313866D01*
X107055237Y-97313866D02*
X107007618Y-97266247D01*
X107007618Y-97266247D02*
X106912380Y-97218628D01*
X106912380Y-97218628D02*
X106721904Y-97171009D01*
X106721904Y-97171009D02*
X106626666Y-97123390D01*
X106626666Y-97123390D02*
X106579047Y-97075771D01*
X106579047Y-97075771D02*
X106531428Y-96980533D01*
X106531428Y-96980533D02*
X106531428Y-96885295D01*
X106531428Y-96885295D02*
X106579047Y-96790057D01*
X106579047Y-96790057D02*
X106626666Y-96742438D01*
X106626666Y-96742438D02*
X106721904Y-96694819D01*
X106721904Y-96694819D02*
X106959999Y-96694819D01*
X106959999Y-96694819D02*
X107102856Y-96742438D01*
X107531428Y-97694819D02*
X107531428Y-97028152D01*
X107531428Y-96694819D02*
X107483809Y-96742438D01*
X107483809Y-96742438D02*
X107531428Y-96790057D01*
X107531428Y-96790057D02*
X107579047Y-96742438D01*
X107579047Y-96742438D02*
X107531428Y-96694819D01*
X107531428Y-96694819D02*
X107531428Y-96790057D01*
X108007618Y-97028152D02*
X108007618Y-97694819D01*
X108007618Y-97123390D02*
X108055237Y-97075771D01*
X108055237Y-97075771D02*
X108150475Y-97028152D01*
X108150475Y-97028152D02*
X108293332Y-97028152D01*
X108293332Y-97028152D02*
X108388570Y-97075771D01*
X108388570Y-97075771D02*
X108436189Y-97171009D01*
X108436189Y-97171009D02*
X108436189Y-97694819D01*
X109293332Y-97647200D02*
X109198094Y-97694819D01*
X109198094Y-97694819D02*
X109007618Y-97694819D01*
X109007618Y-97694819D02*
X108912380Y-97647200D01*
X108912380Y-97647200D02*
X108864761Y-97551961D01*
X108864761Y-97551961D02*
X108864761Y-97171009D01*
X108864761Y-97171009D02*
X108912380Y-97075771D01*
X108912380Y-97075771D02*
X109007618Y-97028152D01*
X109007618Y-97028152D02*
X109198094Y-97028152D01*
X109198094Y-97028152D02*
X109293332Y-97075771D01*
X109293332Y-97075771D02*
X109340951Y-97171009D01*
X109340951Y-97171009D02*
X109340951Y-97266247D01*
X109340951Y-97266247D02*
X108864761Y-97361485D01*
X109531428Y-97790057D02*
X110293332Y-97790057D01*
X111102856Y-97694819D02*
X110769523Y-97218628D01*
X110531428Y-97694819D02*
X110531428Y-96694819D01*
X110531428Y-96694819D02*
X110912380Y-96694819D01*
X110912380Y-96694819D02*
X111007618Y-96742438D01*
X111007618Y-96742438D02*
X111055237Y-96790057D01*
X111055237Y-96790057D02*
X111102856Y-96885295D01*
X111102856Y-96885295D02*
X111102856Y-97028152D01*
X111102856Y-97028152D02*
X111055237Y-97123390D01*
X111055237Y-97123390D02*
X111007618Y-97171009D01*
X111007618Y-97171009D02*
X110912380Y-97218628D01*
X110912380Y-97218628D02*
X110531428Y-97218628D01*
X111959999Y-97694819D02*
X111959999Y-97171009D01*
X111959999Y-97171009D02*
X111912380Y-97075771D01*
X111912380Y-97075771D02*
X111817142Y-97028152D01*
X111817142Y-97028152D02*
X111626666Y-97028152D01*
X111626666Y-97028152D02*
X111531428Y-97075771D01*
X111959999Y-97647200D02*
X111864761Y-97694819D01*
X111864761Y-97694819D02*
X111626666Y-97694819D01*
X111626666Y-97694819D02*
X111531428Y-97647200D01*
X111531428Y-97647200D02*
X111483809Y-97551961D01*
X111483809Y-97551961D02*
X111483809Y-97456723D01*
X111483809Y-97456723D02*
X111531428Y-97361485D01*
X111531428Y-97361485D02*
X111626666Y-97313866D01*
X111626666Y-97313866D02*
X111864761Y-97313866D01*
X111864761Y-97313866D02*
X111959999Y-97266247D01*
X112293333Y-97028152D02*
X112674285Y-97028152D01*
X112436190Y-96694819D02*
X112436190Y-97551961D01*
X112436190Y-97551961D02*
X112483809Y-97647200D01*
X112483809Y-97647200D02*
X112579047Y-97694819D01*
X112579047Y-97694819D02*
X112674285Y-97694819D01*
X113388571Y-97647200D02*
X113293333Y-97694819D01*
X113293333Y-97694819D02*
X113102857Y-97694819D01*
X113102857Y-97694819D02*
X113007619Y-97647200D01*
X113007619Y-97647200D02*
X112960000Y-97551961D01*
X112960000Y-97551961D02*
X112960000Y-97171009D01*
X112960000Y-97171009D02*
X113007619Y-97075771D01*
X113007619Y-97075771D02*
X113102857Y-97028152D01*
X113102857Y-97028152D02*
X113293333Y-97028152D01*
X113293333Y-97028152D02*
X113388571Y-97075771D01*
X113388571Y-97075771D02*
X113436190Y-97171009D01*
X113436190Y-97171009D02*
X113436190Y-97266247D01*
X113436190Y-97266247D02*
X112960000Y-97361485D01*
X113817143Y-96790057D02*
X113864762Y-96742438D01*
X113864762Y-96742438D02*
X113960000Y-96694819D01*
X113960000Y-96694819D02*
X114198095Y-96694819D01*
X114198095Y-96694819D02*
X114293333Y-96742438D01*
X114293333Y-96742438D02*
X114340952Y-96790057D01*
X114340952Y-96790057D02*
X114388571Y-96885295D01*
X114388571Y-96885295D02*
X114388571Y-96980533D01*
X114388571Y-96980533D02*
X114340952Y-97123390D01*
X114340952Y-97123390D02*
X113769524Y-97694819D01*
X113769524Y-97694819D02*
X114388571Y-97694819D01*
X106531428Y-122647200D02*
X106674285Y-122694819D01*
X106674285Y-122694819D02*
X106912380Y-122694819D01*
X106912380Y-122694819D02*
X107007618Y-122647200D01*
X107007618Y-122647200D02*
X107055237Y-122599580D01*
X107055237Y-122599580D02*
X107102856Y-122504342D01*
X107102856Y-122504342D02*
X107102856Y-122409104D01*
X107102856Y-122409104D02*
X107055237Y-122313866D01*
X107055237Y-122313866D02*
X107007618Y-122266247D01*
X107007618Y-122266247D02*
X106912380Y-122218628D01*
X106912380Y-122218628D02*
X106721904Y-122171009D01*
X106721904Y-122171009D02*
X106626666Y-122123390D01*
X106626666Y-122123390D02*
X106579047Y-122075771D01*
X106579047Y-122075771D02*
X106531428Y-121980533D01*
X106531428Y-121980533D02*
X106531428Y-121885295D01*
X106531428Y-121885295D02*
X106579047Y-121790057D01*
X106579047Y-121790057D02*
X106626666Y-121742438D01*
X106626666Y-121742438D02*
X106721904Y-121694819D01*
X106721904Y-121694819D02*
X106959999Y-121694819D01*
X106959999Y-121694819D02*
X107102856Y-121742438D01*
X107531428Y-122694819D02*
X107531428Y-122028152D01*
X107531428Y-121694819D02*
X107483809Y-121742438D01*
X107483809Y-121742438D02*
X107531428Y-121790057D01*
X107531428Y-121790057D02*
X107579047Y-121742438D01*
X107579047Y-121742438D02*
X107531428Y-121694819D01*
X107531428Y-121694819D02*
X107531428Y-121790057D01*
X108007618Y-122028152D02*
X108007618Y-122694819D01*
X108007618Y-122123390D02*
X108055237Y-122075771D01*
X108055237Y-122075771D02*
X108150475Y-122028152D01*
X108150475Y-122028152D02*
X108293332Y-122028152D01*
X108293332Y-122028152D02*
X108388570Y-122075771D01*
X108388570Y-122075771D02*
X108436189Y-122171009D01*
X108436189Y-122171009D02*
X108436189Y-122694819D01*
X109293332Y-122647200D02*
X109198094Y-122694819D01*
X109198094Y-122694819D02*
X109007618Y-122694819D01*
X109007618Y-122694819D02*
X108912380Y-122647200D01*
X108912380Y-122647200D02*
X108864761Y-122551961D01*
X108864761Y-122551961D02*
X108864761Y-122171009D01*
X108864761Y-122171009D02*
X108912380Y-122075771D01*
X108912380Y-122075771D02*
X109007618Y-122028152D01*
X109007618Y-122028152D02*
X109198094Y-122028152D01*
X109198094Y-122028152D02*
X109293332Y-122075771D01*
X109293332Y-122075771D02*
X109340951Y-122171009D01*
X109340951Y-122171009D02*
X109340951Y-122266247D01*
X109340951Y-122266247D02*
X108864761Y-122361485D01*
X109531428Y-122790057D02*
X110293332Y-122790057D01*
X111102856Y-122694819D02*
X110769523Y-122218628D01*
X110531428Y-122694819D02*
X110531428Y-121694819D01*
X110531428Y-121694819D02*
X110912380Y-121694819D01*
X110912380Y-121694819D02*
X111007618Y-121742438D01*
X111007618Y-121742438D02*
X111055237Y-121790057D01*
X111055237Y-121790057D02*
X111102856Y-121885295D01*
X111102856Y-121885295D02*
X111102856Y-122028152D01*
X111102856Y-122028152D02*
X111055237Y-122123390D01*
X111055237Y-122123390D02*
X111007618Y-122171009D01*
X111007618Y-122171009D02*
X110912380Y-122218628D01*
X110912380Y-122218628D02*
X110531428Y-122218628D01*
X111959999Y-122694819D02*
X111959999Y-122171009D01*
X111959999Y-122171009D02*
X111912380Y-122075771D01*
X111912380Y-122075771D02*
X111817142Y-122028152D01*
X111817142Y-122028152D02*
X111626666Y-122028152D01*
X111626666Y-122028152D02*
X111531428Y-122075771D01*
X111959999Y-122647200D02*
X111864761Y-122694819D01*
X111864761Y-122694819D02*
X111626666Y-122694819D01*
X111626666Y-122694819D02*
X111531428Y-122647200D01*
X111531428Y-122647200D02*
X111483809Y-122551961D01*
X111483809Y-122551961D02*
X111483809Y-122456723D01*
X111483809Y-122456723D02*
X111531428Y-122361485D01*
X111531428Y-122361485D02*
X111626666Y-122313866D01*
X111626666Y-122313866D02*
X111864761Y-122313866D01*
X111864761Y-122313866D02*
X111959999Y-122266247D01*
X112293333Y-122028152D02*
X112674285Y-122028152D01*
X112436190Y-121694819D02*
X112436190Y-122551961D01*
X112436190Y-122551961D02*
X112483809Y-122647200D01*
X112483809Y-122647200D02*
X112579047Y-122694819D01*
X112579047Y-122694819D02*
X112674285Y-122694819D01*
X113388571Y-122647200D02*
X113293333Y-122694819D01*
X113293333Y-122694819D02*
X113102857Y-122694819D01*
X113102857Y-122694819D02*
X113007619Y-122647200D01*
X113007619Y-122647200D02*
X112960000Y-122551961D01*
X112960000Y-122551961D02*
X112960000Y-122171009D01*
X112960000Y-122171009D02*
X113007619Y-122075771D01*
X113007619Y-122075771D02*
X113102857Y-122028152D01*
X113102857Y-122028152D02*
X113293333Y-122028152D01*
X113293333Y-122028152D02*
X113388571Y-122075771D01*
X113388571Y-122075771D02*
X113436190Y-122171009D01*
X113436190Y-122171009D02*
X113436190Y-122266247D01*
X113436190Y-122266247D02*
X112960000Y-122361485D01*
X113769524Y-121694819D02*
X114388571Y-121694819D01*
X114388571Y-121694819D02*
X114055238Y-122075771D01*
X114055238Y-122075771D02*
X114198095Y-122075771D01*
X114198095Y-122075771D02*
X114293333Y-122123390D01*
X114293333Y-122123390D02*
X114340952Y-122171009D01*
X114340952Y-122171009D02*
X114388571Y-122266247D01*
X114388571Y-122266247D02*
X114388571Y-122504342D01*
X114388571Y-122504342D02*
X114340952Y-122599580D01*
X114340952Y-122599580D02*
X114293333Y-122647200D01*
X114293333Y-122647200D02*
X114198095Y-122694819D01*
X114198095Y-122694819D02*
X113912381Y-122694819D01*
X113912381Y-122694819D02*
X113817143Y-122647200D01*
X113817143Y-122647200D02*
X113769524Y-122599580D01*
X126393333Y-104247200D02*
X126536190Y-104294819D01*
X126536190Y-104294819D02*
X126774285Y-104294819D01*
X126774285Y-104294819D02*
X126869523Y-104247200D01*
X126869523Y-104247200D02*
X126917142Y-104199580D01*
X126917142Y-104199580D02*
X126964761Y-104104342D01*
X126964761Y-104104342D02*
X126964761Y-104009104D01*
X126964761Y-104009104D02*
X126917142Y-103913866D01*
X126917142Y-103913866D02*
X126869523Y-103866247D01*
X126869523Y-103866247D02*
X126774285Y-103818628D01*
X126774285Y-103818628D02*
X126583809Y-103771009D01*
X126583809Y-103771009D02*
X126488571Y-103723390D01*
X126488571Y-103723390D02*
X126440952Y-103675771D01*
X126440952Y-103675771D02*
X126393333Y-103580533D01*
X126393333Y-103580533D02*
X126393333Y-103485295D01*
X126393333Y-103485295D02*
X126440952Y-103390057D01*
X126440952Y-103390057D02*
X126488571Y-103342438D01*
X126488571Y-103342438D02*
X126583809Y-103294819D01*
X126583809Y-103294819D02*
X126821904Y-103294819D01*
X126821904Y-103294819D02*
X126964761Y-103342438D01*
X127393333Y-104294819D02*
X127393333Y-103628152D01*
X127393333Y-103294819D02*
X127345714Y-103342438D01*
X127345714Y-103342438D02*
X127393333Y-103390057D01*
X127393333Y-103390057D02*
X127440952Y-103342438D01*
X127440952Y-103342438D02*
X127393333Y-103294819D01*
X127393333Y-103294819D02*
X127393333Y-103390057D01*
X127869523Y-103628152D02*
X127869523Y-104294819D01*
X127869523Y-103723390D02*
X127917142Y-103675771D01*
X127917142Y-103675771D02*
X128012380Y-103628152D01*
X128012380Y-103628152D02*
X128155237Y-103628152D01*
X128155237Y-103628152D02*
X128250475Y-103675771D01*
X128250475Y-103675771D02*
X128298094Y-103771009D01*
X128298094Y-103771009D02*
X128298094Y-104294819D01*
X129155237Y-104247200D02*
X129059999Y-104294819D01*
X129059999Y-104294819D02*
X128869523Y-104294819D01*
X128869523Y-104294819D02*
X128774285Y-104247200D01*
X128774285Y-104247200D02*
X128726666Y-104151961D01*
X128726666Y-104151961D02*
X128726666Y-103771009D01*
X128726666Y-103771009D02*
X128774285Y-103675771D01*
X128774285Y-103675771D02*
X128869523Y-103628152D01*
X128869523Y-103628152D02*
X129059999Y-103628152D01*
X129059999Y-103628152D02*
X129155237Y-103675771D01*
X129155237Y-103675771D02*
X129202856Y-103771009D01*
X129202856Y-103771009D02*
X129202856Y-103866247D01*
X129202856Y-103866247D02*
X128726666Y-103961485D01*
X129393333Y-104390057D02*
X130155237Y-104390057D01*
X130869523Y-104294819D02*
X130393333Y-104294819D01*
X130393333Y-104294819D02*
X130393333Y-103294819D01*
X131583809Y-104247200D02*
X131488571Y-104294819D01*
X131488571Y-104294819D02*
X131298095Y-104294819D01*
X131298095Y-104294819D02*
X131202857Y-104247200D01*
X131202857Y-104247200D02*
X131155238Y-104151961D01*
X131155238Y-104151961D02*
X131155238Y-103771009D01*
X131155238Y-103771009D02*
X131202857Y-103675771D01*
X131202857Y-103675771D02*
X131298095Y-103628152D01*
X131298095Y-103628152D02*
X131488571Y-103628152D01*
X131488571Y-103628152D02*
X131583809Y-103675771D01*
X131583809Y-103675771D02*
X131631428Y-103771009D01*
X131631428Y-103771009D02*
X131631428Y-103866247D01*
X131631428Y-103866247D02*
X131155238Y-103961485D01*
X131964762Y-103628152D02*
X132202857Y-104294819D01*
X132202857Y-104294819D02*
X132440952Y-103628152D01*
X133202857Y-104247200D02*
X133107619Y-104294819D01*
X133107619Y-104294819D02*
X132917143Y-104294819D01*
X132917143Y-104294819D02*
X132821905Y-104247200D01*
X132821905Y-104247200D02*
X132774286Y-104151961D01*
X132774286Y-104151961D02*
X132774286Y-103771009D01*
X132774286Y-103771009D02*
X132821905Y-103675771D01*
X132821905Y-103675771D02*
X132917143Y-103628152D01*
X132917143Y-103628152D02*
X133107619Y-103628152D01*
X133107619Y-103628152D02*
X133202857Y-103675771D01*
X133202857Y-103675771D02*
X133250476Y-103771009D01*
X133250476Y-103771009D02*
X133250476Y-103866247D01*
X133250476Y-103866247D02*
X132774286Y-103961485D01*
X133821905Y-104294819D02*
X133726667Y-104247200D01*
X133726667Y-104247200D02*
X133679048Y-104151961D01*
X133679048Y-104151961D02*
X133679048Y-103294819D01*
X134155239Y-103390057D02*
X134202858Y-103342438D01*
X134202858Y-103342438D02*
X134298096Y-103294819D01*
X134298096Y-103294819D02*
X134536191Y-103294819D01*
X134536191Y-103294819D02*
X134631429Y-103342438D01*
X134631429Y-103342438D02*
X134679048Y-103390057D01*
X134679048Y-103390057D02*
X134726667Y-103485295D01*
X134726667Y-103485295D02*
X134726667Y-103580533D01*
X134726667Y-103580533D02*
X134679048Y-103723390D01*
X134679048Y-103723390D02*
X134107620Y-104294819D01*
X134107620Y-104294819D02*
X134726667Y-104294819D01*
X106531428Y-72647200D02*
X106674285Y-72694819D01*
X106674285Y-72694819D02*
X106912380Y-72694819D01*
X106912380Y-72694819D02*
X107007618Y-72647200D01*
X107007618Y-72647200D02*
X107055237Y-72599580D01*
X107055237Y-72599580D02*
X107102856Y-72504342D01*
X107102856Y-72504342D02*
X107102856Y-72409104D01*
X107102856Y-72409104D02*
X107055237Y-72313866D01*
X107055237Y-72313866D02*
X107007618Y-72266247D01*
X107007618Y-72266247D02*
X106912380Y-72218628D01*
X106912380Y-72218628D02*
X106721904Y-72171009D01*
X106721904Y-72171009D02*
X106626666Y-72123390D01*
X106626666Y-72123390D02*
X106579047Y-72075771D01*
X106579047Y-72075771D02*
X106531428Y-71980533D01*
X106531428Y-71980533D02*
X106531428Y-71885295D01*
X106531428Y-71885295D02*
X106579047Y-71790057D01*
X106579047Y-71790057D02*
X106626666Y-71742438D01*
X106626666Y-71742438D02*
X106721904Y-71694819D01*
X106721904Y-71694819D02*
X106959999Y-71694819D01*
X106959999Y-71694819D02*
X107102856Y-71742438D01*
X107531428Y-72694819D02*
X107531428Y-72028152D01*
X107531428Y-71694819D02*
X107483809Y-71742438D01*
X107483809Y-71742438D02*
X107531428Y-71790057D01*
X107531428Y-71790057D02*
X107579047Y-71742438D01*
X107579047Y-71742438D02*
X107531428Y-71694819D01*
X107531428Y-71694819D02*
X107531428Y-71790057D01*
X108007618Y-72028152D02*
X108007618Y-72694819D01*
X108007618Y-72123390D02*
X108055237Y-72075771D01*
X108055237Y-72075771D02*
X108150475Y-72028152D01*
X108150475Y-72028152D02*
X108293332Y-72028152D01*
X108293332Y-72028152D02*
X108388570Y-72075771D01*
X108388570Y-72075771D02*
X108436189Y-72171009D01*
X108436189Y-72171009D02*
X108436189Y-72694819D01*
X109293332Y-72647200D02*
X109198094Y-72694819D01*
X109198094Y-72694819D02*
X109007618Y-72694819D01*
X109007618Y-72694819D02*
X108912380Y-72647200D01*
X108912380Y-72647200D02*
X108864761Y-72551961D01*
X108864761Y-72551961D02*
X108864761Y-72171009D01*
X108864761Y-72171009D02*
X108912380Y-72075771D01*
X108912380Y-72075771D02*
X109007618Y-72028152D01*
X109007618Y-72028152D02*
X109198094Y-72028152D01*
X109198094Y-72028152D02*
X109293332Y-72075771D01*
X109293332Y-72075771D02*
X109340951Y-72171009D01*
X109340951Y-72171009D02*
X109340951Y-72266247D01*
X109340951Y-72266247D02*
X108864761Y-72361485D01*
X109531428Y-72790057D02*
X110293332Y-72790057D01*
X111102856Y-72694819D02*
X110769523Y-72218628D01*
X110531428Y-72694819D02*
X110531428Y-71694819D01*
X110531428Y-71694819D02*
X110912380Y-71694819D01*
X110912380Y-71694819D02*
X111007618Y-71742438D01*
X111007618Y-71742438D02*
X111055237Y-71790057D01*
X111055237Y-71790057D02*
X111102856Y-71885295D01*
X111102856Y-71885295D02*
X111102856Y-72028152D01*
X111102856Y-72028152D02*
X111055237Y-72123390D01*
X111055237Y-72123390D02*
X111007618Y-72171009D01*
X111007618Y-72171009D02*
X110912380Y-72218628D01*
X110912380Y-72218628D02*
X110531428Y-72218628D01*
X111959999Y-72694819D02*
X111959999Y-72171009D01*
X111959999Y-72171009D02*
X111912380Y-72075771D01*
X111912380Y-72075771D02*
X111817142Y-72028152D01*
X111817142Y-72028152D02*
X111626666Y-72028152D01*
X111626666Y-72028152D02*
X111531428Y-72075771D01*
X111959999Y-72647200D02*
X111864761Y-72694819D01*
X111864761Y-72694819D02*
X111626666Y-72694819D01*
X111626666Y-72694819D02*
X111531428Y-72647200D01*
X111531428Y-72647200D02*
X111483809Y-72551961D01*
X111483809Y-72551961D02*
X111483809Y-72456723D01*
X111483809Y-72456723D02*
X111531428Y-72361485D01*
X111531428Y-72361485D02*
X111626666Y-72313866D01*
X111626666Y-72313866D02*
X111864761Y-72313866D01*
X111864761Y-72313866D02*
X111959999Y-72266247D01*
X112293333Y-72028152D02*
X112674285Y-72028152D01*
X112436190Y-71694819D02*
X112436190Y-72551961D01*
X112436190Y-72551961D02*
X112483809Y-72647200D01*
X112483809Y-72647200D02*
X112579047Y-72694819D01*
X112579047Y-72694819D02*
X112674285Y-72694819D01*
X113388571Y-72647200D02*
X113293333Y-72694819D01*
X113293333Y-72694819D02*
X113102857Y-72694819D01*
X113102857Y-72694819D02*
X113007619Y-72647200D01*
X113007619Y-72647200D02*
X112960000Y-72551961D01*
X112960000Y-72551961D02*
X112960000Y-72171009D01*
X112960000Y-72171009D02*
X113007619Y-72075771D01*
X113007619Y-72075771D02*
X113102857Y-72028152D01*
X113102857Y-72028152D02*
X113293333Y-72028152D01*
X113293333Y-72028152D02*
X113388571Y-72075771D01*
X113388571Y-72075771D02*
X113436190Y-72171009D01*
X113436190Y-72171009D02*
X113436190Y-72266247D01*
X113436190Y-72266247D02*
X112960000Y-72361485D01*
X114388571Y-72694819D02*
X113817143Y-72694819D01*
X114102857Y-72694819D02*
X114102857Y-71694819D01*
X114102857Y-71694819D02*
X114007619Y-71837676D01*
X114007619Y-71837676D02*
X113912381Y-71932914D01*
X113912381Y-71932914D02*
X113817143Y-71980533D01*
X144095237Y-56054819D02*
X143761904Y-55578628D01*
X143523809Y-56054819D02*
X143523809Y-55054819D01*
X143523809Y-55054819D02*
X143904761Y-55054819D01*
X143904761Y-55054819D02*
X143999999Y-55102438D01*
X143999999Y-55102438D02*
X144047618Y-55150057D01*
X144047618Y-55150057D02*
X144095237Y-55245295D01*
X144095237Y-55245295D02*
X144095237Y-55388152D01*
X144095237Y-55388152D02*
X144047618Y-55483390D01*
X144047618Y-55483390D02*
X143999999Y-55531009D01*
X143999999Y-55531009D02*
X143904761Y-55578628D01*
X143904761Y-55578628D02*
X143523809Y-55578628D01*
X144952380Y-56054819D02*
X144952380Y-55531009D01*
X144952380Y-55531009D02*
X144904761Y-55435771D01*
X144904761Y-55435771D02*
X144809523Y-55388152D01*
X144809523Y-55388152D02*
X144619047Y-55388152D01*
X144619047Y-55388152D02*
X144523809Y-55435771D01*
X144952380Y-56007200D02*
X144857142Y-56054819D01*
X144857142Y-56054819D02*
X144619047Y-56054819D01*
X144619047Y-56054819D02*
X144523809Y-56007200D01*
X144523809Y-56007200D02*
X144476190Y-55911961D01*
X144476190Y-55911961D02*
X144476190Y-55816723D01*
X144476190Y-55816723D02*
X144523809Y-55721485D01*
X144523809Y-55721485D02*
X144619047Y-55673866D01*
X144619047Y-55673866D02*
X144857142Y-55673866D01*
X144857142Y-55673866D02*
X144952380Y-55626247D01*
X145428571Y-56054819D02*
X145428571Y-55388152D01*
X145428571Y-55483390D02*
X145476190Y-55435771D01*
X145476190Y-55435771D02*
X145571428Y-55388152D01*
X145571428Y-55388152D02*
X145714285Y-55388152D01*
X145714285Y-55388152D02*
X145809523Y-55435771D01*
X145809523Y-55435771D02*
X145857142Y-55531009D01*
X145857142Y-55531009D02*
X145857142Y-56054819D01*
X145857142Y-55531009D02*
X145904761Y-55435771D01*
X145904761Y-55435771D02*
X145999999Y-55388152D01*
X145999999Y-55388152D02*
X146142856Y-55388152D01*
X146142856Y-55388152D02*
X146238095Y-55435771D01*
X146238095Y-55435771D02*
X146285714Y-55531009D01*
X146285714Y-55531009D02*
X146285714Y-56054819D01*
X146761904Y-55388152D02*
X146761904Y-56388152D01*
X146761904Y-55435771D02*
X146857142Y-55388152D01*
X146857142Y-55388152D02*
X147047618Y-55388152D01*
X147047618Y-55388152D02*
X147142856Y-55435771D01*
X147142856Y-55435771D02*
X147190475Y-55483390D01*
X147190475Y-55483390D02*
X147238094Y-55578628D01*
X147238094Y-55578628D02*
X147238094Y-55864342D01*
X147238094Y-55864342D02*
X147190475Y-55959580D01*
X147190475Y-55959580D02*
X147142856Y-56007200D01*
X147142856Y-56007200D02*
X147047618Y-56054819D01*
X147047618Y-56054819D02*
X146857142Y-56054819D01*
X146857142Y-56054819D02*
X146761904Y-56007200D01*
X147428571Y-56150057D02*
X148190475Y-56150057D01*
X148999999Y-56054819D02*
X148666666Y-55578628D01*
X148428571Y-56054819D02*
X148428571Y-55054819D01*
X148428571Y-55054819D02*
X148809523Y-55054819D01*
X148809523Y-55054819D02*
X148904761Y-55102438D01*
X148904761Y-55102438D02*
X148952380Y-55150057D01*
X148952380Y-55150057D02*
X148999999Y-55245295D01*
X148999999Y-55245295D02*
X148999999Y-55388152D01*
X148999999Y-55388152D02*
X148952380Y-55483390D01*
X148952380Y-55483390D02*
X148904761Y-55531009D01*
X148904761Y-55531009D02*
X148809523Y-55578628D01*
X148809523Y-55578628D02*
X148428571Y-55578628D01*
X149857142Y-56054819D02*
X149857142Y-55531009D01*
X149857142Y-55531009D02*
X149809523Y-55435771D01*
X149809523Y-55435771D02*
X149714285Y-55388152D01*
X149714285Y-55388152D02*
X149523809Y-55388152D01*
X149523809Y-55388152D02*
X149428571Y-55435771D01*
X149857142Y-56007200D02*
X149761904Y-56054819D01*
X149761904Y-56054819D02*
X149523809Y-56054819D01*
X149523809Y-56054819D02*
X149428571Y-56007200D01*
X149428571Y-56007200D02*
X149380952Y-55911961D01*
X149380952Y-55911961D02*
X149380952Y-55816723D01*
X149380952Y-55816723D02*
X149428571Y-55721485D01*
X149428571Y-55721485D02*
X149523809Y-55673866D01*
X149523809Y-55673866D02*
X149761904Y-55673866D01*
X149761904Y-55673866D02*
X149857142Y-55626247D01*
X150190476Y-55388152D02*
X150571428Y-55388152D01*
X150333333Y-55054819D02*
X150333333Y-55911961D01*
X150333333Y-55911961D02*
X150380952Y-56007200D01*
X150380952Y-56007200D02*
X150476190Y-56054819D01*
X150476190Y-56054819D02*
X150571428Y-56054819D01*
X151285714Y-56007200D02*
X151190476Y-56054819D01*
X151190476Y-56054819D02*
X151000000Y-56054819D01*
X151000000Y-56054819D02*
X150904762Y-56007200D01*
X150904762Y-56007200D02*
X150857143Y-55911961D01*
X150857143Y-55911961D02*
X150857143Y-55531009D01*
X150857143Y-55531009D02*
X150904762Y-55435771D01*
X150904762Y-55435771D02*
X151000000Y-55388152D01*
X151000000Y-55388152D02*
X151190476Y-55388152D01*
X151190476Y-55388152D02*
X151285714Y-55435771D01*
X151285714Y-55435771D02*
X151333333Y-55531009D01*
X151333333Y-55531009D02*
X151333333Y-55626247D01*
X151333333Y-55626247D02*
X150857143Y-55721485D01*
X151523810Y-56150057D02*
X152285714Y-56150057D01*
X152523810Y-56054819D02*
X152523810Y-55054819D01*
X152523810Y-55054819D02*
X152904762Y-55054819D01*
X152904762Y-55054819D02*
X153000000Y-55102438D01*
X153000000Y-55102438D02*
X153047619Y-55150057D01*
X153047619Y-55150057D02*
X153095238Y-55245295D01*
X153095238Y-55245295D02*
X153095238Y-55388152D01*
X153095238Y-55388152D02*
X153047619Y-55483390D01*
X153047619Y-55483390D02*
X153000000Y-55531009D01*
X153000000Y-55531009D02*
X152904762Y-55578628D01*
X152904762Y-55578628D02*
X152523810Y-55578628D01*
X153666667Y-56054819D02*
X153571429Y-56007200D01*
X153571429Y-56007200D02*
X153523810Y-55959580D01*
X153523810Y-55959580D02*
X153476191Y-55864342D01*
X153476191Y-55864342D02*
X153476191Y-55578628D01*
X153476191Y-55578628D02*
X153523810Y-55483390D01*
X153523810Y-55483390D02*
X153571429Y-55435771D01*
X153571429Y-55435771D02*
X153666667Y-55388152D01*
X153666667Y-55388152D02*
X153809524Y-55388152D01*
X153809524Y-55388152D02*
X153904762Y-55435771D01*
X153904762Y-55435771D02*
X153952381Y-55483390D01*
X153952381Y-55483390D02*
X154000000Y-55578628D01*
X154000000Y-55578628D02*
X154000000Y-55864342D01*
X154000000Y-55864342D02*
X153952381Y-55959580D01*
X153952381Y-55959580D02*
X153904762Y-56007200D01*
X153904762Y-56007200D02*
X153809524Y-56054819D01*
X153809524Y-56054819D02*
X153666667Y-56054819D01*
X154285715Y-55388152D02*
X154666667Y-55388152D01*
X154428572Y-55054819D02*
X154428572Y-55911961D01*
X154428572Y-55911961D02*
X154476191Y-56007200D01*
X154476191Y-56007200D02*
X154571429Y-56054819D01*
X154571429Y-56054819D02*
X154666667Y-56054819D01*
X155523810Y-56054819D02*
X154952382Y-56054819D01*
X155238096Y-56054819D02*
X155238096Y-55054819D01*
X155238096Y-55054819D02*
X155142858Y-55197676D01*
X155142858Y-55197676D02*
X155047620Y-55292914D01*
X155047620Y-55292914D02*
X154952382Y-55340533D01*
X143595237Y-96107200D02*
X143738094Y-96154819D01*
X143738094Y-96154819D02*
X143976189Y-96154819D01*
X143976189Y-96154819D02*
X144071427Y-96107200D01*
X144071427Y-96107200D02*
X144119046Y-96059580D01*
X144119046Y-96059580D02*
X144166665Y-95964342D01*
X144166665Y-95964342D02*
X144166665Y-95869104D01*
X144166665Y-95869104D02*
X144119046Y-95773866D01*
X144119046Y-95773866D02*
X144071427Y-95726247D01*
X144071427Y-95726247D02*
X143976189Y-95678628D01*
X143976189Y-95678628D02*
X143785713Y-95631009D01*
X143785713Y-95631009D02*
X143690475Y-95583390D01*
X143690475Y-95583390D02*
X143642856Y-95535771D01*
X143642856Y-95535771D02*
X143595237Y-95440533D01*
X143595237Y-95440533D02*
X143595237Y-95345295D01*
X143595237Y-95345295D02*
X143642856Y-95250057D01*
X143642856Y-95250057D02*
X143690475Y-95202438D01*
X143690475Y-95202438D02*
X143785713Y-95154819D01*
X143785713Y-95154819D02*
X144023808Y-95154819D01*
X144023808Y-95154819D02*
X144166665Y-95202438D01*
X144499999Y-95488152D02*
X144690475Y-96154819D01*
X144690475Y-96154819D02*
X144880951Y-95678628D01*
X144880951Y-95678628D02*
X145071427Y-96154819D01*
X145071427Y-96154819D02*
X145261903Y-95488152D01*
X146023808Y-96107200D02*
X145928570Y-96154819D01*
X145928570Y-96154819D02*
X145738094Y-96154819D01*
X145738094Y-96154819D02*
X145642856Y-96107200D01*
X145642856Y-96107200D02*
X145595237Y-96011961D01*
X145595237Y-96011961D02*
X145595237Y-95631009D01*
X145595237Y-95631009D02*
X145642856Y-95535771D01*
X145642856Y-95535771D02*
X145738094Y-95488152D01*
X145738094Y-95488152D02*
X145928570Y-95488152D01*
X145928570Y-95488152D02*
X146023808Y-95535771D01*
X146023808Y-95535771D02*
X146071427Y-95631009D01*
X146071427Y-95631009D02*
X146071427Y-95726247D01*
X146071427Y-95726247D02*
X145595237Y-95821485D01*
X146642856Y-96154819D02*
X146547618Y-96107200D01*
X146547618Y-96107200D02*
X146499999Y-96011961D01*
X146499999Y-96011961D02*
X146499999Y-95154819D01*
X147166666Y-96154819D02*
X147071428Y-96107200D01*
X147071428Y-96107200D02*
X147023809Y-96011961D01*
X147023809Y-96011961D02*
X147023809Y-95154819D01*
X147309524Y-96250057D02*
X148071428Y-96250057D01*
X148880952Y-96154819D02*
X148547619Y-95678628D01*
X148309524Y-96154819D02*
X148309524Y-95154819D01*
X148309524Y-95154819D02*
X148690476Y-95154819D01*
X148690476Y-95154819D02*
X148785714Y-95202438D01*
X148785714Y-95202438D02*
X148833333Y-95250057D01*
X148833333Y-95250057D02*
X148880952Y-95345295D01*
X148880952Y-95345295D02*
X148880952Y-95488152D01*
X148880952Y-95488152D02*
X148833333Y-95583390D01*
X148833333Y-95583390D02*
X148785714Y-95631009D01*
X148785714Y-95631009D02*
X148690476Y-95678628D01*
X148690476Y-95678628D02*
X148309524Y-95678628D01*
X149738095Y-96154819D02*
X149738095Y-95631009D01*
X149738095Y-95631009D02*
X149690476Y-95535771D01*
X149690476Y-95535771D02*
X149595238Y-95488152D01*
X149595238Y-95488152D02*
X149404762Y-95488152D01*
X149404762Y-95488152D02*
X149309524Y-95535771D01*
X149738095Y-96107200D02*
X149642857Y-96154819D01*
X149642857Y-96154819D02*
X149404762Y-96154819D01*
X149404762Y-96154819D02*
X149309524Y-96107200D01*
X149309524Y-96107200D02*
X149261905Y-96011961D01*
X149261905Y-96011961D02*
X149261905Y-95916723D01*
X149261905Y-95916723D02*
X149309524Y-95821485D01*
X149309524Y-95821485D02*
X149404762Y-95773866D01*
X149404762Y-95773866D02*
X149642857Y-95773866D01*
X149642857Y-95773866D02*
X149738095Y-95726247D01*
X150071429Y-95488152D02*
X150452381Y-95488152D01*
X150214286Y-95154819D02*
X150214286Y-96011961D01*
X150214286Y-96011961D02*
X150261905Y-96107200D01*
X150261905Y-96107200D02*
X150357143Y-96154819D01*
X150357143Y-96154819D02*
X150452381Y-96154819D01*
X151166667Y-96107200D02*
X151071429Y-96154819D01*
X151071429Y-96154819D02*
X150880953Y-96154819D01*
X150880953Y-96154819D02*
X150785715Y-96107200D01*
X150785715Y-96107200D02*
X150738096Y-96011961D01*
X150738096Y-96011961D02*
X150738096Y-95631009D01*
X150738096Y-95631009D02*
X150785715Y-95535771D01*
X150785715Y-95535771D02*
X150880953Y-95488152D01*
X150880953Y-95488152D02*
X151071429Y-95488152D01*
X151071429Y-95488152D02*
X151166667Y-95535771D01*
X151166667Y-95535771D02*
X151214286Y-95631009D01*
X151214286Y-95631009D02*
X151214286Y-95726247D01*
X151214286Y-95726247D02*
X150738096Y-95821485D01*
X151404763Y-96250057D02*
X152166667Y-96250057D01*
X152404763Y-96154819D02*
X152404763Y-95154819D01*
X152404763Y-95154819D02*
X152785715Y-95154819D01*
X152785715Y-95154819D02*
X152880953Y-95202438D01*
X152880953Y-95202438D02*
X152928572Y-95250057D01*
X152928572Y-95250057D02*
X152976191Y-95345295D01*
X152976191Y-95345295D02*
X152976191Y-95488152D01*
X152976191Y-95488152D02*
X152928572Y-95583390D01*
X152928572Y-95583390D02*
X152880953Y-95631009D01*
X152880953Y-95631009D02*
X152785715Y-95678628D01*
X152785715Y-95678628D02*
X152404763Y-95678628D01*
X153547620Y-96154819D02*
X153452382Y-96107200D01*
X153452382Y-96107200D02*
X153404763Y-96059580D01*
X153404763Y-96059580D02*
X153357144Y-95964342D01*
X153357144Y-95964342D02*
X153357144Y-95678628D01*
X153357144Y-95678628D02*
X153404763Y-95583390D01*
X153404763Y-95583390D02*
X153452382Y-95535771D01*
X153452382Y-95535771D02*
X153547620Y-95488152D01*
X153547620Y-95488152D02*
X153690477Y-95488152D01*
X153690477Y-95488152D02*
X153785715Y-95535771D01*
X153785715Y-95535771D02*
X153833334Y-95583390D01*
X153833334Y-95583390D02*
X153880953Y-95678628D01*
X153880953Y-95678628D02*
X153880953Y-95964342D01*
X153880953Y-95964342D02*
X153833334Y-96059580D01*
X153833334Y-96059580D02*
X153785715Y-96107200D01*
X153785715Y-96107200D02*
X153690477Y-96154819D01*
X153690477Y-96154819D02*
X153547620Y-96154819D01*
X154166668Y-95488152D02*
X154547620Y-95488152D01*
X154309525Y-95154819D02*
X154309525Y-96011961D01*
X154309525Y-96011961D02*
X154357144Y-96107200D01*
X154357144Y-96107200D02*
X154452382Y-96154819D01*
X154452382Y-96154819D02*
X154547620Y-96154819D01*
X155404763Y-96154819D02*
X154833335Y-96154819D01*
X155119049Y-96154819D02*
X155119049Y-95154819D01*
X155119049Y-95154819D02*
X155023811Y-95297676D01*
X155023811Y-95297676D02*
X154928573Y-95392914D01*
X154928573Y-95392914D02*
X154833335Y-95440533D01*
X147307200Y-157823809D02*
X147354819Y-157680952D01*
X147354819Y-157680952D02*
X147354819Y-157442857D01*
X147354819Y-157442857D02*
X147307200Y-157347619D01*
X147307200Y-157347619D02*
X147259580Y-157300000D01*
X147259580Y-157300000D02*
X147164342Y-157252381D01*
X147164342Y-157252381D02*
X147069104Y-157252381D01*
X147069104Y-157252381D02*
X146973866Y-157300000D01*
X146973866Y-157300000D02*
X146926247Y-157347619D01*
X146926247Y-157347619D02*
X146878628Y-157442857D01*
X146878628Y-157442857D02*
X146831009Y-157633333D01*
X146831009Y-157633333D02*
X146783390Y-157728571D01*
X146783390Y-157728571D02*
X146735771Y-157776190D01*
X146735771Y-157776190D02*
X146640533Y-157823809D01*
X146640533Y-157823809D02*
X146545295Y-157823809D01*
X146545295Y-157823809D02*
X146450057Y-157776190D01*
X146450057Y-157776190D02*
X146402438Y-157728571D01*
X146402438Y-157728571D02*
X146354819Y-157633333D01*
X146354819Y-157633333D02*
X146354819Y-157395238D01*
X146354819Y-157395238D02*
X146402438Y-157252381D01*
X146688152Y-156919047D02*
X147354819Y-156728571D01*
X147354819Y-156728571D02*
X146878628Y-156538095D01*
X146878628Y-156538095D02*
X147354819Y-156347619D01*
X147354819Y-156347619D02*
X146688152Y-156157143D01*
X147307200Y-155395238D02*
X147354819Y-155490476D01*
X147354819Y-155490476D02*
X147354819Y-155680952D01*
X147354819Y-155680952D02*
X147307200Y-155776190D01*
X147307200Y-155776190D02*
X147211961Y-155823809D01*
X147211961Y-155823809D02*
X146831009Y-155823809D01*
X146831009Y-155823809D02*
X146735771Y-155776190D01*
X146735771Y-155776190D02*
X146688152Y-155680952D01*
X146688152Y-155680952D02*
X146688152Y-155490476D01*
X146688152Y-155490476D02*
X146735771Y-155395238D01*
X146735771Y-155395238D02*
X146831009Y-155347619D01*
X146831009Y-155347619D02*
X146926247Y-155347619D01*
X146926247Y-155347619D02*
X147021485Y-155823809D01*
X147354819Y-154776190D02*
X147307200Y-154871428D01*
X147307200Y-154871428D02*
X147211961Y-154919047D01*
X147211961Y-154919047D02*
X146354819Y-154919047D01*
X147354819Y-154252380D02*
X147307200Y-154347618D01*
X147307200Y-154347618D02*
X147211961Y-154395237D01*
X147211961Y-154395237D02*
X146354819Y-154395237D01*
X146354819Y-153680951D02*
X146354819Y-153490475D01*
X146354819Y-153490475D02*
X146402438Y-153395237D01*
X146402438Y-153395237D02*
X146497676Y-153299999D01*
X146497676Y-153299999D02*
X146688152Y-153252380D01*
X146688152Y-153252380D02*
X147021485Y-153252380D01*
X147021485Y-153252380D02*
X147211961Y-153299999D01*
X147211961Y-153299999D02*
X147307200Y-153395237D01*
X147307200Y-153395237D02*
X147354819Y-153490475D01*
X147354819Y-153490475D02*
X147354819Y-153680951D01*
X147354819Y-153680951D02*
X147307200Y-153776189D01*
X147307200Y-153776189D02*
X147211961Y-153871427D01*
X147211961Y-153871427D02*
X147021485Y-153919046D01*
X147021485Y-153919046D02*
X146688152Y-153919046D01*
X146688152Y-153919046D02*
X146497676Y-153871427D01*
X146497676Y-153871427D02*
X146402438Y-153776189D01*
X146402438Y-153776189D02*
X146354819Y-153680951D01*
X146688152Y-152395237D02*
X147354819Y-152395237D01*
X146688152Y-152823808D02*
X147211961Y-152823808D01*
X147211961Y-152823808D02*
X147307200Y-152776189D01*
X147307200Y-152776189D02*
X147354819Y-152680951D01*
X147354819Y-152680951D02*
X147354819Y-152538094D01*
X147354819Y-152538094D02*
X147307200Y-152442856D01*
X147307200Y-152442856D02*
X147259580Y-152395237D01*
X146688152Y-152061903D02*
X146688152Y-151680951D01*
X146354819Y-151919046D02*
X147211961Y-151919046D01*
X147211961Y-151919046D02*
X147307200Y-151871427D01*
X147307200Y-151871427D02*
X147354819Y-151776189D01*
X147354819Y-151776189D02*
X147354819Y-151680951D01*
X104085714Y-132407200D02*
X104228571Y-132454819D01*
X104228571Y-132454819D02*
X104466666Y-132454819D01*
X104466666Y-132454819D02*
X104561904Y-132407200D01*
X104561904Y-132407200D02*
X104609523Y-132359580D01*
X104609523Y-132359580D02*
X104657142Y-132264342D01*
X104657142Y-132264342D02*
X104657142Y-132169104D01*
X104657142Y-132169104D02*
X104609523Y-132073866D01*
X104609523Y-132073866D02*
X104561904Y-132026247D01*
X104561904Y-132026247D02*
X104466666Y-131978628D01*
X104466666Y-131978628D02*
X104276190Y-131931009D01*
X104276190Y-131931009D02*
X104180952Y-131883390D01*
X104180952Y-131883390D02*
X104133333Y-131835771D01*
X104133333Y-131835771D02*
X104085714Y-131740533D01*
X104085714Y-131740533D02*
X104085714Y-131645295D01*
X104085714Y-131645295D02*
X104133333Y-131550057D01*
X104133333Y-131550057D02*
X104180952Y-131502438D01*
X104180952Y-131502438D02*
X104276190Y-131454819D01*
X104276190Y-131454819D02*
X104514285Y-131454819D01*
X104514285Y-131454819D02*
X104657142Y-131502438D01*
X105085714Y-132454819D02*
X105085714Y-131788152D01*
X105085714Y-131454819D02*
X105038095Y-131502438D01*
X105038095Y-131502438D02*
X105085714Y-131550057D01*
X105085714Y-131550057D02*
X105133333Y-131502438D01*
X105133333Y-131502438D02*
X105085714Y-131454819D01*
X105085714Y-131454819D02*
X105085714Y-131550057D01*
X105561904Y-131788152D02*
X105561904Y-132454819D01*
X105561904Y-131883390D02*
X105609523Y-131835771D01*
X105609523Y-131835771D02*
X105704761Y-131788152D01*
X105704761Y-131788152D02*
X105847618Y-131788152D01*
X105847618Y-131788152D02*
X105942856Y-131835771D01*
X105942856Y-131835771D02*
X105990475Y-131931009D01*
X105990475Y-131931009D02*
X105990475Y-132454819D01*
X106847618Y-132407200D02*
X106752380Y-132454819D01*
X106752380Y-132454819D02*
X106561904Y-132454819D01*
X106561904Y-132454819D02*
X106466666Y-132407200D01*
X106466666Y-132407200D02*
X106419047Y-132311961D01*
X106419047Y-132311961D02*
X106419047Y-131931009D01*
X106419047Y-131931009D02*
X106466666Y-131835771D01*
X106466666Y-131835771D02*
X106561904Y-131788152D01*
X106561904Y-131788152D02*
X106752380Y-131788152D01*
X106752380Y-131788152D02*
X106847618Y-131835771D01*
X106847618Y-131835771D02*
X106895237Y-131931009D01*
X106895237Y-131931009D02*
X106895237Y-132026247D01*
X106895237Y-132026247D02*
X106419047Y-132121485D01*
X107847618Y-132454819D02*
X107276190Y-132454819D01*
X107561904Y-132454819D02*
X107561904Y-131454819D01*
X107561904Y-131454819D02*
X107466666Y-131597676D01*
X107466666Y-131597676D02*
X107371428Y-131692914D01*
X107371428Y-131692914D02*
X107276190Y-131740533D01*
X108276190Y-132454819D02*
X108276190Y-131454819D01*
X108752380Y-131788152D02*
X108752380Y-132454819D01*
X108752380Y-131883390D02*
X108799999Y-131835771D01*
X108799999Y-131835771D02*
X108895237Y-131788152D01*
X108895237Y-131788152D02*
X109038094Y-131788152D01*
X109038094Y-131788152D02*
X109133332Y-131835771D01*
X109133332Y-131835771D02*
X109180951Y-131931009D01*
X109180951Y-131931009D02*
X109180951Y-132454819D01*
X109561904Y-131788152D02*
X109799999Y-132454819D01*
X109799999Y-132454819D02*
X110038094Y-131788152D01*
X110609523Y-131454819D02*
X110799999Y-131454819D01*
X110799999Y-131454819D02*
X110895237Y-131502438D01*
X110895237Y-131502438D02*
X110990475Y-131597676D01*
X110990475Y-131597676D02*
X111038094Y-131788152D01*
X111038094Y-131788152D02*
X111038094Y-132121485D01*
X111038094Y-132121485D02*
X110990475Y-132311961D01*
X110990475Y-132311961D02*
X110895237Y-132407200D01*
X110895237Y-132407200D02*
X110799999Y-132454819D01*
X110799999Y-132454819D02*
X110609523Y-132454819D01*
X110609523Y-132454819D02*
X110514285Y-132407200D01*
X110514285Y-132407200D02*
X110419047Y-132311961D01*
X110419047Y-132311961D02*
X110371428Y-132121485D01*
X110371428Y-132121485D02*
X110371428Y-131788152D01*
X110371428Y-131788152D02*
X110419047Y-131597676D01*
X110419047Y-131597676D02*
X110514285Y-131502438D01*
X110514285Y-131502438D02*
X110609523Y-131454819D01*
X111895237Y-131788152D02*
X111895237Y-132454819D01*
X111466666Y-131788152D02*
X111466666Y-132311961D01*
X111466666Y-132311961D02*
X111514285Y-132407200D01*
X111514285Y-132407200D02*
X111609523Y-132454819D01*
X111609523Y-132454819D02*
X111752380Y-132454819D01*
X111752380Y-132454819D02*
X111847618Y-132407200D01*
X111847618Y-132407200D02*
X111895237Y-132359580D01*
X112228571Y-131788152D02*
X112609523Y-131788152D01*
X112371428Y-131454819D02*
X112371428Y-132311961D01*
X112371428Y-132311961D02*
X112419047Y-132407200D01*
X112419047Y-132407200D02*
X112514285Y-132454819D01*
X112514285Y-132454819D02*
X112609523Y-132454819D01*
X136759580Y-143028571D02*
X136807200Y-143076190D01*
X136807200Y-143076190D02*
X136854819Y-143219047D01*
X136854819Y-143219047D02*
X136854819Y-143314285D01*
X136854819Y-143314285D02*
X136807200Y-143457142D01*
X136807200Y-143457142D02*
X136711961Y-143552380D01*
X136711961Y-143552380D02*
X136616723Y-143599999D01*
X136616723Y-143599999D02*
X136426247Y-143647618D01*
X136426247Y-143647618D02*
X136283390Y-143647618D01*
X136283390Y-143647618D02*
X136092914Y-143599999D01*
X136092914Y-143599999D02*
X135997676Y-143552380D01*
X135997676Y-143552380D02*
X135902438Y-143457142D01*
X135902438Y-143457142D02*
X135854819Y-143314285D01*
X135854819Y-143314285D02*
X135854819Y-143219047D01*
X135854819Y-143219047D02*
X135902438Y-143076190D01*
X135902438Y-143076190D02*
X135950057Y-143028571D01*
X136854819Y-142457142D02*
X136807200Y-142552380D01*
X136807200Y-142552380D02*
X136711961Y-142599999D01*
X136711961Y-142599999D02*
X135854819Y-142599999D01*
X136854819Y-141933332D02*
X136807200Y-142028570D01*
X136807200Y-142028570D02*
X136759580Y-142076189D01*
X136759580Y-142076189D02*
X136664342Y-142123808D01*
X136664342Y-142123808D02*
X136378628Y-142123808D01*
X136378628Y-142123808D02*
X136283390Y-142076189D01*
X136283390Y-142076189D02*
X136235771Y-142028570D01*
X136235771Y-142028570D02*
X136188152Y-141933332D01*
X136188152Y-141933332D02*
X136188152Y-141790475D01*
X136188152Y-141790475D02*
X136235771Y-141695237D01*
X136235771Y-141695237D02*
X136283390Y-141647618D01*
X136283390Y-141647618D02*
X136378628Y-141599999D01*
X136378628Y-141599999D02*
X136664342Y-141599999D01*
X136664342Y-141599999D02*
X136759580Y-141647618D01*
X136759580Y-141647618D02*
X136807200Y-141695237D01*
X136807200Y-141695237D02*
X136854819Y-141790475D01*
X136854819Y-141790475D02*
X136854819Y-141933332D01*
X136807200Y-140742856D02*
X136854819Y-140838094D01*
X136854819Y-140838094D02*
X136854819Y-141028570D01*
X136854819Y-141028570D02*
X136807200Y-141123808D01*
X136807200Y-141123808D02*
X136759580Y-141171427D01*
X136759580Y-141171427D02*
X136664342Y-141219046D01*
X136664342Y-141219046D02*
X136378628Y-141219046D01*
X136378628Y-141219046D02*
X136283390Y-141171427D01*
X136283390Y-141171427D02*
X136235771Y-141123808D01*
X136235771Y-141123808D02*
X136188152Y-141028570D01*
X136188152Y-141028570D02*
X136188152Y-140838094D01*
X136188152Y-140838094D02*
X136235771Y-140742856D01*
X136854819Y-140314284D02*
X135854819Y-140314284D01*
X136473866Y-140219046D02*
X136854819Y-139933332D01*
X136188152Y-139933332D02*
X136569104Y-140314284D01*
X136854819Y-139504760D02*
X135854819Y-139504760D01*
X136188152Y-139028570D02*
X136854819Y-139028570D01*
X136283390Y-139028570D02*
X136235771Y-138980951D01*
X136235771Y-138980951D02*
X136188152Y-138885713D01*
X136188152Y-138885713D02*
X136188152Y-138742856D01*
X136188152Y-138742856D02*
X136235771Y-138647618D01*
X136235771Y-138647618D02*
X136331009Y-138599999D01*
X136331009Y-138599999D02*
X136854819Y-138599999D01*
X148761905Y-111194819D02*
X148761905Y-110194819D01*
X148761905Y-110194819D02*
X149000000Y-110194819D01*
X149000000Y-110194819D02*
X149142857Y-110242438D01*
X149142857Y-110242438D02*
X149238095Y-110337676D01*
X149238095Y-110337676D02*
X149285714Y-110432914D01*
X149285714Y-110432914D02*
X149333333Y-110623390D01*
X149333333Y-110623390D02*
X149333333Y-110766247D01*
X149333333Y-110766247D02*
X149285714Y-110956723D01*
X149285714Y-110956723D02*
X149238095Y-111051961D01*
X149238095Y-111051961D02*
X149142857Y-111147200D01*
X149142857Y-111147200D02*
X149000000Y-111194819D01*
X149000000Y-111194819D02*
X148761905Y-111194819D01*
X150190476Y-110528152D02*
X150190476Y-111194819D01*
X149952381Y-110147200D02*
X149714286Y-110861485D01*
X149714286Y-110861485D02*
X150333333Y-110861485D01*
X146402438Y-142595238D02*
X146354819Y-142690476D01*
X146354819Y-142690476D02*
X146354819Y-142833333D01*
X146354819Y-142833333D02*
X146402438Y-142976190D01*
X146402438Y-142976190D02*
X146497676Y-143071428D01*
X146497676Y-143071428D02*
X146592914Y-143119047D01*
X146592914Y-143119047D02*
X146783390Y-143166666D01*
X146783390Y-143166666D02*
X146926247Y-143166666D01*
X146926247Y-143166666D02*
X147116723Y-143119047D01*
X147116723Y-143119047D02*
X147211961Y-143071428D01*
X147211961Y-143071428D02*
X147307200Y-142976190D01*
X147307200Y-142976190D02*
X147354819Y-142833333D01*
X147354819Y-142833333D02*
X147354819Y-142738095D01*
X147354819Y-142738095D02*
X147307200Y-142595238D01*
X147307200Y-142595238D02*
X147259580Y-142547619D01*
X147259580Y-142547619D02*
X146926247Y-142547619D01*
X146926247Y-142547619D02*
X146926247Y-142738095D01*
X147354819Y-141690476D02*
X146831009Y-141690476D01*
X146831009Y-141690476D02*
X146735771Y-141738095D01*
X146735771Y-141738095D02*
X146688152Y-141833333D01*
X146688152Y-141833333D02*
X146688152Y-142023809D01*
X146688152Y-142023809D02*
X146735771Y-142119047D01*
X147307200Y-141690476D02*
X147354819Y-141785714D01*
X147354819Y-141785714D02*
X147354819Y-142023809D01*
X147354819Y-142023809D02*
X147307200Y-142119047D01*
X147307200Y-142119047D02*
X147211961Y-142166666D01*
X147211961Y-142166666D02*
X147116723Y-142166666D01*
X147116723Y-142166666D02*
X147021485Y-142119047D01*
X147021485Y-142119047D02*
X146973866Y-142023809D01*
X146973866Y-142023809D02*
X146973866Y-141785714D01*
X146973866Y-141785714D02*
X146926247Y-141690476D01*
X146688152Y-141357142D02*
X146688152Y-140976190D01*
X146354819Y-141214285D02*
X147211961Y-141214285D01*
X147211961Y-141214285D02*
X147307200Y-141166666D01*
X147307200Y-141166666D02*
X147354819Y-141071428D01*
X147354819Y-141071428D02*
X147354819Y-140976190D01*
X147307200Y-140261904D02*
X147354819Y-140357142D01*
X147354819Y-140357142D02*
X147354819Y-140547618D01*
X147354819Y-140547618D02*
X147307200Y-140642856D01*
X147307200Y-140642856D02*
X147211961Y-140690475D01*
X147211961Y-140690475D02*
X146831009Y-140690475D01*
X146831009Y-140690475D02*
X146735771Y-140642856D01*
X146735771Y-140642856D02*
X146688152Y-140547618D01*
X146688152Y-140547618D02*
X146688152Y-140357142D01*
X146688152Y-140357142D02*
X146735771Y-140261904D01*
X146735771Y-140261904D02*
X146831009Y-140214285D01*
X146831009Y-140214285D02*
X146926247Y-140214285D01*
X146926247Y-140214285D02*
X147021485Y-140690475D01*
X147354819Y-139785713D02*
X146354819Y-139785713D01*
X146688152Y-139309523D02*
X147354819Y-139309523D01*
X146783390Y-139309523D02*
X146735771Y-139261904D01*
X146735771Y-139261904D02*
X146688152Y-139166666D01*
X146688152Y-139166666D02*
X146688152Y-139023809D01*
X146688152Y-139023809D02*
X146735771Y-138928571D01*
X146735771Y-138928571D02*
X146831009Y-138880952D01*
X146831009Y-138880952D02*
X147354819Y-138880952D01*
X113907200Y-158042856D02*
X113954819Y-157899999D01*
X113954819Y-157899999D02*
X113954819Y-157661904D01*
X113954819Y-157661904D02*
X113907200Y-157566666D01*
X113907200Y-157566666D02*
X113859580Y-157519047D01*
X113859580Y-157519047D02*
X113764342Y-157471428D01*
X113764342Y-157471428D02*
X113669104Y-157471428D01*
X113669104Y-157471428D02*
X113573866Y-157519047D01*
X113573866Y-157519047D02*
X113526247Y-157566666D01*
X113526247Y-157566666D02*
X113478628Y-157661904D01*
X113478628Y-157661904D02*
X113431009Y-157852380D01*
X113431009Y-157852380D02*
X113383390Y-157947618D01*
X113383390Y-157947618D02*
X113335771Y-157995237D01*
X113335771Y-157995237D02*
X113240533Y-158042856D01*
X113240533Y-158042856D02*
X113145295Y-158042856D01*
X113145295Y-158042856D02*
X113050057Y-157995237D01*
X113050057Y-157995237D02*
X113002438Y-157947618D01*
X113002438Y-157947618D02*
X112954819Y-157852380D01*
X112954819Y-157852380D02*
X112954819Y-157614285D01*
X112954819Y-157614285D02*
X113002438Y-157471428D01*
X113954819Y-157042856D02*
X113288152Y-157042856D01*
X112954819Y-157042856D02*
X113002438Y-157090475D01*
X113002438Y-157090475D02*
X113050057Y-157042856D01*
X113050057Y-157042856D02*
X113002438Y-156995237D01*
X113002438Y-156995237D02*
X112954819Y-157042856D01*
X112954819Y-157042856D02*
X113050057Y-157042856D01*
X113288152Y-156566666D02*
X113954819Y-156566666D01*
X113383390Y-156566666D02*
X113335771Y-156519047D01*
X113335771Y-156519047D02*
X113288152Y-156423809D01*
X113288152Y-156423809D02*
X113288152Y-156280952D01*
X113288152Y-156280952D02*
X113335771Y-156185714D01*
X113335771Y-156185714D02*
X113431009Y-156138095D01*
X113431009Y-156138095D02*
X113954819Y-156138095D01*
X113907200Y-155280952D02*
X113954819Y-155376190D01*
X113954819Y-155376190D02*
X113954819Y-155566666D01*
X113954819Y-155566666D02*
X113907200Y-155661904D01*
X113907200Y-155661904D02*
X113811961Y-155709523D01*
X113811961Y-155709523D02*
X113431009Y-155709523D01*
X113431009Y-155709523D02*
X113335771Y-155661904D01*
X113335771Y-155661904D02*
X113288152Y-155566666D01*
X113288152Y-155566666D02*
X113288152Y-155376190D01*
X113288152Y-155376190D02*
X113335771Y-155280952D01*
X113335771Y-155280952D02*
X113431009Y-155233333D01*
X113431009Y-155233333D02*
X113526247Y-155233333D01*
X113526247Y-155233333D02*
X113621485Y-155709523D01*
X113050057Y-154852380D02*
X113002438Y-154804761D01*
X113002438Y-154804761D02*
X112954819Y-154709523D01*
X112954819Y-154709523D02*
X112954819Y-154471428D01*
X112954819Y-154471428D02*
X113002438Y-154376190D01*
X113002438Y-154376190D02*
X113050057Y-154328571D01*
X113050057Y-154328571D02*
X113145295Y-154280952D01*
X113145295Y-154280952D02*
X113240533Y-154280952D01*
X113240533Y-154280952D02*
X113383390Y-154328571D01*
X113383390Y-154328571D02*
X113954819Y-154899999D01*
X113954819Y-154899999D02*
X113954819Y-154280952D01*
X112954819Y-153661904D02*
X112954819Y-153471428D01*
X112954819Y-153471428D02*
X113002438Y-153376190D01*
X113002438Y-153376190D02*
X113097676Y-153280952D01*
X113097676Y-153280952D02*
X113288152Y-153233333D01*
X113288152Y-153233333D02*
X113621485Y-153233333D01*
X113621485Y-153233333D02*
X113811961Y-153280952D01*
X113811961Y-153280952D02*
X113907200Y-153376190D01*
X113907200Y-153376190D02*
X113954819Y-153471428D01*
X113954819Y-153471428D02*
X113954819Y-153661904D01*
X113954819Y-153661904D02*
X113907200Y-153757142D01*
X113907200Y-153757142D02*
X113811961Y-153852380D01*
X113811961Y-153852380D02*
X113621485Y-153899999D01*
X113621485Y-153899999D02*
X113288152Y-153899999D01*
X113288152Y-153899999D02*
X113097676Y-153852380D01*
X113097676Y-153852380D02*
X113002438Y-153757142D01*
X113002438Y-153757142D02*
X112954819Y-153661904D01*
X113288152Y-152376190D02*
X113954819Y-152376190D01*
X113288152Y-152804761D02*
X113811961Y-152804761D01*
X113811961Y-152804761D02*
X113907200Y-152757142D01*
X113907200Y-152757142D02*
X113954819Y-152661904D01*
X113954819Y-152661904D02*
X113954819Y-152519047D01*
X113954819Y-152519047D02*
X113907200Y-152423809D01*
X113907200Y-152423809D02*
X113859580Y-152376190D01*
X113288152Y-152042856D02*
X113288152Y-151661904D01*
X112954819Y-151899999D02*
X113811961Y-151899999D01*
X113811961Y-151899999D02*
X113907200Y-151852380D01*
X113907200Y-151852380D02*
X113954819Y-151757142D01*
X113954819Y-151757142D02*
X113954819Y-151661904D01*
X143698094Y-91694819D02*
X143364761Y-91218628D01*
X143126666Y-91694819D02*
X143126666Y-90694819D01*
X143126666Y-90694819D02*
X143507618Y-90694819D01*
X143507618Y-90694819D02*
X143602856Y-90742438D01*
X143602856Y-90742438D02*
X143650475Y-90790057D01*
X143650475Y-90790057D02*
X143698094Y-90885295D01*
X143698094Y-90885295D02*
X143698094Y-91028152D01*
X143698094Y-91028152D02*
X143650475Y-91123390D01*
X143650475Y-91123390D02*
X143602856Y-91171009D01*
X143602856Y-91171009D02*
X143507618Y-91218628D01*
X143507618Y-91218628D02*
X143126666Y-91218628D01*
X144555237Y-91694819D02*
X144555237Y-91171009D01*
X144555237Y-91171009D02*
X144507618Y-91075771D01*
X144507618Y-91075771D02*
X144412380Y-91028152D01*
X144412380Y-91028152D02*
X144221904Y-91028152D01*
X144221904Y-91028152D02*
X144126666Y-91075771D01*
X144555237Y-91647200D02*
X144459999Y-91694819D01*
X144459999Y-91694819D02*
X144221904Y-91694819D01*
X144221904Y-91694819D02*
X144126666Y-91647200D01*
X144126666Y-91647200D02*
X144079047Y-91551961D01*
X144079047Y-91551961D02*
X144079047Y-91456723D01*
X144079047Y-91456723D02*
X144126666Y-91361485D01*
X144126666Y-91361485D02*
X144221904Y-91313866D01*
X144221904Y-91313866D02*
X144459999Y-91313866D01*
X144459999Y-91313866D02*
X144555237Y-91266247D01*
X145031428Y-91694819D02*
X145031428Y-91028152D01*
X145031428Y-91123390D02*
X145079047Y-91075771D01*
X145079047Y-91075771D02*
X145174285Y-91028152D01*
X145174285Y-91028152D02*
X145317142Y-91028152D01*
X145317142Y-91028152D02*
X145412380Y-91075771D01*
X145412380Y-91075771D02*
X145459999Y-91171009D01*
X145459999Y-91171009D02*
X145459999Y-91694819D01*
X145459999Y-91171009D02*
X145507618Y-91075771D01*
X145507618Y-91075771D02*
X145602856Y-91028152D01*
X145602856Y-91028152D02*
X145745713Y-91028152D01*
X145745713Y-91028152D02*
X145840952Y-91075771D01*
X145840952Y-91075771D02*
X145888571Y-91171009D01*
X145888571Y-91171009D02*
X145888571Y-91694819D01*
X146364761Y-91028152D02*
X146364761Y-92028152D01*
X146364761Y-91075771D02*
X146459999Y-91028152D01*
X146459999Y-91028152D02*
X146650475Y-91028152D01*
X146650475Y-91028152D02*
X146745713Y-91075771D01*
X146745713Y-91075771D02*
X146793332Y-91123390D01*
X146793332Y-91123390D02*
X146840951Y-91218628D01*
X146840951Y-91218628D02*
X146840951Y-91504342D01*
X146840951Y-91504342D02*
X146793332Y-91599580D01*
X146793332Y-91599580D02*
X146745713Y-91647200D01*
X146745713Y-91647200D02*
X146650475Y-91694819D01*
X146650475Y-91694819D02*
X146459999Y-91694819D01*
X146459999Y-91694819D02*
X146364761Y-91647200D01*
X147031428Y-91790057D02*
X147793332Y-91790057D01*
X148507618Y-91694819D02*
X148031428Y-91694819D01*
X148031428Y-91694819D02*
X148031428Y-90694819D01*
X149221904Y-91647200D02*
X149126666Y-91694819D01*
X149126666Y-91694819D02*
X148936190Y-91694819D01*
X148936190Y-91694819D02*
X148840952Y-91647200D01*
X148840952Y-91647200D02*
X148793333Y-91551961D01*
X148793333Y-91551961D02*
X148793333Y-91171009D01*
X148793333Y-91171009D02*
X148840952Y-91075771D01*
X148840952Y-91075771D02*
X148936190Y-91028152D01*
X148936190Y-91028152D02*
X149126666Y-91028152D01*
X149126666Y-91028152D02*
X149221904Y-91075771D01*
X149221904Y-91075771D02*
X149269523Y-91171009D01*
X149269523Y-91171009D02*
X149269523Y-91266247D01*
X149269523Y-91266247D02*
X148793333Y-91361485D01*
X149602857Y-91028152D02*
X149840952Y-91694819D01*
X149840952Y-91694819D02*
X150079047Y-91028152D01*
X150840952Y-91647200D02*
X150745714Y-91694819D01*
X150745714Y-91694819D02*
X150555238Y-91694819D01*
X150555238Y-91694819D02*
X150460000Y-91647200D01*
X150460000Y-91647200D02*
X150412381Y-91551961D01*
X150412381Y-91551961D02*
X150412381Y-91171009D01*
X150412381Y-91171009D02*
X150460000Y-91075771D01*
X150460000Y-91075771D02*
X150555238Y-91028152D01*
X150555238Y-91028152D02*
X150745714Y-91028152D01*
X150745714Y-91028152D02*
X150840952Y-91075771D01*
X150840952Y-91075771D02*
X150888571Y-91171009D01*
X150888571Y-91171009D02*
X150888571Y-91266247D01*
X150888571Y-91266247D02*
X150412381Y-91361485D01*
X151460000Y-91694819D02*
X151364762Y-91647200D01*
X151364762Y-91647200D02*
X151317143Y-91551961D01*
X151317143Y-91551961D02*
X151317143Y-90694819D01*
X151602858Y-91790057D02*
X152364762Y-91790057D01*
X152460001Y-90694819D02*
X153031429Y-90694819D01*
X152745715Y-91694819D02*
X152745715Y-90694819D01*
X153364763Y-91694819D02*
X153364763Y-91028152D01*
X153364763Y-91218628D02*
X153412382Y-91123390D01*
X153412382Y-91123390D02*
X153460001Y-91075771D01*
X153460001Y-91075771D02*
X153555239Y-91028152D01*
X153555239Y-91028152D02*
X153650477Y-91028152D01*
X153983811Y-91694819D02*
X153983811Y-91028152D01*
X153983811Y-91123390D02*
X154031430Y-91075771D01*
X154031430Y-91075771D02*
X154126668Y-91028152D01*
X154126668Y-91028152D02*
X154269525Y-91028152D01*
X154269525Y-91028152D02*
X154364763Y-91075771D01*
X154364763Y-91075771D02*
X154412382Y-91171009D01*
X154412382Y-91171009D02*
X154412382Y-91694819D01*
X154412382Y-91171009D02*
X154460001Y-91075771D01*
X154460001Y-91075771D02*
X154555239Y-91028152D01*
X154555239Y-91028152D02*
X154698096Y-91028152D01*
X154698096Y-91028152D02*
X154793335Y-91075771D01*
X154793335Y-91075771D02*
X154840954Y-91171009D01*
X154840954Y-91171009D02*
X154840954Y-91694819D01*
X155840953Y-91694819D02*
X155269525Y-91694819D01*
X155555239Y-91694819D02*
X155555239Y-90694819D01*
X155555239Y-90694819D02*
X155460001Y-90837676D01*
X155460001Y-90837676D02*
X155364763Y-90932914D01*
X155364763Y-90932914D02*
X155269525Y-90980533D01*
X102807200Y-158042856D02*
X102854819Y-157899999D01*
X102854819Y-157899999D02*
X102854819Y-157661904D01*
X102854819Y-157661904D02*
X102807200Y-157566666D01*
X102807200Y-157566666D02*
X102759580Y-157519047D01*
X102759580Y-157519047D02*
X102664342Y-157471428D01*
X102664342Y-157471428D02*
X102569104Y-157471428D01*
X102569104Y-157471428D02*
X102473866Y-157519047D01*
X102473866Y-157519047D02*
X102426247Y-157566666D01*
X102426247Y-157566666D02*
X102378628Y-157661904D01*
X102378628Y-157661904D02*
X102331009Y-157852380D01*
X102331009Y-157852380D02*
X102283390Y-157947618D01*
X102283390Y-157947618D02*
X102235771Y-157995237D01*
X102235771Y-157995237D02*
X102140533Y-158042856D01*
X102140533Y-158042856D02*
X102045295Y-158042856D01*
X102045295Y-158042856D02*
X101950057Y-157995237D01*
X101950057Y-157995237D02*
X101902438Y-157947618D01*
X101902438Y-157947618D02*
X101854819Y-157852380D01*
X101854819Y-157852380D02*
X101854819Y-157614285D01*
X101854819Y-157614285D02*
X101902438Y-157471428D01*
X102854819Y-157042856D02*
X102188152Y-157042856D01*
X101854819Y-157042856D02*
X101902438Y-157090475D01*
X101902438Y-157090475D02*
X101950057Y-157042856D01*
X101950057Y-157042856D02*
X101902438Y-156995237D01*
X101902438Y-156995237D02*
X101854819Y-157042856D01*
X101854819Y-157042856D02*
X101950057Y-157042856D01*
X102188152Y-156566666D02*
X102854819Y-156566666D01*
X102283390Y-156566666D02*
X102235771Y-156519047D01*
X102235771Y-156519047D02*
X102188152Y-156423809D01*
X102188152Y-156423809D02*
X102188152Y-156280952D01*
X102188152Y-156280952D02*
X102235771Y-156185714D01*
X102235771Y-156185714D02*
X102331009Y-156138095D01*
X102331009Y-156138095D02*
X102854819Y-156138095D01*
X102807200Y-155280952D02*
X102854819Y-155376190D01*
X102854819Y-155376190D02*
X102854819Y-155566666D01*
X102854819Y-155566666D02*
X102807200Y-155661904D01*
X102807200Y-155661904D02*
X102711961Y-155709523D01*
X102711961Y-155709523D02*
X102331009Y-155709523D01*
X102331009Y-155709523D02*
X102235771Y-155661904D01*
X102235771Y-155661904D02*
X102188152Y-155566666D01*
X102188152Y-155566666D02*
X102188152Y-155376190D01*
X102188152Y-155376190D02*
X102235771Y-155280952D01*
X102235771Y-155280952D02*
X102331009Y-155233333D01*
X102331009Y-155233333D02*
X102426247Y-155233333D01*
X102426247Y-155233333D02*
X102521485Y-155709523D01*
X102854819Y-154280952D02*
X102854819Y-154852380D01*
X102854819Y-154566666D02*
X101854819Y-154566666D01*
X101854819Y-154566666D02*
X101997676Y-154661904D01*
X101997676Y-154661904D02*
X102092914Y-154757142D01*
X102092914Y-154757142D02*
X102140533Y-154852380D01*
X101854819Y-153661904D02*
X101854819Y-153471428D01*
X101854819Y-153471428D02*
X101902438Y-153376190D01*
X101902438Y-153376190D02*
X101997676Y-153280952D01*
X101997676Y-153280952D02*
X102188152Y-153233333D01*
X102188152Y-153233333D02*
X102521485Y-153233333D01*
X102521485Y-153233333D02*
X102711961Y-153280952D01*
X102711961Y-153280952D02*
X102807200Y-153376190D01*
X102807200Y-153376190D02*
X102854819Y-153471428D01*
X102854819Y-153471428D02*
X102854819Y-153661904D01*
X102854819Y-153661904D02*
X102807200Y-153757142D01*
X102807200Y-153757142D02*
X102711961Y-153852380D01*
X102711961Y-153852380D02*
X102521485Y-153899999D01*
X102521485Y-153899999D02*
X102188152Y-153899999D01*
X102188152Y-153899999D02*
X101997676Y-153852380D01*
X101997676Y-153852380D02*
X101902438Y-153757142D01*
X101902438Y-153757142D02*
X101854819Y-153661904D01*
X102188152Y-152376190D02*
X102854819Y-152376190D01*
X102188152Y-152804761D02*
X102711961Y-152804761D01*
X102711961Y-152804761D02*
X102807200Y-152757142D01*
X102807200Y-152757142D02*
X102854819Y-152661904D01*
X102854819Y-152661904D02*
X102854819Y-152519047D01*
X102854819Y-152519047D02*
X102807200Y-152423809D01*
X102807200Y-152423809D02*
X102759580Y-152376190D01*
X102188152Y-152042856D02*
X102188152Y-151661904D01*
X101854819Y-151899999D02*
X102711961Y-151899999D01*
X102711961Y-151899999D02*
X102807200Y-151852380D01*
X102807200Y-151852380D02*
X102854819Y-151757142D01*
X102854819Y-151757142D02*
X102854819Y-151661904D01*
X125107200Y-158042856D02*
X125154819Y-157899999D01*
X125154819Y-157899999D02*
X125154819Y-157661904D01*
X125154819Y-157661904D02*
X125107200Y-157566666D01*
X125107200Y-157566666D02*
X125059580Y-157519047D01*
X125059580Y-157519047D02*
X124964342Y-157471428D01*
X124964342Y-157471428D02*
X124869104Y-157471428D01*
X124869104Y-157471428D02*
X124773866Y-157519047D01*
X124773866Y-157519047D02*
X124726247Y-157566666D01*
X124726247Y-157566666D02*
X124678628Y-157661904D01*
X124678628Y-157661904D02*
X124631009Y-157852380D01*
X124631009Y-157852380D02*
X124583390Y-157947618D01*
X124583390Y-157947618D02*
X124535771Y-157995237D01*
X124535771Y-157995237D02*
X124440533Y-158042856D01*
X124440533Y-158042856D02*
X124345295Y-158042856D01*
X124345295Y-158042856D02*
X124250057Y-157995237D01*
X124250057Y-157995237D02*
X124202438Y-157947618D01*
X124202438Y-157947618D02*
X124154819Y-157852380D01*
X124154819Y-157852380D02*
X124154819Y-157614285D01*
X124154819Y-157614285D02*
X124202438Y-157471428D01*
X125154819Y-157042856D02*
X124488152Y-157042856D01*
X124154819Y-157042856D02*
X124202438Y-157090475D01*
X124202438Y-157090475D02*
X124250057Y-157042856D01*
X124250057Y-157042856D02*
X124202438Y-156995237D01*
X124202438Y-156995237D02*
X124154819Y-157042856D01*
X124154819Y-157042856D02*
X124250057Y-157042856D01*
X124488152Y-156566666D02*
X125154819Y-156566666D01*
X124583390Y-156566666D02*
X124535771Y-156519047D01*
X124535771Y-156519047D02*
X124488152Y-156423809D01*
X124488152Y-156423809D02*
X124488152Y-156280952D01*
X124488152Y-156280952D02*
X124535771Y-156185714D01*
X124535771Y-156185714D02*
X124631009Y-156138095D01*
X124631009Y-156138095D02*
X125154819Y-156138095D01*
X125107200Y-155280952D02*
X125154819Y-155376190D01*
X125154819Y-155376190D02*
X125154819Y-155566666D01*
X125154819Y-155566666D02*
X125107200Y-155661904D01*
X125107200Y-155661904D02*
X125011961Y-155709523D01*
X125011961Y-155709523D02*
X124631009Y-155709523D01*
X124631009Y-155709523D02*
X124535771Y-155661904D01*
X124535771Y-155661904D02*
X124488152Y-155566666D01*
X124488152Y-155566666D02*
X124488152Y-155376190D01*
X124488152Y-155376190D02*
X124535771Y-155280952D01*
X124535771Y-155280952D02*
X124631009Y-155233333D01*
X124631009Y-155233333D02*
X124726247Y-155233333D01*
X124726247Y-155233333D02*
X124821485Y-155709523D01*
X124154819Y-154899999D02*
X124154819Y-154280952D01*
X124154819Y-154280952D02*
X124535771Y-154614285D01*
X124535771Y-154614285D02*
X124535771Y-154471428D01*
X124535771Y-154471428D02*
X124583390Y-154376190D01*
X124583390Y-154376190D02*
X124631009Y-154328571D01*
X124631009Y-154328571D02*
X124726247Y-154280952D01*
X124726247Y-154280952D02*
X124964342Y-154280952D01*
X124964342Y-154280952D02*
X125059580Y-154328571D01*
X125059580Y-154328571D02*
X125107200Y-154376190D01*
X125107200Y-154376190D02*
X125154819Y-154471428D01*
X125154819Y-154471428D02*
X125154819Y-154757142D01*
X125154819Y-154757142D02*
X125107200Y-154852380D01*
X125107200Y-154852380D02*
X125059580Y-154899999D01*
X124154819Y-153661904D02*
X124154819Y-153471428D01*
X124154819Y-153471428D02*
X124202438Y-153376190D01*
X124202438Y-153376190D02*
X124297676Y-153280952D01*
X124297676Y-153280952D02*
X124488152Y-153233333D01*
X124488152Y-153233333D02*
X124821485Y-153233333D01*
X124821485Y-153233333D02*
X125011961Y-153280952D01*
X125011961Y-153280952D02*
X125107200Y-153376190D01*
X125107200Y-153376190D02*
X125154819Y-153471428D01*
X125154819Y-153471428D02*
X125154819Y-153661904D01*
X125154819Y-153661904D02*
X125107200Y-153757142D01*
X125107200Y-153757142D02*
X125011961Y-153852380D01*
X125011961Y-153852380D02*
X124821485Y-153899999D01*
X124821485Y-153899999D02*
X124488152Y-153899999D01*
X124488152Y-153899999D02*
X124297676Y-153852380D01*
X124297676Y-153852380D02*
X124202438Y-153757142D01*
X124202438Y-153757142D02*
X124154819Y-153661904D01*
X124488152Y-152376190D02*
X125154819Y-152376190D01*
X124488152Y-152804761D02*
X125011961Y-152804761D01*
X125011961Y-152804761D02*
X125107200Y-152757142D01*
X125107200Y-152757142D02*
X125154819Y-152661904D01*
X125154819Y-152661904D02*
X125154819Y-152519047D01*
X125154819Y-152519047D02*
X125107200Y-152423809D01*
X125107200Y-152423809D02*
X125059580Y-152376190D01*
X124488152Y-152042856D02*
X124488152Y-151661904D01*
X124154819Y-151899999D02*
X125011961Y-151899999D01*
X125011961Y-151899999D02*
X125107200Y-151852380D01*
X125107200Y-151852380D02*
X125154819Y-151757142D01*
X125154819Y-151757142D02*
X125154819Y-151661904D01*
X136654819Y-157423809D02*
X136178628Y-157757142D01*
X136654819Y-157995237D02*
X135654819Y-157995237D01*
X135654819Y-157995237D02*
X135654819Y-157614285D01*
X135654819Y-157614285D02*
X135702438Y-157519047D01*
X135702438Y-157519047D02*
X135750057Y-157471428D01*
X135750057Y-157471428D02*
X135845295Y-157423809D01*
X135845295Y-157423809D02*
X135988152Y-157423809D01*
X135988152Y-157423809D02*
X136083390Y-157471428D01*
X136083390Y-157471428D02*
X136131009Y-157519047D01*
X136131009Y-157519047D02*
X136178628Y-157614285D01*
X136178628Y-157614285D02*
X136178628Y-157995237D01*
X136654819Y-156566666D02*
X136131009Y-156566666D01*
X136131009Y-156566666D02*
X136035771Y-156614285D01*
X136035771Y-156614285D02*
X135988152Y-156709523D01*
X135988152Y-156709523D02*
X135988152Y-156899999D01*
X135988152Y-156899999D02*
X136035771Y-156995237D01*
X136607200Y-156566666D02*
X136654819Y-156661904D01*
X136654819Y-156661904D02*
X136654819Y-156899999D01*
X136654819Y-156899999D02*
X136607200Y-156995237D01*
X136607200Y-156995237D02*
X136511961Y-157042856D01*
X136511961Y-157042856D02*
X136416723Y-157042856D01*
X136416723Y-157042856D02*
X136321485Y-156995237D01*
X136321485Y-156995237D02*
X136273866Y-156899999D01*
X136273866Y-156899999D02*
X136273866Y-156661904D01*
X136273866Y-156661904D02*
X136226247Y-156566666D01*
X136654819Y-156090475D02*
X135988152Y-156090475D01*
X136083390Y-156090475D02*
X136035771Y-156042856D01*
X136035771Y-156042856D02*
X135988152Y-155947618D01*
X135988152Y-155947618D02*
X135988152Y-155804761D01*
X135988152Y-155804761D02*
X136035771Y-155709523D01*
X136035771Y-155709523D02*
X136131009Y-155661904D01*
X136131009Y-155661904D02*
X136654819Y-155661904D01*
X136131009Y-155661904D02*
X136035771Y-155614285D01*
X136035771Y-155614285D02*
X135988152Y-155519047D01*
X135988152Y-155519047D02*
X135988152Y-155376190D01*
X135988152Y-155376190D02*
X136035771Y-155280951D01*
X136035771Y-155280951D02*
X136131009Y-155233332D01*
X136131009Y-155233332D02*
X136654819Y-155233332D01*
X135988152Y-154757142D02*
X136988152Y-154757142D01*
X136035771Y-154757142D02*
X135988152Y-154661904D01*
X135988152Y-154661904D02*
X135988152Y-154471428D01*
X135988152Y-154471428D02*
X136035771Y-154376190D01*
X136035771Y-154376190D02*
X136083390Y-154328571D01*
X136083390Y-154328571D02*
X136178628Y-154280952D01*
X136178628Y-154280952D02*
X136464342Y-154280952D01*
X136464342Y-154280952D02*
X136559580Y-154328571D01*
X136559580Y-154328571D02*
X136607200Y-154376190D01*
X136607200Y-154376190D02*
X136654819Y-154471428D01*
X136654819Y-154471428D02*
X136654819Y-154661904D01*
X136654819Y-154661904D02*
X136607200Y-154757142D01*
X135654819Y-153661904D02*
X135654819Y-153471428D01*
X135654819Y-153471428D02*
X135702438Y-153376190D01*
X135702438Y-153376190D02*
X135797676Y-153280952D01*
X135797676Y-153280952D02*
X135988152Y-153233333D01*
X135988152Y-153233333D02*
X136321485Y-153233333D01*
X136321485Y-153233333D02*
X136511961Y-153280952D01*
X136511961Y-153280952D02*
X136607200Y-153376190D01*
X136607200Y-153376190D02*
X136654819Y-153471428D01*
X136654819Y-153471428D02*
X136654819Y-153661904D01*
X136654819Y-153661904D02*
X136607200Y-153757142D01*
X136607200Y-153757142D02*
X136511961Y-153852380D01*
X136511961Y-153852380D02*
X136321485Y-153899999D01*
X136321485Y-153899999D02*
X135988152Y-153899999D01*
X135988152Y-153899999D02*
X135797676Y-153852380D01*
X135797676Y-153852380D02*
X135702438Y-153757142D01*
X135702438Y-153757142D02*
X135654819Y-153661904D01*
X135988152Y-152376190D02*
X136654819Y-152376190D01*
X135988152Y-152804761D02*
X136511961Y-152804761D01*
X136511961Y-152804761D02*
X136607200Y-152757142D01*
X136607200Y-152757142D02*
X136654819Y-152661904D01*
X136654819Y-152661904D02*
X136654819Y-152519047D01*
X136654819Y-152519047D02*
X136607200Y-152423809D01*
X136607200Y-152423809D02*
X136559580Y-152376190D01*
X135988152Y-152042856D02*
X135988152Y-151661904D01*
X135654819Y-151899999D02*
X136511961Y-151899999D01*
X136511961Y-151899999D02*
X136607200Y-151852380D01*
X136607200Y-151852380D02*
X136654819Y-151757142D01*
X136654819Y-151757142D02*
X136654819Y-151661904D01*
X148761905Y-71094819D02*
X148761905Y-70094819D01*
X148761905Y-70094819D02*
X149000000Y-70094819D01*
X149000000Y-70094819D02*
X149142857Y-70142438D01*
X149142857Y-70142438D02*
X149238095Y-70237676D01*
X149238095Y-70237676D02*
X149285714Y-70332914D01*
X149285714Y-70332914D02*
X149333333Y-70523390D01*
X149333333Y-70523390D02*
X149333333Y-70666247D01*
X149333333Y-70666247D02*
X149285714Y-70856723D01*
X149285714Y-70856723D02*
X149238095Y-70951961D01*
X149238095Y-70951961D02*
X149142857Y-71047200D01*
X149142857Y-71047200D02*
X149000000Y-71094819D01*
X149000000Y-71094819D02*
X148761905Y-71094819D01*
X150238095Y-70094819D02*
X149761905Y-70094819D01*
X149761905Y-70094819D02*
X149714286Y-70571009D01*
X149714286Y-70571009D02*
X149761905Y-70523390D01*
X149761905Y-70523390D02*
X149857143Y-70475771D01*
X149857143Y-70475771D02*
X150095238Y-70475771D01*
X150095238Y-70475771D02*
X150190476Y-70523390D01*
X150190476Y-70523390D02*
X150238095Y-70571009D01*
X150238095Y-70571009D02*
X150285714Y-70666247D01*
X150285714Y-70666247D02*
X150285714Y-70904342D01*
X150285714Y-70904342D02*
X150238095Y-70999580D01*
X150238095Y-70999580D02*
X150190476Y-71047200D01*
X150190476Y-71047200D02*
X150095238Y-71094819D01*
X150095238Y-71094819D02*
X149857143Y-71094819D01*
X149857143Y-71094819D02*
X149761905Y-71047200D01*
X149761905Y-71047200D02*
X149714286Y-70999580D01*
X143055237Y-131647200D02*
X143198094Y-131694819D01*
X143198094Y-131694819D02*
X143436189Y-131694819D01*
X143436189Y-131694819D02*
X143531427Y-131647200D01*
X143531427Y-131647200D02*
X143579046Y-131599580D01*
X143579046Y-131599580D02*
X143626665Y-131504342D01*
X143626665Y-131504342D02*
X143626665Y-131409104D01*
X143626665Y-131409104D02*
X143579046Y-131313866D01*
X143579046Y-131313866D02*
X143531427Y-131266247D01*
X143531427Y-131266247D02*
X143436189Y-131218628D01*
X143436189Y-131218628D02*
X143245713Y-131171009D01*
X143245713Y-131171009D02*
X143150475Y-131123390D01*
X143150475Y-131123390D02*
X143102856Y-131075771D01*
X143102856Y-131075771D02*
X143055237Y-130980533D01*
X143055237Y-130980533D02*
X143055237Y-130885295D01*
X143055237Y-130885295D02*
X143102856Y-130790057D01*
X143102856Y-130790057D02*
X143150475Y-130742438D01*
X143150475Y-130742438D02*
X143245713Y-130694819D01*
X143245713Y-130694819D02*
X143483808Y-130694819D01*
X143483808Y-130694819D02*
X143626665Y-130742438D01*
X143959999Y-131028152D02*
X144150475Y-131694819D01*
X144150475Y-131694819D02*
X144340951Y-131218628D01*
X144340951Y-131218628D02*
X144531427Y-131694819D01*
X144531427Y-131694819D02*
X144721903Y-131028152D01*
X145483808Y-131647200D02*
X145388570Y-131694819D01*
X145388570Y-131694819D02*
X145198094Y-131694819D01*
X145198094Y-131694819D02*
X145102856Y-131647200D01*
X145102856Y-131647200D02*
X145055237Y-131551961D01*
X145055237Y-131551961D02*
X145055237Y-131171009D01*
X145055237Y-131171009D02*
X145102856Y-131075771D01*
X145102856Y-131075771D02*
X145198094Y-131028152D01*
X145198094Y-131028152D02*
X145388570Y-131028152D01*
X145388570Y-131028152D02*
X145483808Y-131075771D01*
X145483808Y-131075771D02*
X145531427Y-131171009D01*
X145531427Y-131171009D02*
X145531427Y-131266247D01*
X145531427Y-131266247D02*
X145055237Y-131361485D01*
X146102856Y-131694819D02*
X146007618Y-131647200D01*
X146007618Y-131647200D02*
X145959999Y-131551961D01*
X145959999Y-131551961D02*
X145959999Y-130694819D01*
X146626666Y-131694819D02*
X146531428Y-131647200D01*
X146531428Y-131647200D02*
X146483809Y-131551961D01*
X146483809Y-131551961D02*
X146483809Y-130694819D01*
X146769524Y-131790057D02*
X147531428Y-131790057D01*
X148245714Y-131694819D02*
X147769524Y-131694819D01*
X147769524Y-131694819D02*
X147769524Y-130694819D01*
X148960000Y-131647200D02*
X148864762Y-131694819D01*
X148864762Y-131694819D02*
X148674286Y-131694819D01*
X148674286Y-131694819D02*
X148579048Y-131647200D01*
X148579048Y-131647200D02*
X148531429Y-131551961D01*
X148531429Y-131551961D02*
X148531429Y-131171009D01*
X148531429Y-131171009D02*
X148579048Y-131075771D01*
X148579048Y-131075771D02*
X148674286Y-131028152D01*
X148674286Y-131028152D02*
X148864762Y-131028152D01*
X148864762Y-131028152D02*
X148960000Y-131075771D01*
X148960000Y-131075771D02*
X149007619Y-131171009D01*
X149007619Y-131171009D02*
X149007619Y-131266247D01*
X149007619Y-131266247D02*
X148531429Y-131361485D01*
X149340953Y-131028152D02*
X149579048Y-131694819D01*
X149579048Y-131694819D02*
X149817143Y-131028152D01*
X150579048Y-131647200D02*
X150483810Y-131694819D01*
X150483810Y-131694819D02*
X150293334Y-131694819D01*
X150293334Y-131694819D02*
X150198096Y-131647200D01*
X150198096Y-131647200D02*
X150150477Y-131551961D01*
X150150477Y-131551961D02*
X150150477Y-131171009D01*
X150150477Y-131171009D02*
X150198096Y-131075771D01*
X150198096Y-131075771D02*
X150293334Y-131028152D01*
X150293334Y-131028152D02*
X150483810Y-131028152D01*
X150483810Y-131028152D02*
X150579048Y-131075771D01*
X150579048Y-131075771D02*
X150626667Y-131171009D01*
X150626667Y-131171009D02*
X150626667Y-131266247D01*
X150626667Y-131266247D02*
X150150477Y-131361485D01*
X151531429Y-131694819D02*
X151055239Y-131694819D01*
X151055239Y-131694819D02*
X151055239Y-130694819D01*
X151626668Y-131790057D02*
X152388572Y-131790057D01*
X152483811Y-130694819D02*
X153055239Y-130694819D01*
X152769525Y-131694819D02*
X152769525Y-130694819D01*
X153388573Y-131694819D02*
X153388573Y-131028152D01*
X153388573Y-131218628D02*
X153436192Y-131123390D01*
X153436192Y-131123390D02*
X153483811Y-131075771D01*
X153483811Y-131075771D02*
X153579049Y-131028152D01*
X153579049Y-131028152D02*
X153674287Y-131028152D01*
X154007621Y-131694819D02*
X154007621Y-131028152D01*
X154007621Y-131123390D02*
X154055240Y-131075771D01*
X154055240Y-131075771D02*
X154150478Y-131028152D01*
X154150478Y-131028152D02*
X154293335Y-131028152D01*
X154293335Y-131028152D02*
X154388573Y-131075771D01*
X154388573Y-131075771D02*
X154436192Y-131171009D01*
X154436192Y-131171009D02*
X154436192Y-131694819D01*
X154436192Y-131171009D02*
X154483811Y-131075771D01*
X154483811Y-131075771D02*
X154579049Y-131028152D01*
X154579049Y-131028152D02*
X154721906Y-131028152D01*
X154721906Y-131028152D02*
X154817145Y-131075771D01*
X154817145Y-131075771D02*
X154864764Y-131171009D01*
X154864764Y-131171009D02*
X154864764Y-131694819D01*
X155864763Y-131694819D02*
X155293335Y-131694819D01*
X155579049Y-131694819D02*
X155579049Y-130694819D01*
X155579049Y-130694819D02*
X155483811Y-130837676D01*
X155483811Y-130837676D02*
X155388573Y-130932914D01*
X155388573Y-130932914D02*
X155293335Y-130980533D01*
X116733333Y-132031009D02*
X116400000Y-132031009D01*
X116400000Y-132554819D02*
X116400000Y-131554819D01*
X116400000Y-131554819D02*
X116876190Y-131554819D01*
X117257143Y-132554819D02*
X117257143Y-131554819D01*
X117257143Y-131554819D02*
X117590476Y-132269104D01*
X117590476Y-132269104D02*
X117923809Y-131554819D01*
X117923809Y-131554819D02*
X117923809Y-132554819D01*
X118352381Y-131650057D02*
X118400000Y-131602438D01*
X118400000Y-131602438D02*
X118495238Y-131554819D01*
X118495238Y-131554819D02*
X118733333Y-131554819D01*
X118733333Y-131554819D02*
X118828571Y-131602438D01*
X118828571Y-131602438D02*
X118876190Y-131650057D01*
X118876190Y-131650057D02*
X118923809Y-131745295D01*
X118923809Y-131745295D02*
X118923809Y-131840533D01*
X118923809Y-131840533D02*
X118876190Y-131983390D01*
X118876190Y-131983390D02*
X118304762Y-132554819D01*
X118304762Y-132554819D02*
X118923809Y-132554819D01*
X119542857Y-131554819D02*
X119733333Y-131554819D01*
X119733333Y-131554819D02*
X119828571Y-131602438D01*
X119828571Y-131602438D02*
X119923809Y-131697676D01*
X119923809Y-131697676D02*
X119971428Y-131888152D01*
X119971428Y-131888152D02*
X119971428Y-132221485D01*
X119971428Y-132221485D02*
X119923809Y-132411961D01*
X119923809Y-132411961D02*
X119828571Y-132507200D01*
X119828571Y-132507200D02*
X119733333Y-132554819D01*
X119733333Y-132554819D02*
X119542857Y-132554819D01*
X119542857Y-132554819D02*
X119447619Y-132507200D01*
X119447619Y-132507200D02*
X119352381Y-132411961D01*
X119352381Y-132411961D02*
X119304762Y-132221485D01*
X119304762Y-132221485D02*
X119304762Y-131888152D01*
X119304762Y-131888152D02*
X119352381Y-131697676D01*
X119352381Y-131697676D02*
X119447619Y-131602438D01*
X119447619Y-131602438D02*
X119542857Y-131554819D01*
X120828571Y-131888152D02*
X120828571Y-132554819D01*
X120400000Y-131888152D02*
X120400000Y-132411961D01*
X120400000Y-132411961D02*
X120447619Y-132507200D01*
X120447619Y-132507200D02*
X120542857Y-132554819D01*
X120542857Y-132554819D02*
X120685714Y-132554819D01*
X120685714Y-132554819D02*
X120780952Y-132507200D01*
X120780952Y-132507200D02*
X120828571Y-132459580D01*
X121161905Y-131888152D02*
X121542857Y-131888152D01*
X121304762Y-131554819D02*
X121304762Y-132411961D01*
X121304762Y-132411961D02*
X121352381Y-132507200D01*
X121352381Y-132507200D02*
X121447619Y-132554819D01*
X121447619Y-132554819D02*
X121542857Y-132554819D01*
X127633333Y-132031009D02*
X127300000Y-132031009D01*
X127300000Y-132554819D02*
X127300000Y-131554819D01*
X127300000Y-131554819D02*
X127776190Y-131554819D01*
X128157143Y-132554819D02*
X128157143Y-131554819D01*
X128157143Y-131554819D02*
X128490476Y-132269104D01*
X128490476Y-132269104D02*
X128823809Y-131554819D01*
X128823809Y-131554819D02*
X128823809Y-132554819D01*
X129204762Y-131554819D02*
X129823809Y-131554819D01*
X129823809Y-131554819D02*
X129490476Y-131935771D01*
X129490476Y-131935771D02*
X129633333Y-131935771D01*
X129633333Y-131935771D02*
X129728571Y-131983390D01*
X129728571Y-131983390D02*
X129776190Y-132031009D01*
X129776190Y-132031009D02*
X129823809Y-132126247D01*
X129823809Y-132126247D02*
X129823809Y-132364342D01*
X129823809Y-132364342D02*
X129776190Y-132459580D01*
X129776190Y-132459580D02*
X129728571Y-132507200D01*
X129728571Y-132507200D02*
X129633333Y-132554819D01*
X129633333Y-132554819D02*
X129347619Y-132554819D01*
X129347619Y-132554819D02*
X129252381Y-132507200D01*
X129252381Y-132507200D02*
X129204762Y-132459580D01*
X130442857Y-131554819D02*
X130633333Y-131554819D01*
X130633333Y-131554819D02*
X130728571Y-131602438D01*
X130728571Y-131602438D02*
X130823809Y-131697676D01*
X130823809Y-131697676D02*
X130871428Y-131888152D01*
X130871428Y-131888152D02*
X130871428Y-132221485D01*
X130871428Y-132221485D02*
X130823809Y-132411961D01*
X130823809Y-132411961D02*
X130728571Y-132507200D01*
X130728571Y-132507200D02*
X130633333Y-132554819D01*
X130633333Y-132554819D02*
X130442857Y-132554819D01*
X130442857Y-132554819D02*
X130347619Y-132507200D01*
X130347619Y-132507200D02*
X130252381Y-132411961D01*
X130252381Y-132411961D02*
X130204762Y-132221485D01*
X130204762Y-132221485D02*
X130204762Y-131888152D01*
X130204762Y-131888152D02*
X130252381Y-131697676D01*
X130252381Y-131697676D02*
X130347619Y-131602438D01*
X130347619Y-131602438D02*
X130442857Y-131554819D01*
X131728571Y-131888152D02*
X131728571Y-132554819D01*
X131300000Y-131888152D02*
X131300000Y-132411961D01*
X131300000Y-132411961D02*
X131347619Y-132507200D01*
X131347619Y-132507200D02*
X131442857Y-132554819D01*
X131442857Y-132554819D02*
X131585714Y-132554819D01*
X131585714Y-132554819D02*
X131680952Y-132507200D01*
X131680952Y-132507200D02*
X131728571Y-132459580D01*
X132061905Y-131888152D02*
X132442857Y-131888152D01*
X132204762Y-131554819D02*
X132204762Y-132411961D01*
X132204762Y-132411961D02*
X132252381Y-132507200D01*
X132252381Y-132507200D02*
X132347619Y-132554819D01*
X132347619Y-132554819D02*
X132442857Y-132554819D01*
D11*
%TO.C,Sine_Level3*%
X125639000Y-113240000D02*
X135560000Y-113240000D01*
X125639000Y-117105000D02*
X125639000Y-113240000D01*
X125639000Y-125360000D02*
X125639000Y-121494000D01*
X125639000Y-125360000D02*
X127275000Y-125360000D01*
X128925000Y-125360000D02*
X129775000Y-125360000D01*
X131425000Y-125360000D02*
X132275000Y-125360000D01*
X133925000Y-125360000D02*
X135560000Y-125360000D01*
X135560000Y-117105000D02*
X135560000Y-113240000D01*
X135560000Y-125360000D02*
X135560000Y-121494000D01*
X127837568Y-117628018D02*
G75*
G02*
X133362000Y-117627000I2762432J-1171982D01*
G01*
X132897753Y-120728295D02*
G75*
G02*
X128302000Y-120728000I-2297753J1928295D01*
G01*
%TO.C,Sine_Level1*%
X125639000Y-63240000D02*
X135560000Y-63240000D01*
X125639000Y-67105000D02*
X125639000Y-63240000D01*
X125639000Y-75360000D02*
X125639000Y-71494000D01*
X125639000Y-75360000D02*
X127275000Y-75360000D01*
X128925000Y-75360000D02*
X129775000Y-75360000D01*
X131425000Y-75360000D02*
X132275000Y-75360000D01*
X133925000Y-75360000D02*
X135560000Y-75360000D01*
X135560000Y-67105000D02*
X135560000Y-63240000D01*
X135560000Y-75360000D02*
X135560000Y-71494000D01*
X127837568Y-67628018D02*
G75*
G02*
X133362000Y-67627000I2762432J-1171982D01*
G01*
X132897753Y-70728295D02*
G75*
G02*
X128302000Y-70728000I-2297753J1928295D01*
G01*
%TO.C,Sine_Rate2*%
X105539000Y-81640000D02*
X115460000Y-81640000D01*
X105539000Y-85505000D02*
X105539000Y-81640000D01*
X105539000Y-93760000D02*
X105539000Y-89894000D01*
X105539000Y-93760000D02*
X107175000Y-93760000D01*
X108825000Y-93760000D02*
X109675000Y-93760000D01*
X111325000Y-93760000D02*
X112175000Y-93760000D01*
X113825000Y-93760000D02*
X115460000Y-93760000D01*
X115460000Y-85505000D02*
X115460000Y-81640000D01*
X115460000Y-93760000D02*
X115460000Y-89894000D01*
X107737568Y-86028018D02*
G75*
G02*
X113262000Y-86027000I2762432J-1171982D01*
G01*
X112797753Y-89128295D02*
G75*
G02*
X108202000Y-89128000I-2297753J1928295D01*
G01*
%TO.C,Sine_Rate3*%
X105539000Y-106640000D02*
X115460000Y-106640000D01*
X105539000Y-110505000D02*
X105539000Y-106640000D01*
X105539000Y-118760000D02*
X105539000Y-114894000D01*
X105539000Y-118760000D02*
X107175000Y-118760000D01*
X108825000Y-118760000D02*
X109675000Y-118760000D01*
X111325000Y-118760000D02*
X112175000Y-118760000D01*
X113825000Y-118760000D02*
X115460000Y-118760000D01*
X115460000Y-110505000D02*
X115460000Y-106640000D01*
X115460000Y-118760000D02*
X115460000Y-114894000D01*
X107737568Y-111028018D02*
G75*
G02*
X113262000Y-111027000I2762432J-1171982D01*
G01*
X112797753Y-114128295D02*
G75*
G02*
X108202000Y-114128000I-2297753J1928295D01*
G01*
%TO.C,Sine_Level2*%
X125639000Y-88240000D02*
X135560000Y-88240000D01*
X125639000Y-92105000D02*
X125639000Y-88240000D01*
X125639000Y-100360000D02*
X125639000Y-96494000D01*
X125639000Y-100360000D02*
X127275000Y-100360000D01*
X128925000Y-100360000D02*
X129775000Y-100360000D01*
X131425000Y-100360000D02*
X132275000Y-100360000D01*
X133925000Y-100360000D02*
X135560000Y-100360000D01*
X135560000Y-92105000D02*
X135560000Y-88240000D01*
X135560000Y-100360000D02*
X135560000Y-96494000D01*
X127837568Y-92628018D02*
G75*
G02*
X133362000Y-92627000I2762432J-1171982D01*
G01*
X132897753Y-95728295D02*
G75*
G02*
X128302000Y-95728000I-2297753J1928295D01*
G01*
%TO.C,Sine_Rate1*%
X105539000Y-56640000D02*
X115460000Y-56640000D01*
X105539000Y-60505000D02*
X105539000Y-56640000D01*
X105539000Y-68760000D02*
X105539000Y-64894000D01*
X105539000Y-68760000D02*
X107175000Y-68760000D01*
X108825000Y-68760000D02*
X109675000Y-68760000D01*
X111325000Y-68760000D02*
X112175000Y-68760000D01*
X113825000Y-68760000D02*
X115460000Y-68760000D01*
X115460000Y-60505000D02*
X115460000Y-56640000D01*
X115460000Y-68760000D02*
X115460000Y-64894000D01*
X107737568Y-61028018D02*
G75*
G02*
X113262000Y-61027000I2762432J-1171982D01*
G01*
X112797753Y-64128295D02*
G75*
G02*
X108202000Y-64128000I-2297753J1928295D01*
G01*
%TO.C,Ramp_Rate_Pot1*%
X144539000Y-56640000D02*
X154460000Y-56640000D01*
X144539000Y-60505000D02*
X144539000Y-56640000D01*
X144539000Y-68760000D02*
X144539000Y-64894000D01*
X144539000Y-68760000D02*
X146175000Y-68760000D01*
X147825000Y-68760000D02*
X148675000Y-68760000D01*
X150325000Y-68760000D02*
X151175000Y-68760000D01*
X152825000Y-68760000D02*
X154460000Y-68760000D01*
X154460000Y-60505000D02*
X154460000Y-56640000D01*
X154460000Y-68760000D02*
X154460000Y-64894000D01*
X146737568Y-61028018D02*
G75*
G02*
X152262000Y-61027000I2762432J-1171982D01*
G01*
X151797753Y-64128295D02*
G75*
G02*
X147202000Y-64128000I-2297753J1928295D01*
G01*
%TO.C,D10*%
X107260000Y-101220000D02*
X107260001Y-101064000D01*
X107260001Y-103536000D02*
X107260000Y-103380000D01*
X104027666Y-101221392D02*
G75*
G02*
X107260000Y-101064484I1672335J-1078610D01*
G01*
X104658870Y-101220163D02*
G75*
G02*
X106740961Y-101220000I1041130J-1079837D01*
G01*
X106740961Y-103380000D02*
G75*
G02*
X104658870Y-103379837I-1040961J1080000D01*
G01*
X107260000Y-103535516D02*
G75*
G02*
X104027667Y-103378608I-1559999J1235516D01*
G01*
%TO.C,D8*%
X104464000Y-78760000D02*
X104620000Y-78760000D01*
X106780000Y-78760000D02*
X106936000Y-78760000D01*
X104464484Y-78760000D02*
G75*
G02*
X104621392Y-75527665I1235517J1560000D01*
G01*
X104620000Y-78240961D02*
G75*
G02*
X104620163Y-76158870I1080000J1040961D01*
G01*
X106778608Y-75527665D02*
G75*
G02*
X106935516Y-78760000I-1078609J-1672335D01*
G01*
X106779837Y-76158870D02*
G75*
G02*
X106780000Y-78240961I-1079837J-1041130D01*
G01*
%TO.C,Swell_Rate_Pot1*%
X144539000Y-96640000D02*
X154460000Y-96640000D01*
X144539000Y-100505000D02*
X144539000Y-96640000D01*
X144539000Y-108760000D02*
X144539000Y-104894000D01*
X144539000Y-108760000D02*
X146175000Y-108760000D01*
X147825000Y-108760000D02*
X148675000Y-108760000D01*
X150325000Y-108760000D02*
X151175000Y-108760000D01*
X152825000Y-108760000D02*
X154460000Y-108760000D01*
X154460000Y-100505000D02*
X154460000Y-96640000D01*
X154460000Y-108760000D02*
X154460000Y-104894000D01*
X146737568Y-101028018D02*
G75*
G02*
X152262000Y-101027000I2762432J-1171982D01*
G01*
X151797753Y-104128295D02*
G75*
G02*
X147202000Y-104128000I-2297753J1928295D01*
G01*
%TO.C,D1*%
X119264000Y-67160000D02*
X119420000Y-67160000D01*
X121580000Y-67160000D02*
X121736000Y-67160000D01*
X119264484Y-67160000D02*
G75*
G02*
X119421392Y-63927665I1235517J1560000D01*
G01*
X119420000Y-66640961D02*
G75*
G02*
X119420163Y-64558870I1080000J1040961D01*
G01*
X121578608Y-63927665D02*
G75*
G02*
X121735516Y-67160000I-1078609J-1672335D01*
G01*
X121579837Y-64558870D02*
G75*
G02*
X121580000Y-66640961I-1079837J-1041130D01*
G01*
D10*
%TO.C,J13*%
X147700000Y-159500000D02*
X147700000Y-149000000D01*
X150295000Y-149055000D02*
X150295000Y-149690000D01*
X150295000Y-149690000D02*
X147755000Y-149690000D01*
X150295000Y-151595000D02*
X154105000Y-151595000D01*
X154105000Y-149055000D02*
X150295000Y-149055000D01*
X154105000Y-149690000D02*
X154105000Y-149055000D01*
X154105000Y-155405000D02*
X150295000Y-155405000D01*
X156645000Y-149690000D02*
X154105000Y-149690000D01*
X156700000Y-149000000D02*
X147700000Y-149000000D01*
X156700000Y-159500000D02*
X147700000Y-159500000D01*
X156700000Y-159500000D02*
X156700000Y-149000000D01*
X150295000Y-155405000D02*
G75*
G02*
X150295000Y-151595000I1905000J1905000D01*
G01*
X154105000Y-151595000D02*
G75*
G02*
X154105000Y-155405000I-1904999J-1905000D01*
G01*
X153996051Y-153500000D02*
G75*
G02*
X150403949Y-153500000I-1796051J0D01*
G01*
X150403949Y-153500000D02*
G75*
G02*
X153996051Y-153500000I1796051J0D01*
G01*
D11*
%TO.C,D9*%
X134540000Y-82364000D02*
X134540000Y-82520000D01*
X134540000Y-84680000D02*
X134540000Y-84836000D01*
X134540000Y-82364484D02*
G75*
G02*
X137772335Y-82521392I1560000J-1235517D01*
G01*
X135059039Y-82520000D02*
G75*
G02*
X137141130Y-82520163I1040961J-1080000D01*
G01*
X137141130Y-84679837D02*
G75*
G02*
X135059039Y-84680000I-1041130J1079837D01*
G01*
X137772335Y-84678608D02*
G75*
G02*
X134540000Y-84835516I-1672335J1078609D01*
G01*
%TO.C,D11*%
X134540000Y-107364000D02*
X134540000Y-107520000D01*
X134540000Y-109680000D02*
X134540000Y-109836000D01*
X134540000Y-107364484D02*
G75*
G02*
X137772335Y-107521392I1560000J-1235517D01*
G01*
X135059039Y-107520000D02*
G75*
G02*
X137141130Y-107520163I1040961J-1080000D01*
G01*
X137141130Y-109679837D02*
G75*
G02*
X135059039Y-109680000I-1041130J1079837D01*
G01*
X137772335Y-109678608D02*
G75*
G02*
X134540000Y-109835516I-1672335J1078609D01*
G01*
D10*
%TO.C,J10*%
X103300000Y-146000000D02*
X103300000Y-135500000D01*
X105895000Y-135555000D02*
X105895000Y-136190000D01*
X105895000Y-136190000D02*
X103355000Y-136190000D01*
X105895000Y-138095000D02*
X109705000Y-138095000D01*
X109705000Y-135555000D02*
X105895000Y-135555000D01*
X109705000Y-136190000D02*
X109705000Y-135555000D01*
X109705000Y-141905000D02*
X105895000Y-141905000D01*
X112245000Y-136190000D02*
X109705000Y-136190000D01*
X112300000Y-135500000D02*
X103300000Y-135500000D01*
X112300000Y-146000000D02*
X103300000Y-146000000D01*
X112300000Y-146000000D02*
X112300000Y-135500000D01*
X105895000Y-141905000D02*
G75*
G02*
X105895000Y-138095000I1905000J1905000D01*
G01*
X109705000Y-138095000D02*
G75*
G02*
X109705000Y-141905000I-1904999J-1905000D01*
G01*
X109596051Y-140000000D02*
G75*
G02*
X106003949Y-140000000I-1796051J0D01*
G01*
X106003949Y-140000000D02*
G75*
G02*
X109596051Y-140000000I1796051J0D01*
G01*
%TO.C,J14*%
X137200000Y-146000000D02*
X137200000Y-135500000D01*
X139795000Y-135555000D02*
X139795000Y-136190000D01*
X139795000Y-136190000D02*
X137255000Y-136190000D01*
X139795000Y-138095000D02*
X143605000Y-138095000D01*
X143605000Y-135555000D02*
X139795000Y-135555000D01*
X143605000Y-136190000D02*
X143605000Y-135555000D01*
X143605000Y-141905000D02*
X139795000Y-141905000D01*
X146145000Y-136190000D02*
X143605000Y-136190000D01*
X146200000Y-135500000D02*
X137200000Y-135500000D01*
X146200000Y-146000000D02*
X137200000Y-146000000D01*
X146200000Y-146000000D02*
X146200000Y-135500000D01*
X139795000Y-141905000D02*
G75*
G02*
X139795000Y-138095000I1905000J1905000D01*
G01*
X143605000Y-138095000D02*
G75*
G02*
X143605000Y-141905000I-1904999J-1905000D01*
G01*
X143496051Y-140000000D02*
G75*
G02*
X139903949Y-140000000I-1796051J0D01*
G01*
X139903949Y-140000000D02*
G75*
G02*
X143496051Y-140000000I1796051J0D01*
G01*
D11*
%TO.C,D4*%
X147940000Y-112464000D02*
X147940000Y-112620000D01*
X147940000Y-114780000D02*
X147940000Y-114936000D01*
X147940000Y-112464484D02*
G75*
G02*
X151172335Y-112621392I1560000J-1235517D01*
G01*
X148459039Y-112620000D02*
G75*
G02*
X150541130Y-112620163I1040961J-1080000D01*
G01*
X150541130Y-114779837D02*
G75*
G02*
X148459039Y-114780000I-1041130J1079837D01*
G01*
X151172335Y-114778608D02*
G75*
G02*
X147940000Y-114935516I-1672335J1078609D01*
G01*
%TO.C,D6*%
X107660000Y-51320000D02*
X107660001Y-51164000D01*
X107660001Y-53636000D02*
X107660000Y-53480000D01*
X104427666Y-51321392D02*
G75*
G02*
X107660000Y-51164484I1672335J-1078610D01*
G01*
X105058870Y-51320163D02*
G75*
G02*
X107140961Y-51320000I1041130J-1079837D01*
G01*
X107140961Y-53480000D02*
G75*
G02*
X105058870Y-53479837I-1040961J1080000D01*
G01*
X107660000Y-53635516D02*
G75*
G02*
X104427667Y-53478608I-1559999J1235516D01*
G01*
%TO.C,D3*%
X119264000Y-117060000D02*
X119420000Y-117060000D01*
X121580000Y-117060000D02*
X121736000Y-117060000D01*
X119264484Y-117060000D02*
G75*
G02*
X119421392Y-113827665I1235517J1560000D01*
G01*
X119420000Y-116540961D02*
G75*
G02*
X119420163Y-114458870I1080000J1040961D01*
G01*
X121578608Y-113827665D02*
G75*
G02*
X121735516Y-117060000I-1078609J-1672335D01*
G01*
X121579837Y-114458870D02*
G75*
G02*
X121580000Y-116540961I-1079837J-1041130D01*
G01*
D10*
%TO.C,J9*%
X147700000Y-146000000D02*
X147700000Y-135500000D01*
X150295000Y-135555000D02*
X150295000Y-136190000D01*
X150295000Y-136190000D02*
X147755000Y-136190000D01*
X150295000Y-138095000D02*
X154105000Y-138095000D01*
X154105000Y-135555000D02*
X150295000Y-135555000D01*
X154105000Y-136190000D02*
X154105000Y-135555000D01*
X154105000Y-141905000D02*
X150295000Y-141905000D01*
X156645000Y-136190000D02*
X154105000Y-136190000D01*
X156700000Y-135500000D02*
X147700000Y-135500000D01*
X156700000Y-146000000D02*
X147700000Y-146000000D01*
X156700000Y-146000000D02*
X156700000Y-135500000D01*
X150295000Y-141905000D02*
G75*
G02*
X150295000Y-138095000I1905000J1905000D01*
G01*
X154105000Y-138095000D02*
G75*
G02*
X154105000Y-141905000I-1904999J-1905000D01*
G01*
X153996051Y-140000000D02*
G75*
G02*
X150403949Y-140000000I-1796051J0D01*
G01*
X150403949Y-140000000D02*
G75*
G02*
X153996051Y-140000000I1796051J0D01*
G01*
%TO.C,J6*%
X114400000Y-159500000D02*
X114400000Y-149000000D01*
X116995000Y-149055000D02*
X116995000Y-149690000D01*
X116995000Y-149690000D02*
X114455000Y-149690000D01*
X116995000Y-151595000D02*
X120805000Y-151595000D01*
X120805000Y-149055000D02*
X116995000Y-149055000D01*
X120805000Y-149690000D02*
X120805000Y-149055000D01*
X120805000Y-155405000D02*
X116995000Y-155405000D01*
X123345000Y-149690000D02*
X120805000Y-149690000D01*
X123400000Y-149000000D02*
X114400000Y-149000000D01*
X123400000Y-159500000D02*
X114400000Y-159500000D01*
X123400000Y-159500000D02*
X123400000Y-149000000D01*
X116995000Y-155405000D02*
G75*
G02*
X116995000Y-151595000I1905000J1905000D01*
G01*
X120805000Y-151595000D02*
G75*
G02*
X120805000Y-155405000I-1904999J-1905000D01*
G01*
X120696051Y-153500000D02*
G75*
G02*
X117103949Y-153500000I-1796051J0D01*
G01*
X117103949Y-153500000D02*
G75*
G02*
X120696051Y-153500000I1796051J0D01*
G01*
D11*
%TO.C,Ramp_Level_Trm1*%
X144539000Y-75640000D02*
X154460000Y-75640000D01*
X144539000Y-79505000D02*
X144539000Y-75640000D01*
X144539000Y-87760000D02*
X144539000Y-83894000D01*
X144539000Y-87760000D02*
X146175000Y-87760000D01*
X147825000Y-87760000D02*
X148675000Y-87760000D01*
X150325000Y-87760000D02*
X151175000Y-87760000D01*
X152825000Y-87760000D02*
X154460000Y-87760000D01*
X154460000Y-79505000D02*
X154460000Y-75640000D01*
X154460000Y-87760000D02*
X154460000Y-83894000D01*
X146737568Y-80028018D02*
G75*
G02*
X152262000Y-80027000I2762432J-1171982D01*
G01*
X151797753Y-83128295D02*
G75*
G02*
X147202000Y-83128000I-2297753J1928295D01*
G01*
%TO.C,D7*%
X134540000Y-57364000D02*
X134540000Y-57520000D01*
X134540000Y-59680000D02*
X134540000Y-59836000D01*
X134540000Y-57364484D02*
G75*
G02*
X137772335Y-57521392I1560000J-1235517D01*
G01*
X135059039Y-57520000D02*
G75*
G02*
X137141130Y-57520163I1040961J-1080000D01*
G01*
X137141130Y-59679837D02*
G75*
G02*
X135059039Y-59680000I-1041130J1079837D01*
G01*
X137772335Y-59678608D02*
G75*
G02*
X134540000Y-59835516I-1672335J1078609D01*
G01*
D10*
%TO.C,J5*%
X103300000Y-159500000D02*
X103300000Y-149000000D01*
X105895000Y-149055000D02*
X105895000Y-149690000D01*
X105895000Y-149690000D02*
X103355000Y-149690000D01*
X105895000Y-151595000D02*
X109705000Y-151595000D01*
X109705000Y-149055000D02*
X105895000Y-149055000D01*
X109705000Y-149690000D02*
X109705000Y-149055000D01*
X109705000Y-155405000D02*
X105895000Y-155405000D01*
X112245000Y-149690000D02*
X109705000Y-149690000D01*
X112300000Y-149000000D02*
X103300000Y-149000000D01*
X112300000Y-159500000D02*
X103300000Y-159500000D01*
X112300000Y-159500000D02*
X112300000Y-149000000D01*
X105895000Y-155405000D02*
G75*
G02*
X105895000Y-151595000I1905000J1905000D01*
G01*
X109705000Y-151595000D02*
G75*
G02*
X109705000Y-155405000I-1904999J-1905000D01*
G01*
X109596051Y-153500000D02*
G75*
G02*
X106003949Y-153500000I-1796051J0D01*
G01*
X106003949Y-153500000D02*
G75*
G02*
X109596051Y-153500000I1796051J0D01*
G01*
%TO.C,J7*%
X125500000Y-159500000D02*
X125500000Y-149000000D01*
X128095000Y-149055000D02*
X128095000Y-149690000D01*
X128095000Y-149690000D02*
X125555000Y-149690000D01*
X128095000Y-151595000D02*
X131905000Y-151595000D01*
X131905000Y-149055000D02*
X128095000Y-149055000D01*
X131905000Y-149690000D02*
X131905000Y-149055000D01*
X131905000Y-155405000D02*
X128095000Y-155405000D01*
X134445000Y-149690000D02*
X131905000Y-149690000D01*
X134500000Y-149000000D02*
X125500000Y-149000000D01*
X134500000Y-159500000D02*
X125500000Y-159500000D01*
X134500000Y-159500000D02*
X134500000Y-149000000D01*
X128095000Y-155405000D02*
G75*
G02*
X128095000Y-151595000I1905000J1905000D01*
G01*
X131905000Y-151595000D02*
G75*
G02*
X131905000Y-155405000I-1904999J-1905000D01*
G01*
X131796051Y-153500000D02*
G75*
G02*
X128203949Y-153500000I-1796051J0D01*
G01*
X128203949Y-153500000D02*
G75*
G02*
X131796051Y-153500000I1796051J0D01*
G01*
%TO.C,J8*%
X137200000Y-159500000D02*
X137200000Y-149000000D01*
X139795000Y-149055000D02*
X139795000Y-149690000D01*
X139795000Y-149690000D02*
X137255000Y-149690000D01*
X139795000Y-151595000D02*
X143605000Y-151595000D01*
X143605000Y-149055000D02*
X139795000Y-149055000D01*
X143605000Y-149690000D02*
X143605000Y-149055000D01*
X143605000Y-155405000D02*
X139795000Y-155405000D01*
X146145000Y-149690000D02*
X143605000Y-149690000D01*
X146200000Y-149000000D02*
X137200000Y-149000000D01*
X146200000Y-159500000D02*
X137200000Y-159500000D01*
X146200000Y-159500000D02*
X146200000Y-149000000D01*
X139795000Y-155405000D02*
G75*
G02*
X139795000Y-151595000I1905000J1905000D01*
G01*
X143605000Y-151595000D02*
G75*
G02*
X143605000Y-155405000I-1904999J-1905000D01*
G01*
X143496051Y-153500000D02*
G75*
G02*
X139903949Y-153500000I-1796051J0D01*
G01*
X139903949Y-153500000D02*
G75*
G02*
X143496051Y-153500000I1796051J0D01*
G01*
D11*
%TO.C,D5*%
X147940000Y-72364000D02*
X147940000Y-72520000D01*
X147940000Y-74680000D02*
X147940000Y-74836000D01*
X147940000Y-72364484D02*
G75*
G02*
X151172335Y-72521392I1560000J-1235517D01*
G01*
X148459039Y-72520000D02*
G75*
G02*
X150541130Y-72520163I1040961J-1080000D01*
G01*
X150541130Y-74679837D02*
G75*
G02*
X148459039Y-74680000I-1041130J1079837D01*
G01*
X151172335Y-74678608D02*
G75*
G02*
X147940000Y-74835516I-1672335J1078609D01*
G01*
%TO.C,Swell_LeveL_Trm1*%
X144539000Y-115640000D02*
X154460000Y-115640000D01*
X144539000Y-119505000D02*
X144539000Y-115640000D01*
X144539000Y-127760000D02*
X144539000Y-123894000D01*
X144539000Y-127760000D02*
X146175000Y-127760000D01*
X147825000Y-127760000D02*
X148675000Y-127760000D01*
X150325000Y-127760000D02*
X151175000Y-127760000D01*
X152825000Y-127760000D02*
X154460000Y-127760000D01*
X154460000Y-119505000D02*
X154460000Y-115640000D01*
X154460000Y-127760000D02*
X154460000Y-123894000D01*
X146737568Y-120028018D02*
G75*
G02*
X152262000Y-120027000I2762432J-1171982D01*
G01*
X151797753Y-123128295D02*
G75*
G02*
X147202000Y-123128000I-2297753J1928295D01*
G01*
%TO.C,D2*%
X119420000Y-88940000D02*
X119264000Y-88940000D01*
X121736000Y-88940000D02*
X121580000Y-88940000D01*
X119420163Y-91541130D02*
G75*
G02*
X119420000Y-89459039I1079837J1041130D01*
G01*
X119421392Y-92172335D02*
G75*
G02*
X119264484Y-88940000I1078609J1672335D01*
G01*
X121580000Y-89459039D02*
G75*
G02*
X121579837Y-91541130I-1080000J-1040961D01*
G01*
X121735516Y-88940000D02*
G75*
G02*
X121578608Y-92172335I-1235517J-1560000D01*
G01*
D10*
%TO.C,J11*%
X114400000Y-146000000D02*
X114400000Y-135500000D01*
X116995000Y-135555000D02*
X116995000Y-136190000D01*
X116995000Y-136190000D02*
X114455000Y-136190000D01*
X116995000Y-138095000D02*
X120805000Y-138095000D01*
X120805000Y-135555000D02*
X116995000Y-135555000D01*
X120805000Y-136190000D02*
X120805000Y-135555000D01*
X120805000Y-141905000D02*
X116995000Y-141905000D01*
X123345000Y-136190000D02*
X120805000Y-136190000D01*
X123400000Y-135500000D02*
X114400000Y-135500000D01*
X123400000Y-146000000D02*
X114400000Y-146000000D01*
X123400000Y-146000000D02*
X123400000Y-135500000D01*
X116995000Y-141905000D02*
G75*
G02*
X116995000Y-138095000I1905000J1905000D01*
G01*
X120805000Y-138095000D02*
G75*
G02*
X120805000Y-141905000I-1904999J-1905000D01*
G01*
X120696051Y-140000000D02*
G75*
G02*
X117103949Y-140000000I-1796051J0D01*
G01*
X117103949Y-140000000D02*
G75*
G02*
X120696051Y-140000000I1796051J0D01*
G01*
%TO.C,J12*%
X125500000Y-146000000D02*
X125500000Y-135500000D01*
X128095000Y-135555000D02*
X128095000Y-136190000D01*
X128095000Y-136190000D02*
X125555000Y-136190000D01*
X128095000Y-138095000D02*
X131905000Y-138095000D01*
X131905000Y-135555000D02*
X128095000Y-135555000D01*
X131905000Y-136190000D02*
X131905000Y-135555000D01*
X131905000Y-141905000D02*
X128095000Y-141905000D01*
X134445000Y-136190000D02*
X131905000Y-136190000D01*
X134500000Y-135500000D02*
X125500000Y-135500000D01*
X134500000Y-146000000D02*
X125500000Y-146000000D01*
X134500000Y-146000000D02*
X134500000Y-135500000D01*
X128095000Y-141905000D02*
G75*
G02*
X128095000Y-138095000I1905000J1905000D01*
G01*
X131905000Y-138095000D02*
G75*
G02*
X131905000Y-141905000I-1904999J-1905000D01*
G01*
X131796051Y-140000000D02*
G75*
G02*
X128203949Y-140000000I-1796051J0D01*
G01*
X128203949Y-140000000D02*
G75*
G02*
X131796051Y-140000000I1796051J0D01*
G01*
%TD*%
M02*
