M48
; DRILL file {KiCad 8.0.3} date 2024-06-18T15:35:12+0100
; FORMAT={-:-/ absolute / inch / decimal}
; #@! TF.CreationDate,2024-06-18T15:35:12+01:00
; #@! TF.GenerationSoftware,Kicad,Pcbnew,8.0.3
; #@! TF.FileFunction,Plated,1,2,PTH
FMAT,2
INCH
; #@! TA.AperFunction,Plated,PTH,ViaDrill
T1C0.0157
; #@! TA.AperFunction,Plated,PTH,ComponentDrill
T2C0.0197
; #@! TA.AperFunction,Plated,PTH,ComponentDrill
T3C0.0354
; #@! TA.AperFunction,Plated,PTH,ComponentDrill
T4C0.0394
%
G90
G05
T1
X4.1496Y-3.9094
X4.2638Y-4.3071
X4.374Y-3.3071
X4.4094Y-5.3937
X4.4803Y-5.0709
X4.5Y-2.3425
X4.5118Y-3.8819
X4.5157Y-5.2244
X4.5197Y-5.1339
X4.7008Y-5.1496
X4.7087Y-2.4803
X4.7323Y-4.3661
X4.7441Y-4.2638
X4.7953Y-4.8913
X4.937Y-2.3661
X5.0354Y-2.8701
X5.0591Y-2.6299
X5.1339Y-2.9291
X5.311Y-5.3346
X5.3819Y-5.4488
X5.3898Y-4.8701
X5.4134Y-5.1732
X5.437Y-5.5866
X5.5079Y-4.563
X5.5276Y-5.0472
X5.622Y-4.9567
X5.685Y-4.5295
X5.6969Y-2.6181
X5.7717Y-2.8307
X5.8406Y-3.0925
X5.8465Y-2.2559
X5.9055Y-2.8386
X6.0283Y-2.8866
X6.0394Y-4.5984
T3
X4.0827Y-4.0276
X4.0984Y-2.063
X4.1614Y-2.9606
X4.1614Y-3.0394
X4.1614Y-3.1181
X4.1614Y-4.0276
X4.1772Y-2.063
X4.2402Y-4.0276
X4.2559Y-2.063
X4.7441Y-2.5327
X4.7441Y-2.6327
X4.7441Y-3.513
X4.7441Y-3.613
X4.7441Y-4.4972
X4.7441Y-4.5972
X5.2795Y-2.3071
X5.2795Y-3.2913
X5.2795Y-4.2756
X5.3583Y-2.3071
X5.3583Y-3.2913
X5.3583Y-4.2756
X5.437Y-2.3071
X5.437Y-3.2913
X5.437Y-4.2756
X5.8358Y-2.8976
X5.8358Y-4.4764
X5.9358Y-2.8976
X5.9358Y-4.4764
T4
X4.0157Y-2.0866
X4.0157Y-2.1866
X4.0157Y-2.2866
X4.0157Y-2.3866
X4.0157Y-2.4866
X4.0157Y-2.5866
X4.0157Y-2.6866
X4.0157Y-2.7866
X4.0157Y-2.8866
X4.0157Y-2.9866
X4.0157Y-3.0866
X4.0157Y-3.1866
X4.0157Y-4.2913
X4.0157Y-4.3913
X4.0157Y-4.4913
X4.0157Y-4.5913
X4.0157Y-4.6913
X4.0157Y-4.7913
X4.0157Y-4.8913
X4.0157Y-4.9913
X4.0157Y-5.0913
X4.0157Y-5.1913
X4.0157Y-5.2913
X4.0157Y-5.3913
X4.0157Y-5.4913
X4.0157Y-5.5913
X4.0157Y-5.6913
X4.0157Y-5.7913
X4.252Y-2.1732
X4.252Y-2.7441
X4.252Y-3.1575
X4.252Y-3.7283
X4.252Y-4.1417
X4.252Y-4.7126
X4.3504Y-2.7441
X4.3504Y-3.7283
X4.3504Y-4.7126
X4.4488Y-2.1732
X4.4488Y-2.7441
X4.4488Y-3.1575
X4.4488Y-3.7283
X4.4488Y-4.1417
X4.4488Y-4.7126
X5.0433Y-2.4331
X5.0433Y-3.0039
X5.0433Y-3.4173
X5.0433Y-3.9882
X5.0433Y-4.4016
X5.0433Y-4.9724
X5.1417Y-3.0039
X5.1417Y-3.9882
X5.1417Y-4.9724
X5.2402Y-2.4331
X5.2402Y-3.0039
X5.2402Y-3.4173
X5.2402Y-3.9882
X5.2402Y-4.4016
X5.2402Y-4.9724
X5.7874Y-2.7441
X5.7874Y-3.4921
X5.7874Y-4.3189
X5.7874Y-5.0669
X5.8858Y-2.7441
X5.8858Y-3.4921
X5.8858Y-4.3189
X5.8858Y-5.0669
X5.9843Y-2.7441
X5.9843Y-3.4921
X5.9843Y-4.3189
X5.9843Y-5.0669
X6.2205Y-2.0866
X6.2205Y-2.1866
X6.2205Y-2.2866
X6.2205Y-2.3866
X6.2205Y-2.4866
X6.2205Y-2.5866
X6.2205Y-2.6866
X6.2205Y-2.7866
X6.2205Y-2.8866
X6.2205Y-2.9866
X6.2205Y-3.0866
X6.2205Y-3.1866
X6.2205Y-4.2913
X6.2205Y-4.3913
X6.2205Y-4.4913
X6.2205Y-4.5913
X6.2205Y-4.6913
X6.2205Y-4.7913
X6.2205Y-4.8913
X6.2205Y-4.9913
X6.2205Y-5.0913
X6.2205Y-5.1913
X6.2205Y-5.2913
X6.2205Y-5.3913
X6.2205Y-5.4913
X6.2205Y-5.5913
X6.2205Y-5.6913
X6.2205Y-5.7913
T2
G00X4.2638Y-5.2567
M15
G01X4.2244Y-5.2567
M16
G05
G00X4.2638Y-5.3787
M15
G01X4.2244Y-5.3787
M16
G05
G00X4.2638Y-5.7055
M15
G01X4.2244Y-5.7055
M16
G05
G00X4.2638Y-5.7882
M15
G01X4.2244Y-5.7882
M16
G05
G00X4.2638Y-5.9102
M15
G01X4.2244Y-5.9102
M16
G05
G00X4.2638Y-6.237
M15
G01X4.2244Y-6.237
M16
G05
G00X4.7008Y-5.2567
M15
G01X4.6614Y-5.2567
M16
G05
G00X4.7008Y-5.3787
M15
G01X4.6614Y-5.3787
M16
G05
G00X4.7008Y-5.7055
M15
G01X4.6614Y-5.7055
M16
G05
G00X4.7008Y-5.7882
M15
G01X4.6614Y-5.7882
M16
G05
G00X4.7008Y-5.9102
M15
G01X4.6614Y-5.9102
M16
G05
G00X4.7008Y-6.237
M15
G01X4.6614Y-6.237
M16
G05
G00X5.1378Y-5.2567
M15
G01X5.0984Y-5.2567
M16
G05
G00X5.1378Y-5.3787
M15
G01X5.0984Y-5.3787
M16
G05
G00X5.1378Y-5.7055
M15
G01X5.0984Y-5.7055
M16
G05
G00X5.1378Y-5.7882
M15
G01X5.0984Y-5.7882
M16
G05
G00X5.1378Y-5.9102
M15
G01X5.0984Y-5.9102
M16
G05
G00X5.1378Y-6.237
M15
G01X5.0984Y-6.237
M16
G05
G00X5.5984Y-5.2567
M15
G01X5.5591Y-5.2567
M16
G05
G00X5.5984Y-5.3787
M15
G01X5.5591Y-5.3787
M16
G05
G00X5.5984Y-5.7055
M15
G01X5.5591Y-5.7055
M16
G05
G00X5.5984Y-5.7882
M15
G01X5.5591Y-5.7882
M16
G05
G00X5.5984Y-5.9102
M15
G01X5.5591Y-5.9102
M16
G05
G00X5.5984Y-6.237
M15
G01X5.5591Y-6.237
M16
G05
G00X6.0118Y-5.2567
M15
G01X5.9724Y-5.2567
M16
G05
G00X6.0118Y-5.3787
M15
G01X5.9724Y-5.3787
M16
G05
G00X6.0118Y-5.7055
M15
G01X5.9724Y-5.7055
M16
G05
G00X6.0118Y-5.7882
M15
G01X5.9724Y-5.7882
M16
G05
G00X6.0118Y-5.9102
M15
G01X5.9724Y-5.9102
M16
G05
G00X6.0118Y-6.237
M15
G01X5.9724Y-6.237
M16
G05
M30
