%TF.GenerationSoftware,KiCad,Pcbnew,8.0.3*%
%TF.CreationDate,2024-06-18T16:29:27+01:00*%
%TF.ProjectId,Sinosaur_Controls,53696e6f-7361-4757-925f-436f6e74726f,rev?*%
%TF.SameCoordinates,Original*%
%TF.FileFunction,Soldermask,Bot*%
%TF.FilePolarity,Negative*%
%FSLAX46Y46*%
G04 Gerber Fmt 4.6, Leading zero omitted, Abs format (unit mm)*
G04 Created by KiCad (PCBNEW 8.0.3) date 2024-06-18 16:29:27*
%MOMM*%
%LPD*%
G01*
G04 APERTURE LIST*
%ADD10C,3.500000*%
%ADD11C,1.800000*%
%ADD12C,1.700000*%
%ADD13O,2.500000X4.000000*%
%ADD14R,1.800000X1.800000*%
%ADD15C,2.500000*%
%ADD16R,2.500000X1.000000*%
%ADD17R,1.700000X1.700000*%
%ADD18O,1.700000X1.700000*%
G04 APERTURE END LIST*
D10*
%TO.C,Ramp_Rate_Pot1*%
X145100000Y-62700000D03*
X153900000Y-62700000D03*
D11*
X152000000Y-69700000D03*
X149500000Y-69700000D03*
X147000000Y-69700000D03*
%TD*%
D12*
%TO.C,D10*%
X107700001Y-102300000D03*
X105700000Y-102300000D03*
X103699999Y-102300000D03*
%TD*%
%TO.C,D8*%
X105700000Y-79200000D03*
X105700000Y-77200000D03*
X105700000Y-75200000D03*
%TD*%
D13*
%TO.C,Sine_Level3*%
X124700000Y-119300000D03*
X136500000Y-119300000D03*
D11*
X133100000Y-126300000D03*
X130600000Y-126300000D03*
X128100000Y-126300000D03*
X128100000Y-111800000D03*
X133100000Y-111800000D03*
%TD*%
D10*
%TO.C,Swell_Rate_Pot1*%
X145100000Y-102700000D03*
X153900000Y-102700000D03*
D11*
X152000000Y-109700000D03*
X149500000Y-109700000D03*
X147000000Y-109700000D03*
%TD*%
D13*
%TO.C,Sine_Level1*%
X124700000Y-69300000D03*
X136500000Y-69300000D03*
D11*
X133100000Y-76300000D03*
X130600000Y-76300000D03*
X128100000Y-76300000D03*
X128100000Y-61800000D03*
X133100000Y-61800000D03*
%TD*%
D13*
%TO.C,Sine_Rate2*%
X104600000Y-87700000D03*
X116400000Y-87700000D03*
D11*
X113000000Y-94700000D03*
X110500000Y-94700000D03*
X108000000Y-94700000D03*
X108000000Y-80200000D03*
X113000000Y-80200000D03*
%TD*%
D14*
%TO.C,D1*%
X120500000Y-66870000D03*
D11*
X120500000Y-64330000D03*
%TD*%
D15*
%TO.C,J13*%
X152200000Y-153500000D03*
D16*
X152200000Y-147020000D03*
X152200000Y-150120000D03*
X152200000Y-158420000D03*
%TD*%
D12*
%TO.C,D9*%
X134100000Y-83600000D03*
X136100000Y-83600000D03*
X138100000Y-83600000D03*
%TD*%
%TO.C,D11*%
X134100000Y-108600000D03*
X136100000Y-108600000D03*
X138100000Y-108600000D03*
%TD*%
D15*
%TO.C,J10*%
X107800000Y-140000000D03*
D16*
X107800000Y-133520000D03*
X107800000Y-136620000D03*
X107800000Y-144920000D03*
%TD*%
D15*
%TO.C,J14*%
X141700000Y-140000000D03*
D16*
X141700000Y-133520000D03*
X141700000Y-136620000D03*
X141700000Y-144920000D03*
%TD*%
D14*
%TO.C,D4*%
X148230000Y-113700000D03*
D11*
X150770000Y-113700000D03*
%TD*%
D12*
%TO.C,D6*%
X108100001Y-52400000D03*
X106100000Y-52400000D03*
X104099999Y-52400000D03*
%TD*%
D14*
%TO.C,D3*%
X120500000Y-116770000D03*
D11*
X120500000Y-114230000D03*
%TD*%
D15*
%TO.C,J9*%
X152200000Y-140000000D03*
D16*
X152200000Y-133520000D03*
X152200000Y-136620000D03*
X152200000Y-144920000D03*
%TD*%
D15*
%TO.C,J6*%
X118900000Y-153500000D03*
D16*
X118900000Y-147020000D03*
X118900000Y-150120000D03*
X118900000Y-158420000D03*
%TD*%
D10*
%TO.C,Ramp_Level_Trm1*%
X145100000Y-81700000D03*
X153900000Y-81700000D03*
D11*
X152000000Y-88700000D03*
X149500000Y-88700000D03*
X147000000Y-88700000D03*
%TD*%
D12*
%TO.C,D7*%
X134100000Y-58600000D03*
X136100000Y-58600000D03*
X138100000Y-58600000D03*
%TD*%
D15*
%TO.C,J5*%
X107800000Y-153500000D03*
D16*
X107800000Y-147020000D03*
X107800000Y-150120000D03*
X107800000Y-158420000D03*
%TD*%
D15*
%TO.C,J7*%
X130000000Y-153500000D03*
D16*
X130000000Y-147020000D03*
X130000000Y-150120000D03*
X130000000Y-158420000D03*
%TD*%
D13*
%TO.C,Sine_Rate3*%
X104600000Y-112700000D03*
X116400000Y-112700000D03*
D11*
X113000000Y-119700000D03*
X110500000Y-119700000D03*
X108000000Y-119700000D03*
X108000000Y-105200000D03*
X113000000Y-105200000D03*
%TD*%
D15*
%TO.C,J8*%
X141700000Y-153500000D03*
D16*
X141700000Y-147020000D03*
X141700000Y-150120000D03*
X141700000Y-158420000D03*
%TD*%
D13*
%TO.C,Sine_Level2*%
X124700000Y-94300000D03*
X136500000Y-94300000D03*
D11*
X133100000Y-101300000D03*
X130600000Y-101300000D03*
X128100000Y-101300000D03*
X128100000Y-86800000D03*
X133100000Y-86800000D03*
%TD*%
D14*
%TO.C,D5*%
X148230000Y-73600000D03*
D11*
X150770000Y-73600000D03*
%TD*%
D10*
%TO.C,Swell_LeveL_Trm1*%
X145100000Y-121700000D03*
X153900000Y-121700000D03*
D11*
X152000000Y-128700000D03*
X149500000Y-128700000D03*
X147000000Y-128700000D03*
%TD*%
D13*
%TO.C,Sine_Rate1*%
X104600000Y-62700000D03*
X116400000Y-62700000D03*
D11*
X113000000Y-69700000D03*
X110500000Y-69700000D03*
X108000000Y-69700000D03*
X108000000Y-55200000D03*
X113000000Y-55200000D03*
%TD*%
D14*
%TO.C,D2*%
X120500000Y-89230000D03*
D11*
X120500000Y-91770000D03*
%TD*%
D15*
%TO.C,J11*%
X118900000Y-140000000D03*
D16*
X118900000Y-133520000D03*
X118900000Y-136620000D03*
X118900000Y-144920000D03*
%TD*%
D15*
%TO.C,J12*%
X130000000Y-140000000D03*
D16*
X130000000Y-133520000D03*
X130000000Y-136620000D03*
X130000000Y-144920000D03*
%TD*%
D17*
%TO.C,J3*%
X158000000Y-109000000D03*
D18*
X158000000Y-111540000D03*
X158000000Y-114080000D03*
X158000000Y-116620000D03*
X158000000Y-119160000D03*
X158000000Y-121700000D03*
X158000000Y-124240000D03*
X158000000Y-126780000D03*
X158000000Y-129320000D03*
X158000000Y-131860000D03*
X158000000Y-134400000D03*
X158000000Y-136940000D03*
X158000000Y-139480000D03*
X158000000Y-142020000D03*
X158000000Y-144560000D03*
X158000000Y-147100000D03*
%TD*%
D17*
%TO.C,J1*%
X158000000Y-53000000D03*
D18*
X158000000Y-55540000D03*
X158000000Y-58080000D03*
X158000000Y-60620000D03*
X158000000Y-63160000D03*
X158000000Y-65700000D03*
X158000000Y-68240000D03*
X158000000Y-70780000D03*
X158000000Y-73320000D03*
X158000000Y-75860000D03*
X158000000Y-78400000D03*
X158000000Y-80940000D03*
%TD*%
D17*
%TO.C,J4*%
X102000000Y-109000000D03*
D18*
X102000000Y-111540000D03*
X102000000Y-114080000D03*
X102000000Y-116620000D03*
X102000000Y-119160000D03*
X102000000Y-121700000D03*
X102000000Y-124240000D03*
X102000000Y-126780000D03*
X102000000Y-129320000D03*
X102000000Y-131860000D03*
X102000000Y-134400000D03*
X102000000Y-136940000D03*
X102000000Y-139480000D03*
X102000000Y-142020000D03*
X102000000Y-144560000D03*
X102000000Y-147100000D03*
%TD*%
D17*
%TO.C,J2*%
X102000000Y-53000000D03*
D18*
X102000000Y-55540000D03*
X102000000Y-58080000D03*
X102000000Y-60620000D03*
X102000000Y-63160000D03*
X102000000Y-65700000D03*
X102000000Y-68240000D03*
X102000000Y-70780000D03*
X102000000Y-73320000D03*
X102000000Y-75860000D03*
X102000000Y-78400000D03*
X102000000Y-80940000D03*
%TD*%
M02*
