M48
; DRILL file {KiCad 8.0.3} date 2024-06-18T16:29:30+0100
; FORMAT={-:-/ absolute / inch / decimal}
; #@! TF.CreationDate,2024-06-18T16:29:30+01:00
; #@! TF.GenerationSoftware,Kicad,Pcbnew,8.0.3
; #@! TF.FileFunction,NonPlated,1,2,NPTH
FMAT,2
INCH
; #@! TA.AperFunction,NonPlated,NPTH,ComponentDrill
T1C0.0591
; #@! TA.AperFunction,NonPlated,NPTH,ComponentDrill
T2C0.0787
; #@! TA.AperFunction,NonPlated,NPTH,ComponentDrill
T3C0.0984
%
G90
G05
T2
X5.7126Y-2.4685
X5.7126Y-3.2165
X5.7126Y-4.0433
X5.7126Y-4.7913
X6.0591Y-2.4685
X6.0591Y-3.2165
X6.0591Y-4.0433
X6.0591Y-4.7913
T3
X4.2441Y-5.5118
X4.2441Y-6.0433
X4.6811Y-5.5118
X4.6811Y-6.0433
X5.1181Y-5.5118
X5.1181Y-6.0433
X5.5787Y-5.5118
X5.5787Y-6.0433
X5.9921Y-5.5118
X5.9921Y-6.0433
T1
G00X4.1181Y-2.498
M15
G01X4.1181Y-2.439
M16
G05
G00X4.1181Y-3.4823
M15
G01X4.1181Y-3.4232
M16
G05
G00X4.1181Y-4.4665
M15
G01X4.1181Y-4.4075
M16
G05
G00X4.5827Y-2.498
M15
G01X4.5827Y-2.439
M16
G05
G00X4.5827Y-3.4823
M15
G01X4.5827Y-3.4232
M16
G05
G00X4.5827Y-4.4665
M15
G01X4.5827Y-4.4075
M16
G05
G00X4.9094Y-2.7579
M15
G01X4.9094Y-2.6988
M16
G05
G00X4.9094Y-3.7421
M15
G01X4.9094Y-3.6831
M16
G05
G00X4.9094Y-4.7264
M15
G01X4.9094Y-4.6673
M16
G05
G00X5.374Y-2.7579
M15
G01X5.374Y-2.6988
M16
G05
G00X5.374Y-3.7421
M15
G01X5.374Y-3.6831
M16
G05
G00X5.374Y-4.7264
M15
G01X5.374Y-4.6673
M16
G05
M30
