M48
; DRILL file {KiCad 8.0.3} date 2024-06-18T16:49:21+0100
; FORMAT={-:-/ absolute / inch / decimal}
; #@! TF.CreationDate,2024-06-18T16:49:21+01:00
; #@! TF.GenerationSoftware,Kicad,Pcbnew,8.0.3
; #@! TF.FileFunction,NonPlated,1,2,NPTH
FMAT,2
INCH
; #@! TA.AperFunction,NonPlated,NPTH,ComponentDrill
T1C0.1260
; #@! TA.AperFunction,NonPlated,NPTH,ComponentDrill
T2C0.2362
; #@! TA.AperFunction,NonPlated,NPTH,ComponentDrill
T3C0.2520
; #@! TA.AperFunction,NonPlated,NPTH,ComponentDrill
T4C0.2756
%
G90
G05
T2
X4.2441Y-5.5118
X4.2441Y-6.0433
X4.6811Y-5.5118
X4.6811Y-6.0433
X5.1181Y-5.5118
X5.1181Y-6.0433
X5.5787Y-5.5118
X5.5787Y-6.0433
X5.9921Y-5.5118
X5.9921Y-6.0433
T3
X5.8858Y-3.1969
X5.8858Y-4.7717
T4
X4.3504Y-2.4488
X4.3504Y-3.4331
X4.3504Y-4.4173
X5.1417Y-2.7087
X5.1417Y-3.6929
X5.1417Y-4.6772
X5.8858Y-2.4488
X5.8858Y-4.0236
T1
G00X4.1811Y-1.7244
M15
G01X4.252Y-1.7244
M16
G05
G00X4.1811Y-6.5472
M15
G01X4.252Y-6.5472
M16
G05
G00X5.9843Y-6.5472
M15
G01X6.0551Y-6.5472
M16
G05
G00X5.9882Y-1.7244
M15
G01X6.0591Y-1.7244
M16
G05
M30
