%TF.GenerationSoftware,KiCad,Pcbnew,8.0.3*%
%TF.CreationDate,2024-07-07T12:45:29+01:00*%
%TF.ProjectId,Sinosaur_Panel,53696e6f-7361-4757-925f-50616e656c2e,rev?*%
%TF.SameCoordinates,Original*%
%TF.FileFunction,Soldermask,Top*%
%TF.FilePolarity,Negative*%
%FSLAX46Y46*%
G04 Gerber Fmt 4.6, Leading zero omitted, Abs format (unit mm)*
G04 Created by KiCad (PCBNEW 8.0.3) date 2024-07-07 12:45:29*
%MOMM*%
%LPD*%
G01*
G04 APERTURE LIST*
%ADD10C,0.500000*%
%ADD11C,2.000000*%
%ADD12C,7.853175*%
%ADD13C,0.100000*%
%ADD14C,2.074846*%
%ADD15C,4.075000*%
%ADD16C,0.400000*%
%ADD17C,0.200000*%
%ADD18C,0.000000*%
%ADD19C,7.000000*%
%ADD20C,6.000000*%
%ADD21O,5.000000X3.200000*%
%ADD22C,6.400000*%
G04 APERTURE END LIST*
D10*
X102900000Y-160600000D02*
X114600000Y-160600000D01*
D11*
X103800000Y-135778175D02*
X111800000Y-135778175D01*
X111800000Y-143778175D01*
X103800000Y-143778175D01*
X103800000Y-135778175D01*
G36*
X103800000Y-135778175D02*
G01*
X111800000Y-135778175D01*
X111800000Y-143778175D01*
X103800000Y-143778175D01*
X103800000Y-135778175D01*
G37*
D12*
X134526587Y-68778175D02*
G75*
G02*
X126673413Y-68778175I-3926587J0D01*
G01*
X126673413Y-68778175D02*
G75*
G02*
X134526587Y-68778175I3926587J0D01*
G01*
D11*
X149500000Y-81178175D02*
X149500000Y-62178175D01*
X110500000Y-87100000D02*
X130600000Y-93800000D01*
D13*
X120600000Y-103778175D02*
X118600000Y-101778175D01*
X122600000Y-101778175D01*
X120600000Y-103778175D01*
G36*
X120600000Y-103778175D02*
G01*
X118600000Y-101778175D01*
X122600000Y-101778175D01*
X120600000Y-103778175D01*
G37*
D14*
X150537423Y-113678175D02*
G75*
G02*
X148462577Y-113678175I-1037423J0D01*
G01*
X148462577Y-113678175D02*
G75*
G02*
X150537423Y-113678175I1037423J0D01*
G01*
D15*
X151537500Y-121178175D02*
G75*
G02*
X147462500Y-121178175I-2037500J0D01*
G01*
X147462500Y-121178175D02*
G75*
G02*
X151537500Y-121178175I2037500J0D01*
G01*
D13*
X120600000Y-78778175D02*
X118600000Y-76778175D01*
X122600000Y-76778175D01*
X120600000Y-78778175D01*
G36*
X120600000Y-78778175D02*
G01*
X118600000Y-76778175D01*
X122600000Y-76778175D01*
X120600000Y-78778175D01*
G37*
D11*
X114900000Y-149778175D02*
X122900000Y-149778175D01*
X122900000Y-157778175D01*
X114900000Y-157778175D01*
X114900000Y-149778175D01*
G36*
X114900000Y-149778175D02*
G01*
X122900000Y-149778175D01*
X122900000Y-157778175D01*
X114900000Y-157778175D01*
X114900000Y-149778175D01*
G37*
D12*
X114426587Y-87178175D02*
G75*
G02*
X106573413Y-87178175I-3926587J0D01*
G01*
X106573413Y-87178175D02*
G75*
G02*
X114426587Y-87178175I3926587J0D01*
G01*
X114426587Y-62178175D02*
G75*
G02*
X106573413Y-62178175I-3926587J0D01*
G01*
X106573413Y-62178175D02*
G75*
G02*
X114426587Y-62178175I3926587J0D01*
G01*
D11*
X103800000Y-149778175D02*
X111800000Y-149778175D01*
X111800000Y-157778175D01*
X103800000Y-157778175D01*
X103800000Y-149778175D01*
G36*
X103800000Y-149778175D02*
G01*
X111800000Y-149778175D01*
X111800000Y-157778175D01*
X103800000Y-157778175D01*
X103800000Y-149778175D01*
G37*
D14*
X150537423Y-73600000D02*
G75*
G02*
X148462577Y-73600000I-1037423J0D01*
G01*
X148462577Y-73600000D02*
G75*
G02*
X150537423Y-73600000I1037423J0D01*
G01*
D11*
X149500000Y-121178175D02*
X149500000Y-102178175D01*
X110500000Y-112200000D02*
X130600000Y-118800000D01*
D12*
X153426587Y-102178175D02*
G75*
G02*
X145573413Y-102178175I-3926587J0D01*
G01*
X145573413Y-102178175D02*
G75*
G02*
X153426587Y-102178175I3926587J0D01*
G01*
D11*
X126000000Y-135778175D02*
X134000000Y-135778175D01*
X134000000Y-143778175D01*
X126000000Y-143778175D01*
X126000000Y-135778175D01*
G36*
X126000000Y-135778175D02*
G01*
X134000000Y-135778175D01*
X134000000Y-143778175D01*
X126000000Y-143778175D01*
X126000000Y-135778175D01*
G37*
D13*
X130000000Y-52500000D02*
X120000000Y-51500000D01*
X140000000Y-51500000D01*
X130000000Y-52500000D01*
G36*
X130000000Y-52500000D02*
G01*
X120000000Y-51500000D01*
X140000000Y-51500000D01*
X130000000Y-52500000D01*
G37*
D12*
X134526587Y-93778175D02*
G75*
G02*
X126673413Y-93778175I-3926587J0D01*
G01*
X126673413Y-93778175D02*
G75*
G02*
X134526587Y-93778175I3926587J0D01*
G01*
D10*
X123100000Y-160600000D02*
X134700000Y-160600000D01*
D14*
X121537423Y-65600000D02*
G75*
G02*
X119462577Y-65600000I-1037423J0D01*
G01*
X119462577Y-65600000D02*
G75*
G02*
X121537423Y-65600000I1037423J0D01*
G01*
D15*
X151537500Y-81178175D02*
G75*
G02*
X147462500Y-81178175I-2037500J0D01*
G01*
X147462500Y-81178175D02*
G75*
G02*
X151537500Y-81178175I2037500J0D01*
G01*
D12*
X114426587Y-112178175D02*
G75*
G02*
X106573413Y-112178175I-3926587J0D01*
G01*
X106573413Y-112178175D02*
G75*
G02*
X114426587Y-112178175I3926587J0D01*
G01*
D11*
X126000000Y-149778175D02*
X134000000Y-149778175D01*
X134000000Y-157778175D01*
X126000000Y-157778175D01*
X126000000Y-149778175D01*
G36*
X126000000Y-149778175D02*
G01*
X134000000Y-149778175D01*
X134000000Y-157778175D01*
X126000000Y-157778175D01*
X126000000Y-149778175D01*
G37*
X137700000Y-149778175D02*
X156700000Y-149778175D01*
X156700000Y-157778175D01*
X137700000Y-157778175D01*
X137700000Y-149778175D01*
G36*
X137700000Y-149778175D02*
G01*
X156700000Y-149778175D01*
X156700000Y-157778175D01*
X137700000Y-157778175D01*
X137700000Y-149778175D01*
G37*
D14*
X121537423Y-115500000D02*
G75*
G02*
X119462577Y-115500000I-1037423J0D01*
G01*
X119462577Y-115500000D02*
G75*
G02*
X121537423Y-115500000I1037423J0D01*
G01*
D12*
X134526587Y-118778175D02*
G75*
G02*
X126673413Y-118778175I-3926587J0D01*
G01*
X126673413Y-118778175D02*
G75*
G02*
X134526587Y-118778175I3926587J0D01*
G01*
D14*
X121537423Y-90500000D02*
G75*
G02*
X119462577Y-90500000I-1037423J0D01*
G01*
X119462577Y-90500000D02*
G75*
G02*
X121537423Y-90500000I1037423J0D01*
G01*
D11*
X110500000Y-62178175D02*
X130721825Y-69178175D01*
D12*
X153426587Y-62178175D02*
G75*
G02*
X145573413Y-62178175I-3926587J0D01*
G01*
X145573413Y-62178175D02*
G75*
G02*
X153426587Y-62178175I3926587J0D01*
G01*
D11*
X114900000Y-135778175D02*
X122900000Y-135778175D01*
X122900000Y-143778175D01*
X114900000Y-143778175D01*
X114900000Y-135778175D01*
G36*
X114900000Y-135778175D02*
G01*
X122900000Y-135778175D01*
X122900000Y-143778175D01*
X114900000Y-143778175D01*
X114900000Y-135778175D01*
G37*
D16*
X119742857Y-74464994D02*
X119076190Y-74464994D01*
X119076190Y-75512613D02*
X119076190Y-73512613D01*
X119076190Y-73512613D02*
X120028571Y-73512613D01*
X120790476Y-75512613D02*
X120790476Y-73512613D01*
X120790476Y-73512613D02*
X121457143Y-74941184D01*
X121457143Y-74941184D02*
X122123809Y-73512613D01*
X122123809Y-73512613D02*
X122123809Y-75512613D01*
X127219047Y-84512613D02*
X126266666Y-84512613D01*
X126266666Y-84512613D02*
X126266666Y-82512613D01*
X128647619Y-84417375D02*
X128457143Y-84512613D01*
X128457143Y-84512613D02*
X128076190Y-84512613D01*
X128076190Y-84512613D02*
X127885714Y-84417375D01*
X127885714Y-84417375D02*
X127790476Y-84226898D01*
X127790476Y-84226898D02*
X127790476Y-83464994D01*
X127790476Y-83464994D02*
X127885714Y-83274517D01*
X127885714Y-83274517D02*
X128076190Y-83179279D01*
X128076190Y-83179279D02*
X128457143Y-83179279D01*
X128457143Y-83179279D02*
X128647619Y-83274517D01*
X128647619Y-83274517D02*
X128742857Y-83464994D01*
X128742857Y-83464994D02*
X128742857Y-83655470D01*
X128742857Y-83655470D02*
X127790476Y-83845946D01*
X129409524Y-83179279D02*
X129885714Y-84512613D01*
X129885714Y-84512613D02*
X130361905Y-83179279D01*
X131885715Y-84417375D02*
X131695239Y-84512613D01*
X131695239Y-84512613D02*
X131314286Y-84512613D01*
X131314286Y-84512613D02*
X131123810Y-84417375D01*
X131123810Y-84417375D02*
X131028572Y-84226898D01*
X131028572Y-84226898D02*
X131028572Y-83464994D01*
X131028572Y-83464994D02*
X131123810Y-83274517D01*
X131123810Y-83274517D02*
X131314286Y-83179279D01*
X131314286Y-83179279D02*
X131695239Y-83179279D01*
X131695239Y-83179279D02*
X131885715Y-83274517D01*
X131885715Y-83274517D02*
X131980953Y-83464994D01*
X131980953Y-83464994D02*
X131980953Y-83655470D01*
X131980953Y-83655470D02*
X131028572Y-83845946D01*
X133123810Y-84512613D02*
X132933334Y-84417375D01*
X132933334Y-84417375D02*
X132838096Y-84226898D01*
X132838096Y-84226898D02*
X132838096Y-82512613D01*
X150390476Y-132329676D02*
X150200000Y-132234438D01*
X150200000Y-132234438D02*
X149914286Y-132234438D01*
X149914286Y-132234438D02*
X149628571Y-132329676D01*
X149628571Y-132329676D02*
X149438095Y-132520152D01*
X149438095Y-132520152D02*
X149342857Y-132710628D01*
X149342857Y-132710628D02*
X149247619Y-133091580D01*
X149247619Y-133091580D02*
X149247619Y-133377295D01*
X149247619Y-133377295D02*
X149342857Y-133758247D01*
X149342857Y-133758247D02*
X149438095Y-133948723D01*
X149438095Y-133948723D02*
X149628571Y-134139200D01*
X149628571Y-134139200D02*
X149914286Y-134234438D01*
X149914286Y-134234438D02*
X150104762Y-134234438D01*
X150104762Y-134234438D02*
X150390476Y-134139200D01*
X150390476Y-134139200D02*
X150485714Y-134043961D01*
X150485714Y-134043961D02*
X150485714Y-133377295D01*
X150485714Y-133377295D02*
X150104762Y-133377295D01*
X152200000Y-134234438D02*
X152200000Y-133186819D01*
X152200000Y-133186819D02*
X152104762Y-132996342D01*
X152104762Y-132996342D02*
X151914286Y-132901104D01*
X151914286Y-132901104D02*
X151533333Y-132901104D01*
X151533333Y-132901104D02*
X151342857Y-132996342D01*
X152200000Y-134139200D02*
X152009524Y-134234438D01*
X152009524Y-134234438D02*
X151533333Y-134234438D01*
X151533333Y-134234438D02*
X151342857Y-134139200D01*
X151342857Y-134139200D02*
X151247619Y-133948723D01*
X151247619Y-133948723D02*
X151247619Y-133758247D01*
X151247619Y-133758247D02*
X151342857Y-133567771D01*
X151342857Y-133567771D02*
X151533333Y-133472533D01*
X151533333Y-133472533D02*
X152009524Y-133472533D01*
X152009524Y-133472533D02*
X152200000Y-133377295D01*
X152866667Y-132901104D02*
X153628571Y-132901104D01*
X153152381Y-132234438D02*
X153152381Y-133948723D01*
X153152381Y-133948723D02*
X153247619Y-134139200D01*
X153247619Y-134139200D02*
X153438095Y-134234438D01*
X153438095Y-134234438D02*
X153628571Y-134234438D01*
X155057143Y-134139200D02*
X154866667Y-134234438D01*
X154866667Y-134234438D02*
X154485714Y-134234438D01*
X154485714Y-134234438D02*
X154295238Y-134139200D01*
X154295238Y-134139200D02*
X154200000Y-133948723D01*
X154200000Y-133948723D02*
X154200000Y-133186819D01*
X154200000Y-133186819D02*
X154295238Y-132996342D01*
X154295238Y-132996342D02*
X154485714Y-132901104D01*
X154485714Y-132901104D02*
X154866667Y-132901104D01*
X154866667Y-132901104D02*
X155057143Y-132996342D01*
X155057143Y-132996342D02*
X155152381Y-133186819D01*
X155152381Y-133186819D02*
X155152381Y-133377295D01*
X155152381Y-133377295D02*
X154200000Y-133567771D01*
X119742857Y-99464994D02*
X119076190Y-99464994D01*
X119076190Y-100512613D02*
X119076190Y-98512613D01*
X119076190Y-98512613D02*
X120028571Y-98512613D01*
X120790476Y-100512613D02*
X120790476Y-98512613D01*
X120790476Y-98512613D02*
X121457143Y-99941184D01*
X121457143Y-99941184D02*
X122123809Y-98512613D01*
X122123809Y-98512613D02*
X122123809Y-100512613D01*
X116090476Y-161417375D02*
X116376190Y-161512613D01*
X116376190Y-161512613D02*
X116852381Y-161512613D01*
X116852381Y-161512613D02*
X117042857Y-161417375D01*
X117042857Y-161417375D02*
X117138095Y-161322136D01*
X117138095Y-161322136D02*
X117233333Y-161131660D01*
X117233333Y-161131660D02*
X117233333Y-160941184D01*
X117233333Y-160941184D02*
X117138095Y-160750708D01*
X117138095Y-160750708D02*
X117042857Y-160655470D01*
X117042857Y-160655470D02*
X116852381Y-160560232D01*
X116852381Y-160560232D02*
X116471428Y-160464994D01*
X116471428Y-160464994D02*
X116280952Y-160369755D01*
X116280952Y-160369755D02*
X116185714Y-160274517D01*
X116185714Y-160274517D02*
X116090476Y-160084041D01*
X116090476Y-160084041D02*
X116090476Y-159893565D01*
X116090476Y-159893565D02*
X116185714Y-159703089D01*
X116185714Y-159703089D02*
X116280952Y-159607851D01*
X116280952Y-159607851D02*
X116471428Y-159512613D01*
X116471428Y-159512613D02*
X116947619Y-159512613D01*
X116947619Y-159512613D02*
X117233333Y-159607851D01*
X118090476Y-161512613D02*
X118090476Y-160179279D01*
X118090476Y-159512613D02*
X117995238Y-159607851D01*
X117995238Y-159607851D02*
X118090476Y-159703089D01*
X118090476Y-159703089D02*
X118185714Y-159607851D01*
X118185714Y-159607851D02*
X118090476Y-159512613D01*
X118090476Y-159512613D02*
X118090476Y-159703089D01*
X119042857Y-160179279D02*
X119042857Y-161512613D01*
X119042857Y-160369755D02*
X119138095Y-160274517D01*
X119138095Y-160274517D02*
X119328571Y-160179279D01*
X119328571Y-160179279D02*
X119614286Y-160179279D01*
X119614286Y-160179279D02*
X119804762Y-160274517D01*
X119804762Y-160274517D02*
X119900000Y-160464994D01*
X119900000Y-160464994D02*
X119900000Y-161512613D01*
X121614286Y-161417375D02*
X121423810Y-161512613D01*
X121423810Y-161512613D02*
X121042857Y-161512613D01*
X121042857Y-161512613D02*
X120852381Y-161417375D01*
X120852381Y-161417375D02*
X120757143Y-161226898D01*
X120757143Y-161226898D02*
X120757143Y-160464994D01*
X120757143Y-160464994D02*
X120852381Y-160274517D01*
X120852381Y-160274517D02*
X121042857Y-160179279D01*
X121042857Y-160179279D02*
X121423810Y-160179279D01*
X121423810Y-160179279D02*
X121614286Y-160274517D01*
X121614286Y-160274517D02*
X121709524Y-160464994D01*
X121709524Y-160464994D02*
X121709524Y-160655470D01*
X121709524Y-160655470D02*
X120757143Y-160845946D01*
D17*
X120428570Y-165683528D02*
X120428570Y-164183528D01*
X120428570Y-164183528D02*
X120928570Y-165254957D01*
X120928570Y-165254957D02*
X121428570Y-164183528D01*
X121428570Y-164183528D02*
X121428570Y-165683528D01*
X122357142Y-165683528D02*
X122214285Y-165612100D01*
X122214285Y-165612100D02*
X122142856Y-165540671D01*
X122142856Y-165540671D02*
X122071428Y-165397814D01*
X122071428Y-165397814D02*
X122071428Y-164969242D01*
X122071428Y-164969242D02*
X122142856Y-164826385D01*
X122142856Y-164826385D02*
X122214285Y-164754957D01*
X122214285Y-164754957D02*
X122357142Y-164683528D01*
X122357142Y-164683528D02*
X122571428Y-164683528D01*
X122571428Y-164683528D02*
X122714285Y-164754957D01*
X122714285Y-164754957D02*
X122785714Y-164826385D01*
X122785714Y-164826385D02*
X122857142Y-164969242D01*
X122857142Y-164969242D02*
X122857142Y-165397814D01*
X122857142Y-165397814D02*
X122785714Y-165540671D01*
X122785714Y-165540671D02*
X122714285Y-165612100D01*
X122714285Y-165612100D02*
X122571428Y-165683528D01*
X122571428Y-165683528D02*
X122357142Y-165683528D01*
X124142857Y-164683528D02*
X124142857Y-165683528D01*
X123499999Y-164683528D02*
X123499999Y-165469242D01*
X123499999Y-165469242D02*
X123571428Y-165612100D01*
X123571428Y-165612100D02*
X123714285Y-165683528D01*
X123714285Y-165683528D02*
X123928571Y-165683528D01*
X123928571Y-165683528D02*
X124071428Y-165612100D01*
X124071428Y-165612100D02*
X124142857Y-165540671D01*
X124857142Y-164683528D02*
X124857142Y-165683528D01*
X124857142Y-164826385D02*
X124928571Y-164754957D01*
X124928571Y-164754957D02*
X125071428Y-164683528D01*
X125071428Y-164683528D02*
X125285714Y-164683528D01*
X125285714Y-164683528D02*
X125428571Y-164754957D01*
X125428571Y-164754957D02*
X125500000Y-164897814D01*
X125500000Y-164897814D02*
X125500000Y-165683528D01*
X126000000Y-164683528D02*
X126571428Y-164683528D01*
X126214285Y-164183528D02*
X126214285Y-165469242D01*
X126214285Y-165469242D02*
X126285714Y-165612100D01*
X126285714Y-165612100D02*
X126428571Y-165683528D01*
X126428571Y-165683528D02*
X126571428Y-165683528D01*
X127071428Y-164683528D02*
X127071428Y-165969242D01*
X127071428Y-165969242D02*
X127000000Y-166112100D01*
X127000000Y-166112100D02*
X126857143Y-166183528D01*
X126857143Y-166183528D02*
X126785714Y-166183528D01*
X127071428Y-164183528D02*
X127000000Y-164254957D01*
X127000000Y-164254957D02*
X127071428Y-164326385D01*
X127071428Y-164326385D02*
X127142857Y-164254957D01*
X127142857Y-164254957D02*
X127071428Y-164183528D01*
X127071428Y-164183528D02*
X127071428Y-164326385D01*
X128000000Y-165683528D02*
X127857143Y-165612100D01*
X127857143Y-165612100D02*
X127785714Y-165540671D01*
X127785714Y-165540671D02*
X127714286Y-165397814D01*
X127714286Y-165397814D02*
X127714286Y-164969242D01*
X127714286Y-164969242D02*
X127785714Y-164826385D01*
X127785714Y-164826385D02*
X127857143Y-164754957D01*
X127857143Y-164754957D02*
X128000000Y-164683528D01*
X128000000Y-164683528D02*
X128214286Y-164683528D01*
X128214286Y-164683528D02*
X128357143Y-164754957D01*
X128357143Y-164754957D02*
X128428572Y-164826385D01*
X128428572Y-164826385D02*
X128500000Y-164969242D01*
X128500000Y-164969242D02*
X128500000Y-165397814D01*
X128500000Y-165397814D02*
X128428572Y-165540671D01*
X128428572Y-165540671D02*
X128357143Y-165612100D01*
X128357143Y-165612100D02*
X128214286Y-165683528D01*
X128214286Y-165683528D02*
X128000000Y-165683528D01*
X129000000Y-164683528D02*
X129357143Y-165683528D01*
X129714286Y-164683528D02*
X129357143Y-165683528D01*
X129357143Y-165683528D02*
X129214286Y-166040671D01*
X129214286Y-166040671D02*
X129142857Y-166112100D01*
X129142857Y-166112100D02*
X129000000Y-166183528D01*
X131428571Y-165683528D02*
X131428571Y-164183528D01*
X131428571Y-164183528D02*
X131928571Y-165254957D01*
X131928571Y-165254957D02*
X132428571Y-164183528D01*
X132428571Y-164183528D02*
X132428571Y-165683528D01*
X133357143Y-165683528D02*
X133214286Y-165612100D01*
X133214286Y-165612100D02*
X133142857Y-165540671D01*
X133142857Y-165540671D02*
X133071429Y-165397814D01*
X133071429Y-165397814D02*
X133071429Y-164969242D01*
X133071429Y-164969242D02*
X133142857Y-164826385D01*
X133142857Y-164826385D02*
X133214286Y-164754957D01*
X133214286Y-164754957D02*
X133357143Y-164683528D01*
X133357143Y-164683528D02*
X133571429Y-164683528D01*
X133571429Y-164683528D02*
X133714286Y-164754957D01*
X133714286Y-164754957D02*
X133785715Y-164826385D01*
X133785715Y-164826385D02*
X133857143Y-164969242D01*
X133857143Y-164969242D02*
X133857143Y-165397814D01*
X133857143Y-165397814D02*
X133785715Y-165540671D01*
X133785715Y-165540671D02*
X133714286Y-165612100D01*
X133714286Y-165612100D02*
X133571429Y-165683528D01*
X133571429Y-165683528D02*
X133357143Y-165683528D01*
X135142858Y-165683528D02*
X135142858Y-164183528D01*
X135142858Y-165612100D02*
X135000000Y-165683528D01*
X135000000Y-165683528D02*
X134714286Y-165683528D01*
X134714286Y-165683528D02*
X134571429Y-165612100D01*
X134571429Y-165612100D02*
X134500000Y-165540671D01*
X134500000Y-165540671D02*
X134428572Y-165397814D01*
X134428572Y-165397814D02*
X134428572Y-164969242D01*
X134428572Y-164969242D02*
X134500000Y-164826385D01*
X134500000Y-164826385D02*
X134571429Y-164754957D01*
X134571429Y-164754957D02*
X134714286Y-164683528D01*
X134714286Y-164683528D02*
X135000000Y-164683528D01*
X135000000Y-164683528D02*
X135142858Y-164754957D01*
X136500001Y-164683528D02*
X136500001Y-165683528D01*
X135857143Y-164683528D02*
X135857143Y-165469242D01*
X135857143Y-165469242D02*
X135928572Y-165612100D01*
X135928572Y-165612100D02*
X136071429Y-165683528D01*
X136071429Y-165683528D02*
X136285715Y-165683528D01*
X136285715Y-165683528D02*
X136428572Y-165612100D01*
X136428572Y-165612100D02*
X136500001Y-165540671D01*
X137428572Y-165683528D02*
X137285715Y-165612100D01*
X137285715Y-165612100D02*
X137214286Y-165469242D01*
X137214286Y-165469242D02*
X137214286Y-164183528D01*
X138642858Y-165683528D02*
X138642858Y-164897814D01*
X138642858Y-164897814D02*
X138571429Y-164754957D01*
X138571429Y-164754957D02*
X138428572Y-164683528D01*
X138428572Y-164683528D02*
X138142858Y-164683528D01*
X138142858Y-164683528D02*
X138000000Y-164754957D01*
X138642858Y-165612100D02*
X138500000Y-165683528D01*
X138500000Y-165683528D02*
X138142858Y-165683528D01*
X138142858Y-165683528D02*
X138000000Y-165612100D01*
X138000000Y-165612100D02*
X137928572Y-165469242D01*
X137928572Y-165469242D02*
X137928572Y-165326385D01*
X137928572Y-165326385D02*
X138000000Y-165183528D01*
X138000000Y-165183528D02*
X138142858Y-165112100D01*
X138142858Y-165112100D02*
X138500000Y-165112100D01*
X138500000Y-165112100D02*
X138642858Y-165040671D01*
X139357143Y-165683528D02*
X139357143Y-164683528D01*
X139357143Y-164969242D02*
X139428572Y-164826385D01*
X139428572Y-164826385D02*
X139500001Y-164754957D01*
X139500001Y-164754957D02*
X139642858Y-164683528D01*
X139642858Y-164683528D02*
X139785715Y-164683528D01*
D16*
X139223809Y-134043961D02*
X139128571Y-134139200D01*
X139128571Y-134139200D02*
X138842857Y-134234438D01*
X138842857Y-134234438D02*
X138652381Y-134234438D01*
X138652381Y-134234438D02*
X138366666Y-134139200D01*
X138366666Y-134139200D02*
X138176190Y-133948723D01*
X138176190Y-133948723D02*
X138080952Y-133758247D01*
X138080952Y-133758247D02*
X137985714Y-133377295D01*
X137985714Y-133377295D02*
X137985714Y-133091580D01*
X137985714Y-133091580D02*
X138080952Y-132710628D01*
X138080952Y-132710628D02*
X138176190Y-132520152D01*
X138176190Y-132520152D02*
X138366666Y-132329676D01*
X138366666Y-132329676D02*
X138652381Y-132234438D01*
X138652381Y-132234438D02*
X138842857Y-132234438D01*
X138842857Y-132234438D02*
X139128571Y-132329676D01*
X139128571Y-132329676D02*
X139223809Y-132424914D01*
X140366666Y-134234438D02*
X140176190Y-134139200D01*
X140176190Y-134139200D02*
X140080952Y-133948723D01*
X140080952Y-133948723D02*
X140080952Y-132234438D01*
X141414285Y-134234438D02*
X141223809Y-134139200D01*
X141223809Y-134139200D02*
X141128571Y-134043961D01*
X141128571Y-134043961D02*
X141033333Y-133853485D01*
X141033333Y-133853485D02*
X141033333Y-133282057D01*
X141033333Y-133282057D02*
X141128571Y-133091580D01*
X141128571Y-133091580D02*
X141223809Y-132996342D01*
X141223809Y-132996342D02*
X141414285Y-132901104D01*
X141414285Y-132901104D02*
X141700000Y-132901104D01*
X141700000Y-132901104D02*
X141890476Y-132996342D01*
X141890476Y-132996342D02*
X141985714Y-133091580D01*
X141985714Y-133091580D02*
X142080952Y-133282057D01*
X142080952Y-133282057D02*
X142080952Y-133853485D01*
X142080952Y-133853485D02*
X141985714Y-134043961D01*
X141985714Y-134043961D02*
X141890476Y-134139200D01*
X141890476Y-134139200D02*
X141700000Y-134234438D01*
X141700000Y-134234438D02*
X141414285Y-134234438D01*
X143795238Y-134139200D02*
X143604762Y-134234438D01*
X143604762Y-134234438D02*
X143223809Y-134234438D01*
X143223809Y-134234438D02*
X143033333Y-134139200D01*
X143033333Y-134139200D02*
X142938095Y-134043961D01*
X142938095Y-134043961D02*
X142842857Y-133853485D01*
X142842857Y-133853485D02*
X142842857Y-133282057D01*
X142842857Y-133282057D02*
X142938095Y-133091580D01*
X142938095Y-133091580D02*
X143033333Y-132996342D01*
X143033333Y-132996342D02*
X143223809Y-132901104D01*
X143223809Y-132901104D02*
X143604762Y-132901104D01*
X143604762Y-132901104D02*
X143795238Y-132996342D01*
X144652381Y-134234438D02*
X144652381Y-132234438D01*
X144842857Y-133472533D02*
X145414286Y-134234438D01*
X145414286Y-132901104D02*
X144652381Y-133663009D01*
X158234438Y-83559127D02*
X158234438Y-84511508D01*
X158234438Y-84511508D02*
X156234438Y-84511508D01*
X158139200Y-82130555D02*
X158234438Y-82321031D01*
X158234438Y-82321031D02*
X158234438Y-82701984D01*
X158234438Y-82701984D02*
X158139200Y-82892460D01*
X158139200Y-82892460D02*
X157948723Y-82987698D01*
X157948723Y-82987698D02*
X157186819Y-82987698D01*
X157186819Y-82987698D02*
X156996342Y-82892460D01*
X156996342Y-82892460D02*
X156901104Y-82701984D01*
X156901104Y-82701984D02*
X156901104Y-82321031D01*
X156901104Y-82321031D02*
X156996342Y-82130555D01*
X156996342Y-82130555D02*
X157186819Y-82035317D01*
X157186819Y-82035317D02*
X157377295Y-82035317D01*
X157377295Y-82035317D02*
X157567771Y-82987698D01*
X156901104Y-81368650D02*
X158234438Y-80892460D01*
X158234438Y-80892460D02*
X156901104Y-80416269D01*
X158139200Y-78892459D02*
X158234438Y-79082935D01*
X158234438Y-79082935D02*
X158234438Y-79463888D01*
X158234438Y-79463888D02*
X158139200Y-79654364D01*
X158139200Y-79654364D02*
X157948723Y-79749602D01*
X157948723Y-79749602D02*
X157186819Y-79749602D01*
X157186819Y-79749602D02*
X156996342Y-79654364D01*
X156996342Y-79654364D02*
X156901104Y-79463888D01*
X156901104Y-79463888D02*
X156901104Y-79082935D01*
X156901104Y-79082935D02*
X156996342Y-78892459D01*
X156996342Y-78892459D02*
X157186819Y-78797221D01*
X157186819Y-78797221D02*
X157377295Y-78797221D01*
X157377295Y-78797221D02*
X157567771Y-79749602D01*
X158234438Y-77654364D02*
X158139200Y-77844840D01*
X158139200Y-77844840D02*
X157948723Y-77940078D01*
X157948723Y-77940078D02*
X156234438Y-77940078D01*
X108561904Y-131512613D02*
X107038095Y-133512613D01*
X107609523Y-133512613D02*
X107419047Y-133417375D01*
X107419047Y-133417375D02*
X107228571Y-133226898D01*
X107228571Y-133226898D02*
X107133333Y-132845946D01*
X107133333Y-132845946D02*
X107133333Y-132179279D01*
X107133333Y-132179279D02*
X107228571Y-131798327D01*
X107228571Y-131798327D02*
X107419047Y-131607851D01*
X107419047Y-131607851D02*
X107609523Y-131512613D01*
X107609523Y-131512613D02*
X107990476Y-131512613D01*
X107990476Y-131512613D02*
X108180952Y-131607851D01*
X108180952Y-131607851D02*
X108371428Y-131798327D01*
X108371428Y-131798327D02*
X108466666Y-132179279D01*
X108466666Y-132179279D02*
X108466666Y-132845946D01*
X108466666Y-132845946D02*
X108371428Y-133226898D01*
X108371428Y-133226898D02*
X108180952Y-133417375D01*
X108180952Y-133417375D02*
X107990476Y-133512613D01*
X107990476Y-133512613D02*
X107609523Y-133512613D01*
X148676190Y-161417375D02*
X148961904Y-161512613D01*
X148961904Y-161512613D02*
X149438095Y-161512613D01*
X149438095Y-161512613D02*
X149628571Y-161417375D01*
X149628571Y-161417375D02*
X149723809Y-161322136D01*
X149723809Y-161322136D02*
X149819047Y-161131660D01*
X149819047Y-161131660D02*
X149819047Y-160941184D01*
X149819047Y-160941184D02*
X149723809Y-160750708D01*
X149723809Y-160750708D02*
X149628571Y-160655470D01*
X149628571Y-160655470D02*
X149438095Y-160560232D01*
X149438095Y-160560232D02*
X149057142Y-160464994D01*
X149057142Y-160464994D02*
X148866666Y-160369755D01*
X148866666Y-160369755D02*
X148771428Y-160274517D01*
X148771428Y-160274517D02*
X148676190Y-160084041D01*
X148676190Y-160084041D02*
X148676190Y-159893565D01*
X148676190Y-159893565D02*
X148771428Y-159703089D01*
X148771428Y-159703089D02*
X148866666Y-159607851D01*
X148866666Y-159607851D02*
X149057142Y-159512613D01*
X149057142Y-159512613D02*
X149533333Y-159512613D01*
X149533333Y-159512613D02*
X149819047Y-159607851D01*
X150485714Y-160179279D02*
X150866666Y-161512613D01*
X150866666Y-161512613D02*
X151247619Y-160560232D01*
X151247619Y-160560232D02*
X151628571Y-161512613D01*
X151628571Y-161512613D02*
X152009523Y-160179279D01*
X153533333Y-161417375D02*
X153342857Y-161512613D01*
X153342857Y-161512613D02*
X152961904Y-161512613D01*
X152961904Y-161512613D02*
X152771428Y-161417375D01*
X152771428Y-161417375D02*
X152676190Y-161226898D01*
X152676190Y-161226898D02*
X152676190Y-160464994D01*
X152676190Y-160464994D02*
X152771428Y-160274517D01*
X152771428Y-160274517D02*
X152961904Y-160179279D01*
X152961904Y-160179279D02*
X153342857Y-160179279D01*
X153342857Y-160179279D02*
X153533333Y-160274517D01*
X153533333Y-160274517D02*
X153628571Y-160464994D01*
X153628571Y-160464994D02*
X153628571Y-160655470D01*
X153628571Y-160655470D02*
X152676190Y-160845946D01*
X154771428Y-161512613D02*
X154580952Y-161417375D01*
X154580952Y-161417375D02*
X154485714Y-161226898D01*
X154485714Y-161226898D02*
X154485714Y-159512613D01*
X155819047Y-161512613D02*
X155628571Y-161417375D01*
X155628571Y-161417375D02*
X155533333Y-161226898D01*
X155533333Y-161226898D02*
X155533333Y-159512613D01*
X146976190Y-52912613D02*
X146309523Y-51960232D01*
X145833333Y-52912613D02*
X145833333Y-50912613D01*
X145833333Y-50912613D02*
X146595238Y-50912613D01*
X146595238Y-50912613D02*
X146785714Y-51007851D01*
X146785714Y-51007851D02*
X146880952Y-51103089D01*
X146880952Y-51103089D02*
X146976190Y-51293565D01*
X146976190Y-51293565D02*
X146976190Y-51579279D01*
X146976190Y-51579279D02*
X146880952Y-51769755D01*
X146880952Y-51769755D02*
X146785714Y-51864994D01*
X146785714Y-51864994D02*
X146595238Y-51960232D01*
X146595238Y-51960232D02*
X145833333Y-51960232D01*
X148690476Y-52912613D02*
X148690476Y-51864994D01*
X148690476Y-51864994D02*
X148595238Y-51674517D01*
X148595238Y-51674517D02*
X148404762Y-51579279D01*
X148404762Y-51579279D02*
X148023809Y-51579279D01*
X148023809Y-51579279D02*
X147833333Y-51674517D01*
X148690476Y-52817375D02*
X148500000Y-52912613D01*
X148500000Y-52912613D02*
X148023809Y-52912613D01*
X148023809Y-52912613D02*
X147833333Y-52817375D01*
X147833333Y-52817375D02*
X147738095Y-52626898D01*
X147738095Y-52626898D02*
X147738095Y-52436422D01*
X147738095Y-52436422D02*
X147833333Y-52245946D01*
X147833333Y-52245946D02*
X148023809Y-52150708D01*
X148023809Y-52150708D02*
X148500000Y-52150708D01*
X148500000Y-52150708D02*
X148690476Y-52055470D01*
X149642857Y-52912613D02*
X149642857Y-51579279D01*
X149642857Y-51769755D02*
X149738095Y-51674517D01*
X149738095Y-51674517D02*
X149928571Y-51579279D01*
X149928571Y-51579279D02*
X150214286Y-51579279D01*
X150214286Y-51579279D02*
X150404762Y-51674517D01*
X150404762Y-51674517D02*
X150500000Y-51864994D01*
X150500000Y-51864994D02*
X150500000Y-52912613D01*
X150500000Y-51864994D02*
X150595238Y-51674517D01*
X150595238Y-51674517D02*
X150785714Y-51579279D01*
X150785714Y-51579279D02*
X151071428Y-51579279D01*
X151071428Y-51579279D02*
X151261905Y-51674517D01*
X151261905Y-51674517D02*
X151357143Y-51864994D01*
X151357143Y-51864994D02*
X151357143Y-52912613D01*
X152309524Y-51579279D02*
X152309524Y-53579279D01*
X152309524Y-51674517D02*
X152500000Y-51579279D01*
X152500000Y-51579279D02*
X152880953Y-51579279D01*
X152880953Y-51579279D02*
X153071429Y-51674517D01*
X153071429Y-51674517D02*
X153166667Y-51769755D01*
X153166667Y-51769755D02*
X153261905Y-51960232D01*
X153261905Y-51960232D02*
X153261905Y-52531660D01*
X153261905Y-52531660D02*
X153166667Y-52722136D01*
X153166667Y-52722136D02*
X153071429Y-52817375D01*
X153071429Y-52817375D02*
X152880953Y-52912613D01*
X152880953Y-52912613D02*
X152500000Y-52912613D01*
X152500000Y-52912613D02*
X152309524Y-52817375D01*
X109985714Y-77834438D02*
X109319047Y-76882057D01*
X108842857Y-77834438D02*
X108842857Y-75834438D01*
X108842857Y-75834438D02*
X109604762Y-75834438D01*
X109604762Y-75834438D02*
X109795238Y-75929676D01*
X109795238Y-75929676D02*
X109890476Y-76024914D01*
X109890476Y-76024914D02*
X109985714Y-76215390D01*
X109985714Y-76215390D02*
X109985714Y-76501104D01*
X109985714Y-76501104D02*
X109890476Y-76691580D01*
X109890476Y-76691580D02*
X109795238Y-76786819D01*
X109795238Y-76786819D02*
X109604762Y-76882057D01*
X109604762Y-76882057D02*
X108842857Y-76882057D01*
X111700000Y-77834438D02*
X111700000Y-76786819D01*
X111700000Y-76786819D02*
X111604762Y-76596342D01*
X111604762Y-76596342D02*
X111414286Y-76501104D01*
X111414286Y-76501104D02*
X111033333Y-76501104D01*
X111033333Y-76501104D02*
X110842857Y-76596342D01*
X111700000Y-77739200D02*
X111509524Y-77834438D01*
X111509524Y-77834438D02*
X111033333Y-77834438D01*
X111033333Y-77834438D02*
X110842857Y-77739200D01*
X110842857Y-77739200D02*
X110747619Y-77548723D01*
X110747619Y-77548723D02*
X110747619Y-77358247D01*
X110747619Y-77358247D02*
X110842857Y-77167771D01*
X110842857Y-77167771D02*
X111033333Y-77072533D01*
X111033333Y-77072533D02*
X111509524Y-77072533D01*
X111509524Y-77072533D02*
X111700000Y-76977295D01*
X112366667Y-76501104D02*
X113128571Y-76501104D01*
X112652381Y-75834438D02*
X112652381Y-77548723D01*
X112652381Y-77548723D02*
X112747619Y-77739200D01*
X112747619Y-77739200D02*
X112938095Y-77834438D01*
X112938095Y-77834438D02*
X113128571Y-77834438D01*
X114557143Y-77739200D02*
X114366667Y-77834438D01*
X114366667Y-77834438D02*
X113985714Y-77834438D01*
X113985714Y-77834438D02*
X113795238Y-77739200D01*
X113795238Y-77739200D02*
X113700000Y-77548723D01*
X113700000Y-77548723D02*
X113700000Y-76786819D01*
X113700000Y-76786819D02*
X113795238Y-76596342D01*
X113795238Y-76596342D02*
X113985714Y-76501104D01*
X113985714Y-76501104D02*
X114366667Y-76501104D01*
X114366667Y-76501104D02*
X114557143Y-76596342D01*
X114557143Y-76596342D02*
X114652381Y-76786819D01*
X114652381Y-76786819D02*
X114652381Y-76977295D01*
X114652381Y-76977295D02*
X113700000Y-77167771D01*
X123542857Y-132464994D02*
X122876190Y-132464994D01*
X122876190Y-133512613D02*
X122876190Y-131512613D01*
X122876190Y-131512613D02*
X123828571Y-131512613D01*
X124590476Y-133512613D02*
X124590476Y-131512613D01*
X124590476Y-131512613D02*
X125257143Y-132941184D01*
X125257143Y-132941184D02*
X125923809Y-131512613D01*
X125923809Y-131512613D02*
X125923809Y-133512613D01*
X127219047Y-59512613D02*
X126266666Y-59512613D01*
X126266666Y-59512613D02*
X126266666Y-57512613D01*
X128647619Y-59417375D02*
X128457143Y-59512613D01*
X128457143Y-59512613D02*
X128076190Y-59512613D01*
X128076190Y-59512613D02*
X127885714Y-59417375D01*
X127885714Y-59417375D02*
X127790476Y-59226898D01*
X127790476Y-59226898D02*
X127790476Y-58464994D01*
X127790476Y-58464994D02*
X127885714Y-58274517D01*
X127885714Y-58274517D02*
X128076190Y-58179279D01*
X128076190Y-58179279D02*
X128457143Y-58179279D01*
X128457143Y-58179279D02*
X128647619Y-58274517D01*
X128647619Y-58274517D02*
X128742857Y-58464994D01*
X128742857Y-58464994D02*
X128742857Y-58655470D01*
X128742857Y-58655470D02*
X127790476Y-58845946D01*
X129409524Y-58179279D02*
X129885714Y-59512613D01*
X129885714Y-59512613D02*
X130361905Y-58179279D01*
X131885715Y-59417375D02*
X131695239Y-59512613D01*
X131695239Y-59512613D02*
X131314286Y-59512613D01*
X131314286Y-59512613D02*
X131123810Y-59417375D01*
X131123810Y-59417375D02*
X131028572Y-59226898D01*
X131028572Y-59226898D02*
X131028572Y-58464994D01*
X131028572Y-58464994D02*
X131123810Y-58274517D01*
X131123810Y-58274517D02*
X131314286Y-58179279D01*
X131314286Y-58179279D02*
X131695239Y-58179279D01*
X131695239Y-58179279D02*
X131885715Y-58274517D01*
X131885715Y-58274517D02*
X131980953Y-58464994D01*
X131980953Y-58464994D02*
X131980953Y-58655470D01*
X131980953Y-58655470D02*
X131028572Y-58845946D01*
X133123810Y-59512613D02*
X132933334Y-59417375D01*
X132933334Y-59417375D02*
X132838096Y-59226898D01*
X132838096Y-59226898D02*
X132838096Y-57512613D01*
X109985714Y-53034438D02*
X109319047Y-52082057D01*
X108842857Y-53034438D02*
X108842857Y-51034438D01*
X108842857Y-51034438D02*
X109604762Y-51034438D01*
X109604762Y-51034438D02*
X109795238Y-51129676D01*
X109795238Y-51129676D02*
X109890476Y-51224914D01*
X109890476Y-51224914D02*
X109985714Y-51415390D01*
X109985714Y-51415390D02*
X109985714Y-51701104D01*
X109985714Y-51701104D02*
X109890476Y-51891580D01*
X109890476Y-51891580D02*
X109795238Y-51986819D01*
X109795238Y-51986819D02*
X109604762Y-52082057D01*
X109604762Y-52082057D02*
X108842857Y-52082057D01*
X111700000Y-53034438D02*
X111700000Y-51986819D01*
X111700000Y-51986819D02*
X111604762Y-51796342D01*
X111604762Y-51796342D02*
X111414286Y-51701104D01*
X111414286Y-51701104D02*
X111033333Y-51701104D01*
X111033333Y-51701104D02*
X110842857Y-51796342D01*
X111700000Y-52939200D02*
X111509524Y-53034438D01*
X111509524Y-53034438D02*
X111033333Y-53034438D01*
X111033333Y-53034438D02*
X110842857Y-52939200D01*
X110842857Y-52939200D02*
X110747619Y-52748723D01*
X110747619Y-52748723D02*
X110747619Y-52558247D01*
X110747619Y-52558247D02*
X110842857Y-52367771D01*
X110842857Y-52367771D02*
X111033333Y-52272533D01*
X111033333Y-52272533D02*
X111509524Y-52272533D01*
X111509524Y-52272533D02*
X111700000Y-52177295D01*
X112366667Y-51701104D02*
X113128571Y-51701104D01*
X112652381Y-51034438D02*
X112652381Y-52748723D01*
X112652381Y-52748723D02*
X112747619Y-52939200D01*
X112747619Y-52939200D02*
X112938095Y-53034438D01*
X112938095Y-53034438D02*
X113128571Y-53034438D01*
X114557143Y-52939200D02*
X114366667Y-53034438D01*
X114366667Y-53034438D02*
X113985714Y-53034438D01*
X113985714Y-53034438D02*
X113795238Y-52939200D01*
X113795238Y-52939200D02*
X113700000Y-52748723D01*
X113700000Y-52748723D02*
X113700000Y-51986819D01*
X113700000Y-51986819D02*
X113795238Y-51796342D01*
X113795238Y-51796342D02*
X113985714Y-51701104D01*
X113985714Y-51701104D02*
X114366667Y-51701104D01*
X114366667Y-51701104D02*
X114557143Y-51796342D01*
X114557143Y-51796342D02*
X114652381Y-51986819D01*
X114652381Y-51986819D02*
X114652381Y-52177295D01*
X114652381Y-52177295D02*
X113700000Y-52367771D01*
X158234438Y-123559127D02*
X158234438Y-124511508D01*
X158234438Y-124511508D02*
X156234438Y-124511508D01*
X158139200Y-122130555D02*
X158234438Y-122321031D01*
X158234438Y-122321031D02*
X158234438Y-122701984D01*
X158234438Y-122701984D02*
X158139200Y-122892460D01*
X158139200Y-122892460D02*
X157948723Y-122987698D01*
X157948723Y-122987698D02*
X157186819Y-122987698D01*
X157186819Y-122987698D02*
X156996342Y-122892460D01*
X156996342Y-122892460D02*
X156901104Y-122701984D01*
X156901104Y-122701984D02*
X156901104Y-122321031D01*
X156901104Y-122321031D02*
X156996342Y-122130555D01*
X156996342Y-122130555D02*
X157186819Y-122035317D01*
X157186819Y-122035317D02*
X157377295Y-122035317D01*
X157377295Y-122035317D02*
X157567771Y-122987698D01*
X156901104Y-121368650D02*
X158234438Y-120892460D01*
X158234438Y-120892460D02*
X156901104Y-120416269D01*
X158139200Y-118892459D02*
X158234438Y-119082935D01*
X158234438Y-119082935D02*
X158234438Y-119463888D01*
X158234438Y-119463888D02*
X158139200Y-119654364D01*
X158139200Y-119654364D02*
X157948723Y-119749602D01*
X157948723Y-119749602D02*
X157186819Y-119749602D01*
X157186819Y-119749602D02*
X156996342Y-119654364D01*
X156996342Y-119654364D02*
X156901104Y-119463888D01*
X156901104Y-119463888D02*
X156901104Y-119082935D01*
X156901104Y-119082935D02*
X156996342Y-118892459D01*
X156996342Y-118892459D02*
X157186819Y-118797221D01*
X157186819Y-118797221D02*
X157377295Y-118797221D01*
X157377295Y-118797221D02*
X157567771Y-119749602D01*
X158234438Y-117654364D02*
X158139200Y-117844840D01*
X158139200Y-117844840D02*
X157948723Y-117940078D01*
X157948723Y-117940078D02*
X156234438Y-117940078D01*
X109985714Y-102912613D02*
X109319047Y-101960232D01*
X108842857Y-102912613D02*
X108842857Y-100912613D01*
X108842857Y-100912613D02*
X109604762Y-100912613D01*
X109604762Y-100912613D02*
X109795238Y-101007851D01*
X109795238Y-101007851D02*
X109890476Y-101103089D01*
X109890476Y-101103089D02*
X109985714Y-101293565D01*
X109985714Y-101293565D02*
X109985714Y-101579279D01*
X109985714Y-101579279D02*
X109890476Y-101769755D01*
X109890476Y-101769755D02*
X109795238Y-101864994D01*
X109795238Y-101864994D02*
X109604762Y-101960232D01*
X109604762Y-101960232D02*
X108842857Y-101960232D01*
X111700000Y-102912613D02*
X111700000Y-101864994D01*
X111700000Y-101864994D02*
X111604762Y-101674517D01*
X111604762Y-101674517D02*
X111414286Y-101579279D01*
X111414286Y-101579279D02*
X111033333Y-101579279D01*
X111033333Y-101579279D02*
X110842857Y-101674517D01*
X111700000Y-102817375D02*
X111509524Y-102912613D01*
X111509524Y-102912613D02*
X111033333Y-102912613D01*
X111033333Y-102912613D02*
X110842857Y-102817375D01*
X110842857Y-102817375D02*
X110747619Y-102626898D01*
X110747619Y-102626898D02*
X110747619Y-102436422D01*
X110747619Y-102436422D02*
X110842857Y-102245946D01*
X110842857Y-102245946D02*
X111033333Y-102150708D01*
X111033333Y-102150708D02*
X111509524Y-102150708D01*
X111509524Y-102150708D02*
X111700000Y-102055470D01*
X112366667Y-101579279D02*
X113128571Y-101579279D01*
X112652381Y-100912613D02*
X112652381Y-102626898D01*
X112652381Y-102626898D02*
X112747619Y-102817375D01*
X112747619Y-102817375D02*
X112938095Y-102912613D01*
X112938095Y-102912613D02*
X113128571Y-102912613D01*
X114557143Y-102817375D02*
X114366667Y-102912613D01*
X114366667Y-102912613D02*
X113985714Y-102912613D01*
X113985714Y-102912613D02*
X113795238Y-102817375D01*
X113795238Y-102817375D02*
X113700000Y-102626898D01*
X113700000Y-102626898D02*
X113700000Y-101864994D01*
X113700000Y-101864994D02*
X113795238Y-101674517D01*
X113795238Y-101674517D02*
X113985714Y-101579279D01*
X113985714Y-101579279D02*
X114366667Y-101579279D01*
X114366667Y-101579279D02*
X114557143Y-101674517D01*
X114557143Y-101674517D02*
X114652381Y-101864994D01*
X114652381Y-101864994D02*
X114652381Y-102055470D01*
X114652381Y-102055470D02*
X113700000Y-102245946D01*
X127219047Y-109512613D02*
X126266666Y-109512613D01*
X126266666Y-109512613D02*
X126266666Y-107512613D01*
X128647619Y-109417375D02*
X128457143Y-109512613D01*
X128457143Y-109512613D02*
X128076190Y-109512613D01*
X128076190Y-109512613D02*
X127885714Y-109417375D01*
X127885714Y-109417375D02*
X127790476Y-109226898D01*
X127790476Y-109226898D02*
X127790476Y-108464994D01*
X127790476Y-108464994D02*
X127885714Y-108274517D01*
X127885714Y-108274517D02*
X128076190Y-108179279D01*
X128076190Y-108179279D02*
X128457143Y-108179279D01*
X128457143Y-108179279D02*
X128647619Y-108274517D01*
X128647619Y-108274517D02*
X128742857Y-108464994D01*
X128742857Y-108464994D02*
X128742857Y-108655470D01*
X128742857Y-108655470D02*
X127790476Y-108845946D01*
X129409524Y-108179279D02*
X129885714Y-109512613D01*
X129885714Y-109512613D02*
X130361905Y-108179279D01*
X131885715Y-109417375D02*
X131695239Y-109512613D01*
X131695239Y-109512613D02*
X131314286Y-109512613D01*
X131314286Y-109512613D02*
X131123810Y-109417375D01*
X131123810Y-109417375D02*
X131028572Y-109226898D01*
X131028572Y-109226898D02*
X131028572Y-108464994D01*
X131028572Y-108464994D02*
X131123810Y-108274517D01*
X131123810Y-108274517D02*
X131314286Y-108179279D01*
X131314286Y-108179279D02*
X131695239Y-108179279D01*
X131695239Y-108179279D02*
X131885715Y-108274517D01*
X131885715Y-108274517D02*
X131980953Y-108464994D01*
X131980953Y-108464994D02*
X131980953Y-108655470D01*
X131980953Y-108655470D02*
X131028572Y-108845946D01*
X133123810Y-109512613D02*
X132933334Y-109417375D01*
X132933334Y-109417375D02*
X132838096Y-109226898D01*
X132838096Y-109226898D02*
X132838096Y-107512613D01*
X139176190Y-161512613D02*
X138509523Y-160560232D01*
X138033333Y-161512613D02*
X138033333Y-159512613D01*
X138033333Y-159512613D02*
X138795238Y-159512613D01*
X138795238Y-159512613D02*
X138985714Y-159607851D01*
X138985714Y-159607851D02*
X139080952Y-159703089D01*
X139080952Y-159703089D02*
X139176190Y-159893565D01*
X139176190Y-159893565D02*
X139176190Y-160179279D01*
X139176190Y-160179279D02*
X139080952Y-160369755D01*
X139080952Y-160369755D02*
X138985714Y-160464994D01*
X138985714Y-160464994D02*
X138795238Y-160560232D01*
X138795238Y-160560232D02*
X138033333Y-160560232D01*
X140890476Y-161512613D02*
X140890476Y-160464994D01*
X140890476Y-160464994D02*
X140795238Y-160274517D01*
X140795238Y-160274517D02*
X140604762Y-160179279D01*
X140604762Y-160179279D02*
X140223809Y-160179279D01*
X140223809Y-160179279D02*
X140033333Y-160274517D01*
X140890476Y-161417375D02*
X140700000Y-161512613D01*
X140700000Y-161512613D02*
X140223809Y-161512613D01*
X140223809Y-161512613D02*
X140033333Y-161417375D01*
X140033333Y-161417375D02*
X139938095Y-161226898D01*
X139938095Y-161226898D02*
X139938095Y-161036422D01*
X139938095Y-161036422D02*
X140033333Y-160845946D01*
X140033333Y-160845946D02*
X140223809Y-160750708D01*
X140223809Y-160750708D02*
X140700000Y-160750708D01*
X140700000Y-160750708D02*
X140890476Y-160655470D01*
X141842857Y-161512613D02*
X141842857Y-160179279D01*
X141842857Y-160369755D02*
X141938095Y-160274517D01*
X141938095Y-160274517D02*
X142128571Y-160179279D01*
X142128571Y-160179279D02*
X142414286Y-160179279D01*
X142414286Y-160179279D02*
X142604762Y-160274517D01*
X142604762Y-160274517D02*
X142700000Y-160464994D01*
X142700000Y-160464994D02*
X142700000Y-161512613D01*
X142700000Y-160464994D02*
X142795238Y-160274517D01*
X142795238Y-160274517D02*
X142985714Y-160179279D01*
X142985714Y-160179279D02*
X143271428Y-160179279D01*
X143271428Y-160179279D02*
X143461905Y-160274517D01*
X143461905Y-160274517D02*
X143557143Y-160464994D01*
X143557143Y-160464994D02*
X143557143Y-161512613D01*
X144509524Y-160179279D02*
X144509524Y-162179279D01*
X144509524Y-160274517D02*
X144700000Y-160179279D01*
X144700000Y-160179279D02*
X145080953Y-160179279D01*
X145080953Y-160179279D02*
X145271429Y-160274517D01*
X145271429Y-160274517D02*
X145366667Y-160369755D01*
X145366667Y-160369755D02*
X145461905Y-160560232D01*
X145461905Y-160560232D02*
X145461905Y-161131660D01*
X145461905Y-161131660D02*
X145366667Y-161322136D01*
X145366667Y-161322136D02*
X145271429Y-161417375D01*
X145271429Y-161417375D02*
X145080953Y-161512613D01*
X145080953Y-161512613D02*
X144700000Y-161512613D01*
X144700000Y-161512613D02*
X144509524Y-161417375D01*
X145976190Y-92817375D02*
X146261904Y-92912613D01*
X146261904Y-92912613D02*
X146738095Y-92912613D01*
X146738095Y-92912613D02*
X146928571Y-92817375D01*
X146928571Y-92817375D02*
X147023809Y-92722136D01*
X147023809Y-92722136D02*
X147119047Y-92531660D01*
X147119047Y-92531660D02*
X147119047Y-92341184D01*
X147119047Y-92341184D02*
X147023809Y-92150708D01*
X147023809Y-92150708D02*
X146928571Y-92055470D01*
X146928571Y-92055470D02*
X146738095Y-91960232D01*
X146738095Y-91960232D02*
X146357142Y-91864994D01*
X146357142Y-91864994D02*
X146166666Y-91769755D01*
X146166666Y-91769755D02*
X146071428Y-91674517D01*
X146071428Y-91674517D02*
X145976190Y-91484041D01*
X145976190Y-91484041D02*
X145976190Y-91293565D01*
X145976190Y-91293565D02*
X146071428Y-91103089D01*
X146071428Y-91103089D02*
X146166666Y-91007851D01*
X146166666Y-91007851D02*
X146357142Y-90912613D01*
X146357142Y-90912613D02*
X146833333Y-90912613D01*
X146833333Y-90912613D02*
X147119047Y-91007851D01*
X147785714Y-91579279D02*
X148166666Y-92912613D01*
X148166666Y-92912613D02*
X148547619Y-91960232D01*
X148547619Y-91960232D02*
X148928571Y-92912613D01*
X148928571Y-92912613D02*
X149309523Y-91579279D01*
X150833333Y-92817375D02*
X150642857Y-92912613D01*
X150642857Y-92912613D02*
X150261904Y-92912613D01*
X150261904Y-92912613D02*
X150071428Y-92817375D01*
X150071428Y-92817375D02*
X149976190Y-92626898D01*
X149976190Y-92626898D02*
X149976190Y-91864994D01*
X149976190Y-91864994D02*
X150071428Y-91674517D01*
X150071428Y-91674517D02*
X150261904Y-91579279D01*
X150261904Y-91579279D02*
X150642857Y-91579279D01*
X150642857Y-91579279D02*
X150833333Y-91674517D01*
X150833333Y-91674517D02*
X150928571Y-91864994D01*
X150928571Y-91864994D02*
X150928571Y-92055470D01*
X150928571Y-92055470D02*
X149976190Y-92245946D01*
X152071428Y-92912613D02*
X151880952Y-92817375D01*
X151880952Y-92817375D02*
X151785714Y-92626898D01*
X151785714Y-92626898D02*
X151785714Y-90912613D01*
X153119047Y-92912613D02*
X152928571Y-92817375D01*
X152928571Y-92817375D02*
X152833333Y-92626898D01*
X152833333Y-92626898D02*
X152833333Y-90912613D01*
D18*
%TO.C,kibuzzard-666C29AC*%
G36*
X131669359Y-149014216D02*
G01*
X130996230Y-149014216D01*
X130035003Y-149014216D01*
X129340334Y-149014216D01*
X128330641Y-149014216D01*
X128330641Y-147867205D01*
X129340334Y-147867205D01*
X129465536Y-147911632D01*
X129641222Y-147956058D01*
X129839122Y-147990388D01*
X130035003Y-148004523D01*
X130268242Y-147989883D01*
X130467151Y-147945961D01*
X130632741Y-147875283D01*
X130766020Y-147780372D01*
X130939688Y-147527948D01*
X130996230Y-147208885D01*
X130969474Y-147005937D01*
X130889203Y-146833279D01*
X130760467Y-146694952D01*
X130588314Y-146594992D01*
X130814486Y-146384976D01*
X130899300Y-146098223D01*
X130850835Y-145819548D01*
X130701400Y-145595396D01*
X130444938Y-145447981D01*
X130275814Y-145408603D01*
X130079429Y-145395477D01*
X129864869Y-145414156D01*
X129673533Y-145470194D01*
X129384760Y-145617609D01*
X129562466Y-145981099D01*
X129802773Y-145865994D01*
X130083468Y-145819548D01*
X130311659Y-145898304D01*
X130394453Y-146114378D01*
X130356085Y-146267851D01*
X130257135Y-146364782D01*
X130119817Y-146417286D01*
X129966344Y-146433441D01*
X129780560Y-146433441D01*
X129780560Y-146845396D01*
X129934033Y-146845396D01*
X130155156Y-146865085D01*
X130333872Y-146924152D01*
X130452006Y-147032694D01*
X130491384Y-147200808D01*
X130388395Y-147471405D01*
X130247543Y-147553191D01*
X130030964Y-147580452D01*
X129839627Y-147569346D01*
X129677571Y-147536026D01*
X129437264Y-147451212D01*
X129340334Y-147867205D01*
X128330641Y-147867205D01*
X128330641Y-144385784D01*
X129340334Y-144385784D01*
X130996230Y-144385784D01*
X131669359Y-144385784D01*
X131669359Y-149014216D01*
G37*
%TO.C,kibuzzard-666C2AB0*%
G36*
X103676225Y-64123129D02*
G01*
X101993403Y-64123129D01*
X100333468Y-64123129D01*
X99323775Y-64123129D01*
X99323775Y-61471002D01*
X100333468Y-61471002D01*
X100495019Y-61882956D01*
X100741384Y-61784006D01*
X100999865Y-61640630D01*
X100999865Y-63038045D01*
X100474825Y-63038045D01*
X100474825Y-63450000D01*
X101993403Y-63450000D01*
X101993403Y-63038045D01*
X101496634Y-63038045D01*
X101496634Y-60950000D01*
X101157377Y-60950000D01*
X100983710Y-61107512D01*
X100769655Y-61252908D01*
X100543484Y-61378110D01*
X100333468Y-61471002D01*
X99323775Y-61471002D01*
X99323775Y-60276871D01*
X100333468Y-60276871D01*
X101993403Y-60276871D01*
X103676225Y-60276871D01*
X103676225Y-64123129D01*
G37*
%TO.C,kibuzzard-666C2AB5*%
G36*
X103692380Y-89151400D02*
G01*
X102009558Y-89151400D01*
X100317313Y-89151400D01*
X99307620Y-89151400D01*
X99307620Y-86252908D01*
X100317313Y-86252908D01*
X100563678Y-86600242D01*
X100818121Y-86410420D01*
X101064486Y-86353877D01*
X101298735Y-86436672D01*
X101391626Y-86672940D01*
X101316909Y-86886995D01*
X101127087Y-87105089D01*
X101007943Y-87220699D01*
X100880722Y-87341357D01*
X100753500Y-87469588D01*
X100634356Y-87607916D01*
X100529348Y-87757855D01*
X100444534Y-87920921D01*
X100388496Y-88098627D01*
X100369817Y-88292488D01*
X100367798Y-88377302D01*
X100377894Y-88478271D01*
X102009558Y-88478271D01*
X102009558Y-88066317D01*
X100935245Y-88066317D01*
X100977652Y-87933037D01*
X101080641Y-87789661D01*
X101209882Y-87652342D01*
X101331045Y-87537237D01*
X101537022Y-87335299D01*
X101718767Y-87117205D01*
X101848008Y-86884976D01*
X101896473Y-86636591D01*
X101831852Y-86323586D01*
X101658185Y-86099435D01*
X101407781Y-85966155D01*
X101112951Y-85921729D01*
X100902430Y-85941922D01*
X100690899Y-86002504D01*
X100491485Y-86105493D01*
X100317313Y-86252908D01*
X99307620Y-86252908D01*
X99307620Y-85248600D01*
X100317313Y-85248600D01*
X102009558Y-85248600D01*
X103692380Y-85248600D01*
X103692380Y-89151400D01*
G37*
%TO.C,G\u002A\u002A\u002A*%
G36*
X122350968Y-46650294D02*
G01*
X122317438Y-47286269D01*
X122291412Y-47947358D01*
X122276644Y-48529901D01*
X122274654Y-48757206D01*
X122274654Y-49616878D01*
X121519129Y-49616878D01*
X120763603Y-49616878D01*
X120705969Y-49236463D01*
X120681172Y-48984199D01*
X120652496Y-48551589D01*
X120622968Y-47992286D01*
X120595617Y-47359945D01*
X120587057Y-47129551D01*
X120525779Y-45403053D01*
X121476530Y-45403053D01*
X122427281Y-45403053D01*
X122350968Y-46650294D01*
G37*
G36*
X125922771Y-46485713D02*
G01*
X125894174Y-47135315D01*
X125854537Y-47854118D01*
X125811755Y-48500821D01*
X125805720Y-48580723D01*
X125727650Y-49592956D01*
X124791244Y-48892067D01*
X123854839Y-48191178D01*
X123750717Y-48904028D01*
X123688091Y-49295033D01*
X123621226Y-49508163D01*
X123513449Y-49597383D01*
X123328087Y-49616662D01*
X123266307Y-49616878D01*
X122886019Y-49616878D01*
X122810491Y-48065956D01*
X122776533Y-47429249D01*
X122739011Y-46824061D01*
X122702356Y-46316542D01*
X122670998Y-45972842D01*
X122669401Y-45959044D01*
X122603839Y-45403053D01*
X123293372Y-45403053D01*
X123696370Y-45415067D01*
X123963635Y-45477818D01*
X124193295Y-45631372D01*
X124440092Y-45871256D01*
X124708613Y-46128658D01*
X124918937Y-46298716D01*
X125000864Y-46339458D01*
X125047961Y-46237708D01*
X125041213Y-45982904D01*
X125025346Y-45871256D01*
X124946243Y-45403053D01*
X125453997Y-45402994D01*
X125961751Y-45402935D01*
X125922771Y-46485713D01*
G37*
G36*
X128357120Y-45290106D02*
G01*
X128890421Y-45452410D01*
X129353175Y-45776922D01*
X129677929Y-46224741D01*
X129835646Y-46730685D01*
X129891078Y-47350099D01*
X129846591Y-47987200D01*
X129704552Y-48546203D01*
X129615877Y-48735536D01*
X129217560Y-49247762D01*
X128725550Y-49584102D01*
X128181652Y-49731902D01*
X127627672Y-49678509D01*
X127187549Y-49470564D01*
X126747609Y-49039500D01*
X126438842Y-48462277D01*
X126273364Y-47794301D01*
X126272501Y-47734091D01*
X127574571Y-47734091D01*
X127598256Y-48141705D01*
X127707998Y-48509262D01*
X127784705Y-48632391D01*
X128017253Y-48785802D01*
X128259058Y-48707989D01*
X128413178Y-48537377D01*
X128542295Y-48227893D01*
X128590384Y-47847699D01*
X128554049Y-47497489D01*
X128454931Y-47299274D01*
X128182544Y-47167469D01*
X127880309Y-47206105D01*
X127654983Y-47400628D01*
X127650394Y-47408968D01*
X127574571Y-47734091D01*
X126272501Y-47734091D01*
X126263289Y-47090981D01*
X126420733Y-46407723D01*
X126484244Y-46254089D01*
X126816836Y-45772001D01*
X127272038Y-45450345D01*
X127801563Y-45289565D01*
X128357120Y-45290106D01*
G37*
G36*
X132221183Y-45323597D02*
G01*
X132488336Y-45461853D01*
X132634075Y-45738976D01*
X132688850Y-46193170D01*
X132692166Y-46402671D01*
X132684519Y-46807441D01*
X132653103Y-47022947D01*
X132585204Y-47093766D01*
X132499663Y-47077596D01*
X132273650Y-47102583D01*
X132153833Y-47213414D01*
X132072132Y-47384147D01*
X132100632Y-47587960D01*
X132229285Y-47871548D01*
X132434264Y-48441001D01*
X132435574Y-48919789D01*
X132243720Y-49288364D01*
X131869208Y-49527175D01*
X131322542Y-49616673D01*
X131291411Y-49616878D01*
X130953697Y-49605171D01*
X130772072Y-49537828D01*
X130668641Y-49366516D01*
X130612249Y-49195472D01*
X130538566Y-48924108D01*
X130557461Y-48819578D01*
X130685449Y-48827314D01*
X130720951Y-48836314D01*
X131056010Y-48854655D01*
X131246902Y-48727150D01*
X131286699Y-48497610D01*
X131168471Y-48209844D01*
X130885290Y-47907663D01*
X130869762Y-47895370D01*
X130404546Y-47421777D01*
X130154782Y-46926074D01*
X130108510Y-46441725D01*
X130253774Y-46002196D01*
X130578615Y-45640951D01*
X131071075Y-45391455D01*
X131719197Y-45287172D01*
X131802165Y-45286002D01*
X132221183Y-45323597D01*
G37*
G36*
X139525000Y-45402940D02*
G01*
X140212673Y-45403053D01*
X140139516Y-45768836D01*
X140112843Y-46017786D01*
X140090523Y-46446325D01*
X140074515Y-46999954D01*
X140066777Y-47624174D01*
X140066359Y-47804700D01*
X140067139Y-48489450D01*
X140053992Y-48975972D01*
X140003689Y-49299952D01*
X139892999Y-49497079D01*
X139698692Y-49603041D01*
X139397540Y-49653524D01*
X138966312Y-49684218D01*
X138837327Y-49692852D01*
X138329660Y-49710357D01*
X137968605Y-49671233D01*
X137671244Y-49564894D01*
X137616615Y-49537020D01*
X137285664Y-49328147D01*
X137031269Y-49074300D01*
X136840181Y-48740396D01*
X136699153Y-48291355D01*
X136594935Y-47692094D01*
X136514277Y-46907532D01*
X136486386Y-46544297D01*
X136404322Y-45403053D01*
X137298935Y-45403053D01*
X138193548Y-45403053D01*
X138195341Y-47012500D01*
X138201981Y-47610285D01*
X138218937Y-48127916D01*
X138243836Y-48518295D01*
X138274309Y-48734323D01*
X138283129Y-48756561D01*
X138461439Y-48887821D01*
X138603226Y-48932137D01*
X138692498Y-48937464D01*
X138755620Y-48894639D01*
X138797115Y-48769966D01*
X138821505Y-48529752D01*
X138833313Y-48140300D01*
X138837062Y-47567917D01*
X138837327Y-47187963D01*
X138837327Y-45402827D01*
X139525000Y-45402940D01*
G37*
G36*
X142760247Y-45422889D02*
G01*
X143349688Y-45661063D01*
X143767857Y-46025017D01*
X144000720Y-46507373D01*
X144046083Y-46889667D01*
X143986870Y-47442260D01*
X143786756Y-47865028D01*
X143495447Y-48168412D01*
X143200966Y-48417181D01*
X143618346Y-48879171D01*
X144035726Y-49341160D01*
X143511045Y-49596070D01*
X143197298Y-49743054D01*
X142979121Y-49835165D01*
X142925526Y-49850979D01*
X142834394Y-49759453D01*
X142689958Y-49534772D01*
X142665293Y-49491063D01*
X142436164Y-49093051D01*
X142291525Y-48893197D01*
X142212693Y-48879521D01*
X142180984Y-49040041D01*
X142176995Y-49177938D01*
X142173272Y-49616878D01*
X141422950Y-49616878D01*
X140672628Y-49616878D01*
X140607574Y-48651210D01*
X140569484Y-48064672D01*
X140537557Y-47548982D01*
X142173272Y-47548982D01*
X142193512Y-47836785D01*
X142242687Y-48007846D01*
X142247187Y-48013067D01*
X142399315Y-48026259D01*
X142607596Y-47923621D01*
X142769294Y-47761242D01*
X142791033Y-47716145D01*
X142779584Y-47455192D01*
X142615254Y-47235938D01*
X142403255Y-47158813D01*
X142241284Y-47209095D01*
X142178619Y-47400470D01*
X142173272Y-47548982D01*
X140537557Y-47548982D01*
X140526661Y-47372982D01*
X140487029Y-46704744D01*
X140478726Y-46559562D01*
X140414932Y-45433583D01*
X141123694Y-45353395D01*
X142013571Y-45317874D01*
X142760247Y-45422889D01*
G37*
G36*
X134971486Y-45423693D02*
G01*
X135252497Y-45486381D01*
X135318072Y-45549366D01*
X135358138Y-45707095D01*
X135441865Y-46052223D01*
X135559545Y-46544214D01*
X135701471Y-47142531D01*
X135822603Y-47656279D01*
X136283690Y-49616878D01*
X135482859Y-49616878D01*
X135043458Y-49606143D01*
X134794176Y-49567616D01*
X134691746Y-49491810D01*
X134682028Y-49441302D01*
X134633711Y-49289346D01*
X134473818Y-49316260D01*
X134275124Y-49448035D01*
X134093623Y-49553048D01*
X133955921Y-49495382D01*
X133838787Y-49356524D01*
X133633777Y-49090150D01*
X133631174Y-49353514D01*
X133592178Y-49533012D01*
X133435453Y-49606115D01*
X133218894Y-49616878D01*
X132948084Y-49589253D01*
X132812746Y-49521327D01*
X132809217Y-49506915D01*
X132835649Y-49356858D01*
X132907794Y-49026913D01*
X132960925Y-48797523D01*
X133759832Y-48797523D01*
X134096971Y-48797523D01*
X134358734Y-48768844D01*
X134490957Y-48705542D01*
X134482564Y-48551148D01*
X134393996Y-48272429D01*
X134343185Y-48149781D01*
X134138565Y-47686000D01*
X133949198Y-48241762D01*
X133759832Y-48797523D01*
X132960925Y-48797523D01*
X133014923Y-48564388D01*
X133146307Y-48016589D01*
X133159188Y-47963765D01*
X133302866Y-47354517D01*
X133431503Y-46771006D01*
X133530577Y-46281509D01*
X133583945Y-45966815D01*
X133658731Y-45403053D01*
X134466680Y-45403053D01*
X134971486Y-45423693D01*
G37*
G36*
X119466925Y-43221468D02*
G01*
X119836467Y-43251971D01*
X120052666Y-43283542D01*
X120084408Y-43296140D01*
X120113003Y-43429918D01*
X120149611Y-43747100D01*
X120189113Y-44197360D01*
X120219967Y-44628940D01*
X120254693Y-45186721D01*
X120268561Y-45549592D01*
X120256074Y-45756235D01*
X120211733Y-45845338D01*
X120130039Y-45855584D01*
X120048301Y-45836715D01*
X119670596Y-45827340D01*
X119398588Y-46026314D01*
X119342269Y-46116788D01*
X119303280Y-46299192D01*
X119365508Y-46563387D01*
X119542490Y-46961800D01*
X119579622Y-47036085D01*
X119851184Y-47743606D01*
X119916765Y-48363413D01*
X119783287Y-48881039D01*
X119457676Y-49282019D01*
X118946856Y-49551887D01*
X118317900Y-49672040D01*
X117929096Y-49686466D01*
X117602101Y-49672270D01*
X117517089Y-49659244D01*
X117321856Y-49537400D01*
X117179873Y-49243782D01*
X117136674Y-49090307D01*
X117045941Y-48714419D01*
X117026062Y-48517477D01*
X117091811Y-48451142D01*
X117257957Y-48467078D01*
X117323338Y-48479480D01*
X117743844Y-48488383D01*
X118040978Y-48350163D01*
X118174373Y-48086245D01*
X118177880Y-48025964D01*
X118122913Y-47812409D01*
X117942219Y-47537845D01*
X117612108Y-47170113D01*
X117366710Y-46924727D01*
X116802436Y-46297097D01*
X116455534Y-45716364D01*
X116320209Y-45158715D01*
X116390664Y-44600337D01*
X116659684Y-44019744D01*
X117013901Y-43619259D01*
X117515865Y-43353390D01*
X118184581Y-43215458D01*
X119000487Y-43197186D01*
X119466925Y-43221468D01*
G37*
%TO.C,kibuzzard-666C296D*%
G36*
X109471379Y-149259693D02*
G01*
X108798250Y-149259693D01*
X107138314Y-149259693D01*
X106128621Y-149259693D01*
X106128621Y-146271002D01*
X107138314Y-146271002D01*
X107299865Y-146682956D01*
X107546230Y-146584006D01*
X107804712Y-146440630D01*
X107804712Y-147838045D01*
X107279672Y-147838045D01*
X107279672Y-148250000D01*
X108798250Y-148250000D01*
X108798250Y-147838045D01*
X108301481Y-147838045D01*
X108301481Y-145750000D01*
X107962224Y-145750000D01*
X107788557Y-145907512D01*
X107574502Y-146052908D01*
X107348331Y-146178110D01*
X107138314Y-146271002D01*
X106128621Y-146271002D01*
X106128621Y-144740307D01*
X107138314Y-144740307D01*
X108798250Y-144740307D01*
X109471379Y-144740307D01*
X109471379Y-149259693D01*
G37*
%TO.C,kibuzzard-666C29A3*%
G36*
X120587534Y-148987964D02*
G01*
X119914405Y-148987964D01*
X118222159Y-148987964D01*
X117212466Y-148987964D01*
X117212466Y-145752908D01*
X118222159Y-145752908D01*
X118468525Y-146100242D01*
X118722967Y-145910420D01*
X118969332Y-145853877D01*
X119203581Y-145936672D01*
X119296473Y-146172940D01*
X119221756Y-146386995D01*
X119031933Y-146605089D01*
X118912789Y-146720699D01*
X118785568Y-146841357D01*
X118658347Y-146969588D01*
X118539203Y-147107916D01*
X118434195Y-147257855D01*
X118349381Y-147420921D01*
X118293343Y-147598627D01*
X118274663Y-147792488D01*
X118272644Y-147877302D01*
X118282741Y-147978271D01*
X119914405Y-147978271D01*
X119914405Y-147566317D01*
X118840092Y-147566317D01*
X118882499Y-147433037D01*
X118985487Y-147289661D01*
X119114728Y-147152342D01*
X119235891Y-147037237D01*
X119441869Y-146835299D01*
X119623613Y-146617205D01*
X119752854Y-146384976D01*
X119801319Y-146136591D01*
X119736699Y-145823586D01*
X119563032Y-145599435D01*
X119312628Y-145466155D01*
X119017798Y-145421729D01*
X118807277Y-145441922D01*
X118595746Y-145502504D01*
X118396331Y-145605493D01*
X118222159Y-145752908D01*
X117212466Y-145752908D01*
X117212466Y-144412036D01*
X118222159Y-144412036D01*
X119914405Y-144412036D01*
X120587534Y-144412036D01*
X120587534Y-148987964D01*
G37*
%TO.C,kibuzzard-666C2ABA*%
G36*
X103674206Y-114177652D02*
G01*
X101991384Y-114177652D01*
X101030156Y-114177652D01*
X100335487Y-114177652D01*
X99325794Y-114177652D01*
X99325794Y-113367205D01*
X100335487Y-113367205D01*
X100460689Y-113411632D01*
X100636376Y-113456058D01*
X100834276Y-113490388D01*
X101030156Y-113504523D01*
X101263395Y-113489883D01*
X101462305Y-113445961D01*
X101627894Y-113375283D01*
X101761174Y-113280372D01*
X101934841Y-113027948D01*
X101991384Y-112708885D01*
X101964627Y-112505937D01*
X101884356Y-112333279D01*
X101755621Y-112194952D01*
X101583468Y-112094992D01*
X101809639Y-111884976D01*
X101894453Y-111598223D01*
X101845988Y-111319548D01*
X101696554Y-111095396D01*
X101440092Y-110947981D01*
X101270968Y-110908603D01*
X101074583Y-110895477D01*
X100860023Y-110914156D01*
X100668686Y-110970194D01*
X100379914Y-111117609D01*
X100557620Y-111481099D01*
X100797927Y-111365994D01*
X101078621Y-111319548D01*
X101306812Y-111398304D01*
X101389607Y-111614378D01*
X101351239Y-111767851D01*
X101252289Y-111864782D01*
X101114970Y-111917286D01*
X100961497Y-111933441D01*
X100775714Y-111933441D01*
X100775714Y-112345396D01*
X100929187Y-112345396D01*
X101150310Y-112365085D01*
X101329025Y-112424152D01*
X101447159Y-112532694D01*
X101486537Y-112700808D01*
X101383549Y-112971405D01*
X101242697Y-113053191D01*
X101026117Y-113080452D01*
X100834781Y-113069346D01*
X100672725Y-113036026D01*
X100432418Y-112951212D01*
X100335487Y-113367205D01*
X99325794Y-113367205D01*
X99325794Y-110222348D01*
X100335487Y-110222348D01*
X101991384Y-110222348D01*
X103674206Y-110222348D01*
X103674206Y-114177652D01*
G37*
%TD*%
D19*
%TO.C,Ref\u002A\u002A*%
X149500000Y-102200000D03*
%TD*%
D20*
%TO.C,Ref\u002A\u002A*%
X141700000Y-140000000D03*
%TD*%
%TO.C,Ref\u002A\u002A*%
X107800000Y-140000000D03*
%TD*%
%TO.C,Ref\u002A\u002A*%
X118900000Y-140000000D03*
%TD*%
D19*
%TO.C,Ref\u002A\u002A*%
X130600000Y-93800000D03*
%TD*%
D20*
%TO.C,Ref\u002A\u002A*%
X107800000Y-153500000D03*
%TD*%
%TO.C,Ref\u002A\u002A*%
X130000000Y-140000000D03*
%TD*%
D21*
%TO.C,Ref\u002A\u002A*%
X153000000Y-43800000D03*
%TD*%
D22*
%TO.C,Ref\u002A\u002A*%
X149500000Y-121200000D03*
%TD*%
D20*
%TO.C,Ref\u002A\u002A*%
X118900000Y-153500000D03*
%TD*%
D19*
%TO.C,Ref\u002A\u002A*%
X149500000Y-62200000D03*
%TD*%
D20*
%TO.C,Ref\u002A\u002A*%
X152200000Y-153500000D03*
%TD*%
%TO.C,Ref\u002A\u002A*%
X130000000Y-153500000D03*
%TD*%
D21*
%TO.C,Ref\u002A\u002A*%
X107100000Y-166300000D03*
%TD*%
%TO.C,Ref\u002A\u002A*%
X152900000Y-166300000D03*
%TD*%
D19*
%TO.C,Ref\u002A\u002A*%
X110500000Y-62200000D03*
%TD*%
D20*
%TO.C,Ref\u002A\u002A*%
X152200000Y-140000000D03*
%TD*%
D19*
%TO.C,Ref\u002A\u002A*%
X110500000Y-112200000D03*
%TD*%
D22*
%TO.C,Ref\u002A\u002A*%
X149500000Y-81200000D03*
%TD*%
D19*
%TO.C,Ref\u002A\u002A*%
X130600000Y-118800000D03*
%TD*%
D20*
%TO.C,Ref\u002A\u002A*%
X141700000Y-153500000D03*
%TD*%
D21*
%TO.C,Ref\u002A\u002A*%
X107100000Y-43800000D03*
%TD*%
D19*
%TO.C,Ref\u002A\u002A*%
X130600000Y-68800000D03*
%TD*%
%TO.C,Ref\u002A\u002A*%
X110500000Y-87200000D03*
%TD*%
G36*
X136390927Y-57047271D02*
G01*
X136401061Y-57048477D01*
X136423082Y-57052023D01*
X136432724Y-57053971D01*
X136614642Y-57098298D01*
X136633313Y-57104452D01*
X136801377Y-57175057D01*
X136818842Y-57184084D01*
X136973904Y-57280531D01*
X136989261Y-57291806D01*
X137207502Y-57479476D01*
X137220552Y-57492508D01*
X137408717Y-57710674D01*
X137420054Y-57726077D01*
X137516881Y-57881445D01*
X137525981Y-57899036D01*
X137596602Y-58067278D01*
X137602784Y-58086093D01*
X137646885Y-58268252D01*
X137648831Y-58277972D01*
X137652095Y-58298515D01*
X137653268Y-58308487D01*
X137674857Y-58589856D01*
X137674768Y-58609922D01*
X137651072Y-58886620D01*
X137648015Y-58905329D01*
X137605876Y-59078683D01*
X137600424Y-59095677D01*
X137533620Y-59261723D01*
X137525784Y-59277757D01*
X137433595Y-59436349D01*
X137428833Y-59443902D01*
X137403409Y-59481178D01*
X137396041Y-59490914D01*
X137219471Y-59701791D01*
X137202052Y-59718859D01*
X136991969Y-59887608D01*
X136972554Y-59900406D01*
X136732958Y-60027871D01*
X136712585Y-60036476D01*
X136448307Y-60121227D01*
X136437628Y-60124133D01*
X136401200Y-60132319D01*
X136391906Y-60134038D01*
X136209122Y-60160693D01*
X136190281Y-60161987D01*
X136010310Y-60160611D01*
X135991491Y-60159029D01*
X135813848Y-60130344D01*
X135795428Y-60125903D01*
X135526885Y-60038977D01*
X135509299Y-60031753D01*
X135252962Y-59902661D01*
X135244651Y-59898069D01*
X135242693Y-59896887D01*
X135234322Y-59891360D01*
X135079562Y-59779931D01*
X135064319Y-59766965D01*
X134933067Y-59635662D01*
X134920108Y-59620414D01*
X134808751Y-59465629D01*
X134803232Y-59457265D01*
X134802715Y-59456408D01*
X134798137Y-59448120D01*
X134668852Y-59191346D01*
X134661653Y-59173832D01*
X134574425Y-58904846D01*
X134569993Y-58886542D01*
X134540975Y-58708489D01*
X134539367Y-58689825D01*
X134537502Y-58509385D01*
X134538723Y-58490692D01*
X134564722Y-58307365D01*
X134566388Y-58298143D01*
X134574192Y-58262657D01*
X134577096Y-58251815D01*
X134661084Y-57986902D01*
X134669765Y-57966230D01*
X134797157Y-57726286D01*
X134810165Y-57706579D01*
X134979457Y-57496713D01*
X134996884Y-57479061D01*
X135208907Y-57303492D01*
X135218855Y-57296061D01*
X135254598Y-57272054D01*
X135265818Y-57265348D01*
X135509123Y-57136824D01*
X135533361Y-57127129D01*
X135793231Y-57053787D01*
X135816099Y-57049597D01*
X136089935Y-57025628D01*
X136110327Y-57025527D01*
X136390927Y-57047271D01*
G37*
G36*
X105993702Y-100747271D02*
G01*
X106003836Y-100748477D01*
X106025857Y-100752023D01*
X106035499Y-100753971D01*
X106217417Y-100798298D01*
X106236088Y-100804452D01*
X106404152Y-100875057D01*
X106421617Y-100884084D01*
X106576679Y-100980531D01*
X106592036Y-100991806D01*
X106810277Y-101179476D01*
X106823327Y-101192508D01*
X107011492Y-101410674D01*
X107022829Y-101426077D01*
X107119656Y-101581445D01*
X107128756Y-101599036D01*
X107199377Y-101767278D01*
X107205559Y-101786093D01*
X107249660Y-101968252D01*
X107251606Y-101977972D01*
X107254870Y-101998515D01*
X107256043Y-102008487D01*
X107277632Y-102289856D01*
X107277543Y-102309922D01*
X107253847Y-102586620D01*
X107250790Y-102605329D01*
X107208651Y-102778683D01*
X107203199Y-102795677D01*
X107136395Y-102961723D01*
X107128559Y-102977757D01*
X107036370Y-103136349D01*
X107031608Y-103143902D01*
X107006184Y-103181178D01*
X106998816Y-103190914D01*
X106822246Y-103401791D01*
X106804827Y-103418859D01*
X106594744Y-103587608D01*
X106575329Y-103600406D01*
X106335733Y-103727871D01*
X106315360Y-103736476D01*
X106051082Y-103821227D01*
X106040403Y-103824133D01*
X106003975Y-103832319D01*
X105994681Y-103834038D01*
X105811897Y-103860693D01*
X105793056Y-103861987D01*
X105613085Y-103860611D01*
X105594266Y-103859029D01*
X105416626Y-103830345D01*
X105398206Y-103825904D01*
X105129660Y-103738977D01*
X105112074Y-103731753D01*
X104855737Y-103602661D01*
X104847426Y-103598069D01*
X104845468Y-103596887D01*
X104837097Y-103591360D01*
X104682337Y-103479931D01*
X104667094Y-103466965D01*
X104535842Y-103335662D01*
X104522882Y-103320414D01*
X104411524Y-103165626D01*
X104406051Y-103157336D01*
X104405535Y-103156482D01*
X104400912Y-103148120D01*
X104271627Y-102891346D01*
X104264428Y-102873832D01*
X104177200Y-102604846D01*
X104172768Y-102586542D01*
X104143750Y-102408489D01*
X104142142Y-102389825D01*
X104140277Y-102209385D01*
X104141498Y-102190692D01*
X104167497Y-102007365D01*
X104169163Y-101998143D01*
X104176967Y-101962657D01*
X104179871Y-101951815D01*
X104263859Y-101686902D01*
X104272540Y-101666230D01*
X104399932Y-101426286D01*
X104412940Y-101406579D01*
X104582232Y-101196713D01*
X104599659Y-101179061D01*
X104811682Y-101003492D01*
X104821630Y-100996061D01*
X104857373Y-100972054D01*
X104868593Y-100965348D01*
X105111898Y-100836824D01*
X105136136Y-100827129D01*
X105396006Y-100753787D01*
X105418874Y-100749597D01*
X105692710Y-100725628D01*
X105713102Y-100725527D01*
X105993702Y-100747271D01*
G37*
G36*
X136390927Y-82047271D02*
G01*
X136401061Y-82048477D01*
X136423082Y-82052023D01*
X136432724Y-82053971D01*
X136614642Y-82098298D01*
X136633313Y-82104452D01*
X136801377Y-82175057D01*
X136818842Y-82184084D01*
X136973904Y-82280531D01*
X136989261Y-82291806D01*
X137207502Y-82479476D01*
X137220552Y-82492508D01*
X137408717Y-82710674D01*
X137420054Y-82726077D01*
X137516881Y-82881445D01*
X137525981Y-82899036D01*
X137596602Y-83067278D01*
X137602784Y-83086093D01*
X137646885Y-83268252D01*
X137648831Y-83277972D01*
X137652095Y-83298515D01*
X137653268Y-83308487D01*
X137674857Y-83589856D01*
X137674768Y-83609922D01*
X137651072Y-83886620D01*
X137648015Y-83905329D01*
X137605876Y-84078683D01*
X137600424Y-84095677D01*
X137533620Y-84261723D01*
X137525784Y-84277757D01*
X137433595Y-84436349D01*
X137428833Y-84443902D01*
X137403409Y-84481178D01*
X137396041Y-84490914D01*
X137219471Y-84701791D01*
X137202052Y-84718859D01*
X136991969Y-84887608D01*
X136972554Y-84900406D01*
X136732958Y-85027871D01*
X136712585Y-85036476D01*
X136448307Y-85121227D01*
X136437628Y-85124133D01*
X136401200Y-85132319D01*
X136391906Y-85134038D01*
X136209122Y-85160693D01*
X136190281Y-85161987D01*
X136010310Y-85160611D01*
X135991491Y-85159029D01*
X135813848Y-85130344D01*
X135795428Y-85125903D01*
X135526885Y-85038977D01*
X135509299Y-85031753D01*
X135252962Y-84902661D01*
X135244651Y-84898069D01*
X135242693Y-84896887D01*
X135234322Y-84891360D01*
X135079562Y-84779931D01*
X135064319Y-84766965D01*
X134933067Y-84635662D01*
X134920108Y-84620414D01*
X134808751Y-84465629D01*
X134803232Y-84457265D01*
X134802715Y-84456408D01*
X134798137Y-84448120D01*
X134668852Y-84191346D01*
X134661653Y-84173832D01*
X134574425Y-83904846D01*
X134569993Y-83886542D01*
X134540975Y-83708489D01*
X134539367Y-83689825D01*
X134537502Y-83509385D01*
X134538723Y-83490692D01*
X134564722Y-83307365D01*
X134566388Y-83298143D01*
X134574192Y-83262657D01*
X134577096Y-83251815D01*
X134661084Y-82986902D01*
X134669765Y-82966230D01*
X134797157Y-82726286D01*
X134810165Y-82706579D01*
X134979457Y-82496713D01*
X134996884Y-82479061D01*
X135208907Y-82303492D01*
X135218855Y-82296061D01*
X135254598Y-82272054D01*
X135265818Y-82265348D01*
X135509123Y-82136824D01*
X135533361Y-82127129D01*
X135793231Y-82053787D01*
X135816099Y-82049597D01*
X136089935Y-82025628D01*
X136110327Y-82025527D01*
X136390927Y-82047271D01*
G37*
G36*
X120790927Y-88964033D02*
G01*
X120801061Y-88965239D01*
X120823082Y-88968785D01*
X120832724Y-88970733D01*
X121014642Y-89015060D01*
X121033313Y-89021214D01*
X121201377Y-89091819D01*
X121218842Y-89100846D01*
X121373904Y-89197293D01*
X121389261Y-89208568D01*
X121607502Y-89396238D01*
X121620552Y-89409270D01*
X121808717Y-89627436D01*
X121820054Y-89642839D01*
X121916881Y-89798207D01*
X121925981Y-89815798D01*
X121996602Y-89984040D01*
X122002784Y-90002855D01*
X122046885Y-90185014D01*
X122048831Y-90194734D01*
X122052095Y-90215277D01*
X122053268Y-90225249D01*
X122074857Y-90506618D01*
X122074768Y-90526684D01*
X122051072Y-90803382D01*
X122048015Y-90822091D01*
X122005876Y-90995445D01*
X122000424Y-91012439D01*
X121933620Y-91178485D01*
X121925784Y-91194519D01*
X121833595Y-91353111D01*
X121828833Y-91360664D01*
X121803409Y-91397940D01*
X121796041Y-91407676D01*
X121619471Y-91618553D01*
X121602052Y-91635621D01*
X121391969Y-91804370D01*
X121372554Y-91817168D01*
X121132958Y-91944633D01*
X121112585Y-91953238D01*
X120848307Y-92037989D01*
X120837628Y-92040895D01*
X120801200Y-92049081D01*
X120791906Y-92050800D01*
X120609122Y-92077455D01*
X120590281Y-92078749D01*
X120410310Y-92077373D01*
X120391491Y-92075791D01*
X120213851Y-92047107D01*
X120195431Y-92042666D01*
X119926885Y-91955739D01*
X119909299Y-91948515D01*
X119652962Y-91819423D01*
X119644651Y-91814831D01*
X119642693Y-91813649D01*
X119634322Y-91808122D01*
X119479562Y-91696693D01*
X119464319Y-91683727D01*
X119333067Y-91552424D01*
X119320107Y-91537176D01*
X119208749Y-91382388D01*
X119203276Y-91374098D01*
X119202760Y-91373244D01*
X119198137Y-91364882D01*
X119068852Y-91108108D01*
X119061653Y-91090594D01*
X118974425Y-90821608D01*
X118969993Y-90803304D01*
X118940975Y-90625251D01*
X118939367Y-90606587D01*
X118937502Y-90426147D01*
X118938723Y-90407454D01*
X118964722Y-90224127D01*
X118966388Y-90214905D01*
X118974192Y-90179419D01*
X118977096Y-90168577D01*
X119061084Y-89903664D01*
X119069765Y-89882992D01*
X119197157Y-89643048D01*
X119210165Y-89623341D01*
X119379457Y-89413475D01*
X119396884Y-89395823D01*
X119608907Y-89220254D01*
X119618855Y-89212823D01*
X119654598Y-89188816D01*
X119665818Y-89182110D01*
X119909123Y-89053586D01*
X119933361Y-89043891D01*
X120193231Y-88970549D01*
X120216099Y-88966359D01*
X120489935Y-88942390D01*
X120510327Y-88942289D01*
X120790927Y-88964033D01*
G37*
G36*
X149790927Y-72047271D02*
G01*
X149801061Y-72048477D01*
X149823082Y-72052023D01*
X149832724Y-72053971D01*
X150014642Y-72098298D01*
X150033313Y-72104452D01*
X150201377Y-72175057D01*
X150218842Y-72184084D01*
X150373904Y-72280531D01*
X150389261Y-72291806D01*
X150607502Y-72479476D01*
X150620552Y-72492508D01*
X150808717Y-72710674D01*
X150820054Y-72726077D01*
X150916881Y-72881445D01*
X150925981Y-72899036D01*
X150996602Y-73067278D01*
X151002784Y-73086093D01*
X151046885Y-73268252D01*
X151048831Y-73277972D01*
X151052095Y-73298515D01*
X151053268Y-73308487D01*
X151074857Y-73589856D01*
X151074768Y-73609922D01*
X151051072Y-73886620D01*
X151048015Y-73905329D01*
X151005876Y-74078683D01*
X151000424Y-74095677D01*
X150933620Y-74261723D01*
X150925784Y-74277757D01*
X150833595Y-74436349D01*
X150828833Y-74443902D01*
X150803409Y-74481178D01*
X150796041Y-74490914D01*
X150619471Y-74701791D01*
X150602052Y-74718859D01*
X150391969Y-74887608D01*
X150372554Y-74900406D01*
X150132958Y-75027871D01*
X150112585Y-75036476D01*
X149848307Y-75121227D01*
X149837628Y-75124133D01*
X149801200Y-75132319D01*
X149791906Y-75134038D01*
X149609122Y-75160693D01*
X149590281Y-75161987D01*
X149410310Y-75160611D01*
X149391491Y-75159029D01*
X149213848Y-75130344D01*
X149195428Y-75125903D01*
X148926885Y-75038977D01*
X148909299Y-75031753D01*
X148652962Y-74902661D01*
X148644651Y-74898069D01*
X148642693Y-74896887D01*
X148634322Y-74891360D01*
X148479562Y-74779931D01*
X148464319Y-74766965D01*
X148333067Y-74635662D01*
X148320108Y-74620414D01*
X148208751Y-74465629D01*
X148203232Y-74457265D01*
X148202715Y-74456408D01*
X148198137Y-74448120D01*
X148068852Y-74191346D01*
X148061653Y-74173832D01*
X147974425Y-73904846D01*
X147969993Y-73886542D01*
X147940975Y-73708489D01*
X147939367Y-73689825D01*
X147937502Y-73509385D01*
X147938723Y-73490692D01*
X147964722Y-73307365D01*
X147966388Y-73298143D01*
X147974192Y-73262657D01*
X147977096Y-73251815D01*
X148061084Y-72986902D01*
X148069765Y-72966230D01*
X148197157Y-72726286D01*
X148210165Y-72706579D01*
X148379457Y-72496713D01*
X148396884Y-72479061D01*
X148608907Y-72303492D01*
X148618855Y-72296061D01*
X148654598Y-72272054D01*
X148665818Y-72265348D01*
X148909123Y-72136824D01*
X148933361Y-72127129D01*
X149193231Y-72053787D01*
X149216099Y-72049597D01*
X149489935Y-72025628D01*
X149510327Y-72025527D01*
X149790927Y-72047271D01*
G37*
G36*
X120790927Y-64064033D02*
G01*
X120801061Y-64065239D01*
X120823082Y-64068785D01*
X120832724Y-64070733D01*
X121014642Y-64115060D01*
X121033313Y-64121214D01*
X121201377Y-64191819D01*
X121218842Y-64200846D01*
X121373904Y-64297293D01*
X121389261Y-64308568D01*
X121607502Y-64496238D01*
X121620552Y-64509270D01*
X121808717Y-64727436D01*
X121820054Y-64742839D01*
X121916881Y-64898207D01*
X121925981Y-64915798D01*
X121996602Y-65084040D01*
X122002784Y-65102855D01*
X122046885Y-65285014D01*
X122048831Y-65294734D01*
X122052095Y-65315277D01*
X122053268Y-65325249D01*
X122074857Y-65606618D01*
X122074768Y-65626684D01*
X122051072Y-65903382D01*
X122048015Y-65922091D01*
X122005876Y-66095445D01*
X122000424Y-66112439D01*
X121933620Y-66278485D01*
X121925784Y-66294519D01*
X121833595Y-66453111D01*
X121828833Y-66460664D01*
X121803409Y-66497940D01*
X121796041Y-66507676D01*
X121619471Y-66718553D01*
X121602052Y-66735621D01*
X121391969Y-66904370D01*
X121372554Y-66917168D01*
X121132958Y-67044633D01*
X121112585Y-67053238D01*
X120848307Y-67137989D01*
X120837628Y-67140895D01*
X120801200Y-67149081D01*
X120791906Y-67150800D01*
X120609122Y-67177455D01*
X120590281Y-67178749D01*
X120410310Y-67177373D01*
X120391491Y-67175791D01*
X120213851Y-67147107D01*
X120195431Y-67142666D01*
X119926885Y-67055739D01*
X119909299Y-67048515D01*
X119652962Y-66919423D01*
X119644651Y-66914831D01*
X119642693Y-66913649D01*
X119634322Y-66908122D01*
X119479562Y-66796693D01*
X119464319Y-66783727D01*
X119333067Y-66652424D01*
X119320107Y-66637176D01*
X119208749Y-66482388D01*
X119203276Y-66474098D01*
X119202760Y-66473244D01*
X119198137Y-66464882D01*
X119068852Y-66208108D01*
X119061653Y-66190594D01*
X118974425Y-65921608D01*
X118969993Y-65903304D01*
X118940975Y-65725251D01*
X118939367Y-65706587D01*
X118937502Y-65526147D01*
X118938723Y-65507454D01*
X118964722Y-65324127D01*
X118966388Y-65314905D01*
X118974192Y-65279419D01*
X118977096Y-65268577D01*
X119061084Y-65003664D01*
X119069765Y-64982992D01*
X119197157Y-64743048D01*
X119210165Y-64723341D01*
X119379457Y-64513475D01*
X119396884Y-64495823D01*
X119608907Y-64320254D01*
X119618855Y-64312823D01*
X119654598Y-64288816D01*
X119665818Y-64282110D01*
X119909123Y-64153586D01*
X119933361Y-64143891D01*
X120193231Y-64070549D01*
X120216099Y-64066359D01*
X120489935Y-64042390D01*
X120510327Y-64042289D01*
X120790927Y-64064033D01*
G37*
G36*
X105990927Y-75636897D02*
G01*
X106001061Y-75638103D01*
X106023082Y-75641649D01*
X106032724Y-75643597D01*
X106214642Y-75687924D01*
X106233313Y-75694078D01*
X106401377Y-75764683D01*
X106418842Y-75773710D01*
X106573904Y-75870157D01*
X106589261Y-75881432D01*
X106807502Y-76069102D01*
X106820552Y-76082134D01*
X107008717Y-76300300D01*
X107020054Y-76315703D01*
X107116881Y-76471071D01*
X107125981Y-76488662D01*
X107196602Y-76656904D01*
X107202784Y-76675719D01*
X107246885Y-76857878D01*
X107248831Y-76867598D01*
X107252095Y-76888141D01*
X107253268Y-76898113D01*
X107274857Y-77179482D01*
X107274768Y-77199548D01*
X107251072Y-77476246D01*
X107248015Y-77494955D01*
X107205876Y-77668309D01*
X107200424Y-77685303D01*
X107133620Y-77851349D01*
X107125784Y-77867383D01*
X107033595Y-78025975D01*
X107028833Y-78033528D01*
X107003409Y-78070804D01*
X106996041Y-78080540D01*
X106819471Y-78291417D01*
X106802052Y-78308485D01*
X106591969Y-78477234D01*
X106572554Y-78490032D01*
X106332958Y-78617497D01*
X106312585Y-78626102D01*
X106048307Y-78710853D01*
X106037628Y-78713759D01*
X106001200Y-78721945D01*
X105991906Y-78723664D01*
X105809122Y-78750319D01*
X105790281Y-78751613D01*
X105610310Y-78750237D01*
X105591491Y-78748655D01*
X105413851Y-78719971D01*
X105395431Y-78715530D01*
X105126885Y-78628603D01*
X105109299Y-78621379D01*
X104852962Y-78492287D01*
X104844651Y-78487695D01*
X104842693Y-78486513D01*
X104834322Y-78480986D01*
X104679562Y-78369557D01*
X104664319Y-78356591D01*
X104533067Y-78225288D01*
X104520107Y-78210040D01*
X104408749Y-78055252D01*
X104403276Y-78046962D01*
X104402760Y-78046108D01*
X104398137Y-78037746D01*
X104268852Y-77780972D01*
X104261653Y-77763458D01*
X104174425Y-77494472D01*
X104169993Y-77476168D01*
X104140975Y-77298115D01*
X104139367Y-77279451D01*
X104137502Y-77099011D01*
X104138723Y-77080318D01*
X104164722Y-76896991D01*
X104166388Y-76887769D01*
X104174192Y-76852283D01*
X104177096Y-76841441D01*
X104261084Y-76576528D01*
X104269765Y-76555856D01*
X104397157Y-76315912D01*
X104410165Y-76296205D01*
X104579457Y-76086339D01*
X104596884Y-76068687D01*
X104808907Y-75893118D01*
X104818855Y-75885687D01*
X104854598Y-75861680D01*
X104865818Y-75854974D01*
X105109123Y-75726450D01*
X105133361Y-75716755D01*
X105393231Y-75643413D01*
X105416099Y-75639223D01*
X105689935Y-75615254D01*
X105710327Y-75615153D01*
X105990927Y-75636897D01*
G37*
G36*
X149790927Y-112142208D02*
G01*
X149801061Y-112143414D01*
X149823082Y-112146960D01*
X149832724Y-112148908D01*
X150014642Y-112193235D01*
X150033313Y-112199389D01*
X150201377Y-112269994D01*
X150218842Y-112279021D01*
X150373904Y-112375468D01*
X150389261Y-112386743D01*
X150607502Y-112574413D01*
X150620552Y-112587445D01*
X150808717Y-112805611D01*
X150820054Y-112821014D01*
X150916881Y-112976382D01*
X150925981Y-112993973D01*
X150996602Y-113162215D01*
X151002784Y-113181030D01*
X151046885Y-113363189D01*
X151048831Y-113372909D01*
X151052095Y-113393452D01*
X151053268Y-113403424D01*
X151074857Y-113684793D01*
X151074768Y-113704859D01*
X151051072Y-113981557D01*
X151048015Y-114000266D01*
X151005876Y-114173620D01*
X151000424Y-114190614D01*
X150933620Y-114356660D01*
X150925784Y-114372694D01*
X150833595Y-114531286D01*
X150828833Y-114538839D01*
X150803409Y-114576115D01*
X150796041Y-114585851D01*
X150619471Y-114796728D01*
X150602052Y-114813796D01*
X150391969Y-114982545D01*
X150372554Y-114995343D01*
X150132958Y-115122808D01*
X150112585Y-115131413D01*
X149848307Y-115216164D01*
X149837628Y-115219070D01*
X149801200Y-115227256D01*
X149791906Y-115228975D01*
X149609122Y-115255630D01*
X149590281Y-115256924D01*
X149410310Y-115255548D01*
X149391491Y-115253966D01*
X149213848Y-115225281D01*
X149195428Y-115220840D01*
X148926885Y-115133914D01*
X148909299Y-115126690D01*
X148652962Y-114997598D01*
X148644651Y-114993006D01*
X148642693Y-114991824D01*
X148634322Y-114986297D01*
X148479562Y-114874868D01*
X148464319Y-114861902D01*
X148333067Y-114730599D01*
X148320108Y-114715351D01*
X148208751Y-114560566D01*
X148203232Y-114552202D01*
X148202715Y-114551345D01*
X148198137Y-114543057D01*
X148068852Y-114286283D01*
X148061653Y-114268769D01*
X147974425Y-113999783D01*
X147969993Y-113981479D01*
X147940975Y-113803426D01*
X147939367Y-113784762D01*
X147937502Y-113604322D01*
X147938723Y-113585629D01*
X147964722Y-113402302D01*
X147966388Y-113393080D01*
X147974192Y-113357594D01*
X147977096Y-113346752D01*
X148061084Y-113081839D01*
X148069765Y-113061167D01*
X148197157Y-112821223D01*
X148210165Y-112801516D01*
X148379457Y-112591650D01*
X148396884Y-112573998D01*
X148608907Y-112398429D01*
X148618855Y-112390998D01*
X148654598Y-112366991D01*
X148665818Y-112360285D01*
X148909123Y-112231761D01*
X148933361Y-112222066D01*
X149193231Y-112148724D01*
X149216099Y-112144534D01*
X149489935Y-112120565D01*
X149510327Y-112120464D01*
X149790927Y-112142208D01*
G37*
G36*
X105990927Y-50847271D02*
G01*
X106001061Y-50848477D01*
X106023082Y-50852023D01*
X106032724Y-50853971D01*
X106214642Y-50898298D01*
X106233313Y-50904452D01*
X106401377Y-50975057D01*
X106418842Y-50984084D01*
X106573904Y-51080531D01*
X106589261Y-51091806D01*
X106807502Y-51279476D01*
X106820552Y-51292508D01*
X107008717Y-51510674D01*
X107020054Y-51526077D01*
X107116881Y-51681445D01*
X107125981Y-51699036D01*
X107196602Y-51867278D01*
X107202784Y-51886093D01*
X107246885Y-52068252D01*
X107248831Y-52077972D01*
X107252095Y-52098515D01*
X107253268Y-52108487D01*
X107274857Y-52389856D01*
X107274768Y-52409922D01*
X107251072Y-52686620D01*
X107248015Y-52705329D01*
X107205876Y-52878683D01*
X107200424Y-52895677D01*
X107133620Y-53061723D01*
X107125784Y-53077757D01*
X107033595Y-53236349D01*
X107028833Y-53243902D01*
X107003409Y-53281178D01*
X106996041Y-53290914D01*
X106819471Y-53501791D01*
X106802052Y-53518859D01*
X106591969Y-53687608D01*
X106572554Y-53700406D01*
X106332958Y-53827871D01*
X106312585Y-53836476D01*
X106048307Y-53921227D01*
X106037628Y-53924133D01*
X106001200Y-53932319D01*
X105991906Y-53934038D01*
X105809122Y-53960693D01*
X105790281Y-53961987D01*
X105610310Y-53960611D01*
X105591491Y-53959029D01*
X105413851Y-53930345D01*
X105395431Y-53925904D01*
X105126885Y-53838977D01*
X105109299Y-53831753D01*
X104852962Y-53702661D01*
X104844651Y-53698069D01*
X104842693Y-53696887D01*
X104834322Y-53691360D01*
X104679562Y-53579931D01*
X104664319Y-53566965D01*
X104533067Y-53435662D01*
X104520107Y-53420414D01*
X104408749Y-53265626D01*
X104403276Y-53257336D01*
X104402760Y-53256482D01*
X104398137Y-53248120D01*
X104268852Y-52991346D01*
X104261653Y-52973832D01*
X104174425Y-52704846D01*
X104169993Y-52686542D01*
X104140975Y-52508489D01*
X104139367Y-52489825D01*
X104137502Y-52309385D01*
X104138723Y-52290692D01*
X104164722Y-52107365D01*
X104166388Y-52098143D01*
X104174192Y-52062657D01*
X104177096Y-52051815D01*
X104261084Y-51786902D01*
X104269765Y-51766230D01*
X104397157Y-51526286D01*
X104410165Y-51506579D01*
X104579457Y-51296713D01*
X104596884Y-51279061D01*
X104808907Y-51103492D01*
X104818855Y-51096061D01*
X104854598Y-51072054D01*
X104865818Y-51065348D01*
X105109123Y-50936824D01*
X105133361Y-50927129D01*
X105393231Y-50853787D01*
X105416099Y-50849597D01*
X105689935Y-50825628D01*
X105710327Y-50825527D01*
X105990927Y-50847271D01*
G37*
G36*
X136390927Y-107047271D02*
G01*
X136401061Y-107048477D01*
X136423082Y-107052023D01*
X136432724Y-107053971D01*
X136614642Y-107098298D01*
X136633313Y-107104452D01*
X136801377Y-107175057D01*
X136818842Y-107184084D01*
X136973904Y-107280531D01*
X136989261Y-107291806D01*
X137207502Y-107479476D01*
X137220552Y-107492508D01*
X137408717Y-107710674D01*
X137420054Y-107726077D01*
X137516881Y-107881445D01*
X137525981Y-107899036D01*
X137596602Y-108067278D01*
X137602784Y-108086093D01*
X137646885Y-108268252D01*
X137648831Y-108277972D01*
X137652095Y-108298515D01*
X137653268Y-108308487D01*
X137674857Y-108589856D01*
X137674768Y-108609922D01*
X137651072Y-108886620D01*
X137648015Y-108905329D01*
X137605876Y-109078683D01*
X137600424Y-109095677D01*
X137533620Y-109261723D01*
X137525784Y-109277757D01*
X137433595Y-109436349D01*
X137428833Y-109443902D01*
X137403409Y-109481178D01*
X137396041Y-109490914D01*
X137219471Y-109701791D01*
X137202052Y-109718859D01*
X136991969Y-109887608D01*
X136972554Y-109900406D01*
X136732958Y-110027871D01*
X136712585Y-110036476D01*
X136448307Y-110121227D01*
X136437628Y-110124133D01*
X136401200Y-110132319D01*
X136391906Y-110134038D01*
X136209122Y-110160693D01*
X136190281Y-110161987D01*
X136010310Y-110160611D01*
X135991491Y-110159029D01*
X135813848Y-110130344D01*
X135795428Y-110125903D01*
X135526885Y-110038977D01*
X135509299Y-110031753D01*
X135252962Y-109902661D01*
X135244651Y-109898069D01*
X135242693Y-109896887D01*
X135234322Y-109891360D01*
X135079562Y-109779931D01*
X135064319Y-109766965D01*
X134933067Y-109635662D01*
X134920108Y-109620414D01*
X134808751Y-109465629D01*
X134803232Y-109457265D01*
X134802715Y-109456408D01*
X134798137Y-109448120D01*
X134668852Y-109191346D01*
X134661653Y-109173832D01*
X134574425Y-108904846D01*
X134569993Y-108886542D01*
X134540975Y-108708489D01*
X134539367Y-108689825D01*
X134537502Y-108509385D01*
X134538723Y-108490692D01*
X134564722Y-108307365D01*
X134566388Y-108298143D01*
X134574192Y-108262657D01*
X134577096Y-108251815D01*
X134661084Y-107986902D01*
X134669765Y-107966230D01*
X134797157Y-107726286D01*
X134810165Y-107706579D01*
X134979457Y-107496713D01*
X134996884Y-107479061D01*
X135208907Y-107303492D01*
X135218855Y-107296061D01*
X135254598Y-107272054D01*
X135265818Y-107265348D01*
X135509123Y-107136824D01*
X135533361Y-107127129D01*
X135793231Y-107053787D01*
X135816099Y-107049597D01*
X136089935Y-107025628D01*
X136110327Y-107025527D01*
X136390927Y-107047271D01*
G37*
G36*
X120790927Y-113964033D02*
G01*
X120801061Y-113965239D01*
X120823082Y-113968785D01*
X120832724Y-113970733D01*
X121014642Y-114015060D01*
X121033313Y-114021214D01*
X121201377Y-114091819D01*
X121218842Y-114100846D01*
X121373904Y-114197293D01*
X121389261Y-114208568D01*
X121607502Y-114396238D01*
X121620552Y-114409270D01*
X121808717Y-114627436D01*
X121820054Y-114642839D01*
X121916881Y-114798207D01*
X121925981Y-114815798D01*
X121996602Y-114984040D01*
X122002784Y-115002855D01*
X122046885Y-115185014D01*
X122048831Y-115194734D01*
X122052095Y-115215277D01*
X122053268Y-115225249D01*
X122074857Y-115506618D01*
X122074768Y-115526684D01*
X122051072Y-115803382D01*
X122048015Y-115822091D01*
X122005876Y-115995445D01*
X122000424Y-116012439D01*
X121933620Y-116178485D01*
X121925784Y-116194519D01*
X121833595Y-116353111D01*
X121828833Y-116360664D01*
X121803409Y-116397940D01*
X121796041Y-116407676D01*
X121619471Y-116618553D01*
X121602052Y-116635621D01*
X121391969Y-116804370D01*
X121372554Y-116817168D01*
X121132958Y-116944633D01*
X121112585Y-116953238D01*
X120848307Y-117037989D01*
X120837628Y-117040895D01*
X120801200Y-117049081D01*
X120791906Y-117050800D01*
X120609122Y-117077455D01*
X120590281Y-117078749D01*
X120410310Y-117077373D01*
X120391491Y-117075791D01*
X120213851Y-117047107D01*
X120195431Y-117042666D01*
X119926885Y-116955739D01*
X119909299Y-116948515D01*
X119652962Y-116819423D01*
X119644651Y-116814831D01*
X119642693Y-116813649D01*
X119634322Y-116808122D01*
X119479562Y-116696693D01*
X119464319Y-116683727D01*
X119333067Y-116552424D01*
X119320107Y-116537176D01*
X119208749Y-116382388D01*
X119203276Y-116374098D01*
X119202760Y-116373244D01*
X119198137Y-116364882D01*
X119068852Y-116108108D01*
X119061653Y-116090594D01*
X118974425Y-115821608D01*
X118969993Y-115803304D01*
X118940975Y-115625251D01*
X118939367Y-115606587D01*
X118937502Y-115426147D01*
X118938723Y-115407454D01*
X118964722Y-115224127D01*
X118966388Y-115214905D01*
X118974192Y-115179419D01*
X118977096Y-115168577D01*
X119061084Y-114903664D01*
X119069765Y-114882992D01*
X119197157Y-114643048D01*
X119210165Y-114623341D01*
X119379457Y-114413475D01*
X119396884Y-114395823D01*
X119608907Y-114220254D01*
X119618855Y-114212823D01*
X119654598Y-114188816D01*
X119665818Y-114182110D01*
X119909123Y-114053586D01*
X119933361Y-114043891D01*
X120193231Y-113970549D01*
X120216099Y-113966359D01*
X120489935Y-113942390D01*
X120510327Y-113942289D01*
X120790927Y-113964033D01*
G37*
M02*
