%TF.GenerationSoftware,KiCad,Pcbnew,8.0.3*%
%TF.CreationDate,2024-06-18T14:56:21+01:00*%
%TF.ProjectId,Sinosaur_Panel,53696e6f-7361-4757-925f-50616e656c2e,rev?*%
%TF.SameCoordinates,Original*%
%TF.FileFunction,Copper,L1,Top*%
%TF.FilePolarity,Positive*%
%FSLAX46Y46*%
G04 Gerber Fmt 4.6, Leading zero omitted, Abs format (unit mm)*
G04 Created by KiCad (PCBNEW 8.0.3) date 2024-06-18 14:56:21*
%MOMM*%
%LPD*%
G01*
G04 APERTURE LIST*
G04 APERTURE END LIST*
%TA.AperFunction,NonConductor*%
G36*
X159841621Y-41320502D02*
G01*
X159888114Y-41374158D01*
X159899500Y-41426500D01*
X159899500Y-168673500D01*
X159879498Y-168741621D01*
X159825842Y-168788114D01*
X159773500Y-168799500D01*
X100226500Y-168799500D01*
X100158379Y-168779498D01*
X100111886Y-168725842D01*
X100100500Y-168673500D01*
X100100500Y-166178709D01*
X104349500Y-166178709D01*
X104349500Y-166421290D01*
X104381160Y-166661782D01*
X104443944Y-166896095D01*
X104443945Y-166896097D01*
X104443946Y-166896100D01*
X104536776Y-167120212D01*
X104536777Y-167120213D01*
X104536782Y-167120224D01*
X104658061Y-167330285D01*
X104658063Y-167330288D01*
X104658064Y-167330289D01*
X104805735Y-167522738D01*
X104805739Y-167522742D01*
X104805744Y-167522748D01*
X104977251Y-167694255D01*
X104977256Y-167694259D01*
X104977262Y-167694265D01*
X105169711Y-167841936D01*
X105169714Y-167841938D01*
X105379775Y-167963217D01*
X105379779Y-167963218D01*
X105379788Y-167963224D01*
X105603900Y-168056054D01*
X105838211Y-168118838D01*
X105838215Y-168118838D01*
X105838217Y-168118839D01*
X105900202Y-168126999D01*
X106078712Y-168150500D01*
X106078719Y-168150500D01*
X108121281Y-168150500D01*
X108121288Y-168150500D01*
X108338637Y-168121885D01*
X108361782Y-168118839D01*
X108361782Y-168118838D01*
X108361789Y-168118838D01*
X108596100Y-168056054D01*
X108820212Y-167963224D01*
X109030289Y-167841936D01*
X109222738Y-167694265D01*
X109394265Y-167522738D01*
X109541936Y-167330289D01*
X109663224Y-167120212D01*
X109756054Y-166896100D01*
X109818838Y-166661789D01*
X109850500Y-166421288D01*
X109850500Y-166178712D01*
X109850500Y-166178709D01*
X150149500Y-166178709D01*
X150149500Y-166421290D01*
X150181160Y-166661782D01*
X150243944Y-166896095D01*
X150243945Y-166896097D01*
X150243946Y-166896100D01*
X150336776Y-167120212D01*
X150336777Y-167120213D01*
X150336782Y-167120224D01*
X150458061Y-167330285D01*
X150458063Y-167330288D01*
X150458064Y-167330289D01*
X150605735Y-167522738D01*
X150605739Y-167522742D01*
X150605744Y-167522748D01*
X150777251Y-167694255D01*
X150777256Y-167694259D01*
X150777262Y-167694265D01*
X150969711Y-167841936D01*
X150969714Y-167841938D01*
X151179775Y-167963217D01*
X151179779Y-167963218D01*
X151179788Y-167963224D01*
X151403900Y-168056054D01*
X151638211Y-168118838D01*
X151638215Y-168118838D01*
X151638217Y-168118839D01*
X151700202Y-168126999D01*
X151878712Y-168150500D01*
X151878719Y-168150500D01*
X153921281Y-168150500D01*
X153921288Y-168150500D01*
X154138637Y-168121885D01*
X154161782Y-168118839D01*
X154161782Y-168118838D01*
X154161789Y-168118838D01*
X154396100Y-168056054D01*
X154620212Y-167963224D01*
X154830289Y-167841936D01*
X155022738Y-167694265D01*
X155194265Y-167522738D01*
X155341936Y-167330289D01*
X155463224Y-167120212D01*
X155556054Y-166896100D01*
X155618838Y-166661789D01*
X155650500Y-166421288D01*
X155650500Y-166178712D01*
X155618838Y-165938211D01*
X155556054Y-165703900D01*
X155463224Y-165479788D01*
X155463218Y-165479779D01*
X155463217Y-165479775D01*
X155341938Y-165269714D01*
X155341936Y-165269711D01*
X155194265Y-165077262D01*
X155194259Y-165077256D01*
X155194255Y-165077251D01*
X155022748Y-164905744D01*
X155022742Y-164905739D01*
X155022738Y-164905735D01*
X154830289Y-164758064D01*
X154830288Y-164758063D01*
X154830285Y-164758061D01*
X154620224Y-164636782D01*
X154620216Y-164636778D01*
X154620212Y-164636776D01*
X154396100Y-164543946D01*
X154396097Y-164543945D01*
X154396095Y-164543944D01*
X154161782Y-164481160D01*
X153921290Y-164449500D01*
X153921288Y-164449500D01*
X151878712Y-164449500D01*
X151878709Y-164449500D01*
X151638217Y-164481160D01*
X151403904Y-164543944D01*
X151403900Y-164543946D01*
X151179786Y-164636777D01*
X151179775Y-164636782D01*
X150969714Y-164758061D01*
X150777262Y-164905735D01*
X150777251Y-164905744D01*
X150605744Y-165077251D01*
X150605735Y-165077262D01*
X150458061Y-165269714D01*
X150336782Y-165479775D01*
X150336777Y-165479786D01*
X150243946Y-165703900D01*
X150243944Y-165703904D01*
X150181160Y-165938217D01*
X150149500Y-166178709D01*
X109850500Y-166178709D01*
X109818838Y-165938211D01*
X109756054Y-165703900D01*
X109663224Y-165479788D01*
X109663218Y-165479779D01*
X109663217Y-165479775D01*
X109541938Y-165269714D01*
X109541936Y-165269711D01*
X109394265Y-165077262D01*
X109394259Y-165077256D01*
X109394255Y-165077251D01*
X109222748Y-164905744D01*
X109222742Y-164905739D01*
X109222738Y-164905735D01*
X109030289Y-164758064D01*
X109030288Y-164758063D01*
X109030285Y-164758061D01*
X108820224Y-164636782D01*
X108820216Y-164636778D01*
X108820212Y-164636776D01*
X108596100Y-164543946D01*
X108596097Y-164543945D01*
X108596095Y-164543944D01*
X108361782Y-164481160D01*
X108121290Y-164449500D01*
X108121288Y-164449500D01*
X106078712Y-164449500D01*
X106078709Y-164449500D01*
X105838217Y-164481160D01*
X105603904Y-164543944D01*
X105603900Y-164543946D01*
X105379786Y-164636777D01*
X105379775Y-164636782D01*
X105169714Y-164758061D01*
X104977262Y-164905735D01*
X104977251Y-164905744D01*
X104805744Y-165077251D01*
X104805735Y-165077262D01*
X104658061Y-165269714D01*
X104536782Y-165479775D01*
X104536777Y-165479786D01*
X104443946Y-165703900D01*
X104443944Y-165703904D01*
X104381160Y-165938217D01*
X104349500Y-166178709D01*
X100100500Y-166178709D01*
X100100500Y-153340306D01*
X104549500Y-153340306D01*
X104549500Y-153659693D01*
X104580802Y-153977508D01*
X104580804Y-153977523D01*
X104643111Y-154290760D01*
X104735820Y-154596381D01*
X104735821Y-154596385D01*
X104858039Y-154891444D01*
X105008592Y-155173108D01*
X105186020Y-155438649D01*
X105186031Y-155438664D01*
X105388628Y-155685528D01*
X105388646Y-155685548D01*
X105614451Y-155911353D01*
X105614461Y-155911362D01*
X105614465Y-155911366D01*
X105861344Y-156113975D01*
X106126894Y-156291409D01*
X106408556Y-156441961D01*
X106703619Y-156564180D01*
X107009240Y-156656889D01*
X107322477Y-156719196D01*
X107640313Y-156750500D01*
X107640322Y-156750500D01*
X107959678Y-156750500D01*
X107959687Y-156750500D01*
X108277523Y-156719196D01*
X108590760Y-156656889D01*
X108896381Y-156564180D01*
X109191444Y-156441961D01*
X109473106Y-156291409D01*
X109738656Y-156113975D01*
X109985535Y-155911366D01*
X110211366Y-155685535D01*
X110413975Y-155438656D01*
X110591409Y-155173106D01*
X110741961Y-154891444D01*
X110864180Y-154596381D01*
X110956889Y-154290760D01*
X111019196Y-153977523D01*
X111050500Y-153659687D01*
X111050500Y-153340313D01*
X111050499Y-153340306D01*
X115649500Y-153340306D01*
X115649500Y-153659693D01*
X115680802Y-153977508D01*
X115680804Y-153977523D01*
X115743111Y-154290760D01*
X115835820Y-154596381D01*
X115835821Y-154596385D01*
X115958039Y-154891444D01*
X116108592Y-155173108D01*
X116286020Y-155438649D01*
X116286031Y-155438664D01*
X116488628Y-155685528D01*
X116488646Y-155685548D01*
X116714451Y-155911353D01*
X116714461Y-155911362D01*
X116714465Y-155911366D01*
X116961344Y-156113975D01*
X117226894Y-156291409D01*
X117508556Y-156441961D01*
X117803619Y-156564180D01*
X118109240Y-156656889D01*
X118422477Y-156719196D01*
X118740313Y-156750500D01*
X118740322Y-156750500D01*
X119059678Y-156750500D01*
X119059687Y-156750500D01*
X119377523Y-156719196D01*
X119690760Y-156656889D01*
X119996381Y-156564180D01*
X120291444Y-156441961D01*
X120573106Y-156291409D01*
X120838656Y-156113975D01*
X121085535Y-155911366D01*
X121311366Y-155685535D01*
X121513975Y-155438656D01*
X121691409Y-155173106D01*
X121841961Y-154891444D01*
X121964180Y-154596381D01*
X122056889Y-154290760D01*
X122119196Y-153977523D01*
X122150500Y-153659687D01*
X122150500Y-153340313D01*
X122150499Y-153340306D01*
X126749500Y-153340306D01*
X126749500Y-153659693D01*
X126780802Y-153977508D01*
X126780804Y-153977523D01*
X126843111Y-154290760D01*
X126935820Y-154596381D01*
X126935821Y-154596385D01*
X127058039Y-154891444D01*
X127208592Y-155173108D01*
X127386020Y-155438649D01*
X127386031Y-155438664D01*
X127588628Y-155685528D01*
X127588646Y-155685548D01*
X127814451Y-155911353D01*
X127814461Y-155911362D01*
X127814465Y-155911366D01*
X128061344Y-156113975D01*
X128326894Y-156291409D01*
X128608556Y-156441961D01*
X128903619Y-156564180D01*
X129209240Y-156656889D01*
X129522477Y-156719196D01*
X129840313Y-156750500D01*
X129840322Y-156750500D01*
X130159678Y-156750500D01*
X130159687Y-156750500D01*
X130477523Y-156719196D01*
X130790760Y-156656889D01*
X131096381Y-156564180D01*
X131391444Y-156441961D01*
X131673106Y-156291409D01*
X131938656Y-156113975D01*
X132185535Y-155911366D01*
X132411366Y-155685535D01*
X132613975Y-155438656D01*
X132791409Y-155173106D01*
X132941961Y-154891444D01*
X133064180Y-154596381D01*
X133156889Y-154290760D01*
X133219196Y-153977523D01*
X133250500Y-153659687D01*
X133250500Y-153340313D01*
X133250499Y-153340306D01*
X138449500Y-153340306D01*
X138449500Y-153659693D01*
X138480802Y-153977508D01*
X138480804Y-153977523D01*
X138543111Y-154290760D01*
X138635820Y-154596381D01*
X138635821Y-154596385D01*
X138758039Y-154891444D01*
X138908592Y-155173108D01*
X139086020Y-155438649D01*
X139086031Y-155438664D01*
X139288628Y-155685528D01*
X139288646Y-155685548D01*
X139514451Y-155911353D01*
X139514461Y-155911362D01*
X139514465Y-155911366D01*
X139761344Y-156113975D01*
X140026894Y-156291409D01*
X140308556Y-156441961D01*
X140603619Y-156564180D01*
X140909240Y-156656889D01*
X141222477Y-156719196D01*
X141540313Y-156750500D01*
X141540322Y-156750500D01*
X141859678Y-156750500D01*
X141859687Y-156750500D01*
X142177523Y-156719196D01*
X142490760Y-156656889D01*
X142796381Y-156564180D01*
X143091444Y-156441961D01*
X143373106Y-156291409D01*
X143638656Y-156113975D01*
X143885535Y-155911366D01*
X144111366Y-155685535D01*
X144313975Y-155438656D01*
X144491409Y-155173106D01*
X144641961Y-154891444D01*
X144764180Y-154596381D01*
X144856889Y-154290760D01*
X144919196Y-153977523D01*
X144950500Y-153659687D01*
X144950500Y-153340313D01*
X144950499Y-153340306D01*
X148949500Y-153340306D01*
X148949500Y-153659693D01*
X148980802Y-153977508D01*
X148980804Y-153977523D01*
X149043111Y-154290760D01*
X149135820Y-154596381D01*
X149135821Y-154596385D01*
X149258039Y-154891444D01*
X149408592Y-155173108D01*
X149586020Y-155438649D01*
X149586031Y-155438664D01*
X149788628Y-155685528D01*
X149788646Y-155685548D01*
X150014451Y-155911353D01*
X150014461Y-155911362D01*
X150014465Y-155911366D01*
X150261344Y-156113975D01*
X150526894Y-156291409D01*
X150808556Y-156441961D01*
X151103619Y-156564180D01*
X151409240Y-156656889D01*
X151722477Y-156719196D01*
X152040313Y-156750500D01*
X152040322Y-156750500D01*
X152359678Y-156750500D01*
X152359687Y-156750500D01*
X152677523Y-156719196D01*
X152990760Y-156656889D01*
X153296381Y-156564180D01*
X153591444Y-156441961D01*
X153873106Y-156291409D01*
X154138656Y-156113975D01*
X154385535Y-155911366D01*
X154611366Y-155685535D01*
X154813975Y-155438656D01*
X154991409Y-155173106D01*
X155141961Y-154891444D01*
X155264180Y-154596381D01*
X155356889Y-154290760D01*
X155419196Y-153977523D01*
X155450500Y-153659687D01*
X155450500Y-153340313D01*
X155419196Y-153022477D01*
X155356889Y-152709240D01*
X155264180Y-152403619D01*
X155141961Y-152108556D01*
X154991409Y-151826894D01*
X154813975Y-151561344D01*
X154611366Y-151314465D01*
X154611362Y-151314461D01*
X154611353Y-151314451D01*
X154385548Y-151088646D01*
X154385528Y-151088628D01*
X154138664Y-150886031D01*
X154138649Y-150886020D01*
X153873108Y-150708592D01*
X153591444Y-150558039D01*
X153296385Y-150435821D01*
X153296381Y-150435820D01*
X152990760Y-150343111D01*
X152781935Y-150301573D01*
X152677524Y-150280804D01*
X152677508Y-150280802D01*
X152359693Y-150249500D01*
X152359687Y-150249500D01*
X152040313Y-150249500D01*
X152040306Y-150249500D01*
X151722491Y-150280802D01*
X151722475Y-150280804D01*
X151513652Y-150322342D01*
X151409240Y-150343111D01*
X151256429Y-150389465D01*
X151103618Y-150435820D01*
X151103614Y-150435821D01*
X150808555Y-150558039D01*
X150526891Y-150708592D01*
X150261350Y-150886020D01*
X150261335Y-150886031D01*
X150014471Y-151088628D01*
X150014451Y-151088646D01*
X149788646Y-151314451D01*
X149788628Y-151314471D01*
X149586031Y-151561335D01*
X149586020Y-151561350D01*
X149408592Y-151826891D01*
X149258039Y-152108555D01*
X149135821Y-152403614D01*
X149135820Y-152403618D01*
X149043111Y-152709241D01*
X148980804Y-153022475D01*
X148980802Y-153022491D01*
X148949500Y-153340306D01*
X144950499Y-153340306D01*
X144919196Y-153022477D01*
X144856889Y-152709240D01*
X144764180Y-152403619D01*
X144641961Y-152108556D01*
X144491409Y-151826894D01*
X144313975Y-151561344D01*
X144111366Y-151314465D01*
X144111362Y-151314461D01*
X144111353Y-151314451D01*
X143885548Y-151088646D01*
X143885528Y-151088628D01*
X143638664Y-150886031D01*
X143638649Y-150886020D01*
X143373108Y-150708592D01*
X143091444Y-150558039D01*
X142796385Y-150435821D01*
X142796381Y-150435820D01*
X142490760Y-150343111D01*
X142281935Y-150301573D01*
X142177524Y-150280804D01*
X142177508Y-150280802D01*
X141859693Y-150249500D01*
X141859687Y-150249500D01*
X141540313Y-150249500D01*
X141540306Y-150249500D01*
X141222491Y-150280802D01*
X141222475Y-150280804D01*
X141013652Y-150322342D01*
X140909240Y-150343111D01*
X140756429Y-150389465D01*
X140603618Y-150435820D01*
X140603614Y-150435821D01*
X140308555Y-150558039D01*
X140026891Y-150708592D01*
X139761350Y-150886020D01*
X139761335Y-150886031D01*
X139514471Y-151088628D01*
X139514451Y-151088646D01*
X139288646Y-151314451D01*
X139288628Y-151314471D01*
X139086031Y-151561335D01*
X139086020Y-151561350D01*
X138908592Y-151826891D01*
X138758039Y-152108555D01*
X138635821Y-152403614D01*
X138635820Y-152403618D01*
X138543111Y-152709241D01*
X138480804Y-153022475D01*
X138480802Y-153022491D01*
X138449500Y-153340306D01*
X133250499Y-153340306D01*
X133219196Y-153022477D01*
X133156889Y-152709240D01*
X133064180Y-152403619D01*
X132941961Y-152108556D01*
X132791409Y-151826894D01*
X132613975Y-151561344D01*
X132411366Y-151314465D01*
X132411362Y-151314461D01*
X132411353Y-151314451D01*
X132185548Y-151088646D01*
X132185528Y-151088628D01*
X131938664Y-150886031D01*
X131938649Y-150886020D01*
X131673108Y-150708592D01*
X131391444Y-150558039D01*
X131096385Y-150435821D01*
X131096381Y-150435820D01*
X130790760Y-150343111D01*
X130581935Y-150301573D01*
X130477524Y-150280804D01*
X130477508Y-150280802D01*
X130159693Y-150249500D01*
X130159687Y-150249500D01*
X129840313Y-150249500D01*
X129840306Y-150249500D01*
X129522491Y-150280802D01*
X129522475Y-150280804D01*
X129313652Y-150322342D01*
X129209240Y-150343111D01*
X129056429Y-150389465D01*
X128903618Y-150435820D01*
X128903614Y-150435821D01*
X128608555Y-150558039D01*
X128326891Y-150708592D01*
X128061350Y-150886020D01*
X128061335Y-150886031D01*
X127814471Y-151088628D01*
X127814451Y-151088646D01*
X127588646Y-151314451D01*
X127588628Y-151314471D01*
X127386031Y-151561335D01*
X127386020Y-151561350D01*
X127208592Y-151826891D01*
X127058039Y-152108555D01*
X126935821Y-152403614D01*
X126935820Y-152403618D01*
X126843111Y-152709241D01*
X126780804Y-153022475D01*
X126780802Y-153022491D01*
X126749500Y-153340306D01*
X122150499Y-153340306D01*
X122119196Y-153022477D01*
X122056889Y-152709240D01*
X121964180Y-152403619D01*
X121841961Y-152108556D01*
X121691409Y-151826894D01*
X121513975Y-151561344D01*
X121311366Y-151314465D01*
X121311362Y-151314461D01*
X121311353Y-151314451D01*
X121085548Y-151088646D01*
X121085528Y-151088628D01*
X120838664Y-150886031D01*
X120838649Y-150886020D01*
X120573108Y-150708592D01*
X120291444Y-150558039D01*
X119996385Y-150435821D01*
X119996381Y-150435820D01*
X119690760Y-150343111D01*
X119481935Y-150301573D01*
X119377524Y-150280804D01*
X119377508Y-150280802D01*
X119059693Y-150249500D01*
X119059687Y-150249500D01*
X118740313Y-150249500D01*
X118740306Y-150249500D01*
X118422491Y-150280802D01*
X118422475Y-150280804D01*
X118213652Y-150322342D01*
X118109240Y-150343111D01*
X117956429Y-150389465D01*
X117803618Y-150435820D01*
X117803614Y-150435821D01*
X117508555Y-150558039D01*
X117226891Y-150708592D01*
X116961350Y-150886020D01*
X116961335Y-150886031D01*
X116714471Y-151088628D01*
X116714451Y-151088646D01*
X116488646Y-151314451D01*
X116488628Y-151314471D01*
X116286031Y-151561335D01*
X116286020Y-151561350D01*
X116108592Y-151826891D01*
X115958039Y-152108555D01*
X115835821Y-152403614D01*
X115835820Y-152403618D01*
X115743111Y-152709241D01*
X115680804Y-153022475D01*
X115680802Y-153022491D01*
X115649500Y-153340306D01*
X111050499Y-153340306D01*
X111019196Y-153022477D01*
X110956889Y-152709240D01*
X110864180Y-152403619D01*
X110741961Y-152108556D01*
X110591409Y-151826894D01*
X110413975Y-151561344D01*
X110211366Y-151314465D01*
X110211362Y-151314461D01*
X110211353Y-151314451D01*
X109985548Y-151088646D01*
X109985528Y-151088628D01*
X109738664Y-150886031D01*
X109738649Y-150886020D01*
X109473108Y-150708592D01*
X109191444Y-150558039D01*
X108896385Y-150435821D01*
X108896381Y-150435820D01*
X108590760Y-150343111D01*
X108381935Y-150301573D01*
X108277524Y-150280804D01*
X108277508Y-150280802D01*
X107959693Y-150249500D01*
X107959687Y-150249500D01*
X107640313Y-150249500D01*
X107640306Y-150249500D01*
X107322491Y-150280802D01*
X107322475Y-150280804D01*
X107113652Y-150322342D01*
X107009240Y-150343111D01*
X106856429Y-150389465D01*
X106703618Y-150435820D01*
X106703614Y-150435821D01*
X106408555Y-150558039D01*
X106126891Y-150708592D01*
X105861350Y-150886020D01*
X105861335Y-150886031D01*
X105614471Y-151088628D01*
X105614451Y-151088646D01*
X105388646Y-151314451D01*
X105388628Y-151314471D01*
X105186031Y-151561335D01*
X105186020Y-151561350D01*
X105008592Y-151826891D01*
X104858039Y-152108555D01*
X104735821Y-152403614D01*
X104735820Y-152403618D01*
X104643111Y-152709241D01*
X104580804Y-153022475D01*
X104580802Y-153022491D01*
X104549500Y-153340306D01*
X100100500Y-153340306D01*
X100100500Y-139840306D01*
X104549500Y-139840306D01*
X104549500Y-140159693D01*
X104580802Y-140477508D01*
X104580804Y-140477523D01*
X104643111Y-140790760D01*
X104735820Y-141096381D01*
X104735821Y-141096385D01*
X104858039Y-141391444D01*
X105008592Y-141673108D01*
X105186020Y-141938649D01*
X105186031Y-141938664D01*
X105388628Y-142185528D01*
X105388646Y-142185548D01*
X105614451Y-142411353D01*
X105614461Y-142411362D01*
X105614465Y-142411366D01*
X105861344Y-142613975D01*
X106126894Y-142791409D01*
X106408556Y-142941961D01*
X106703619Y-143064180D01*
X107009240Y-143156889D01*
X107322477Y-143219196D01*
X107640313Y-143250500D01*
X107640322Y-143250500D01*
X107959678Y-143250500D01*
X107959687Y-143250500D01*
X108277523Y-143219196D01*
X108590760Y-143156889D01*
X108896381Y-143064180D01*
X109191444Y-142941961D01*
X109473106Y-142791409D01*
X109738656Y-142613975D01*
X109985535Y-142411366D01*
X110211366Y-142185535D01*
X110413975Y-141938656D01*
X110591409Y-141673106D01*
X110741961Y-141391444D01*
X110864180Y-141096381D01*
X110956889Y-140790760D01*
X111019196Y-140477523D01*
X111050500Y-140159687D01*
X111050500Y-139840313D01*
X111050499Y-139840306D01*
X115649500Y-139840306D01*
X115649500Y-140159693D01*
X115680802Y-140477508D01*
X115680804Y-140477523D01*
X115743111Y-140790760D01*
X115835820Y-141096381D01*
X115835821Y-141096385D01*
X115958039Y-141391444D01*
X116108592Y-141673108D01*
X116286020Y-141938649D01*
X116286031Y-141938664D01*
X116488628Y-142185528D01*
X116488646Y-142185548D01*
X116714451Y-142411353D01*
X116714461Y-142411362D01*
X116714465Y-142411366D01*
X116961344Y-142613975D01*
X117226894Y-142791409D01*
X117508556Y-142941961D01*
X117803619Y-143064180D01*
X118109240Y-143156889D01*
X118422477Y-143219196D01*
X118740313Y-143250500D01*
X118740322Y-143250500D01*
X119059678Y-143250500D01*
X119059687Y-143250500D01*
X119377523Y-143219196D01*
X119690760Y-143156889D01*
X119996381Y-143064180D01*
X120291444Y-142941961D01*
X120573106Y-142791409D01*
X120838656Y-142613975D01*
X121085535Y-142411366D01*
X121311366Y-142185535D01*
X121513975Y-141938656D01*
X121691409Y-141673106D01*
X121841961Y-141391444D01*
X121964180Y-141096381D01*
X122056889Y-140790760D01*
X122119196Y-140477523D01*
X122150500Y-140159687D01*
X122150500Y-139840313D01*
X122150499Y-139840306D01*
X126749500Y-139840306D01*
X126749500Y-140159693D01*
X126780802Y-140477508D01*
X126780804Y-140477523D01*
X126843111Y-140790760D01*
X126935820Y-141096381D01*
X126935821Y-141096385D01*
X127058039Y-141391444D01*
X127208592Y-141673108D01*
X127386020Y-141938649D01*
X127386031Y-141938664D01*
X127588628Y-142185528D01*
X127588646Y-142185548D01*
X127814451Y-142411353D01*
X127814461Y-142411362D01*
X127814465Y-142411366D01*
X128061344Y-142613975D01*
X128326894Y-142791409D01*
X128608556Y-142941961D01*
X128903619Y-143064180D01*
X129209240Y-143156889D01*
X129522477Y-143219196D01*
X129840313Y-143250500D01*
X129840322Y-143250500D01*
X130159678Y-143250500D01*
X130159687Y-143250500D01*
X130477523Y-143219196D01*
X130790760Y-143156889D01*
X131096381Y-143064180D01*
X131391444Y-142941961D01*
X131673106Y-142791409D01*
X131938656Y-142613975D01*
X132185535Y-142411366D01*
X132411366Y-142185535D01*
X132613975Y-141938656D01*
X132791409Y-141673106D01*
X132941961Y-141391444D01*
X133064180Y-141096381D01*
X133156889Y-140790760D01*
X133219196Y-140477523D01*
X133250500Y-140159687D01*
X133250500Y-139840313D01*
X133250499Y-139840306D01*
X138449500Y-139840306D01*
X138449500Y-140159693D01*
X138480802Y-140477508D01*
X138480804Y-140477523D01*
X138543111Y-140790760D01*
X138635820Y-141096381D01*
X138635821Y-141096385D01*
X138758039Y-141391444D01*
X138908592Y-141673108D01*
X139086020Y-141938649D01*
X139086031Y-141938664D01*
X139288628Y-142185528D01*
X139288646Y-142185548D01*
X139514451Y-142411353D01*
X139514461Y-142411362D01*
X139514465Y-142411366D01*
X139761344Y-142613975D01*
X140026894Y-142791409D01*
X140308556Y-142941961D01*
X140603619Y-143064180D01*
X140909240Y-143156889D01*
X141222477Y-143219196D01*
X141540313Y-143250500D01*
X141540322Y-143250500D01*
X141859678Y-143250500D01*
X141859687Y-143250500D01*
X142177523Y-143219196D01*
X142490760Y-143156889D01*
X142796381Y-143064180D01*
X143091444Y-142941961D01*
X143373106Y-142791409D01*
X143638656Y-142613975D01*
X143885535Y-142411366D01*
X144111366Y-142185535D01*
X144313975Y-141938656D01*
X144491409Y-141673106D01*
X144641961Y-141391444D01*
X144764180Y-141096381D01*
X144856889Y-140790760D01*
X144919196Y-140477523D01*
X144950500Y-140159687D01*
X144950500Y-139840313D01*
X144950499Y-139840306D01*
X148949500Y-139840306D01*
X148949500Y-140159693D01*
X148980802Y-140477508D01*
X148980804Y-140477523D01*
X149043111Y-140790760D01*
X149135820Y-141096381D01*
X149135821Y-141096385D01*
X149258039Y-141391444D01*
X149408592Y-141673108D01*
X149586020Y-141938649D01*
X149586031Y-141938664D01*
X149788628Y-142185528D01*
X149788646Y-142185548D01*
X150014451Y-142411353D01*
X150014461Y-142411362D01*
X150014465Y-142411366D01*
X150261344Y-142613975D01*
X150526894Y-142791409D01*
X150808556Y-142941961D01*
X151103619Y-143064180D01*
X151409240Y-143156889D01*
X151722477Y-143219196D01*
X152040313Y-143250500D01*
X152040322Y-143250500D01*
X152359678Y-143250500D01*
X152359687Y-143250500D01*
X152677523Y-143219196D01*
X152990760Y-143156889D01*
X153296381Y-143064180D01*
X153591444Y-142941961D01*
X153873106Y-142791409D01*
X154138656Y-142613975D01*
X154385535Y-142411366D01*
X154611366Y-142185535D01*
X154813975Y-141938656D01*
X154991409Y-141673106D01*
X155141961Y-141391444D01*
X155264180Y-141096381D01*
X155356889Y-140790760D01*
X155419196Y-140477523D01*
X155450500Y-140159687D01*
X155450500Y-139840313D01*
X155419196Y-139522477D01*
X155356889Y-139209240D01*
X155264180Y-138903619D01*
X155141961Y-138608556D01*
X154991409Y-138326894D01*
X154813975Y-138061344D01*
X154611366Y-137814465D01*
X154611362Y-137814461D01*
X154611353Y-137814451D01*
X154385548Y-137588646D01*
X154385528Y-137588628D01*
X154138664Y-137386031D01*
X154138649Y-137386020D01*
X153873108Y-137208592D01*
X153591444Y-137058039D01*
X153296385Y-136935821D01*
X153296381Y-136935820D01*
X152990760Y-136843111D01*
X152781935Y-136801573D01*
X152677524Y-136780804D01*
X152677508Y-136780802D01*
X152359693Y-136749500D01*
X152359687Y-136749500D01*
X152040313Y-136749500D01*
X152040306Y-136749500D01*
X151722491Y-136780802D01*
X151722475Y-136780804D01*
X151513652Y-136822342D01*
X151409240Y-136843111D01*
X151256429Y-136889465D01*
X151103618Y-136935820D01*
X151103614Y-136935821D01*
X150808555Y-137058039D01*
X150526891Y-137208592D01*
X150261350Y-137386020D01*
X150261335Y-137386031D01*
X150014471Y-137588628D01*
X150014451Y-137588646D01*
X149788646Y-137814451D01*
X149788628Y-137814471D01*
X149586031Y-138061335D01*
X149586020Y-138061350D01*
X149408592Y-138326891D01*
X149258039Y-138608555D01*
X149135821Y-138903614D01*
X149135820Y-138903618D01*
X149043111Y-139209241D01*
X148980804Y-139522475D01*
X148980802Y-139522491D01*
X148949500Y-139840306D01*
X144950499Y-139840306D01*
X144919196Y-139522477D01*
X144856889Y-139209240D01*
X144764180Y-138903619D01*
X144641961Y-138608556D01*
X144491409Y-138326894D01*
X144313975Y-138061344D01*
X144111366Y-137814465D01*
X144111362Y-137814461D01*
X144111353Y-137814451D01*
X143885548Y-137588646D01*
X143885528Y-137588628D01*
X143638664Y-137386031D01*
X143638649Y-137386020D01*
X143373108Y-137208592D01*
X143091444Y-137058039D01*
X142796385Y-136935821D01*
X142796381Y-136935820D01*
X142490760Y-136843111D01*
X142281935Y-136801573D01*
X142177524Y-136780804D01*
X142177508Y-136780802D01*
X141859693Y-136749500D01*
X141859687Y-136749500D01*
X141540313Y-136749500D01*
X141540306Y-136749500D01*
X141222491Y-136780802D01*
X141222475Y-136780804D01*
X141013652Y-136822342D01*
X140909240Y-136843111D01*
X140756429Y-136889465D01*
X140603618Y-136935820D01*
X140603614Y-136935821D01*
X140308555Y-137058039D01*
X140026891Y-137208592D01*
X139761350Y-137386020D01*
X139761335Y-137386031D01*
X139514471Y-137588628D01*
X139514451Y-137588646D01*
X139288646Y-137814451D01*
X139288628Y-137814471D01*
X139086031Y-138061335D01*
X139086020Y-138061350D01*
X138908592Y-138326891D01*
X138758039Y-138608555D01*
X138635821Y-138903614D01*
X138635820Y-138903618D01*
X138543111Y-139209241D01*
X138480804Y-139522475D01*
X138480802Y-139522491D01*
X138449500Y-139840306D01*
X133250499Y-139840306D01*
X133219196Y-139522477D01*
X133156889Y-139209240D01*
X133064180Y-138903619D01*
X132941961Y-138608556D01*
X132791409Y-138326894D01*
X132613975Y-138061344D01*
X132411366Y-137814465D01*
X132411362Y-137814461D01*
X132411353Y-137814451D01*
X132185548Y-137588646D01*
X132185528Y-137588628D01*
X131938664Y-137386031D01*
X131938649Y-137386020D01*
X131673108Y-137208592D01*
X131391444Y-137058039D01*
X131096385Y-136935821D01*
X131096381Y-136935820D01*
X130790760Y-136843111D01*
X130581935Y-136801573D01*
X130477524Y-136780804D01*
X130477508Y-136780802D01*
X130159693Y-136749500D01*
X130159687Y-136749500D01*
X129840313Y-136749500D01*
X129840306Y-136749500D01*
X129522491Y-136780802D01*
X129522475Y-136780804D01*
X129313652Y-136822342D01*
X129209240Y-136843111D01*
X129056429Y-136889465D01*
X128903618Y-136935820D01*
X128903614Y-136935821D01*
X128608555Y-137058039D01*
X128326891Y-137208592D01*
X128061350Y-137386020D01*
X128061335Y-137386031D01*
X127814471Y-137588628D01*
X127814451Y-137588646D01*
X127588646Y-137814451D01*
X127588628Y-137814471D01*
X127386031Y-138061335D01*
X127386020Y-138061350D01*
X127208592Y-138326891D01*
X127058039Y-138608555D01*
X126935821Y-138903614D01*
X126935820Y-138903618D01*
X126843111Y-139209241D01*
X126780804Y-139522475D01*
X126780802Y-139522491D01*
X126749500Y-139840306D01*
X122150499Y-139840306D01*
X122119196Y-139522477D01*
X122056889Y-139209240D01*
X121964180Y-138903619D01*
X121841961Y-138608556D01*
X121691409Y-138326894D01*
X121513975Y-138061344D01*
X121311366Y-137814465D01*
X121311362Y-137814461D01*
X121311353Y-137814451D01*
X121085548Y-137588646D01*
X121085528Y-137588628D01*
X120838664Y-137386031D01*
X120838649Y-137386020D01*
X120573108Y-137208592D01*
X120291444Y-137058039D01*
X119996385Y-136935821D01*
X119996381Y-136935820D01*
X119690760Y-136843111D01*
X119481935Y-136801573D01*
X119377524Y-136780804D01*
X119377508Y-136780802D01*
X119059693Y-136749500D01*
X119059687Y-136749500D01*
X118740313Y-136749500D01*
X118740306Y-136749500D01*
X118422491Y-136780802D01*
X118422475Y-136780804D01*
X118213652Y-136822342D01*
X118109240Y-136843111D01*
X117956429Y-136889465D01*
X117803618Y-136935820D01*
X117803614Y-136935821D01*
X117508555Y-137058039D01*
X117226891Y-137208592D01*
X116961350Y-137386020D01*
X116961335Y-137386031D01*
X116714471Y-137588628D01*
X116714451Y-137588646D01*
X116488646Y-137814451D01*
X116488628Y-137814471D01*
X116286031Y-138061335D01*
X116286020Y-138061350D01*
X116108592Y-138326891D01*
X115958039Y-138608555D01*
X115835821Y-138903614D01*
X115835820Y-138903618D01*
X115743111Y-139209241D01*
X115680804Y-139522475D01*
X115680802Y-139522491D01*
X115649500Y-139840306D01*
X111050499Y-139840306D01*
X111019196Y-139522477D01*
X110956889Y-139209240D01*
X110864180Y-138903619D01*
X110741961Y-138608556D01*
X110591409Y-138326894D01*
X110413975Y-138061344D01*
X110211366Y-137814465D01*
X110211362Y-137814461D01*
X110211353Y-137814451D01*
X109985548Y-137588646D01*
X109985528Y-137588628D01*
X109738664Y-137386031D01*
X109738649Y-137386020D01*
X109473108Y-137208592D01*
X109191444Y-137058039D01*
X108896385Y-136935821D01*
X108896381Y-136935820D01*
X108590760Y-136843111D01*
X108381935Y-136801573D01*
X108277524Y-136780804D01*
X108277508Y-136780802D01*
X107959693Y-136749500D01*
X107959687Y-136749500D01*
X107640313Y-136749500D01*
X107640306Y-136749500D01*
X107322491Y-136780802D01*
X107322475Y-136780804D01*
X107113652Y-136822342D01*
X107009240Y-136843111D01*
X106856429Y-136889465D01*
X106703618Y-136935820D01*
X106703614Y-136935821D01*
X106408555Y-137058039D01*
X106126891Y-137208592D01*
X105861350Y-137386020D01*
X105861335Y-137386031D01*
X105614471Y-137588628D01*
X105614451Y-137588646D01*
X105388646Y-137814451D01*
X105388628Y-137814471D01*
X105186031Y-138061335D01*
X105186020Y-138061350D01*
X105008592Y-138326891D01*
X104858039Y-138608555D01*
X104735821Y-138903614D01*
X104735820Y-138903618D01*
X104643111Y-139209241D01*
X104580804Y-139522475D01*
X104580802Y-139522491D01*
X104549500Y-139840306D01*
X100100500Y-139840306D01*
X100100500Y-118615743D01*
X126849500Y-118615743D01*
X126849500Y-118984256D01*
X126885617Y-119350961D01*
X126885620Y-119350981D01*
X126957506Y-119712382D01*
X127064480Y-120065029D01*
X127064481Y-120065033D01*
X127205499Y-120405479D01*
X127379210Y-120730470D01*
X127583932Y-121036858D01*
X127583943Y-121036873D01*
X127817705Y-121321712D01*
X127817723Y-121321732D01*
X128078267Y-121582276D01*
X128078287Y-121582294D01*
X128230124Y-121706904D01*
X128363135Y-121816063D01*
X128669532Y-122020791D01*
X128994521Y-122194501D01*
X129334971Y-122335520D01*
X129687604Y-122442490D01*
X129687613Y-122442491D01*
X129687617Y-122442493D01*
X129810230Y-122466881D01*
X130049024Y-122514381D01*
X130415750Y-122550500D01*
X130415759Y-122550500D01*
X130784241Y-122550500D01*
X130784250Y-122550500D01*
X131150976Y-122514381D01*
X131448660Y-122455167D01*
X131512382Y-122442493D01*
X131512384Y-122442492D01*
X131512396Y-122442490D01*
X131865029Y-122335520D01*
X132205479Y-122194501D01*
X132530468Y-122020791D01*
X132836865Y-121816063D01*
X133121719Y-121582289D01*
X133382289Y-121321719D01*
X133616063Y-121036865D01*
X133620329Y-121030481D01*
X146049500Y-121030481D01*
X146049500Y-121369518D01*
X146082728Y-121706889D01*
X146082730Y-121706905D01*
X146148871Y-122039414D01*
X146247282Y-122363835D01*
X146247285Y-122363844D01*
X146377023Y-122677058D01*
X146536839Y-122976053D01*
X146725185Y-123257932D01*
X146725196Y-123257947D01*
X146940259Y-123520003D01*
X146940277Y-123520022D01*
X147179977Y-123759722D01*
X147179996Y-123759740D01*
X147442052Y-123974803D01*
X147442061Y-123974810D01*
X147723949Y-124163162D01*
X148022942Y-124322977D01*
X148336160Y-124452716D01*
X148660586Y-124551129D01*
X148993096Y-124617270D01*
X149330488Y-124650500D01*
X149330497Y-124650500D01*
X149669503Y-124650500D01*
X149669512Y-124650500D01*
X150006904Y-124617270D01*
X150339414Y-124551129D01*
X150663840Y-124452716D01*
X150977058Y-124322977D01*
X151276051Y-124163162D01*
X151557939Y-123974810D01*
X151820009Y-123759735D01*
X152059735Y-123520009D01*
X152274810Y-123257939D01*
X152463162Y-122976051D01*
X152622977Y-122677058D01*
X152752716Y-122363840D01*
X152851129Y-122039414D01*
X152917270Y-121706904D01*
X152950500Y-121369512D01*
X152950500Y-121030488D01*
X152917270Y-120693096D01*
X152851129Y-120360586D01*
X152752716Y-120036160D01*
X152622977Y-119722942D01*
X152463162Y-119423949D01*
X152274810Y-119142061D01*
X152274803Y-119142052D01*
X152059740Y-118879996D01*
X152059722Y-118879977D01*
X151820022Y-118640277D01*
X151820003Y-118640259D01*
X151557947Y-118425196D01*
X151557932Y-118425185D01*
X151276053Y-118236839D01*
X150977058Y-118077023D01*
X150663844Y-117947285D01*
X150663835Y-117947282D01*
X150339414Y-117848871D01*
X150339415Y-117848871D01*
X150006905Y-117782730D01*
X150006889Y-117782728D01*
X149669518Y-117749500D01*
X149669512Y-117749500D01*
X149330488Y-117749500D01*
X149330481Y-117749500D01*
X148993110Y-117782728D01*
X148993094Y-117782730D01*
X148660585Y-117848871D01*
X148336164Y-117947282D01*
X148336155Y-117947285D01*
X148022941Y-118077023D01*
X147723946Y-118236839D01*
X147442067Y-118425185D01*
X147442052Y-118425196D01*
X147179996Y-118640259D01*
X147179977Y-118640277D01*
X146940277Y-118879977D01*
X146940259Y-118879996D01*
X146725196Y-119142052D01*
X146725185Y-119142067D01*
X146536839Y-119423946D01*
X146377023Y-119722941D01*
X146247285Y-120036155D01*
X146247282Y-120036164D01*
X146148871Y-120360585D01*
X146082730Y-120693094D01*
X146082728Y-120693110D01*
X146049500Y-121030481D01*
X133620329Y-121030481D01*
X133820791Y-120730468D01*
X133994501Y-120405479D01*
X134135520Y-120065029D01*
X134242490Y-119712396D01*
X134314381Y-119350976D01*
X134350500Y-118984250D01*
X134350500Y-118615750D01*
X134314381Y-118249024D01*
X134266881Y-118010230D01*
X134242493Y-117887617D01*
X134242491Y-117887613D01*
X134242490Y-117887604D01*
X134135520Y-117534971D01*
X133994501Y-117194521D01*
X133820791Y-116869532D01*
X133616063Y-116563135D01*
X133382289Y-116278281D01*
X133382285Y-116278277D01*
X133382276Y-116278267D01*
X133121732Y-116017723D01*
X133121712Y-116017705D01*
X132836873Y-115783943D01*
X132836858Y-115783932D01*
X132530470Y-115579210D01*
X132205479Y-115405499D01*
X131865033Y-115264481D01*
X131865029Y-115264480D01*
X131512396Y-115157510D01*
X131512393Y-115157509D01*
X131512382Y-115157506D01*
X131150981Y-115085620D01*
X131150976Y-115085619D01*
X131150971Y-115085618D01*
X131150961Y-115085617D01*
X130784256Y-115049500D01*
X130784250Y-115049500D01*
X130415750Y-115049500D01*
X130415743Y-115049500D01*
X130049038Y-115085617D01*
X130049025Y-115085618D01*
X130049024Y-115085619D01*
X130049021Y-115085619D01*
X130049018Y-115085620D01*
X129687617Y-115157506D01*
X129334970Y-115264480D01*
X129334966Y-115264481D01*
X128994520Y-115405499D01*
X128669529Y-115579210D01*
X128363141Y-115783932D01*
X128363126Y-115783943D01*
X128078287Y-116017705D01*
X128078267Y-116017723D01*
X127817723Y-116278267D01*
X127817705Y-116278287D01*
X127583943Y-116563126D01*
X127583932Y-116563141D01*
X127379210Y-116869529D01*
X127205499Y-117194520D01*
X127064481Y-117534966D01*
X127064480Y-117534970D01*
X126957506Y-117887617D01*
X126885620Y-118249018D01*
X126885617Y-118249038D01*
X126849500Y-118615743D01*
X100100500Y-118615743D01*
X100100500Y-112015743D01*
X106749500Y-112015743D01*
X106749500Y-112384256D01*
X106785617Y-112750961D01*
X106785620Y-112750981D01*
X106857506Y-113112382D01*
X106964480Y-113465029D01*
X106964481Y-113465033D01*
X107105499Y-113805479D01*
X107279210Y-114130470D01*
X107483932Y-114436858D01*
X107483943Y-114436873D01*
X107717705Y-114721712D01*
X107717723Y-114721732D01*
X107978267Y-114982276D01*
X107978287Y-114982294D01*
X108185779Y-115152579D01*
X108263135Y-115216063D01*
X108569532Y-115420791D01*
X108894521Y-115594501D01*
X109234971Y-115735520D01*
X109587604Y-115842490D01*
X109587613Y-115842491D01*
X109587617Y-115842493D01*
X109710230Y-115866881D01*
X109949024Y-115914381D01*
X110315750Y-115950500D01*
X110315759Y-115950500D01*
X110684241Y-115950500D01*
X110684250Y-115950500D01*
X111050976Y-115914381D01*
X111348660Y-115855167D01*
X111412382Y-115842493D01*
X111412384Y-115842492D01*
X111412396Y-115842490D01*
X111765029Y-115735520D01*
X112105479Y-115594501D01*
X112250921Y-115516761D01*
X118899999Y-115516761D01*
X119043025Y-116108490D01*
X119043025Y-116108491D01*
X119043026Y-116108492D01*
X119368617Y-116648145D01*
X119908933Y-116974421D01*
X120500000Y-117116762D01*
X121133527Y-116974406D01*
X121632199Y-116648961D01*
X122000523Y-116108940D01*
X122100000Y-115516762D01*
X121999441Y-114883905D01*
X121630809Y-114385953D01*
X121626396Y-114382696D01*
X121133224Y-114018725D01*
X120974917Y-113993234D01*
X120499999Y-113916762D01*
X120499997Y-113916762D01*
X120499996Y-113916762D01*
X119908938Y-114017991D01*
X119908937Y-114017992D01*
X119365934Y-114382695D01*
X119365931Y-114382699D01*
X119039506Y-114882444D01*
X119039504Y-114882448D01*
X118899999Y-115516761D01*
X112250921Y-115516761D01*
X112430468Y-115420791D01*
X112736865Y-115216063D01*
X113021719Y-114982289D01*
X113282289Y-114721719D01*
X113516063Y-114436865D01*
X113720791Y-114130468D01*
X113894501Y-113805479D01*
X113940289Y-113694936D01*
X147899999Y-113694936D01*
X148043025Y-114286665D01*
X148043025Y-114286666D01*
X148043026Y-114286667D01*
X148368617Y-114826320D01*
X148908933Y-115152596D01*
X149500000Y-115294937D01*
X150133527Y-115152581D01*
X150632199Y-114827136D01*
X151000523Y-114287115D01*
X151100000Y-113694937D01*
X150999441Y-113062080D01*
X150630809Y-112564128D01*
X150626396Y-112560871D01*
X150133224Y-112196900D01*
X149974917Y-112171409D01*
X149499999Y-112094937D01*
X149499997Y-112094937D01*
X149499996Y-112094937D01*
X148908938Y-112196166D01*
X148908937Y-112196167D01*
X148365934Y-112560870D01*
X148365931Y-112560874D01*
X148039506Y-113060619D01*
X148039504Y-113060623D01*
X147899999Y-113694936D01*
X113940289Y-113694936D01*
X114035520Y-113465029D01*
X114142490Y-113112396D01*
X114152499Y-113062080D01*
X114155167Y-113048660D01*
X114214381Y-112750976D01*
X114250500Y-112384250D01*
X114250500Y-112015750D01*
X114214381Y-111649024D01*
X114142490Y-111287604D01*
X114035520Y-110934971D01*
X113894501Y-110594521D01*
X113720791Y-110269532D01*
X113516063Y-109963135D01*
X113326538Y-109732199D01*
X113282294Y-109678287D01*
X113282276Y-109678267D01*
X113021732Y-109417723D01*
X113021712Y-109417705D01*
X112736873Y-109183943D01*
X112736858Y-109183932D01*
X112430470Y-108979210D01*
X112105479Y-108805499D01*
X111765033Y-108664481D01*
X111765029Y-108664480D01*
X111552464Y-108599999D01*
X134499999Y-108599999D01*
X134643025Y-109191728D01*
X134643025Y-109191729D01*
X134643026Y-109191730D01*
X134968617Y-109731383D01*
X135508933Y-110057659D01*
X136100000Y-110200000D01*
X136733527Y-110057644D01*
X137232199Y-109732199D01*
X137600523Y-109192178D01*
X137700000Y-108600000D01*
X137599441Y-107967143D01*
X137230809Y-107469191D01*
X137226396Y-107465934D01*
X136733224Y-107101963D01*
X136574917Y-107076472D01*
X136099999Y-107000000D01*
X136099997Y-107000000D01*
X136099996Y-107000000D01*
X135508938Y-107101229D01*
X135508937Y-107101230D01*
X134965934Y-107465933D01*
X134965931Y-107465937D01*
X134639506Y-107965682D01*
X134639504Y-107965686D01*
X134499999Y-108599999D01*
X111552464Y-108599999D01*
X111412396Y-108557510D01*
X111412393Y-108557509D01*
X111412382Y-108557506D01*
X111050981Y-108485620D01*
X111050976Y-108485619D01*
X111050971Y-108485618D01*
X111050961Y-108485617D01*
X110684256Y-108449500D01*
X110684250Y-108449500D01*
X110315750Y-108449500D01*
X110315743Y-108449500D01*
X109949038Y-108485617D01*
X109949025Y-108485618D01*
X109949024Y-108485619D01*
X109949021Y-108485619D01*
X109949018Y-108485620D01*
X109587617Y-108557506D01*
X109234970Y-108664480D01*
X109234966Y-108664481D01*
X108894520Y-108805499D01*
X108569529Y-108979210D01*
X108263141Y-109183932D01*
X108263126Y-109183943D01*
X107978287Y-109417705D01*
X107978267Y-109417723D01*
X107717723Y-109678267D01*
X107717705Y-109678287D01*
X107483943Y-109963126D01*
X107483932Y-109963141D01*
X107279210Y-110269529D01*
X107105499Y-110594520D01*
X106964481Y-110934966D01*
X106964480Y-110934970D01*
X106857506Y-111287617D01*
X106785620Y-111649018D01*
X106785617Y-111649038D01*
X106749500Y-112015743D01*
X100100500Y-112015743D01*
X100100500Y-102299999D01*
X104102774Y-102299999D01*
X104245800Y-102891728D01*
X104245800Y-102891729D01*
X104245801Y-102891730D01*
X104571392Y-103431383D01*
X105111708Y-103757659D01*
X105702775Y-103900000D01*
X106336302Y-103757644D01*
X106834974Y-103432199D01*
X107203298Y-102892178D01*
X107302775Y-102300000D01*
X107257607Y-102015743D01*
X145749500Y-102015743D01*
X145749500Y-102384256D01*
X145785617Y-102750961D01*
X145785620Y-102750981D01*
X145857506Y-103112382D01*
X145964480Y-103465029D01*
X145964481Y-103465033D01*
X146105499Y-103805479D01*
X146279210Y-104130470D01*
X146483932Y-104436858D01*
X146483943Y-104436873D01*
X146717705Y-104721712D01*
X146717723Y-104721732D01*
X146978267Y-104982276D01*
X146978277Y-104982285D01*
X146978281Y-104982289D01*
X147263135Y-105216063D01*
X147569532Y-105420791D01*
X147894521Y-105594501D01*
X148234971Y-105735520D01*
X148587604Y-105842490D01*
X148587613Y-105842491D01*
X148587617Y-105842493D01*
X148710230Y-105866881D01*
X148949024Y-105914381D01*
X149315750Y-105950500D01*
X149315759Y-105950500D01*
X149684241Y-105950500D01*
X149684250Y-105950500D01*
X150050976Y-105914381D01*
X150348660Y-105855167D01*
X150412382Y-105842493D01*
X150412384Y-105842492D01*
X150412396Y-105842490D01*
X150765029Y-105735520D01*
X151105479Y-105594501D01*
X151430468Y-105420791D01*
X151736865Y-105216063D01*
X152021719Y-104982289D01*
X152282289Y-104721719D01*
X152516063Y-104436865D01*
X152720791Y-104130468D01*
X152894501Y-103805479D01*
X153035520Y-103465029D01*
X153142490Y-103112396D01*
X153214381Y-102750976D01*
X153250500Y-102384250D01*
X153250500Y-102015750D01*
X153214381Y-101649024D01*
X153142490Y-101287604D01*
X153035520Y-100934971D01*
X152894501Y-100594521D01*
X152720791Y-100269532D01*
X152516063Y-99963135D01*
X152282289Y-99678281D01*
X152282285Y-99678277D01*
X152282276Y-99678267D01*
X152021732Y-99417723D01*
X152021712Y-99417705D01*
X151736873Y-99183943D01*
X151736858Y-99183932D01*
X151430470Y-98979210D01*
X151105479Y-98805499D01*
X150765033Y-98664481D01*
X150765029Y-98664480D01*
X150412396Y-98557510D01*
X150412393Y-98557509D01*
X150412382Y-98557506D01*
X150050981Y-98485620D01*
X150050976Y-98485619D01*
X150050971Y-98485618D01*
X150050961Y-98485617D01*
X149684256Y-98449500D01*
X149684250Y-98449500D01*
X149315750Y-98449500D01*
X149315743Y-98449500D01*
X148949038Y-98485617D01*
X148949025Y-98485618D01*
X148949024Y-98485619D01*
X148949021Y-98485619D01*
X148949018Y-98485620D01*
X148587617Y-98557506D01*
X148234970Y-98664480D01*
X148234966Y-98664481D01*
X147894520Y-98805499D01*
X147569529Y-98979210D01*
X147263141Y-99183932D01*
X147263126Y-99183943D01*
X146978287Y-99417705D01*
X146978267Y-99417723D01*
X146717723Y-99678267D01*
X146717705Y-99678287D01*
X146483943Y-99963126D01*
X146483932Y-99963141D01*
X146279210Y-100269529D01*
X146105499Y-100594520D01*
X145964481Y-100934966D01*
X145964480Y-100934970D01*
X145857506Y-101287617D01*
X145785620Y-101649018D01*
X145785617Y-101649038D01*
X145749500Y-102015743D01*
X107257607Y-102015743D01*
X107202216Y-101667143D01*
X106833584Y-101169191D01*
X106829171Y-101165934D01*
X106335999Y-100801963D01*
X106177692Y-100776472D01*
X105702774Y-100700000D01*
X105702772Y-100700000D01*
X105702771Y-100700000D01*
X105111713Y-100801229D01*
X105111712Y-100801230D01*
X104568709Y-101165933D01*
X104568706Y-101165937D01*
X104242281Y-101665682D01*
X104242279Y-101665686D01*
X104102774Y-102299999D01*
X100100500Y-102299999D01*
X100100500Y-93615743D01*
X126849500Y-93615743D01*
X126849500Y-93984256D01*
X126885617Y-94350961D01*
X126885620Y-94350981D01*
X126957506Y-94712382D01*
X127064480Y-95065029D01*
X127064481Y-95065033D01*
X127205499Y-95405479D01*
X127379210Y-95730470D01*
X127583932Y-96036858D01*
X127583943Y-96036873D01*
X127817705Y-96321712D01*
X127817723Y-96321732D01*
X128078267Y-96582276D01*
X128078277Y-96582285D01*
X128078281Y-96582289D01*
X128363135Y-96816063D01*
X128669532Y-97020791D01*
X128994521Y-97194501D01*
X129334971Y-97335520D01*
X129687604Y-97442490D01*
X129687613Y-97442491D01*
X129687617Y-97442493D01*
X129810230Y-97466881D01*
X130049024Y-97514381D01*
X130415750Y-97550500D01*
X130415759Y-97550500D01*
X130784241Y-97550500D01*
X130784250Y-97550500D01*
X131150976Y-97514381D01*
X131448660Y-97455167D01*
X131512382Y-97442493D01*
X131512384Y-97442492D01*
X131512396Y-97442490D01*
X131865029Y-97335520D01*
X132205479Y-97194501D01*
X132530468Y-97020791D01*
X132836865Y-96816063D01*
X133121719Y-96582289D01*
X133382289Y-96321719D01*
X133616063Y-96036865D01*
X133820791Y-95730468D01*
X133994501Y-95405479D01*
X134135520Y-95065029D01*
X134242490Y-94712396D01*
X134314381Y-94350976D01*
X134350500Y-93984250D01*
X134350500Y-93615750D01*
X134314381Y-93249024D01*
X134242490Y-92887604D01*
X134135520Y-92534971D01*
X133994501Y-92194521D01*
X133820791Y-91869532D01*
X133616063Y-91563135D01*
X133382289Y-91278281D01*
X133382285Y-91278277D01*
X133382276Y-91278267D01*
X133121732Y-91017723D01*
X133121712Y-91017705D01*
X132836873Y-90783943D01*
X132836858Y-90783932D01*
X132530470Y-90579210D01*
X132205479Y-90405499D01*
X131865033Y-90264481D01*
X131865029Y-90264480D01*
X131512396Y-90157510D01*
X131512393Y-90157509D01*
X131512382Y-90157506D01*
X131150981Y-90085620D01*
X131150976Y-90085619D01*
X131150971Y-90085618D01*
X131150961Y-90085617D01*
X130784256Y-90049500D01*
X130784250Y-90049500D01*
X130415750Y-90049500D01*
X130415743Y-90049500D01*
X130049038Y-90085617D01*
X130049025Y-90085618D01*
X130049024Y-90085619D01*
X130049021Y-90085619D01*
X130049018Y-90085620D01*
X129687617Y-90157506D01*
X129334970Y-90264480D01*
X129334966Y-90264481D01*
X128994520Y-90405499D01*
X128669529Y-90579210D01*
X128363141Y-90783932D01*
X128363126Y-90783943D01*
X128078287Y-91017705D01*
X128078267Y-91017723D01*
X127817723Y-91278267D01*
X127817705Y-91278287D01*
X127583943Y-91563126D01*
X127583932Y-91563141D01*
X127379210Y-91869529D01*
X127205499Y-92194520D01*
X127064481Y-92534966D01*
X127064480Y-92534970D01*
X126957506Y-92887617D01*
X126885620Y-93249018D01*
X126885617Y-93249038D01*
X126849500Y-93615743D01*
X100100500Y-93615743D01*
X100100500Y-87015743D01*
X106749500Y-87015743D01*
X106749500Y-87384256D01*
X106785617Y-87750961D01*
X106785620Y-87750981D01*
X106857506Y-88112382D01*
X106964480Y-88465029D01*
X106964481Y-88465033D01*
X107105499Y-88805479D01*
X107279210Y-89130470D01*
X107483932Y-89436858D01*
X107483943Y-89436873D01*
X107717705Y-89721712D01*
X107717723Y-89721732D01*
X107978267Y-89982276D01*
X107978277Y-89982285D01*
X107978281Y-89982289D01*
X108263135Y-90216063D01*
X108569532Y-90420791D01*
X108894521Y-90594501D01*
X109234971Y-90735520D01*
X109587604Y-90842490D01*
X109587613Y-90842491D01*
X109587617Y-90842493D01*
X109710230Y-90866881D01*
X109949024Y-90914381D01*
X110315750Y-90950500D01*
X110315759Y-90950500D01*
X110684241Y-90950500D01*
X110684250Y-90950500D01*
X111050976Y-90914381D01*
X111348660Y-90855167D01*
X111412382Y-90842493D01*
X111412384Y-90842492D01*
X111412396Y-90842490D01*
X111765029Y-90735520D01*
X112105479Y-90594501D01*
X112250921Y-90516761D01*
X118899999Y-90516761D01*
X119043025Y-91108490D01*
X119043025Y-91108491D01*
X119043026Y-91108492D01*
X119368617Y-91648145D01*
X119908933Y-91974421D01*
X120500000Y-92116762D01*
X121133527Y-91974406D01*
X121632199Y-91648961D01*
X122000523Y-91108940D01*
X122100000Y-90516762D01*
X121999441Y-89883905D01*
X121630809Y-89385953D01*
X121626396Y-89382696D01*
X121133224Y-89018725D01*
X120974917Y-88993234D01*
X120499999Y-88916762D01*
X120499997Y-88916762D01*
X120499996Y-88916762D01*
X119908938Y-89017991D01*
X119908937Y-89017992D01*
X119365934Y-89382695D01*
X119365931Y-89382699D01*
X119039506Y-89882444D01*
X119039504Y-89882448D01*
X118899999Y-90516761D01*
X112250921Y-90516761D01*
X112430468Y-90420791D01*
X112736865Y-90216063D01*
X113021719Y-89982289D01*
X113282289Y-89721719D01*
X113516063Y-89436865D01*
X113720791Y-89130468D01*
X113894501Y-88805479D01*
X114035520Y-88465029D01*
X114142490Y-88112396D01*
X114214381Y-87750976D01*
X114250500Y-87384250D01*
X114250500Y-87015750D01*
X114214381Y-86649024D01*
X114142490Y-86287604D01*
X114035520Y-85934971D01*
X113894501Y-85594521D01*
X113720791Y-85269532D01*
X113516063Y-84963135D01*
X113326538Y-84732199D01*
X113282294Y-84678287D01*
X113282276Y-84678267D01*
X113021732Y-84417723D01*
X113021712Y-84417705D01*
X112736873Y-84183943D01*
X112736858Y-84183932D01*
X112430470Y-83979210D01*
X112105479Y-83805499D01*
X111765033Y-83664481D01*
X111765029Y-83664480D01*
X111552464Y-83599999D01*
X134499999Y-83599999D01*
X134643025Y-84191728D01*
X134643025Y-84191729D01*
X134643026Y-84191730D01*
X134968617Y-84731383D01*
X135508933Y-85057659D01*
X136100000Y-85200000D01*
X136733527Y-85057644D01*
X137232199Y-84732199D01*
X137600523Y-84192178D01*
X137700000Y-83600000D01*
X137599441Y-82967143D01*
X137230809Y-82469191D01*
X137226396Y-82465934D01*
X136733224Y-82101963D01*
X136574917Y-82076472D01*
X136099999Y-82000000D01*
X136099997Y-82000000D01*
X136099996Y-82000000D01*
X135508938Y-82101229D01*
X135508937Y-82101230D01*
X134965934Y-82465933D01*
X134965931Y-82465937D01*
X134639506Y-82965682D01*
X134639504Y-82965686D01*
X134499999Y-83599999D01*
X111552464Y-83599999D01*
X111412396Y-83557510D01*
X111412393Y-83557509D01*
X111412382Y-83557506D01*
X111050981Y-83485620D01*
X111050976Y-83485619D01*
X111050971Y-83485618D01*
X111050961Y-83485617D01*
X110684256Y-83449500D01*
X110684250Y-83449500D01*
X110315750Y-83449500D01*
X110315743Y-83449500D01*
X109949038Y-83485617D01*
X109949025Y-83485618D01*
X109949024Y-83485619D01*
X109949021Y-83485619D01*
X109949018Y-83485620D01*
X109587617Y-83557506D01*
X109234970Y-83664480D01*
X109234966Y-83664481D01*
X108894520Y-83805499D01*
X108569529Y-83979210D01*
X108263141Y-84183932D01*
X108263126Y-84183943D01*
X107978287Y-84417705D01*
X107978267Y-84417723D01*
X107717723Y-84678267D01*
X107717705Y-84678287D01*
X107483943Y-84963126D01*
X107483932Y-84963141D01*
X107279210Y-85269529D01*
X107105499Y-85594520D01*
X106964481Y-85934966D01*
X106964480Y-85934970D01*
X106857506Y-86287617D01*
X106785620Y-86649018D01*
X106785617Y-86649038D01*
X106749500Y-87015743D01*
X100100500Y-87015743D01*
X100100500Y-81030481D01*
X146049500Y-81030481D01*
X146049500Y-81369518D01*
X146082728Y-81706889D01*
X146082730Y-81706905D01*
X146148871Y-82039414D01*
X146247282Y-82363835D01*
X146247285Y-82363844D01*
X146377023Y-82677058D01*
X146536839Y-82976053D01*
X146725185Y-83257932D01*
X146725196Y-83257947D01*
X146940259Y-83520003D01*
X146940277Y-83520022D01*
X147179977Y-83759722D01*
X147179996Y-83759740D01*
X147442052Y-83974803D01*
X147442061Y-83974810D01*
X147723949Y-84163162D01*
X148022942Y-84322977D01*
X148336160Y-84452716D01*
X148660586Y-84551129D01*
X148993096Y-84617270D01*
X149330488Y-84650500D01*
X149330497Y-84650500D01*
X149669503Y-84650500D01*
X149669512Y-84650500D01*
X150006904Y-84617270D01*
X150339414Y-84551129D01*
X150663840Y-84452716D01*
X150977058Y-84322977D01*
X151276051Y-84163162D01*
X151557939Y-83974810D01*
X151820009Y-83759735D01*
X152059735Y-83520009D01*
X152274810Y-83257939D01*
X152463162Y-82976051D01*
X152622977Y-82677058D01*
X152752716Y-82363840D01*
X152851129Y-82039414D01*
X152917270Y-81706904D01*
X152950500Y-81369512D01*
X152950500Y-81030488D01*
X152917270Y-80693096D01*
X152851129Y-80360586D01*
X152752716Y-80036160D01*
X152622977Y-79722942D01*
X152463162Y-79423949D01*
X152274810Y-79142061D01*
X152274803Y-79142052D01*
X152059740Y-78879996D01*
X152059722Y-78879977D01*
X151820022Y-78640277D01*
X151820003Y-78640259D01*
X151557947Y-78425196D01*
X151557932Y-78425185D01*
X151276053Y-78236839D01*
X150977058Y-78077023D01*
X150663844Y-77947285D01*
X150663835Y-77947282D01*
X150339414Y-77848871D01*
X150339415Y-77848871D01*
X150006905Y-77782730D01*
X150006889Y-77782728D01*
X149669518Y-77749500D01*
X149669512Y-77749500D01*
X149330488Y-77749500D01*
X149330481Y-77749500D01*
X148993110Y-77782728D01*
X148993094Y-77782730D01*
X148660585Y-77848871D01*
X148336164Y-77947282D01*
X148336155Y-77947285D01*
X148022941Y-78077023D01*
X147723946Y-78236839D01*
X147442067Y-78425185D01*
X147442052Y-78425196D01*
X147179996Y-78640259D01*
X147179977Y-78640277D01*
X146940277Y-78879977D01*
X146940259Y-78879996D01*
X146725196Y-79142052D01*
X146725185Y-79142067D01*
X146536839Y-79423946D01*
X146377023Y-79722941D01*
X146247285Y-80036155D01*
X146247282Y-80036164D01*
X146148871Y-80360585D01*
X146082730Y-80693094D01*
X146082728Y-80693110D01*
X146049500Y-81030481D01*
X100100500Y-81030481D01*
X100100500Y-77189625D01*
X104099999Y-77189625D01*
X104243025Y-77781354D01*
X104243025Y-77781355D01*
X104243026Y-77781356D01*
X104568617Y-78321009D01*
X105108933Y-78647285D01*
X105700000Y-78789626D01*
X106333527Y-78647270D01*
X106832199Y-78321825D01*
X107200523Y-77781804D01*
X107300000Y-77189626D01*
X107199441Y-76556769D01*
X106830809Y-76058817D01*
X106826396Y-76055560D01*
X106333224Y-75691589D01*
X106174917Y-75666098D01*
X105699999Y-75589626D01*
X105699997Y-75589626D01*
X105699996Y-75589626D01*
X105108938Y-75690855D01*
X105108937Y-75690856D01*
X104565934Y-76055559D01*
X104565931Y-76055563D01*
X104239506Y-76555308D01*
X104239504Y-76555312D01*
X104099999Y-77189625D01*
X100100500Y-77189625D01*
X100100500Y-73599999D01*
X147899999Y-73599999D01*
X148043025Y-74191728D01*
X148043025Y-74191729D01*
X148043026Y-74191730D01*
X148368617Y-74731383D01*
X148908933Y-75057659D01*
X149500000Y-75200000D01*
X150133527Y-75057644D01*
X150632199Y-74732199D01*
X151000523Y-74192178D01*
X151100000Y-73600000D01*
X150999441Y-72967143D01*
X150630809Y-72469191D01*
X150626396Y-72465934D01*
X150133224Y-72101963D01*
X149974917Y-72076472D01*
X149499999Y-72000000D01*
X149499997Y-72000000D01*
X149499996Y-72000000D01*
X148908938Y-72101229D01*
X148908937Y-72101230D01*
X148365934Y-72465933D01*
X148365931Y-72465937D01*
X148039506Y-72965682D01*
X148039504Y-72965686D01*
X147899999Y-73599999D01*
X100100500Y-73599999D01*
X100100500Y-68615743D01*
X126849500Y-68615743D01*
X126849500Y-68984256D01*
X126885617Y-69350961D01*
X126885620Y-69350981D01*
X126957506Y-69712382D01*
X127064480Y-70065029D01*
X127064481Y-70065033D01*
X127205499Y-70405479D01*
X127379210Y-70730470D01*
X127583932Y-71036858D01*
X127583943Y-71036873D01*
X127817705Y-71321712D01*
X127817723Y-71321732D01*
X128078267Y-71582276D01*
X128078277Y-71582285D01*
X128078281Y-71582289D01*
X128363135Y-71816063D01*
X128669532Y-72020791D01*
X128994521Y-72194501D01*
X129334971Y-72335520D01*
X129687604Y-72442490D01*
X129687613Y-72442491D01*
X129687617Y-72442493D01*
X129805460Y-72465933D01*
X130049024Y-72514381D01*
X130415750Y-72550500D01*
X130415759Y-72550500D01*
X130784241Y-72550500D01*
X130784250Y-72550500D01*
X131150976Y-72514381D01*
X131448660Y-72455167D01*
X131512382Y-72442493D01*
X131512384Y-72442492D01*
X131512396Y-72442490D01*
X131865029Y-72335520D01*
X132205479Y-72194501D01*
X132530468Y-72020791D01*
X132836865Y-71816063D01*
X133121719Y-71582289D01*
X133382289Y-71321719D01*
X133616063Y-71036865D01*
X133820791Y-70730468D01*
X133994501Y-70405479D01*
X134135520Y-70065029D01*
X134242490Y-69712396D01*
X134314381Y-69350976D01*
X134350500Y-68984250D01*
X134350500Y-68615750D01*
X134314381Y-68249024D01*
X134242490Y-67887604D01*
X134135520Y-67534971D01*
X133994501Y-67194521D01*
X133820791Y-66869532D01*
X133616063Y-66563135D01*
X133382289Y-66278281D01*
X133382285Y-66278277D01*
X133382276Y-66278267D01*
X133121732Y-66017723D01*
X133121712Y-66017705D01*
X132836873Y-65783943D01*
X132836858Y-65783932D01*
X132530470Y-65579210D01*
X132205479Y-65405499D01*
X131865033Y-65264481D01*
X131865029Y-65264480D01*
X131512396Y-65157510D01*
X131512393Y-65157509D01*
X131512382Y-65157506D01*
X131150981Y-65085620D01*
X131150976Y-65085619D01*
X131150971Y-65085618D01*
X131150961Y-65085617D01*
X130784256Y-65049500D01*
X130784250Y-65049500D01*
X130415750Y-65049500D01*
X130415743Y-65049500D01*
X130049038Y-65085617D01*
X130049025Y-65085618D01*
X130049024Y-65085619D01*
X130049021Y-65085619D01*
X130049018Y-65085620D01*
X129687617Y-65157506D01*
X129334970Y-65264480D01*
X129334966Y-65264481D01*
X128994520Y-65405499D01*
X128669529Y-65579210D01*
X128363141Y-65783932D01*
X128363126Y-65783943D01*
X128078287Y-66017705D01*
X128078267Y-66017723D01*
X127817723Y-66278267D01*
X127817705Y-66278287D01*
X127583943Y-66563126D01*
X127583932Y-66563141D01*
X127379210Y-66869529D01*
X127205499Y-67194520D01*
X127064481Y-67534966D01*
X127064480Y-67534970D01*
X126957506Y-67887617D01*
X126885620Y-68249018D01*
X126885617Y-68249038D01*
X126849500Y-68615743D01*
X100100500Y-68615743D01*
X100100500Y-62015743D01*
X106749500Y-62015743D01*
X106749500Y-62384256D01*
X106785617Y-62750961D01*
X106785620Y-62750981D01*
X106857506Y-63112382D01*
X106964480Y-63465029D01*
X106964481Y-63465033D01*
X107105499Y-63805479D01*
X107279210Y-64130470D01*
X107483932Y-64436858D01*
X107483943Y-64436873D01*
X107717705Y-64721712D01*
X107717723Y-64721732D01*
X107978267Y-64982276D01*
X107978277Y-64982285D01*
X107978281Y-64982289D01*
X108263135Y-65216063D01*
X108569532Y-65420791D01*
X108894521Y-65594501D01*
X109234971Y-65735520D01*
X109587604Y-65842490D01*
X109587613Y-65842491D01*
X109587617Y-65842493D01*
X109710230Y-65866881D01*
X109949024Y-65914381D01*
X110315750Y-65950500D01*
X110315759Y-65950500D01*
X110684241Y-65950500D01*
X110684250Y-65950500D01*
X111050976Y-65914381D01*
X111348660Y-65855167D01*
X111412382Y-65842493D01*
X111412384Y-65842492D01*
X111412396Y-65842490D01*
X111765029Y-65735520D01*
X112051739Y-65616761D01*
X118899999Y-65616761D01*
X119043025Y-66208490D01*
X119043025Y-66208491D01*
X119043026Y-66208492D01*
X119368617Y-66748145D01*
X119908933Y-67074421D01*
X120500000Y-67216762D01*
X121133527Y-67074406D01*
X121632199Y-66748961D01*
X122000523Y-66208940D01*
X122100000Y-65616762D01*
X121999441Y-64983905D01*
X121630809Y-64485953D01*
X121626396Y-64482696D01*
X121133224Y-64118725D01*
X120974917Y-64093234D01*
X120499999Y-64016762D01*
X120499997Y-64016762D01*
X120499996Y-64016762D01*
X119908938Y-64117991D01*
X119908937Y-64117992D01*
X119365934Y-64482695D01*
X119365931Y-64482699D01*
X119039506Y-64982444D01*
X119039504Y-64982448D01*
X118899999Y-65616761D01*
X112051739Y-65616761D01*
X112105479Y-65594501D01*
X112430468Y-65420791D01*
X112736865Y-65216063D01*
X113021719Y-64982289D01*
X113282289Y-64721719D01*
X113516063Y-64436865D01*
X113720791Y-64130468D01*
X113894501Y-63805479D01*
X114035520Y-63465029D01*
X114142490Y-63112396D01*
X114214381Y-62750976D01*
X114250500Y-62384250D01*
X114250500Y-62015750D01*
X114250499Y-62015743D01*
X145749500Y-62015743D01*
X145749500Y-62384256D01*
X145785617Y-62750961D01*
X145785620Y-62750981D01*
X145857506Y-63112382D01*
X145964480Y-63465029D01*
X145964481Y-63465033D01*
X146105499Y-63805479D01*
X146279210Y-64130470D01*
X146483932Y-64436858D01*
X146483943Y-64436873D01*
X146717705Y-64721712D01*
X146717723Y-64721732D01*
X146978267Y-64982276D01*
X146978277Y-64982285D01*
X146978281Y-64982289D01*
X147263135Y-65216063D01*
X147569532Y-65420791D01*
X147894521Y-65594501D01*
X148234971Y-65735520D01*
X148587604Y-65842490D01*
X148587613Y-65842491D01*
X148587617Y-65842493D01*
X148710230Y-65866881D01*
X148949024Y-65914381D01*
X149315750Y-65950500D01*
X149315759Y-65950500D01*
X149684241Y-65950500D01*
X149684250Y-65950500D01*
X150050976Y-65914381D01*
X150348660Y-65855167D01*
X150412382Y-65842493D01*
X150412384Y-65842492D01*
X150412396Y-65842490D01*
X150765029Y-65735520D01*
X151105479Y-65594501D01*
X151430468Y-65420791D01*
X151736865Y-65216063D01*
X152021719Y-64982289D01*
X152282289Y-64721719D01*
X152516063Y-64436865D01*
X152720791Y-64130468D01*
X152894501Y-63805479D01*
X153035520Y-63465029D01*
X153142490Y-63112396D01*
X153214381Y-62750976D01*
X153250500Y-62384250D01*
X153250500Y-62015750D01*
X153214381Y-61649024D01*
X153142490Y-61287604D01*
X153035520Y-60934971D01*
X152894501Y-60594521D01*
X152720791Y-60269532D01*
X152516063Y-59963135D01*
X152326538Y-59732199D01*
X152282294Y-59678287D01*
X152282276Y-59678267D01*
X152021732Y-59417723D01*
X152021712Y-59417705D01*
X151736873Y-59183943D01*
X151736858Y-59183932D01*
X151430470Y-58979210D01*
X151105479Y-58805499D01*
X150765033Y-58664481D01*
X150765029Y-58664480D01*
X150412396Y-58557510D01*
X150412393Y-58557509D01*
X150412382Y-58557506D01*
X150050981Y-58485620D01*
X150050976Y-58485619D01*
X150050971Y-58485618D01*
X150050961Y-58485617D01*
X149684256Y-58449500D01*
X149684250Y-58449500D01*
X149315750Y-58449500D01*
X149315743Y-58449500D01*
X148949038Y-58485617D01*
X148949025Y-58485618D01*
X148949024Y-58485619D01*
X148949021Y-58485619D01*
X148949018Y-58485620D01*
X148587617Y-58557506D01*
X148234970Y-58664480D01*
X148234966Y-58664481D01*
X147894520Y-58805499D01*
X147569529Y-58979210D01*
X147263141Y-59183932D01*
X147263126Y-59183943D01*
X146978287Y-59417705D01*
X146978267Y-59417723D01*
X146717723Y-59678267D01*
X146717705Y-59678287D01*
X146483943Y-59963126D01*
X146483932Y-59963141D01*
X146279210Y-60269529D01*
X146105499Y-60594520D01*
X145964481Y-60934966D01*
X145964480Y-60934970D01*
X145857506Y-61287617D01*
X145785620Y-61649018D01*
X145785617Y-61649038D01*
X145749500Y-62015743D01*
X114250499Y-62015743D01*
X114214381Y-61649024D01*
X114142490Y-61287604D01*
X114035520Y-60934971D01*
X113894501Y-60594521D01*
X113720791Y-60269532D01*
X113516063Y-59963135D01*
X113326538Y-59732199D01*
X113282294Y-59678287D01*
X113282276Y-59678267D01*
X113021732Y-59417723D01*
X113021712Y-59417705D01*
X112736873Y-59183943D01*
X112736858Y-59183932D01*
X112430470Y-58979210D01*
X112105479Y-58805499D01*
X111765033Y-58664481D01*
X111765029Y-58664480D01*
X111552464Y-58599999D01*
X134499999Y-58599999D01*
X134643025Y-59191728D01*
X134643025Y-59191729D01*
X134643026Y-59191730D01*
X134968617Y-59731383D01*
X135508933Y-60057659D01*
X136100000Y-60200000D01*
X136733527Y-60057644D01*
X137232199Y-59732199D01*
X137600523Y-59192178D01*
X137700000Y-58600000D01*
X137599441Y-57967143D01*
X137230809Y-57469191D01*
X137226396Y-57465934D01*
X136733224Y-57101963D01*
X136574917Y-57076472D01*
X136099999Y-57000000D01*
X136099997Y-57000000D01*
X136099996Y-57000000D01*
X135508938Y-57101229D01*
X135508937Y-57101230D01*
X134965934Y-57465933D01*
X134965931Y-57465937D01*
X134639506Y-57965682D01*
X134639504Y-57965686D01*
X134499999Y-58599999D01*
X111552464Y-58599999D01*
X111412396Y-58557510D01*
X111412393Y-58557509D01*
X111412382Y-58557506D01*
X111050981Y-58485620D01*
X111050976Y-58485619D01*
X111050971Y-58485618D01*
X111050961Y-58485617D01*
X110684256Y-58449500D01*
X110684250Y-58449500D01*
X110315750Y-58449500D01*
X110315743Y-58449500D01*
X109949038Y-58485617D01*
X109949025Y-58485618D01*
X109949024Y-58485619D01*
X109949021Y-58485619D01*
X109949018Y-58485620D01*
X109587617Y-58557506D01*
X109234970Y-58664480D01*
X109234966Y-58664481D01*
X108894520Y-58805499D01*
X108569529Y-58979210D01*
X108263141Y-59183932D01*
X108263126Y-59183943D01*
X107978287Y-59417705D01*
X107978267Y-59417723D01*
X107717723Y-59678267D01*
X107717705Y-59678287D01*
X107483943Y-59963126D01*
X107483932Y-59963141D01*
X107279210Y-60269529D01*
X107105499Y-60594520D01*
X106964481Y-60934966D01*
X106964480Y-60934970D01*
X106857506Y-61287617D01*
X106785620Y-61649018D01*
X106785617Y-61649038D01*
X106749500Y-62015743D01*
X100100500Y-62015743D01*
X100100500Y-52399999D01*
X104099999Y-52399999D01*
X104243025Y-52991728D01*
X104243025Y-52991729D01*
X104243026Y-52991730D01*
X104568617Y-53531383D01*
X105108933Y-53857659D01*
X105700000Y-54000000D01*
X106333527Y-53857644D01*
X106832199Y-53532199D01*
X107200523Y-52992178D01*
X107300000Y-52400000D01*
X107199441Y-51767143D01*
X106830809Y-51269191D01*
X106826396Y-51265934D01*
X106333224Y-50901963D01*
X106174917Y-50876472D01*
X105699999Y-50800000D01*
X105699997Y-50800000D01*
X105699996Y-50800000D01*
X105108938Y-50901229D01*
X105108937Y-50901230D01*
X104565934Y-51265933D01*
X104565931Y-51265937D01*
X104239506Y-51765682D01*
X104239504Y-51765686D01*
X104099999Y-52399999D01*
X100100500Y-52399999D01*
X100100500Y-43678709D01*
X104349500Y-43678709D01*
X104349500Y-43921290D01*
X104381160Y-44161782D01*
X104443944Y-44396095D01*
X104443945Y-44396097D01*
X104443946Y-44396100D01*
X104536776Y-44620212D01*
X104536777Y-44620213D01*
X104536782Y-44620224D01*
X104658061Y-44830285D01*
X104658063Y-44830288D01*
X104658064Y-44830289D01*
X104805735Y-45022738D01*
X104805739Y-45022742D01*
X104805744Y-45022748D01*
X104977251Y-45194255D01*
X104977256Y-45194259D01*
X104977262Y-45194265D01*
X105169711Y-45341936D01*
X105169714Y-45341938D01*
X105379775Y-45463217D01*
X105379779Y-45463218D01*
X105379788Y-45463224D01*
X105603900Y-45556054D01*
X105838211Y-45618838D01*
X105838215Y-45618838D01*
X105838217Y-45618839D01*
X105900202Y-45626999D01*
X106078712Y-45650500D01*
X106078719Y-45650500D01*
X108121281Y-45650500D01*
X108121288Y-45650500D01*
X108338637Y-45621885D01*
X108361782Y-45618839D01*
X108361782Y-45618838D01*
X108361789Y-45618838D01*
X108596100Y-45556054D01*
X108820212Y-45463224D01*
X109030289Y-45341936D01*
X109222738Y-45194265D01*
X109394265Y-45022738D01*
X109541936Y-44830289D01*
X109663224Y-44620212D01*
X109756054Y-44396100D01*
X109818838Y-44161789D01*
X109850500Y-43921288D01*
X109850500Y-43678712D01*
X109850500Y-43678709D01*
X150249500Y-43678709D01*
X150249500Y-43921290D01*
X150281160Y-44161782D01*
X150343944Y-44396095D01*
X150343945Y-44396097D01*
X150343946Y-44396100D01*
X150436776Y-44620212D01*
X150436777Y-44620213D01*
X150436782Y-44620224D01*
X150558061Y-44830285D01*
X150558063Y-44830288D01*
X150558064Y-44830289D01*
X150705735Y-45022738D01*
X150705739Y-45022742D01*
X150705744Y-45022748D01*
X150877251Y-45194255D01*
X150877256Y-45194259D01*
X150877262Y-45194265D01*
X151069711Y-45341936D01*
X151069714Y-45341938D01*
X151279775Y-45463217D01*
X151279779Y-45463218D01*
X151279788Y-45463224D01*
X151503900Y-45556054D01*
X151738211Y-45618838D01*
X151738215Y-45618838D01*
X151738217Y-45618839D01*
X151800202Y-45626999D01*
X151978712Y-45650500D01*
X151978719Y-45650500D01*
X154021281Y-45650500D01*
X154021288Y-45650500D01*
X154238637Y-45621885D01*
X154261782Y-45618839D01*
X154261782Y-45618838D01*
X154261789Y-45618838D01*
X154496100Y-45556054D01*
X154720212Y-45463224D01*
X154930289Y-45341936D01*
X155122738Y-45194265D01*
X155294265Y-45022738D01*
X155441936Y-44830289D01*
X155563224Y-44620212D01*
X155656054Y-44396100D01*
X155718838Y-44161789D01*
X155750500Y-43921288D01*
X155750500Y-43678712D01*
X155718838Y-43438211D01*
X155656054Y-43203900D01*
X155563224Y-42979788D01*
X155563218Y-42979779D01*
X155563217Y-42979775D01*
X155441938Y-42769714D01*
X155441936Y-42769711D01*
X155294265Y-42577262D01*
X155294259Y-42577256D01*
X155294255Y-42577251D01*
X155122748Y-42405744D01*
X155122742Y-42405739D01*
X155122738Y-42405735D01*
X154930289Y-42258064D01*
X154930288Y-42258063D01*
X154930285Y-42258061D01*
X154720224Y-42136782D01*
X154720216Y-42136778D01*
X154720212Y-42136776D01*
X154496100Y-42043946D01*
X154496097Y-42043945D01*
X154496095Y-42043944D01*
X154261782Y-41981160D01*
X154021290Y-41949500D01*
X154021288Y-41949500D01*
X151978712Y-41949500D01*
X151978709Y-41949500D01*
X151738217Y-41981160D01*
X151503904Y-42043944D01*
X151503900Y-42043946D01*
X151279786Y-42136777D01*
X151279775Y-42136782D01*
X151069714Y-42258061D01*
X150877262Y-42405735D01*
X150877251Y-42405744D01*
X150705744Y-42577251D01*
X150705735Y-42577262D01*
X150558061Y-42769714D01*
X150436782Y-42979775D01*
X150436777Y-42979786D01*
X150343946Y-43203900D01*
X150343944Y-43203904D01*
X150281160Y-43438217D01*
X150249500Y-43678709D01*
X109850500Y-43678709D01*
X109818838Y-43438211D01*
X109756054Y-43203900D01*
X109663224Y-42979788D01*
X109663218Y-42979779D01*
X109663217Y-42979775D01*
X109541938Y-42769714D01*
X109541936Y-42769711D01*
X109394265Y-42577262D01*
X109394259Y-42577256D01*
X109394255Y-42577251D01*
X109222748Y-42405744D01*
X109222742Y-42405739D01*
X109222738Y-42405735D01*
X109030289Y-42258064D01*
X109030288Y-42258063D01*
X109030285Y-42258061D01*
X108820224Y-42136782D01*
X108820216Y-42136778D01*
X108820212Y-42136776D01*
X108596100Y-42043946D01*
X108596097Y-42043945D01*
X108596095Y-42043944D01*
X108361782Y-41981160D01*
X108121290Y-41949500D01*
X108121288Y-41949500D01*
X106078712Y-41949500D01*
X106078709Y-41949500D01*
X105838217Y-41981160D01*
X105603904Y-42043944D01*
X105603900Y-42043946D01*
X105379786Y-42136777D01*
X105379775Y-42136782D01*
X105169714Y-42258061D01*
X104977262Y-42405735D01*
X104977251Y-42405744D01*
X104805744Y-42577251D01*
X104805735Y-42577262D01*
X104658061Y-42769714D01*
X104536782Y-42979775D01*
X104536777Y-42979786D01*
X104443946Y-43203900D01*
X104443944Y-43203904D01*
X104381160Y-43438217D01*
X104349500Y-43678709D01*
X100100500Y-43678709D01*
X100100500Y-41426500D01*
X100120502Y-41358379D01*
X100174158Y-41311886D01*
X100226500Y-41300500D01*
X159773500Y-41300500D01*
X159841621Y-41320502D01*
G37*
%TD.AperFunction*%
M02*
