%TF.GenerationSoftware,KiCad,Pcbnew,8.0.3*%
%TF.CreationDate,2024-06-18T14:56:21+01:00*%
%TF.ProjectId,Sinosaur_Panel,53696e6f-7361-4757-925f-50616e656c2e,rev?*%
%TF.SameCoordinates,Original*%
%TF.FileFunction,Soldermask,Top*%
%TF.FilePolarity,Negative*%
%FSLAX46Y46*%
G04 Gerber Fmt 4.6, Leading zero omitted, Abs format (unit mm)*
G04 Created by KiCad (PCBNEW 8.0.3) date 2024-06-18 14:56:21*
%MOMM*%
%LPD*%
G01*
G04 APERTURE LIST*
%ADD10C,0.100000*%
%ADD11C,2.000000*%
%ADD12C,7.853175*%
%ADD13C,2.074846*%
%ADD14C,4.075000*%
%ADD15C,0.400000*%
%ADD16C,0.200000*%
%ADD17C,0.000000*%
%ADD18C,7.000000*%
%ADD19C,6.000000*%
%ADD20O,5.000000X3.200000*%
%ADD21C,6.400000*%
G04 APERTURE END LIST*
D10*
X130000000Y-52500000D02*
X120000000Y-51500000D01*
X140000000Y-51500000D01*
X130000000Y-52500000D01*
G36*
X130000000Y-52500000D02*
G01*
X120000000Y-51500000D01*
X140000000Y-51500000D01*
X130000000Y-52500000D01*
G37*
D11*
X103800000Y-135778175D02*
X111800000Y-135778175D01*
X111800000Y-143778175D01*
X103800000Y-143778175D01*
X103800000Y-135778175D01*
G36*
X103800000Y-135778175D02*
G01*
X111800000Y-135778175D01*
X111800000Y-143778175D01*
X103800000Y-143778175D01*
X103800000Y-135778175D01*
G37*
D12*
X134526587Y-68778175D02*
G75*
G02*
X126673413Y-68778175I-3926587J0D01*
G01*
X126673413Y-68778175D02*
G75*
G02*
X134526587Y-68778175I3926587J0D01*
G01*
D11*
X149500000Y-81178175D02*
X149500000Y-62178175D01*
X110500000Y-87100000D02*
X130600000Y-93800000D01*
D10*
X120600000Y-103778175D02*
X118600000Y-101778175D01*
X122600000Y-101778175D01*
X120600000Y-103778175D01*
G36*
X120600000Y-103778175D02*
G01*
X118600000Y-101778175D01*
X122600000Y-101778175D01*
X120600000Y-103778175D01*
G37*
D13*
X150537423Y-113678175D02*
G75*
G02*
X148462577Y-113678175I-1037423J0D01*
G01*
X148462577Y-113678175D02*
G75*
G02*
X150537423Y-113678175I1037423J0D01*
G01*
D14*
X151537500Y-121178175D02*
G75*
G02*
X147462500Y-121178175I-2037500J0D01*
G01*
X147462500Y-121178175D02*
G75*
G02*
X151537500Y-121178175I2037500J0D01*
G01*
D10*
X120600000Y-78778175D02*
X118600000Y-76778175D01*
X122600000Y-76778175D01*
X120600000Y-78778175D01*
G36*
X120600000Y-78778175D02*
G01*
X118600000Y-76778175D01*
X122600000Y-76778175D01*
X120600000Y-78778175D01*
G37*
D11*
X114900000Y-149778175D02*
X122900000Y-149778175D01*
X122900000Y-157778175D01*
X114900000Y-157778175D01*
X114900000Y-149778175D01*
G36*
X114900000Y-149778175D02*
G01*
X122900000Y-149778175D01*
X122900000Y-157778175D01*
X114900000Y-157778175D01*
X114900000Y-149778175D01*
G37*
D12*
X114426587Y-87178175D02*
G75*
G02*
X106573413Y-87178175I-3926587J0D01*
G01*
X106573413Y-87178175D02*
G75*
G02*
X114426587Y-87178175I3926587J0D01*
G01*
X114426587Y-62178175D02*
G75*
G02*
X106573413Y-62178175I-3926587J0D01*
G01*
X106573413Y-62178175D02*
G75*
G02*
X114426587Y-62178175I3926587J0D01*
G01*
D11*
X103800000Y-149778175D02*
X111800000Y-149778175D01*
X111800000Y-157778175D01*
X103800000Y-157778175D01*
X103800000Y-149778175D01*
G36*
X103800000Y-149778175D02*
G01*
X111800000Y-149778175D01*
X111800000Y-157778175D01*
X103800000Y-157778175D01*
X103800000Y-149778175D01*
G37*
D13*
X150537423Y-73600000D02*
G75*
G02*
X148462577Y-73600000I-1037423J0D01*
G01*
X148462577Y-73600000D02*
G75*
G02*
X150537423Y-73600000I1037423J0D01*
G01*
D11*
X149500000Y-121178175D02*
X149500000Y-102178175D01*
X110500000Y-112200000D02*
X130600000Y-118800000D01*
D12*
X153426587Y-102178175D02*
G75*
G02*
X145573413Y-102178175I-3926587J0D01*
G01*
X145573413Y-102178175D02*
G75*
G02*
X153426587Y-102178175I3926587J0D01*
G01*
D11*
X126000000Y-135778175D02*
X134000000Y-135778175D01*
X134000000Y-143778175D01*
X126000000Y-143778175D01*
X126000000Y-135778175D01*
G36*
X126000000Y-135778175D02*
G01*
X134000000Y-135778175D01*
X134000000Y-143778175D01*
X126000000Y-143778175D01*
X126000000Y-135778175D01*
G37*
D12*
X134526587Y-93778175D02*
G75*
G02*
X126673413Y-93778175I-3926587J0D01*
G01*
X126673413Y-93778175D02*
G75*
G02*
X134526587Y-93778175I3926587J0D01*
G01*
D13*
X121537423Y-65600000D02*
G75*
G02*
X119462577Y-65600000I-1037423J0D01*
G01*
X119462577Y-65600000D02*
G75*
G02*
X121537423Y-65600000I1037423J0D01*
G01*
D14*
X151537500Y-81178175D02*
G75*
G02*
X147462500Y-81178175I-2037500J0D01*
G01*
X147462500Y-81178175D02*
G75*
G02*
X151537500Y-81178175I2037500J0D01*
G01*
D12*
X114426587Y-112178175D02*
G75*
G02*
X106573413Y-112178175I-3926587J0D01*
G01*
X106573413Y-112178175D02*
G75*
G02*
X114426587Y-112178175I3926587J0D01*
G01*
D11*
X126000000Y-149778175D02*
X134000000Y-149778175D01*
X134000000Y-157778175D01*
X126000000Y-157778175D01*
X126000000Y-149778175D01*
G36*
X126000000Y-149778175D02*
G01*
X134000000Y-149778175D01*
X134000000Y-157778175D01*
X126000000Y-157778175D01*
X126000000Y-149778175D01*
G37*
X137700000Y-149778175D02*
X156700000Y-149778175D01*
X156700000Y-157778175D01*
X137700000Y-157778175D01*
X137700000Y-149778175D01*
G36*
X137700000Y-149778175D02*
G01*
X156700000Y-149778175D01*
X156700000Y-157778175D01*
X137700000Y-157778175D01*
X137700000Y-149778175D01*
G37*
D13*
X121537423Y-115500000D02*
G75*
G02*
X119462577Y-115500000I-1037423J0D01*
G01*
X119462577Y-115500000D02*
G75*
G02*
X121537423Y-115500000I1037423J0D01*
G01*
D12*
X134526587Y-118778175D02*
G75*
G02*
X126673413Y-118778175I-3926587J0D01*
G01*
X126673413Y-118778175D02*
G75*
G02*
X134526587Y-118778175I3926587J0D01*
G01*
D13*
X121537423Y-90500000D02*
G75*
G02*
X119462577Y-90500000I-1037423J0D01*
G01*
X119462577Y-90500000D02*
G75*
G02*
X121537423Y-90500000I1037423J0D01*
G01*
D11*
X110500000Y-62178175D02*
X130721825Y-69178175D01*
D12*
X153426587Y-62178175D02*
G75*
G02*
X145573413Y-62178175I-3926587J0D01*
G01*
X145573413Y-62178175D02*
G75*
G02*
X153426587Y-62178175I3926587J0D01*
G01*
D11*
X114900000Y-135778175D02*
X122900000Y-135778175D01*
X122900000Y-143778175D01*
X114900000Y-143778175D01*
X114900000Y-135778175D01*
G36*
X114900000Y-135778175D02*
G01*
X122900000Y-135778175D01*
X122900000Y-143778175D01*
X114900000Y-143778175D01*
X114900000Y-135778175D01*
G37*
D15*
X119742857Y-74464994D02*
X119076190Y-74464994D01*
X119076190Y-75512613D02*
X119076190Y-73512613D01*
X119076190Y-73512613D02*
X120028571Y-73512613D01*
X120790476Y-75512613D02*
X120790476Y-73512613D01*
X120790476Y-73512613D02*
X121457143Y-74941184D01*
X121457143Y-74941184D02*
X122123809Y-73512613D01*
X122123809Y-73512613D02*
X122123809Y-75512613D01*
X127219047Y-84512613D02*
X126266666Y-84512613D01*
X126266666Y-84512613D02*
X126266666Y-82512613D01*
X128647619Y-84417375D02*
X128457143Y-84512613D01*
X128457143Y-84512613D02*
X128076190Y-84512613D01*
X128076190Y-84512613D02*
X127885714Y-84417375D01*
X127885714Y-84417375D02*
X127790476Y-84226898D01*
X127790476Y-84226898D02*
X127790476Y-83464994D01*
X127790476Y-83464994D02*
X127885714Y-83274517D01*
X127885714Y-83274517D02*
X128076190Y-83179279D01*
X128076190Y-83179279D02*
X128457143Y-83179279D01*
X128457143Y-83179279D02*
X128647619Y-83274517D01*
X128647619Y-83274517D02*
X128742857Y-83464994D01*
X128742857Y-83464994D02*
X128742857Y-83655470D01*
X128742857Y-83655470D02*
X127790476Y-83845946D01*
X129409524Y-83179279D02*
X129885714Y-84512613D01*
X129885714Y-84512613D02*
X130361905Y-83179279D01*
X131885715Y-84417375D02*
X131695239Y-84512613D01*
X131695239Y-84512613D02*
X131314286Y-84512613D01*
X131314286Y-84512613D02*
X131123810Y-84417375D01*
X131123810Y-84417375D02*
X131028572Y-84226898D01*
X131028572Y-84226898D02*
X131028572Y-83464994D01*
X131028572Y-83464994D02*
X131123810Y-83274517D01*
X131123810Y-83274517D02*
X131314286Y-83179279D01*
X131314286Y-83179279D02*
X131695239Y-83179279D01*
X131695239Y-83179279D02*
X131885715Y-83274517D01*
X131885715Y-83274517D02*
X131980953Y-83464994D01*
X131980953Y-83464994D02*
X131980953Y-83655470D01*
X131980953Y-83655470D02*
X131028572Y-83845946D01*
X133123810Y-84512613D02*
X132933334Y-84417375D01*
X132933334Y-84417375D02*
X132838096Y-84226898D01*
X132838096Y-84226898D02*
X132838096Y-82512613D01*
X148999999Y-132607851D02*
X148809523Y-132512613D01*
X148809523Y-132512613D02*
X148523809Y-132512613D01*
X148523809Y-132512613D02*
X148238094Y-132607851D01*
X148238094Y-132607851D02*
X148047618Y-132798327D01*
X148047618Y-132798327D02*
X147952380Y-132988803D01*
X147952380Y-132988803D02*
X147857142Y-133369755D01*
X147857142Y-133369755D02*
X147857142Y-133655470D01*
X147857142Y-133655470D02*
X147952380Y-134036422D01*
X147952380Y-134036422D02*
X148047618Y-134226898D01*
X148047618Y-134226898D02*
X148238094Y-134417375D01*
X148238094Y-134417375D02*
X148523809Y-134512613D01*
X148523809Y-134512613D02*
X148714285Y-134512613D01*
X148714285Y-134512613D02*
X148999999Y-134417375D01*
X148999999Y-134417375D02*
X149095237Y-134322136D01*
X149095237Y-134322136D02*
X149095237Y-133655470D01*
X149095237Y-133655470D02*
X148714285Y-133655470D01*
X149857142Y-133941184D02*
X150809523Y-133941184D01*
X149666666Y-134512613D02*
X150333332Y-132512613D01*
X150333332Y-132512613D02*
X150999999Y-134512613D01*
X151380952Y-132512613D02*
X152523809Y-132512613D01*
X151952380Y-134512613D02*
X151952380Y-132512613D01*
X153190476Y-133464994D02*
X153857143Y-133464994D01*
X154142857Y-134512613D02*
X153190476Y-134512613D01*
X153190476Y-134512613D02*
X153190476Y-132512613D01*
X153190476Y-132512613D02*
X154142857Y-132512613D01*
X119742857Y-99464994D02*
X119076190Y-99464994D01*
X119076190Y-100512613D02*
X119076190Y-98512613D01*
X119076190Y-98512613D02*
X120028571Y-98512613D01*
X120790476Y-100512613D02*
X120790476Y-98512613D01*
X120790476Y-98512613D02*
X121457143Y-99941184D01*
X121457143Y-99941184D02*
X122123809Y-98512613D01*
X122123809Y-98512613D02*
X122123809Y-100512613D01*
X115590476Y-161417375D02*
X115876190Y-161512613D01*
X115876190Y-161512613D02*
X116352381Y-161512613D01*
X116352381Y-161512613D02*
X116542857Y-161417375D01*
X116542857Y-161417375D02*
X116638095Y-161322136D01*
X116638095Y-161322136D02*
X116733333Y-161131660D01*
X116733333Y-161131660D02*
X116733333Y-160941184D01*
X116733333Y-160941184D02*
X116638095Y-160750708D01*
X116638095Y-160750708D02*
X116542857Y-160655470D01*
X116542857Y-160655470D02*
X116352381Y-160560232D01*
X116352381Y-160560232D02*
X115971428Y-160464994D01*
X115971428Y-160464994D02*
X115780952Y-160369755D01*
X115780952Y-160369755D02*
X115685714Y-160274517D01*
X115685714Y-160274517D02*
X115590476Y-160084041D01*
X115590476Y-160084041D02*
X115590476Y-159893565D01*
X115590476Y-159893565D02*
X115685714Y-159703089D01*
X115685714Y-159703089D02*
X115780952Y-159607851D01*
X115780952Y-159607851D02*
X115971428Y-159512613D01*
X115971428Y-159512613D02*
X116447619Y-159512613D01*
X116447619Y-159512613D02*
X116733333Y-159607851D01*
X117590476Y-161512613D02*
X117590476Y-160179279D01*
X117590476Y-159512613D02*
X117495238Y-159607851D01*
X117495238Y-159607851D02*
X117590476Y-159703089D01*
X117590476Y-159703089D02*
X117685714Y-159607851D01*
X117685714Y-159607851D02*
X117590476Y-159512613D01*
X117590476Y-159512613D02*
X117590476Y-159703089D01*
X118542857Y-160179279D02*
X118542857Y-161512613D01*
X118542857Y-160369755D02*
X118638095Y-160274517D01*
X118638095Y-160274517D02*
X118828571Y-160179279D01*
X118828571Y-160179279D02*
X119114286Y-160179279D01*
X119114286Y-160179279D02*
X119304762Y-160274517D01*
X119304762Y-160274517D02*
X119400000Y-160464994D01*
X119400000Y-160464994D02*
X119400000Y-161512613D01*
X121114286Y-161417375D02*
X120923810Y-161512613D01*
X120923810Y-161512613D02*
X120542857Y-161512613D01*
X120542857Y-161512613D02*
X120352381Y-161417375D01*
X120352381Y-161417375D02*
X120257143Y-161226898D01*
X120257143Y-161226898D02*
X120257143Y-160464994D01*
X120257143Y-160464994D02*
X120352381Y-160274517D01*
X120352381Y-160274517D02*
X120542857Y-160179279D01*
X120542857Y-160179279D02*
X120923810Y-160179279D01*
X120923810Y-160179279D02*
X121114286Y-160274517D01*
X121114286Y-160274517D02*
X121209524Y-160464994D01*
X121209524Y-160464994D02*
X121209524Y-160655470D01*
X121209524Y-160655470D02*
X120257143Y-160845946D01*
D16*
X120428570Y-165683528D02*
X120428570Y-164183528D01*
X120428570Y-164183528D02*
X120928570Y-165254957D01*
X120928570Y-165254957D02*
X121428570Y-164183528D01*
X121428570Y-164183528D02*
X121428570Y-165683528D01*
X122357142Y-165683528D02*
X122214285Y-165612100D01*
X122214285Y-165612100D02*
X122142856Y-165540671D01*
X122142856Y-165540671D02*
X122071428Y-165397814D01*
X122071428Y-165397814D02*
X122071428Y-164969242D01*
X122071428Y-164969242D02*
X122142856Y-164826385D01*
X122142856Y-164826385D02*
X122214285Y-164754957D01*
X122214285Y-164754957D02*
X122357142Y-164683528D01*
X122357142Y-164683528D02*
X122571428Y-164683528D01*
X122571428Y-164683528D02*
X122714285Y-164754957D01*
X122714285Y-164754957D02*
X122785714Y-164826385D01*
X122785714Y-164826385D02*
X122857142Y-164969242D01*
X122857142Y-164969242D02*
X122857142Y-165397814D01*
X122857142Y-165397814D02*
X122785714Y-165540671D01*
X122785714Y-165540671D02*
X122714285Y-165612100D01*
X122714285Y-165612100D02*
X122571428Y-165683528D01*
X122571428Y-165683528D02*
X122357142Y-165683528D01*
X124142857Y-164683528D02*
X124142857Y-165683528D01*
X123499999Y-164683528D02*
X123499999Y-165469242D01*
X123499999Y-165469242D02*
X123571428Y-165612100D01*
X123571428Y-165612100D02*
X123714285Y-165683528D01*
X123714285Y-165683528D02*
X123928571Y-165683528D01*
X123928571Y-165683528D02*
X124071428Y-165612100D01*
X124071428Y-165612100D02*
X124142857Y-165540671D01*
X124857142Y-164683528D02*
X124857142Y-165683528D01*
X124857142Y-164826385D02*
X124928571Y-164754957D01*
X124928571Y-164754957D02*
X125071428Y-164683528D01*
X125071428Y-164683528D02*
X125285714Y-164683528D01*
X125285714Y-164683528D02*
X125428571Y-164754957D01*
X125428571Y-164754957D02*
X125500000Y-164897814D01*
X125500000Y-164897814D02*
X125500000Y-165683528D01*
X126000000Y-164683528D02*
X126571428Y-164683528D01*
X126214285Y-164183528D02*
X126214285Y-165469242D01*
X126214285Y-165469242D02*
X126285714Y-165612100D01*
X126285714Y-165612100D02*
X126428571Y-165683528D01*
X126428571Y-165683528D02*
X126571428Y-165683528D01*
X127071428Y-164683528D02*
X127071428Y-165969242D01*
X127071428Y-165969242D02*
X127000000Y-166112100D01*
X127000000Y-166112100D02*
X126857143Y-166183528D01*
X126857143Y-166183528D02*
X126785714Y-166183528D01*
X127071428Y-164183528D02*
X127000000Y-164254957D01*
X127000000Y-164254957D02*
X127071428Y-164326385D01*
X127071428Y-164326385D02*
X127142857Y-164254957D01*
X127142857Y-164254957D02*
X127071428Y-164183528D01*
X127071428Y-164183528D02*
X127071428Y-164326385D01*
X128000000Y-165683528D02*
X127857143Y-165612100D01*
X127857143Y-165612100D02*
X127785714Y-165540671D01*
X127785714Y-165540671D02*
X127714286Y-165397814D01*
X127714286Y-165397814D02*
X127714286Y-164969242D01*
X127714286Y-164969242D02*
X127785714Y-164826385D01*
X127785714Y-164826385D02*
X127857143Y-164754957D01*
X127857143Y-164754957D02*
X128000000Y-164683528D01*
X128000000Y-164683528D02*
X128214286Y-164683528D01*
X128214286Y-164683528D02*
X128357143Y-164754957D01*
X128357143Y-164754957D02*
X128428572Y-164826385D01*
X128428572Y-164826385D02*
X128500000Y-164969242D01*
X128500000Y-164969242D02*
X128500000Y-165397814D01*
X128500000Y-165397814D02*
X128428572Y-165540671D01*
X128428572Y-165540671D02*
X128357143Y-165612100D01*
X128357143Y-165612100D02*
X128214286Y-165683528D01*
X128214286Y-165683528D02*
X128000000Y-165683528D01*
X129000000Y-164683528D02*
X129357143Y-165683528D01*
X129714286Y-164683528D02*
X129357143Y-165683528D01*
X129357143Y-165683528D02*
X129214286Y-166040671D01*
X129214286Y-166040671D02*
X129142857Y-166112100D01*
X129142857Y-166112100D02*
X129000000Y-166183528D01*
X131428571Y-165683528D02*
X131428571Y-164183528D01*
X131428571Y-164183528D02*
X131928571Y-165254957D01*
X131928571Y-165254957D02*
X132428571Y-164183528D01*
X132428571Y-164183528D02*
X132428571Y-165683528D01*
X133357143Y-165683528D02*
X133214286Y-165612100D01*
X133214286Y-165612100D02*
X133142857Y-165540671D01*
X133142857Y-165540671D02*
X133071429Y-165397814D01*
X133071429Y-165397814D02*
X133071429Y-164969242D01*
X133071429Y-164969242D02*
X133142857Y-164826385D01*
X133142857Y-164826385D02*
X133214286Y-164754957D01*
X133214286Y-164754957D02*
X133357143Y-164683528D01*
X133357143Y-164683528D02*
X133571429Y-164683528D01*
X133571429Y-164683528D02*
X133714286Y-164754957D01*
X133714286Y-164754957D02*
X133785715Y-164826385D01*
X133785715Y-164826385D02*
X133857143Y-164969242D01*
X133857143Y-164969242D02*
X133857143Y-165397814D01*
X133857143Y-165397814D02*
X133785715Y-165540671D01*
X133785715Y-165540671D02*
X133714286Y-165612100D01*
X133714286Y-165612100D02*
X133571429Y-165683528D01*
X133571429Y-165683528D02*
X133357143Y-165683528D01*
X135142858Y-165683528D02*
X135142858Y-164183528D01*
X135142858Y-165612100D02*
X135000000Y-165683528D01*
X135000000Y-165683528D02*
X134714286Y-165683528D01*
X134714286Y-165683528D02*
X134571429Y-165612100D01*
X134571429Y-165612100D02*
X134500000Y-165540671D01*
X134500000Y-165540671D02*
X134428572Y-165397814D01*
X134428572Y-165397814D02*
X134428572Y-164969242D01*
X134428572Y-164969242D02*
X134500000Y-164826385D01*
X134500000Y-164826385D02*
X134571429Y-164754957D01*
X134571429Y-164754957D02*
X134714286Y-164683528D01*
X134714286Y-164683528D02*
X135000000Y-164683528D01*
X135000000Y-164683528D02*
X135142858Y-164754957D01*
X136500001Y-164683528D02*
X136500001Y-165683528D01*
X135857143Y-164683528D02*
X135857143Y-165469242D01*
X135857143Y-165469242D02*
X135928572Y-165612100D01*
X135928572Y-165612100D02*
X136071429Y-165683528D01*
X136071429Y-165683528D02*
X136285715Y-165683528D01*
X136285715Y-165683528D02*
X136428572Y-165612100D01*
X136428572Y-165612100D02*
X136500001Y-165540671D01*
X137428572Y-165683528D02*
X137285715Y-165612100D01*
X137285715Y-165612100D02*
X137214286Y-165469242D01*
X137214286Y-165469242D02*
X137214286Y-164183528D01*
X138642858Y-165683528D02*
X138642858Y-164897814D01*
X138642858Y-164897814D02*
X138571429Y-164754957D01*
X138571429Y-164754957D02*
X138428572Y-164683528D01*
X138428572Y-164683528D02*
X138142858Y-164683528D01*
X138142858Y-164683528D02*
X138000000Y-164754957D01*
X138642858Y-165612100D02*
X138500000Y-165683528D01*
X138500000Y-165683528D02*
X138142858Y-165683528D01*
X138142858Y-165683528D02*
X138000000Y-165612100D01*
X138000000Y-165612100D02*
X137928572Y-165469242D01*
X137928572Y-165469242D02*
X137928572Y-165326385D01*
X137928572Y-165326385D02*
X138000000Y-165183528D01*
X138000000Y-165183528D02*
X138142858Y-165112100D01*
X138142858Y-165112100D02*
X138500000Y-165112100D01*
X138500000Y-165112100D02*
X138642858Y-165040671D01*
X139357143Y-165683528D02*
X139357143Y-164683528D01*
X139357143Y-164969242D02*
X139428572Y-164826385D01*
X139428572Y-164826385D02*
X139500001Y-164754957D01*
X139500001Y-164754957D02*
X139642858Y-164683528D01*
X139642858Y-164683528D02*
X139785715Y-164683528D01*
D15*
X139309523Y-134322136D02*
X139214285Y-134417375D01*
X139214285Y-134417375D02*
X138928571Y-134512613D01*
X138928571Y-134512613D02*
X138738095Y-134512613D01*
X138738095Y-134512613D02*
X138452380Y-134417375D01*
X138452380Y-134417375D02*
X138261904Y-134226898D01*
X138261904Y-134226898D02*
X138166666Y-134036422D01*
X138166666Y-134036422D02*
X138071428Y-133655470D01*
X138071428Y-133655470D02*
X138071428Y-133369755D01*
X138071428Y-133369755D02*
X138166666Y-132988803D01*
X138166666Y-132988803D02*
X138261904Y-132798327D01*
X138261904Y-132798327D02*
X138452380Y-132607851D01*
X138452380Y-132607851D02*
X138738095Y-132512613D01*
X138738095Y-132512613D02*
X138928571Y-132512613D01*
X138928571Y-132512613D02*
X139214285Y-132607851D01*
X139214285Y-132607851D02*
X139309523Y-132703089D01*
X141119047Y-134512613D02*
X140166666Y-134512613D01*
X140166666Y-134512613D02*
X140166666Y-132512613D01*
X141785714Y-134512613D02*
X141785714Y-132512613D01*
X142928571Y-134512613D02*
X142071428Y-133369755D01*
X142928571Y-132512613D02*
X141785714Y-133655470D01*
X158234438Y-83559127D02*
X158234438Y-84511508D01*
X158234438Y-84511508D02*
X156234438Y-84511508D01*
X158139200Y-82130555D02*
X158234438Y-82321031D01*
X158234438Y-82321031D02*
X158234438Y-82701984D01*
X158234438Y-82701984D02*
X158139200Y-82892460D01*
X158139200Y-82892460D02*
X157948723Y-82987698D01*
X157948723Y-82987698D02*
X157186819Y-82987698D01*
X157186819Y-82987698D02*
X156996342Y-82892460D01*
X156996342Y-82892460D02*
X156901104Y-82701984D01*
X156901104Y-82701984D02*
X156901104Y-82321031D01*
X156901104Y-82321031D02*
X156996342Y-82130555D01*
X156996342Y-82130555D02*
X157186819Y-82035317D01*
X157186819Y-82035317D02*
X157377295Y-82035317D01*
X157377295Y-82035317D02*
X157567771Y-82987698D01*
X156901104Y-81368650D02*
X158234438Y-80892460D01*
X158234438Y-80892460D02*
X156901104Y-80416269D01*
X158139200Y-78892459D02*
X158234438Y-79082935D01*
X158234438Y-79082935D02*
X158234438Y-79463888D01*
X158234438Y-79463888D02*
X158139200Y-79654364D01*
X158139200Y-79654364D02*
X157948723Y-79749602D01*
X157948723Y-79749602D02*
X157186819Y-79749602D01*
X157186819Y-79749602D02*
X156996342Y-79654364D01*
X156996342Y-79654364D02*
X156901104Y-79463888D01*
X156901104Y-79463888D02*
X156901104Y-79082935D01*
X156901104Y-79082935D02*
X156996342Y-78892459D01*
X156996342Y-78892459D02*
X157186819Y-78797221D01*
X157186819Y-78797221D02*
X157377295Y-78797221D01*
X157377295Y-78797221D02*
X157567771Y-79749602D01*
X158234438Y-77654364D02*
X158139200Y-77844840D01*
X158139200Y-77844840D02*
X157948723Y-77940078D01*
X157948723Y-77940078D02*
X156234438Y-77940078D01*
X108561904Y-131512613D02*
X107038095Y-133512613D01*
X107609523Y-133512613D02*
X107419047Y-133417375D01*
X107419047Y-133417375D02*
X107228571Y-133226898D01*
X107228571Y-133226898D02*
X107133333Y-132845946D01*
X107133333Y-132845946D02*
X107133333Y-132179279D01*
X107133333Y-132179279D02*
X107228571Y-131798327D01*
X107228571Y-131798327D02*
X107419047Y-131607851D01*
X107419047Y-131607851D02*
X107609523Y-131512613D01*
X107609523Y-131512613D02*
X107990476Y-131512613D01*
X107990476Y-131512613D02*
X108180952Y-131607851D01*
X108180952Y-131607851D02*
X108371428Y-131798327D01*
X108371428Y-131798327D02*
X108466666Y-132179279D01*
X108466666Y-132179279D02*
X108466666Y-132845946D01*
X108466666Y-132845946D02*
X108371428Y-133226898D01*
X108371428Y-133226898D02*
X108180952Y-133417375D01*
X108180952Y-133417375D02*
X107990476Y-133512613D01*
X107990476Y-133512613D02*
X107609523Y-133512613D01*
X148676190Y-161417375D02*
X148961904Y-161512613D01*
X148961904Y-161512613D02*
X149438095Y-161512613D01*
X149438095Y-161512613D02*
X149628571Y-161417375D01*
X149628571Y-161417375D02*
X149723809Y-161322136D01*
X149723809Y-161322136D02*
X149819047Y-161131660D01*
X149819047Y-161131660D02*
X149819047Y-160941184D01*
X149819047Y-160941184D02*
X149723809Y-160750708D01*
X149723809Y-160750708D02*
X149628571Y-160655470D01*
X149628571Y-160655470D02*
X149438095Y-160560232D01*
X149438095Y-160560232D02*
X149057142Y-160464994D01*
X149057142Y-160464994D02*
X148866666Y-160369755D01*
X148866666Y-160369755D02*
X148771428Y-160274517D01*
X148771428Y-160274517D02*
X148676190Y-160084041D01*
X148676190Y-160084041D02*
X148676190Y-159893565D01*
X148676190Y-159893565D02*
X148771428Y-159703089D01*
X148771428Y-159703089D02*
X148866666Y-159607851D01*
X148866666Y-159607851D02*
X149057142Y-159512613D01*
X149057142Y-159512613D02*
X149533333Y-159512613D01*
X149533333Y-159512613D02*
X149819047Y-159607851D01*
X150485714Y-160179279D02*
X150866666Y-161512613D01*
X150866666Y-161512613D02*
X151247619Y-160560232D01*
X151247619Y-160560232D02*
X151628571Y-161512613D01*
X151628571Y-161512613D02*
X152009523Y-160179279D01*
X153533333Y-161417375D02*
X153342857Y-161512613D01*
X153342857Y-161512613D02*
X152961904Y-161512613D01*
X152961904Y-161512613D02*
X152771428Y-161417375D01*
X152771428Y-161417375D02*
X152676190Y-161226898D01*
X152676190Y-161226898D02*
X152676190Y-160464994D01*
X152676190Y-160464994D02*
X152771428Y-160274517D01*
X152771428Y-160274517D02*
X152961904Y-160179279D01*
X152961904Y-160179279D02*
X153342857Y-160179279D01*
X153342857Y-160179279D02*
X153533333Y-160274517D01*
X153533333Y-160274517D02*
X153628571Y-160464994D01*
X153628571Y-160464994D02*
X153628571Y-160655470D01*
X153628571Y-160655470D02*
X152676190Y-160845946D01*
X154771428Y-161512613D02*
X154580952Y-161417375D01*
X154580952Y-161417375D02*
X154485714Y-161226898D01*
X154485714Y-161226898D02*
X154485714Y-159512613D01*
X155819047Y-161512613D02*
X155628571Y-161417375D01*
X155628571Y-161417375D02*
X155533333Y-161226898D01*
X155533333Y-161226898D02*
X155533333Y-159512613D01*
X146976190Y-52912613D02*
X146309523Y-51960232D01*
X145833333Y-52912613D02*
X145833333Y-50912613D01*
X145833333Y-50912613D02*
X146595238Y-50912613D01*
X146595238Y-50912613D02*
X146785714Y-51007851D01*
X146785714Y-51007851D02*
X146880952Y-51103089D01*
X146880952Y-51103089D02*
X146976190Y-51293565D01*
X146976190Y-51293565D02*
X146976190Y-51579279D01*
X146976190Y-51579279D02*
X146880952Y-51769755D01*
X146880952Y-51769755D02*
X146785714Y-51864994D01*
X146785714Y-51864994D02*
X146595238Y-51960232D01*
X146595238Y-51960232D02*
X145833333Y-51960232D01*
X148690476Y-52912613D02*
X148690476Y-51864994D01*
X148690476Y-51864994D02*
X148595238Y-51674517D01*
X148595238Y-51674517D02*
X148404762Y-51579279D01*
X148404762Y-51579279D02*
X148023809Y-51579279D01*
X148023809Y-51579279D02*
X147833333Y-51674517D01*
X148690476Y-52817375D02*
X148500000Y-52912613D01*
X148500000Y-52912613D02*
X148023809Y-52912613D01*
X148023809Y-52912613D02*
X147833333Y-52817375D01*
X147833333Y-52817375D02*
X147738095Y-52626898D01*
X147738095Y-52626898D02*
X147738095Y-52436422D01*
X147738095Y-52436422D02*
X147833333Y-52245946D01*
X147833333Y-52245946D02*
X148023809Y-52150708D01*
X148023809Y-52150708D02*
X148500000Y-52150708D01*
X148500000Y-52150708D02*
X148690476Y-52055470D01*
X149642857Y-52912613D02*
X149642857Y-51579279D01*
X149642857Y-51769755D02*
X149738095Y-51674517D01*
X149738095Y-51674517D02*
X149928571Y-51579279D01*
X149928571Y-51579279D02*
X150214286Y-51579279D01*
X150214286Y-51579279D02*
X150404762Y-51674517D01*
X150404762Y-51674517D02*
X150500000Y-51864994D01*
X150500000Y-51864994D02*
X150500000Y-52912613D01*
X150500000Y-51864994D02*
X150595238Y-51674517D01*
X150595238Y-51674517D02*
X150785714Y-51579279D01*
X150785714Y-51579279D02*
X151071428Y-51579279D01*
X151071428Y-51579279D02*
X151261905Y-51674517D01*
X151261905Y-51674517D02*
X151357143Y-51864994D01*
X151357143Y-51864994D02*
X151357143Y-52912613D01*
X152309524Y-51579279D02*
X152309524Y-53579279D01*
X152309524Y-51674517D02*
X152500000Y-51579279D01*
X152500000Y-51579279D02*
X152880953Y-51579279D01*
X152880953Y-51579279D02*
X153071429Y-51674517D01*
X153071429Y-51674517D02*
X153166667Y-51769755D01*
X153166667Y-51769755D02*
X153261905Y-51960232D01*
X153261905Y-51960232D02*
X153261905Y-52531660D01*
X153261905Y-52531660D02*
X153166667Y-52722136D01*
X153166667Y-52722136D02*
X153071429Y-52817375D01*
X153071429Y-52817375D02*
X152880953Y-52912613D01*
X152880953Y-52912613D02*
X152500000Y-52912613D01*
X152500000Y-52912613D02*
X152309524Y-52817375D01*
X109985714Y-77834438D02*
X109319047Y-76882057D01*
X108842857Y-77834438D02*
X108842857Y-75834438D01*
X108842857Y-75834438D02*
X109604762Y-75834438D01*
X109604762Y-75834438D02*
X109795238Y-75929676D01*
X109795238Y-75929676D02*
X109890476Y-76024914D01*
X109890476Y-76024914D02*
X109985714Y-76215390D01*
X109985714Y-76215390D02*
X109985714Y-76501104D01*
X109985714Y-76501104D02*
X109890476Y-76691580D01*
X109890476Y-76691580D02*
X109795238Y-76786819D01*
X109795238Y-76786819D02*
X109604762Y-76882057D01*
X109604762Y-76882057D02*
X108842857Y-76882057D01*
X111700000Y-77834438D02*
X111700000Y-76786819D01*
X111700000Y-76786819D02*
X111604762Y-76596342D01*
X111604762Y-76596342D02*
X111414286Y-76501104D01*
X111414286Y-76501104D02*
X111033333Y-76501104D01*
X111033333Y-76501104D02*
X110842857Y-76596342D01*
X111700000Y-77739200D02*
X111509524Y-77834438D01*
X111509524Y-77834438D02*
X111033333Y-77834438D01*
X111033333Y-77834438D02*
X110842857Y-77739200D01*
X110842857Y-77739200D02*
X110747619Y-77548723D01*
X110747619Y-77548723D02*
X110747619Y-77358247D01*
X110747619Y-77358247D02*
X110842857Y-77167771D01*
X110842857Y-77167771D02*
X111033333Y-77072533D01*
X111033333Y-77072533D02*
X111509524Y-77072533D01*
X111509524Y-77072533D02*
X111700000Y-76977295D01*
X112366667Y-76501104D02*
X113128571Y-76501104D01*
X112652381Y-75834438D02*
X112652381Y-77548723D01*
X112652381Y-77548723D02*
X112747619Y-77739200D01*
X112747619Y-77739200D02*
X112938095Y-77834438D01*
X112938095Y-77834438D02*
X113128571Y-77834438D01*
X114557143Y-77739200D02*
X114366667Y-77834438D01*
X114366667Y-77834438D02*
X113985714Y-77834438D01*
X113985714Y-77834438D02*
X113795238Y-77739200D01*
X113795238Y-77739200D02*
X113700000Y-77548723D01*
X113700000Y-77548723D02*
X113700000Y-76786819D01*
X113700000Y-76786819D02*
X113795238Y-76596342D01*
X113795238Y-76596342D02*
X113985714Y-76501104D01*
X113985714Y-76501104D02*
X114366667Y-76501104D01*
X114366667Y-76501104D02*
X114557143Y-76596342D01*
X114557143Y-76596342D02*
X114652381Y-76786819D01*
X114652381Y-76786819D02*
X114652381Y-76977295D01*
X114652381Y-76977295D02*
X113700000Y-77167771D01*
X123542857Y-132464994D02*
X122876190Y-132464994D01*
X122876190Y-133512613D02*
X122876190Y-131512613D01*
X122876190Y-131512613D02*
X123828571Y-131512613D01*
X124590476Y-133512613D02*
X124590476Y-131512613D01*
X124590476Y-131512613D02*
X125257143Y-132941184D01*
X125257143Y-132941184D02*
X125923809Y-131512613D01*
X125923809Y-131512613D02*
X125923809Y-133512613D01*
X127219047Y-59512613D02*
X126266666Y-59512613D01*
X126266666Y-59512613D02*
X126266666Y-57512613D01*
X128647619Y-59417375D02*
X128457143Y-59512613D01*
X128457143Y-59512613D02*
X128076190Y-59512613D01*
X128076190Y-59512613D02*
X127885714Y-59417375D01*
X127885714Y-59417375D02*
X127790476Y-59226898D01*
X127790476Y-59226898D02*
X127790476Y-58464994D01*
X127790476Y-58464994D02*
X127885714Y-58274517D01*
X127885714Y-58274517D02*
X128076190Y-58179279D01*
X128076190Y-58179279D02*
X128457143Y-58179279D01*
X128457143Y-58179279D02*
X128647619Y-58274517D01*
X128647619Y-58274517D02*
X128742857Y-58464994D01*
X128742857Y-58464994D02*
X128742857Y-58655470D01*
X128742857Y-58655470D02*
X127790476Y-58845946D01*
X129409524Y-58179279D02*
X129885714Y-59512613D01*
X129885714Y-59512613D02*
X130361905Y-58179279D01*
X131885715Y-59417375D02*
X131695239Y-59512613D01*
X131695239Y-59512613D02*
X131314286Y-59512613D01*
X131314286Y-59512613D02*
X131123810Y-59417375D01*
X131123810Y-59417375D02*
X131028572Y-59226898D01*
X131028572Y-59226898D02*
X131028572Y-58464994D01*
X131028572Y-58464994D02*
X131123810Y-58274517D01*
X131123810Y-58274517D02*
X131314286Y-58179279D01*
X131314286Y-58179279D02*
X131695239Y-58179279D01*
X131695239Y-58179279D02*
X131885715Y-58274517D01*
X131885715Y-58274517D02*
X131980953Y-58464994D01*
X131980953Y-58464994D02*
X131980953Y-58655470D01*
X131980953Y-58655470D02*
X131028572Y-58845946D01*
X133123810Y-59512613D02*
X132933334Y-59417375D01*
X132933334Y-59417375D02*
X132838096Y-59226898D01*
X132838096Y-59226898D02*
X132838096Y-57512613D01*
X109985714Y-53034438D02*
X109319047Y-52082057D01*
X108842857Y-53034438D02*
X108842857Y-51034438D01*
X108842857Y-51034438D02*
X109604762Y-51034438D01*
X109604762Y-51034438D02*
X109795238Y-51129676D01*
X109795238Y-51129676D02*
X109890476Y-51224914D01*
X109890476Y-51224914D02*
X109985714Y-51415390D01*
X109985714Y-51415390D02*
X109985714Y-51701104D01*
X109985714Y-51701104D02*
X109890476Y-51891580D01*
X109890476Y-51891580D02*
X109795238Y-51986819D01*
X109795238Y-51986819D02*
X109604762Y-52082057D01*
X109604762Y-52082057D02*
X108842857Y-52082057D01*
X111700000Y-53034438D02*
X111700000Y-51986819D01*
X111700000Y-51986819D02*
X111604762Y-51796342D01*
X111604762Y-51796342D02*
X111414286Y-51701104D01*
X111414286Y-51701104D02*
X111033333Y-51701104D01*
X111033333Y-51701104D02*
X110842857Y-51796342D01*
X111700000Y-52939200D02*
X111509524Y-53034438D01*
X111509524Y-53034438D02*
X111033333Y-53034438D01*
X111033333Y-53034438D02*
X110842857Y-52939200D01*
X110842857Y-52939200D02*
X110747619Y-52748723D01*
X110747619Y-52748723D02*
X110747619Y-52558247D01*
X110747619Y-52558247D02*
X110842857Y-52367771D01*
X110842857Y-52367771D02*
X111033333Y-52272533D01*
X111033333Y-52272533D02*
X111509524Y-52272533D01*
X111509524Y-52272533D02*
X111700000Y-52177295D01*
X112366667Y-51701104D02*
X113128571Y-51701104D01*
X112652381Y-51034438D02*
X112652381Y-52748723D01*
X112652381Y-52748723D02*
X112747619Y-52939200D01*
X112747619Y-52939200D02*
X112938095Y-53034438D01*
X112938095Y-53034438D02*
X113128571Y-53034438D01*
X114557143Y-52939200D02*
X114366667Y-53034438D01*
X114366667Y-53034438D02*
X113985714Y-53034438D01*
X113985714Y-53034438D02*
X113795238Y-52939200D01*
X113795238Y-52939200D02*
X113700000Y-52748723D01*
X113700000Y-52748723D02*
X113700000Y-51986819D01*
X113700000Y-51986819D02*
X113795238Y-51796342D01*
X113795238Y-51796342D02*
X113985714Y-51701104D01*
X113985714Y-51701104D02*
X114366667Y-51701104D01*
X114366667Y-51701104D02*
X114557143Y-51796342D01*
X114557143Y-51796342D02*
X114652381Y-51986819D01*
X114652381Y-51986819D02*
X114652381Y-52177295D01*
X114652381Y-52177295D02*
X113700000Y-52367771D01*
X158234438Y-123559127D02*
X158234438Y-124511508D01*
X158234438Y-124511508D02*
X156234438Y-124511508D01*
X158139200Y-122130555D02*
X158234438Y-122321031D01*
X158234438Y-122321031D02*
X158234438Y-122701984D01*
X158234438Y-122701984D02*
X158139200Y-122892460D01*
X158139200Y-122892460D02*
X157948723Y-122987698D01*
X157948723Y-122987698D02*
X157186819Y-122987698D01*
X157186819Y-122987698D02*
X156996342Y-122892460D01*
X156996342Y-122892460D02*
X156901104Y-122701984D01*
X156901104Y-122701984D02*
X156901104Y-122321031D01*
X156901104Y-122321031D02*
X156996342Y-122130555D01*
X156996342Y-122130555D02*
X157186819Y-122035317D01*
X157186819Y-122035317D02*
X157377295Y-122035317D01*
X157377295Y-122035317D02*
X157567771Y-122987698D01*
X156901104Y-121368650D02*
X158234438Y-120892460D01*
X158234438Y-120892460D02*
X156901104Y-120416269D01*
X158139200Y-118892459D02*
X158234438Y-119082935D01*
X158234438Y-119082935D02*
X158234438Y-119463888D01*
X158234438Y-119463888D02*
X158139200Y-119654364D01*
X158139200Y-119654364D02*
X157948723Y-119749602D01*
X157948723Y-119749602D02*
X157186819Y-119749602D01*
X157186819Y-119749602D02*
X156996342Y-119654364D01*
X156996342Y-119654364D02*
X156901104Y-119463888D01*
X156901104Y-119463888D02*
X156901104Y-119082935D01*
X156901104Y-119082935D02*
X156996342Y-118892459D01*
X156996342Y-118892459D02*
X157186819Y-118797221D01*
X157186819Y-118797221D02*
X157377295Y-118797221D01*
X157377295Y-118797221D02*
X157567771Y-119749602D01*
X158234438Y-117654364D02*
X158139200Y-117844840D01*
X158139200Y-117844840D02*
X157948723Y-117940078D01*
X157948723Y-117940078D02*
X156234438Y-117940078D01*
X109985714Y-102912613D02*
X109319047Y-101960232D01*
X108842857Y-102912613D02*
X108842857Y-100912613D01*
X108842857Y-100912613D02*
X109604762Y-100912613D01*
X109604762Y-100912613D02*
X109795238Y-101007851D01*
X109795238Y-101007851D02*
X109890476Y-101103089D01*
X109890476Y-101103089D02*
X109985714Y-101293565D01*
X109985714Y-101293565D02*
X109985714Y-101579279D01*
X109985714Y-101579279D02*
X109890476Y-101769755D01*
X109890476Y-101769755D02*
X109795238Y-101864994D01*
X109795238Y-101864994D02*
X109604762Y-101960232D01*
X109604762Y-101960232D02*
X108842857Y-101960232D01*
X111700000Y-102912613D02*
X111700000Y-101864994D01*
X111700000Y-101864994D02*
X111604762Y-101674517D01*
X111604762Y-101674517D02*
X111414286Y-101579279D01*
X111414286Y-101579279D02*
X111033333Y-101579279D01*
X111033333Y-101579279D02*
X110842857Y-101674517D01*
X111700000Y-102817375D02*
X111509524Y-102912613D01*
X111509524Y-102912613D02*
X111033333Y-102912613D01*
X111033333Y-102912613D02*
X110842857Y-102817375D01*
X110842857Y-102817375D02*
X110747619Y-102626898D01*
X110747619Y-102626898D02*
X110747619Y-102436422D01*
X110747619Y-102436422D02*
X110842857Y-102245946D01*
X110842857Y-102245946D02*
X111033333Y-102150708D01*
X111033333Y-102150708D02*
X111509524Y-102150708D01*
X111509524Y-102150708D02*
X111700000Y-102055470D01*
X112366667Y-101579279D02*
X113128571Y-101579279D01*
X112652381Y-100912613D02*
X112652381Y-102626898D01*
X112652381Y-102626898D02*
X112747619Y-102817375D01*
X112747619Y-102817375D02*
X112938095Y-102912613D01*
X112938095Y-102912613D02*
X113128571Y-102912613D01*
X114557143Y-102817375D02*
X114366667Y-102912613D01*
X114366667Y-102912613D02*
X113985714Y-102912613D01*
X113985714Y-102912613D02*
X113795238Y-102817375D01*
X113795238Y-102817375D02*
X113700000Y-102626898D01*
X113700000Y-102626898D02*
X113700000Y-101864994D01*
X113700000Y-101864994D02*
X113795238Y-101674517D01*
X113795238Y-101674517D02*
X113985714Y-101579279D01*
X113985714Y-101579279D02*
X114366667Y-101579279D01*
X114366667Y-101579279D02*
X114557143Y-101674517D01*
X114557143Y-101674517D02*
X114652381Y-101864994D01*
X114652381Y-101864994D02*
X114652381Y-102055470D01*
X114652381Y-102055470D02*
X113700000Y-102245946D01*
X127219047Y-109512613D02*
X126266666Y-109512613D01*
X126266666Y-109512613D02*
X126266666Y-107512613D01*
X128647619Y-109417375D02*
X128457143Y-109512613D01*
X128457143Y-109512613D02*
X128076190Y-109512613D01*
X128076190Y-109512613D02*
X127885714Y-109417375D01*
X127885714Y-109417375D02*
X127790476Y-109226898D01*
X127790476Y-109226898D02*
X127790476Y-108464994D01*
X127790476Y-108464994D02*
X127885714Y-108274517D01*
X127885714Y-108274517D02*
X128076190Y-108179279D01*
X128076190Y-108179279D02*
X128457143Y-108179279D01*
X128457143Y-108179279D02*
X128647619Y-108274517D01*
X128647619Y-108274517D02*
X128742857Y-108464994D01*
X128742857Y-108464994D02*
X128742857Y-108655470D01*
X128742857Y-108655470D02*
X127790476Y-108845946D01*
X129409524Y-108179279D02*
X129885714Y-109512613D01*
X129885714Y-109512613D02*
X130361905Y-108179279D01*
X131885715Y-109417375D02*
X131695239Y-109512613D01*
X131695239Y-109512613D02*
X131314286Y-109512613D01*
X131314286Y-109512613D02*
X131123810Y-109417375D01*
X131123810Y-109417375D02*
X131028572Y-109226898D01*
X131028572Y-109226898D02*
X131028572Y-108464994D01*
X131028572Y-108464994D02*
X131123810Y-108274517D01*
X131123810Y-108274517D02*
X131314286Y-108179279D01*
X131314286Y-108179279D02*
X131695239Y-108179279D01*
X131695239Y-108179279D02*
X131885715Y-108274517D01*
X131885715Y-108274517D02*
X131980953Y-108464994D01*
X131980953Y-108464994D02*
X131980953Y-108655470D01*
X131980953Y-108655470D02*
X131028572Y-108845946D01*
X133123810Y-109512613D02*
X132933334Y-109417375D01*
X132933334Y-109417375D02*
X132838096Y-109226898D01*
X132838096Y-109226898D02*
X132838096Y-107512613D01*
X139176190Y-161512613D02*
X138509523Y-160560232D01*
X138033333Y-161512613D02*
X138033333Y-159512613D01*
X138033333Y-159512613D02*
X138795238Y-159512613D01*
X138795238Y-159512613D02*
X138985714Y-159607851D01*
X138985714Y-159607851D02*
X139080952Y-159703089D01*
X139080952Y-159703089D02*
X139176190Y-159893565D01*
X139176190Y-159893565D02*
X139176190Y-160179279D01*
X139176190Y-160179279D02*
X139080952Y-160369755D01*
X139080952Y-160369755D02*
X138985714Y-160464994D01*
X138985714Y-160464994D02*
X138795238Y-160560232D01*
X138795238Y-160560232D02*
X138033333Y-160560232D01*
X140890476Y-161512613D02*
X140890476Y-160464994D01*
X140890476Y-160464994D02*
X140795238Y-160274517D01*
X140795238Y-160274517D02*
X140604762Y-160179279D01*
X140604762Y-160179279D02*
X140223809Y-160179279D01*
X140223809Y-160179279D02*
X140033333Y-160274517D01*
X140890476Y-161417375D02*
X140700000Y-161512613D01*
X140700000Y-161512613D02*
X140223809Y-161512613D01*
X140223809Y-161512613D02*
X140033333Y-161417375D01*
X140033333Y-161417375D02*
X139938095Y-161226898D01*
X139938095Y-161226898D02*
X139938095Y-161036422D01*
X139938095Y-161036422D02*
X140033333Y-160845946D01*
X140033333Y-160845946D02*
X140223809Y-160750708D01*
X140223809Y-160750708D02*
X140700000Y-160750708D01*
X140700000Y-160750708D02*
X140890476Y-160655470D01*
X141842857Y-161512613D02*
X141842857Y-160179279D01*
X141842857Y-160369755D02*
X141938095Y-160274517D01*
X141938095Y-160274517D02*
X142128571Y-160179279D01*
X142128571Y-160179279D02*
X142414286Y-160179279D01*
X142414286Y-160179279D02*
X142604762Y-160274517D01*
X142604762Y-160274517D02*
X142700000Y-160464994D01*
X142700000Y-160464994D02*
X142700000Y-161512613D01*
X142700000Y-160464994D02*
X142795238Y-160274517D01*
X142795238Y-160274517D02*
X142985714Y-160179279D01*
X142985714Y-160179279D02*
X143271428Y-160179279D01*
X143271428Y-160179279D02*
X143461905Y-160274517D01*
X143461905Y-160274517D02*
X143557143Y-160464994D01*
X143557143Y-160464994D02*
X143557143Y-161512613D01*
X144509524Y-160179279D02*
X144509524Y-162179279D01*
X144509524Y-160274517D02*
X144700000Y-160179279D01*
X144700000Y-160179279D02*
X145080953Y-160179279D01*
X145080953Y-160179279D02*
X145271429Y-160274517D01*
X145271429Y-160274517D02*
X145366667Y-160369755D01*
X145366667Y-160369755D02*
X145461905Y-160560232D01*
X145461905Y-160560232D02*
X145461905Y-161131660D01*
X145461905Y-161131660D02*
X145366667Y-161322136D01*
X145366667Y-161322136D02*
X145271429Y-161417375D01*
X145271429Y-161417375D02*
X145080953Y-161512613D01*
X145080953Y-161512613D02*
X144700000Y-161512613D01*
X144700000Y-161512613D02*
X144509524Y-161417375D01*
X145976190Y-92817375D02*
X146261904Y-92912613D01*
X146261904Y-92912613D02*
X146738095Y-92912613D01*
X146738095Y-92912613D02*
X146928571Y-92817375D01*
X146928571Y-92817375D02*
X147023809Y-92722136D01*
X147023809Y-92722136D02*
X147119047Y-92531660D01*
X147119047Y-92531660D02*
X147119047Y-92341184D01*
X147119047Y-92341184D02*
X147023809Y-92150708D01*
X147023809Y-92150708D02*
X146928571Y-92055470D01*
X146928571Y-92055470D02*
X146738095Y-91960232D01*
X146738095Y-91960232D02*
X146357142Y-91864994D01*
X146357142Y-91864994D02*
X146166666Y-91769755D01*
X146166666Y-91769755D02*
X146071428Y-91674517D01*
X146071428Y-91674517D02*
X145976190Y-91484041D01*
X145976190Y-91484041D02*
X145976190Y-91293565D01*
X145976190Y-91293565D02*
X146071428Y-91103089D01*
X146071428Y-91103089D02*
X146166666Y-91007851D01*
X146166666Y-91007851D02*
X146357142Y-90912613D01*
X146357142Y-90912613D02*
X146833333Y-90912613D01*
X146833333Y-90912613D02*
X147119047Y-91007851D01*
X147785714Y-91579279D02*
X148166666Y-92912613D01*
X148166666Y-92912613D02*
X148547619Y-91960232D01*
X148547619Y-91960232D02*
X148928571Y-92912613D01*
X148928571Y-92912613D02*
X149309523Y-91579279D01*
X150833333Y-92817375D02*
X150642857Y-92912613D01*
X150642857Y-92912613D02*
X150261904Y-92912613D01*
X150261904Y-92912613D02*
X150071428Y-92817375D01*
X150071428Y-92817375D02*
X149976190Y-92626898D01*
X149976190Y-92626898D02*
X149976190Y-91864994D01*
X149976190Y-91864994D02*
X150071428Y-91674517D01*
X150071428Y-91674517D02*
X150261904Y-91579279D01*
X150261904Y-91579279D02*
X150642857Y-91579279D01*
X150642857Y-91579279D02*
X150833333Y-91674517D01*
X150833333Y-91674517D02*
X150928571Y-91864994D01*
X150928571Y-91864994D02*
X150928571Y-92055470D01*
X150928571Y-92055470D02*
X149976190Y-92245946D01*
X152071428Y-92912613D02*
X151880952Y-92817375D01*
X151880952Y-92817375D02*
X151785714Y-92626898D01*
X151785714Y-92626898D02*
X151785714Y-90912613D01*
X153119047Y-92912613D02*
X152928571Y-92817375D01*
X152928571Y-92817375D02*
X152833333Y-92626898D01*
X152833333Y-92626898D02*
X152833333Y-90912613D01*
D17*
%TO.C,kibuzzard-666C29AC*%
G36*
X131669359Y-149014216D02*
G01*
X130996230Y-149014216D01*
X130035003Y-149014216D01*
X129340334Y-149014216D01*
X128330641Y-149014216D01*
X128330641Y-147867205D01*
X129340334Y-147867205D01*
X129465536Y-147911632D01*
X129641222Y-147956058D01*
X129839122Y-147990388D01*
X130035003Y-148004523D01*
X130268242Y-147989883D01*
X130467151Y-147945961D01*
X130632741Y-147875283D01*
X130766020Y-147780372D01*
X130939688Y-147527948D01*
X130996230Y-147208885D01*
X130969474Y-147005937D01*
X130889203Y-146833279D01*
X130760467Y-146694952D01*
X130588314Y-146594992D01*
X130814486Y-146384976D01*
X130899300Y-146098223D01*
X130850835Y-145819548D01*
X130701400Y-145595396D01*
X130444938Y-145447981D01*
X130275814Y-145408603D01*
X130079429Y-145395477D01*
X129864869Y-145414156D01*
X129673533Y-145470194D01*
X129384760Y-145617609D01*
X129562466Y-145981099D01*
X129802773Y-145865994D01*
X130083468Y-145819548D01*
X130311659Y-145898304D01*
X130394453Y-146114378D01*
X130356085Y-146267851D01*
X130257135Y-146364782D01*
X130119817Y-146417286D01*
X129966344Y-146433441D01*
X129780560Y-146433441D01*
X129780560Y-146845396D01*
X129934033Y-146845396D01*
X130155156Y-146865085D01*
X130333872Y-146924152D01*
X130452006Y-147032694D01*
X130491384Y-147200808D01*
X130388395Y-147471405D01*
X130247543Y-147553191D01*
X130030964Y-147580452D01*
X129839627Y-147569346D01*
X129677571Y-147536026D01*
X129437264Y-147451212D01*
X129340334Y-147867205D01*
X128330641Y-147867205D01*
X128330641Y-144385784D01*
X129340334Y-144385784D01*
X130996230Y-144385784D01*
X131669359Y-144385784D01*
X131669359Y-149014216D01*
G37*
%TO.C,kibuzzard-666C2AB0*%
G36*
X103676225Y-64123129D02*
G01*
X101993403Y-64123129D01*
X100333468Y-64123129D01*
X99323775Y-64123129D01*
X99323775Y-61471002D01*
X100333468Y-61471002D01*
X100495019Y-61882956D01*
X100741384Y-61784006D01*
X100999865Y-61640630D01*
X100999865Y-63038045D01*
X100474825Y-63038045D01*
X100474825Y-63450000D01*
X101993403Y-63450000D01*
X101993403Y-63038045D01*
X101496634Y-63038045D01*
X101496634Y-60950000D01*
X101157377Y-60950000D01*
X100983710Y-61107512D01*
X100769655Y-61252908D01*
X100543484Y-61378110D01*
X100333468Y-61471002D01*
X99323775Y-61471002D01*
X99323775Y-60276871D01*
X100333468Y-60276871D01*
X101993403Y-60276871D01*
X103676225Y-60276871D01*
X103676225Y-64123129D01*
G37*
%TO.C,kibuzzard-666C2AB5*%
G36*
X103692380Y-89151400D02*
G01*
X102009558Y-89151400D01*
X100317313Y-89151400D01*
X99307620Y-89151400D01*
X99307620Y-86252908D01*
X100317313Y-86252908D01*
X100563678Y-86600242D01*
X100818121Y-86410420D01*
X101064486Y-86353877D01*
X101298735Y-86436672D01*
X101391626Y-86672940D01*
X101316909Y-86886995D01*
X101127087Y-87105089D01*
X101007943Y-87220699D01*
X100880722Y-87341357D01*
X100753500Y-87469588D01*
X100634356Y-87607916D01*
X100529348Y-87757855D01*
X100444534Y-87920921D01*
X100388496Y-88098627D01*
X100369817Y-88292488D01*
X100367798Y-88377302D01*
X100377894Y-88478271D01*
X102009558Y-88478271D01*
X102009558Y-88066317D01*
X100935245Y-88066317D01*
X100977652Y-87933037D01*
X101080641Y-87789661D01*
X101209882Y-87652342D01*
X101331045Y-87537237D01*
X101537022Y-87335299D01*
X101718767Y-87117205D01*
X101848008Y-86884976D01*
X101896473Y-86636591D01*
X101831852Y-86323586D01*
X101658185Y-86099435D01*
X101407781Y-85966155D01*
X101112951Y-85921729D01*
X100902430Y-85941922D01*
X100690899Y-86002504D01*
X100491485Y-86105493D01*
X100317313Y-86252908D01*
X99307620Y-86252908D01*
X99307620Y-85248600D01*
X100317313Y-85248600D01*
X102009558Y-85248600D01*
X103692380Y-85248600D01*
X103692380Y-89151400D01*
G37*
%TO.C,G\u002A\u002A\u002A*%
G36*
X122350968Y-46650294D02*
G01*
X122317438Y-47286269D01*
X122291412Y-47947358D01*
X122276644Y-48529901D01*
X122274654Y-48757206D01*
X122274654Y-49616878D01*
X121519129Y-49616878D01*
X120763603Y-49616878D01*
X120705969Y-49236463D01*
X120681172Y-48984199D01*
X120652496Y-48551589D01*
X120622968Y-47992286D01*
X120595617Y-47359945D01*
X120587057Y-47129551D01*
X120525779Y-45403053D01*
X121476530Y-45403053D01*
X122427281Y-45403053D01*
X122350968Y-46650294D01*
G37*
G36*
X125922771Y-46485713D02*
G01*
X125894174Y-47135315D01*
X125854537Y-47854118D01*
X125811755Y-48500821D01*
X125805720Y-48580723D01*
X125727650Y-49592956D01*
X124791244Y-48892067D01*
X123854839Y-48191178D01*
X123750717Y-48904028D01*
X123688091Y-49295033D01*
X123621226Y-49508163D01*
X123513449Y-49597383D01*
X123328087Y-49616662D01*
X123266307Y-49616878D01*
X122886019Y-49616878D01*
X122810491Y-48065956D01*
X122776533Y-47429249D01*
X122739011Y-46824061D01*
X122702356Y-46316542D01*
X122670998Y-45972842D01*
X122669401Y-45959044D01*
X122603839Y-45403053D01*
X123293372Y-45403053D01*
X123696370Y-45415067D01*
X123963635Y-45477818D01*
X124193295Y-45631372D01*
X124440092Y-45871256D01*
X124708613Y-46128658D01*
X124918937Y-46298716D01*
X125000864Y-46339458D01*
X125047961Y-46237708D01*
X125041213Y-45982904D01*
X125025346Y-45871256D01*
X124946243Y-45403053D01*
X125453997Y-45402994D01*
X125961751Y-45402935D01*
X125922771Y-46485713D01*
G37*
G36*
X128357120Y-45290106D02*
G01*
X128890421Y-45452410D01*
X129353175Y-45776922D01*
X129677929Y-46224741D01*
X129835646Y-46730685D01*
X129891078Y-47350099D01*
X129846591Y-47987200D01*
X129704552Y-48546203D01*
X129615877Y-48735536D01*
X129217560Y-49247762D01*
X128725550Y-49584102D01*
X128181652Y-49731902D01*
X127627672Y-49678509D01*
X127187549Y-49470564D01*
X126747609Y-49039500D01*
X126438842Y-48462277D01*
X126273364Y-47794301D01*
X126272501Y-47734091D01*
X127574571Y-47734091D01*
X127598256Y-48141705D01*
X127707998Y-48509262D01*
X127784705Y-48632391D01*
X128017253Y-48785802D01*
X128259058Y-48707989D01*
X128413178Y-48537377D01*
X128542295Y-48227893D01*
X128590384Y-47847699D01*
X128554049Y-47497489D01*
X128454931Y-47299274D01*
X128182544Y-47167469D01*
X127880309Y-47206105D01*
X127654983Y-47400628D01*
X127650394Y-47408968D01*
X127574571Y-47734091D01*
X126272501Y-47734091D01*
X126263289Y-47090981D01*
X126420733Y-46407723D01*
X126484244Y-46254089D01*
X126816836Y-45772001D01*
X127272038Y-45450345D01*
X127801563Y-45289565D01*
X128357120Y-45290106D01*
G37*
G36*
X132221183Y-45323597D02*
G01*
X132488336Y-45461853D01*
X132634075Y-45738976D01*
X132688850Y-46193170D01*
X132692166Y-46402671D01*
X132684519Y-46807441D01*
X132653103Y-47022947D01*
X132585204Y-47093766D01*
X132499663Y-47077596D01*
X132273650Y-47102583D01*
X132153833Y-47213414D01*
X132072132Y-47384147D01*
X132100632Y-47587960D01*
X132229285Y-47871548D01*
X132434264Y-48441001D01*
X132435574Y-48919789D01*
X132243720Y-49288364D01*
X131869208Y-49527175D01*
X131322542Y-49616673D01*
X131291411Y-49616878D01*
X130953697Y-49605171D01*
X130772072Y-49537828D01*
X130668641Y-49366516D01*
X130612249Y-49195472D01*
X130538566Y-48924108D01*
X130557461Y-48819578D01*
X130685449Y-48827314D01*
X130720951Y-48836314D01*
X131056010Y-48854655D01*
X131246902Y-48727150D01*
X131286699Y-48497610D01*
X131168471Y-48209844D01*
X130885290Y-47907663D01*
X130869762Y-47895370D01*
X130404546Y-47421777D01*
X130154782Y-46926074D01*
X130108510Y-46441725D01*
X130253774Y-46002196D01*
X130578615Y-45640951D01*
X131071075Y-45391455D01*
X131719197Y-45287172D01*
X131802165Y-45286002D01*
X132221183Y-45323597D01*
G37*
G36*
X139525000Y-45402940D02*
G01*
X140212673Y-45403053D01*
X140139516Y-45768836D01*
X140112843Y-46017786D01*
X140090523Y-46446325D01*
X140074515Y-46999954D01*
X140066777Y-47624174D01*
X140066359Y-47804700D01*
X140067139Y-48489450D01*
X140053992Y-48975972D01*
X140003689Y-49299952D01*
X139892999Y-49497079D01*
X139698692Y-49603041D01*
X139397540Y-49653524D01*
X138966312Y-49684218D01*
X138837327Y-49692852D01*
X138329660Y-49710357D01*
X137968605Y-49671233D01*
X137671244Y-49564894D01*
X137616615Y-49537020D01*
X137285664Y-49328147D01*
X137031269Y-49074300D01*
X136840181Y-48740396D01*
X136699153Y-48291355D01*
X136594935Y-47692094D01*
X136514277Y-46907532D01*
X136486386Y-46544297D01*
X136404322Y-45403053D01*
X137298935Y-45403053D01*
X138193548Y-45403053D01*
X138195341Y-47012500D01*
X138201981Y-47610285D01*
X138218937Y-48127916D01*
X138243836Y-48518295D01*
X138274309Y-48734323D01*
X138283129Y-48756561D01*
X138461439Y-48887821D01*
X138603226Y-48932137D01*
X138692498Y-48937464D01*
X138755620Y-48894639D01*
X138797115Y-48769966D01*
X138821505Y-48529752D01*
X138833313Y-48140300D01*
X138837062Y-47567917D01*
X138837327Y-47187963D01*
X138837327Y-45402827D01*
X139525000Y-45402940D01*
G37*
G36*
X142760247Y-45422889D02*
G01*
X143349688Y-45661063D01*
X143767857Y-46025017D01*
X144000720Y-46507373D01*
X144046083Y-46889667D01*
X143986870Y-47442260D01*
X143786756Y-47865028D01*
X143495447Y-48168412D01*
X143200966Y-48417181D01*
X143618346Y-48879171D01*
X144035726Y-49341160D01*
X143511045Y-49596070D01*
X143197298Y-49743054D01*
X142979121Y-49835165D01*
X142925526Y-49850979D01*
X142834394Y-49759453D01*
X142689958Y-49534772D01*
X142665293Y-49491063D01*
X142436164Y-49093051D01*
X142291525Y-48893197D01*
X142212693Y-48879521D01*
X142180984Y-49040041D01*
X142176995Y-49177938D01*
X142173272Y-49616878D01*
X141422950Y-49616878D01*
X140672628Y-49616878D01*
X140607574Y-48651210D01*
X140569484Y-48064672D01*
X140537557Y-47548982D01*
X142173272Y-47548982D01*
X142193512Y-47836785D01*
X142242687Y-48007846D01*
X142247187Y-48013067D01*
X142399315Y-48026259D01*
X142607596Y-47923621D01*
X142769294Y-47761242D01*
X142791033Y-47716145D01*
X142779584Y-47455192D01*
X142615254Y-47235938D01*
X142403255Y-47158813D01*
X142241284Y-47209095D01*
X142178619Y-47400470D01*
X142173272Y-47548982D01*
X140537557Y-47548982D01*
X140526661Y-47372982D01*
X140487029Y-46704744D01*
X140478726Y-46559562D01*
X140414932Y-45433583D01*
X141123694Y-45353395D01*
X142013571Y-45317874D01*
X142760247Y-45422889D01*
G37*
G36*
X134971486Y-45423693D02*
G01*
X135252497Y-45486381D01*
X135318072Y-45549366D01*
X135358138Y-45707095D01*
X135441865Y-46052223D01*
X135559545Y-46544214D01*
X135701471Y-47142531D01*
X135822603Y-47656279D01*
X136283690Y-49616878D01*
X135482859Y-49616878D01*
X135043458Y-49606143D01*
X134794176Y-49567616D01*
X134691746Y-49491810D01*
X134682028Y-49441302D01*
X134633711Y-49289346D01*
X134473818Y-49316260D01*
X134275124Y-49448035D01*
X134093623Y-49553048D01*
X133955921Y-49495382D01*
X133838787Y-49356524D01*
X133633777Y-49090150D01*
X133631174Y-49353514D01*
X133592178Y-49533012D01*
X133435453Y-49606115D01*
X133218894Y-49616878D01*
X132948084Y-49589253D01*
X132812746Y-49521327D01*
X132809217Y-49506915D01*
X132835649Y-49356858D01*
X132907794Y-49026913D01*
X132960925Y-48797523D01*
X133759832Y-48797523D01*
X134096971Y-48797523D01*
X134358734Y-48768844D01*
X134490957Y-48705542D01*
X134482564Y-48551148D01*
X134393996Y-48272429D01*
X134343185Y-48149781D01*
X134138565Y-47686000D01*
X133949198Y-48241762D01*
X133759832Y-48797523D01*
X132960925Y-48797523D01*
X133014923Y-48564388D01*
X133146307Y-48016589D01*
X133159188Y-47963765D01*
X133302866Y-47354517D01*
X133431503Y-46771006D01*
X133530577Y-46281509D01*
X133583945Y-45966815D01*
X133658731Y-45403053D01*
X134466680Y-45403053D01*
X134971486Y-45423693D01*
G37*
G36*
X119466925Y-43221468D02*
G01*
X119836467Y-43251971D01*
X120052666Y-43283542D01*
X120084408Y-43296140D01*
X120113003Y-43429918D01*
X120149611Y-43747100D01*
X120189113Y-44197360D01*
X120219967Y-44628940D01*
X120254693Y-45186721D01*
X120268561Y-45549592D01*
X120256074Y-45756235D01*
X120211733Y-45845338D01*
X120130039Y-45855584D01*
X120048301Y-45836715D01*
X119670596Y-45827340D01*
X119398588Y-46026314D01*
X119342269Y-46116788D01*
X119303280Y-46299192D01*
X119365508Y-46563387D01*
X119542490Y-46961800D01*
X119579622Y-47036085D01*
X119851184Y-47743606D01*
X119916765Y-48363413D01*
X119783287Y-48881039D01*
X119457676Y-49282019D01*
X118946856Y-49551887D01*
X118317900Y-49672040D01*
X117929096Y-49686466D01*
X117602101Y-49672270D01*
X117517089Y-49659244D01*
X117321856Y-49537400D01*
X117179873Y-49243782D01*
X117136674Y-49090307D01*
X117045941Y-48714419D01*
X117026062Y-48517477D01*
X117091811Y-48451142D01*
X117257957Y-48467078D01*
X117323338Y-48479480D01*
X117743844Y-48488383D01*
X118040978Y-48350163D01*
X118174373Y-48086245D01*
X118177880Y-48025964D01*
X118122913Y-47812409D01*
X117942219Y-47537845D01*
X117612108Y-47170113D01*
X117366710Y-46924727D01*
X116802436Y-46297097D01*
X116455534Y-45716364D01*
X116320209Y-45158715D01*
X116390664Y-44600337D01*
X116659684Y-44019744D01*
X117013901Y-43619259D01*
X117515865Y-43353390D01*
X118184581Y-43215458D01*
X119000487Y-43197186D01*
X119466925Y-43221468D01*
G37*
%TO.C,kibuzzard-666C296D*%
G36*
X109471379Y-149259693D02*
G01*
X108798250Y-149259693D01*
X107138314Y-149259693D01*
X106128621Y-149259693D01*
X106128621Y-146271002D01*
X107138314Y-146271002D01*
X107299865Y-146682956D01*
X107546230Y-146584006D01*
X107804712Y-146440630D01*
X107804712Y-147838045D01*
X107279672Y-147838045D01*
X107279672Y-148250000D01*
X108798250Y-148250000D01*
X108798250Y-147838045D01*
X108301481Y-147838045D01*
X108301481Y-145750000D01*
X107962224Y-145750000D01*
X107788557Y-145907512D01*
X107574502Y-146052908D01*
X107348331Y-146178110D01*
X107138314Y-146271002D01*
X106128621Y-146271002D01*
X106128621Y-144740307D01*
X107138314Y-144740307D01*
X108798250Y-144740307D01*
X109471379Y-144740307D01*
X109471379Y-149259693D01*
G37*
%TO.C,kibuzzard-666C29A3*%
G36*
X120587534Y-148987964D02*
G01*
X119914405Y-148987964D01*
X118222159Y-148987964D01*
X117212466Y-148987964D01*
X117212466Y-145752908D01*
X118222159Y-145752908D01*
X118468525Y-146100242D01*
X118722967Y-145910420D01*
X118969332Y-145853877D01*
X119203581Y-145936672D01*
X119296473Y-146172940D01*
X119221756Y-146386995D01*
X119031933Y-146605089D01*
X118912789Y-146720699D01*
X118785568Y-146841357D01*
X118658347Y-146969588D01*
X118539203Y-147107916D01*
X118434195Y-147257855D01*
X118349381Y-147420921D01*
X118293343Y-147598627D01*
X118274663Y-147792488D01*
X118272644Y-147877302D01*
X118282741Y-147978271D01*
X119914405Y-147978271D01*
X119914405Y-147566317D01*
X118840092Y-147566317D01*
X118882499Y-147433037D01*
X118985487Y-147289661D01*
X119114728Y-147152342D01*
X119235891Y-147037237D01*
X119441869Y-146835299D01*
X119623613Y-146617205D01*
X119752854Y-146384976D01*
X119801319Y-146136591D01*
X119736699Y-145823586D01*
X119563032Y-145599435D01*
X119312628Y-145466155D01*
X119017798Y-145421729D01*
X118807277Y-145441922D01*
X118595746Y-145502504D01*
X118396331Y-145605493D01*
X118222159Y-145752908D01*
X117212466Y-145752908D01*
X117212466Y-144412036D01*
X118222159Y-144412036D01*
X119914405Y-144412036D01*
X120587534Y-144412036D01*
X120587534Y-148987964D01*
G37*
%TO.C,kibuzzard-666C2ABA*%
G36*
X103674206Y-114177652D02*
G01*
X101991384Y-114177652D01*
X101030156Y-114177652D01*
X100335487Y-114177652D01*
X99325794Y-114177652D01*
X99325794Y-113367205D01*
X100335487Y-113367205D01*
X100460689Y-113411632D01*
X100636376Y-113456058D01*
X100834276Y-113490388D01*
X101030156Y-113504523D01*
X101263395Y-113489883D01*
X101462305Y-113445961D01*
X101627894Y-113375283D01*
X101761174Y-113280372D01*
X101934841Y-113027948D01*
X101991384Y-112708885D01*
X101964627Y-112505937D01*
X101884356Y-112333279D01*
X101755621Y-112194952D01*
X101583468Y-112094992D01*
X101809639Y-111884976D01*
X101894453Y-111598223D01*
X101845988Y-111319548D01*
X101696554Y-111095396D01*
X101440092Y-110947981D01*
X101270968Y-110908603D01*
X101074583Y-110895477D01*
X100860023Y-110914156D01*
X100668686Y-110970194D01*
X100379914Y-111117609D01*
X100557620Y-111481099D01*
X100797927Y-111365994D01*
X101078621Y-111319548D01*
X101306812Y-111398304D01*
X101389607Y-111614378D01*
X101351239Y-111767851D01*
X101252289Y-111864782D01*
X101114970Y-111917286D01*
X100961497Y-111933441D01*
X100775714Y-111933441D01*
X100775714Y-112345396D01*
X100929187Y-112345396D01*
X101150310Y-112365085D01*
X101329025Y-112424152D01*
X101447159Y-112532694D01*
X101486537Y-112700808D01*
X101383549Y-112971405D01*
X101242697Y-113053191D01*
X101026117Y-113080452D01*
X100834781Y-113069346D01*
X100672725Y-113036026D01*
X100432418Y-112951212D01*
X100335487Y-113367205D01*
X99325794Y-113367205D01*
X99325794Y-110222348D01*
X100335487Y-110222348D01*
X101991384Y-110222348D01*
X103674206Y-110222348D01*
X103674206Y-114177652D01*
G37*
%TD*%
D18*
%TO.C,Ref\u002A\u002A*%
X149500000Y-102200000D03*
%TD*%
D19*
%TO.C,Ref\u002A\u002A*%
X141700000Y-140000000D03*
%TD*%
%TO.C,Ref\u002A\u002A*%
X107800000Y-140000000D03*
%TD*%
%TO.C,Ref\u002A\u002A*%
X118900000Y-140000000D03*
%TD*%
D18*
%TO.C,Ref\u002A\u002A*%
X130600000Y-93800000D03*
%TD*%
D19*
%TO.C,Ref\u002A\u002A*%
X107800000Y-153500000D03*
%TD*%
%TO.C,Ref\u002A\u002A*%
X130000000Y-140000000D03*
%TD*%
D20*
%TO.C,Ref\u002A\u002A*%
X153000000Y-43800000D03*
%TD*%
D21*
%TO.C,Ref\u002A\u002A*%
X149500000Y-121200000D03*
%TD*%
D19*
%TO.C,Ref\u002A\u002A*%
X118900000Y-153500000D03*
%TD*%
D18*
%TO.C,Ref\u002A\u002A*%
X149500000Y-62200000D03*
%TD*%
D19*
%TO.C,Ref\u002A\u002A*%
X152200000Y-153500000D03*
%TD*%
%TO.C,Ref\u002A\u002A*%
X130000000Y-153500000D03*
%TD*%
D20*
%TO.C,Ref\u002A\u002A*%
X107100000Y-166300000D03*
%TD*%
%TO.C,Ref\u002A\u002A*%
X152900000Y-166300000D03*
%TD*%
D18*
%TO.C,Ref\u002A\u002A*%
X110500000Y-62200000D03*
%TD*%
D19*
%TO.C,Ref\u002A\u002A*%
X152200000Y-140000000D03*
%TD*%
D18*
%TO.C,Ref\u002A\u002A*%
X110500000Y-112200000D03*
%TD*%
D21*
%TO.C,Ref\u002A\u002A*%
X149500000Y-81200000D03*
%TD*%
D18*
%TO.C,Ref\u002A\u002A*%
X130600000Y-118800000D03*
%TD*%
D19*
%TO.C,Ref\u002A\u002A*%
X141700000Y-153500000D03*
%TD*%
D20*
%TO.C,Ref\u002A\u002A*%
X107100000Y-43800000D03*
%TD*%
D18*
%TO.C,Ref\u002A\u002A*%
X130600000Y-68800000D03*
%TD*%
%TO.C,Ref\u002A\u002A*%
X110500000Y-87200000D03*
%TD*%
M02*
